<?xml version="1.0" encoding="UTF-8" standalone="no"?>
<svg
   width="62"
   height="62"
   version="1.1"
   id="svg9"
   sodipodi:docname="app-icon-preview.svg"
   inkscape:version="1.4 (unknown)"
   xmlns:inkscape="http://www.inkscape.org/namespaces/inkscape"
   xmlns:sodipodi="http://sodipodi.sourceforge.net/DTD/sodipodi-0.dtd"
   xmlns:xlink="http://www.w3.org/1999/xlink"
   xmlns="http://www.w3.org/2000/svg"
   xmlns:svg="http://www.w3.org/2000/svg">
  <defs
     id="defs9">
    <linearGradient
       id="linearGradient1"
       inkscape:collect="always">
      <stop
         style="stop-color:#354b64;stop-opacity:1;"
         offset="0"
         id="stop1" />
      <stop
         style="stop-color:#0066ff;stop-opacity:1"
         offset="1"
         id="stop2" />
    </linearGradient>
    <linearGradient
       inkscape:collect="always"
       xlink:href="#linearGradient1"
       id="linearGradient2"
       x1="31"
       y1="58.017544"
       x2="31"
       y2="3"
       gradientUnits="userSpaceOnUse" />
    <mask
       id="s">
      <g
         id="g14"
         filter="url(#a)">
        <path
           id="path14"
           d="M 0,0 H 128 V 128 H 0 Z"
           fill-opacity="0.1" />
      </g>
    </mask>
    <filter
       id="a"
       x="0"
       y="0"
       width="1"
       height="1">
      <feColorMatrix
         id="feColorMatrix39"
         in="SourceGraphic"
         values="0 0 0 0 1 0 0 0 0 1 0 0 0 0 1 0 0 0 1 0" />
    </filter>
    <filter
       id="r"
       x="-0.048342858"
       y="-0.67680001"
       width="1.0966857"
       height="2.3536"
       color-interpolation-filters="sRGB">
      <feGaussianBlur
         id="feGaussianBlur41"
         stdDeviation=".564" />
    </filter>
    <clipPath
       id="b">
      <path
         id="path1-3"
         d="M 0,0 H 192 V 152 H 0 Z" />
    </clipPath>
    <mask
       id="w">
      <g
         id="g15"
         filter="url(#a)">
        <path
           id="path15"
           d="M 0,0 H 128 V 128 H 0 Z"
           fill-opacity="0.2" />
      </g>
    </mask>
    <filter
       id="filter1"
       x="0"
       y="0"
       width="1"
       height="1">
      <feColorMatrix
         id="feColorMatrix1"
         in="SourceGraphic"
         values="0 0 0 0 1 0 0 0 0 1 0 0 0 0 1 0 0 0 1 0" />
    </filter>
    <filter
       id="u"
       x="-0.048342858"
       y="-0.67680001"
       width="1.0966857"
       height="2.3536"
       color-interpolation-filters="sRGB">
      <feGaussianBlur
         id="feGaussianBlur42"
         stdDeviation=".564" />
    </filter>
    <clipPath
       id="c">
      <path
         id="path2"
         d="M 0,0 H 192 V 152 H 0 Z" />
    </clipPath>
    <mask
       id="z">
      <g
         id="g16"
         filter="url(#a)">
        <path
           id="path16"
           d="M 0,0 H 128 V 128 H 0 Z"
           fill-opacity="0.2" />
      </g>
    </mask>
    <filter
       id="filter2"
       x="0"
       y="0"
       width="1"
       height="1">
      <feColorMatrix
         id="feColorMatrix2"
         in="SourceGraphic"
         values="0 0 0 0 1 0 0 0 0 1 0 0 0 0 1 0 0 0 1 0" />
    </filter>
    <clipPath
       id="d">
      <path
         id="path3-6"
         d="M 0,0 H 192 V 152 H 0 Z" />
    </clipPath>
    <mask
       id="B">
      <g
         id="g17"
         filter="url(#a)">
        <path
           id="path17"
           d="M 0,0 H 128 V 128 H 0 Z"
           fill-opacity="0.1" />
      </g>
    </mask>
    <filter
       id="filter3"
       x="0"
       y="0"
       width="1"
       height="1">
      <feColorMatrix
         id="feColorMatrix3"
         in="SourceGraphic"
         values="0 0 0 0 1 0 0 0 0 1 0 0 0 0 1 0 0 0 1 0" />
    </filter>
    <clipPath
       id="e">
      <path
         id="path4-7"
         d="M 0,0 H 192 V 152 H 0 Z" />
    </clipPath>
    <mask
       id="E">
      <g
         id="g18"
         filter="url(#a)">
        <path
           id="path18"
           d="M 0,0 H 128 V 128 H 0 Z"
           fill-opacity="0.33" />
      </g>
    </mask>
    <filter
       id="filter4"
       x="0"
       y="0"
       width="1"
       height="1">
      <feColorMatrix
         id="feColorMatrix4"
         in="SourceGraphic"
         values="0 0 0 0 1 0 0 0 0 1 0 0 0 0 1 0 0 0 1 0" />
    </filter>
    <filter
       id="D"
       x="-0.10700637"
       y="-0.043378269"
       width="1.2140127"
       height="1.0867565"
       color-interpolation-filters="sRGB">
      <feGaussianBlur
         id="feGaussianBlur39"
         stdDeviation="1.204" />
    </filter>
    <clipPath
       id="f">
      <path
         id="path5-5"
         d="M 0,0 H 192 V 152 H 0 Z" />
    </clipPath>
    <mask
       id="H">
      <g
         id="g19"
         filter="url(#a)">
        <path
           id="path19"
           d="M 0,0 H 128 V 128 H 0 Z"
           fill-opacity="0.25" />
      </g>
    </mask>
    <filter
       id="filter5"
       x="0"
       y="0"
       width="1"
       height="1">
      <feColorMatrix
         id="feColorMatrix5"
         in="SourceGraphic"
         values="0 0 0 0 1 0 0 0 0 1 0 0 0 0 1 0 0 0 1 0" />
    </filter>
    <filter
       id="G"
       x="-0.10700637"
       y="-0.043378269"
       width="1.2140127"
       height="1.0867565"
       color-interpolation-filters="sRGB">
      <feGaussianBlur
         id="feGaussianBlur40"
         stdDeviation="1.204" />
    </filter>
    <clipPath
       id="g">
      <path
         id="path6"
         d="M 0,0 H 192 V 152 H 0 Z" />
    </clipPath>
    <linearGradient
       id="I"
       x1="59.087002"
       x2="67.926003"
       y1="186"
       y2="186"
       gradientTransform="translate(94.042,-116.06)"
       gradientUnits="userSpaceOnUse">
      <stop
         id="stop44"
         stop-color="#ACABAE"
         offset="0" />
      <stop
         id="stop45"
         stop-color="#77767B"
         offset=".38" />
      <stop
         id="stop46"
         stop-color="#5D5C60"
         offset="1" />
    </linearGradient>
    <mask
       id="K">
      <g
         id="g20"
         filter="url(#a)">
        <path
           id="path20"
           d="M 0,0 H 128 V 128 H 0 Z"
           fill-opacity="0.8" />
      </g>
    </mask>
    <filter
       id="filter6"
       x="0"
       y="0"
       width="1"
       height="1">
      <feColorMatrix
         id="feColorMatrix6"
         in="SourceGraphic"
         values="0 0 0 0 1 0 0 0 0 1 0 0 0 0 1 0 0 0 1 0" />
    </filter>
    <clipPath
       id="h">
      <path
         id="path7"
         d="M 0,0 H 192 V 152 H 0 Z" />
    </clipPath>
    <mask
       id="M">
      <g
         id="g21"
         filter="url(#a)">
        <path
           id="path21"
           d="M 0,0 H 128 V 128 H 0 Z"
           fill-opacity="0.05" />
      </g>
    </mask>
    <filter
       id="filter7"
       x="0"
       y="0"
       width="1"
       height="1">
      <feColorMatrix
         id="feColorMatrix7"
         in="SourceGraphic"
         values="0 0 0 0 1 0 0 0 0 1 0 0 0 0 1 0 0 0 1 0" />
    </filter>
    <clipPath
       id="i">
      <path
         id="path8"
         d="M 0,0 H 192 V 152 H 0 Z" />
    </clipPath>
    <mask
       id="O">
      <g
         id="g22"
         filter="url(#a)">
        <path
           id="path22"
           d="M 0,0 H 128 V 128 H 0 Z"
           fill-opacity="0.05" />
      </g>
    </mask>
    <filter
       id="filter8"
       x="0"
       y="0"
       width="1"
       height="1">
      <feColorMatrix
         id="feColorMatrix8"
         in="SourceGraphic"
         values="0 0 0 0 1 0 0 0 0 1 0 0 0 0 1 0 0 0 1 0" />
    </filter>
    <clipPath
       id="j">
      <path
         id="path9-3"
         d="M 0,0 H 192 V 152 H 0 Z" />
    </clipPath>
    <mask
       id="Q">
      <g
         id="g23"
         filter="url(#a)">
        <path
           id="path23"
           d="M 0,0 H 128 V 128 H 0 Z"
           fill-opacity="0.05" />
      </g>
    </mask>
    <filter
       id="filter9"
       x="0"
       y="0"
       width="1"
       height="1">
      <feColorMatrix
         id="feColorMatrix9"
         in="SourceGraphic"
         values="0 0 0 0 1 0 0 0 0 1 0 0 0 0 1 0 0 0 1 0" />
    </filter>
    <clipPath
       id="k">
      <path
         id="path10"
         d="M 0,0 H 192 V 152 H 0 Z" />
    </clipPath>
    <mask
       id="S">
      <g
         id="g24"
         filter="url(#a)">
        <path
           id="path24"
           d="M 0,0 H 128 V 128 H 0 Z"
           fill-opacity="0.05" />
      </g>
    </mask>
    <filter
       id="filter10"
       x="0"
       y="0"
       width="1"
       height="1">
      <feColorMatrix
         id="feColorMatrix10"
         in="SourceGraphic"
         values="0 0 0 0 1 0 0 0 0 1 0 0 0 0 1 0 0 0 1 0" />
    </filter>
    <clipPath
       id="l">
      <path
         id="path11"
         d="M 0,0 H 192 V 152 H 0 Z" />
    </clipPath>
    <linearGradient
       id="T"
       x1="88"
       x2="96"
       y1="200"
       y2="200"
       gradientTransform="rotate(90,183.05,174.99)"
       gradientUnits="userSpaceOnUse">
      <stop
         id="stop47"
         stop-color="#9A9996"
         offset="0" />
      <stop
         id="stop48"
         stop-color="#9A9996"
         stop-opacity="0"
         offset="1" />
    </linearGradient>
    <mask
       id="V">
      <g
         id="g25"
         filter="url(#a)">
        <path
           id="path25"
           d="M 0,0 H 128 V 128 H 0 Z"
           fill-opacity="0.2" />
      </g>
    </mask>
    <filter
       id="filter11"
       x="0"
       y="0"
       width="1"
       height="1">
      <feColorMatrix
         id="feColorMatrix11"
         in="SourceGraphic"
         values="0 0 0 0 1 0 0 0 0 1 0 0 0 0 1 0 0 0 1 0" />
    </filter>
    <clipPath
       id="m">
      <path
         id="path12"
         d="M 0,0 H 192 V 152 H 0 Z" />
    </clipPath>
    <mask
       id="X">
      <g
         id="g26"
         filter="url(#a)">
        <path
           id="path26"
           d="M 0,0 H 128 V 128 H 0 Z"
           fill-opacity="0.1" />
      </g>
    </mask>
    <filter
       id="filter12"
       x="0"
       y="0"
       width="1"
       height="1">
      <feColorMatrix
         id="feColorMatrix12"
         in="SourceGraphic"
         values="0 0 0 0 1 0 0 0 0 1 0 0 0 0 1 0 0 0 1 0" />
    </filter>
    <clipPath
       id="n">
      <path
         id="path13"
         d="M 0,0 H 192 V 152 H 0 Z" />
    </clipPath>
  </defs>
  <sodipodi:namedview
     id="namedview9"
     pagecolor="#ffffff"
     bordercolor="#000000"
     borderopacity="0.25"
     inkscape:showpageshadow="2"
     inkscape:pageopacity="0.0"
     inkscape:pagecheckerboard="0"
     inkscape:deskcolor="#d1d1d1"
     inkscape:zoom="7.0710678"
     inkscape:cx="29.769195"
     inkscape:cy="24.112341"
     inkscape:window-width="1920"
     inkscape:window-height="996"
     inkscape:window-x="0"
     inkscape:window-y="0"
     inkscape:window-maximized="1"
     inkscape:current-layer="svg9" />
  <rect
     style="opacity:0.2;stroke-width:0.9823"
     width="55"
     height="55.017544"
     x="3.5"
     y="3.9824562"
     ry="8.2526312"
     id="rect1" />
  <rect
     style="fill:url(#linearGradient2);fill-opacity:1;stroke-width:0.9823"
     width="55"
     height="55.017544"
     x="3.5"
     y="3"
     ry="8.2526312"
     id="rect2" />
  <path
     style="opacity:0.1;fill:#ffffff;stroke-width:0.9823"
     d="M 11.748466,3 C 7.1779651,3 3.4999999,6.6791384 3.4999999,11.251097 v 0.982456 c 0,-4.5719585 3.6779652,-8.2510968 8.2484661,-8.2510968 h 38.503068 c 4.5705,0 8.248466,3.6791383 8.248466,8.2510968 V 11.251097 C 58.5,6.6791384 54.822034,3 50.251534,3 Z"
     id="path9" />
  <g
     id="g81"
     transform="matrix(0.46124922,0,0,0.4576062,-41.896749,-18.597327)">
    <path
       id="path52"
       d="m 158.04,115.94 h 28 v 4 h -28 z"
       fill="#f5f5f3" />
    <g
       id="use52"
       clip-path="url(#b)"
       style="filter:url(#r)"
       transform="translate(86.042,35.939)">
      <path
         id="path59"
         d="m 44,84 h 28 v 2 H 44 Z" />
    </g>
    <g
       id="use53"
       clip-path="url(#c)"
       style="filter:url(#u)"
       transform="translate(86.042,35.939)">
      <path
         id="path51"
         d="m 72,84 h 28 v 2 H 72 Z" />
    </g>
    <path
       id="path53"
       d="m 130.04,115.94 h 28 v 4 h -28 z"
       fill="#dedcd9" />
    <g
       id="use54"
       clip-path="url(#d)"
       transform="translate(86.042,35.939)">
      <path
         id="path50"
         d="m 72,82 h 28 v 2 H 72 Z" />
    </g>
    <path
       id="path54"
       d="m 184.04,115.94 -2,4 h 2 l 2,-4 z m -4,0 -2,4 h 2 l 2,-4 z"
       fill="#97948f" />
    <path
       id="path55"
       d="m 168.04,115.94 -2,4 h 2 l 2,-4 z"
       fill="#6e6e68" />
    <path
       id="path56"
       d="m 172.04,115.94 -2,4 h 2 l 2,-4 z"
       fill="#bfbdba" />
    <path
       id="path57"
       d="m 176.04,115.94 -2,4 h 2 l 2,-4 z"
       fill="#97948f" />
    <path
       id="path58"
       d="m 140.04,115.94 -2,4 h 2 l 2,-4 z m -4,0 -2,4 h 2 l 2,-4 z m -4,0 -2,4 h 2 l 2,-4 z"
       fill="#bfbdba" />
    <g
       id="use58"
       clip-path="url(#e)"
       transform="translate(86.042,35.939)">
      <path
         id="path49"
         d="m 44,82 h 28 v 2 H 44 Z" />
    </g>
    <g
       id="use59"
       clip-path="url(#f)"
       style="filter:url(#D)"
       transform="translate(86.042,35.939)">
      <path
         id="path48"
         d="M 63.359,55.387 62.175,59.211 44,114.001 v 8 l 8,-4 17.82,-56.427 1.184,-3.824 z" />
    </g>
    <g
       id="use60"
       clip-path="url(#g)"
       style="filter:url(#G)"
       transform="translate(86.042,35.939)">
      <path
         id="path47"
         d="m 80.641,55.387 1.184,3.824 18.175,54.79 v 8 l -8,-4 -17.824,-56.427 -1.18,-3.824 z" />
    </g>
    <path
       id="path60"
       d="m 154.04,67.939 2,4 v 2 h 4 v -2 l 2,-4 z"
       fill="url(#I)"
       style="fill:url(#I)" />
    <path
       id="path61"
       d="m 152.04,96.592 -17.004,51" />
    <path
       id="path62"
       d="m 152.04,93.33 -17.004,53"
       fill="#dedcd9" />
    <path
       id="path63"
       d="m 149.4,88.326 -1.184,3.824 -18.176,55.79 v 8 l 8,-4 17.82,-57.427 1.184,-3.824 z"
       fill="#b3b3b0" />
    <path
       id="path64"
       d="m 154.04,55.939 h 8 v 12 h -8 z"
       fill="#75757a"
       style="fill:#597ea7;fill-opacity:1" />
    <path
       id="path65"
       d="m 154.04,55.939 h 2 v 12 h -2 z m 4,0 h 2 v 12 h -2 z"
       fill="#5c5c63"
       style="fill:#354b64;fill-opacity:1" />
    <path
       id="path66"
       d="m 164.04,93.33 17.004,53"
       fill="#dedcd9" />
    <path
       id="path67"
       d="m 166.68,88.326 1.184,3.824 18.176,55.79 v 8 l -8,-4 -17.824,-57.427 -1.18,-3.824 z"
       fill="#bfbdba" />
    <g
       id="use67"
       clip-path="url(#h)"
       transform="translate(86.042,35.939)">
      <path
         id="path46"
         d="m 80.641,52.387 1.184,3.824 18.175,55.79 v 8 l -4,-7 -19.18,-59.43 z"
         fill="#deddda" />
    </g>
    <path
       id="path68"
       d="m 164.04,93.33 17.004,51"
       fill="#dedcd9" />
    <path
       id="path69"
       d="m 149.4,88.326 -1.184,3.824 -18.176,55.79 v 8 l 4,-7 19.18,-59.43 z"
       fill="#ccccca" />
    <path
       id="path70"
       d="m 170.04,83.939 c 0,6.629 -5.371,12 -12,12 -6.629,0 -12,-5.371 -12,-12 0,-6.629 5.371,-12 12,-12 6.629,0 12,5.371 12,12"
       fill="#5c5c63"
       style="fill:#2c3e53;fill-opacity:1" />
    <path
       id="path71"
       d="m 166.04,83.939 a 8,8 0 1 1 -16,0 8,8 0 0 1 16,0"
       fill="#bfbdba" />
    <g
       id="use71"
       clip-path="url(#i)"
       transform="translate(86.042,35.939)">
      <path
         id="path45"
         d="m 44,120.16 4,-7.16 4,3 z"
         fill-rule="evenodd" />
    </g>
    <g
       id="use72"
       clip-path="url(#j)"
       transform="translate(86.042,35.939)">
      <path
         id="path44"
         d="M 100,120.16 96,113 92,116 Z"
         fill-rule="evenodd" />
    </g>
    <g
       id="use73"
       clip-path="url(#k)"
       transform="translate(86.042,35.939)">
      <path
         id="path43"
         d="M 44,120.16 48,113 44,112 Z"
         fill-rule="evenodd" />
    </g>
    <g
       id="use74"
       clip-path="url(#l)"
       transform="translate(86.042,35.939)">
      <path
         id="path42"
         d="m 100,120.08 -4,-7.156 4,-1 z"
         fill-rule="evenodd" />
    </g>
    <path
       id="path74"
       d="m 158.04,87.939 c -2.21,0 -4,-1.79 -4,-4 0,-2.21 1.79,-4 4,-4 2.21,0 4,1.79 4,4 0,2.21 -1.79,4 -4,4"
       fill="url(#T)"
       style="fill:url(#T)" />
    <path
       id="path75"
       d="m 164.04,115.94 -2,4 h 2 l 2,-4 z m -4,0 -2,4 h 2 l 2,-4 z m -4,0 -2,4 h 2 l 2,-4 z"
       fill="#706e68" />
    <path
       id="path76"
       d="m 152.04,115.94 -2,4 h 2 l 2,-4 z"
       fill="#827f7a" />
    <g
       id="use76"
       clip-path="url(#m)"
       transform="translate(86.042,35.939)">
      <path
         id="path41"
         d="m 68,84 v 6 c 0,1.11 0.89,2 2,2 h 4 c 1.11,0 2,-0.89 2,-2 v -6 z" />
    </g>
    <path
       id="path77"
       d="m 156.04,109.94 h 4 a 2,2 0 0 1 2,2 v 12 a 2,2 0 0 1 -2,2 h -4 a 2,2 0 0 1 -2,-2 v -12 a 2,2 0 0 1 2,-2"
       fill="#999994" />
    <path
       id="path78"
       d="m 154.04,114.94 v 2 h 8 v -2 z"
       fill="#5c5c63" />
    <path
       id="path79"
       d="m 162.04,111.94 v 1 h -8 v -1 z"
       fill="#75757a" />
    <path
       id="path80"
       d="m 154.04,118.94 v 2 h 8 v -2 z"
       fill="#5c5c63" />
    <path
       id="path81"
       d="m 162.04,122.94 v 1 h -8 v -1 z"
       fill="#75757a" />
    <g
       id="use81"
       clip-path="url(#n)"
       transform="translate(86.042,35.939)">
      <path
         id="path40"
         d="m 68,82 v -6 c 0,-1.11 0.89,-2 2,-2 h 4 c 1.11,0 2,0.89 2,2 v 6 z"
         fill="#ffffff" />
    </g>
  </g>
</svg>
