<?xml version="1.0" encoding="UTF-8" standalone="no"?>
<svg
   width="62"
   height="62"
   version="1.1"
   id="svg5"
   sodipodi:docname="app.riftshare.RiftShare.svg"
   inkscape:version="1.4 (unknown)"
   xmlns:inkscape="http://www.inkscape.org/namespaces/inkscape"
   xmlns:sodipodi="http://sodipodi.sourceforge.net/DTD/sodipodi-0.dtd"
   xmlns:xlink="http://www.w3.org/1999/xlink"
   xmlns="http://www.w3.org/2000/svg"
   xmlns:svg="http://www.w3.org/2000/svg">
  <defs
     id="defs5">
    <linearGradient
       id="linearGradient1"
       inkscape:collect="always">
      <stop
         style="stop-color:#233143;stop-opacity:1;"
         offset="0"
         id="stop1" />
      <stop
         style="stop-color:#3e5675;stop-opacity:1;"
         offset="1"
         id="stop2" />
    </linearGradient>
    <linearGradient
       id="paint1_linear_54_1200"
       x1="16"
       y1="26"
       x2="16"
       y2="6"
       gradientUnits="userSpaceOnUse"
       gradientTransform="matrix(3.0397983,0,0,3.0420943,35.820936,133.83376)">
      <stop
         stop-color="#5570FF"
         id="stop3" />
      <stop
         offset="1"
         stop-color="#4DD3FF"
         id="stop4" />
    </linearGradient>
    <linearGradient
       inkscape:collect="always"
       xlink:href="#linearGradient1"
       id="linearGradient2"
       x1="30.609625"
       y1="59.017544"
       x2="30.165775"
       y2="4.9824562"
       gradientUnits="userSpaceOnUse" />
  </defs>
  <sodipodi:namedview
     id="namedview5"
     pagecolor="#ffffff"
     bordercolor="#000000"
     borderopacity="0.25"
     inkscape:showpageshadow="2"
     inkscape:pageopacity="0.0"
     inkscape:pagecheckerboard="0"
     inkscape:deskcolor="#d1d1d1"
     inkscape:zoom="11.6875"
     inkscape:cx="31.957219"
     inkscape:cy="28.534759"
     inkscape:window-width="1920"
     inkscape:window-height="996"
     inkscape:window-x="0"
     inkscape:window-y="0"
     inkscape:window-maximized="1"
     inkscape:current-layer="svg5" />
  <rect
     style="opacity:0.2;stroke-width:0.9823"
     width="55"
     height="55.017544"
     x="4"
     y="4.9824562"
     rx="8.25"
     ry="8.2526312"
     id="rect1" />
  <rect
     style="fill:url(#linearGradient2);stroke-width:0.9823;fill-opacity:1"
     width="55"
     height="55.017544"
     x="4"
     y="4"
     rx="8.25"
     ry="8.2526312"
     id="rect2" />
  <path
     style="opacity:0.1;fill:#ffffff;stroke-width:0.9823"
     d="M 12.248466,4 C 7.6779652,4 4,7.6791384 4,12.251097 v 0.982456 C 4,8.6615945 7.6779652,4.9824561 12.248466,4.9824561 H 50.751534 C 55.322034,4.9824561 59,8.6615945 59,13.233553 V 12.251097 C 59,7.6791384 55.322034,4 50.751534,4 Z"
     id="path4" />
  <g
     id="g1"
     transform="matrix(0.95833333,0,0,0.87804878,0.83333344,-29.515618)">
    <path
       style="opacity:0.2"
       d="m 14.914285,89.6 c 0,0 2.722857,-7.739886 6.514287,-9.942858 6.0936,-3.540684 15.036,-3.517714 21.142856,0 C 46.387544,81.855314 49.2,89.6 49.2,89.6 V 50.4 c 0,0 -2.509256,9.150286 -6.628572,12 -3.950742,2.733144 -15.173258,3.745942 -21.142856,0 -4.228571,-2.653486 -6.514287,-12 -6.514287,-12 z"
       id="path2-3" />
    <path
       style="fill:#00a69b"
       d="m 14.914285,88.6 c 0,0 2.722857,-7.739886 6.514287,-9.942858 6.0936,-3.540684 15.036,-3.517714 21.142856,0 C 46.387544,80.855314 49.2,88.6 49.2,88.6 V 49.4 c 0,0 -2.509256,9.150286 -6.628572,12 -3.950742,2.733144 -15.173258,3.745942 -21.142856,0 -4.228571,-2.653486 -6.514287,-12 -6.514287,-12 z"
       id="path3-6" />
    <path
       style="opacity:0.2"
       d="M 22,70 C 22,58.954288 18.865947,50 14.999999,50 11.134052,50 8,58.954288 8,70 8,81.045712 11.134052,90 14.999999,90 18.865947,90 22,81.045712 22,70 Z"
       id="path4-7" />
    <path
       style="fill:#00d5c7"
       d="M 22,69 C 22,57.954288 18.865947,49 14.999999,49 11.134052,49 8,57.954288 8,69 8,80.045712 11.134052,89 14.999999,89 18.865947,89 22,80.045712 22,69 Z"
       id="path5" />
    <path
       style="opacity:0.2"
       d="M 56,70 C 56,58.954288 52.865948,50 49.000002,50 45.134054,50 42,58.954288 42,70 42,81.045712 45.134054,90 49.000002,90 52.865948,90 56,81.045712 56,70 Z"
       id="path6-5" />
    <path
       style="fill:#00d5c7"
       d="M 56,69 C 56,57.954288 52.865948,49 49.000002,49 45.134054,49 42,57.954288 42,69 42,80.045712 45.134054,89 49.000002,89 52.865948,89 56,80.045712 56,69 Z"
       id="path7" />
    <path
       style="fill:#019187"
       d="M 52,69.000002 C 52,62.372548 50.65684,57 48.999998,57 47.34316,57 46,62.372548 46,69.000002 46,75.627452 47.34316,81 48.999998,81 50.65684,81 52,75.627452 52,69.000002 Z"
       id="path8" />
    <path
       style="fill:#019187"
       d="M 18,69.000002 C 18,62.372548 16.65684,57 14.999998,57 13.34316,57 12,62.372548 12,69.000002 12,75.627452 13.34316,81 14.999998,81 16.65684,81 18,75.627452 18,69.000002 Z"
       id="path9" />
  </g>
</svg>
