<?xml version="1.0" encoding="UTF-8" standalone="no"?>
<svg
   width="62"
   height="62"
   version="1"
   id="svg6"
   sodipodi:docname="love.svg"
   inkscape:version="1.4 (unknown)"
   xmlns:inkscape="http://www.inkscape.org/namespaces/inkscape"
   xmlns:sodipodi="http://sodipodi.sourceforge.net/DTD/sodipodi-0.dtd"
   xmlns="http://www.w3.org/2000/svg"
   xmlns:svg="http://www.w3.org/2000/svg">
  <defs
     id="defs6" />
  <sodipodi:namedview
     id="namedview6"
     pagecolor="#ffffff"
     bordercolor="#000000"
     borderopacity="0.25"
     inkscape:showpageshadow="2"
     inkscape:pageopacity="0.0"
     inkscape:pagecheckerboard="0"
     inkscape:deskcolor="#d1d1d1"
     inkscape:zoom="5"
     inkscape:cx="33.7"
     inkscape:cy="30.9"
     inkscape:window-width="1920"
     inkscape:window-height="996"
     inkscape:window-x="0"
     inkscape:window-y="0"
     inkscape:window-maximized="1"
     inkscape:current-layer="svg6" />
  <g
     id="g6"
     transform="matrix(0.98214286,0,0,0.98245677,-0.42857152,-0.92986298)">
    <circle
       style="opacity:0.2"
       cx="32"
       cy="33"
       r="28"
       id="circle1" />
    <path
       style="fill:#e11e80;fill-opacity:1"
       d="m 50.475314,10.82295 c -0.0066,-0.007 -0.01442,-0.0112 -0.02183,-0.01722 C 41.65424,3.2504204 29.221378,1.9099162 18.932937,7.1640924 8.6502625,12.415408 2.7972755,24.125162 4.2082193,35.473548 5.1933267,43.403806 9.61519,50.358208 15.93149,54.82628 c 0,0 17.411112,-15.5477 22.034775,-21.06489 4.336613,-5.178446 13.80468,-21.716408 13.80468,-21.716408 -0.416364,-0.418572 -0.847554,-0.826448 -1.29563,-1.221976 z"
       id="path1" />
    <path
       style="opacity:0.2;fill:#ffffff"
       d="M 31.107422,4.015625 C 26.950839,4.1512197 22.791759,5.1937464 18.933594,7.1640625 9.6597298,11.900183 4.0078723,21.891091 4.0195312,32.130859 4.3641744,22.245468 9.9617462,12.745944 18.933594,8.1640625 29.222035,2.9098863 41.653881,4.2513312 50.453125,11.806641 c 0.0074,0.006 0.01488,0.0086 0.02148,0.01563 0.318516,0.281162 0.619685,0.576092 0.921875,0.86914 0.0664,-0.11545 0.375,-0.646484 0.375,-0.646484 -0.416364,-0.418572 -0.848799,-0.827128 -1.296875,-1.222656 -0.0066,-0.007 -0.01407,-0.0096 -0.02148,-0.01563 C 44.953598,6.0845721 38.035059,3.7896339 31.107422,4.015625 Z"
       id="path2" />
    <path
       style="fill:#1c96ca;fill-opacity:1"
       d="m 15.9319,54.826224 c 2.910432,2.058294 6.222815,3.59142 9.787239,4.445434 11.150822,2.669898 23.173908,-2.17847 29.552807,-11.63155 7.518444,-11.144252 5.864931,-26.196422 -3.500591,-35.595182 0,0 -13.369783,15.960112 -17.827065,21.280966 C 29.440472,38.700254 15.9319,54.826224 15.9319,54.826224 Z"
       id="path3" />
    <path
       style="opacity:0.2;fill:#ffffff"
       d="m 51.771484,12.044922 c 0,0 -13.370843,15.960396 -17.828125,21.28125 -4.503818,5.374362 -18.011718,21.5 -18.011718,21.5 0.175712,0.124266 0.356547,0.240924 0.535156,0.361328 0.759504,-0.906663 13.106544,-15.646628 17.476562,-20.861328 4.457282,-5.320854 17.828125,-21.28125 17.828125,-21.28125 5.255141,5.273791 8.079752,12.328082 8.220704,19.472656 0.115504,-7.483068 -2.720279,-14.952711 -8.220704,-20.472656 z"
       id="path4" />
    <path
       style="opacity:0.2"
       d="m 32.881307,24.884134 c 0,0 -2.669852,-6.059027 -8.227102,-4.679979 C 19.09778,21.583639 7.4929884,33.354894 32.009895,48 h -0.01977 c 24.516496,-14.645106 12.912526,-26.415939 7.355689,-27.795845 -5.557248,-1.379048 -8.226688,4.679979 -8.226688,4.679979 z"
       id="path5" />
    <path
       style="fill:#f2f2f2;fill-opacity:1"
       d="m 32.881307,23.884134 c 0,0 -2.669852,-6.059027 -8.227102,-4.679979 C 19.09778,20.583639 7.4929884,32.354894 32.009895,47 h -0.01977 c 24.516496,-14.645106 12.912526,-26.415939 7.355689,-27.795845 -5.557248,-1.379048 -8.226688,4.679979 -8.226688,4.679979 z"
       id="path6" />
  </g>
</svg>
