<?xml version="1.0" encoding="UTF-8" standalone="no"?>
<svg
   width="62"
   height="62"
   version="1.1"
   id="svg3"
   sodipodi:docname="memento.svg"
   inkscape:version="1.4 (unknown)"
   xmlns:inkscape="http://www.inkscape.org/namespaces/inkscape"
   xmlns:sodipodi="http://sodipodi.sourceforge.net/DTD/sodipodi-0.dtd"
   xmlns="http://www.w3.org/2000/svg"
   xmlns:svg="http://www.w3.org/2000/svg">
  <defs
     id="defs3" />
  <sodipodi:namedview
     id="namedview3"
     pagecolor="#ffffff"
     bordercolor="#000000"
     borderopacity="0.25"
     inkscape:showpageshadow="2"
     inkscape:pageopacity="0.0"
     inkscape:pagecheckerboard="0"
     inkscape:deskcolor="#d1d1d1"
     inkscape:zoom="5"
     inkscape:cx="26.4"
     inkscape:cy="31.7"
     inkscape:window-width="1920"
     inkscape:window-height="996"
     inkscape:window-x="0"
     inkscape:window-y="0"
     inkscape:window-maximized="1"
     inkscape:current-layer="svg3" />
  <g
     id="g3"
     transform="matrix(0.98214286,0,0,0.98245614,-0.42857153,-0.92982449)">
    <path
       style="opacity:0.2"
       d="m 32.390622,5.0000024 c 7.221226,2.7910614 12.603945,8.9139436 12.603945,17.4884266 0,11.986017 -10.128365,21.506406 -22.118551,21.506406 C 14.785285,43.994835 7.7344447,39.763343 4,33.202996 4.016817,36.722388 4.6971056,40.207074 6.0052347,43.474539 11.798198,57.815127 28.12324,64.746175 42.468772,58.955695 56.813798,53.164751 63.747189,36.845544 57.955313,22.504836 53.731524,12.060657 43.65855,5.1634203 32.390622,5.0000024 Z"
       id="path1" />
    <path
       style="fill:#8d5fd3"
       d="m 32.390622,4.0000013 c 7.221226,2.7910614 12.603945,8.9139437 12.603945,17.4884267 0,11.986017 -10.128365,21.506406 -22.118551,21.506406 C 14.785285,42.994834 7.7344447,38.763342 4,32.202995 4.016817,35.722387 4.6971056,39.207073 6.0052347,42.474538 11.798198,56.815126 28.12324,63.746174 42.468772,57.955694 56.813798,52.16475 63.747189,35.845543 57.955313,21.504835 53.731524,11.060656 43.65855,4.1634192 32.390622,4.0000013 Z"
       id="path2" />
    <path
       style="opacity:0.1;fill:#ffffff"
       d="m 32.390625,4 c 0.877901,0.3393155 1.727735,0.7297943 2.544922,1.1660156 10.218158,1.0803157 19.116974,7.6880234 23.019531,17.3378904 1.338853,3.315006 1.98867,6.735458 2.033203,10.107422 0.08398,-3.69338 -0.561859,-7.464368 -2.033203,-11.107422 C 53.731289,11.059727 43.658553,4.1634179 32.390625,4 Z M 44.978516,22.089844 C 44.645696,33.790629 34.665383,42.994141 22.876953,42.994141 14.786222,42.994141 7.7344447,38.763472 4,32.203125 c 0.00167,0.349982 0.014537,0.699712 0.029297,1.048828 3.7416951,6.532083 10.777323,10.742188 18.847656,10.742188 11.990186,0 22.117188,-9.519843 22.117188,-21.50586 0,-0.1353 -0.01296,-0.264361 -0.01563,-0.398437 z"
       id="path3" />
  </g>
</svg>
