<?xml version="1.0" encoding="UTF-8" standalone="no"?>
<svg
   width="62"
   height="62"
   version="1"
   id="svg21"
   sodipodi:docname="lunarclient.svg"
   inkscape:version="1.4 (unknown)"
   xmlns:inkscape="http://www.inkscape.org/namespaces/inkscape"
   xmlns:sodipodi="http://sodipodi.sourceforge.net/DTD/sodipodi-0.dtd"
   xmlns:xlink="http://www.w3.org/1999/xlink"
   xmlns="http://www.w3.org/2000/svg"
   xmlns:svg="http://www.w3.org/2000/svg">
  <defs
     id="defs21">
    <linearGradient
       id="linearGradient21"
       inkscape:collect="always">
      <stop
         style="stop-color:#2e3b52;stop-opacity:1;"
         offset="0"
         id="stop21" />
      <stop
         style="stop-color:#424f70;stop-opacity:1;"
         offset="1"
         id="stop22" />
    </linearGradient>
    <linearGradient
       inkscape:collect="always"
       xlink:href="#linearGradient21"
       id="linearGradient22"
       x1="32.056282"
       y1="60"
       x2="32.148438"
       y2="5.0039062"
       gradientUnits="userSpaceOnUse"
       gradientTransform="matrix(0.98,0,0,0.98245614,-0.36,-0.92982465)" />
  </defs>
  <sodipodi:namedview
     id="namedview21"
     pagecolor="#ffffff"
     bordercolor="#000000"
     borderopacity="0.25"
     inkscape:showpageshadow="2"
     inkscape:pageopacity="0.0"
     inkscape:pagecheckerboard="0"
     inkscape:deskcolor="#d1d1d1"
     inkscape:zoom="8.185654"
     inkscape:cx="35.122423"
     inkscape:cy="36.344072"
     inkscape:window-width="1920"
     inkscape:window-height="996"
     inkscape:window-x="0"
     inkscape:window-y="0"
     inkscape:window-maximized="1"
     inkscape:current-layer="svg21" />
  <g
     id="g23">
    <g
       id="g22">
      <path
         style="opacity:0.2;stroke-width:0.981227"
         d="m 31.146214,3.9824834 v 0.00269 A 6.2143927,6.2553328 0 0 0 27.892306,4.8179517 L 9.6076937,15.445322 A 6.2143927,6.2553328 0 0 0 6.5,20.863777 v 21.254741 a 6.2143927,6.2553328 0 0 0 3.1076937,5.415768 L 27.892306,58.161655 a 6.2143927,6.2553328 0 0 0 6.215388,0 L 52.392308,47.534286 A 6.2143927,6.2553328 0 0 0 55.5,42.118518 V 20.863777 A 6.2143927,6.2553328 0 0 0 52.392308,15.445322 L 34.107694,4.8179517 a 6.2143927,6.2553328 0 0 0 -2.96148,-0.8354683 z"
         id="path1" />
      <path
         style="fill:url(#linearGradient22);stroke-width:0.981227"
         d="m 31.146214,3.0000266 v 0.00269 A 6.2143927,6.2553328 0 0 0 27.892306,3.835495 L 9.6076937,14.462865 A 6.2143927,6.2553328 0 0 0 6.5,19.881321 V 41.136062 A 6.2143927,6.2553328 0 0 0 9.6076937,46.55183 L 27.892306,57.179199 a 6.2143927,6.2553328 0 0 0 6.215388,0 L 52.392308,46.55183 A 6.2143927,6.2553328 0 0 0 55.5,41.136062 V 19.881321 A 6.2143927,6.2553328 0 0 0 52.392308,14.462865 L 34.107694,3.835495 a 6.2143927,6.2553328 0 0 0 -2.96148,-0.8354684 z"
         id="path2" />
      <path
         style="opacity:0.2;stroke-width:0.981227"
         d="m 31.139726,10.859649 a 1.470147,1.4738316 0 0 0 -0.65078,0.182292 c 0,0 -4.34958,2.389331 -8.710899,4.958333 -2.18066,1.284501 -4.362294,2.611667 -6.033125,3.728345 -0.835416,0.558338 -1.538942,1.059077 -2.084414,1.510142 -0.272736,0.225532 -0.505807,0.432387 -0.721602,0.679276 C 12.723114,22.164927 12.38,22.375933 12.38,23.238212 v 16.112665 h 2.94 V 23.704496 c 0.06713,-0.06359 0.09915,-0.09977 0.210547,-0.191887 0.403133,-0.33336 1.054392,-0.803191 1.845156,-1.331688 1.581529,-1.056994 3.735665,-2.370207 5.891484,-3.640077 3.954337,-2.329272 7.288651,-4.162187 7.918477,-4.50932 0.622425,0.350998 3.869119,2.175474 7.728985,4.501645 2.106778,1.269662 4.212769,2.581897 5.7575,3.638158 0.772365,0.52813 1.40834,0.997451 1.801132,1.32977 0.109757,0.09286 0.141335,0.130335 0.206719,0.193804 v 15.655976 h 2.94 V 23.238212 c 0,-0.844743 -0.332105,-1.059187 -0.543594,-1.306743 -0.211487,-0.247556 -0.439097,-0.45706 -0.706289,-0.683114 -0.534382,-0.452107 -1.223311,-0.953356 -2.040391,-1.512061 -1.634159,-1.117411 -3.767398,-2.443637 -5.89914,-3.728345 -4.263485,-2.569414 -8.515664,-4.960252 -8.515664,-4.960252 a 1.470147,1.4738316 0 0 0 -0.67375,-0.188048 1.470147,1.4738316 0 0 0 -0.101446,0 z M 31.49,16.263158 31.143554,16.8983 30.51,17.245614 31.143554,17.592928 31.49,18.22807 31.836446,17.592928 32.47,17.245614 31.836446,16.8983 Z m -4.499961,2.365954 c -4.680935,1.882963 -7.749421,6.429943 -7.750039,11.486293 1e-6,4.958609 2.914802,9.224386 7.114571,11.200384 H 10.42 v 0.654332 h 3.92 v 0.656249 h -3.92 v 0.654332 h 5.88 v 0.654331 h -3.92 v 0.656249 h 7.84 v 0.654332 H 16.3 v 0.654331 h 8.82 v 0.65625 h -1.96 v 0.654331 h 13.72 v -0.654331 h -1.96 v -0.65625 h 8.82 v -0.654331 h -3.92 v -0.654332 h 7.84 v -0.656249 h -3.92 v -0.654331 h 5.88 V 42.62637 H 45.7 v -0.656249 h 3.92 V 41.315789 H 36.839804 c 2.768703,-1.305773 5.019886,-3.622696 6.207306,-6.589363 -1.461984,0.588661 -3.023997,0.889867 -4.599493,0.89035 -6.819589,10e-7 -12.347616,-5.541883 -12.347617,-12.378564 4.81e-4,-1.579444 0.302849,-3.143453 0.890039,-4.6091 z M 40.31,22.157895 39.963554,22.793037 39.33,23.140351 39.963554,23.487665 40.31,24.122807 40.656446,23.487665 41.29,23.140351 40.656446,22.793037 Z M 29.53,22.649123 29.009375,23.600877 28.06,24.122807 29.009375,24.644737 29.53,25.596491 30.050625,24.644737 31,24.122807 30.050625,23.600877 Z M 17.77,23.140351 17.423554,23.775493 16.79,24.122807 17.423554,24.470121 17.77,25.105263 18.116446,24.470121 18.75,24.122807 18.116446,23.775493 Z M 34.43,25.105263 34.083554,25.740405 33.45,26.087719 34.083554,26.435033 34.43,27.070175 34.776446,26.435033 35.41,26.087719 34.776446,25.740405 Z m 7.84,1.964912 -0.69289,1.270286 L 40.31,29.035088 41.57711,29.729715 42.27,31 42.96289,29.729715 44.23,29.035088 42.96289,28.340461 Z M 36.39,29.526316 35.869375,30.47807 34.92,31 35.869375,31.52193 36.39,32.473684 36.910625,31.52193 37.86,31 36.910625,30.47807 Z M 18.75,34.929824 18.05711,36.20011 16.79,36.894737 18.05711,37.589364 18.75,38.859649 19.44289,37.589364 20.71,36.894737 19.44289,36.20011 Z"
         id="path3" />
      <path
         style="fill:#ffe680;stroke-width:0.981227"
         d="M 31.49,15.280702 31.836482,15.915807 32.47,16.263158 31.836482,16.610508 31.49,17.245614 31.143518,16.610508 30.51,16.263158 31.143518,15.915807 Z"
         id="path4" />
      <path
         style="fill:#ffffff;stroke-width:0.981227"
         d="M 40.31,21.175438 40.656482,21.810544 41.29,22.157895 40.656482,22.505245 40.31,23.140351 39.963518,22.505245 39.33,22.157895 39.963518,21.810544 Z"
         id="path5" />
      <path
         style="fill:#ffffff;stroke-width:0.981227"
         d="M 17.77,22.157895 18.116482,22.793 18.75,23.140351 18.116482,23.487701 17.77,24.122807 17.423518,23.487701 16.79,23.140351 17.423518,22.793 Z"
         id="path6" />
      <path
         style="fill:#ffe680;stroke-width:0.981227"
         d="M 29.53,21.666667 30.049723,22.619325 31,23.140351 30.049723,23.661377 29.53,24.614035 29.010277,23.661377 28.06,23.140351 29.010277,22.619325 Z"
         id="path7" />
      <path
         style="fill:#ffffff;stroke-width:0.981227"
         d="m 34.43,24.122807 0.346482,0.635106 0.633518,0.34735 -0.633518,0.34735 L 34.43,26.087719 34.083518,25.452613 33.45,25.105263 l 0.633518,-0.34735 z"
         id="path8" />
      <path
         style="fill:#ffeeaa;stroke-width:0.981227"
         d="M 42.27,26.087719 42.962965,27.35793 44.23,28.052631 42.962965,28.747333 42.27,30.017544 41.577035,28.747333 40.31,28.052631 41.577035,27.35793 Z"
         id="path9" />
      <path
         style="fill:#ffe680;stroke-width:0.981227"
         d="M 36.39,28.54386 36.909723,29.496518 37.86,30.017544 36.909723,30.53857 36.39,31.491228 35.870277,30.53857 34.92,30.017544 35.870277,29.496518 Z"
         id="path10" />
      <path
         style="fill:#ffe680;stroke-width:0.981227"
         d="M 18.75,33.947368 19.442965,35.217579 20.71,35.912281 19.442965,36.606982 18.75,37.877193 18.057035,36.606982 16.79,35.912281 18.057035,35.217579 Z"
         id="path11" />
      <path
         style="fill:none;stroke:#ffffff;stroke-width:2.94368;stroke-linejoin:round"
         d="M 13.85,38.368421 V 22.256074 c 0,-1.375432 17.345916,-10.905197 17.345916,-10.905197 0,0 16.954084,9.529765 16.954084,10.905197 v 16.112347"
         id="path12" />
      <path
         style="fill:#ffeeaa;stroke-width:0.981227"
         d="M 26.98963,17.646222 A 12.347958,12.378905 0 0 0 19.24,29.133244 12.347958,12.378905 0 0 0 31.587959,41.512148 12.347958,12.378905 0 0 0 43.046262,33.743095 12.347958,12.378905 0 0 1 38.447935,34.634979 12.347958,12.378905 0 0 1 26.099976,22.256074 12.347958,12.378905 0 0 1 26.98963,17.646222 Z"
         id="path13" />
      <rect
         style="fill:#ffffff;stroke-width:0.981227"
         width="39.200001"
         height="0.65529823"
         x="10.42"
         y="40.333332"
         id="rect13" />
      <rect
         style="fill:#ffffff;stroke-width:0.981227"
         width="39.200001"
         height="0.65529823"
         x="10.42"
         y="41.640003"
         id="rect14" />
      <rect
         style="fill:#ffffff;stroke-width:0.981227"
         width="35.279999"
         height="0.65529823"
         x="12.38"
         y="42.95649"
         id="rect15" />
      <rect
         style="fill:#ffffff;stroke-width:0.981227"
         width="27.440001"
         height="0.65529823"
         x="16.299999"
         y="44.263157"
         id="rect16" />
      <rect
         style="fill:#ffffff;stroke-width:0.981227"
         width="13.72"
         height="0.65529823"
         x="23.16"
         y="45.569828"
         id="rect17" />
      <rect
         style="fill:#ffffff;stroke-width:0.981227"
         width="31.360001"
         height="0.65529823"
         x="14.34"
         y="40.991577"
         id="rect18" />
      <rect
         style="fill:#ffffff;stroke-width:0.981227"
         width="27.440001"
         height="0.65529823"
         x="16.299999"
         y="42.298244"
         id="rect19" />
      <rect
         style="fill:#ffffff;stroke-width:0.981227"
         width="19.6"
         height="0.65529823"
         x="20.219999"
         y="43.604916"
         id="rect20" />
      <rect
         style="fill:#ffffff;stroke-width:0.981227"
         width="9.8000002"
         height="0.65529823"
         x="25.120001"
         y="44.921402"
         id="rect21" />
      <path
         style="opacity:0.1;fill:#ffffff;stroke-width:0.981227"
         d="m 31.145469,2.9999999 v 0.00384 A 6.2143927,6.2553328 0 0 0 27.891562,3.8366227 L 9.6084375,14.463268 A 6.2143927,6.2553328 0 0 0 6.5,19.882127 v 0.898026 A 6.2143927,6.2553328 0 0 1 9.6084375,15.445724 L 27.891562,4.8190789 a 6.2143927,6.2553328 0 0 1 3.253907,-0.8327852 v -0.00384 a 6.2143927,6.2553328 0 0 1 2.962968,0.8366228 L 52.391562,15.445724 A 6.2143927,6.2553328 0 0 1 55.5,20.864583 V 19.882127 A 6.2143927,6.2553328 0 0 0 52.391562,14.463268 L 34.108437,3.8366227 A 6.2143927,6.2553328 0 0 0 31.145469,2.9999999 Z"
         id="path21" />
    </g>
  </g>
</svg>
