<?xml version="1.0" encoding="UTF-8" standalone="no"?>
<svg
   width="62"
   height="62"
   version="1.1"
   id="svg5"
   sodipodi:docname="athens.svg"
   inkscape:version="1.4 (unknown)"
   xmlns:inkscape="http://www.inkscape.org/namespaces/inkscape"
   xmlns:sodipodi="http://sodipodi.sourceforge.net/DTD/sodipodi-0.dtd"
   xmlns="http://www.w3.org/2000/svg"
   xmlns:svg="http://www.w3.org/2000/svg">
  <defs
     id="defs5" />
  <sodipodi:namedview
     id="namedview5"
     pagecolor="#ffffff"
     bordercolor="#000000"
     borderopacity="0.25"
     inkscape:showpageshadow="2"
     inkscape:pageopacity="0.0"
     inkscape:pagecheckerboard="0"
     inkscape:deskcolor="#d1d1d1"
     inkscape:zoom="11.6875"
     inkscape:cx="32"
     inkscape:cy="32.042781"
     inkscape:window-width="1920"
     inkscape:window-height="996"
     inkscape:window-x="0"
     inkscape:window-y="0"
     inkscape:window-maximized="1"
     inkscape:current-layer="svg5" />
  <rect
     style="opacity:0.2;stroke-width:0.9823"
     width="55"
     height="55.017544"
     x="4"
     y="4.9824562"
     rx="8.25"
     ry="8.2526312"
     id="rect1" />
  <rect
     style="fill:#233143;stroke-width:0.9823;fill-opacity:1"
     width="55"
     height="55.017544"
     x="4"
     y="4"
     rx="8.25"
     ry="8.2526312"
     id="rect2" />
  <path
     style="opacity:0.1;fill:#ffffff;stroke-width:0.9823"
     d="M 12.248466,4 C 7.6779652,4 4,7.6791384 4,12.251097 v 0.982456 C 4,8.6615945 7.6779652,4.9824561 12.248466,4.9824561 H 50.751534 C 55.322034,4.9824561 59,8.6615945 59,13.233553 V 12.251097 C 59,7.6791384 55.322034,4 50.751534,4 Z"
     id="path4" />
  <g
     id="g1"
     transform="matrix(1.0062499,0,0,1,2.4625007,0.5087559)">
    <path
       style="opacity:0.1;stroke-width:0.91429"
       d="m 13.31429,15.914306 v 2.74284 25.6 2.74287 H 16.05713 18.8 v -2.74287 h -2.74287 v -25.6 H 18.8 v -2.74284 h -2.74287 z m 25.6,0 v 2.74284 h 2.74284 v 25.6 h -2.74284 v 2.74287 H 41.65713 44.4 v -2.74287 -25.6 -2.74284 H 41.65713 Z M 6,18.657146 v 2.74287 20.11429 2.74284 h 2.742858 2.742852 v -2.74284 H 8.742858 v -20.11429 h 2.742852 v -2.74287 H 8.742858 Z m 40.22858,0 v 2.74287 h 2.74284 v 20.11429 h -2.74284 v 2.74284 h 2.74284 2.74287 v -2.74284 -20.11429 -2.74287 h -2.74287 z m -18.176799,0.91429 c -0.30683,-9.1e-4 -0.614583,-3.24e-4 -0.921413,0.0078 -2.139473,6.314284 -4.300771,12.834821 -6.42323,19.192869 H 18.8 v 2.742857 H 19.67856 24.45713 25.2 v -2.742939 h -2.217851 c 0.394558,-1.296594 0.825222,-2.3668 1.239279,-3.657141 h 7.787498 l 0.632156,1.81607 c 0.185898,0.669147 0.478046,1.17145 0.682134,1.841071 H 31.6 v 1.230352 1.512507 h 6.05713 1.25716 V 38.77184 h -1.625004 c -2.16127,-6.363097 -4.344292,-12.842644 -6.476784,-19.192945 -0.920502,0.022 -1.840203,-0.0046 -2.760721,-0.0078 z m 0.03937,3.608926 c 0.06494,-0.07262 0.842804,2.108993 1.730369,4.846431 l 1.614274,5.158948 H 28.13223 c -2.576262,0 -3.284804,-0.04286 -3.230353,-0.196445 0.03834,-0.108314 0.746219,-2.472139 1.57142,-5.028559 0.825203,-2.556421 1.553074,-4.707674 1.617851,-4.780375 z"
       id="path2-3" />
    <path
       style="fill:#eef2f6;stroke-width:0.91429;fill-opacity:1"
       d="m 28.051781,18.65741 c -0.30683,-9.14e-4 -0.613911,2.04e-4 -0.920741,0.0084 -2.139473,6.314226 -4.3008,12.834026 -6.42323,19.192075 H 18.8 v 2.742631 H 19.679017 24.45713 25.2 V 37.85752 h -2.218523 c 0.394558,-1.296597 0.825894,-2.366841 1.239951,-3.657185 h 7.788384 l 0.631026,1.815941 c 0.185898,0.669146 0.478504,1.171571 0.682592,1.841186 H 31.6 v 1.23072 1.512058 h 6.05713 1.25716 v -2.742861 h -1.625463 c -2.16127,-6.363056 -4.344719,-12.841864 -6.477211,-19.192168 -0.92052,0.022 -1.839317,-0.0052 -2.759835,-0.0084 z m 0.03937,3.608763 c 0.06494,-0.07262 0.843467,2.108718 1.731041,4.846156 l 1.613172,5.159905 h -3.302462 c -2.576262,0 -3.285693,-0.04295 -3.231257,-0.196546 0.03834,-0.108335 0.746226,-2.472454 1.571438,-5.028874 0.825203,-2.556421 1.553288,-4.70794 1.618065,-4.780641 z"
       id="path3-6" />
    <path
       style="fill:#bccadc;stroke-width:0.91429;fill-opacity:1"
       d="m 13.31429,15.000016 v 2.74287 25.6 2.74284 H 16.05713 18.8 v -2.74284 h -2.74287 v -25.6 H 18.8 v -2.74287 h -2.74287 z"
       id="path4-7" />
    <path
       style="fill:#8aa3c2;stroke-width:0.91429;fill-opacity:1"
       d="m 6,17.742886 v 2.74284 20.11429 2.74287 h 2.742858 2.742852 v -2.74287 H 8.742858 v -20.11429 h 2.742852 v -2.74284 H 8.742858 Z"
       id="path5-5" />
    <path
       style="fill:#bccadc;stroke-width:0.91429;fill-opacity:1"
       d="m 44.4,15.000016 v 2.74287 25.6 2.74284 h -2.74287 -2.74284 v -2.74284 h 2.74284 v -25.6 h -2.74284 v -2.74287 h 2.74284 z"
       id="path6-3" />
    <path
       style="fill:#8aa3c2;stroke-width:0.91429;fill-opacity:1"
       d="m 51.71429,17.742886 v 2.74284 20.11429 2.74287 h -2.74287 -2.74284 v -2.74287 h 2.74284 v -20.11429 h -2.74284 v -2.74284 h 2.74284 z"
       id="path7" />
  </g>
</svg>
