<?xml version="1.0" encoding="UTF-8" standalone="no"?>
<svg
   width="62"
   height="62"
   version="1.1"
   id="svg9"
   sodipodi:docname="autopackage.svg"
   inkscape:version="1.4 (unknown)"
   xmlns:inkscape="http://www.inkscape.org/namespaces/inkscape"
   xmlns:sodipodi="http://sodipodi.sourceforge.net/DTD/sodipodi-0.dtd"
   xmlns:xlink="http://www.w3.org/1999/xlink"
   xmlns="http://www.w3.org/2000/svg"
   xmlns:svg="http://www.w3.org/2000/svg">
  <defs
     id="defs9">
    <linearGradient
       id="linearGradient4">
      <stop
         id="stop3"
         stop-color="#e8ece4"
         offset="0" />
      <stop
         id="stop4"
         stop-color="#d5dcce"
         offset="1"
         style="stop-color:#788c64;stop-opacity:1;" />
    </linearGradient>
    <linearGradient
       id="linearGradient1"
       inkscape:collect="always">
      <stop
         style="stop-color:#354b64;stop-opacity:1;"
         offset="0"
         id="stop1" />
      <stop
         style="stop-color:#deaa87;stop-opacity:1"
         offset="1"
         id="stop2" />
    </linearGradient>
    <linearGradient
       inkscape:collect="always"
       xlink:href="#linearGradient1"
       id="linearGradient2"
       x1="31"
       y1="58.017544"
       x2="31"
       y2="3"
       gradientUnits="userSpaceOnUse" />
    <mask
       id="s">
      <g
         id="g14"
         filter="url(#a)">
        <path
           id="path14"
           d="M 0,0 H 128 V 128 H 0 Z"
           fill-opacity="0.1" />
      </g>
    </mask>
    <filter
       id="a"
       x="0"
       y="0"
       width="1"
       height="1">
      <feColorMatrix
         id="feColorMatrix39"
         in="SourceGraphic"
         values="0 0 0 0 1 0 0 0 0 1 0 0 0 0 1 0 0 0 1 0" />
    </filter>
    <filter
       id="r"
       x="-0.048342858"
       y="-0.67680001"
       width="1.0966857"
       height="2.3536"
       color-interpolation-filters="sRGB">
      <feGaussianBlur
         id="feGaussianBlur41"
         stdDeviation=".564" />
    </filter>
    <clipPath
       id="b">
      <path
         id="path1-3"
         d="M 0,0 H 192 V 152 H 0 Z" />
    </clipPath>
    <mask
       id="w">
      <g
         id="g15"
         filter="url(#a)">
        <path
           id="path15"
           d="M 0,0 H 128 V 128 H 0 Z"
           fill-opacity="0.2" />
      </g>
    </mask>
    <filter
       id="filter1"
       x="0"
       y="0"
       width="1"
       height="1">
      <feColorMatrix
         id="feColorMatrix1"
         in="SourceGraphic"
         values="0 0 0 0 1 0 0 0 0 1 0 0 0 0 1 0 0 0 1 0" />
    </filter>
    <filter
       id="u"
       x="-0.048342858"
       y="-0.67680001"
       width="1.0966857"
       height="2.3536"
       color-interpolation-filters="sRGB">
      <feGaussianBlur
         id="feGaussianBlur42"
         stdDeviation=".564" />
    </filter>
    <clipPath
       id="c">
      <path
         id="path2"
         d="M 0,0 H 192 V 152 H 0 Z" />
    </clipPath>
    <mask
       id="z">
      <g
         id="g16"
         filter="url(#a)">
        <path
           id="path16"
           d="M 0,0 H 128 V 128 H 0 Z"
           fill-opacity="0.2" />
      </g>
    </mask>
    <filter
       id="filter2"
       x="0"
       y="0"
       width="1"
       height="1">
      <feColorMatrix
         id="feColorMatrix2"
         in="SourceGraphic"
         values="0 0 0 0 1 0 0 0 0 1 0 0 0 0 1 0 0 0 1 0" />
    </filter>
    <clipPath
       id="d">
      <path
         id="path3-6"
         d="M 0,0 H 192 V 152 H 0 Z" />
    </clipPath>
    <mask
       id="B">
      <g
         id="g17"
         filter="url(#a)">
        <path
           id="path17"
           d="M 0,0 H 128 V 128 H 0 Z"
           fill-opacity="0.1" />
      </g>
    </mask>
    <filter
       id="filter3"
       x="0"
       y="0"
       width="1"
       height="1">
      <feColorMatrix
         id="feColorMatrix3"
         in="SourceGraphic"
         values="0 0 0 0 1 0 0 0 0 1 0 0 0 0 1 0 0 0 1 0" />
    </filter>
    <clipPath
       id="e">
      <path
         id="path4-7"
         d="M 0,0 H 192 V 152 H 0 Z" />
    </clipPath>
    <mask
       id="E">
      <g
         id="g18"
         filter="url(#a)">
        <path
           id="path18"
           d="M 0,0 H 128 V 128 H 0 Z"
           fill-opacity="0.33" />
      </g>
    </mask>
    <filter
       id="filter4"
       x="0"
       y="0"
       width="1"
       height="1">
      <feColorMatrix
         id="feColorMatrix4"
         in="SourceGraphic"
         values="0 0 0 0 1 0 0 0 0 1 0 0 0 0 1 0 0 0 1 0" />
    </filter>
    <filter
       id="D"
       x="-0.10700637"
       y="-0.043378269"
       width="1.2140127"
       height="1.0867565"
       color-interpolation-filters="sRGB">
      <feGaussianBlur
         id="feGaussianBlur39"
         stdDeviation="1.204" />
    </filter>
    <clipPath
       id="f">
      <path
         id="path5-5"
         d="M 0,0 H 192 V 152 H 0 Z" />
    </clipPath>
    <mask
       id="H">
      <g
         id="g19"
         filter="url(#a)">
        <path
           id="path19"
           d="M 0,0 H 128 V 128 H 0 Z"
           fill-opacity="0.25" />
      </g>
    </mask>
    <filter
       id="filter5"
       x="0"
       y="0"
       width="1"
       height="1">
      <feColorMatrix
         id="feColorMatrix5"
         in="SourceGraphic"
         values="0 0 0 0 1 0 0 0 0 1 0 0 0 0 1 0 0 0 1 0" />
    </filter>
    <filter
       id="G"
       x="-0.10700637"
       y="-0.043378269"
       width="1.2140127"
       height="1.0867565"
       color-interpolation-filters="sRGB">
      <feGaussianBlur
         id="feGaussianBlur40"
         stdDeviation="1.204" />
    </filter>
    <clipPath
       id="g">
      <path
         id="path6"
         d="M 0,0 H 192 V 152 H 0 Z" />
    </clipPath>
    <linearGradient
       id="I"
       x1="59.087002"
       x2="67.926003"
       y1="186"
       y2="186"
       gradientTransform="translate(94.042,-116.06)"
       gradientUnits="userSpaceOnUse">
      <stop
         id="stop44"
         stop-color="#ACABAE"
         offset="0" />
      <stop
         id="stop45"
         stop-color="#77767B"
         offset=".38" />
      <stop
         id="stop46"
         stop-color="#5D5C60"
         offset="1" />
    </linearGradient>
    <mask
       id="K">
      <g
         id="g20"
         filter="url(#a)">
        <path
           id="path20"
           d="M 0,0 H 128 V 128 H 0 Z"
           fill-opacity="0.8" />
      </g>
    </mask>
    <filter
       id="filter6"
       x="0"
       y="0"
       width="1"
       height="1">
      <feColorMatrix
         id="feColorMatrix6"
         in="SourceGraphic"
         values="0 0 0 0 1 0 0 0 0 1 0 0 0 0 1 0 0 0 1 0" />
    </filter>
    <clipPath
       id="h">
      <path
         id="path7"
         d="M 0,0 H 192 V 152 H 0 Z" />
    </clipPath>
    <mask
       id="M">
      <g
         id="g21"
         filter="url(#a)">
        <path
           id="path21"
           d="M 0,0 H 128 V 128 H 0 Z"
           fill-opacity="0.05" />
      </g>
    </mask>
    <filter
       id="filter7"
       x="0"
       y="0"
       width="1"
       height="1">
      <feColorMatrix
         id="feColorMatrix7"
         in="SourceGraphic"
         values="0 0 0 0 1 0 0 0 0 1 0 0 0 0 1 0 0 0 1 0" />
    </filter>
    <clipPath
       id="i">
      <path
         id="path8"
         d="M 0,0 H 192 V 152 H 0 Z" />
    </clipPath>
    <mask
       id="O">
      <g
         id="g22"
         filter="url(#a)">
        <path
           id="path22"
           d="M 0,0 H 128 V 128 H 0 Z"
           fill-opacity="0.05" />
      </g>
    </mask>
    <filter
       id="filter8"
       x="0"
       y="0"
       width="1"
       height="1">
      <feColorMatrix
         id="feColorMatrix8"
         in="SourceGraphic"
         values="0 0 0 0 1 0 0 0 0 1 0 0 0 0 1 0 0 0 1 0" />
    </filter>
    <clipPath
       id="j">
      <path
         id="path9-3"
         d="M 0,0 H 192 V 152 H 0 Z" />
    </clipPath>
    <mask
       id="Q">
      <g
         id="g23"
         filter="url(#a)">
        <path
           id="path23"
           d="M 0,0 H 128 V 128 H 0 Z"
           fill-opacity="0.05" />
      </g>
    </mask>
    <filter
       id="filter9"
       x="0"
       y="0"
       width="1"
       height="1">
      <feColorMatrix
         id="feColorMatrix9"
         in="SourceGraphic"
         values="0 0 0 0 1 0 0 0 0 1 0 0 0 0 1 0 0 0 1 0" />
    </filter>
    <clipPath
       id="k">
      <path
         id="path10"
         d="M 0,0 H 192 V 152 H 0 Z" />
    </clipPath>
    <mask
       id="S">
      <g
         id="g24"
         filter="url(#a)">
        <path
           id="path24"
           d="M 0,0 H 128 V 128 H 0 Z"
           fill-opacity="0.05" />
      </g>
    </mask>
    <filter
       id="filter10"
       x="0"
       y="0"
       width="1"
       height="1">
      <feColorMatrix
         id="feColorMatrix10"
         in="SourceGraphic"
         values="0 0 0 0 1 0 0 0 0 1 0 0 0 0 1 0 0 0 1 0" />
    </filter>
    <clipPath
       id="l">
      <path
         id="path11"
         d="M 0,0 H 192 V 152 H 0 Z" />
    </clipPath>
    <linearGradient
       id="T"
       x1="88"
       x2="96"
       y1="200"
       y2="200"
       gradientTransform="rotate(90,183.05,174.99)"
       gradientUnits="userSpaceOnUse">
      <stop
         id="stop47"
         stop-color="#9A9996"
         offset="0" />
      <stop
         id="stop48"
         stop-color="#9A9996"
         stop-opacity="0"
         offset="1" />
    </linearGradient>
    <mask
       id="V">
      <g
         id="g25"
         filter="url(#a)">
        <path
           id="path25"
           d="M 0,0 H 128 V 128 H 0 Z"
           fill-opacity="0.2" />
      </g>
    </mask>
    <filter
       id="filter11"
       x="0"
       y="0"
       width="1"
       height="1">
      <feColorMatrix
         id="feColorMatrix11"
         in="SourceGraphic"
         values="0 0 0 0 1 0 0 0 0 1 0 0 0 0 1 0 0 0 1 0" />
    </filter>
    <clipPath
       id="m">
      <path
         id="path12"
         d="M 0,0 H 192 V 152 H 0 Z" />
    </clipPath>
    <mask
       id="X">
      <g
         id="g26"
         filter="url(#a)">
        <path
           id="path26"
           d="M 0,0 H 128 V 128 H 0 Z"
           fill-opacity="0.1" />
      </g>
    </mask>
    <filter
       id="filter12"
       x="0"
       y="0"
       width="1"
       height="1">
      <feColorMatrix
         id="feColorMatrix12"
         in="SourceGraphic"
         values="0 0 0 0 1 0 0 0 0 1 0 0 0 0 1 0 0 0 1 0" />
    </filter>
    <clipPath
       id="n">
      <path
         id="path13"
         d="M 0,0 H 192 V 152 H 0 Z" />
    </clipPath>
    <radialGradient
       id="k-5"
       cx="23.282"
       cy="29.871"
       r="20"
       gradientTransform="matrix(0.59994011,0,0,0.59427952,13.912018,11.233296)"
       gradientUnits="userSpaceOnUse"
       xlink:href="#c-6" />
    <linearGradient
       id="c-6">
      <stop
         id="stop5-6"
         stop-color="#e8ece4"
         offset="0" />
      <stop
         id="stop6-0"
         stop-color="#d5dcce"
         offset="1" />
    </linearGradient>
    <radialGradient
       id="j-2"
       cx="23.282"
       cy="29.871"
       r="20"
       gradientTransform="matrix(0.55422843,0,0,-0.55576841,10.787169,49.277049)"
       gradientUnits="userSpaceOnUse"
       xlink:href="#c-6" />
    <radialGradient
       id="i-7"
       cx="23.282"
       cy="29.871"
       r="20"
       gradientTransform="matrix(0.513771,0,0,0.51519857,12.082164,11.552806)"
       gradientUnits="userSpaceOnUse"
       xlink:href="#c-6" />
    <radialGradient
       id="h-0"
       cx="23.282"
       cy="29.871"
       r="20"
       gradientTransform="matrix(0.48037662,0,0,-0.48171141,13.150486,46.669199)"
       gradientUnits="userSpaceOnUse"
       xlink:href="#c-6" />
    <radialGradient
       id="g-9"
       cx="23.282"
       cy="29.871"
       r="20"
       gradientTransform="matrix(0.44701177,0,0,0.44825386,14.218515,13.911044)"
       gradientUnits="userSpaceOnUse"
       xlink:href="#c-6" />
    <radialGradient
       id="f-3"
       cx="23.282"
       cy="29.871"
       r="20"
       gradientTransform="matrix(0.41042575,0,0,-0.41156615,15.388502,44.197663)"
       gradientUnits="userSpaceOnUse"
       xlink:href="#linearGradient4" />
    <radialGradient
       id="e-6"
       cx="23.282"
       cy="29.871"
       r="20"
       gradientTransform="matrix(0.37221432,0,0,0.37324853,16.611384,16.552383)"
       gradientUnits="userSpaceOnUse"
       xlink:href="#c-6" />
    <linearGradient
       id="r-0"
       x1="15.558"
       x2="48.375"
       y1="23.188"
       y2="23.188"
       gradientTransform="matrix(0.59992001,0,0,0.59425966,13.911891,11.233279)"
       gradientUnits="userSpaceOnUse">
      <stop
         id="stop15"
         stop-color="#d9e3e4"
         offset="0" />
      <stop
         id="stop16"
         stop-color="#fff"
         offset=".013576" />
      <stop
         id="stop17"
         stop-color="#fff"
         offset=".13798" />
      <stop
         id="stop18"
         stop-color="#fff"
         offset=".15301" />
      <stop
         id="stop19"
         stop-color="#d1dedf"
         offset=".16852" />
      <stop
         id="stop20"
         stop-color="#97b6b7"
         offset=".27365" />
      <stop
         id="stop21"
         stop-color="#cddbdc"
         offset=".27947" />
      <stop
         id="stop22"
         stop-color="#dde6dc"
         offset=".30219" />
      <stop
         id="stop23"
         stop-color="#fff"
         offset=".31035" />
      <stop
         id="stop24"
         stop-color="#fff"
         offset=".38142" />
      <stop
         id="stop25"
         stop-color="#fff"
         offset=".39114" />
      <stop
         id="stop26"
         stop-color="#e6eeed"
         offset=".40985" />
      <stop
         id="stop27"
         stop-color="#eef3ed"
         offset=".59274" />
      <stop
         id="stop28"
         stop-color="#eef3ed"
         offset=".60675" />
      <stop
         id="stop29"
         stop-color="#98b7b6"
         offset=".62076" />
      <stop
         id="stop30"
         stop-color="#98aeb8"
         offset=".62652" />
      <stop
         id="stop31"
         stop-color="#c5d5c3"
         offset=".69985" />
      <stop
         id="stop32"
         stop-color="#d7e2d6"
         offset=".70561" />
      <stop
         id="stop33"
         stop-color="#d4e0d3"
         offset=".72538" />
      <stop
         id="stop34"
         stop-color="#f2f5f1"
         offset=".72992" />
      <stop
         id="stop35"
         stop-color="#fff"
         offset=".82425" />
      <stop
         id="stop36"
         stop-color="#f7f9f6"
         offset=".84402" />
      <stop
         id="stop37"
         stop-color="#cedccc"
         offset=".86544" />
      <stop
         id="stop38"
         stop-color="#98b7b7"
         offset="1" />
    </linearGradient>
    <linearGradient
       id="m-6"
       x1="12"
       x2="19.035"
       y1="34"
       y2="34"
       gradientTransform="matrix(0.59994011,0,0,0.59427952,13.912035,11.233432)"
       gradientUnits="userSpaceOnUse">
      <stop
         id="stop39"
         stop-color="#fff"
         offset="0" />
      <stop
         id="stop40"
         stop-color="#f6f8f6"
         offset=".072888" />
      <stop
         id="stop41"
         stop-color="#e6ede5"
         offset=".17615" />
      <stop
         id="stop42"
         stop-color="#dfe9e9"
         offset=".78728" />
      <stop
         id="stop43"
         stop-color="#8eb2ab"
         offset=".79324" />
      <stop
         id="stop44-2"
         stop-color="#5d8580"
         offset="1" />
    </linearGradient>
    <linearGradient
       id="n-6"
       x1="12"
       x2="19.035"
       y1="34"
       y2="34"
       gradientTransform="matrix(-0.59994011,0,0,0.59427952,52.309163,11.233432)"
       gradientUnits="userSpaceOnUse">
      <stop
         id="stop45-1"
         stop-color="#6e9395"
         offset="0" />
      <stop
         id="stop46-8"
         stop-color="#d5e1d4"
         offset=".072888" />
      <stop
         id="stop47-7"
         stop-color="#d5e1d4"
         offset=".17615" />
      <stop
         id="stop48-9"
         stop-color="#a7c2c2"
         offset=".79305" />
      <stop
         id="stop49"
         stop-color="#8eb2b0"
         offset=".80189" />
      <stop
         id="stop50"
         stop-color="#5d8584"
         offset="1" />
    </linearGradient>
    <linearGradient
       id="o"
       x1="22.898001"
       x2="39.606998"
       y1="38.813"
       y2="38.813"
       gradientTransform="matrix(0.58794789,0,0,0.58958153,-26.145129,8.949652)"
       gradientUnits="userSpaceOnUse">
      <stop
         id="stop51"
         stop-color="#627973"
         offset="0" />
      <stop
         id="stop52"
         stop-color="#90a7a3"
         offset=".51356" />
      <stop
         id="stop53"
         stop-color="#fff"
         offset="1" />
    </linearGradient>
    <linearGradient
       id="p"
       x1="15.75"
       x2="17.992001"
       y1="44.594002"
       y2="44.938"
       gradientTransform="matrix(0.59994011,0,0,0.59427952,13.912035,11.233432)"
       gradientUnits="userSpaceOnUse">
      <stop
         id="stop54"
         stop-color="#709a6b"
         offset="0" />
      <stop
         id="stop55"
         stop-color="#c7d8c5"
         offset=".065495" />
      <stop
         id="stop56"
         stop-color="#9abbb3"
         offset="1" />
    </linearGradient>
    <linearGradient
       id="q"
       x1="47.972"
       x2="48.469002"
       y1="44.938"
       y2="44.938"
       gradientTransform="matrix(0.59994011,0,0,0.59427952,13.912035,11.233432)"
       gradientUnits="userSpaceOnUse">
      <stop
         id="stop57"
         stop-color="#9cbab7"
         offset="0" />
      <stop
         id="stop58"
         stop-color="#779b9c"
         offset="1" />
    </linearGradient>
    <radialGradient
       id="l-2"
       cx="34.117001"
       cy="37.168999"
       r="9"
       gradientTransform="matrix(0.74871372,6.7967091e-8,-6.7778762e-8,0.7507941,-42.366543,-25.494958)"
       gradientUnits="userSpaceOnUse">
      <stop
         id="stop59"
         stop-color="#000056"
         stop-opacity="0"
         offset="0" />
      <stop
         id="stop60"
         stop-color="#000056"
         stop-opacity="0"
         offset=".58319" />
      <stop
         id="stop61"
         stop-color="#000056"
         stop-opacity=".069465"
         offset=".62074" />
      <stop
         id="stop62"
         stop-color="#000056"
         stop-opacity=".13748"
         offset="1" />
    </radialGradient>
    <radialGradient
       id="d-0"
       cx="32.019001"
       cy="35.070999"
       r="9"
       gradientTransform="matrix(0.58794789,0,0,0.58958153,-38.873068,-17.174651)"
       gradientUnits="userSpaceOnUse">
      <stop
         id="stop63"
         stop-color="#000056"
         stop-opacity="0"
         offset="0" />
      <stop
         id="stop64"
         stop-color="#000056"
         stop-opacity="0"
         offset=".97614" />
      <stop
         id="stop65"
         stop-color="#000056"
         stop-opacity=".055"
         offset="1" />
    </radialGradient>
  </defs>
  <sodipodi:namedview
     id="namedview9"
     pagecolor="#ffffff"
     bordercolor="#000000"
     borderopacity="0.25"
     inkscape:showpageshadow="2"
     inkscape:pageopacity="0.0"
     inkscape:pagecheckerboard="0"
     inkscape:deskcolor="#d1d1d1"
     inkscape:zoom="7.0710678"
     inkscape:cx="29.769196"
     inkscape:cy="35.567471"
     inkscape:window-width="1920"
     inkscape:window-height="996"
     inkscape:window-x="0"
     inkscape:window-y="0"
     inkscape:window-maximized="1"
     inkscape:current-layer="svg9" />
  <rect
     style="opacity:0.2;stroke-width:0.9823"
     width="55"
     height="55.017544"
     x="3.5"
     y="3.9824562"
     ry="8.2526312"
     id="rect1" />
  <rect
     style="fill:url(#linearGradient2);fill-opacity:1;stroke-width:0.9823"
     width="55"
     height="55.017544"
     x="3.5"
     y="3"
     ry="8.2526312"
     id="rect2" />
  <path
     style="opacity:0.1;fill:#ffffff;stroke-width:0.9823"
     d="M 11.748466,3 C 7.1779651,3 3.4999999,6.6791384 3.4999999,11.251097 v 0.982456 c 0,-4.5719585 3.6779652,-8.2510968 8.2484661,-8.2510968 h 38.503068 c 4.5705,0 8.248466,3.6791383 8.248466,8.2510968 V 11.251097 C 58.5,6.6791384 54.822034,3 50.251534,3 Z"
     id="path9" />
  <g
     id="g2"
     transform="translate(-0.7)">
    <rect
       id="rect86"
       x="28.355085"
       y="4.0003347"
       width="7.5255871"
       height="6.4884839"
       stroke-width="0.0842009"
       style="fill:#8e654f;fill-rule:evenodd;stroke-linecap:square;stroke-miterlimit:3.7;paint-order:fill markers stroke" />
    <path
       id="path86-5"
       d="M 40.109545,9.1884338 32.086974,16.637611 24,9.2084638 Z"
       stroke-width="0.0795724"
       style="fill:#8e654f;fill-rule:evenodd;stroke-linecap:square;stroke-miterlimit:3.7;paint-order:fill markers stroke" />
    <rect
       id="rect87"
       x="28.751757"
       y="5.2443137"
       width="6.6840601"
       height="5.4689956"
       stroke-width="0.0728533"
       style="fill:#d5dcce;fill-rule:evenodd;stroke-linecap:square;stroke-miterlimit:3.7;paint-order:fill markers stroke" />
    <path
       id="path87-6"
       d="M 39.191813,9.61725 32.066339,15.895988 24.883667,9.634131 Z"
       stroke-width="0.0688474"
       style="fill:#d5dcce;fill-rule:evenodd;stroke-linecap:square;stroke-miterlimit:3.7;paint-order:fill markers stroke" />
    <rect
       id="rect88"
       x="28.750612"
       y="4"
       width="6.6863279"
       height="1.3531255"
       fill="#d5dcce"
       stroke-width="0.202556"
       style="fill-rule:evenodd;stroke-linecap:square;stroke-miterlimit:3.7;paint-order:fill markers stroke" />
  </g>
  <path
     id="path68-5"
     d="m 29.439599,24.30413 c -0.332371,0 -0.599943,0.265049 -0.599943,0.594275 v 2.711439 c -0.717961,0.196142 -1.39079,0.479596 -2.02481,0.835692 L 24.88373,26.532638 c -0.117514,-0.116405 -0.277853,-0.185716 -0.43122,-0.185716 -0.153357,0 -0.3137,0.06932 -0.431218,0.185716 l -2.531055,2.507176 -0.169339,1.062176 2.100412,1.704993 c -0.359484,0.628035 -0.64566,1.294546 -0.843663,2.005708 h -2.737255 c -0.332369,0 -0.599942,0.265049 -0.599942,0.594274 v 3.565683 c 0,0.329237 0.267581,0.594275 0.599942,0.594275 h 2.737255 c 0.198015,0.711194 0.484179,1.377676 0.843663,2.005704 l -1.931116,1.912898 -0.1717,1.07941 2.702698,2.282006 c 0.235022,0.23282 0.627409,0.23282 0.862414,0 l 1.931117,-1.912892 c 0.634018,0.356085 1.306872,0.639565 2.02481,0.835697 v 2.711432 c 0,0.329238 0.26758,0.594276 0.599938,0.594276 h 3.599644 c 0.332373,0 0.59994,-0.265038 0.59994,-0.594276 v -2.711432 c 0.717966,-0.196132 1.390793,-0.479612 2.024807,-0.835697 l 1.931118,1.912892 c 0.235029,0.23282 0.627413,0.23282 0.862408,0 l 2.698149,-2.313008 -0.167091,-1.048436 -1.931109,-1.912898 c 0.359479,-0.628031 0.645649,-1.294543 0.843655,-2.005705 h 2.737249 c 0.33238,0 0.599947,-0.265047 0.599947,-0.594277 v -3.56568 c 0,-0.329239 -0.267567,-0.594277 -0.599947,-0.594277 h -2.737249 c -0.198033,-0.711196 -0.484215,-1.377671 -0.843655,-2.005709 l 2.102753,-1.687697 -0.171697,-1.079406 -2.531052,-2.507179 c -0.117519,-0.116409 -0.277856,-0.185716 -0.431229,-0.185716 -0.153363,0 -0.313706,0.06932 -0.431218,0.185716 l -1.931117,1.912894 C 35.029759,28.089471 34.356908,27.806 33.638969,27.609871 v -2.711435 c 0,-0.329236 -0.267567,-0.594276 -0.599936,-0.594276 z m 1.799847,6.537225 c 2.982097,0 5.399617,2.394617 5.399617,5.348662 0,2.95404 -2.417429,5.348669 -5.399617,5.348669 -2.982085,0 -5.399612,-2.394629 -5.399612,-5.348669 0,-2.954045 2.417443,-5.348662 5.399612,-5.348662 z"
     fill="#e2e7dd"
     stroke-width="0.794123" />
  <path
     id="path71-2"
     d="m 29.439599,25.031479 c -0.332371,0 -0.599943,0.265061 -0.599943,0.594286 v 2.711428 c -0.717961,0.196142 -1.39079,0.479604 -2.02481,0.835699 L 24.88373,27.259991 c -0.117514,-0.116402 -0.277853,-0.185714 -0.43122,-0.185714 -0.153357,0 -0.3137,0.06932 -0.431218,0.185714 l -2.531055,2.507176 c -0.235027,0.232806 -0.235027,0.621489 0,0.854275 l 1.931114,1.912901 c -0.359483,0.62803 -0.645652,1.294528 -0.843656,2.005698 h -2.737263 c -0.332369,0 -0.599935,0.265049 -0.599935,0.594284 V 38.7 c 0,0.329231 0.267582,0.594284 0.599935,0.594284 h 2.737263 c 0.198016,0.711191 0.484173,1.377668 0.843656,2.005698 l -1.931114,1.912898 c -0.235027,0.23281 -0.235027,0.621485 0,0.854274 l 2.531055,2.507175 c 0.235021,0.232814 0.627411,0.232814 0.862413,0 l 1.931111,-1.912901 c 0.634022,0.356096 1.306879,0.639567 2.024814,0.835702 v 2.711427 c 0,0.329232 0.267573,0.594288 0.599941,0.594288 h 3.599635 c 0.332371,0 0.59994,-0.265056 0.59994,-0.594288 V 45.49713 c 0.717976,-0.196135 1.390801,-0.479606 2.024812,-0.835702 l 1.931114,1.912901 c 0.235033,0.232814 0.627413,0.232814 0.86241,0 l 2.531059,-2.507175 c 0.235037,-0.232814 0.235037,-0.621495 0,-0.854274 l -1.931119,-1.912898 c 0.359491,-0.62803 0.64566,-1.294538 0.843656,-2.005698 h 2.737269 c 0.332369,0 0.599933,-0.265063 0.599933,-0.594284 v -3.565675 c 0,-0.329245 -0.267564,-0.594284 -0.599933,-0.594284 h -2.737269 c -0.198006,-0.71119 -0.484165,-1.377668 -0.843656,-2.005698 l 1.931119,-1.912901 c 0.235037,-0.232804 0.235037,-0.621496 0,-0.854275 l -2.531059,-2.507176 c -0.117507,-0.116402 -0.277847,-0.185714 -0.43121,-0.185714 -0.153375,0 -0.313709,0.06932 -0.431229,0.185714 l -1.93111,1.912901 C 35.029911,28.816797 34.357054,28.53332 33.639117,28.337193 v -2.711428 c 0,-0.329237 -0.267568,-0.594286 -0.599939,-0.594286 z m 1.799847,6.537226 c 2.982097,0 5.399617,2.394623 5.399617,5.348664 0,2.954042 -2.417429,5.34866 -5.399617,5.34866 -2.982085,0 -5.399612,-2.394618 -5.399612,-5.34866 0,-2.954041 2.417443,-5.348664 5.399612,-5.348664 z"
     stroke-width="0.794123"
     style="fill:url(#k-5)" />
  <path
     id="path78-6"
     d="m 29.438322,24.302845 c -0.332354,0 -0.599268,0.26582 -0.599268,0.595033 v 0.727103 c 0,-0.329218 0.26691,-0.595034 0.599268,-0.595034 h 3.599882 c 0.332359,0 0.599266,0.265816 0.599266,0.595034 v -0.727103 c 0,-0.329213 -0.2669,-0.595033 -0.599266,-0.595033 z m -4.986239,2.043519 c -0.153354,0 -0.314032,0.06822 -0.431527,0.18462 l -2.530416,2.507917 -0.169174,1.062219 0.0085,0.0071 c 0.01764,-0.125647 0.06475,-0.247311 0.160573,-0.342248 l 2.530408,-2.507916 c 0.117502,-0.116397 0.278178,-0.184618 0.431529,-0.184618 0.153353,0 0.31402,0.06822 0.431522,0.184618 l 1.929688,1.912902 C 27.447193,28.814932 28.121,28.532117 28.838949,28.336013 V 27.60887 c -0.71792,0.196124 -1.391712,0.478948 -2.025763,0.835002 L 24.883414,26.530858 C 24.765942,26.41449 24.605277,26.346271 24.451925,26.346271 Z m 13.572145,0 c -0.153354,0 -0.312589,0.06822 -0.430093,0.18462 l -1.93115,1.912926 c -0.63401,-0.356083 -1.307822,-0.638896 -2.025765,-0.834999 v 0.727099 c 0.717921,0.196134 1.391712,0.478948 2.025764,0.835006 l 1.93115,-1.912932 c 0.117505,-0.116396 0.27674,-0.184618 0.430094,-0.184618 0.153358,0 0.314032,0.06822 0.431525,0.184618 l 2.530417,2.507917 c 0.100256,0.09931 0.148694,0.227481 0.163435,0.359287 l 0.0085,-0.0071 -0.172044,-1.079296 -2.53041,-2.507917 c -0.117429,-0.11638 -0.278101,-0.184598 -0.43146,-0.184598 z"
     style="fill:url(#r-0);stroke-width:0.971552" />
  <path
     id="path79-1"
     d="m 23.179679,32.293621 c -0.241111,0.485308 -0.4538,0.985314 -0.602167,1.518145 h -2.736926 c -0.332364,0 -0.600717,0.265824 -0.600717,0.595056 v 0.727097 c 0,-0.32923 0.268353,-0.59505 0.600717,-0.59505 h 2.736926 c 0.198016,-0.711176 0.484964,-1.377248 0.844471,-2.00528 z"
     fill="url(#m)"
     style="fill:url(#m-6);stroke-width:0.794104" />
  <path
     id="path80-2"
     d="m 39.300066,32.293621 c 0.241106,0.485308 0.453793,0.985314 0.602156,1.518145 h 2.736925 c 0.332369,0 0.600722,0.265824 0.600722,0.595056 v 0.727097 c 0,-0.32923 -0.268353,-0.59505 -0.600722,-0.59505 h -2.736925 c -0.198011,-0.711176 -0.484962,-1.377248 -0.844469,-2.00528 z"
     style="fill:url(#n-6);stroke-width:0.794104" />
  <path
     id="path82"
     d="m 23.179679,40.812024 -1.688895,1.67295 -0.172047,1.079329 0.0085,0.0069 c 0.01491,-0.131468 0.06343,-0.260254 0.163442,-0.359297 l 1.931191,-1.912914 c -0.09018,-0.157529 -0.161637,-0.324775 -0.242321,-0.487181 z"
     style="fill:url(#p);stroke-width:0.794104" />
  <path
     id="path83"
     d="m 39.300066,40.812024 c -0.08075,0.162499 -0.152112,0.329551 -0.242288,0.487113 l 1.929754,1.912992 c 0.09272,0.09179 0.138123,0.209745 0.157707,0.330903 l 0.0099,-0.0085 -0.167697,-1.049495 z"
     fill="url(#q)"
     style="fill:url(#q);stroke-width:0.794104" />
  <g
     id="g4"
     transform="matrix(1.0659808,0,0,1.0322736,40.909747,2.1202394)">
    <path
       id="path69-9"
       d="m -9.1642612,28.402821 c -2.9224728,0 -5.2916718,2.375693 -5.2916718,5.306382 0,2.93069 2.369109,5.306378 5.2916738,5.306378 2.922486,0 5.291688,-2.375688 5.291688,-5.306378 0,-2.930689 -2.369114,-5.306382 -5.29169,-5.306382 z"
       fill="#586e52"
       stroke-width="0.783034" />
    <path
       id="path70-2"
       d="m -9.1642612,28.402821 c -2.9224728,0 -5.2916718,2.375693 -5.2916718,5.306382 0,2.93069 2.369109,5.306378 5.2916738,5.306378 2.922486,0 5.291688,-2.375688 5.291688,-5.306378 0,-2.930689 -2.369114,-5.306382 -5.29169,-5.306382 z"
       fill="#8ba486"
       stroke-width="0.783034" />
    <path
       id="path84"
       d="m -9.1642612,28.402821 c -2.9224728,0 -5.2916718,2.375693 -5.2916718,5.306382 0,2.93069 2.369109,5.306378 5.2916738,5.306378 2.922486,0 5.291688,-2.375688 5.291688,-5.306378 0,-2.930689 -2.369114,-5.306382 -5.29169,-5.306382 z"
       fill="#bed1ca"
       stroke-width="0.783034" />
    <path
       id="path85"
       d="m -9.1642612,31 c -1.4920418,0 -2.7015418,1.212892 -2.7015418,2.709055 0,1.496194 1.209528,2.709106 2.7015418,2.709106 1.492028,0 2.701555,-1.212881 2.701555,-2.709106 C -6.4627062,32.212827 -7.6722332,31 -9.1642612,31 Z"
       fill="#ae7f45"
       stroke-width="0.783034" />
  </g>
</svg>
