<?xml version="1.0" encoding="UTF-8" standalone="no"?>
<svg
   width="62"
   height="62"
   version="1"
   id="svg8"
   sodipodi:docname="crystal-picnic.svg"
   inkscape:version="1.4 (unknown)"
   xmlns:inkscape="http://www.inkscape.org/namespaces/inkscape"
   xmlns:sodipodi="http://sodipodi.sourceforge.net/DTD/sodipodi-0.dtd"
   xmlns:xlink="http://www.w3.org/1999/xlink"
   xmlns="http://www.w3.org/2000/svg"
   xmlns:svg="http://www.w3.org/2000/svg">
  <defs
     id="defs8">
    <linearGradient
       id="linearGradient1"
       inkscape:collect="always">
      <stop
         style="stop-color:#233143;stop-opacity:1;"
         offset="0"
         id="stop1" />
      <stop
         style="stop-color:#507ddb;stop-opacity:1;"
         offset="1"
         id="stop2" />
    </linearGradient>
    <linearGradient
       inkscape:collect="always"
       xlink:href="#linearGradient1"
       id="linearGradient2"
       x1="31.597424"
       y1="53.787048"
       x2="31.508774"
       y2="4.9824562"
       gradientUnits="userSpaceOnUse"
       gradientTransform="translate(-1.0000006,-1.0000005)" />
  </defs>
  <sodipodi:namedview
     id="namedview8"
     pagecolor="#ffffff"
     bordercolor="#000000"
     borderopacity="0.25"
     inkscape:showpageshadow="2"
     inkscape:pageopacity="0.0"
     inkscape:pagecheckerboard="0"
     inkscape:deskcolor="#d1d1d1"
     inkscape:zoom="11.28"
     inkscape:cx="28.413121"
     inkscape:cy="30.097518"
     inkscape:window-width="1920"
     inkscape:window-height="996"
     inkscape:window-x="0"
     inkscape:window-y="0"
     inkscape:window-maximized="1"
     inkscape:current-layer="svg8" />
  <rect
     style="opacity:0.2;stroke-width:0.98246"
     width="55.017544"
     height="55.017544"
     x="2.9999993"
     y="3.9824567"
     rx="27.508772"
     ry="27.508772"
     id="rect1" />
  <rect
     style="fill:url(#linearGradient2);fill-opacity:1;stroke-width:0.98246"
     width="55.017544"
     height="55.017544"
     x="2.9999993"
     y="2.9999995"
     rx="27.508772"
     ry="27.508772"
     id="rect2" />
  <path
     style="opacity:0.1;fill:#ffffff;stroke-width:0.98246"
     d="m 30.508772,2.9999995 c -15.239861,0 -27.5087726,12.2689125 -27.5087726,27.5087735 0,0.164762 0.010575,0.327172 0.013432,0.491229 C 3.2747731,15.989522 15.433673,3.9824555 30.508772,3.9824555 c 15.075097,0 27.233997,12.0070665 27.49534,27.0175465 0.0029,-0.164057 0.01347,-0.326467 0.01347,-0.49123 -3.8e-5,-15.23986 -12.26895,-27.5087725 -27.50881,-27.5087725 z"
     id="path2" />
  <g
     id="g1"
     transform="matrix(1.0215178,0,0,1.0215178,-0.45355458,-60.903845)">
    <path
       d="m 46.356,88.2289 c -0.05,-0.441 -0.563,-0.771 -1.007,-0.771 -1.436,0 -2.709,-0.843 -3.244,-2.147 -0.545,-1.335 -0.193,-2.892 0.876,-3.873 0.337,-0.308 0.378,-0.823 0.096,-1.181 -0.735,-0.933 -1.57,-1.776 -2.482,-2.506 -0.357,-0.286 -0.881,-0.247 -1.19,0.096 -0.934,1.034 -2.611,1.418 -3.907,0.878 -1.348,-0.568 -2.199,-1.934 -2.115,-3.401 0.027,-0.461 -0.31,-0.861 -0.769,-0.915 -1.17,-0.135 -2.35,-0.139 -3.524,-0.009 -0.454,0.05 -0.791,0.441 -0.775,0.896 0.051,1.453 -0.81,2.795 -2.145,3.342 -1.28,0.523 -2.946,0.142 -3.877,-0.883 -0.308,-0.337 -0.824,-0.379 -1.182,-0.099 -0.939,0.736 -1.793,1.58 -2.534,2.505 -0.289,0.36 -0.247,0.881 0.093,1.19 1.09,0.988 1.442,2.558 0.876,3.909 -0.541,1.287 -1.878,2.117 -3.408,2.117 -0.497,-0.016 -0.851,0.317 -0.905,0.769 -0.138,1.176 -0.139,2.375 -0.007,3.562 0.05,0.442 0.579,0.77 1.028,0.77 1.363,-0.035 2.673,0.81 3.222,2.146 0.548,1.335 0.196,2.891 -0.876,3.873 -0.335,0.308 -0.377,0.823 -0.095,1.181 0.728,0.927 1.563,1.77 2.478,2.507 0.359,0.289 0.881,0.248 1.192,-0.095 0.937,-1.036 2.614,-1.42 3.905,-0.878 1.352,0.565 2.202,1.932 2.119,3.399 -0.027,0.461 0.311,0.863 0.769,0.915 0.598,0.07 1.2,0.105 1.804,0.105 0.573,0 1.146,-0.031 1.72,-0.095 0.454,-0.05 0.79,-0.441 0.775,-0.897 -0.053,-1.452 0.81,-2.794 2.143,-3.34 1.289,-0.527 2.947,-0.142 3.879,0.882 0.31,0.337 0.821,0.378 1.182,0.099 0.937,-0.735 1.789,-1.577 2.534,-2.505 0.289,-0.359 0.248,-0.881 -0.093,-1.191 -1.091,-0.987 -1.444,-2.558 -0.878,-3.907 0.532,-1.27 1.82,-2.123 3.204,-2.123 l 0.194,0.005 c 0.449,0.036 0.862,-0.31 0.917,-0.768 0.138,-1.178 0.139,-2.376 0.007,-3.562 z"
       fill-opacity="0.84"
       id="path2-1"
       style="fill:#f2f2f2;fill-opacity:0.83999997" />
    <path
       d="m 29.659,88.8529 v -2.543 c 0,-2.649 2.147,-4.796 4.796,-4.796 0.402,0 0.687,0.045 1.059,0.142 0.542,0.143 0.985,0.587 0.986,1.104 0,0.625 -0.454,1.08 -1.132,1.08 -0.324,0 -0.44,-0.062 -0.913,-0.062 -1.397,0 -2.529,1.131 -2.532,2.528 v 2.188 c 0,0.198 0.16,0.357 0.357,0.357 h 1.664 c 0.619,0 1.12,0.496 1.12,1.117 0,0.622 -0.501,1.117 -1.12,1.117 h -2.021 v 2.554 c 0,2.648 -2.147,4.795 -4.795,4.795 -0.402,0 -0.688,-0.045 -1.06,-0.142 -0.542,-0.143 -0.985,-0.587 -0.986,-1.104 0,-0.625 0.454,-1.08 1.133,-1.08 0.322,0 0.44,0.062 0.912,0.062 1.397,0 2.53,-1.131 2.532,-2.527 v -2.2 c 0,-0.197 -0.16,-0.357 -0.358,-0.357 h -1.663 c -0.619,0 -1.12,-0.494 -1.12,-1.116 0,-0.625 0.506,-1.117 1.132,-1.117 z"
       fill-rule="nonzero"
       id="path3"
       style="fill:#5681dc;fill-opacity:1" />
  </g>
</svg>
