<?xml version="1.0" encoding="UTF-8" standalone="no"?>
<svg
   width="62"
   height="62"
   version="1.1"
   id="svg10"
   sodipodi:docname="avogadro-icon.svg"
   inkscape:version="1.4 (unknown)"
   xmlns:inkscape="http://www.inkscape.org/namespaces/inkscape"
   xmlns:sodipodi="http://sodipodi.sourceforge.net/DTD/sodipodi-0.dtd"
   xmlns="http://www.w3.org/2000/svg"
   xmlns:svg="http://www.w3.org/2000/svg">
  <defs
     id="defs10" />
  <sodipodi:namedview
     id="namedview10"
     pagecolor="#ffffff"
     bordercolor="#000000"
     borderopacity="0.25"
     inkscape:showpageshadow="2"
     inkscape:pageopacity="0.0"
     inkscape:pagecheckerboard="0"
     inkscape:deskcolor="#d1d1d1"
     inkscape:zoom="8.5405241"
     inkscape:cx="23.5934"
     inkscape:cy="33.780128"
     inkscape:window-width="1920"
     inkscape:window-height="996"
     inkscape:window-x="0"
     inkscape:window-y="0"
     inkscape:window-maximized="1"
     inkscape:current-layer="svg10" />
  <g
     id="g10"
     transform="translate(-0.50249708,-1.0000002)">
    <path
       style="opacity:0.2;stroke-width:0.982938"
       d="m 26.678786,4.9824558 c -1.051271,0 -1.226319,0.5781756 -1.809479,2.0407575 L 4.7153245,57.48981 c -1.0589393,2.434529 -1.3215108,2.510178 1.4358824,2.510178 h 7.1226701 c 2.746675,0 2.914839,0.0255 3.821542,-2.243929 l 4.065435,-9.545541 h 20.683152 l 4.065433,9.545541 c 0.906707,2.26947 1.075852,2.243929 3.821544,2.243929 h 7.122865 c 2.757491,0 2.49492,-0.07565 1.435785,-2.510178 L 38.136536,7.0232133 C 37.552387,5.5606314 37.377343,4.9824558 36.326071,4.9824558 Z m 4.823641,16.6899602 5.958507,14.944137 H 25.543925 Z"
       id="path1" />
    <path
       style="fill:#2c3d54;stroke-width:0.982938;fill-opacity:1"
       d="M 26.678786,4 C 25.627515,4 25.452467,4.578175 24.869307,6.0407575 L 4.7153245,56.507356 c -1.0589393,2.434524 -1.3215108,2.510173 1.4358824,2.510173 h 7.1226701 c 2.746675,0 2.914839,0.02551 3.821542,-2.243929 l 4.065435,-9.54554 h 20.683152 l 4.065433,9.54554 c 0.906707,2.269475 1.075852,2.243929 3.821544,2.243929 h 7.122865 c 2.757491,0 2.49492,-0.07565 1.435785,-2.510173 L 38.136536,6.0407575 C 37.552387,4.578175 37.377343,4 36.326071,4 Z M 31.502427,20.689959 37.460934,35.6341 H 25.543925 Z"
       id="path2" />
    <ellipse
       style="fill:none;stroke:#ff844c;stroke-width:5.05503;stroke-linecap:round;stroke-linejoin:round;stroke-opacity:1"
       cx="41.294914"
       cy="11.747825"
       rx="30.654896"
       ry="7.0984077"
       transform="matrix(0.8778193,0.47899194,-0.4040382,0.91474211,0,0)"
       id="ellipse2" />
    <path
       style="fill:#2c3d54;stroke-width:0.982938;fill-opacity:1"
       d="m 17.703169,23.984136 -3.837277,9.606455 25.623822,13.637469 h 2.355278 l 0.802463,1.507088 15.495648,7.402808 -6.429559,-16.099506 -15.394357,-7.267227 1.14273,2.86386 h -5.958503 -5.959489 l 2.668004,-6.691509 z"
       id="path3" />
    <ellipse
       style="fill:none;stroke:#ff844c;stroke-width:5.05503;stroke-linecap:round;stroke-linejoin:round;stroke-opacity:1"
       cx="-16.540262"
       cy="42.032486"
       rx="30.654896"
       ry="7.0984077"
       transform="matrix(-0.8778193,0.47899194,0.4040382,0.91474211,0,0)"
       id="ellipse3" />
    <path
       style="fill:#ff844c;stroke-width:0.982938;fill-opacity:1"
       d="m 22.448139,24.695435 5.067533,2.84421 c -4.553209,2.596629 -8.647157,5.294456 -11.969131,7.820348 l -4.062476,-3.120279 c 3.089881,-2.461052 6.798337,-5.027229 10.964074,-7.544279 z"
       id="path4" />
    <path
       style="fill:#2c3d54;stroke-width:0.982938;fill-opacity:1"
       d="M 45.302672,23.984136 49.139949,33.590591 23.51711,47.22806 h -2.356256 l -0.801486,1.507088 -15.4962362,7.402808 6.4291672,-16.099506 15.394355,-7.267227 -1.142729,2.86386 h 5.959489 5.958503 l -2.668005,-6.691509 z"
       id="path5" />
    <path
       style="fill:#ff844c;stroke-width:0.982938;fill-opacity:1"
       d="m 40.556718,24.695435 -5.067531,2.84421 c 4.553205,2.596629 8.647157,5.294456 11.969124,7.820348 l 4.062485,-3.120279 C 48.430909,29.778662 44.722459,27.212485 40.556718,24.695435 Z"
       id="path6" />
    <path
       style="opacity:0.2;stroke-width:0.982938"
       d="m 2.0404401,17.025397 c -0.06127,0.704421 0.00931,1.40688 0.1825211,2.029759 0.2905005,1.046312 0.7868294,1.970803 1.4078551,2.89726 1.2420512,1.853897 3.0370761,3.734319 5.320464,5.7454 1.2297567,1.08365 2.6134237,2.200706 4.1101807,3.333478 0.220283,-0.16702 0.425814,-0.33207 0.651015,-0.49909 C 11.963969,29.234382 10.355106,27.952275 8.9512803,26.715365 6.6678924,24.704275 4.8728675,22.823856 3.6308163,20.969959 3.0097906,20.043506 2.5134617,19.119016 2.2229612,18.072697 2.131406,17.743577 2.075154,17.387927 2.0404401,17.025397 Z m 5.9542738,0.0521 c -0.4620078,0.009 -0.6612473,0.0776 -0.895103,0.13362 0.1029633,0.2407 0.1774078,0.45586 0.4533538,0.867509 0.00421,0.007 0.011011,0.0147 0.015345,0.0216 0.1200749,-0.0187 0.2412313,-0.0373 0.4264081,-0.0403 1.3307553,-0.0265 3.4529612,0.294739 6.0137652,0.999159 5.120636,1.40884 12.049769,4.287438 19.341781,8.26638 7.29201,3.978948 13.576025,8.310597 17.711276,11.952564 2.057303,1.812629 3.578644,3.471999 4.377177,4.656839 0.177996,-0.0265 0.326492,-0.058 0.466137,-0.0914 -0.102273,-0.240685 -0.177015,-0.459773 -0.45237,-0.871423 C 54.656901,41.78524 53.128678,40.11703 51.06154,38.295559 46.926289,34.653602 40.642274,30.321958 33.350264,26.343012 26.058252,22.364063 19.129119,19.485465 14.008483,18.076624 11.447679,17.372204 9.3254697,17.050944 7.9947143,17.077465 Z M 60.964517,45.013611 c -0.04134,0.477476 -0.131778,0.95495 -0.332393,1.408846 -0.49564,1.121963 -1.434802,1.852912 -2.35626,2.237052 -0.918509,0.382171 -1.87537,0.51186 -2.907954,0.533471 l 0.385498,0.962809 c 0.886057,-0.0442 1.720974,-0.17979 2.522456,-0.513825 0.921458,-0.384144 1.86062,-1.115087 2.35626,-2.237054 0.339274,-0.768279 0.408116,-1.603369 0.332393,-2.391299 z"
       id="path7" />
    <ellipse
       style="opacity:0.2;stroke-width:0.982938"
       cx="14.785379"
       cy="15.789474"
       id="circle7"
       rx="6.8838959"
       ry="6.8771925" />
    <ellipse
       style="fill:#ffd633;stroke-width:0.982938;fill-opacity:1"
       cx="14.785379"
       cy="14.807013"
       id="circle8"
       rx="6.8838959"
       ry="6.8771925" />
    <path
       style="opacity:0.2;fill:#ffffff;stroke-width:0.982938"
       d="M 14.784398,7.9298239 A 6.8838951,6.8771915 0 0 0 7.9006013,14.807017 6.8838951,6.8771915 0 0 0 7.9255804,15.244208 6.8838951,6.8771915 0 0 1 14.7844,8.9122797 6.8838951,6.8771915 0 0 1 21.643708,15.277609 6.8838951,6.8771915 0 0 0 21.66832,14.807017 6.8838951,6.8771915 0 0 0 14.784427,7.9298239 Z"
       id="path8" />
    <path
       style="opacity:0.2;stroke-width:0.982938"
       d="m 60.970417,17.025397 c -0.03443,0.36253 -0.09148,0.71818 -0.182913,1.0473 -0.290108,1.046319 -0.786733,1.970809 -1.407267,2.897262 -1.242052,1.853897 -3.037765,3.734316 -5.320268,5.745406 -1.405298,1.23691 -3.013178,2.519017 -4.761688,3.816839 0.225202,0.16702 0.430737,0.33207 0.651022,0.49909 1.496751,-1.132772 2.879433,-2.249828 4.110666,-3.333478 2.282503,-2.011081 4.078216,-3.891503 5.320268,-5.7454 0.620534,-0.926457 1.117159,-1.850948 1.407267,-2.89726 0.17308,-0.622879 0.243882,-1.325338 0.182913,-2.029759 z m -5.954568,0.0521 c -1.330559,-0.0265 -3.452765,0.29474 -6.013575,0.99916 -3.350492,0.921547 -7.481813,2.482669 -11.976011,4.559579 0.321575,0.18077 0.647088,0.35958 0.964729,0.541331 4.119521,-1.857821 7.900744,-3.262731 11.011282,-4.118451 2.56081,-0.70442 4.683016,-1.025689 6.013575,-0.999159 0.184881,0.003 0.306825,0.0216 0.426802,0.0403 0.004,-0.007 0.01081,-0.0147 0.01471,-0.0216 0.276338,-0.411647 0.35108,-0.626807 0.453356,-0.867507 -0.233072,-0.056 -0.432704,-0.124772 -0.894907,-0.13362 z m -23.507519,8.28505 c -0.614635,0.322242 -1.227302,0.641542 -1.847836,0.980492 -7.292012,3.978941 -13.577008,8.31059 -17.711276,11.952557 -2.0671363,1.821471 -3.5954595,3.489681 -4.3905496,4.676489 -0.2759457,0.41165 -0.3503902,0.630738 -0.4532553,0.87144 0.139743,0.0334 0.2882386,0.06481 0.4667279,0.0914 0.7982371,-1.184843 2.3197742,-2.84421 4.377077,-4.656844 4.134268,-3.641962 10.419264,-7.973611 17.711276,-11.952559 0.932277,-0.50793 1.856685,-0.998171 2.773227,-1.469751 -0.30879,-0.165055 -0.617581,-0.331093 -0.925391,-0.493195 z M 2.0462419,45.013602 c -0.075333,0.78793 -0.007,1.62302 0.3322953,2.391299 0.4956406,1.121967 1.4344074,1.85291 2.3566525,2.237056 0.8015804,0.334033 1.6357118,0.469613 2.5219641,0.513823 l 0.386088,-0.962809 C 6.6097726,49.17136 5.6529112,49.041671 4.7351897,48.6595 3.8129446,48.27536 2.8741778,47.544411 2.3785372,46.422448 2.1782161,45.968552 2.0877421,45.491078 2.0462419,45.013602 Z"
       id="path9" />
    <ellipse
       style="opacity:0.2;stroke-width:0.982938"
       cx="52.645828"
       cy="25.122799"
       id="circle9"
       rx="5.4087734"
       ry="5.4035063" />
    <ellipse
       style="fill:#ffd633;stroke-width:0.982938;fill-opacity:1"
       cx="52.645828"
       cy="24.140347"
       id="circle10"
       rx="5.4087734"
       ry="5.4035063" />
    <path
       style="opacity:0.2;fill:#ffffff;stroke-width:0.982938"
       d="m 52.645821,18.736837 a 5.4087748,5.4035076 0 0 0 -5.408775,5.403509 5.4087748,5.4035076 0 0 0 0.02462,0.477471 5.4087748,5.4035076 0 0 1 5.38419,-4.898521 5.4087748,5.4035076 0 0 1 5.384188,4.926031 5.4087748,5.4035076 0 0 0 0.02462,-0.504981 5.4087748,5.4035076 0 0 0 -5.408773,-5.403509 z"
       id="path10" />
  </g>
</svg>
