<?xml version="1.0" encoding="UTF-8" standalone="no"?>
<svg
   width="62"
   height="62"
   version="1.1"
   id="svg6"
   sodipodi:docname="awesomebump.svg"
   inkscape:version="1.4 (unknown)"
   xmlns:inkscape="http://www.inkscape.org/namespaces/inkscape"
   xmlns:sodipodi="http://sodipodi.sourceforge.net/DTD/sodipodi-0.dtd"
   xmlns:xlink="http://www.w3.org/1999/xlink"
   xmlns="http://www.w3.org/2000/svg"
   xmlns:svg="http://www.w3.org/2000/svg">
  <defs
     id="defs6">
    <linearGradient
       id="linearGradient1"
       inkscape:collect="always">
      <stop
         style="stop-color:#00d1e0;stop-opacity:1;"
         offset="0"
         id="stop1" />
      <stop
         style="stop-color:#005293;stop-opacity:1;"
         offset="1"
         id="stop2" />
    </linearGradient>
    <linearGradient
       inkscape:collect="always"
       xlink:href="#linearGradient1"
       id="linearGradient2"
       x1="27.191462"
       y1="6"
       x2="27.191462"
       y2="56"
       gradientUnits="userSpaceOnUse" />
  </defs>
  <sodipodi:namedview
     id="namedview6"
     pagecolor="#ffffff"
     bordercolor="#000000"
     borderopacity="0.25"
     inkscape:showpageshadow="2"
     inkscape:pageopacity="0.0"
     inkscape:pagecheckerboard="0"
     inkscape:deskcolor="#d1d1d1"
     inkscape:zoom="12.078125"
     inkscape:cx="32.082794"
     inkscape:cy="33.73868"
     inkscape:window-width="1920"
     inkscape:window-height="996"
     inkscape:window-x="0"
     inkscape:window-y="0"
     inkscape:window-maximized="1"
     inkscape:current-layer="svg6" />
  <rect
     width="52"
     height="56"
     x="5"
     y="3"
     rx="8"
     ry="8"
     id="rect1"
     style="fill:#3c4e6c;fill-opacity:1" />
  <rect
     width="46"
     height="50"
     x="8"
     y="6"
     opacity="0.05"
     rx="5"
     ry="5"
     id="rect2"
     style="opacity:1;fill:url(#linearGradient2);fill-opacity:1" />
  <g
     id="g1"
     transform="translate(1.1714123)">
    <path
       style="fill:#2432aa;fill-opacity:1"
       d="m 29.411382,19 v 6.878906 L 38.684822,43 h 2.72656 c 0,0 7,0 7,-7 0,-6 -4,-6 -4,-6 0,0 2,-1 2,-5 0,-6 -5,-6 -5,-6 z m 0,15.275391 V 41 h 3.64258 z"
       id="path5-9" />
    <path
       style="fill:#2432aa;fill-opacity:1"
       d="M 23.411382,19 10.411384,43 h 9 l 3.999998,-7 4,7 h 9 z"
       id="path6-3" />
  </g>
</svg>
