<?xml version="1.0" encoding="UTF-8" standalone="no"?>
<svg
   width="62"
   height="62"
   version="1.1"
   id="svg6"
   sodipodi:docname="ayatana-settings.svg"
   inkscape:version="1.4 (unknown)"
   xmlns:inkscape="http://www.inkscape.org/namespaces/inkscape"
   xmlns:sodipodi="http://sodipodi.sourceforge.net/DTD/sodipodi-0.dtd"
   xmlns="http://www.w3.org/2000/svg"
   xmlns:svg="http://www.w3.org/2000/svg">
  <defs
     id="defs6" />
  <sodipodi:namedview
     id="namedview6"
     pagecolor="#ffffff"
     bordercolor="#000000"
     borderopacity="0.25"
     inkscape:showpageshadow="2"
     inkscape:pageopacity="0.0"
     inkscape:pagecheckerboard="0"
     inkscape:deskcolor="#d1d1d1"
     inkscape:zoom="7.0710678"
     inkscape:cx="40.305087"
     inkscape:cy="33.870415"
     inkscape:window-width="1920"
     inkscape:window-height="996"
     inkscape:window-x="0"
     inkscape:window-y="0"
     inkscape:window-maximized="1"
     inkscape:current-layer="svg6" />
  <g
     id="g6"
     transform="matrix(0.98214286,0,0,0.98245613,-0.42857164,-0.9298244)">
    <path
       style="opacity:0.2"
       d="M 37.523012,5.0011 C 36.553344,4.978704 35.845864,5.3277658 35.210498,6.051888 34.666974,6.6714556 34.060588,7.779852 33.862834,8.5206522 33.13739,11.238358 29.743102,12.987375 26.749512,12.18083 25.280648,11.785084 24.58404,11.159372 22.206518,8.118306 c -1.082146,-1.38419 -2.005606,-1.35305 -4.660183,0.1601608 -2.522089,1.4379688 -2.826229,2.3735322 -1.68751,5.2070622 0.470525,1.171243 0.869681,2.669002 0.878911,3.332049 0.02306,1.639336 -1.428176,4.236006 -2.886736,5.171908 -1.195513,0.767112 -3.700883,0.941804 -5.703157,0.402344 -1.904011,-0.512986 -2.8798052,0.393804 -3.6836154,3.410176 -0.6258998,2.348746 -0.6234834,2.694968 0.035154,3.445332 0.4024126,0.458786 1.7076738,1.252024 2.902362,1.765634 1.1947498,0.513632 2.5172324,1.318564 2.9336104,1.792982 0.879081,1.00171 1.439902,3.89276 1.04688,5.410186 -0.284348,1.101844 -1.6470342,2.81503 -2.7500156,3.464864 -1.2021612,0.70826 -2.3603122,2.278204 -2.3242314,3.144548 0.046242,1.109884 1.6211792,3.882272 2.6250154,4.617216 0.5749386,0.421038 1.061981,0.478822 1.8007916,0.203126 2.165438,-0.80777 5.652809,-1.380652 6.703163,-1.097662 1.583536,0.42664 3.837657,2.535888 4.105491,3.847678 0.12602,0.617816 0.12386,1.97696 0,3.019548 -0.300668,2.528572 -0.05416,3.826864 0.816412,4.273462 0.395916,0.202566 1.031128,0.532298 1.410166,0.73438 0.378348,0.204652 1.28717,0.448368 2.01954,0.542972 1.909944,0.24777 3.26224,-0.862692 4.312526,-3.558614 0.960332,-2.464972 1.30047,-2.812646 3.48049,-3.507834 2.213722,-0.705966 3.754166,-0.546792 5.027372,0.523442 1.055632,0.88745 1.46951,1.30951 3.093766,3.167986 1.190014,1.361898 2.133268,1.445202 4.218778,0.35547 3.1358,-1.638734 3.45345,-2.631698 1.902352,-5.886752 -1.476568,-3.098026 -0.675966,-6.207656 2.070326,-8.019578 1.051656,-0.693802 1.863108,-0.812518 4.386742,-0.648442 3.810306,0.2478 4.55841,-0.18818 5.3555,-3.136736 0.796156,-2.944938 0.460452,-3.554242 -2.792984,-5.003934 -3.095684,-1.379338 -3.93701,-2.386992 -4.386744,-5.265656 -0.373934,-2.393522 0.218392,-3.578304 3.01564,-5.972692 1.434418,-1.22772 2.241446,-2.188196 2.246108,-2.683608 0.01,-1.105676 -2.513628,-5.093222 -3.371114,-5.32425 -0.397088,-0.107002 -1.60318,0.1821 -2.683604,0.636722 -2.980374,1.254461 -4.571964,1.293805 -6.531286,0.15626 -2.302282,-1.33631 -2.903468,-2.631167 -2.718766,-5.843785 C 42.625788,7.264695 42.327448,6.5140066 40.343344,5.727678 39.68247,5.4651586 39.102692,5.2683314 38.585522,5.1495508 v -0.004 c -0.387874,-0.0891 -0.739284,-0.137062 -1.062506,-0.14454 z"
       id="path1" />
    <path
       style="fill:#587aa7;fill-opacity:1"
       d="m 37.523012,4.0010568 c -0.969668,-0.022396 -1.677148,0.3266658 -2.312514,1.050788 -0.543524,0.6195676 -1.14991,1.727964 -1.347664,2.4687642 -0.725444,2.717706 -4.119732,4.466722 -7.113322,3.660177 -1.468864,-0.395746 -2.165472,-1.021458 -4.542994,-4.0625232 -1.082146,-1.38419 -2.005606,-1.35305 -4.660183,0.1601608 -2.522089,1.4379684 -2.826229,2.3735318 -1.68751,5.2070614 0.470525,1.171244 0.869681,2.669002 0.878911,3.332049 0.02306,1.639336 -1.428176,4.236006 -2.886736,5.171908 -1.195513,0.767112 -3.700883,0.941804 -5.703157,0.402344 -1.904011,-0.512986 -2.8798052,0.393804 -3.6836154,3.410176 -0.6258998,2.348746 -0.6234834,2.694968 0.035154,3.445332 0.4024126,0.458786 1.7076738,1.252024 2.902362,1.765634 1.1947498,0.513632 2.5172324,1.318564 2.9336104,1.792982 0.879081,1.00171 1.439902,3.89276 1.04688,5.410186 -0.284348,1.101844 -1.6470342,2.81503 -2.7500156,3.464864 -1.2021612,0.70826 -2.3603122,2.278204 -2.3242314,3.144548 0.046242,1.109884 1.6211792,3.882272 2.6250154,4.617216 0.5749386,0.421038 1.061981,0.478822 1.8007916,0.203126 2.165438,-0.80777 5.652809,-1.380652 6.703163,-1.097662 1.583536,0.42664 3.837657,2.535888 4.105491,3.847678 0.12602,0.617816 0.12386,1.97696 0,3.019548 -0.300668,2.528572 -0.05416,3.826864 0.816412,4.273462 0.395916,0.202566 1.031128,0.532298 1.410166,0.73438 0.378348,0.204652 1.28717,0.448368 2.01954,0.542972 1.909944,0.24777 3.26224,-0.862692 4.312526,-3.558614 0.960332,-2.464972 1.30047,-2.812646 3.48049,-3.507834 2.213722,-0.705966 3.754166,-0.546792 5.027372,0.523442 1.055632,0.88745 1.46951,1.30951 3.093766,3.167986 1.190014,1.361898 2.133268,1.445202 4.218778,0.35547 3.1358,-1.638734 3.45345,-2.631698 1.902352,-5.886752 -1.476568,-3.098026 -0.675966,-6.207656 2.070326,-8.019578 1.051656,-0.693802 1.863108,-0.812518 4.386742,-0.648442 3.810306,0.2478 4.55841,-0.18818 5.3555,-3.136736 0.796156,-2.944938 0.460452,-3.554242 -2.792984,-5.003934 -3.095684,-1.379338 -3.93701,-2.386992 -4.386744,-5.265656 -0.373934,-2.393522 0.218392,-3.578304 3.01564,-5.972692 1.434418,-1.22772 2.241446,-2.188196 2.246108,-2.683608 0.01,-1.105675 -2.513628,-5.093222 -3.371114,-5.32425 -0.397088,-0.107002 -1.60318,0.1821 -2.683604,0.636722 -2.980374,1.254461 -4.571964,1.293805 -6.531286,0.15626 C 42.830152,14.461702 42.228966,13.166846 42.413668,9.954227 42.625788,6.2646518 42.327448,5.5139634 40.343344,4.7276348 39.68247,4.4651154 39.102692,4.2682882 38.585522,4.1495076 v -0.004 c -0.387874,-0.0891 -0.739284,-0.137062 -1.062506,-0.14454 z"
       id="path2" />
    <circle
       style="opacity:1;fill:#2c3d54;fill-opacity:1"
       cx="32"
       cy="32"
       r="9.8000002"
       id="circle2" />
    <path
       style="opacity:0.2"
       d="m 32,19.000044 a 14,14 0 0 0 -14,14 14,14 0 0 0 14,14 14,14 0 0 0 8,-2.542968 v 2.34375 c 0,0.1108 0.08842,0.19922 0.19922,0.19922 h 5.601564 c 0.1108,0 0.19922,-0.08842 0.19922,-0.19922 V 33.199262 c 0,-0.02096 -0.0058,-0.03964 -0.0118,-0.0586 A 14,14 0 0 0 46,33.000044 a 14,14 0 0 0 -14,-14 z m 0,6 a 8,8 0 0 1 8,8 8,8 0 0 1 -8,8 8,8 0 0 1 -8,-8 8,8 0 0 1 8,-8 z"
       id="path3" />
    <path
       style="fill:#00ccba;fill-opacity:1"
       d="m 32,18 a 14,14 0 0 0 -14,14 14,14 0 0 0 14,14 14,14 0 0 0 8,-2.542968 v 2.34375 C 40,45.911582 40.088418,46 40.199218,46 h 5.601564 C 45.911582,46 46,45.911582 46,45.800782 V 32.199218 c 0,-0.02096 -0.0058,-0.03964 -0.0118,-0.0586 A 14,14 0 0 0 46,32 14,14 0 0 0 32,18 Z m 0,6 a 8,8 0 0 1 8,8 8,8 0 0 1 -8,8 8,8 0 0 1 -8,-8 8,8 0 0 1 8,-8 z"
       id="path4" />
    <path
       style="opacity:0.2;fill:#ffffff"
       d="M 32,18 A 14,14 0 0 0 18,32 14,14 0 0 0 18.035156,32.503906 14,14 0 0 1 32,19 14,14 0 0 1 46,33 v -0.800781 c 0,-0.02096 -0.0057,-0.03963 -0.01172,-0.05859 A 14,14 0 0 0 46,32 14,14 0 0 0 32,18 Z m 14,15 a 14,14 0 0 1 -0.01172,0.140625 C 45.994281,33.159585 46,33.178259 46,33.199219 Z M 39.914062,32.867188 A 8,8 0 0 1 32,40 8,8 0 0 1 24.097656,33 8,8 0 0 0 24,34 8,8 0 0 0 24.046875,34.527344 8,8 0 0 1 24.097656,34 8,8 0 0 0 32,41 8,8 0 0 0 39.914062,33.867188 8,8 0 0 1 39.958984,34.464844 8,8 0 0 0 40,34 8,8 0 0 0 39.914062,32.867188 Z"
       id="path5" />
    <path
       style="opacity:0.1;fill:#ffffff"
       d="M 37.523438,4 V 4.00195 C 36.55377,3.9795571 35.846303,4.3286122 35.210938,5.0527344 34.667414,5.672302 34.061035,6.7806842 33.863281,7.5214844 33.137837,10.23919 29.74359,11.988186 26.75,11.181641 25.281136,10.785895 24.584553,10.160206 22.207031,7.1191406 c -1.082146,-1.38419 -2.005579,-1.3530545 -4.660156,0.1601563 -1.844382,1.0515737 -2.494284,1.8400052 -2.269531,3.2929691 0.182658,-0.8734689 0.895337,-1.509473 2.269531,-2.2929691 2.654577,-1.5132108 3.57801,-1.5443463 4.660156,-0.1601563 2.377522,3.0410654 3.074105,3.6667544 4.542969,4.0625004 2.99359,0.806545 6.387837,-0.94245 7.113281,-3.6601566 0.197754,-0.7408002 0.804133,-1.8491824 1.347657,-2.46875 0.635365,-0.7241222 1.342832,-1.0731773 2.3125,-1.0507813 0.323222,0.00748 0.674626,0.055431 1.0625,0.1445313 v 0.00391 C 39.103108,5.269175 39.682876,5.466 40.34375,5.7285194 41.872526,6.3343952 42.396164,6.9331865 42.460938,8.8574257 42.537613,6.1139863 42.110402,5.4286649 40.34375,4.7285156 39.682876,4.4659962 39.103108,4.2691712 38.585938,4.1503906 v -0.00586 C 38.198064,4.0554312 37.84666,4.007478 37.523438,4 Z m 4.878906,7.402344 c -0.09857,2.874186 0.543396,4.127045 2.730468,5.396484 1.959322,1.137545 3.550877,1.098211 6.53125,-0.15625 1.080424,-0.454622 2.286506,-0.743721 2.683594,-0.636719 0.74196,0.199903 2.724132,3.206109 3.240235,4.730469 0.08068,-0.156787 0.129807,-0.29451 0.130859,-0.40625 0.01,-1.105675 -2.513608,-5.093191 -3.371094,-5.324219 -0.397088,-0.107002 -1.60317,0.182097 -2.683594,0.636719 -2.980373,1.254461 -4.571928,1.293795 -6.53125,0.15625 -1.91583,-1.112003 -2.643163,-2.212932 -2.730468,-4.396484 z M 16.6875,16.390625 c -0.250949,1.618685 -1.536828,3.766021 -2.835938,4.599609 -1.195513,0.767112 -3.700851,0.941804 -5.7031245,0.402344 -1.904011,-0.512986 -2.8797835,0.393784 -3.6835937,3.410156 -0.4143897,1.555035 -0.5488341,2.228651 -0.4042969,2.726563 0.069585,-0.423287 0.2004332,-0.961546 0.4042969,-1.726563 0.8038102,-3.016372 1.7795827,-3.923142 3.6835937,-3.410156 2.0022735,0.53946 4.5076115,0.364768 5.7031245,-0.402344 1.45856,-0.935902 2.909779,-3.532539 2.886719,-5.171875 -0.0016,-0.111343 -0.02875,-0.274813 -0.05078,-0.427734 z m 35.697266,11.945313 c -0.05311,0.497538 -0.02407,1.033749 0.07227,1.65039 0.449734,2.878664 1.291035,3.886287 4.386719,5.265625 2.011931,0.896492 2.906707,1.471737 3.109375,2.476563 0.203674,-1.68481 -0.523725,-2.324428 -3.109375,-3.476563 -3.095684,-1.379338 -3.936985,-2.386961 -4.386719,-5.265625 -0.03595,-0.2301 -0.05528,-0.440484 -0.07227,-0.65039 z m -40.898438,8.230468 c -0.02031,0.23461 -0.05279,0.454533 -0.103516,0.650391 -0.284347,1.101844 -1.6470181,2.81501 -2.7499995,3.464844 -1.2021612,0.70826 -2.3602995,2.278187 -2.3242187,3.144531 0.00591,0.141848 0.036425,0.311565 0.087891,0.5 0.2792217,-0.880139 1.2383041,-2.05654 2.2363281,-2.644531 1.1029814,-0.649834 2.4656521,-2.363 2.7499991,-3.464844 0.11771,-0.454468 0.13985,-1.037155 0.103516,-1.650391 z m 35.632813,11.94336 c -0.09696,1.133796 0.12939,2.342916 0.705078,3.550781 0.454958,0.954752 0.742109,1.710707 0.851562,2.349609 0.176098,-0.825421 -0.13413,-1.844042 -0.851562,-3.349609 -0.409208,-0.858569 -0.638604,-1.718299 -0.705078,-2.550781 z m -25.496094,4.761718 c -0.01353,0.390877 -0.03743,0.785531 -0.08008,1.144532 -0.109047,0.917065 -0.144039,1.667827 -0.105469,2.279296 0.01743,-0.389585 0.04919,-0.805978 0.105469,-1.279296 0.08117,-0.683273 0.105269,-1.487109 0.08008,-2.144532 z"
       id="path6" />
  </g>
</svg>
