<?xml version="1.0" encoding="UTF-8" standalone="no"?>
<svg
   width="62"
   height="62"
   version="1.1"
   id="svg5"
   sodipodi:docname="azardi.svg"
   inkscape:version="1.4 (unknown)"
   xmlns:inkscape="http://www.inkscape.org/namespaces/inkscape"
   xmlns:sodipodi="http://sodipodi.sourceforge.net/DTD/sodipodi-0.dtd"
   xmlns:xlink="http://www.w3.org/1999/xlink"
   xmlns="http://www.w3.org/2000/svg"
   xmlns:svg="http://www.w3.org/2000/svg">
  <defs
     id="defs5">
    <linearGradient
       id="linearGradient1"
       inkscape:collect="always">
      <stop
         style="stop-color:#2d3d53;stop-opacity:1;"
         offset="0"
         id="stop1" />
      <stop
         style="stop-color:#2b3e55;stop-opacity:1;"
         offset="0.3766458"
         id="stop5" />
      <stop
         style="stop-color:#a02c5a;stop-opacity:1"
         offset="1"
         id="stop2" />
    </linearGradient>
    <linearGradient
       id="paint1_linear_54_1200"
       x1="16"
       y1="26"
       x2="16"
       y2="6"
       gradientUnits="userSpaceOnUse"
       gradientTransform="matrix(3.0397983,0,0,3.0420943,35.820936,133.83376)">
      <stop
         stop-color="#5570FF"
         id="stop3" />
      <stop
         offset="1"
         stop-color="#4DD3FF"
         id="stop4" />
    </linearGradient>
    <linearGradient
       inkscape:collect="always"
       xlink:href="#linearGradient1"
       id="linearGradient2"
       x1="30.26738"
       y1="58.07637"
       x2="30.165775"
       y2="4.9824562"
       gradientUnits="userSpaceOnUse" />
  </defs>
  <sodipodi:namedview
     id="namedview5"
     pagecolor="#ffffff"
     bordercolor="#000000"
     borderopacity="0.25"
     inkscape:showpageshadow="2"
     inkscape:pageopacity="0.0"
     inkscape:pagecheckerboard="0"
     inkscape:deskcolor="#d1d1d1"
     inkscape:zoom="11.6875"
     inkscape:cx="32.085561"
     inkscape:cy="31.957219"
     inkscape:window-width="1920"
     inkscape:window-height="996"
     inkscape:window-x="0"
     inkscape:window-y="0"
     inkscape:window-maximized="1"
     inkscape:current-layer="svg5" />
  <rect
     style="opacity:0.2;stroke-width:0.9823"
     width="55"
     height="55.017544"
     x="4"
     y="4.9824562"
     rx="8.25"
     ry="8.2526312"
     id="rect1" />
  <rect
     style="fill:url(#linearGradient2);stroke-width:0.9823;fill-opacity:1"
     width="55"
     height="55.017544"
     x="4"
     y="4"
     rx="8.25"
     ry="8.2526312"
     id="rect2" />
  <path
     style="opacity:0.1;fill:#ffffff;stroke-width:0.9823"
     d="M 12.248466,4 C 7.6779652,4 4,7.6791384 4,12.251097 v 0.982456 C 4,8.6615945 7.6779652,4.9824561 12.248466,4.9824561 H 50.751534 C 55.322034,4.9824561 59,8.6615945 59,13.233553 V 12.251097 C 59,7.6791384 55.322034,4 50.751534,4 Z"
     id="path4" />
  <g
     id="g1"
     transform="matrix(1.0333333,0,0,0.94594595,-0.20998217,2.2214318)">
    <path
       style="opacity:0.2"
       d="m 13.902428,14.508772 -13.69921944,36 H 9.7910996 l 2.3515624,-7 h 14.914063 l 2.146484,6.453125 v 0.546875 h 0.181641 9.58789 21.230469 v -7 H 41.132897 L 60.203209,20.127913 v -5.619141 h -31 v 7 H 48.289147 L 34.408287,38.512678 25.273521,14.508772 Z m 5.697265,8.439453 5.054688,13.560547 H 14.521568 Z"
       id="path2" />
    <path
       style="fill:#f2f2f2;fill-opacity:1"
       d="m 27.056786,42.508772 h -14.91315 l -2.3534044,7 H 0.20320856 l 13.69928844,-36 h 11.370655 l 13.699288,36 h -9.587024 z m -12.534973,-7 H 24.653836 L 19.600212,21.948155 Z"
       id="path3" />
    <path
       style="fill:#f2f2f2;fill-opacity:1"
       d="m 29.203209,13.508772 h 31 V 19.12699 L 41.132573,42.508772 h 19.070636 v 7 h -31 V 43.890553 L 48.289298,20.508772 H 29.203209 Z"
       id="path4-6" />
  </g>
</svg>
