<?xml version="1.0" encoding="UTF-8" standalone="no"?>
<svg
   width="64"
   height="64"
   version="1"
   id="svg12"
   sodipodi:docname="nemo.svg"
   inkscape:version="1.4 (unknown)"
   xmlns:inkscape="http://www.inkscape.org/namespaces/inkscape"
   xmlns:sodipodi="http://sodipodi.sourceforge.net/DTD/sodipodi-0.dtd"
   xmlns:xlink="http://www.w3.org/1999/xlink"
   xmlns="http://www.w3.org/2000/svg"
   xmlns:svg="http://www.w3.org/2000/svg">
  <defs
     id="defs12">
    <linearGradient
       id="linearGradient24"
       inkscape:collect="always">
      <stop
         style="stop-color:#1c2329;stop-opacity:1;"
         offset="0"
         id="stop24" />
      <stop
         style="stop-color:#566c80;stop-opacity:1;"
         offset="1"
         id="stop25" />
    </linearGradient>
    <linearGradient
       id="linearGradient20"
       inkscape:collect="always">
      <stop
         style="stop-color:#566c80;stop-opacity:1;"
         offset="0"
         id="stop20" />
      <stop
         style="stop-color:#28383e;stop-opacity:1;"
         offset="1"
         id="stop21" />
    </linearGradient>
    <linearGradient
       id="paint486_linear_890_11"
       x1="707"
       y1="391"
       x2="699.474"
       y2="365.19501"
       gradientUnits="userSpaceOnUse">
      <stop
         stop-color="#2E2E41"
         id="stop1715" />
      <stop
         offset="1"
         stop-color="#566C80"
         id="stop1716" />
    </linearGradient>
    <linearGradient
       id="paint487_linear_890_11"
       x1="701"
       y1="411"
       x2="652.21997"
       y2="371.97601"
       gradientUnits="userSpaceOnUse">
      <stop
         stop-color="#5200FF"
         id="stop1717" />
      <stop
         offset="0.906064"
         stop-color="#0085FF"
         id="stop1718" />
    </linearGradient>
    <linearGradient
       id="paint488_linear_890_11"
       x1="705"
       y1="411"
       x2="661.87097"
       y2="375.71301"
       gradientUnits="userSpaceOnUse">
      <stop
         offset="0.377885"
         stop-color="#FF7E07"
         id="stop1719" />
      <stop
         offset="1"
         stop-color="#FFE607"
         id="stop1720" />
    </linearGradient>
    <linearGradient
       id="paint489_linear_890_11"
       x1="703"
       y1="411"
       x2="665.04999"
       y2="371.05301"
       gradientUnits="userSpaceOnUse">
      <stop
         offset="0.295664"
         stop-color="#71706E"
         id="stop1721" />
      <stop
         offset="1"
         stop-color="#B9AA99"
         id="stop1722" />
    </linearGradient>
    <linearGradient
       id="paint490_linear_890_11"
       x1="672.75"
       y1="379"
       x2="672.75"
       y2="381"
       gradientUnits="userSpaceOnUse">
      <stop
         stop-color="white"
         id="stop1723" />
      <stop
         offset="0.705"
         stop-color="#E6E6E6"
         id="stop1724" />
    </linearGradient>
    <linearGradient
       id="paint491_linear_890_11"
       x1="671.5"
       y1="383"
       x2="671.5"
       y2="385"
       gradientUnits="userSpaceOnUse">
      <stop
         stop-color="white"
         id="stop1725" />
      <stop
         offset="0.705"
         stop-color="#E6E6E6"
         id="stop1726" />
    </linearGradient>
    <linearGradient
       id="paint492_linear_890_11"
       x1="707"
       y1="417"
       x2="682.62701"
       y2="375.21799"
       gradientUnits="userSpaceOnUse">
      <stop
         offset="0.126759"
         stop-color="#2E2E41"
         id="stop1727" />
      <stop
         offset="0.877369"
         stop-color="#566C80"
         id="stop1728" />
    </linearGradient>
    <linearGradient
       id="paint493_linear_890_11"
       x1="691.69598"
       y1="403"
       x2="691.69598"
       y2="399"
       gradientUnits="userSpaceOnUse">
      <stop
         offset="0.340681"
         stop-color="#2E2E41"
         id="stop1729" />
      <stop
         offset="1"
         stop-color="#566C80"
         id="stop1730" />
    </linearGradient>
    <linearGradient
       inkscape:collect="always"
       xlink:href="#linearGradient20"
       id="linearGradient21"
       x1="663"
       y1="385.9808"
       x2="695.44556"
       y2="417"
       gradientUnits="userSpaceOnUse"
       gradientTransform="matrix(0.96551724,0,0,0.96551724,-628.27584,-344.62067)" />
    <linearGradient
       inkscape:collect="always"
       xlink:href="#linearGradient24"
       id="linearGradient25"
       x1="683"
       y1="403"
       x2="683"
       y2="399"
       gradientUnits="userSpaceOnUse"
       gradientTransform="matrix(0.96551724,0,0,0.96551724,-628.27584,-344.62067)" />
    <linearGradient
       inkscape:collect="always"
       xlink:href="#linearGradient20"
       id="linearGradient2"
       gradientUnits="userSpaceOnUse"
       gradientTransform="rotate(180,329.5,184.16003)"
       x1="704.77332"
       y1="415.66544"
       x2="661"
       y2="389" />
    <linearGradient
       inkscape:collect="always"
       xlink:href="#linearGradient24"
       id="linearGradient3"
       gradientUnits="userSpaceOnUse"
       gradientTransform="rotate(180,329.5,184.16003)"
       x1="679.38495"
       y1="399"
       x2="679.50958"
       y2="403" />
  </defs>
  <sodipodi:namedview
     id="namedview12"
     pagecolor="#ffffff"
     bordercolor="#000000"
     borderopacity="0.25"
     inkscape:showpageshadow="2"
     inkscape:pageopacity="0.0"
     inkscape:pagecheckerboard="0"
     inkscape:deskcolor="#d1d1d1"
     inkscape:zoom="8.3085046"
     inkscape:cx="20.460962"
     inkscape:cy="35.686326"
     inkscape:window-width="1920"
     inkscape:window-height="996"
     inkscape:window-x="0"
     inkscape:window-y="0"
     inkscape:window-maximized="1"
     inkscape:current-layer="svg12" />
  <g
     id="g4"
     transform="translate(0.82759194,2)">
    <path
       d="m 8,25.17242 c 0,-3.199738 2.59338,-5.793103 5.7931,-5.793103 h 34.75862 c 3.199721,0 5.793101,2.593365 5.793101,5.793103 v 7.72414 H 8 Z"
       id="path476"
       style="fill:#889daf;stroke-width:0.96552;fill-opacity:1" />
    <path
       d="m 8,32.89656 c 0,-1.0669 0.864138,-1.93104 1.931034,-1.93104 H 52.4138 c 1.066882,0 1.931021,0.86414 1.931021,1.93104 V 52.2069 c 0,3.19972 -2.59338,5.7931 -5.793101,5.7931 H 13.7931 C 10.59338,58 8,55.40662 8,52.2069 Z"
       id="path482"
       style="fill:url(#linearGradient21);stroke-width:0.96552" />
    <path
       d="m 21.51724,42.55172 c 0,-1.066899 0.86414,-1.931038 1.93104,-1.931038 h 15.44828 c 1.066881,0 1.93102,0.864139 1.93102,1.931038 0,1.0669 -0.864139,1.93104 -1.93102,1.93104 H 23.44828 c -1.0669,0 -1.93104,-0.86414 -1.93104,-1.93104 z"
       id="path483"
       style="fill:url(#linearGradient25);stroke-width:0.96552" />
    <g
       id="g3"
       transform="matrix(0.96551721,0,0,0.96551721,54.344821,49.001317)">
      <path
         d="m 2e-7,-22.679937 c 0,1.105 -0.895,2 -2,2 H -46 c -1.105,0 -2,-0.895 -2,-2 v -20 c 0,-3.314 2.686,-6 6,-6 h 36.0000002 c 3.314,0 6,2.686 6,6 z"
         id="path482-6"
         style="fill:url(#linearGradient2)" />
      <path
         d="m -14,-32.679937 c 0,1.105 -0.895,2 -2,2 h -16 c -1.105,0 -2,-0.895 -2,-2 0,-1.105 0.895,-2 2,-2 h 16 c 1.105,0 2,0.895 2,2 z"
         id="path483-2"
         style="fill:url(#linearGradient3)" />
    </g>
  </g>
  <path
     d="m 17.423855,17.501655 c -0.487505,0.01923 -0.928573,0.230094 -1.172794,0.558258 l -5.05517,6.814557 c -0.556218,0.748004 0.138357,1.793015 1.248938,1.792097 h 2.270365 v 10.677416 c 0,1.194427 1.15144,2.156017 2.351157,2.156017 h 0.867291 c 1.199725,0 2.371589,-0.96159 2.351158,-2.156017 V 26.666567 h 2.270373 c 1.110572,9.91e-4 1.805155,-1.044093 1.248938,-1.792097 l -5.055175,-6.814557 c -0.272072,-0.364838 -0.783719,-0.581166 -1.325081,-0.558258 z"
     fill="#ffd42b"
     id="path3"
     style="fill-rule:nonzero;stroke-width:0.92259;fill:#ffd633;fill-opacity:1" />
  <path
     d="m 46.576145,46.498345 c 0.487505,-0.01923 0.928573,-0.230094 1.172794,-0.558258 l 5.05517,-6.814557 c 0.556218,-0.748004 -0.138357,-1.793015 -1.248938,-1.792097 H 49.284806 V 26.656017 C 49.284806,25.46159 48.133366,24.5 46.933649,24.5 h -0.867291 c -1.199725,0 -2.371589,0.96159 -2.351158,2.156017 v 10.677416 h -2.270373 c -1.110572,-9.91e-4 -1.805155,1.044093 -1.248938,1.792097 l 5.055175,6.814557 c 0.272072,0.364838 0.783719,0.581166 1.325081,0.558258 z"
     fill="#ffd42b"
     id="path3-1"
     style="fill-rule:nonzero;stroke-width:0.92259;fill:#37c871" />
</svg>
