<?xml version="1.0" encoding="UTF-8" standalone="no"?>
<svg
   width="62"
   height="62"
   version="1.1"
   id="svg9"
   sodipodi:docname="bazecor.svg"
   inkscape:version="1.4 (unknown)"
   xmlns:inkscape="http://www.inkscape.org/namespaces/inkscape"
   xmlns:sodipodi="http://sodipodi.sourceforge.net/DTD/sodipodi-0.dtd"
   xmlns:xlink="http://www.w3.org/1999/xlink"
   xmlns="http://www.w3.org/2000/svg"
   xmlns:svg="http://www.w3.org/2000/svg">
  <defs
     id="defs9">
    <linearGradient
       id="linearGradient1"
       inkscape:collect="always">
      <stop
         style="stop-color:#2d3d53;stop-opacity:1;"
         offset="0"
         id="stop1" />
      <stop
         style="stop-color:#415272;stop-opacity:1;"
         offset="1"
         id="stop2" />
    </linearGradient>
    <linearGradient
       inkscape:collect="always"
       xlink:href="#linearGradient1"
       id="linearGradient2"
       x1="31"
       y1="58.017544"
       x2="29.9"
       y2="0"
       gradientUnits="userSpaceOnUse" />
  </defs>
  <sodipodi:namedview
     id="namedview9"
     pagecolor="#ffffff"
     bordercolor="#000000"
     borderopacity="0.25"
     inkscape:showpageshadow="2"
     inkscape:pageopacity="0.0"
     inkscape:pagecheckerboard="0"
     inkscape:deskcolor="#d1d1d1"
     inkscape:zoom="10"
     inkscape:cx="20.65"
     inkscape:cy="35.35"
     inkscape:window-width="1920"
     inkscape:window-height="996"
     inkscape:window-x="0"
     inkscape:window-y="0"
     inkscape:window-maximized="1"
     inkscape:current-layer="svg9" />
  <rect
     style="opacity:0.2;stroke-width:0.9823"
     width="55"
     height="55.017544"
     x="3.5"
     y="3.9824562"
     ry="8.2526312"
     id="rect1" />
  <rect
     style="fill:url(#linearGradient2);fill-opacity:1;stroke-width:0.9823"
     width="55"
     height="55.017544"
     x="3.5"
     y="3"
     ry="8.2526312"
     id="rect2" />
  <path
     style="opacity:0.1;fill:#ffffff;stroke-width:0.9823"
     d="M 11.748466,3 C 7.1779651,3 3.4999999,6.6791384 3.4999999,11.251097 v 0.982456 c 0,-4.5719585 3.6779652,-8.2510968 8.2484661,-8.2510968 h 38.503068 c 4.5705,0 8.248466,3.6791383 8.248466,8.2510968 V 11.251097 C 58.5,6.6791384 54.822034,3 50.251534,3 Z"
     id="path9" />
  <g
     id="g1"
     transform="translate(-1.2,-3.2335526)">
    <path
       style="opacity:0.1"
       class="st0"
       d="m 32.2,12.233553 c -0.469274,0 -0.938972,0.08009 -1.369141,0.240234 L 26.998828,13.835115 14.875781,18.239412 11.2,19.600741 c 1.486033,4.003557 3.598594,7.685824 6.257812,10.888671 0.39106,0.400358 0.702689,0.880895 1.09375,1.28125 0.860335,0.880784 1.721697,1.761789 2.582032,2.5625 l -1.095703,-4.884765 -0.390625,-2.082032 -0.861328,-4.001953 13.375,-5.125 c 2.893854,-1.040926 6.099936,-1.68164 9.30664,-1.68164 h 0.15625 c 0.547485,0 1.173216,-2e-6 1.720703,0.08008 0.782122,0.08008 1.56562,0.160164 2.269531,0.240234 L 43.266406,15.997225 41.311328,15.276522 36.932422,13.674959 33.569141,12.473787 C 33.138973,12.313645 32.669274,12.233553 32.2,12.233553 Z m 9.423828,5.445312 c -2.581007,0.08008 -5.083317,0.560617 -7.429687,1.361329 l 7.822265,2.96289 1.798828,0.720703 1.642578,0.640625 -2.738281,12.490235 C 41.624559,41.379559 39.669765,46.58358 37.010547,51.38785 l 5.083984,-5.923828 1.798828,-2.082031 0.234375,-0.240235 2.658204,-3.123047 c 0.391061,-0.480427 0.704903,-0.960993 0.861328,-1.601562 l 0.9375,-3.203125 L 53.2,19.520662 c -2.893855,-1.281139 -6.336091,-1.761725 -9.699219,-1.841797 h -0.625 z m -28.46875,8.726563 2.111328,7.287109 0.234375,0.88086 0.705078,2.482422 0.46875,1.521484 c 0.156423,0.560499 0.470267,1.121137 0.861329,1.601562 0.391061,0.400357 0.858677,1.041079 1.484374,1.761719 0.391063,0.480427 0.860805,1.041066 1.330079,1.601563 4.4581,5.204626 11.575909,13.451193 11.810547,13.691406 3.754188,-5.364769 6.648556,-11.690023 8.291015,-18.255859 l -3.912109,3.283203 -2.111328,1.841797 -2.267578,1.841797 -10.246094,-8.56836 C 20.428812,36.175062 19.099922,34.813499 17.770312,33.292147 17.379251,32.89179 16.987457,32.411246 16.674609,31.930819 15.345,30.169253 14.171838,28.327136 13.155078,26.405428 Z"
       id="path2" />
    <path
       style="fill:#a50b3e"
       class="st0"
       d="m 45.456984,22.363446 -2.73743,12.491103 c -1.094972,5.524912 -3.05028,10.729537 -5.709498,15.533807 l 5.083799,-5.925266 1.798882,-2.081851 v 0 0 l 0.234637,-0.240213 2.659218,-3.122776 c 0.391062,-0.480427 0.703911,-0.960854 0.860336,-1.601423 l 0.938547,-3.202847 v 0 L 53.2,18.52003 Z"
       id="path3" />
    <path
       style="fill:#dd465e;fill-opacity:1"
       class="st1"
       d="m 43.501676,16.678392 h -0.625699 -1.251395 c -2.581007,0.08008 -5.083799,0.560499 -7.430169,1.361211 l 7.821229,2.962633 1.798883,0.720641 1.642459,0.640569 L 53.2,18.52003 c -2.893855,-1.281139 -6.335196,-1.761566 -9.698324,-1.841638 z"
       id="path4" />
    <path
       style="fill:#d32742"
       class="st2"
       d="m 18.786592,22.363446 13.374302,-5.124555 v 0 c 2.893854,-1.040926 6.100559,-1.681495 9.307263,-1.681495 h 0.156425 c 0.547485,0 1.173183,0 1.72067,0.08008 0.782122,0.08008 1.564245,0.160143 2.268156,0.240213 l -2.346369,-0.880793 -1.955307,-0.720639 -4.379889,-1.601424 -3.363127,-1.201067 c -0.860335,-0.320285 -1.877095,-0.320285 -2.737432,0 l -3.832402,1.36121 -12.122905,4.403915 v 0 L 11.2,18.600101 Z"
       id="path5" />
    <path
       style="fill:#8800aa"
       class="st3"
       d="m 17.456984,29.489779 c 0.39106,0.400358 0.70391,0.880784 1.094972,1.281139 0.860335,0.880784 1.72067,1.761567 2.581005,2.562278 L 20.037989,28.448855 19.646928,26.367004 18.786592,22.363446 11.2,18.600101 c 1.486033,4.003558 3.597765,7.686831 6.256984,10.889678 z"
       id="path6" />
    <path
       style="fill:#8800aa"
       class="st4"
       d="M 32.160894,44.943517 21.915083,36.375902 c -1.486032,-1.201069 -2.815642,-2.562278 -4.145251,-4.08363 -0.391061,-0.400357 -0.782123,-0.880784 -1.094971,-1.361211 -1.329609,-1.761566 -2.502794,-3.603202 -3.519554,-5.52491 l 2.111732,7.286475 v 0 l 0.234637,0.880784 0.703911,2.482207 0.469274,1.521352 c 0.156423,0.560499 0.469273,1.120997 0.860335,1.601423 0.391061,0.400357 0.860335,1.040926 1.486033,1.761566 0.391062,0.480427 0.860335,1.040927 1.329609,1.601424 v 0 c 4.4581,5.204626 11.575419,13.451958 11.810056,13.692171 z"
       id="path7" />
    <path
       style="fill:#a50b3e"
       class="st5"
       d="m 36.540783,41.260243 -2.111732,1.841638 -2.268157,1.841636 v 11.290036 c 3.754189,-5.364769 6.648044,-11.690391 8.290503,-18.256227 z"
       id="path8" />
  </g>
</svg>
