<?xml version="1.0" encoding="UTF-8" standalone="no"?>
<svg
   width="62"
   height="62"
   version="1.1"
   id="svg5"
   sodipodi:docname="bbc.svg"
   inkscape:version="1.4 (unknown)"
   xmlns:inkscape="http://www.inkscape.org/namespaces/inkscape"
   xmlns:sodipodi="http://sodipodi.sourceforge.net/DTD/sodipodi-0.dtd"
   xmlns:xlink="http://www.w3.org/1999/xlink"
   xmlns="http://www.w3.org/2000/svg"
   xmlns:svg="http://www.w3.org/2000/svg">
  <defs
     id="defs5">
    <linearGradient
       id="linearGradient1"
       inkscape:collect="always">
      <stop
         style="stop-color:#a02c5a;stop-opacity:1"
         offset="0"
         id="stop1" />
      <stop
         style="stop-color:#344a65;stop-opacity:1;"
         offset="0.49983767"
         id="stop5" />
      <stop
         style="stop-color:#c83771;stop-opacity:1"
         offset="1"
         id="stop2" />
    </linearGradient>
    <linearGradient
       id="paint1_linear_54_1200"
       x1="16"
       y1="26"
       x2="16"
       y2="6"
       gradientUnits="userSpaceOnUse"
       gradientTransform="matrix(3.0397983,0,0,3.0420943,35.820936,133.83376)">
      <stop
         stop-color="#5570FF"
         id="stop3" />
      <stop
         offset="1"
         stop-color="#4DD3FF"
         id="stop4" />
    </linearGradient>
    <linearGradient
       inkscape:collect="always"
       xlink:href="#linearGradient1"
       id="linearGradient2"
       x1="30.072977"
       y1="59.017544"
       x2="29.481283"
       y2="4.9824562"
       gradientUnits="userSpaceOnUse" />
  </defs>
  <sodipodi:namedview
     id="namedview5"
     pagecolor="#ffffff"
     bordercolor="#000000"
     borderopacity="0.25"
     inkscape:showpageshadow="2"
     inkscape:pageopacity="0.0"
     inkscape:pagecheckerboard="0"
     inkscape:deskcolor="#d1d1d1"
     inkscape:zoom="8.2643105"
     inkscape:cx="-0.36300669"
     inkscape:cy="50.760435"
     inkscape:window-width="1920"
     inkscape:window-height="996"
     inkscape:window-x="0"
     inkscape:window-y="0"
     inkscape:window-maximized="1"
     inkscape:current-layer="svg5" />
  <rect
     style="opacity:0.2;stroke-width:0.9823"
     width="55"
     height="55.017544"
     x="4"
     y="4.9824562"
     rx="8.25"
     ry="8.2526312"
     id="rect1" />
  <rect
     style="fill:url(#linearGradient2);stroke-width:0.9823;fill-opacity:1"
     width="55"
     height="55.017544"
     x="4"
     y="4"
     rx="8.25"
     ry="8.2526312"
     id="rect2" />
  <path
     style="opacity:0.1;fill:#ffffff;stroke-width:0.9823"
     d="M 12.248466,4 C 7.6779652,4 4,7.6791384 4,12.251097 v 0.982456 C 4,8.6615945 7.6779652,4.9824561 12.248466,4.9824561 H 50.751534 C 55.322034,4.9824561 59,8.6615945 59,13.233553 V 12.251097 C 59,7.6791384 55.322034,4 50.751534,4 Z"
     id="path4" />
  <g
     id="g1"
     transform="translate(6.5003003,-4.499943)">
    <g
       style="opacity:0.2"
       transform="matrix(1.9999714,0,0,1.9999714,-5.999857,3.5091723)"
       id="g5">
      <g
         transform="translate(-8)"
         id="g2">
        <path
           transform="translate(8)"
           d="m 4,13 v 7 h 7 v -7 z m 1,1 h 4 v 2 h 1 v 3 H 5 Z m 1,1 v 1 h 2 v -1 z m 0,2 v 1 h 3 v -1 z"
           id="path2" />
      </g>
      <path
         d="m 20,13 v 7 h 7 v -7 z m 1,1 h 5 v 1 h -4 v 3 h 4 v 1 h -5 z"
         id="path3" />
      <g
         id="g4">
        <path
           transform="translate(8)"
           d="m 4,13 v 7 h 7 v -7 z m 1,1 h 4 v 2 h 1 v 3 H 5 Z m 1,1 v 1 h 2 v -1 z m 0,2 v 1 h 3 v -1 z"
           id="path4-3" />
      </g>
    </g>
    <g
       style="fill:#ffffff"
       transform="matrix(1.9999714,0,0,1.9999714,-5.999857,2.5092013)"
       id="g8">
      <g
         transform="translate(-8)"
         id="g6">
        <path
           transform="translate(8)"
           d="m 4,13 v 7 h 7 v -7 z m 1,1 h 4 v 2 h 1 v 3 H 5 Z m 1,1 v 1 h 2 v -1 z m 0,2 v 1 h 3 v -1 z"
           id="path5-6" />
      </g>
      <path
         d="m 20,13 v 7 h 7 v -7 z m 1,1 h 5 v 1 h -4 v 3 h 4 v 1 h -5 z"
         id="path6-7" />
      <g
         id="g7">
        <path
           transform="translate(8)"
           d="m 4,13 v 7 h 7 v -7 z m 1,1 h 4 v 2 h 1 v 3 H 5 Z m 1,1 v 1 h 2 v -1 z m 0,2 v 1 h 3 v -1 z"
           id="path7" />
      </g>
    </g>
  </g>
</svg>
