<?xml version="1.0" encoding="UTF-8" standalone="no"?>
<svg
   width="62"
   height="62"
   viewBox="0 0 16.404166 16.404167"
   version="1.1"
   id="svg1443"
   inkscape:version="1.4 (unknown)"
   sodipodi:docname="beeref.svg"
   xmlns:inkscape="http://www.inkscape.org/namespaces/inkscape"
   xmlns:sodipodi="http://sodipodi.sourceforge.net/DTD/sodipodi-0.dtd"
   xmlns:xlink="http://www.w3.org/1999/xlink"
   xmlns="http://www.w3.org/2000/svg"
   xmlns:svg="http://www.w3.org/2000/svg"
   xmlns:rdf="http://www.w3.org/1999/02/22-rdf-syntax-ns#"
   xmlns:cc="http://creativecommons.org/ns#"
   xmlns:dc="http://purl.org/dc/elements/1.1/">
  <defs
     id="defs1437">
    <linearGradient
       gradientTransform="matrix(0.4711726,0,0,0.47114666,-53.953909,-18.000765)"
       gradientUnits="userSpaceOnUse"
       y2="70.679932"
       x2="132.21078"
       y1="42.151531"
       x1="132.21078"
       id="linearGradient1632"
       xlink:href="#linearGradient1630"
       inkscape:collect="always" />
    <linearGradient
       id="linearGradient1630"
       inkscape:collect="always">
      <stop
         id="stop1626"
         offset="0"
         style="stop-color:#fafafc;stop-opacity:1" />
      <stop
         id="stop1628"
         offset="1"
         style="stop-color:#e2e6ea;stop-opacity:1" />
    </linearGradient>
    <filter
       color-interpolation-filters="sRGB"
       height="1.1311001"
       width="1.1106"
       y="-0.065563001"
       x="-0.055319"
       id="c-9">
      <feGaussianBlur
         id="feGaussianBlur1093"
         stdDeviation="1.1062912" />
    </filter>
    <linearGradient
       gradientUnits="userSpaceOnUse"
       gradientTransform="matrix(0.13235,0,0,0.13075,-32.379,1.0873)"
       y2="269.48999"
       y1="235.14999"
       x2="657.65002"
       x1="319.20999"
       id="a-12">
      <stop
         id="stop1076"
         offset="0"
         stop-color="#e54c18" />
      <stop
         id="stop1078"
         offset="1"
         stop-color="#fec350" />
    </linearGradient>
    <linearGradient
       xlink:href="#a-7"
       id="c-36"
       x1="8.6850004"
       x2="8.7620001"
       y1="16.868999"
       y2="4.5339999"
       gradientTransform="matrix(1.0634748,0,0,1.0634748,-0.80999368,1.8113865)"
       gradientUnits="userSpaceOnUse" />
    <linearGradient
       id="a-7">
      <stop
         offset="0"
         style="stop-color:#2369ff;stop-opacity:1;"
         id="stop8" />
      <stop
         offset="1"
         style="stop-color:#7fa8ff;stop-opacity:1"
         id="stop10" />
    </linearGradient>
  </defs>
  <sodipodi:namedview
     id="base"
     pagecolor="#ffffff"
     bordercolor="#666666"
     borderopacity="1.0"
     inkscape:pageopacity="0.0"
     inkscape:pageshadow="2"
     inkscape:zoom="11.2"
     inkscape:cx="25.133929"
     inkscape:cy="32.098214"
     inkscape:document-units="px"
     inkscape:current-layer="layer1"
     inkscape:document-rotation="0"
     showgrid="false"
     units="px"
     inkscape:window-width="1920"
     inkscape:window-height="996"
     inkscape:window-x="0"
     inkscape:window-y="0"
     inkscape:window-maximized="1"
     inkscape:showpageshadow="2"
     inkscape:pagecheckerboard="0"
     inkscape:deskcolor="#d1d1d1">
    <inkscape:grid
       id="grid1"
       units="px"
       originx="0"
       originy="0"
       spacingx="0.26458332"
       spacingy="0.26458334"
       empcolor="#0099e5"
       empopacity="0.30196078"
       color="#0099e5"
       opacity="0.14901961"
       empspacing="5"
       enabled="true"
       visible="false" />
  </sodipodi:namedview>
  <metadata
     id="metadata1440">
    <rdf:RDF>
      <cc:Work
         rdf:about="">
        <dc:format>image/svg+xml</dc:format>
        <dc:type
           rdf:resource="http://purl.org/dc/dcmitype/StillImage" />
      </cc:Work>
    </rdf:RDF>
  </metadata>
  <g
     inkscape:label="Capa 1"
     inkscape:groupmode="layer"
     id="layer1">
    <g
       style="opacity:0.295"
       transform="matrix(0.47117252,0,0,0.47114656,-31.727411,-18.000764)"
       id="g1702">
      <rect
         ry="6.6098609"
         rx="6.6098609"
         y="40.709618"
         x="69.839508"
         height="29.810888"
         width="29.810888"
         id="rect1634"
         style="fill:none;fill-opacity:1;stroke:#000000;stroke-width:0.1;stroke-linecap:round;stroke-linejoin:round;stroke-miterlimit:4;stroke-dasharray:none;stroke-opacity:0.02" />
      <rect
         style="fill:none;fill-opacity:1;stroke:#000000;stroke-width:0.2;stroke-linecap:round;stroke-linejoin:round;stroke-miterlimit:4;stroke-dasharray:none;stroke-opacity:0.02"
         id="rect1638"
         width="29.810888"
         height="29.810888"
         x="69.839508"
         y="40.709618"
         rx="6.6098609"
         ry="6.6098609" />
      <rect
         ry="6.6098609"
         rx="6.6098609"
         y="40.709618"
         x="69.839508"
         height="29.810888"
         width="29.810888"
         id="rect1640"
         style="fill:none;fill-opacity:1;stroke:#000000;stroke-width:0.3;stroke-linecap:round;stroke-linejoin:round;stroke-miterlimit:4;stroke-dasharray:none;stroke-opacity:0.02" />
      <rect
         style="fill:none;fill-opacity:1;stroke:#000000;stroke-width:0.4;stroke-linecap:round;stroke-linejoin:round;stroke-miterlimit:4;stroke-dasharray:none;stroke-opacity:0.02"
         id="rect1642"
         width="29.810888"
         height="29.810888"
         x="69.839508"
         y="40.709618"
         rx="6.6098609"
         ry="6.6098609" />
      <rect
         ry="6.6098609"
         rx="6.6098609"
         y="40.709618"
         x="69.839508"
         height="29.810888"
         width="29.810888"
         id="rect1644"
         style="fill:none;fill-opacity:1;stroke:#000000;stroke-width:0.5;stroke-linecap:round;stroke-linejoin:round;stroke-miterlimit:4;stroke-dasharray:none;stroke-opacity:0.02" />
      <rect
         style="fill:none;fill-opacity:1;stroke:#000000;stroke-width:0.6;stroke-linecap:round;stroke-linejoin:round;stroke-miterlimit:4;stroke-dasharray:none;stroke-opacity:0.02"
         id="rect1646"
         width="29.810888"
         height="29.810888"
         x="69.839508"
         y="40.709618"
         rx="6.6098609"
         ry="6.6098609" />
      <rect
         ry="6.6098609"
         rx="6.6098609"
         y="40.709618"
         x="69.839508"
         height="29.810888"
         width="29.810888"
         id="rect1648"
         style="fill:none;fill-opacity:1;stroke:#000000;stroke-width:0.7;stroke-linecap:round;stroke-linejoin:round;stroke-miterlimit:4;stroke-dasharray:none;stroke-opacity:0.02" />
      <rect
         style="fill:none;fill-opacity:1;stroke:#000000;stroke-width:0.8;stroke-linecap:round;stroke-linejoin:round;stroke-miterlimit:4;stroke-dasharray:none;stroke-opacity:0.02"
         id="rect1650"
         width="29.810888"
         height="29.810888"
         x="69.839508"
         y="40.709618"
         rx="6.6098609"
         ry="6.6098609" />
      <rect
         ry="6.6098609"
         rx="6.6098609"
         y="40.709618"
         x="69.839508"
         height="29.810888"
         width="29.810888"
         id="rect1652"
         style="fill:none;fill-opacity:1;stroke:#000000;stroke-width:1;stroke-linecap:round;stroke-linejoin:round;stroke-miterlimit:4;stroke-dasharray:none;stroke-opacity:0.02" />
      <rect
         style="fill:none;fill-opacity:1;stroke:#000000;stroke-width:1.2;stroke-linecap:round;stroke-linejoin:round;stroke-miterlimit:4;stroke-dasharray:none;stroke-opacity:0.02"
         id="rect1654"
         width="29.810888"
         height="29.810888"
         x="69.839508"
         y="40.709618"
         rx="6.6098609"
         ry="6.6098609" />
      <rect
         ry="6.6098609"
         rx="6.6098609"
         y="40.709618"
         x="69.839508"
         height="29.810888"
         width="29.810888"
         id="rect1656"
         style="fill:none;fill-opacity:1;stroke:#000000;stroke-width:1.4;stroke-linecap:round;stroke-linejoin:round;stroke-miterlimit:4;stroke-dasharray:none;stroke-opacity:0.02" />
      <rect
         style="fill:none;fill-opacity:1;stroke:#000000;stroke-width:1.6;stroke-linecap:round;stroke-linejoin:round;stroke-miterlimit:4;stroke-dasharray:none;stroke-opacity:0.02"
         id="rect1658"
         width="29.810888"
         height="29.810888"
         x="69.839508"
         y="40.709618"
         rx="6.6098609"
         ry="6.6098609" />
      <rect
         ry="6.6098609"
         rx="6.6098609"
         y="40.709618"
         x="69.839508"
         height="29.810888"
         width="29.810888"
         id="rect1660"
         style="fill:none;fill-opacity:1;stroke:#000000;stroke-width:1.8;stroke-linecap:round;stroke-linejoin:round;stroke-miterlimit:4;stroke-dasharray:none;stroke-opacity:0.02" />
      <rect
         style="fill:none;fill-opacity:1;stroke:#000000;stroke-width:2;stroke-linecap:round;stroke-linejoin:round;stroke-miterlimit:4;stroke-dasharray:none;stroke-opacity:0.02"
         id="rect1662"
         width="29.810888"
         height="29.810888"
         x="69.839508"
         y="40.709618"
         rx="6.6098609"
         ry="6.6098609" />
      <rect
         ry="6.6098609"
         rx="6.6098609"
         y="40.709618"
         x="69.839508"
         height="29.810888"
         width="29.810888"
         id="rect1664"
         style="fill:none;fill-opacity:1;stroke:#000000;stroke-width:2.2;stroke-linecap:round;stroke-linejoin:round;stroke-miterlimit:4;stroke-dasharray:none;stroke-opacity:0.02" />
      <rect
         style="fill:none;fill-opacity:1;stroke:#000000;stroke-width:2.6;stroke-linecap:round;stroke-linejoin:round;stroke-miterlimit:4;stroke-dasharray:none;stroke-opacity:0.02"
         id="rect1666"
         width="29.810888"
         height="29.810888"
         x="69.839508"
         y="40.709618"
         rx="6.6098609"
         ry="6.6098609" />
      <rect
         ry="6.6098609"
         rx="6.6098609"
         y="40.709618"
         x="69.839508"
         height="29.810888"
         width="29.810888"
         id="rect1668"
         style="fill:none;fill-opacity:1;stroke:#000000;stroke-width:3;stroke-linecap:round;stroke-linejoin:round;stroke-miterlimit:4;stroke-dasharray:none;stroke-opacity:0.02" />
      <rect
         style="fill:none;fill-opacity:1;stroke:#000000;stroke-width:3.4;stroke-linecap:round;stroke-linejoin:round;stroke-miterlimit:4;stroke-dasharray:none;stroke-opacity:0.02"
         id="rect1670"
         width="29.810888"
         height="29.810888"
         x="69.839508"
         y="40.709618"
         rx="6.6098609"
         ry="6.6098609" />
      <rect
         ry="6.6098609"
         rx="6.6098609"
         y="40.709618"
         x="69.839508"
         height="29.810888"
         width="29.810888"
         id="rect1672"
         style="fill:none;fill-opacity:1;stroke:#000000;stroke-width:3.8;stroke-linecap:round;stroke-linejoin:round;stroke-miterlimit:4;stroke-dasharray:none;stroke-opacity:0.02" />
      <rect
         style="fill:none;fill-opacity:1;stroke:#000000;stroke-width:4.2;stroke-linecap:round;stroke-linejoin:round;stroke-miterlimit:4;stroke-dasharray:none;stroke-opacity:0.02"
         id="rect1674"
         width="29.810888"
         height="29.810888"
         x="69.839508"
         y="40.709618"
         rx="6.6098609"
         ry="6.6098609" />
      <rect
         ry="6.6098609"
         rx="6.6098609"
         y="40.709618"
         x="69.839508"
         height="29.810888"
         width="29.810888"
         id="rect1676"
         style="fill:none;fill-opacity:1;stroke:#000000;stroke-width:4.6;stroke-linecap:round;stroke-linejoin:round;stroke-miterlimit:4;stroke-dasharray:none;stroke-opacity:0.02" />
      <rect
         style="fill:none;fill-opacity:1;stroke:#000000;stroke-width:5;stroke-linecap:round;stroke-linejoin:round;stroke-miterlimit:4;stroke-dasharray:none;stroke-opacity:0.02"
         id="rect1678"
         width="29.810888"
         height="29.810888"
         x="69.839508"
         y="40.709618"
         rx="6.6098609"
         ry="6.6098609" />
    </g>
    <rect
       ry="3.1142132"
       rx="3.1143851"
       y="1.1794344"
       x="1.1790471"
       height="14.045296"
       width="14.04607"
       id="rect849"
       style="fill:url(#linearGradient1632);fill-opacity:1;stroke-width:1.29783;stroke-linecap:round;stroke-linejoin:round" />
    <g
       id="g1"
       transform="matrix(0.79149921,0,0,0.79724386,1.4161474,-11.906602)">
      <path
         fill-rule="evenodd"
         d="m 1.9984344,22.879622 1.7679458,-0.99351 1.7859375,1.002241 0.00159,2.084123 -1.7769416,0.993511 -1.7859375,-1.019969 z"
         id="path6"
         style="stroke-width:0.264583;fill:#cd87de;fill-opacity:1" />
      <path
         fill="none"
         stroke-linecap="round"
         stroke-linejoin="round"
         stroke-width="0.123031"
         d="m 5.5277114,24.984912 -0.8318499,0.483393 -0.95885,0.543719 -0.8344959,-0.478896 -0.9503833,-0.558271 -0.00265,-0.962289 0.00847,-1.102254 0.83185,-0.483394 0.95885,-0.543719 0.8344959,0.478896 0.9503833,0.558271 0.00265,0.962289 z"
         id="path7"
         style="stroke:#c433ff;stroke-opacity:1" />
      <path
         fill-rule="evenodd"
         d="m 7.3104739,19.828976 1.7679458,-0.99351 1.7859373,1.002241 0.0013,2.084123 -1.7766768,0.993511 -1.7859375,-1.019969 z"
         id="path8"
         style="stroke-width:0.264583;fill:#33d5ff;fill-opacity:1" />
      <path
         fill="none"
         stroke-linecap="round"
         stroke-linejoin="round"
         stroke-width="0.123031"
         d="m 10.858272,21.901722 -0.83185,0.483394 -0.9588502,0.543718 -0.8344958,-0.478895 -0.9503833,-0.558271 -0.00265,-0.96229 0.00847,-1.102254 0.83185,-0.483394 0.95885,-0.543718 0.8344958,0.478895 0.9503835,0.558271 0.0027,0.96229 z"
         id="path9"
         style="stroke:#3854e1;stroke-opacity:1" />
      <path
         fill-rule="evenodd"
         d="m 3.7478594,19.813101 1.7679458,-0.99351 1.7859375,1.002241 0.00159,2.084123 -1.7769417,0.993511 -1.7859374,-1.019969 z"
         id="path10"
         style="stroke-width:0.264583;fill:#7466ff;fill-opacity:1" />
      <path
         fill="none"
         stroke-linecap="round"
         stroke-linejoin="round"
         stroke-width="0.123031"
         d="m 7.3030656,21.907278 -0.83185,0.483394 -0.95885,0.543719 -0.8344958,-0.478896 -0.9503833,-0.558271 -0.00265,-0.96229 0.00847,-1.102254 0.83185,-0.483393 0.95885,-0.543719 0.8344958,0.478896 0.9503833,0.558271 0.00265,0.962289 z"
         id="path11"
         style="stroke:#6000e5;stroke-opacity:1" />
      <path
         fill-rule="evenodd"
         d="m 9.1353052,22.900789 1.7679458,-0.993511 1.785938,1.002242 0.0016,2.084123 -1.776942,0.99351 -1.7859372,-1.019969 z"
         id="path12"
         style="stroke-width:0.264583;fill:#8cff66;fill-opacity:1" />
      <path
         fill="none"
         stroke-linecap="round"
         stroke-linejoin="round"
         stroke-width="0.123031"
         d="m 12.683103,24.974064 -0.83185,0.483393 -0.95885,0.543719 -0.834496,-0.478896 -0.9503831,-0.558271 -0.00265,-0.962289 0.00847,-1.102254 0.83185,-0.483394 0.9588501,-0.543719 0.83476,0.478896 0.950119,0.558271 0.0026,0.962289 z"
         id="path13"
         style="stroke:#27a56d;stroke-opacity:1" />
      <path
         fill-rule="evenodd"
         d="m 3.7597656,25.977893 1.7679458,-0.993511 1.7859375,1.002242 0.00159,2.084123 -1.7769416,0.99351 -1.7859375,-1.019968 z"
         id="path14"
         style="stroke-width:0.264583;fill:#ffa366;fill-opacity:1" />
      <path
         fill="none"
         stroke-linecap="round"
         stroke-linejoin="round"
         stroke-width="0.123031"
         d="m 7.3279364,28.054872 -0.83185,0.483394 -0.95885,0.543718 -0.8344958,-0.478895 -0.9503833,-0.558271 -0.00265,-0.96229 0.00847,-1.102254 0.83185,-0.483394 0.95885,-0.543718 0.8344958,0.478895 0.9503834,0.558271 0.00265,0.96229 z"
         id="path15"
         style="stroke:#ca355d;stroke-opacity:1" />
      <path
         fill-rule="evenodd"
         d="m 5.5613135,22.90608 1.7420167,-0.99986 1.8118666,1.008592 0.6514042,2.471737 -2.2158854,1.16549 -2.0015729,-1.599936 z"
         id="path16"
         style="stroke-width:0.264583" />
      <path
         fill="none"
         stroke-linecap="round"
         stroke-width="0.123031"
         d="m 6.3989844,21.037064 c 0,0 -0.072496,-0.629709 -0.046831,-1.244071 0.8874125,-0.964936 1.8102791,-1.146175 1.8102791,-1.146175 m -2.894277,2.950104 c 0,0 -0.4119562,-0.282046 -0.9577917,-0.565679 -1.5832666,-0.05874 -2.1743458,0.406664 -2.1743458,0.406664"
         id="path17"
         style="stroke:#5e3b4c;stroke-opacity:1" />
      <path
         fill-rule="evenodd"
         d="m 6.7254802,22.659489 c 0,0 0.3241146,-0.07514 0.8691562,-0.372534 0.3233209,-0.176477 0.8001,-0.241829 0.3828521,-0.854339 -0.365125,-0.536046 -1.3335,-0.694531 -2.1624396,-0.157957 -0.8551333,0.493713 -1.1551708,1.427957 -0.8440208,1.997075 0.3550709,0.650346 0.6305021,0.255588 0.9347729,0.04815 0.5127625,-0.34978 0.7276042,-0.604044 0.7276042,-0.604044"
         id="path18"
         style="stroke-width:0.264583;fill:#6b5848;fill-opacity:1" />
      <path
         fill="none"
         stroke-width="0.123031"
         d="m 6.7254802,22.659489 c 0,0 0.3241146,-0.07514 0.8691562,-0.372534 0.3233209,-0.176477 0.8001,-0.241829 0.3828521,-0.854339 -0.365125,-0.536046 -1.3335,-0.694531 -2.1624396,-0.157957 -0.8551333,0.493713 -1.1551708,1.427957 -0.8440208,1.997075 0.3550709,0.650346 0.6305021,0.255588 0.9347729,0.04815 0.5127625,-0.34978 0.7276042,-0.604044 0.7276042,-0.604044"
         id="path19"
         style="stroke:#4f313f;stroke-opacity:1" />
      <path
         fill-rule="evenodd"
         d="m 6.6603927,22.697059 c -0.682625,0.466196 -1.1755438,1.169988 -0.8646583,1.739107 0.3550708,0.650346 0.8405812,0.885296 1.2078229,0.914135 0.6461125,0.0508 1.0866437,-0.212196 1.1324166,-0.240771 0.046567,-0.02778 0.4812771,-0.300302 0.73025,-0.898525 0.1415521,-0.339989 0.1534583,-0.87921 -0.2637896,-1.491721 -0.365125,-0.536045 -1.216025,-0.417512 -1.9420416,-0.02223"
         id="path20"
         style="stroke-width:0.264583;fill:#89725d;fill-opacity:1" />
      <path
         fill="none"
         stroke="#4a2e3b"
         stroke-width="0.123031"
         d="m 6.6334052,22.715845 c -0.6683375,0.466196 -1.1443229,1.158875 -0.8376708,1.720321 0.3553354,0.650346 0.8408458,0.885296 1.2080874,0.914135 0.560123,0.04419 0.9657292,-0.147637 1.0935229,-0.218281 0.1217084,-0.0807 0.479425,-0.351367 0.699823,-0.868363 C 8.9416302,23.924991 8.9580343,23.38577 8.5460781,22.76982 8.1904781,22.238007 7.3559823,22.339343 6.6334052,22.71585 Z"
         id="path21" />
      <path
         fill-rule="evenodd"
         d="m 7.842551,24.77933 c -1.0493375,0.713052 -0.9183687,1.664494 -0.3249083,2.913063 0.630502,1.326621 1.6451791,1.840971 2.2359937,2.032 0.5942546,0.192087 1.0398126,0.03096 1.1138956,7.93e-4 0.06085,-0.05239 0.407458,-0.375708 0.506942,-0.992187 0.09895,-0.61304 0.103187,-1.750483 -0.790575,-2.915708 C 9.7427885,24.720064 8.9553885,24.170259 7.8428156,24.779595 Z"
         id="path22"
         style="stroke-width:0.264583;fill:#7a6552;fill-opacity:1" />
      <path
         fill-rule="evenodd"
         d="m 8.1320052,28.577159 c 1.4753166,0.05556 2.3497648,-0.15875 3.0752518,-1.706562 0,0 0.185209,0.893233 0.188384,1.530879 -0.637646,0.796396 -1.112044,1.051719 -2.4243775,0.981604 C 8.3071593,29.019543 8.1320052,28.577159 8.1320052,28.577159 M 7.0824031,26.470812 c 1.3626041,-0.06509 2.276475,-0.597165 2.7492854,-1.513417 0,0 0.4569355,0.467519 0.9498545,1.175014 -0.7747,1.221053 -1.5499295,1.618721 -3.2273878,1.722702 C 7.0649406,26.904199 7.0824031,26.470812 7.0824031,26.470812"
         id="path23"
         style="stroke-width:0.264583;fill:#e5c300;fill-opacity:1" />
      <path
         fill="none"
         stroke-width="0.123031"
         d="m 7.842551,24.77933 c -1.0493375,0.713052 -0.9183687,1.664494 -0.3249083,2.913063 0.630502,1.326621 1.6451791,1.840971 2.2359937,2.032 0.5942546,0.192087 1.0398126,0.03096 1.1138956,7.93e-4 0.06085,-0.05239 0.407458,-0.375708 0.506942,-0.992187 0.09895,-0.61304 0.103187,-1.750483 -0.790575,-2.915708 C 9.7427885,24.720064 8.9553885,24.170259 7.8428156,24.779595 Z"
         id="path24"
         style="stroke:#5f3b4c;stroke-opacity:1" />
      <path
         fill-rule="evenodd"
         stroke="#7d7967"
         stroke-width="0.123031"
         d="m 5.7592219,23.448212 c -0.4773084,0.224102 -1.0752667,8.021902 -0.4561417,8.300243 0.3069167,0.137848 1.5107708,0.0019 2.2039791,-0.532606 C 8.2002677,30.681391 8.3828302,29.74847 8.4283385,29.34842 8.5193552,28.548055 6.2365302,23.224109 5.7592219,23.448212 Z M 7.706026,22.297803 c 0.4265083,-0.310356 7.545917,2.926556 7.491148,3.603096 -0.02725,0.335492 -0.72681,1.324504 -1.529292,1.674019 -0.802481,0.349514 -1.707885,0.05953 -2.080418,-0.09366 -0.745067,-0.306123 -4.3082109,-4.87336 -3.881438,-5.183187 z"
         id="path25"
         style="fill:#c8beb7;fill-opacity:1;stroke:#545145;stroke-opacity:1" />
    </g>
  </g>
</svg>
