<?xml version="1.0" encoding="UTF-8" standalone="no"?>
<svg
   width="62"
   height="62"
   version="1"
   id="svg11"
   sodipodi:docname="bespoke_icon.svg"
   inkscape:version="1.4 (unknown)"
   xmlns:inkscape="http://www.inkscape.org/namespaces/inkscape"
   xmlns:sodipodi="http://sodipodi.sourceforge.net/DTD/sodipodi-0.dtd"
   xmlns="http://www.w3.org/2000/svg"
   xmlns:svg="http://www.w3.org/2000/svg">
  <defs
     id="defs11" />
  <sodipodi:namedview
     id="namedview11"
     pagecolor="#ffffff"
     bordercolor="#000000"
     borderopacity="0.25"
     inkscape:showpageshadow="2"
     inkscape:pageopacity="0.0"
     inkscape:pagecheckerboard="0"
     inkscape:deskcolor="#d1d1d1"
     inkscape:zoom="12.078125"
     inkscape:cx="31.958603"
     inkscape:cy="32"
     inkscape:window-width="1920"
     inkscape:window-height="996"
     inkscape:window-x="0"
     inkscape:window-y="0"
     inkscape:window-maximized="1"
     inkscape:current-layer="svg11" />
  <g
     id="g11"
     transform="translate(-1,-1.0000002)">
    <rect
       style="opacity:0.2;stroke-width:0.982758"
       width="58"
       height="49.12281"
       x="3"
       y="4.9824572"
       rx="2.7623732"
       ry="2.7292628"
       id="rect1" />
    <rect
       style="fill:#2e899e;stroke-width:0.982758;fill-opacity:1"
       width="58"
       height="49.12281"
       x="3"
       y="4"
       rx="2.7623732"
       ry="2.7292628"
       id="rect2" />
    <path
       style="opacity:0.2;stroke-width:0.982758"
       d="m 50.186437,7.929825 3.932207,-4e-7 3.932201,1e-7 -1.966101,3.4385953 -1.9661,3.438599 -1.966099,-3.438599 z"
       id="path2" />
    <path
       style="fill:#70cbde;stroke-width:0.982758"
       d="m 50.186437,6.9473685 3.932207,-4e-7 3.932201,10e-8 -1.966101,3.4385928 -1.9661,3.4386 -1.966099,-3.4386 z"
       id="path3" />
    <path
       style="opacity:0.3;stroke-width:0.982758"
       d="m 3,15.789471 v 34.604715 c 0,1.511889 1.2308954,2.728622 2.7609904,2.728622 H 58.239012 c 1.530092,0 2.760987,-1.216733 2.760987,-2.728622 V 15.789471 Z"
       id="path4" />
    <path
       style="opacity:0.2;stroke-width:0.982758"
       d="m 23.644068,19.719298 v 27.508771 h 4.394105 l 0.965497,-2.501041 h 0.384005 c 0.565416,0.643062 1.28483,1.227557 2.158649,1.751532 0.899525,0.500161 2.119715,0.749509 3.661756,0.749509 2.415864,0 4.37091,-0.858745 5.861554,-2.573572 1.490635,-1.714835 2.235449,-4.238574 2.235449,-7.572973 0,-3.310578 -0.73211,-6.223127 -2.197051,-7.914146 -1.464941,-1.714836 -3.379144,-2.573573 -5.743609,-2.573573 -1.516339,0 -2.751968,0.28804 -3.702894,0.859649 -0.950925,0.547797 -1.708438,1.226515 -2.273854,2.036296 H 29.15727 c 0.05141,-0.404888 0.102209,-0.967176 0.153603,-1.681689 0.05141,-0.714513 0.07676,-1.440343 0.07676,-2.178677 v -5.910086 z m 9.861728,10.905292 c 1.263253,0 2.258569,0.520206 2.984264,1.558117 0.752574,1.012593 1.127329,2.629168 1.127329,4.654351 0,2.025186 -0.363228,3.777035 -1.088929,4.865571 -0.725696,1.063218 -1.706744,1.595721 -2.943118,1.595721 -1.666418,0 -2.625508,-0.532503 -3.270574,-1.595721 -0.618187,-1.088536 -0.927093,-2.82809 -0.927093,-4.827959 v -0.607128 c 0.02687,-1.847983 0.364316,-3.326629 1.009379,-4.237964 0.645066,-0.936646 1.549839,-1.404988 3.108742,-1.404988 z"
       id="path5" />
    <path
       style="fill:#f2f2f2;stroke-width:0.982758;fill-opacity:1"
       d="M 23.644068,18.736841 V 46.24561 h 4.394105 l 0.965497,-2.501035 h 0.384005 c 0.565416,0.643056 1.28483,1.227552 2.158649,1.751533 0.899525,0.50016 2.119715,0.749502 3.661756,0.749502 2.415864,0 4.37091,-0.858738 5.861554,-2.573572 1.490635,-1.714834 2.235449,-4.238575 2.235449,-7.572971 0,-3.31058 -0.73211,-6.223129 -2.197051,-7.914142 -1.464941,-1.714836 -3.379144,-2.573578 -5.743609,-2.573578 -1.516339,0 -2.751968,0.28804 -3.702894,0.85965 -0.950925,0.547796 -1.708438,1.226513 -2.273854,2.036294 H 29.15727 c 0.05141,-0.404888 0.102209,-0.967175 0.153603,-1.681689 0.05141,-0.714512 0.07676,-1.440342 0.07676,-2.178677 v -5.910084 z m 9.861728,10.905292 c 1.263253,0 2.258569,0.520211 2.984264,1.558116 0.752574,1.012591 1.127329,2.629168 1.127329,4.654356 0,2.025182 -0.363228,3.77703 -1.088929,4.865566 -0.725696,1.063224 -1.706744,1.595726 -2.943118,1.595726 -1.666418,0 -2.625508,-0.532502 -3.270574,-1.595726 -0.618187,-1.088536 -0.927093,-2.82809 -0.927093,-4.827954 v -0.607128 c 0.02687,-1.847983 0.364316,-3.326634 1.009379,-4.237963 0.645066,-0.936652 1.549839,-1.404993 3.108742,-1.404993 z"
       id="path6" />
    <ellipse
       style="opacity:0.2;stroke-width:0.982758"
       cx="32.000004"
       cy="54.596493"
       id="circle6"
       rx="5.4067788"
       ry="5.4035077" />
    <ellipse
       style="fill:#38aec7;stroke-width:0.982758;fill-opacity:1"
       cx="32.000004"
       cy="53.614037"
       id="circle7"
       rx="5.4067788"
       ry="5.4035077" />
    <ellipse
       style="fill:#233143;stroke-width:0.982758;fill-opacity:1"
       cx="8.898303"
       cy="9.8947344"
       id="circle8"
       rx="3.9322031"
       ry="3.9298241" />
    <ellipse
       style="fill:#70cbde;stroke-width:0.982758"
       cx="8.898303"
       cy="9.8947344"
       id="circle9"
       rx="2.9491529"
       ry="2.9473686" />
    <path
       style="opacity:0.1;fill:#ffffff;stroke-width:0.982758"
       d="M 5.7609904,4 C 4.2308954,4 3,5.2167277 3,6.7286186 v 0.982456 C 3,6.1991838 4.2308954,4.9824561 5.7609904,4.9824561 H 58.239012 c 1.530092,0 2.760987,1.2167277 2.760987,2.7286185 V 6.7286186 C 60.999999,5.2167277 59.769104,4 58.239012,4 Z"
       id="path9" />
    <path
       style="opacity:0.2;fill:#ffffff;stroke-width:0.982758"
       d="m 50.186437,6.9473682 0.562566,0.9824565 h 3.369641 3.369636 l 0.562565,-0.9824565 h -3.932201 z"
       id="path10" />
    <path
       style="opacity:0.2;fill:#ffffff;stroke-width:0.982758"
       d="m 32.000003,48.210527 a 5.4067798,5.4035088 0 0 0 -5.406781,5.40351 5.4067798,5.4035088 0 0 0 0.02497,0.477791 5.4067798,5.4035088 0 0 1 5.381822,-4.898848 5.4067798,5.4035088 0 0 1 5.381814,4.925712 5.4067798,5.4035088 0 0 0 0.02498,-0.504655 5.4067798,5.4035088 0 0 0 -5.406773,-5.40351 z"
       id="path11" />
  </g>
</svg>
