<?xml version="1.0" encoding="UTF-8" standalone="no"?>
<svg
   width="62"
   height="62"
   version="1.1"
   id="svg5"
   sodipodi:docname="bitshares2-light.svg"
   inkscape:version="1.4 (unknown)"
   xmlns:inkscape="http://www.inkscape.org/namespaces/inkscape"
   xmlns:sodipodi="http://sodipodi.sourceforge.net/DTD/sodipodi-0.dtd"
   xmlns="http://www.w3.org/2000/svg"
   xmlns:svg="http://www.w3.org/2000/svg">
  <defs
     id="defs5" />
  <sodipodi:namedview
     id="namedview5"
     pagecolor="#ffffff"
     bordercolor="#000000"
     borderopacity="0.25"
     inkscape:showpageshadow="2"
     inkscape:pageopacity="0.0"
     inkscape:pagecheckerboard="0"
     inkscape:deskcolor="#d1d1d1"
     inkscape:zoom="11.6875"
     inkscape:cx="31.957219"
     inkscape:cy="33.839572"
     inkscape:window-width="1920"
     inkscape:window-height="996"
     inkscape:window-x="0"
     inkscape:window-y="0"
     inkscape:window-maximized="1"
     inkscape:current-layer="svg5" />
  <rect
     style="opacity:0.2;stroke-width:0.9823"
     width="55"
     height="55.017544"
     x="4"
     y="4.9824562"
     rx="8.25"
     ry="8.2526312"
     id="rect1" />
  <rect
     style="fill:#233143;stroke-width:0.9823;fill-opacity:1"
     width="55"
     height="55.017544"
     x="4"
     y="4"
     rx="8.25"
     ry="8.2526312"
     id="rect2" />
  <path
     style="opacity:0.1;fill:#ffffff;stroke-width:0.9823"
     d="M 12.248466,4 C 7.6779652,4 4,7.6791384 4,12.251097 v 0.982456 C 4,8.6615945 7.6779652,4.9824561 12.248466,4.9824561 H 50.751534 C 55.322034,4.9824561 59,8.6615945 59,13.233553 V 12.251097 C 59,7.6791384 55.322034,4 50.751534,4 Z"
     id="path4" />
  <g
     style="opacity:0.2"
     transform="matrix(1.4210526,0,0,1.4134616,-3.3157887,-1.7075757)"
     id="g4">
    <path
       d="m 24.976562,19 v 5.53125 a 4,4 0 0 1 1.990235,0.828125 l 3.910156,-3.910156 A 9.5167286,9.5167286 0 0 0 24.976562,19 Z m -0.953124,0.0078 a 9.5167286,9.5167286 0 0 0 -5.900391,2.441407 l 3.90625,3.90625 a 4,4 0 0 1 1.994141,-0.822266 z m -6.574219,3.115235 A 9.5167286,9.5167286 0 0 0 15,28.023438 h 5.53125 a 4,4 0 0 1 0.828125,-1.990235 z m 14.101562,0 -3.90625,3.90625 a 4,4 0 0 1 0.822266,1.994141 h 5.525391 A 9.5167286,9.5167286 0 0 0 31.550781,22.123035 Z M 15.007812,28.97655 a 9.5167286,9.5167286 0 0 0 2.441407,5.900391 l 3.90625,-3.90625 A 4,4 0 0 1 20.533203,28.97655 Z m 13.460938,0 a 4,4 0 0 1 -0.828125,1.990235 l 3.910156,3.910156 A 9.5167286,9.5167286 0 0 0 34,28.976562 Z m -6.435547,2.664063 -3.910156,3.910156 A 9.5167286,9.5167286 0 0 0 24.023438,38 v -5.53125 a 4,4 0 0 1 -1.990235,-0.828125 z m 4.9375,0.0039 a 4,4 0 0 1 -1.994141,0.822266 v 5.525391 a 9.5167286,9.5167286 0 0 0 5.900391,-2.441407 z"
       id="path2" />
    <path
       d="m 15,9 v 9.300781 l 7.029297,7.056641 A 4,4 0 0 1 24,24.537109 V 17 Z"
       id="path3" />
    <path
       d="M 15,19.577327 21.326172,25.968673 20,27 18,28 h -3 z"
       id="path4-5" />
  </g>
  <g
     transform="matrix(1.4210526,0,0,1.4134616,-3.3157887,-2.7171897)"
     id="g7">
    <path
       style="fill:#eef2f7;fill-opacity:1"
       d="m 24.976562,19 v 5.53125 a 4,4 0 0 1 1.990235,0.828125 l 3.910156,-3.910156 A 9.5167286,9.5167286 0 0 0 24.976562,19 Z m -0.953124,0.0078 a 9.5167286,9.5167286 0 0 0 -5.900391,2.441407 l 3.90625,3.90625 a 4,4 0 0 1 1.994141,-0.822266 z m -6.574219,3.115235 A 9.5167286,9.5167286 0 0 0 15,28.023438 h 5.53125 a 4,4 0 0 1 0.828125,-1.990235 z m 14.101562,0 -3.90625,3.90625 a 4,4 0 0 1 0.822266,1.994141 h 5.525391 A 9.5167286,9.5167286 0 0 0 31.550781,22.123035 Z M 15.007812,28.97655 a 9.5167286,9.5167286 0 0 0 2.441407,5.900391 l 3.90625,-3.90625 A 4,4 0 0 1 20.533203,28.97655 Z m 13.460938,0 a 4,4 0 0 1 -0.828125,1.990235 l 3.910156,3.910156 A 9.5167286,9.5167286 0 0 0 34,28.976562 Z m -6.435547,2.664063 -3.910156,3.910156 A 9.5167286,9.5167286 0 0 0 24.023438,38 v -5.53125 a 4,4 0 0 1 -1.990235,-0.828125 z m 4.9375,0.0039 a 4,4 0 0 1 -1.994141,0.822266 v 5.525391 a 9.5167286,9.5167286 0 0 0 5.900391,-2.441407 z"
       id="path5" />
    <path
       style="fill:#eef2f7;fill-opacity:1"
       d="m 15,9 v 9.300781 l 7.029297,7.056641 A 4,4 0 0 1 24,24.537109 V 17 Z"
       id="path6" />
    <path
       style="fill:#eef2f7;fill-opacity:1"
       d="M 15,19.577327 21.326172,25.968673 20,27 18,28 h -3 z"
       id="path7-6" />
  </g>
</svg>
