<?xml version="1.0" encoding="UTF-8" standalone="no"?>
<svg
   width="62"
   height="62"
   version="1.1"
   id="svg29"
   sodipodi:docname="btrfs-assistant.svg"
   inkscape:version="1.4 (unknown)"
   xmlns:inkscape="http://www.inkscape.org/namespaces/inkscape"
   xmlns:sodipodi="http://sodipodi.sourceforge.net/DTD/sodipodi-0.dtd"
   xmlns:xlink="http://www.w3.org/1999/xlink"
   xmlns="http://www.w3.org/2000/svg"
   xmlns:svg="http://www.w3.org/2000/svg">
  <defs
     id="defs29">
    <linearGradient
       id="linearGradient29"
       inkscape:collect="always">
      <stop
         style="stop-color:#2d3d53;stop-opacity:1;"
         offset="0"
         id="stop29" />
      <stop
         style="stop-color:#354864;stop-opacity:1;"
         offset="1"
         id="stop30" />
    </linearGradient>
    <linearGradient
       inkscape:collect="always"
       xlink:href="#linearGradient29"
       id="linearGradient30"
       x1="30.782633"
       y1="60"
       x2="30.193521"
       y2="5"
       gradientUnits="userSpaceOnUse"
       gradientTransform="matrix(0.98214286,0,0,0.98245614,-0.42857152,-0.92982455)" />
  </defs>
  <sodipodi:namedview
     id="namedview29"
     pagecolor="#ffffff"
     bordercolor="#000000"
     borderopacity="0.25"
     inkscape:showpageshadow="2"
     inkscape:pageopacity="0.0"
     inkscape:pagecheckerboard="0"
     inkscape:deskcolor="#d1d1d1"
     inkscape:zoom="7.0710678"
     inkscape:cx="20.435386"
     inkscape:cy="36.840263"
     inkscape:window-width="1920"
     inkscape:window-height="996"
     inkscape:window-x="0"
     inkscape:window-y="0"
     inkscape:window-maximized="1"
     inkscape:current-layer="svg29" />
  <rect
     style="opacity:0.2;stroke-width:0.9823"
     width="55"
     height="55.017544"
     x="3.5"
     y="3.9824562"
     ry="13.754386"
     id="rect1" />
  <rect
     style="fill:url(#linearGradient30);stroke-width:0.9823"
     width="55"
     height="55.017544"
     x="3.5"
     y="3"
     ry="13.754386"
     id="rect2" />
  <path
     style="opacity:0.1;fill:#ffffff;stroke-width:0.9823"
     d="M 17.25,3 C 9.6324999,3 3.4999999,9.1344561 3.4999999,16.754386 v 0.982456 c 0,-7.61993 6.1325,-13.7543858 13.7500001,-13.7543858 h 27.5 c 7.6175,0 13.75,6.1344558 13.75,13.7543858 V 16.754386 C 58.5,9.1344561 52.3675,3 44.75,3 Z"
     id="path28" />
  <g
     id="g1"
     transform="matrix(1.0010454,0,0,1,17.907318,-44)">
    <circle
       style="fill:#374762;stroke-width:0.736855;fill-opacity:1"
       cx="13.080688"
       cy="74.631943"
       r="14.737101"
       id="circle1" />
    <path
       style="opacity:0.2;stroke-width:0.736855"
       d="m -3.2310714,72.91949 c -0.1201074,0.803909 -0.193056,1.612239 -0.193056,2.450043 0,0.837804 0.072949,1.646134 0.193056,2.450043 l -3.4167968,2.998263 c -0.3581115,0.308005 -0.4583238,0.877594 -0.2254776,1.289496 l 4.1263882,7.156336 c 0.2394779,0.406007 0.7795926,0.604958 1.224653,0.450956 L 2.764718,88.263759 c 1.2887595,1.031597 2.7573116,1.870875 4.3194442,2.482465 L 7.954388,95.162196 C 8.0428106,95.624204 8.4834499,95.994105 8.9535634,96 h 8.2520396 c 0.47085,-0.0059 0.910753,-0.375796 0.999175,-0.837804 l 0.870226,-4.415972 c 1.562133,-0.610853 3.031422,-1.450868 4.319444,-2.482465 l 4.287023,1.450868 c 0.44506,0.153265 0.985912,-0.04568 1.224653,-0.450956 l 4.126388,-7.156336 c 0.23211,-0.411902 0.132634,-0.981491 -0.225477,-1.289496 l -3.416797,-2.998263 c 0.120107,-0.803909 0.193056,-1.612239 0.193056,-2.450043 0,-0.837068 -0.07295,-1.646134 -0.193056,-2.450043 l 3.416797,-2.998263 c 0.358111,-0.308006 0.458323,-0.877595 0.225477,-1.289497 L 28.906124,61.475394 C 28.667383,61.06865 28.126531,60.869699 27.681471,61.023702 l -4.287023,1.450868 c -1.286549,-1.033071 -2.754364,-1.872349 -4.316496,-2.483202 l -0.870963,-4.416709 c -0.08842,-0.462008 -0.529062,-0.831909 -0.999175,-0.837804 h -8.25204 c -0.4133757,0 -0.904858,0.313163 -1.0021228,0.840015 L 7.0834254,59.992842 C 5.5212927,60.603695 4.0520038,61.44371 2.7639812,62.475307 l -4.2870226,-1.450868 c -0.4457973,-0.153266 -0.985912,0.04568 -1.2253899,0.451692 l -4.1263882,7.156336 c -0.2321094,0.411902 -0.1326339,0.981491 0.2254776,1.289497 z M 13.080688,63.579115 c 6.45264,0 11.789681,5.336305 11.789681,11.789681 0,6.453376 -5.336304,11.78968 -11.789681,11.78968 -6.4533759,0 -11.78968,-5.336304 -11.78968,-11.78968 0,-6.453376 5.337041,-11.789681 11.78968,-11.789681 z"
       id="path1" />
    <path
       style="fill:#f2993f;stroke-width:0.736855;fill-opacity:1"
       d="m -3.2310714,72.182635 c -0.1201074,0.803909 -0.193056,1.612239 -0.193056,2.450043 0,0.837804 0.072949,1.646134 0.193056,2.450043 l -3.4167968,2.998263 c -0.3581115,0.308005 -0.4583238,0.877594 -0.2254776,1.289496 l 4.1263882,7.156336 c 0.2394779,0.406007 0.7795926,0.604958 1.224653,0.450956 L 2.764718,87.526904 c 1.2887595,1.031597 2.7573116,1.870875 4.3194442,2.482465 l 0.8702258,4.415972 c 0.088423,0.462008 0.5290619,0.831909 0.9991754,0.837804 h 8.2520396 c 0.47085,-0.0059 0.910753,-0.375796 0.999175,-0.837804 l 0.870226,-4.415972 c 1.562133,-0.610853 3.031422,-1.450868 4.319444,-2.482465 l 4.287023,1.450868 c 0.44506,0.153265 0.985912,-0.04569 1.224653,-0.450956 l 4.126388,-7.156336 c 0.23211,-0.411902 0.132634,-0.981491 -0.225477,-1.289496 l -3.416797,-2.998263 c 0.120107,-0.803909 0.193056,-1.612239 0.193056,-2.450043 0,-0.837068 -0.07295,-1.646134 -0.193056,-2.450043 l 3.416797,-2.998263 c 0.358111,-0.308006 0.458323,-0.877595 0.225477,-1.289497 l -4.126388,-7.156336 c -0.238741,-0.406744 -0.779593,-0.605695 -1.224653,-0.451692 l -4.287023,1.450868 C 22.107899,60.704644 20.640084,59.865366 19.077952,59.254513 L 18.206989,54.837804 C 18.118566,54.375796 17.677927,54.005895 17.207814,54 H 8.955774 C 8.5423983,54 8.050916,54.313163 7.9536512,54.840015 L 7.0834254,59.255987 C 5.5212927,59.86684 4.0520038,60.706855 2.7639812,61.738452 l -4.2870226,-1.450868 c -0.4457973,-0.153266 -0.985912,0.04568 -1.2253899,0.451692 l -4.1263882,7.156336 c -0.2321094,0.411902 -0.1326339,0.981491 0.2254776,1.289497 z M 13.080688,62.84226 c 6.45264,0 11.789681,5.336305 11.789681,11.789681 0,6.453376 -5.336304,11.78968 -11.789681,11.78968 -6.4533759,0 -11.78968,-5.336304 -11.78968,-11.78968 0,-6.453376 5.337041,-11.789681 11.78968,-11.789681 z"
       id="path2" />
    <path
       style="opacity:0.2;stroke-width:0.736855"
       d="M 9.3964133,68.000246 H 7.1858482 c -1.4737101,0 -1.4737101,1.47371 -1.4737101,1.47371 v 2.94742 c 0,0.385375 0.3684276,0.736855 0.3684276,0.736855 0,0 -0.3684276,0.44285 -0.3684276,0.736855 v 2.94742 c 0,0 0,1.47371 1.4737101,1.47371 h 7.3685508 c 0,0 0.736855,0 0.736855,0.736855 v 2.210565 c 0,0 0,1.47371 1.47371,1.47371 h 2.210565 c 1.47371,0 1.47371,-1.47371 1.47371,-1.47371 v -2.94742 c 0,-0.398638 -0.368428,-0.736855 -0.368428,-0.736855 0,0 0.368428,-0.358112 0.368428,-0.736855 v -2.94742 c 0,0 0,-1.47371 -1.47371,-1.47371 h -2.210565 c -1.47371,0 -1.47371,1.47371 -1.47371,1.47371 v 2.210565 c 0,0 0,0.736855 -0.736855,0.736855 h -2.947421 c -0.736855,0 -0.736855,-0.736855 -0.736855,-0.736855 v -2.210565 c 0,-0.386112 -0.368427,-0.736855 -0.368427,-0.736855 0,0 0.368427,-0.345585 0.368427,-0.736855 v -2.94742 c 0,0 0,-1.47371 -1.4737097,-1.47371 z m -1.4737101,1.47371 h 0.7368551 c 0.736855,0 0.736855,0.736855 0.736855,0.736855 v 1.47371 c 0,0 0,0.736855 -0.736855,0.736855 H 7.9227032 c -0.736855,0 -0.736855,-0.736855 -0.736855,-0.736855 v -1.47371 c 0,0 0,-0.736855 0.736855,-0.736855 z m 9.5791158,4.42113 h 0.736855 c 0.736855,0 0.736855,0.736855 0.736855,0.736855 v 1.47371 c 0,0 0,0.736855 -0.736855,0.736855 h -0.736855 c -0.736855,0 -0.736855,-0.736855 -0.736855,-0.736855 v -1.47371 c 0,0 0,-0.736855 0.736855,-0.736855 z m -8.8422607,0 c 0,0 0.736855,0 0.736855,0.736855 v 1.47371 c 0,0 0,0.736855 -0.736855,0.736855 H 7.9227032 c -0.736855,0 -0.736855,-0.736855 -0.736855,-0.736855 v -1.47371 c 0,-0.736855 0.736855,-0.736855 0.736855,-0.736855 z m 10.3159707,5.157985 v 1.47371 c 0,0 0,0.736855 -0.736855,0.736855 h -0.736855 c -0.736855,0 -0.736855,-0.736855 -0.736855,-0.736855 v -1.47371 c 0,0 0,-0.736855 0.736855,-0.736855 h 0.736855 c 0.736855,0 0.736855,0.736855 0.736855,0.736855 z"
       id="path3" />
    <path
       style="fill:#f39a3f;stroke-width:0.736855;fill-opacity:1"
       d="M 9.3964133,67.263391 H 7.1858482 c -1.4737101,0 -1.4737101,1.47371 -1.4737101,1.47371 v 2.94742 c 0,0.385375 0.3684276,0.736855 0.3684276,0.736855 0,0 -0.3684276,0.44285 -0.3684276,0.736855 v 2.94742 c 0,0 0,1.47371 1.4737101,1.47371 h 7.3685508 c 0,0 0.736855,0 0.736855,0.736855 v 2.210565 c 0,0 0,1.47371 1.47371,1.47371 h 2.210565 c 1.47371,0 1.47371,-1.47371 1.47371,-1.47371 v -2.94742 c 0,-0.398639 -0.368428,-0.736855 -0.368428,-0.736855 0,0 0.368428,-0.358112 0.368428,-0.736855 v -2.94742 c 0,0 0,-1.47371 -1.47371,-1.47371 h -2.210565 c -1.47371,0 -1.47371,1.47371 -1.47371,1.47371 v 2.210565 c 0,0 0,0.736855 -0.736855,0.736855 h -2.947421 c -0.736855,0 -0.736855,-0.736855 -0.736855,-0.736855 v -2.210565 c 0,-0.386112 -0.368427,-0.736855 -0.368427,-0.736855 0,0 0.368427,-0.345585 0.368427,-0.736855 v -2.94742 c 0,0 0,-1.47371 -1.4737097,-1.47371 z m -1.4737101,1.47371 h 0.7368551 c 0.736855,0 0.736855,0.736855 0.736855,0.736855 v 1.47371 c 0,0 0,0.736855 -0.736855,0.736855 H 7.9227032 c -0.736855,0 -0.736855,-0.736855 -0.736855,-0.736855 v -1.47371 c 0,0 0,-0.736855 0.736855,-0.736855 z m 9.5791158,4.42113 h 0.736855 c 0.736855,0 0.736855,0.736855 0.736855,0.736855 v 1.47371 c 0,0 0,0.736855 -0.736855,0.736855 h -0.736855 c -0.736855,0 -0.736855,-0.736855 -0.736855,-0.736855 v -1.47371 c 0,0 0,-0.736855 0.736855,-0.736855 z m -8.8422607,0 c 0,0 0.736855,0 0.736855,0.736855 v 1.47371 c 0,0 0,0.736855 -0.736855,0.736855 H 7.9227032 c -0.736855,0 -0.736855,-0.736855 -0.736855,-0.736855 v -1.47371 c 0,-0.736855 0.736855,-0.736855 0.736855,-0.736855 z m 10.3159707,5.157985 v 1.47371 c 0,0 0,0.736855 -0.736855,0.736855 h -0.736855 c -0.736855,0 -0.736855,-0.736855 -0.736855,-0.736855 v -1.47371 c 0,0 0,-0.736855 0.736855,-0.736855 h 0.736855 c 0.736855,0 0.736855,0.736855 0.736855,0.736855 z"
       id="path4" />
    <path
       style="opacity:0.2;fill:#ffffff;stroke-width:0.736855"
       d="M 7.954388,54.840752 7.0834254,59.255987 C 5.5212927,59.86684 4.0534775,60.706855 2.764718,61.738452 l -4.2870226,-1.450868 c -0.4457973,-0.153266 -0.985912,0.04642 -1.224653,0.451692 l -4.1263882,7.155599 c -0.1488447,0.263794 -0.1488447,0.586537 -0.044211,0.869489 0.016211,-0.04347 0.021369,-0.0899 0.044211,-0.13116 l 4.1263882,-7.157073 c 0.238741,-0.40527 0.7788557,-0.604958 1.224653,-0.451692 L 2.764718,62.475307 C 4.0534775,61.44371 5.5212927,60.605169 7.0834254,59.994316 L 7.954388,55.577607 c 0.07958,-0.432534 0.4649555,-0.789909 0.9026474,-0.837805 l 0.00147,-0.0015 c 0.031685,-7.37e-4 0.064106,-7.37e-4 0.095791,0 h 8.2527766 c 0.470113,0.0066 0.910016,0.375059 0.998438,0.837804 l 0.870963,4.416709 c 1.562133,0.610853 3.030685,1.450131 4.320181,2.482465 l 4.287023,-1.450868 c 0.44506,-0.153266 0.985912,0.04568 1.224653,0.451692 l 4.126388,7.157073 c 0.02284,0.04053 0.028,0.08695 0.04495,0.129687 0.10316,-0.282216 0.10316,-0.604958 -0.04495,-0.868016 L 28.908331,60.739249 C 28.66959,60.333242 28.128738,60.134291 27.683678,60.287557 l -4.287023,1.450868 C 22.107163,60.706118 20.638611,59.865366 19.076478,59.254513 L 18.205515,54.839278 C 18.117093,54.37727 17.67719,54.006632 17.207077,54 H 8.9543003 C 8.4046064,54.0479 8.0442843,54.386112 7.954388,54.840752 Z M -3.3099149,72.851699 c -0.067054,0.585063 -0.1149494,1.175284 -0.1149494,1.781716 0,0.124528 0.012527,0.244635 0.015474,0.368427 0.018421,-0.705907 0.075896,-1.397077 0.1783189,-2.080878 z m 32.7797329,0.0015 -0.07737,0.06779 c 0.102423,0.683801 0.158424,1.374971 0.176846,2.080878 0.0029,-0.123792 0.01547,-0.243899 0.01547,-0.368427 0,-0.605695 -0.0479,-1.195179 -0.114949,-1.780242 z m -16.38913,14.305303 c 6.320743,0 11.789681,-5.157985 11.789681,-11.78968 v -0.736855 c 0,6.285373 -5.157985,11.78968 -11.789681,11.78968 -6.6316948,0 -11.78968,-5.455674 -11.78968,-11.78968 v 0.736855 c 0,6.631695 5.468938,11.78968 11.78968,11.78968 z m 19.72782,-6.3399 c 0.129687,0.112002 0.212215,0.26232 0.271163,0.422218 0.151055,-0.395691 0.05232,-0.882016 -0.271163,-1.15981 l -3.33869,-2.930473 c -0.02505,0.223267 -0.04421,0.447271 -0.07737,0.669065 z M -3.3099149,77.152011 -6.6471313,80.08101 c -0.3227425,0.277794 -0.4214811,0.762645 -0.2704258,1.158336 0.058211,-0.159161 0.1414762,-0.309479 0.2704258,-0.420744 l 3.4167968,-2.999 c -0.033158,-0.221057 -0.05379,-0.445061 -0.078844,-0.667591 z"
       id="path5" />
  </g>
</svg>
