<?xml version="1.0" encoding="UTF-8" standalone="no"?>
<svg
   width="62"
   height="62"
   version="1.1"
   id="svg4"
   sodipodi:docname="cinny.svg"
   inkscape:version="1.4 (unknown)"
   xmlns:inkscape="http://www.inkscape.org/namespaces/inkscape"
   xmlns:sodipodi="http://sodipodi.sourceforge.net/DTD/sodipodi-0.dtd"
   xmlns="http://www.w3.org/2000/svg"
   xmlns:svg="http://www.w3.org/2000/svg">
  <defs
     id="defs4" />
  <sodipodi:namedview
     id="namedview4"
     pagecolor="#ffffff"
     bordercolor="#000000"
     borderopacity="0.25"
     inkscape:showpageshadow="2"
     inkscape:pageopacity="0.0"
     inkscape:pagecheckerboard="0"
     inkscape:deskcolor="#d1d1d1"
     inkscape:zoom="10"
     inkscape:cx="17.45"
     inkscape:cy="31.35"
     inkscape:window-width="1920"
     inkscape:window-height="996"
     inkscape:window-x="0"
     inkscape:window-y="0"
     inkscape:window-maximized="1"
     inkscape:current-layer="svg4" />
  <g
     id="g4"
     transform="matrix(0.98214286,0,0,0.98245614,-0.42857152,-0.92982455)">
    <circle
       style="opacity:0.2"
       cx="32"
       cy="33"
       r="28"
       id="circle1" />
    <circle
       style="fill:#2d3d53;fill-opacity:1"
       cx="32"
       cy="32"
       r="28"
       id="circle2" />
    <path
       style="opacity:0.2"
       d="m 26.840321,22.480214 c -5.6,0.622222 -9.640624,4.556248 -9.640624,10.15625 v 0.933592 L 6.3051637,40.12865 c 2.1777778,9.333334 9.3346373,16.486286 18.6679713,18.664062 0.933334,-0.933332 1.554946,-1.86493 2.48828,-3.109374 2.8,-4.044446 4.046876,-8.39974 4.046876,-13.066406 0,-3.733334 1.244096,-6.559376 3.421874,-9.359376 2.177778,-3.111112 5.286198,-4.355468 9.019532,-4.355468 2.177776,-2e-6 4.047394,0.315278 5.914062,0.9375 -1.866668,-1.244444 -4.044878,-2.178558 -6.222656,-2.800782 -1.244446,-0.31111 -2.48993,-0.3125 -3.734374,-0.3125 -0.933334,0 -1.86745,0.0014 -2.800782,0.3125 -1.866668,-3.11111 -5.286198,-4.558592 -9.019532,-4.558592 z m 5.234376,3.046874 a 1.5,1.5 0 0 1 1.5,1.5 1.5,1.5 0 0 1 -1.5,1.5 1.5,1.5 0 0 1 -1.5,-1.5 1.5,1.5 0 0 1 1.5,-1.5 z"
       id="path2" />
    <path
       style="fill:#ffffff"
       d="m 26.127595,21.988589 c -5.6,0.622223 -9.640624,4.556249 -9.640624,10.156251 v 0.933592 L 5.1851637,39.637026 C 7.3629415,48.97036 14.927466,56.733581 24.2608,58.911357 c 0.933334,-0.933332 1.554555,-2.475199 2.487889,-3.719643 2.8,-4.044446 4.046876,-8.39974 4.046876,-13.066406 0,-3.733334 1.244096,-6.559376 3.421874,-9.359376 2.177778,-3.111112 5.286198,-4.355468 9.019532,-4.355468 2.177776,-2e-6 4.047394,0.315278 5.914062,0.9375 -1.866668,-1.244444 -4.044878,-2.178558 -6.222656,-2.800782 -1.244446,-0.31111 -2.48993,-0.3125 -3.734374,-0.3125 -0.933334,0 -1.86745,0.0014 -2.800782,0.3125 -1.866668,-3.11111 -5.286198,-4.558593 -9.019532,-4.558593 z m 5.234376,3.046875 c 0.828427,0 1.5,0.671573 1.5,1.5 0,0.828427 -0.671573,1.5 -1.5,1.5 -0.828427,0 -1.5,-0.671573 -1.5,-1.5 0,-0.828427 0.671573,-1.5 1.5,-1.5 z"
       id="path3"
       sodipodi:nodetypes="csccccscsccscscsssss" />
    <path
       style="opacity:0.1;fill:#ffffff"
       d="M 32,4 A 28,28 0 0 0 4,32 28,28 0 0 0 4.0332031,32.482422 28,28 0 0 1 32,5 28,28 0 0 1 59.982422,32.242188 28,28 0 0 0 60,32 28,28 0 0 0 32,4 Z"
       id="path4" />
  </g>
</svg>
