<?xml version="1.0" encoding="UTF-8" standalone="no"?>
<svg
   width="62"
   height="62"
   version="1"
   id="svg7"
   sodipodi:docname="colon.svg"
   inkscape:version="1.4 (unknown)"
   xmlns:inkscape="http://www.inkscape.org/namespaces/inkscape"
   xmlns:sodipodi="http://sodipodi.sourceforge.net/DTD/sodipodi-0.dtd"
   xmlns:xlink="http://www.w3.org/1999/xlink"
   xmlns="http://www.w3.org/2000/svg"
   xmlns:svg="http://www.w3.org/2000/svg">
  <defs
     id="defs7">
    <linearGradient
       id="linearGradient7"
       inkscape:collect="always">
      <stop
         style="stop-color:#ffb380;stop-opacity:1;"
         offset="0"
         id="stop8" />
      <stop
         style="stop-color:#ffb380;stop-opacity:1;"
         offset="0.59162253"
         id="stop10" />
      <stop
         style="stop-color:#eff2f6;stop-opacity:1;"
         offset="0.76739442"
         id="stop11" />
      <stop
         style="stop-color:#eff2f6;stop-opacity:1;"
         offset="1"
         id="stop9" />
    </linearGradient>
    <linearGradient
       id="linearGradient1"
       inkscape:collect="always">
      <stop
         style="stop-color:#566c80;stop-opacity:1;"
         offset="0"
         id="stop5" />
      <stop
         style="stop-color:#566c80;stop-opacity:1;"
         offset="0.28848785"
         id="stop7" />
      <stop
         style="stop-color:#495361;stop-opacity:1;"
         offset="1"
         id="stop6" />
    </linearGradient>
    <linearGradient
       id="c-3"
       gradientUnits="userSpaceOnUse"
       x1="24.072048"
       x2="23.959682"
       y1="0.75082099"
       y2="46.056854">
      <stop
         offset="0"
         stop-color="#fff"
         id="stop3" />
      <stop
         offset="1"
         stop-color="#d9d9d9"
         id="stop4" />
    </linearGradient>
    <linearGradient
       id="b-6"
       gradientUnits="userSpaceOnUse"
       x1="29.203026"
       x2="34.121048"
       xlink:href="#a-7"
       y1="24.827356"
       y2="29.224836" />
    <linearGradient
       id="a-7">
      <stop
         offset="0"
         id="stop1" />
      <stop
         offset="1"
         stop-opacity="0"
         id="stop2" />
    </linearGradient>
    <linearGradient
       id="d"
       gradientUnits="userSpaceOnUse"
       x1="15.948756"
       x2="25.031786"
       xlink:href="#a-7"
       y1="23.618279"
       y2="33.69899" />
    <linearGradient
       id="e"
       gradientUnits="userSpaceOnUse"
       x1="21.990562"
       x2="29.320522"
       xlink:href="#a-7"
       y1="33.780373"
       y2="41.931858" />
    <linearGradient
       id="paint154_linear_890_11"
       x1="778"
       y1="812.29199"
       x2="788"
       y2="812.29199"
       gradientUnits="userSpaceOnUse"
       gradientTransform="translate(-751,-696)">
      <stop
         stop-color="#EFF2F6"
         id="stop1050" />
      <stop
         offset="0.600785"
         stop-color="#B7C6CD"
         id="stop1051" />
    </linearGradient>
    <linearGradient
       id="paint155_linear_890_11"
       x1="783"
       y1="813"
       x2="783"
       y2="817"
       gradientUnits="userSpaceOnUse"
       gradientTransform="translate(-751,-696)">
      <stop
         stop-color="#EFF2F6"
         id="stop1052" />
      <stop
         offset="0.734138"
         stop-color="#B7C6CD"
         id="stop1053" />
    </linearGradient>
    <radialGradient
       id="paint156_radial_890_11"
       cx="0"
       cy="0"
       r="1"
       gradientUnits="userSpaceOnUse"
       gradientTransform="matrix(27.999986,27.999976,-27.999986,27.999976,32.302392,33.999998)">
      <stop
         offset="0.60067803"
         stop-color="#B7C6CD"
         id="stop1054"
         style="stop-color:#384850;stop-opacity:1;" />
      <stop
         offset="0.876735"
         stop-color="#EFF2F6"
         id="stop1055" />
    </radialGradient>
    <linearGradient
       id="paint157_linear_890_11"
       x1="796.84485"
       y1="799.43359"
       x2="768.90088"
       y2="770.81476"
       gradientUnits="userSpaceOnUse"
       gradientTransform="matrix(1.1666666,0,0,1.1666668,-881.19764,-881.8333)">
      <stop
         offset="0.00000057"
         stop-color="#2E2E41"
         id="stop1056"
         style="stop-color:#495361;stop-opacity:1;" />
      <stop
         offset="0.711139"
         stop-color="#566C80"
         id="stop1057" />
    </linearGradient>
    <linearGradient
       id="paint158_linear_890_11"
       x1="792"
       y1="794"
       x2="774"
       y2="776"
       gradientUnits="userSpaceOnUse"
       gradientTransform="translate(-751,-696)">
      <stop
         offset="0.304478"
         stop-color="#2E2E41"
         id="stop1058" />
      <stop
         offset="1"
         stop-color="#566C80"
         id="stop1059" />
    </linearGradient>
    <linearGradient
       id="paint159_linear_890_11"
       x1="788"
       y1="790"
       x2="778"
       y2="780"
       gradientUnits="userSpaceOnUse"
       gradientTransform="translate(-751,-696)">
      <stop
         offset="0.391394"
         stop-color="#5200FF"
         id="stop1060" />
      <stop
         offset="1"
         stop-color="#0085FF"
         id="stop1061" />
    </linearGradient>
    <linearGradient
       id="paint160_linear_890_11"
       x1="784"
       y1="798"
       x2="782"
       y2="796"
       gradientUnits="userSpaceOnUse"
       gradientTransform="translate(-751,-696)">
      <stop
         stop-color="#FF7E07"
         id="stop1062" />
      <stop
         offset="1"
         stop-color="#FFE607"
         id="stop1063" />
    </linearGradient>
    <linearGradient
       inkscape:collect="always"
       xlink:href="#linearGradient1"
       id="linearGradient6"
       x1="17.408081"
       y1="16.037786"
       x2="49.155514"
       y2="50.137749"
       gradientUnits="userSpaceOnUse"
       gradientTransform="translate(-1.3023872,-3)" />
    <radialGradient
       inkscape:collect="always"
       xlink:href="#linearGradient7"
       id="radialGradient9"
       cx="32.302387"
       cy="34"
       fx="32.302387"
       fy="34"
       r="28"
       gradientUnits="userSpaceOnUse"
       gradientTransform="matrix(0.99999999,1,-1,0.99999999,32.697613,-35.302387)" />
    <linearGradient
       id="c-3-6"
       gradientUnits="userSpaceOnUse"
       x1="24.072048"
       x2="23.959682"
       y1="0.75082099"
       y2="46.056854"
       gradientTransform="matrix(0.91471346,0,0,0.90068147,9.0468769,9.3836444)">
      <stop
         offset="0"
         stop-color="#fff"
         id="stop3-2" />
      <stop
         offset="1"
         stop-color="#d9d9d9"
         id="stop4-9" />
    </linearGradient>
    <linearGradient
       id="b-6-1"
       gradientUnits="userSpaceOnUse"
       x1="29.203026"
       x2="34.121048"
       xlink:href="#a-7"
       y1="24.827356"
       y2="29.224836"
       gradientTransform="matrix(1.1104534,0,0,1.0934187,4.3491158,4.7861435)" />
    <linearGradient
       id="d-0"
       gradientUnits="userSpaceOnUse"
       x1="15.948756"
       x2="25.031786"
       xlink:href="#a-7"
       y1="23.618279"
       y2="33.69899"
       gradientTransform="matrix(1.1104534,0,0,1.0934187,4.3491158,4.7861435)" />
    <linearGradient
       id="e-9"
       gradientUnits="userSpaceOnUse"
       x1="21.990562"
       x2="29.320522"
       xlink:href="#a-7"
       y1="33.780373"
       y2="41.931858"
       gradientTransform="matrix(1.1104534,0,0,1.0934187,4.3491158,4.7861435)" />
    <linearGradient
       id="linearGradient773"
       gradientTransform="matrix(2.0428665,-6.8308524,5.7819337,2.3633129,-33.356582,5.3194785)"
       gradientUnits="userSpaceOnUse"
       x1="24"
       x2="24"
       y1="35"
       y2="13">
      <stop
         offset="0"
         stop-color="#cd7223"
         id="stop224-5"
         style="stop-color:#ffb380;stop-opacity:1" />
      <stop
         offset=".53"
         stop-color="#f48e00"
         id="stop226-3" />
      <stop
         offset="1"
         stop-color="#ffa92d"
         id="stop228-5" />
    </linearGradient>
    <linearGradient
       id="linearGradient4432">
      <stop
         style="stop-color:#eff1f1;stop-opacity:1"
         offset="0"
         id="stop17" />
      <stop
         style="stop-color:#6f8181;stop-opacity:1"
         offset="1"
         id="stop19" />
    </linearGradient>
    <linearGradient
       inkscape:collect="always"
       xlink:href="#linearGradient1193"
       id="linearGradient1373"
       gradientUnits="userSpaceOnUse"
       gradientTransform="matrix(1.1111196,0,0,1.1111196,4.3331409,4.333137)"
       x1="24"
       y1="45"
       x2="20.355091"
       y2="3.3124757" />
    <linearGradient
       inkscape:collect="always"
       id="linearGradient1193">
      <stop
         style="stop-color:#2e384c;stop-opacity:1;"
         offset="0"
         id="stop1189" />
      <stop
         style="stop-color:#43526f;stop-opacity:1;"
         offset="1"
         id="stop1191" />
    </linearGradient>
    <linearGradient
       id="a-2">
      <stop
         stop-color="#969692"
         offset="0"
         id="stop3-3" />
      <stop
         stop-color="#969692"
         stop-opacity="0"
         offset="1"
         id="stop4-6" />
    </linearGradient>
    <linearGradient
       id="e-1"
       x1="-1.1176227"
       x2="-0.41036412"
       y1="289.6546"
       y2="289.64532"
       gradientTransform="matrix(6.7456967,0.0127412,0.01265839,6.7456978,-29.126969,-1911.263)"
       gradientUnits="userSpaceOnUse"
       xlink:href="#a-2" />
    <linearGradient
       id="d-09"
       x1="-0.86155176"
       x2="-0.1469878"
       y1="289.66055"
       y2="289.70197"
       gradientTransform="matrix(6.7456967,0.0127412,0.01265839,6.7456978,-38.91316,-1913.9109)"
       gradientUnits="userSpaceOnUse"
       xlink:href="#a-2" />
    <linearGradient
       id="c-2"
       x1="-0.59261101"
       x2="0.11464758"
       y1="289.77438"
       y2="289.76511"
       gradientTransform="matrix(6.7456967,0.0127412,0.01265839,6.7456978,-48.766822,-1916.5629)"
       gradientUnits="userSpaceOnUse"
       xlink:href="#a-2" />
    <linearGradient
       id="b-0"
       x1="-0.30974263"
       x2="0.37280104"
       y1="289.83627"
       y2="289.84122"
       gradientTransform="matrix(6.7456967,0.0127412,0.01265839,6.7456978,-58.553025,-1919.2116)"
       gradientUnits="userSpaceOnUse"
       xlink:href="#a-2" />
  </defs>
  <sodipodi:namedview
     id="namedview7"
     pagecolor="#ffffff"
     bordercolor="#000000"
     borderopacity="0.25"
     inkscape:showpageshadow="2"
     inkscape:pageopacity="0.0"
     inkscape:pagecheckerboard="0"
     inkscape:deskcolor="#d1d1d1"
     inkscape:zoom="8.3306018"
     inkscape:cx="23.587732"
     inkscape:cy="37.512296"
     inkscape:window-width="1920"
     inkscape:window-height="996"
     inkscape:window-x="0"
     inkscape:window-y="0"
     inkscape:window-maximized="1"
     inkscape:current-layer="svg7" />
  <path
     d="M 59,31 C 59,46.46415 46.464172,59 30.999998,59 15.535835,59 3.0000001,46.46415 3.0000001,31 3.0000001,15.535835 15.535835,3 30.999998,3 46.464172,3 59,15.535835 59,31 Z"
     id="path154"
     style="fill:url(#radialGradient9)" />
  <path
     d="m 54.333333,31 c 0,12.88701 -10.446332,23.33332 -23.333335,23.33332 C 18.112999,54.33332 7.6666671,43.88701 7.6666671,31 7.6666671,18.113006 18.112999,7.666668 30.999998,7.666668 43.887001,7.666668 54.333333,18.113006 54.333333,31 Z"
     id="path155"
     style="fill:url(#linearGradient6)" />
  <rect
     x="7.6665001"
     y="7.6665001"
     width="46.667"
     height="46.667"
     rx="23.3335"
     ry="23.3335"
     stroke-width="3.79813"
     id="rect739-2"
     style="fill:url(#linearGradient1373);fill-opacity:1" />
  <g
     id="g1"
     transform="matrix(0.97727267,0,0,0.967736,-0.2965571,-0.34462889)">
    <path
       style="opacity:0.2"
       d="m 36.964631,47.491372 c 1.231744,-0.323918 2.62188,-0.468612 3.643646,-1.279146 0.17606,-1.586508 -0.373498,-2.572294 -0.875572,-4.056782 -0.297664,-1.577594 -1.963902,-0.639654 -2.971028,-0.464882 -2.883388,0.767964 -6.27727,0.17588 -8.299714,-2.190516 -2.17762,-3.077536 -3.054728,-8.492544 -1.225878,-11.52266 1.045694,-2.192606 3.200016,-3.798332 5.612804,-3.963286 2.023648,-0.268186 4.294642,0.353296 6.293862,0.530096 1.019782,-0.53711 0.976262,-1.9024 1.279262,-2.984036 0.251736,-1.1132 0.298612,-2.352799 -1.16264,-2.849926 -3.097532,-0.945117 -6.69533,-0.959802 -9.887496,-0.612268 -4.0572,0.522748 -7.569712,3.445002 -9.216912,7.204458 -1.544314,3.239462 -1.691506,6.961104 -1.378888,10.4878 0.585692,5.008182 3.985616,9.641986 8.723462,11.291022 2.965754,1.126144 6.215274,0.875408 9.288212,0.444866 z"
       id="path3" />
    <path
       style="fill:#ffb380"
       d="m 36.964631,46.491372 c 1.231744,-0.323918 2.62188,-0.468612 3.643646,-1.279146 0.17606,-1.586508 -0.373498,-2.572294 -0.875572,-4.056782 -0.297664,-1.577594 -1.963902,-0.639654 -2.971028,-0.464882 -2.883388,0.767964 -6.27727,0.17588 -8.299714,-2.190516 -2.17762,-3.077536 -3.054728,-8.492544 -1.225878,-11.52266 1.045694,-2.192606 3.200016,-3.798332 5.612804,-3.963286 2.023648,-0.268186 4.294642,0.353296 6.293862,0.530096 1.019782,-0.53711 0.976262,-1.9024 1.279262,-2.984036 0.251736,-1.1132 0.298612,-2.352799 -1.16264,-2.849926 -3.097532,-0.945117 -6.69533,-0.959802 -9.887496,-0.612268 -4.0572,0.522748 -7.569712,3.445003 -9.216912,7.204458 -1.544314,3.239462 -1.691506,6.961104 -1.378888,10.4878 0.585692,5.008182 3.985616,9.641986 8.723462,11.291022 2.965754,1.126144 6.215274,0.875408 9.288212,0.444866 z"
       id="path4" />
    <path
       style="opacity:0.2;fill:#ffffff"
       d="m 33.719974,16.897556 c -0.632401,-0.01473 -1.264682,-0.0089 -1.890625,0.01563 -0.83459,0.03273 -1.658989,0.09671 -2.457031,0.183593 -4.0572,0.522748 -7.57155,3.447576 -9.21875,7.207031 -1.11362,2.336009 -1.45865,4.919366 -1.464844,7.501954 0.09212,-2.245469 0.495107,-4.467766 1.464844,-6.501954 1.6472,-3.759455 5.16155,-6.684283 9.21875,-7.207031 0.798042,-0.08688 1.622441,-0.150863 2.457031,-0.183593 2.503772,-0.09818 5.106541,0.08804 7.429688,0.796874 0.787378,0.267871 1.130198,0.754837 1.246093,1.31836 0.130034,-0.953445 -0.01521,-1.899607 -1.246093,-2.31836 -1.74236,-0.531628 -3.641859,-0.768319 -5.539063,-0.8125 z m -7.410156,15.285157 c -0.04244,0.488046 -0.04072,0.991936 -0.01953,1.5 0.0069,-0.166693 0.0053,-0.336183 0.01953,-0.5 0.191076,2.292274 0.970535,4.646206 2.152343,6.316406 2.022445,2.366406 5.417394,2.95937 8.300782,2.191406 1.007126,-0.174772 2.671086,-1.112748 2.96875,0.464844 0.375537,1.110357 0.775866,1.942155 0.880859,2.955078 0.140185,-1.524301 -0.390214,-2.504381 -0.880859,-3.955078 -0.297664,-1.577592 -1.961624,-0.639616 -2.96875,-0.464844 -2.883388,0.767964 -6.278337,0.175 -8.300782,-2.191406 -1.181808,-1.6702 -1.961267,-4.024132 -2.152343,-6.316406 z"
       id="path6" />
  </g>
</svg>
