<?xml version="1.0" encoding="UTF-8" standalone="no"?>
<svg
   width="62"
   height="62"
   viewBox="0 0 16.404166 16.404167"
   version="1.1"
   id="svg1443"
   inkscape:version="1.4 (unknown)"
   sodipodi:docname="jpexs-decompiler.svg"
   xmlns:inkscape="http://www.inkscape.org/namespaces/inkscape"
   xmlns:sodipodi="http://sodipodi.sourceforge.net/DTD/sodipodi-0.dtd"
   xmlns:xlink="http://www.w3.org/1999/xlink"
   xmlns="http://www.w3.org/2000/svg"
   xmlns:svg="http://www.w3.org/2000/svg"
   xmlns:rdf="http://www.w3.org/1999/02/22-rdf-syntax-ns#"
   xmlns:cc="http://creativecommons.org/ns#"
   xmlns:dc="http://purl.org/dc/elements/1.1/">
  <defs
     id="defs1437">
    <linearGradient
       gradientTransform="matrix(0.4711726,0,0,0.47114666,-53.953909,-18.000765)"
       gradientUnits="userSpaceOnUse"
       y2="70.679932"
       x2="132.21078"
       y1="42.151531"
       x1="132.21078"
       id="linearGradient1632"
       xlink:href="#linearGradient1630"
       inkscape:collect="always" />
    <linearGradient
       id="linearGradient1630"
       inkscape:collect="always">
      <stop
         id="stop1626"
         offset="0"
         style="stop-color:#fafafc;stop-opacity:1" />
      <stop
         id="stop1628"
         offset="1"
         style="stop-color:#e2e6ea;stop-opacity:1" />
    </linearGradient>
    <filter
       color-interpolation-filters="sRGB"
       height="1.1311001"
       width="1.1106"
       y="-0.065563001"
       x="-0.055319"
       id="c-9">
      <feGaussianBlur
         id="feGaussianBlur1093"
         stdDeviation="1.1062912" />
    </filter>
    <linearGradient
       gradientUnits="userSpaceOnUse"
       gradientTransform="matrix(0.13235,0,0,0.13075,-32.379,1.0873)"
       y2="269.48999"
       y1="235.14999"
       x2="657.65002"
       x1="319.20999"
       id="a-12">
      <stop
         id="stop1076"
         offset="0"
         stop-color="#e54c18" />
      <stop
         id="stop1078"
         offset="1"
         stop-color="#fec350" />
    </linearGradient>
    <linearGradient
       xlink:href="#a-7"
       id="c-36"
       x1="8.6850004"
       x2="8.7620001"
       y1="16.868999"
       y2="4.5339999"
       gradientTransform="matrix(1.0634748,0,0,1.0634748,-0.80999368,1.8113865)"
       gradientUnits="userSpaceOnUse" />
    <linearGradient
       id="a-7">
      <stop
         offset="0"
         style="stop-color:#2369ff;stop-opacity:1;"
         id="stop8" />
      <stop
         offset="1"
         style="stop-color:#7fa8ff;stop-opacity:1"
         id="stop10" />
    </linearGradient>
  </defs>
  <sodipodi:namedview
     id="base"
     pagecolor="#ffffff"
     bordercolor="#666666"
     borderopacity="1.0"
     inkscape:pageopacity="0.0"
     inkscape:pageshadow="2"
     inkscape:zoom="5.6"
     inkscape:cx="19.821429"
     inkscape:cy="52.053571"
     inkscape:document-units="px"
     inkscape:current-layer="layer1"
     inkscape:document-rotation="0"
     showgrid="false"
     units="px"
     inkscape:window-width="1920"
     inkscape:window-height="996"
     inkscape:window-x="0"
     inkscape:window-y="0"
     inkscape:window-maximized="1"
     inkscape:showpageshadow="2"
     inkscape:pagecheckerboard="0"
     inkscape:deskcolor="#d1d1d1">
    <inkscape:grid
       id="grid1"
       units="px"
       originx="0"
       originy="0"
       spacingx="0.26458332"
       spacingy="0.26458334"
       empcolor="#0099e5"
       empopacity="0.30196078"
       color="#0099e5"
       opacity="0.14901961"
       empspacing="5"
       enabled="true"
       visible="false" />
  </sodipodi:namedview>
  <metadata
     id="metadata1440">
    <rdf:RDF>
      <cc:Work
         rdf:about="">
        <dc:format>image/svg+xml</dc:format>
        <dc:type
           rdf:resource="http://purl.org/dc/dcmitype/StillImage" />
      </cc:Work>
    </rdf:RDF>
  </metadata>
  <g
     inkscape:label="Capa 1"
     inkscape:groupmode="layer"
     id="layer1">
    <g
       style="opacity:0.295"
       transform="matrix(0.47117252,0,0,0.47114656,-31.72741,-18.000762)"
       id="g1702">
      <rect
         ry="6.6098609"
         rx="6.6098609"
         y="40.709618"
         x="69.839508"
         height="29.810888"
         width="29.810888"
         id="rect1634"
         style="fill:none;fill-opacity:1;stroke:#000000;stroke-width:0.1;stroke-linecap:round;stroke-linejoin:round;stroke-miterlimit:4;stroke-dasharray:none;stroke-opacity:0.02" />
      <rect
         style="fill:none;fill-opacity:1;stroke:#000000;stroke-width:0.2;stroke-linecap:round;stroke-linejoin:round;stroke-miterlimit:4;stroke-dasharray:none;stroke-opacity:0.02"
         id="rect1638"
         width="29.810888"
         height="29.810888"
         x="69.839508"
         y="40.709618"
         rx="6.6098609"
         ry="6.6098609" />
      <rect
         ry="6.6098609"
         rx="6.6098609"
         y="40.709618"
         x="69.839508"
         height="29.810888"
         width="29.810888"
         id="rect1640"
         style="fill:none;fill-opacity:1;stroke:#000000;stroke-width:0.3;stroke-linecap:round;stroke-linejoin:round;stroke-miterlimit:4;stroke-dasharray:none;stroke-opacity:0.02" />
      <rect
         style="fill:none;fill-opacity:1;stroke:#000000;stroke-width:0.4;stroke-linecap:round;stroke-linejoin:round;stroke-miterlimit:4;stroke-dasharray:none;stroke-opacity:0.02"
         id="rect1642"
         width="29.810888"
         height="29.810888"
         x="69.839508"
         y="40.709618"
         rx="6.6098609"
         ry="6.6098609" />
      <rect
         ry="6.6098609"
         rx="6.6098609"
         y="40.709618"
         x="69.839508"
         height="29.810888"
         width="29.810888"
         id="rect1644"
         style="fill:none;fill-opacity:1;stroke:#000000;stroke-width:0.5;stroke-linecap:round;stroke-linejoin:round;stroke-miterlimit:4;stroke-dasharray:none;stroke-opacity:0.02" />
      <rect
         style="fill:none;fill-opacity:1;stroke:#000000;stroke-width:0.6;stroke-linecap:round;stroke-linejoin:round;stroke-miterlimit:4;stroke-dasharray:none;stroke-opacity:0.02"
         id="rect1646"
         width="29.810888"
         height="29.810888"
         x="69.839508"
         y="40.709618"
         rx="6.6098609"
         ry="6.6098609" />
      <rect
         ry="6.6098609"
         rx="6.6098609"
         y="40.709618"
         x="69.839508"
         height="29.810888"
         width="29.810888"
         id="rect1648"
         style="fill:none;fill-opacity:1;stroke:#000000;stroke-width:0.7;stroke-linecap:round;stroke-linejoin:round;stroke-miterlimit:4;stroke-dasharray:none;stroke-opacity:0.02" />
      <rect
         style="fill:none;fill-opacity:1;stroke:#000000;stroke-width:0.8;stroke-linecap:round;stroke-linejoin:round;stroke-miterlimit:4;stroke-dasharray:none;stroke-opacity:0.02"
         id="rect1650"
         width="29.810888"
         height="29.810888"
         x="69.839508"
         y="40.709618"
         rx="6.6098609"
         ry="6.6098609" />
      <rect
         ry="6.6098609"
         rx="6.6098609"
         y="40.709618"
         x="69.839508"
         height="29.810888"
         width="29.810888"
         id="rect1652"
         style="fill:none;fill-opacity:1;stroke:#000000;stroke-width:1;stroke-linecap:round;stroke-linejoin:round;stroke-miterlimit:4;stroke-dasharray:none;stroke-opacity:0.02" />
      <rect
         style="fill:none;fill-opacity:1;stroke:#000000;stroke-width:1.2;stroke-linecap:round;stroke-linejoin:round;stroke-miterlimit:4;stroke-dasharray:none;stroke-opacity:0.02"
         id="rect1654"
         width="29.810888"
         height="29.810888"
         x="69.839508"
         y="40.709618"
         rx="6.6098609"
         ry="6.6098609" />
      <rect
         ry="6.6098609"
         rx="6.6098609"
         y="40.709618"
         x="69.839508"
         height="29.810888"
         width="29.810888"
         id="rect1656"
         style="fill:none;fill-opacity:1;stroke:#000000;stroke-width:1.4;stroke-linecap:round;stroke-linejoin:round;stroke-miterlimit:4;stroke-dasharray:none;stroke-opacity:0.02" />
      <rect
         style="fill:none;fill-opacity:1;stroke:#000000;stroke-width:1.6;stroke-linecap:round;stroke-linejoin:round;stroke-miterlimit:4;stroke-dasharray:none;stroke-opacity:0.02"
         id="rect1658"
         width="29.810888"
         height="29.810888"
         x="69.839508"
         y="40.709618"
         rx="6.6098609"
         ry="6.6098609" />
      <rect
         ry="6.6098609"
         rx="6.6098609"
         y="40.709618"
         x="69.839508"
         height="29.810888"
         width="29.810888"
         id="rect1660"
         style="fill:none;fill-opacity:1;stroke:#000000;stroke-width:1.8;stroke-linecap:round;stroke-linejoin:round;stroke-miterlimit:4;stroke-dasharray:none;stroke-opacity:0.02" />
      <rect
         style="fill:none;fill-opacity:1;stroke:#000000;stroke-width:2;stroke-linecap:round;stroke-linejoin:round;stroke-miterlimit:4;stroke-dasharray:none;stroke-opacity:0.02"
         id="rect1662"
         width="29.810888"
         height="29.810888"
         x="69.839508"
         y="40.709618"
         rx="6.6098609"
         ry="6.6098609" />
      <rect
         ry="6.6098609"
         rx="6.6098609"
         y="40.709618"
         x="69.839508"
         height="29.810888"
         width="29.810888"
         id="rect1664"
         style="fill:none;fill-opacity:1;stroke:#000000;stroke-width:2.2;stroke-linecap:round;stroke-linejoin:round;stroke-miterlimit:4;stroke-dasharray:none;stroke-opacity:0.02" />
      <rect
         style="fill:none;fill-opacity:1;stroke:#000000;stroke-width:2.6;stroke-linecap:round;stroke-linejoin:round;stroke-miterlimit:4;stroke-dasharray:none;stroke-opacity:0.02"
         id="rect1666"
         width="29.810888"
         height="29.810888"
         x="69.839508"
         y="40.709618"
         rx="6.6098609"
         ry="6.6098609" />
      <rect
         ry="6.6098609"
         rx="6.6098609"
         y="40.709618"
         x="69.839508"
         height="29.810888"
         width="29.810888"
         id="rect1668"
         style="fill:none;fill-opacity:1;stroke:#000000;stroke-width:3;stroke-linecap:round;stroke-linejoin:round;stroke-miterlimit:4;stroke-dasharray:none;stroke-opacity:0.02" />
      <rect
         style="fill:none;fill-opacity:1;stroke:#000000;stroke-width:3.4;stroke-linecap:round;stroke-linejoin:round;stroke-miterlimit:4;stroke-dasharray:none;stroke-opacity:0.02"
         id="rect1670"
         width="29.810888"
         height="29.810888"
         x="69.839508"
         y="40.709618"
         rx="6.6098609"
         ry="6.6098609" />
      <rect
         ry="6.6098609"
         rx="6.6098609"
         y="40.709618"
         x="69.839508"
         height="29.810888"
         width="29.810888"
         id="rect1672"
         style="fill:none;fill-opacity:1;stroke:#000000;stroke-width:3.8;stroke-linecap:round;stroke-linejoin:round;stroke-miterlimit:4;stroke-dasharray:none;stroke-opacity:0.02" />
      <rect
         style="fill:none;fill-opacity:1;stroke:#000000;stroke-width:4.2;stroke-linecap:round;stroke-linejoin:round;stroke-miterlimit:4;stroke-dasharray:none;stroke-opacity:0.02"
         id="rect1674"
         width="29.810888"
         height="29.810888"
         x="69.839508"
         y="40.709618"
         rx="6.6098609"
         ry="6.6098609" />
      <rect
         ry="6.6098609"
         rx="6.6098609"
         y="40.709618"
         x="69.839508"
         height="29.810888"
         width="29.810888"
         id="rect1676"
         style="fill:none;fill-opacity:1;stroke:#000000;stroke-width:4.6;stroke-linecap:round;stroke-linejoin:round;stroke-miterlimit:4;stroke-dasharray:none;stroke-opacity:0.02" />
      <rect
         style="fill:none;fill-opacity:1;stroke:#000000;stroke-width:5;stroke-linecap:round;stroke-linejoin:round;stroke-miterlimit:4;stroke-dasharray:none;stroke-opacity:0.02"
         id="rect1678"
         width="29.810888"
         height="29.810888"
         x="69.839508"
         y="40.709618"
         rx="6.6098609"
         ry="6.6098609" />
    </g>
    <rect
       ry="3.1142132"
       rx="3.1143851"
       y="1.1794344"
       x="1.1790471"
       height="14.045296"
       width="14.04607"
       id="rect849"
       style="fill:url(#linearGradient1632);fill-opacity:1;stroke-width:1.29783;stroke-linecap:round;stroke-linejoin:round" />
    <g
       id="g1"
       transform="translate(-0.13215173,-0.14177347)">
      <path
         style="opacity:0.1;stroke-width:0.272495"
         d="m 5.0077568,3.8533437 c 0,0 -0.1471014,8.169e-4 -0.1737238,0.1690293 L 3.9686103,9.1155826 c 0,0 0.00564,0.1641217 0.1513424,0.1807233 h 0.7332647 c 0.1684032,0.0071 0.2323422,-0.1902914 0.2323422,-0.1902914 L 5.4255473,7.1191208 h 1.516621 C 7.139613,7.1380268 7.173445,7.0011187 7.173445,7.0011187 l 0.067144,-0.744155 c 0,0 0.027582,-0.2185835 -0.159869,-0.2264349 H 5.6280475 L 5.7836532,4.9419355 H 7.8789987 C 8.0928139,4.9476979 8.1305254,4.7697178 8.1305254,4.7697178 L 8.3340917,4.027689 c 0,0 0.015524,-0.1713334 -0.1822502,-0.1743453 z m 4.3654815,0 c 0,0 -0.1471025,8.169e-4 -0.1737239,0.1690293 L 8.3340917,9.1155826 c 0,0 0.00564,0.1641217 0.1513426,0.1807233 h 0.7332645 c 0.1684039,0.0071 0.2323424,-0.1902914 0.2323424,-0.1902914 L 9.7910288,7.1191208 h 1.5166202 c 0.197444,0.018907 0.231278,-0.1180021 0.231278,-0.1180021 l 0.06718,-0.744155 c 0,0 0.02762,-0.2185835 -0.15987,-0.2264349 H 9.9935288 L 10.149133,4.9419355 h 2.095349 c 0.213811,0.0058 0.251528,-0.1722177 0.251528,-0.1722177 L 12.699575,4.027689 c 0,0 0.0155,-0.1713334 -0.182252,-0.1743453 z M 6.5616807,9.8406013 c -0.040843,1.75e-4 -0.072162,0.01056 -0.067144,0.064841 C 6.4135847,10.283934 6.277116,10.983405 6.277116,10.983405 6.19579,10.913675 6.1320607,10.790332 6.0255889,10.729328 c -0.220797,-0.13276 -0.5156555,-0.10058 -0.7417907,0.0036 -0.4004534,0.207184 -0.619396,0.623674 -0.7172774,1.031186 -0.065073,0.305403 -0.089772,0.704508 0.051159,0.994506 0.1082443,0.219775 0.3586851,0.35249 0.6106983,0.347629 0.1435789,1.77e-4 0.2899999,-0.02485 0.4156585,-0.09356 0.1264544,-0.05843 0.2185112,-0.179196 0.3240006,-0.249823 -0.013877,0.100319 -0.027692,0.200544 -0.041564,0.300853 H 6.4455098 L 7.189432,9.8427275 H 6.6053779 c -0.01463,-0.00111 -0.030079,-0.00219 -0.043697,-0.00219 z m 2.2157802,0.5442997 c -0.2515254,0 -0.4738942,0.04839 -0.6650536,0.144576 -0.1911587,0.09296 -0.3509443,0.219264 -0.4817377,0.379516 -0.1274392,0.160256 -0.2249538,0.343426 -0.2920271,0.548551 -0.063721,0.20192 -0.095923,0.413511 -0.095923,0.634657 0,0.339741 0.1014634,0.594484 0.3026846,0.764353 0.2012194,0.166664 0.4624703,0.249825 0.7844226,0.249825 0.197867,0 0.3704124,-0.01575 0.5179744,-0.04781 0.1475606,-0.03527 0.2927671,-0.08683 0.4369747,-0.154147 v -0.534728 c -0.1609772,0.07055 -0.3004114,0.123158 -0.4177903,0.155209 -0.1173781,0.03206 -0.246938,0.04677 -0.3911456,0.04677 -0.1542691,0 -0.2762386,-0.041 -0.3634346,-0.124385 C 8.0285663,12.363958 7.987708,12.255565 7.987708,12.114541 v -0.04254 c 0,-0.01602 0.00199,-0.03388 0.00529,-0.05318 h 0.1257595 c 0.5332332,0 0.9290585,-0.0054 1.1872916,-0.172217 0.2615701,-0.166659 0.3922114,-0.470646 0.3922114,-0.74628 0,-0.208331 -0.077005,-0.378855 -0.2312765,-0.513467 -0.1508947,-0.1346 -0.380992,-0.201972 -0.6895292,-0.201971 z m 2.7753201,0 c -0.251748,0 -0.475489,0.04632 -0.672513,0.139258 -0.197025,0.09298 -0.363795,0.221354 -0.498792,0.384834 -0.134995,0.163484 -0.236557,0.350808 -0.305882,0.56237 -0.06932,0.208357 -0.1044467,0.43147 -0.1044467,0.668678 0,0.230799 0.04963,0.41601 0.1481467,0.557052 0.09849,0.141043 0.230772,0.245229 0.398605,0.312544 0.17148,0.06414 0.359485,0.09675 0.563803,0.09675 0.18608,0 0.351168,-0.01688 0.493461,-0.04894 0.145944,-0.03527 0.28095,-0.08047 0.404998,-0.138201 v -0.577249 c -0.124048,0.05448 -0.245613,0.100802 -0.362368,0.139264 -0.113104,0.03527 -0.236962,0.05204 -0.371958,0.05204 -0.145948,0 -0.258655,-0.03787 -0.338922,-0.114809 -0.08024,-0.07689 -0.120435,-0.189543 -0.120435,-0.336996 0,-0.185918 0.03178,-0.363772 0.0938,-0.533665 0.06201,-0.173098 0.152436,-0.314122 0.272841,-0.423103 0.120404,-0.112197 0.264879,-0.16797 0.432712,-0.16797 0.116753,0 0.219996,0.01473 0.311211,0.04357 0.09483,0.02563 0.189707,0.0562 0.284568,0.09139 l 0.247266,-0.538978 c -0.124054,-0.05447 -0.257383,-0.09555 -0.399678,-0.124382 -0.138643,-0.02884 -0.297626,-0.04357 -0.476407,-0.04357 z m -2.8382017,0.50921 c 0.00571,-2.14e-4 0.011399,0 0.01705,0 0.1710363,0 0.2568559,0.07368 0.2568559,0.221121 0,0.112179 -0.063339,0.294047 -0.1907766,0.380579 -0.1240856,0.08332 -0.3288339,0.125449 -0.6138952,0.125449 h -0.110841 c 0.030185,-0.128201 0.078943,-0.322703 0.1460135,-0.418856 0.070427,-0.09618 0.1503201,-0.171948 0.2408688,-0.226436 0.084889,-0.05106 0.1698289,-0.07865 0.2547246,-0.08188 z m -2.836071,0.29979 c 0.1634565,-0.0046 0.2957321,0.128386 0.3069481,0.271086 0.017532,0.236696 -0.048068,0.530163 -0.1470792,0.748407 -0.079286,0.165322 -0.2231452,0.354986 -0.4486983,0.348687 -0.1377746,0.006 -0.2623503,-0.0699 -0.2909608,-0.193475 -0.052019,-0.240173 0.00941,-0.545484 0.105513,-0.770734 0.082554,-0.173011 0.2159615,-0.369559 0.4412377,-0.401843 0.01115,-0.0015 0.022137,-0.0017 0.033041,-0.0021 z"
         id="path2-3" />
      <path
         style="fill:#c83771;stroke-width:0.272495"
         d="m 6.5616807,9.5685832 c -0.040843,1.739e-4 -0.072162,0.01056 -0.067144,0.064841 C 6.4135847,10.011913 6.2771153,10.71113 6.2771153,10.71113 6.1957903,10.64139 6.1320599,10.51805 6.0255883,10.457052 c -0.220797,-0.132764 -0.5156555,-0.100069 -0.7417907,0.0041 -0.4004534,0.207181 -0.619396,0.623673 -0.7172774,1.031186 -0.065074,0.305401 -0.089772,0.704233 0.051159,0.994237 0.1082443,0.219769 0.3586851,0.352496 0.6106984,0.34763 0.1435791,1.83e-4 0.2899995,-0.02485 0.4156581,-0.09356 0.1264545,-0.05843 0.2185112,-0.179188 0.3240006,-0.249817 -0.013877,0.100319 -0.027691,0.200545 -0.041563,0.300846 H 6.4455104 L 7.1894331,9.5706863 H 6.6053789 c -0.014631,-0.0011 -0.03008,-0.0022 -0.043698,-0.0022 z m 2.2157802,0.5442958 c -0.2515254,0 -0.4738942,0.04842 -0.6650536,0.144582 -0.1911587,0.09296 -0.3509439,0.219265 -0.4817375,0.379518 -0.1274392,0.160251 -0.2249543,0.343425 -0.2920273,0.548548 -0.063721,0.201914 -0.095923,0.413507 -0.095923,0.634655 0,0.339737 0.1014634,0.59449 0.3026848,0.764358 0.2012194,0.166661 0.4624704,0.249822 0.7844227,0.249822 0.1978669,0 0.3704121,-0.01575 0.5179741,-0.04781 0.1475604,-0.03527 0.2927673,-0.08683 0.436975,-0.154148 v -0.534735 c -0.1609772,0.07054 -0.3004119,0.123159 -0.4177909,0.155209 -0.1173781,0.03206 -0.2469374,0.04678 -0.3911449,0.04678 -0.1542692,0 -0.276239,-0.04103 -0.363435,-0.124379 -0.083839,-0.08332 -0.1246979,-0.191926 -0.1246979,-0.33295 v -0.04254 c 0,-0.01605 0.00201,-0.0339 0.00531,-0.05318 h 0.125763 c 0.5332332,0 0.9290586,-0.0054 1.1872917,-0.172215 0.2615698,-0.166661 0.392193,-0.47044 0.392193,-0.746078 0,-0.208325 -0.077006,-0.378851 -0.2312768,-0.513465 C 9.3160716,10.180248 9.085974,10.112878 8.7774372,10.112878 Z m 2.7753201,0 c -0.251748,0 -0.475489,0.04631 -0.672512,0.139265 -0.197026,0.09298 -0.363796,0.221355 -0.498793,0.384835 -0.134995,0.16348 -0.236557,0.350802 -0.305882,0.562368 -0.06932,0.208358 -0.1044467,0.431462 -0.1044467,0.668672 0,0.230798 0.04963,0.416013 0.1481467,0.557058 0.09849,0.141038 0.230772,0.245229 0.398605,0.312545 0.17148,0.06414 0.359485,0.09675 0.563803,0.09675 0.18608,0 0.351168,-0.01688 0.493461,-0.04893 0.145944,-0.03527 0.28095,-0.08047 0.404998,-0.1382 V 12.06999 c -0.124048,0.05447 -0.245613,0.100802 -0.362368,0.139266 -0.113104,0.03527 -0.236961,0.05205 -0.371958,0.05205 -0.145947,0 -0.258654,-0.03787 -0.338922,-0.114814 -0.08024,-0.07689 -0.120435,-0.189545 -0.120435,-0.336994 0,-0.185924 0.03178,-0.363777 0.0938,-0.533668 0.06201,-0.173094 0.152436,-0.314115 0.272841,-0.423105 0.120404,-0.112188 0.264879,-0.167964 0.432712,-0.167964 0.116753,0 0.219996,0.01473 0.311211,0.04358 0.09483,0.02563 0.189707,0.0562 0.284568,0.09138 l 0.247266,-0.538969 c -0.124054,-0.05448 -0.257383,-0.09556 -0.399678,-0.124382 -0.138642,-0.02885 -0.297626,-0.04358 -0.476407,-0.04358 z m -2.8382014,0.509212 c 0.00571,-2.11e-4 0.011399,0 0.01705,0 0.1710364,0 0.2568557,0.07373 0.2568557,0.221126 0,0.112173 -0.06334,0.293837 -0.1907769,0.380373 -0.1240861,0.08332 -0.3288344,0.125446 -0.6138958,0.125446 H 8.0729719 c 0.030185,-0.128201 0.078943,-0.322496 0.1460135,-0.418648 0.070427,-0.09618 0.1503207,-0.171954 0.2408691,-0.226435 0.084889,-0.05106 0.1698292,-0.07865 0.2547248,-0.08188 z m -2.8360713,0.29953 c 0.1634565,-0.0046 0.2957321,0.128389 0.3069481,0.271084 0.017532,0.236701 -0.048068,0.530431 -0.1470792,0.748669 -0.079286,0.165318 -0.2231452,0.354985 -0.4486983,0.348692 -0.1377746,0.006 -0.2623503,-0.06992 -0.2909608,-0.193483 -0.052019,-0.240172 0.00941,-0.545745 0.1055127,-0.77099 0.082554,-0.173011 0.2159618,-0.369558 0.441238,-0.401848 0.01115,-0.0015 0.02214,-0.0017 0.033042,-0.0021 z"
         id="path3-6" />
      <path
         style="fill:#00aaff;stroke-width:0.272495;fill-opacity:1"
         d="m 5.0077568,3.5813245 c 0,0 -0.1471014,8.17e-4 -0.1737238,0.1690293 L 3.9686103,8.8435633 c 0,0 0.00564,0.1641228 0.1513424,0.1807235 h 0.7332647 c 0.1684034,0.0071 0.2323422,-0.1902914 0.2323422,-0.1902914 L 5.4255473,6.8471017 h 1.516621 C 7.139613,6.8660067 7.173445,6.7290995 7.173445,6.7290995 L 7.240588,5.9849457 c 0,0 0.027582,-0.2185836 -0.159869,-0.226436 H 5.6280479 L 5.7836533,4.6699174 H 7.878999 C 8.0928143,4.6756874 8.1305255,4.4976985 8.1305255,4.4976985 L 8.3340917,3.7556699 c 0,0 0.015524,-0.1713334 -0.1822499,-0.1743454 z m 4.3654815,0 c 0,0 -0.1471022,8.17e-4 -0.1737236,0.1690293 l -0.865423,5.0932095 c 0,0 0.00564,0.1641228 0.1513426,0.1807235 h 0.7332645 c 0.1684039,0.0071 0.2323424,-0.1902914 0.2323424,-0.1902914 L 9.7910288,6.8471017 h 1.5166202 c 0.197444,0.018907 0.231278,-0.1180022 0.231278,-0.1180022 l 0.06718,-0.7441538 c 0,0 0.02762,-0.2185836 -0.15987,-0.226436 H 9.993529 l 0.155604,-1.0885923 h 2.095349 c 0.213811,0.0058 0.251528,-0.1722189 0.251528,-0.1722189 l 0.203565,-0.7420286 c 0,0 0.0155,-0.1713334 -0.182251,-0.1743454 z"
         id="path4" />
    </g>
  </g>
</svg>
