<?xml version="1.0" encoding="UTF-8" standalone="no"?>
<svg
   width="62"
   height="62"
   viewBox="0 0 16.404166 16.404167"
   version="1.1"
   id="svg1443"
   inkscape:version="1.4 (unknown)"
   sodipodi:docname="nordvpn.svg"
   xmlns:inkscape="http://www.inkscape.org/namespaces/inkscape"
   xmlns:sodipodi="http://sodipodi.sourceforge.net/DTD/sodipodi-0.dtd"
   xmlns:xlink="http://www.w3.org/1999/xlink"
   xmlns="http://www.w3.org/2000/svg"
   xmlns:svg="http://www.w3.org/2000/svg"
   xmlns:rdf="http://www.w3.org/1999/02/22-rdf-syntax-ns#"
   xmlns:cc="http://creativecommons.org/ns#"
   xmlns:dc="http://purl.org/dc/elements/1.1/">
  <defs
     id="defs1437">
    <linearGradient
       gradientTransform="matrix(0.4711726,0,0,0.47114666,-53.953909,-18.000765)"
       gradientUnits="userSpaceOnUse"
       y2="70.679932"
       x2="132.21078"
       y1="42.151531"
       x1="132.21078"
       id="linearGradient1632"
       xlink:href="#linearGradient1630"
       inkscape:collect="always" />
    <linearGradient
       id="linearGradient1630"
       inkscape:collect="always">
      <stop
         id="stop1626"
         offset="0"
         style="stop-color:#fafafc;stop-opacity:1" />
      <stop
         id="stop1628"
         offset="1"
         style="stop-color:#e2e6ea;stop-opacity:1" />
    </linearGradient>
    <filter
       color-interpolation-filters="sRGB"
       height="1.1311001"
       width="1.1106"
       y="-0.065563001"
       x="-0.055319"
       id="c-9">
      <feGaussianBlur
         id="feGaussianBlur1093"
         stdDeviation="1.1062912" />
    </filter>
    <linearGradient
       gradientUnits="userSpaceOnUse"
       gradientTransform="matrix(0.13235,0,0,0.13075,-32.379,1.0873)"
       y2="269.48999"
       y1="235.14999"
       x2="657.65002"
       x1="319.20999"
       id="a-12">
      <stop
         id="stop1076"
         offset="0"
         stop-color="#e54c18" />
      <stop
         id="stop1078"
         offset="1"
         stop-color="#fec350" />
    </linearGradient>
    <linearGradient
       xlink:href="#a-7"
       id="c-36"
       x1="8.6850004"
       x2="8.7620001"
       y1="16.868999"
       y2="4.5339999"
       gradientTransform="matrix(1.0634748,0,0,1.0634748,-0.80999368,1.8113865)"
       gradientUnits="userSpaceOnUse" />
    <linearGradient
       id="a-7">
      <stop
         offset="0"
         style="stop-color:#2369ff;stop-opacity:1;"
         id="stop8" />
      <stop
         offset="1"
         style="stop-color:#7fa8ff;stop-opacity:1"
         id="stop10" />
    </linearGradient>
  </defs>
  <sodipodi:namedview
     id="base"
     pagecolor="#ffffff"
     bordercolor="#666666"
     borderopacity="1.0"
     inkscape:pageopacity="0.0"
     inkscape:pageshadow="2"
     inkscape:zoom="11.2"
     inkscape:cx="23.973214"
     inkscape:cy="29.0625"
     inkscape:document-units="px"
     inkscape:current-layer="layer1"
     inkscape:document-rotation="0"
     showgrid="false"
     units="px"
     inkscape:window-width="1920"
     inkscape:window-height="996"
     inkscape:window-x="0"
     inkscape:window-y="0"
     inkscape:window-maximized="1"
     inkscape:showpageshadow="2"
     inkscape:pagecheckerboard="0"
     inkscape:deskcolor="#d1d1d1">
    <inkscape:grid
       id="grid1"
       units="px"
       originx="0"
       originy="0"
       spacingx="0.26458332"
       spacingy="0.26458334"
       empcolor="#0099e5"
       empopacity="0.30196078"
       color="#0099e5"
       opacity="0.14901961"
       empspacing="5"
       enabled="true"
       visible="false" />
  </sodipodi:namedview>
  <metadata
     id="metadata1440">
    <rdf:RDF>
      <cc:Work
         rdf:about="">
        <dc:format>image/svg+xml</dc:format>
        <dc:type
           rdf:resource="http://purl.org/dc/dcmitype/StillImage" />
      </cc:Work>
    </rdf:RDF>
  </metadata>
  <g
     inkscape:label="Capa 1"
     inkscape:groupmode="layer"
     id="layer1">
    <g
       style="opacity:0.295"
       transform="matrix(0.47117252,0,0,0.47114656,-31.72741,-18.000762)"
       id="g1702">
      <rect
         ry="6.6098609"
         rx="6.6098609"
         y="40.709618"
         x="69.839508"
         height="29.810888"
         width="29.810888"
         id="rect1634"
         style="fill:none;fill-opacity:1;stroke:#000000;stroke-width:0.1;stroke-linecap:round;stroke-linejoin:round;stroke-miterlimit:4;stroke-dasharray:none;stroke-opacity:0.02" />
      <rect
         style="fill:none;fill-opacity:1;stroke:#000000;stroke-width:0.2;stroke-linecap:round;stroke-linejoin:round;stroke-miterlimit:4;stroke-dasharray:none;stroke-opacity:0.02"
         id="rect1638"
         width="29.810888"
         height="29.810888"
         x="69.839508"
         y="40.709618"
         rx="6.6098609"
         ry="6.6098609" />
      <rect
         ry="6.6098609"
         rx="6.6098609"
         y="40.709618"
         x="69.839508"
         height="29.810888"
         width="29.810888"
         id="rect1640"
         style="fill:none;fill-opacity:1;stroke:#000000;stroke-width:0.3;stroke-linecap:round;stroke-linejoin:round;stroke-miterlimit:4;stroke-dasharray:none;stroke-opacity:0.02" />
      <rect
         style="fill:none;fill-opacity:1;stroke:#000000;stroke-width:0.4;stroke-linecap:round;stroke-linejoin:round;stroke-miterlimit:4;stroke-dasharray:none;stroke-opacity:0.02"
         id="rect1642"
         width="29.810888"
         height="29.810888"
         x="69.839508"
         y="40.709618"
         rx="6.6098609"
         ry="6.6098609" />
      <rect
         ry="6.6098609"
         rx="6.6098609"
         y="40.709618"
         x="69.839508"
         height="29.810888"
         width="29.810888"
         id="rect1644"
         style="fill:none;fill-opacity:1;stroke:#000000;stroke-width:0.5;stroke-linecap:round;stroke-linejoin:round;stroke-miterlimit:4;stroke-dasharray:none;stroke-opacity:0.02" />
      <rect
         style="fill:none;fill-opacity:1;stroke:#000000;stroke-width:0.6;stroke-linecap:round;stroke-linejoin:round;stroke-miterlimit:4;stroke-dasharray:none;stroke-opacity:0.02"
         id="rect1646"
         width="29.810888"
         height="29.810888"
         x="69.839508"
         y="40.709618"
         rx="6.6098609"
         ry="6.6098609" />
      <rect
         ry="6.6098609"
         rx="6.6098609"
         y="40.709618"
         x="69.839508"
         height="29.810888"
         width="29.810888"
         id="rect1648"
         style="fill:none;fill-opacity:1;stroke:#000000;stroke-width:0.7;stroke-linecap:round;stroke-linejoin:round;stroke-miterlimit:4;stroke-dasharray:none;stroke-opacity:0.02" />
      <rect
         style="fill:none;fill-opacity:1;stroke:#000000;stroke-width:0.8;stroke-linecap:round;stroke-linejoin:round;stroke-miterlimit:4;stroke-dasharray:none;stroke-opacity:0.02"
         id="rect1650"
         width="29.810888"
         height="29.810888"
         x="69.839508"
         y="40.709618"
         rx="6.6098609"
         ry="6.6098609" />
      <rect
         ry="6.6098609"
         rx="6.6098609"
         y="40.709618"
         x="69.839508"
         height="29.810888"
         width="29.810888"
         id="rect1652"
         style="fill:none;fill-opacity:1;stroke:#000000;stroke-width:1;stroke-linecap:round;stroke-linejoin:round;stroke-miterlimit:4;stroke-dasharray:none;stroke-opacity:0.02" />
      <rect
         style="fill:none;fill-opacity:1;stroke:#000000;stroke-width:1.2;stroke-linecap:round;stroke-linejoin:round;stroke-miterlimit:4;stroke-dasharray:none;stroke-opacity:0.02"
         id="rect1654"
         width="29.810888"
         height="29.810888"
         x="69.839508"
         y="40.709618"
         rx="6.6098609"
         ry="6.6098609" />
      <rect
         ry="6.6098609"
         rx="6.6098609"
         y="40.709618"
         x="69.839508"
         height="29.810888"
         width="29.810888"
         id="rect1656"
         style="fill:none;fill-opacity:1;stroke:#000000;stroke-width:1.4;stroke-linecap:round;stroke-linejoin:round;stroke-miterlimit:4;stroke-dasharray:none;stroke-opacity:0.02" />
      <rect
         style="fill:none;fill-opacity:1;stroke:#000000;stroke-width:1.6;stroke-linecap:round;stroke-linejoin:round;stroke-miterlimit:4;stroke-dasharray:none;stroke-opacity:0.02"
         id="rect1658"
         width="29.810888"
         height="29.810888"
         x="69.839508"
         y="40.709618"
         rx="6.6098609"
         ry="6.6098609" />
      <rect
         ry="6.6098609"
         rx="6.6098609"
         y="40.709618"
         x="69.839508"
         height="29.810888"
         width="29.810888"
         id="rect1660"
         style="fill:none;fill-opacity:1;stroke:#000000;stroke-width:1.8;stroke-linecap:round;stroke-linejoin:round;stroke-miterlimit:4;stroke-dasharray:none;stroke-opacity:0.02" />
      <rect
         style="fill:none;fill-opacity:1;stroke:#000000;stroke-width:2;stroke-linecap:round;stroke-linejoin:round;stroke-miterlimit:4;stroke-dasharray:none;stroke-opacity:0.02"
         id="rect1662"
         width="29.810888"
         height="29.810888"
         x="69.839508"
         y="40.709618"
         rx="6.6098609"
         ry="6.6098609" />
      <rect
         ry="6.6098609"
         rx="6.6098609"
         y="40.709618"
         x="69.839508"
         height="29.810888"
         width="29.810888"
         id="rect1664"
         style="fill:none;fill-opacity:1;stroke:#000000;stroke-width:2.2;stroke-linecap:round;stroke-linejoin:round;stroke-miterlimit:4;stroke-dasharray:none;stroke-opacity:0.02" />
      <rect
         style="fill:none;fill-opacity:1;stroke:#000000;stroke-width:2.6;stroke-linecap:round;stroke-linejoin:round;stroke-miterlimit:4;stroke-dasharray:none;stroke-opacity:0.02"
         id="rect1666"
         width="29.810888"
         height="29.810888"
         x="69.839508"
         y="40.709618"
         rx="6.6098609"
         ry="6.6098609" />
      <rect
         ry="6.6098609"
         rx="6.6098609"
         y="40.709618"
         x="69.839508"
         height="29.810888"
         width="29.810888"
         id="rect1668"
         style="fill:none;fill-opacity:1;stroke:#000000;stroke-width:3;stroke-linecap:round;stroke-linejoin:round;stroke-miterlimit:4;stroke-dasharray:none;stroke-opacity:0.02" />
      <rect
         style="fill:none;fill-opacity:1;stroke:#000000;stroke-width:3.4;stroke-linecap:round;stroke-linejoin:round;stroke-miterlimit:4;stroke-dasharray:none;stroke-opacity:0.02"
         id="rect1670"
         width="29.810888"
         height="29.810888"
         x="69.839508"
         y="40.709618"
         rx="6.6098609"
         ry="6.6098609" />
      <rect
         ry="6.6098609"
         rx="6.6098609"
         y="40.709618"
         x="69.839508"
         height="29.810888"
         width="29.810888"
         id="rect1672"
         style="fill:none;fill-opacity:1;stroke:#000000;stroke-width:3.8;stroke-linecap:round;stroke-linejoin:round;stroke-miterlimit:4;stroke-dasharray:none;stroke-opacity:0.02" />
      <rect
         style="fill:none;fill-opacity:1;stroke:#000000;stroke-width:4.2;stroke-linecap:round;stroke-linejoin:round;stroke-miterlimit:4;stroke-dasharray:none;stroke-opacity:0.02"
         id="rect1674"
         width="29.810888"
         height="29.810888"
         x="69.839508"
         y="40.709618"
         rx="6.6098609"
         ry="6.6098609" />
      <rect
         ry="6.6098609"
         rx="6.6098609"
         y="40.709618"
         x="69.839508"
         height="29.810888"
         width="29.810888"
         id="rect1676"
         style="fill:none;fill-opacity:1;stroke:#000000;stroke-width:4.6;stroke-linecap:round;stroke-linejoin:round;stroke-miterlimit:4;stroke-dasharray:none;stroke-opacity:0.02" />
      <rect
         style="fill:none;fill-opacity:1;stroke:#000000;stroke-width:5;stroke-linecap:round;stroke-linejoin:round;stroke-miterlimit:4;stroke-dasharray:none;stroke-opacity:0.02"
         id="rect1678"
         width="29.810888"
         height="29.810888"
         x="69.839508"
         y="40.709618"
         rx="6.6098609"
         ry="6.6098609" />
    </g>
    <rect
       ry="3.1142132"
       rx="3.1143851"
       y="1.1794344"
       x="1.1790471"
       height="14.045296"
       width="14.04607"
       id="rect849"
       style="fill:url(#linearGradient1632);fill-opacity:1;stroke-width:1.29783;stroke-linecap:round;stroke-linejoin:round" />
    <g
       id="g1"
       transform="matrix(1.0276961,0,0,1.0210593,-1.4181282,-17.626209)">
      <path
         style="fill:#006566;fill-opacity:1;fill-rule:evenodd;stroke-width:0.169919"
         d="m 12.123927,20.376354 c -0.0406,-3.46e-4 -0.08107,0.0062 -0.119403,0.01954 l -4.0473288,0.926458 c -0.1039091,0.02199 -0.1926381,0.08909 -0.2420669,0.183058 l -2.2789612,3.173355 c -0.059898,0.05997 -0.096456,0.139406 -0.1031431,0.223944 -2.4e-6,7.94e-4 -2.4e-6,0.0021 0,0.003 -8.587e-4,0.0096 -0.00131,0.01918 -0.00136,0.02878 1.515e-4,0.01036 8.046e-4,0.02109 0.00181,0.0316 0.00113,0.01147 0.00285,0.02363 0.00506,0.0353 0.0024,0.01137 0.00528,0.02339 0.00883,0.03485 0.010693,0.03661 0.027138,0.07126 0.048787,0.102632 1.569e-4,3.24e-4 3.162e-4,7.51e-4 4.777e-4,7.95e-4 l 2.1051949,4.491019 4.625e-4,0.0012 c 6.042e-4,0.0022 0.00119,0.0041 0.0019,0.0064 3.231e-4,7.99e-4 6.553e-4,0.0015 9.791e-4,0.003 0.00349,0.01067 0.00752,0.02198 0.012072,0.03248 0.00328,0.0073 0.00687,0.01499 0.010715,0.02236 0.0027,0.0049 0.00541,0.01036 0.00832,0.01578 0.00306,0.0043 0.00613,0.0097 0.00926,0.01441 0.0026,0.0041 0.0052,0.0077 0.00789,0.01164 0.00558,0.0077 0.011448,0.01571 0.01765,0.02321 0.00103,0.0012 0.00218,0.003 0.00328,0.0041 0.00545,0.0062 0.011275,0.01186 0.017194,0.01815 0.0032,0.0033 0.00647,0.0066 0.00969,0.0098 0.00332,0.0033 0.00677,0.0062 0.01027,0.0093 0.00708,0.006 0.014344,0.01137 0.021838,0.01719 3.236e-4,1.54e-4 6.557e-4,3.23e-4 9.798e-4,4.62e-4 3.221e-4,3.23e-4 6.488e-4,7.51e-4 9.795e-4,7.97e-4 0.00896,0.0063 0.018308,0.01215 0.02788,0.01815 3.228e-4,3.25e-4 6.49e-4,7.49e-4 9.794e-4,8.5e-4 8.843e-4,4.62e-4 0.00182,7.94e-4 0.00279,0.0012 0.0086,0.0045 0.017461,0.0097 0.026487,0.01388 0.00112,7.48e-4 0.00218,0.0012 0.00328,0.0021 0.00352,0.0013 0.00713,0.003 0.010715,0.0041 0.00461,0.0021 0.00921,0.0041 0.013933,0.0061 0.00996,0.0037 0.019995,0.007 0.030201,0.0098 0.0506,0.01441 0.1037485,0.01741 0.1556474,0.0085 l 4.7773027,0.0049 c 0.266902,0.03241 0.47244,-0.230741 0.376328,-0.481833 l -0.566395,-2.263507 c -0.01641,-0.237838 -0.256965,-0.393001 -0.480418,-0.309899 -0.0011,3.24e-4 -0.0023,7.5e-4 -0.0033,8.47e-4 L 9.6079162,27.501861 8.6461522,25.779592 9.3347194,23.6291 12.489756,23.375406 12.8136,22.969799 12.475817,20.734752 c 4.78e-4,-0.195608 -0.156342,-0.355123 -0.35178,-0.357936 z"
         id="path2" />
      <path
         style="opacity:0.2;fill:none;stroke:#000000;stroke-width:0.679685;stroke-linecap:round;stroke-linejoin:bevel"
         d="m 5.5960387,25.099285 3.6216891,-1.52479 3.0058522,-2.756344 m 0.645161,8.977907 -3.269783,-1.823139 m -1.803513,1.818009 4.472126,-2.580403 m -4.472126,2.580403 1.803513,-1.818009 m -1.803513,1.818009 0.5865082,-3.782642 m -2.7859145,-0.909001 2.7859145,0.909001 m 0.8357746,-2.433791 -0.8357746,2.433791 1.2170048,1.964633 2.668613,-0.762394 0.60117,2.585533 -5.073296,-0.0049 -2.1994063,-4.69165 2.3900217,-3.328143 z m -1.2316674,-1.803348 4.2375196,-0.952996 0.351907,2.477777 -3.3577592,0.278567"
         id="path4" />
      <path
         style="fill:none;stroke:#00e5e5;stroke-width:0.679685;stroke-linecap:round;stroke-linejoin:bevel;stroke-opacity:1"
         d="m 5.5960387,24.929365 3.6216891,-1.52479 3.0058522,-2.756346 m 0.645161,8.977913 -3.269783,-1.823139 m -1.803513,1.81801 4.472126,-2.5804 m -4.472126,2.5804 1.803513,-1.81801 m -1.803513,1.81801 0.5865082,-3.782642 m -2.7859145,-0.909006 2.7859145,0.909006 m 0.8357746,-2.433796 -0.8357746,2.433796 1.2170048,1.964632 2.668613,-0.76239 0.60117,2.585529 -5.073296,-0.0049 -2.1994063,-4.69172 2.3900217,-3.328144 z m -1.2316674,-1.803353 4.2375196,-0.952993 0.351907,2.477782 -3.3577592,0.278564"
         id="path6" />
      <path
         style="opacity:0.2;fill:#ffffff;fill-rule:evenodd;stroke-width:0.169919"
         d="m 12.23169,20.305204 a 0.33987175,0.33987175 0 0 0 -0.116837,0.01926 l -4.2034946,0.945164 a 0.33987175,0.33987175 0 0 0 -0.2293239,0.172244 l -2.3304113,3.245383 a 0.33987175,0.33987175 0 0 0 -0.098571,0.214722 0.33987175,0.33987175 0 0 0 -0.00101,0.02955 0.33987175,0.33987175 0 0 0 0.00101,0.02421 0.33987175,0.33987175 0 0 0 6.553e-4,0.007 0.33987175,0.33987175 0 0 0 0.00927,0.05171 0.33987175,0.33987175 0 0 1 0.088607,-0.157647 L 7.682025,21.611544 a 0.33987175,0.33987175 0 0 1 0.229323,-0.172189 l 4.2035,-0.945097 a 0.33987175,0.33987175 0 0 1 0.116837,-0.01926 0.33987175,0.33987175 0 0 1 0.334856,0.342152 l 0.324904,2.286627 0.02058,-0.02554 -0.345483,-2.430949 a 0.33987175,0.33987175 0 0 0 -0.334871,-0.342159 z m -1.177817,1.124395 -0.245586,0.05509 -1.5312619,1.404154 -0.6275716,-0.918621 -0.1005628,0.02256 0.7281285,1.065979 z m 1.110445,1.389554 -1.78116,0.147688 -0.20377,0.186837 2.008825,-0.166605 z m -3.5520334,0.471256 -1.8618069,0.784214 -0.1748972,0.243595 2.1269737,-0.895725 z m 0.037174,0.892075 -0.068034,0.02886 -0.4121862,1.20006 -1.3739534,-0.44803 -0.2273332,0.09553 1.6012866,0.522371 z m -2.4123838,1.483479 1.3932023,2.972244 0.3716984,-2.39646 -0.025217,-0.0078 -0.3464747,2.234827 -1.2992823,-2.771806 z m 2.5560846,0.191152 -0.037503,0.109218 0.9969451,1.609249 2.3967875,-0.684659 h 3.37e-4 a 0.33987175,0.33987175 0 0 1 0.460645,0.292383 l 0.579446,2.49336 a 0.33987175,0.33987175 0 0 1 0.0109,0.03678 0.33987175,0.33987175 0 0 0 -0.0109,-0.206754 L 12.610363,27.01334 a 0.33987175,0.33987175 0 0 0 -0.460646,-0.29238 h -3.38e-4 l -2.3967794,0.684656 z m 0.3109652,1.962364 -0.7812291,0.787202 -0.031198,0.201442 0.8771406,-0.884104 z m 2.0184504,0.444045 -0.149677,0.08626 1.390878,0.77558 -0.0455,-0.195136 z m -1.7665589,1.019184 -0.2940396,0.169585 2.4970095,0.0029 -0.305323,-0.17025 z"
         id="path8" />
      <path
         style="opacity:0.1;stroke-width:0.169919"
         d="m 12.12084,20.282976 a 0.67967548,0.67967548 0 0 0 -0.67967,0.679679 0.67967548,0.67967548 0 0 0 0.67967,0.679679 0.67967548,0.67967548 0 0 0 0.679679,-0.679679 0.67967548,0.67967548 0 0 0 -0.679679,-0.679679 z m -4.0780494,0.679679 a 0.67967548,0.67967548 0 0 0 -0.6796756,0.679679 0.67967548,0.67967548 0 0 0 0.6796756,0.679672 0.67967548,0.67967548 0 0 0 0.679676,-0.679672 0.67967548,0.67967548 0 0 0 -0.679676,-0.679679 z m 4.4178924,1.699187 a 0.67967548,0.67967548 0 0 0 -0.679676,0.67967 0.67967548,0.67967548 0 0 0 0.679676,0.679678 0.67967548,0.67967548 0 0 0 0.67968,-0.679678 0.67967548,0.67967548 0 0 0 -0.67968,-0.67967 z m -3.0585417,0.339837 a 0.67967554,0.67967554 0 0 0 -0.6796747,0.679678 0.67967554,0.67967554 0 0 0 0.6796747,0.679672 0.67967554,0.67967554 0 0 0 0.6796757,-0.679672 0.67967554,0.67967554 0 0 0 -0.6796757,-0.679678 z m -3.7382152,1.35935 a 0.6796756,0.6796756 0 0 0 -0.6796756,0.679679 0.6796756,0.6796756 0 0 0 0.6796756,0.679677 0.6796756,0.6796756 0 0 0 0.6796751,-0.679677 0.6796756,0.6796756 0 0 0 -0.6796751,-0.679679 z m 2.7187023,1.019513 a 0.6796756,0.6796756 0 0 0 -0.6796756,0.679677 0.6796756,0.6796756 0 0 0 0.6796756,0.679679 0.6796756,0.6796756 0 0 0 0.679675,-0.679679 0.6796756,0.6796756 0 0 0 -0.679675,-0.679677 z m 3.7382116,1.359356 a 0.67967548,0.67967548 0 0 0 -0.67967,0.679674 0.67967548,0.67967548 0 0 0 0.67967,0.67967 0.67967548,0.67967548 0 0 0 0.679679,-0.67967 0.67967548,0.67967548 0 0 0 -0.679679,-0.679674 z m -2.039023,0.679674 a 0.67967548,0.67967548 0 0 0 -0.6796757,0.67967 0.67967548,0.67967548 0 0 0 0.6796757,0.679677 0.67967548,0.67967548 0 0 0 0.679676,-0.679677 0.67967548,0.67967548 0 0 0 -0.679676,-0.67967 z m -2.3788642,1.699187 a 0.67967548,0.67967548 0 0 0 -0.679676,0.679672 0.67967548,0.67967548 0 0 0 0.679676,0.679679 0.67967548,0.67967548 0 0 0 0.6796756,-0.679679 0.67967548,0.67967548 0 0 0 -0.6796756,-0.679672 z m 5.0975662,0 a 0.67967548,0.67967548 0 0 0 -0.679679,0.679672 0.67967548,0.67967548 0 0 0 0.679679,0.679679 0.67967548,0.67967548 0 0 0 0.679677,-0.679679 0.67967548,0.67967548 0 0 0 -0.679677,-0.679672 z"
         id="path10" />
      <path
         style="fill:#c83771;stroke-width:0.169919"
         d="m 12.12084,20.113058 a 0.67967548,0.67967548 0 0 0 -0.67967,0.679679 0.67967548,0.67967548 0 0 0 0.67967,0.679672 0.67967548,0.67967548 0 0 0 0.679679,-0.679672 0.67967548,0.67967548 0 0 0 -0.679679,-0.679679 z m -4.0780494,0.679679 a 0.67967548,0.67967548 0 0 0 -0.6796756,0.679672 0.67967548,0.67967548 0 0 0 0.6796756,0.679675 0.67967548,0.67967548 0 0 0 0.679676,-0.679675 0.67967548,0.67967548 0 0 0 -0.679676,-0.679672 z m 4.4178924,1.699179 a 0.67967548,0.67967548 0 0 0 -0.679676,0.679679 0.67967548,0.67967548 0 0 0 0.679676,0.679678 0.67967548,0.67967548 0 0 0 0.67968,-0.679678 0.67967548,0.67967548 0 0 0 -0.67968,-0.679679 z m -3.0585417,0.339847 a 0.67967554,0.67967554 0 0 0 -0.6796747,0.679678 0.67967554,0.67967554 0 0 0 0.6796747,0.67967 0.67967554,0.67967554 0 0 0 0.6796757,-0.67967 0.67967554,0.67967554 0 0 0 -0.6796757,-0.679678 z m -3.7382152,1.359348 a 0.6796756,0.6796756 0 0 0 -0.6796756,0.679676 0.6796756,0.6796756 0 0 0 0.6796756,0.679679 0.6796756,0.6796756 0 0 0 0.6796751,-0.679679 0.6796756,0.6796756 0 0 0 -0.6796751,-0.679676 z m 2.7187023,1.019513 a 0.6796756,0.6796756 0 0 0 -0.6796756,0.679675 0.6796756,0.6796756 0 0 0 0.6796756,0.679678 0.6796756,0.6796756 0 0 0 0.679675,-0.679678 0.6796756,0.6796756 0 0 0 -0.679675,-0.679675 z m 3.7382116,1.359353 a 0.67967548,0.67967548 0 0 0 -0.67967,0.679669 0.67967548,0.67967548 0 0 0 0.67967,0.679679 0.67967548,0.67967548 0 0 0 0.679679,-0.679679 0.67967548,0.67967548 0 0 0 -0.679679,-0.679669 z m -2.039023,0.679669 a 0.67967548,0.67967548 0 0 0 -0.6796757,0.679679 0.67967548,0.67967548 0 0 0 0.6796757,0.679678 0.67967548,0.67967548 0 0 0 0.679676,-0.679678 0.67967548,0.67967548 0 0 0 -0.679676,-0.679679 z m -2.3788642,1.699196 a 0.67967548,0.67967548 0 0 0 -0.679676,0.679675 0.67967548,0.67967548 0 0 0 0.679676,0.679683 0.67967548,0.67967548 0 0 0 0.6796756,-0.679683 0.67967548,0.67967548 0 0 0 -0.6796756,-0.679675 z m 5.0975662,0 a 0.67967548,0.67967548 0 0 0 -0.679679,0.679675 0.67967548,0.67967548 0 0 0 0.679679,0.679683 0.67967548,0.67967548 0 0 0 0.679677,-0.679683 0.67967548,0.67967548 0 0 0 -0.679677,-0.679675 z"
         id="path12" />
    </g>
  </g>
</svg>
