<?xml version="1.0" encoding="UTF-8" standalone="no"?>
<svg
   width="62"
   height="62"
   version="1.1"
   id="svg5"
   sodipodi:docname="datamodeler.svg"
   inkscape:version="1.4 (unknown)"
   xmlns:inkscape="http://www.inkscape.org/namespaces/inkscape"
   xmlns:sodipodi="http://sodipodi.sourceforge.net/DTD/sodipodi-0.dtd"
   xmlns:xlink="http://www.w3.org/1999/xlink"
   xmlns="http://www.w3.org/2000/svg"
   xmlns:svg="http://www.w3.org/2000/svg">
  <defs
     id="defs5">
    <linearGradient
       id="linearGradient1"
       inkscape:collect="always">
      <stop
         style="stop-color:#2b3d54;stop-opacity:1;"
         offset="0"
         id="stop1" />
      <stop
         style="stop-color:#2b855b;stop-opacity:1;"
         offset="1"
         id="stop2" />
    </linearGradient>
    <linearGradient
       id="paint1_linear_54_1200"
       x1="16"
       y1="26"
       x2="16"
       y2="6"
       gradientUnits="userSpaceOnUse"
       gradientTransform="matrix(3.0397983,0,0,3.0420943,35.820936,133.83376)">
      <stop
         stop-color="#5570FF"
         id="stop3" />
      <stop
         offset="1"
         stop-color="#4DD3FF"
         id="stop4" />
    </linearGradient>
    <linearGradient
       inkscape:collect="always"
       xlink:href="#linearGradient1"
       id="linearGradient2"
       x1="30.609625"
       y1="59.017544"
       x2="30.165775"
       y2="4.9824562"
       gradientUnits="userSpaceOnUse" />
  </defs>
  <sodipodi:namedview
     id="namedview5"
     pagecolor="#ffffff"
     bordercolor="#000000"
     borderopacity="0.25"
     inkscape:showpageshadow="2"
     inkscape:pageopacity="0.0"
     inkscape:pagecheckerboard="0"
     inkscape:deskcolor="#d1d1d1"
     inkscape:zoom="8.2643105"
     inkscape:cx="33.699121"
     inkscape:cy="38.53921"
     inkscape:window-width="1920"
     inkscape:window-height="996"
     inkscape:window-x="0"
     inkscape:window-y="0"
     inkscape:window-maximized="1"
     inkscape:current-layer="svg5"
     showgrid="false">
    <inkscape:grid
       id="grid1"
       units="px"
       originx="0"
       originy="0"
       spacingx="1"
       spacingy="1"
       empcolor="#0099e5"
       empopacity="0.30196078"
       color="#0099e5"
       opacity="0.14901961"
       empspacing="5"
       enabled="true"
       visible="false" />
  </sodipodi:namedview>
  <rect
     style="opacity:0.2;stroke-width:0.9823"
     width="55"
     height="55.017544"
     x="4"
     y="4.9824562"
     rx="8.25"
     ry="8.2526312"
     id="rect1" />
  <rect
     style="fill:url(#linearGradient2);stroke-width:0.9823;fill-opacity:1"
     width="55"
     height="55.017544"
     x="4"
     y="4"
     rx="8.25"
     ry="8.2526312"
     id="rect2" />
  <path
     style="opacity:0.1;fill:#ffffff;stroke-width:0.9823"
     d="M 12.248466,4 C 7.6779652,4 4,7.6791384 4,12.251097 v 0.982456 C 4,8.6615945 7.6779652,4.9824561 12.248466,4.9824561 H 50.751534 C 55.322034,4.9824561 59,8.6615945 59,13.233553 V 12.251097 C 59,7.6791384 55.322034,4 50.751534,4 Z"
     id="path4" />
  <g
     id="g1"
     transform="matrix(0.88095238,0,0,0.88372093,3.75,5.0793389)">
    <rect
       x="10.5"
       y="10.518717"
       width="42"
       height="42"
       rx="2.0999999"
       ry="2.0999999"
       style="opacity:0.2"
       id="rect2-36" />
    <rect
       x="10.5"
       y="9.5187168"
       width="42"
       height="42"
       rx="2.0999999"
       ry="2.0999999"
       style="fill:#cccccc;fill-opacity:1"
       id="rect3-7" />
    <rect
       x="28.5"
       y="25.518717"
       width="6"
       height="20"
       style="fill:#233143;fill-opacity:1"
       id="rect4-5"
       ry="1.0087718"
       rx="1.0695187" />
    <rect
       x="28.5"
       y="15.518717"
       width="6"
       height="6"
       style="fill:#233143;fill-opacity:1"
       id="rect5-3"
       ry="1.0087718"
       rx="1.0561497" />
    <path
       d="M 12.601562,9.5187166 C 11.438163,9.5187166 10.5,10.456879 10.5,11.620279 v 1 c 0,-1.1634 0.938163,-2.101562 2.101562,-2.101562 h 37.796876 c 1.1634,0 2.101562,0.938162 2.101562,2.101562 v -1 c 0,-1.163399 -0.938162,-2.1015624 -2.101562,-2.1015624 z"
       style="opacity:0.2;fill:#ffffff"
       id="path6" />
  </g>
  <path
     d="m 13,38.331543 v 10.162792 c 0,1.41977 0.698953,2.122366 2.114297,2.120918 l 10.21904,-0.0084 z"
     style="fill:#ffae00;stroke-width:0.882324;fill-opacity:1"
     id="path2-6"
     sodipodi:nodetypes="csscc" />
</svg>
