<?xml version="1.0" encoding="UTF-8" standalone="no"?>
<svg
   width="62"
   height="62"
   version="1.1"
   id="svg5"
   sodipodi:docname="digitallyimported.svg"
   inkscape:version="1.4 (unknown)"
   xmlns:inkscape="http://www.inkscape.org/namespaces/inkscape"
   xmlns:sodipodi="http://sodipodi.sourceforge.net/DTD/sodipodi-0.dtd"
   xmlns:xlink="http://www.w3.org/1999/xlink"
   xmlns="http://www.w3.org/2000/svg"
   xmlns:svg="http://www.w3.org/2000/svg">
  <defs
     id="defs5">
    <linearGradient
       id="linearGradient1"
       inkscape:collect="always">
      <stop
         style="stop-color:#2d3d53;stop-opacity:1;"
         offset="0"
         id="stop1" />
      <stop
         style="stop-color:#298fc5;stop-opacity:1;"
         offset="1"
         id="stop2" />
    </linearGradient>
    <linearGradient
       inkscape:collect="always"
       xlink:href="#linearGradient1"
       id="linearGradient2"
       x1="32.283421"
       y1="44.499714"
       x2="31.890375"
       y2="3.9824562"
       gradientUnits="userSpaceOnUse" />
  </defs>
  <sodipodi:namedview
     id="namedview5"
     pagecolor="#ffffff"
     bordercolor="#000000"
     borderopacity="0.25"
     inkscape:showpageshadow="2"
     inkscape:pageopacity="0.0"
     inkscape:pagecheckerboard="0"
     inkscape:deskcolor="#d1d1d1"
     inkscape:zoom="11.6875"
     inkscape:cx="31.914439"
     inkscape:cy="32.983957"
     inkscape:window-width="1920"
     inkscape:window-height="996"
     inkscape:window-x="0"
     inkscape:window-y="0"
     inkscape:window-maximized="1"
     inkscape:current-layer="svg5" />
  <rect
     style="opacity:0.2;stroke-width:0.9823"
     width="55"
     height="55.017544"
     x="3.5"
     y="3.9824562"
     rx="8.25"
     ry="8.2526312"
     id="rect1" />
  <rect
     style="fill:url(#linearGradient2);stroke-width:0.9823"
     width="55"
     height="55.017544"
     x="3.5"
     y="3"
     rx="8.25"
     ry="8.2526312"
     id="rect2" />
  <path
     style="opacity:0.1;fill:#ffffff;stroke-width:0.9823"
     d="M 11.748466,3 C 7.1779651,3 3.4999999,6.6791384 3.4999999,11.251097 v 0.982456 c 0,-4.5719585 3.6779652,-8.2510968 8.2484661,-8.2510968 h 38.503068 c 4.5705,0 8.248466,3.6791383 8.248466,8.2510968 V 11.251097 C 58.5,6.6791384 54.822034,3 50.251534,3 Z"
     id="path4" />
  <g
     id="g1"
     transform="translate(-1.0006997,-49.499714)">
    <g
       style="opacity:0.2"
       transform="matrix(1.9999714,0,0,1.9999714,1.002143,49.999857)"
       id="g4">
      <path
         d="m 5,9 v 3 h 10.714 c 0.791,0 1.285,0.425 1.285,1.092 v 4.8158 c 0,0.667 -0.494,1.081 -1.286,1.092 H 8.0127 V 13.2541 H 4.999 v 8.746 h 12.857 c 1.187,0 2.143,-0.966 2.143,-2.167 v -8.6667 c 0,-1.1997 -0.956,-2.166 -2.143,-2.166 H 7.985 Z"
         id="path3" />
      <path
         d="m 23,9 v 3 h 3 V 9 h -0.02929 z m 0,4 v 9 h 3 v -9 z"
         id="path4-7" />
    </g>
    <g
       style="fill:#ffffff"
       transform="matrix(1.9999714,0,0,1.9999714,1.002143,49.000257)"
       id="g6">
      <path
         d="m 5,9 v 3 h 10.714 c 0.791,0 1.285,0.425 1.285,1.092 v 4.8158 c 0,0.667 -0.494,1.081 -1.286,1.092 H 8.0127 V 13.2541 H 4.999 v 8.746 h 12.857 c 1.187,0 2.143,-0.966 2.143,-2.167 v -8.6667 c 0,-1.1997 -0.956,-2.166 -2.143,-2.166 H 7.985 Z"
         id="path5-5" />
      <path
         d="m 23,9 v 3 h 3 V 9 h -0.02929 z m 0,4 v 9 h 3 v -9 z"
         id="path6" />
    </g>
  </g>
</svg>
