<?xml version="1.0" encoding="UTF-8" standalone="no"?>
<svg
   width="62"
   height="62"
   version="1.1"
   id="svg13"
   sodipodi:docname="distributor-logo-ubuntu-studio.svg"
   inkscape:version="1.4 (unknown)"
   xmlns:inkscape="http://www.inkscape.org/namespaces/inkscape"
   xmlns:sodipodi="http://sodipodi.sourceforge.net/DTD/sodipodi-0.dtd"
   xmlns="http://www.w3.org/2000/svg"
   xmlns:svg="http://www.w3.org/2000/svg">
  <defs
     id="defs13" />
  <sodipodi:namedview
     id="namedview13"
     pagecolor="#ffffff"
     bordercolor="#000000"
     borderopacity="0.25"
     inkscape:showpageshadow="2"
     inkscape:pageopacity="0.0"
     inkscape:pagecheckerboard="0"
     inkscape:deskcolor="#d1d1d1"
     inkscape:zoom="12.078125"
     inkscape:cx="32"
     inkscape:cy="32"
     inkscape:window-width="1920"
     inkscape:window-height="996"
     inkscape:window-x="0"
     inkscape:window-y="0"
     inkscape:window-maximized="1"
     inkscape:current-layer="svg13" />
  <g
     id="g13"
     transform="translate(-0.5,-1)">
    <ellipse
       style="opacity:0.2;stroke-width:0.982302"
       cx="31.5"
       cy="32.491226"
       id="circle1"
       rx="27.5"
       ry="27.508774" />
    <ellipse
       style="fill:#008ee5;stroke-width:0.982302;fill-opacity:1"
       cx="31.5"
       cy="31.508774"
       id="circle2"
       rx="27.5"
       ry="27.508774" />
    <g
       style="opacity:0.2;fill:none;stroke:#000000;stroke-width:4;stroke-linecap:round"
       transform="matrix(0.98214259,0,0,0.98245594,0.0714295,1.0529267)"
       id="g7">
      <circle
         cx="32"
         cy="32"
         r="6"
         id="circle3" />
      <path
         d="M 22.015,22.187 A 14,14 0 0 1 37.301,19.043 14,14 0 0 1 46,32 14,14 0 0 1 37.301,44.958 14,14 0 0 1 22.015,41.813"
         id="path3" />
      <path
         d="m 10.852,38.065 a 22,22 0 0 1 0,-12.128"
         id="path4" />
      <path
         d="M 36.949,10.564 A 22,22 0 0 1 48.09,16.996"
         id="path5" />
      <path
         d="M 48.09,47.004 A 22,22 0 0 1 36.949,53.436"
         id="path6" />
      <path
         d="m 18.612,36.093 a 14,14 0 0 1 -0.07,-7.951"
         id="path7" />
    </g>
    <g
       style="fill:none;stroke:#ffffff;stroke-width:4;stroke-linecap:round"
       id="g12"
       transform="matrix(0.98214259,0,0,0.98245594,0.0714295,0.0701761)">
      <circle
         cx="32"
         cy="32"
         r="6"
         id="circle7" />
      <path
         d="M 22.015,22.187 A 14,14 0 0 1 37.301,19.043 14,14 0 0 1 46,32 14,14 0 0 1 37.301,44.958 14,14 0 0 1 22.015,41.813"
         id="path8" />
      <path
         d="m 10.852,38.065 a 22,22 0 0 1 0,-12.128"
         id="path9" />
      <path
         d="M 36.949,10.564 A 22,22 0 0 1 48.09,16.996"
         id="path10"
         style="fill:#f2f2f2;fill-opacity:1" />
      <path
         d="M 48.09,47.004 A 22,22 0 0 1 36.949,53.436"
         id="path11" />
      <path
         d="m 18.612,36.093 a 14,14 0 0 1 -0.07,-7.952"
         id="path12" />
    </g>
    <path
       style="opacity:0.2;fill:#ffffff;stroke-width:0.982302"
       d="M 31.499992,4 A 27.499992,27.508766 0 0 0 4,31.508766 27.499992,27.508766 0 0 0 4.0211163,32.084486 27.499992,27.508766 0 0 1 31.499992,4.9824558 27.499992,27.508766 0 0 1 58.97936,31.915505 27.499992,27.508766 0 0 0 58.999984,31.508766 27.499992,27.508766 0 0 0 31.499992,4 Z"
       id="path13" />
  </g>
</svg>
