<?xml version="1.0" encoding="UTF-8" standalone="no"?>
<svg
   width="62"
   height="62"
   version="1.1"
   id="svg7"
   sodipodi:docname="distributor-logo-simply.svg"
   inkscape:version="1.4 (unknown)"
   xmlns:inkscape="http://www.inkscape.org/namespaces/inkscape"
   xmlns:sodipodi="http://sodipodi.sourceforge.net/DTD/sodipodi-0.dtd"
   xmlns="http://www.w3.org/2000/svg"
   xmlns:svg="http://www.w3.org/2000/svg">
  <defs
     id="defs7" />
  <sodipodi:namedview
     id="namedview7"
     pagecolor="#ffffff"
     bordercolor="#000000"
     borderopacity="0.25"
     inkscape:showpageshadow="2"
     inkscape:pageopacity="0.0"
     inkscape:pagecheckerboard="0"
     inkscape:deskcolor="#d1d1d1"
     inkscape:zoom="12.078125"
     inkscape:cx="32"
     inkscape:cy="32"
     inkscape:window-width="1920"
     inkscape:window-height="996"
     inkscape:window-x="0"
     inkscape:window-y="0"
     inkscape:window-maximized="1"
     inkscape:current-layer="svg7" />
  <g
     id="g7"
     transform="translate(-0.5,-1)">
    <ellipse
       style="opacity:0.2;stroke-width:0.982303"
       cx="31.5"
       cy="32.49123"
       id="circle1"
       rx="27.5"
       ry="27.50877" />
    <ellipse
       style="fill:#1a9fe5;stroke-width:0.982303;fill-opacity:1"
       cx="31.5"
       cy="31.50877"
       id="circle2"
       rx="27.5"
       ry="27.50877" />
    <path
       style="opacity:0.2;fill:none;stroke:#000000;stroke-width:6.8761;stroke-linecap:round;stroke-linejoin:round"
       d="m 14.312499,41.824553 c 0,0 3.437501,1.964911 7.857143,1.964911 4.41964,0 6.874997,-1.670172 6.874997,-4.912279 0,-10.807012 -12.866067,-3.14386 -12.767856,-12.771928 0,-1.96491 2.94643,-4.91228 5.892859,-4.91228 2.946428,0 6.874997,0.982459 6.874997,0.982459"
       id="path2" />
    <path
       style="fill:none;stroke:#f2f2f2;stroke-width:6.8761;stroke-linecap:round;stroke-linejoin:round;stroke-opacity:1"
       d="m 14.312499,40.842101 c 0,0 3.437501,1.96491 7.857143,1.96491 4.41964,0 6.874997,-1.670178 6.874997,-4.91228 0,-10.807016 -12.866067,-3.143858 -12.767856,-12.771927 0,-1.964917 2.94643,-4.912279 5.892859,-4.912279 2.946428,0 6.874997,0.982452 6.874997,0.982452"
       id="path3" />
    <path
       style="opacity:0.2;fill:none;stroke:#000000;stroke-width:6.8761;stroke-linecap:round;stroke-linejoin:round"
       d="M 34.937497,21.192977 V 43.789464 H 48.687492"
       id="path4" />
    <path
       style="opacity:0.2;fill:#ffffff;stroke-width:0.982303"
       d="M 31.499996,4 A 27.499996,27.508766 0 0 0 4,31.508766 27.499996,27.508766 0 0 0 4.034571,31.999994 27.499996,27.508766 0 0 1 31.499996,4.9824559 27.499996,27.508766 0 0 1 58.982315,31.756346 27.499996,27.508766 0 0 0 58.99999,31.508766 27.499996,27.508766 0 0 0 31.499996,4 Z"
       id="path5" />
    <path
       style="fill:none;stroke:#f2f2f2;stroke-width:6.8761;stroke-linecap:round;stroke-linejoin:round;stroke-opacity:1"
       d="M 34.937497,20.210525 V 42.807011 H 48.687492"
       id="path6" />
    <path
       style="fill:none;stroke:#ffffff;stroke-width:1.96459"
       d="m 21.678569,22.666665 c 0,0 -1.964283,0.907788 -1.964283,2.947368 0,2.039574 1.964283,2.947363 1.964283,2.947363"
       id="path7" />
  </g>
</svg>
