<?xml version="1.0" encoding="UTF-8" standalone="no"?>
<svg
   width="62"
   height="62"
   version="1"
   id="svg7"
   sodipodi:docname="distributor-logo-linux-lite.svg"
   inkscape:version="1.4 (unknown)"
   xmlns:inkscape="http://www.inkscape.org/namespaces/inkscape"
   xmlns:sodipodi="http://sodipodi.sourceforge.net/DTD/sodipodi-0.dtd"
   xmlns="http://www.w3.org/2000/svg"
   xmlns:svg="http://www.w3.org/2000/svg">
  <defs
     id="defs7" />
  <sodipodi:namedview
     id="namedview7"
     pagecolor="#ffffff"
     bordercolor="#000000"
     borderopacity="0.25"
     inkscape:showpageshadow="2"
     inkscape:pageopacity="0.0"
     inkscape:pagecheckerboard="0"
     inkscape:deskcolor="#d1d1d1"
     inkscape:zoom="12.078125"
     inkscape:cx="32"
     inkscape:cy="32"
     inkscape:window-width="1920"
     inkscape:window-height="996"
     inkscape:window-x="0"
     inkscape:window-y="0"
     inkscape:window-maximized="1"
     inkscape:current-layer="svg7" />
  <g
     id="g7"
     transform="translate(-0.5,-1.0000002)">
    <rect
       x="4"
       y="4.9824567"
       width="55"
       height="55.017544"
       rx="2.749999"
       ry="2.7508762"
       style="opacity:0.2;stroke-width:0.982302"
       id="rect1" />
    <rect
       x="4"
       y="4"
       width="55"
       height="55.017544"
       rx="2.749999"
       ry="2.7508762"
       style="fill:#2d3d53;stroke-width:0.982302;fill-opacity:1"
       id="rect2" />
    <path
       d="M 6.7507666,4 C 5.2272673,4 4,5.2276588 4,6.751644 V 7.7341005 C 4,6.2101147 5.2272673,4.9824558 6.7507666,4.9824558 H 56.249225 c 1.523501,0 2.750764,1.227659 2.750764,2.7516447 V 6.751644 C 58.999989,5.2276589 57.772726,4 56.249225,4 Z"
       style="opacity:0.1;fill:#ffffff;stroke-width:0.982302"
       id="path2" />
    <path
       d="m 36.293428,8.9122794 c -3.414426,2.0649446 -6.921727,3.9865966 -10.260623,6.1701296 -1.225002,5.854901 -2.411944,11.718386 -3.559229,17.589001 1.287581,1.635194 2.699784,3.168073 4.033344,4.765601 -1.302624,-0.415771 -2.938988,-1.353234 -4.376565,-1.933528 1.131679,4.18106 2.315427,8.349749 3.549838,12.501618 1.650498,-0.142002 3.288444,-0.405893 4.938407,-0.553306 -1.184454,1.220639 -2.463313,2.346296 -3.654796,3.560015 2.082918,-0.866981 4.131549,-1.814279 6.207457,-2.697943 0.398833,0.653603 -0.783808,2.994091 -0.943148,4.263836 0.909975,-1.474183 1.776761,-2.9755 2.641501,-4.476749 l 0.796832,-0.374877 c 0,0 -0.233341,-0.2339 0,0 1.809731,0.285555 3.61546,0.630263 5.423718,0.903021 -1.627279,-0.799069 -3.281631,-1.541883 -4.908934,-2.340909 1.627339,-0.674829 3.361255,-1.186914 5.023548,-1.815868 -1.634834,-0.0153 -3.269762,0.02948 -4.904626,0.0108 0.264106,-0.583383 2.237698,-1.612547 3.092604,-2.409695 -1.194107,-1.38743 -2.539558,-2.637574 -3.742344,-4.017476 2.080233,-6.814474 4.263152,-13.597373 6.399445,-20.394524 -1.915812,-2.918228 -3.7874,-5.866815 -5.756429,-8.7492338 z"
       style="opacity:0.2;stroke-width:0.982302"
       id="path3" />
    <path
       d="m 36.293428,7.9298236 c -3.414426,2.0649415 -6.921727,3.9866014 -10.260623,6.1701274 -1.225002,5.854902 -2.411944,11.718392 -3.559229,17.589 1.287581,1.635193 2.699784,3.168073 4.033344,4.7656 -1.302624,-0.415762 -2.938988,-1.353232 -4.376565,-1.933527 1.131679,4.181061 2.315427,8.34975 3.549838,12.501625 1.650498,-0.142008 3.288444,-0.405893 4.938407,-0.553312 -1.184454,1.220639 -2.463313,2.346295 -3.654796,3.56002 2.082918,-0.866987 4.131549,-1.81428 6.207457,-2.697948 0.398833,0.653604 -0.783808,2.994095 -0.943148,4.263835 0.909975,-1.474182 1.776761,-2.975494 2.641501,-4.476743 l 0.796832,-0.374882 c 0,0 -0.233341,-0.233894 0,0 1.809731,0.285555 3.61546,0.630268 5.423718,0.903026 -1.627279,-0.799074 -3.281631,-1.541888 -4.908934,-2.340908 1.627339,-0.67483 3.361255,-1.186921 5.023548,-1.815874 -1.634834,-0.0153 -3.269762,0.02948 -4.904626,0.0108 0.264106,-0.583377 2.237698,-1.612539 3.092604,-2.409696 -1.194107,-1.387422 -2.539558,-2.637574 -3.742344,-4.017476 2.080233,-6.814466 4.263152,-13.59737 6.399445,-20.394524 -1.915812,-2.918227 -3.7874,-5.866812 -5.756429,-8.7492298 z"
       style="fill:#ffd24c;stroke-width:0.982302;fill-opacity:1"
       id="path4" />
    <path
       d="m 34.635271,14.791988 c -2.876775,7.736056 -4.693801,17.085442 -5.135394,25.728089 -0.104048,1.204263 -0.07474,0.960253 0.710703,1.905812 3.898194,4.693814 7.788103,9.659885 11.707873,13.64428 l -0.0013,-0.275199 C 38.170102,50.655551 34.423049,46.322555 30.675987,41.75256 30.348184,41.358933 30.258833,41.353371 30.28617,40.87644 30.783539,32.213688 32.731653,22.621963 34.635265,14.791988 Z"
       style="opacity:0.2;stroke-width:0.982302"
       id="path5" />
    <path
       d="m 34.635271,13.809529 c -2.876775,7.736062 -4.693801,17.085441 -5.135394,25.728089 -0.104048,1.204264 -0.07474,0.960252 0.710703,1.90582 3.898194,4.693807 7.788103,9.659878 11.707873,13.644274 l -0.0013,-0.275201 C 38.170104,49.673092 34.423051,45.340098 30.675989,40.7701 30.348186,40.376474 30.258835,40.370912 30.286172,39.893989 30.783541,31.231238 32.731655,21.63951 34.635267,13.809529 Z"
       style="fill:#f1f1f1;stroke-width:0.982302;fill-opacity:1"
       id="path6" />
    <path
       d="m 36.291781,7.9298242 c -3.414426,2.0649419 -6.919895,3.9875208 -10.25879,6.1710538 -1.225,5.854901 -2.412983,11.717648 -3.56027,17.588262 0.05086,0.06459 0.104167,0.127204 0.157296,0.189969 1.099124,-5.60562 2.233127,-11.204486 3.402974,-16.795779 3.338895,-2.183529 6.844364,-4.106105 10.25879,-6.17105 1.897409,2.777585 3.70613,5.617318 5.549489,8.431468 0.06947,-0.221385 0.139519,-0.442569 0.209085,-0.663928 -1.915811,-2.918221 -3.789551,-5.867579 -5.758574,-8.7499958 z M 22.131274,34.521378 c 0.102318,0.378007 0.211756,0.754001 0.320347,1.130205 0.460849,0.200368 0.930903,0.418744 1.406079,0.64666 0.461605,0.541922 0.922766,1.084823 1.38689,1.625269 0.439334,0.193114 0.869454,0.371019 1.264126,0.496988 -0.871586,-1.044117 -1.76899,-2.069219 -2.651016,-3.104715 -0.583486,-0.279866 -1.171551,-0.570424 -1.726426,-0.794407 z m 13.98019,3.047146 c -0.150921,0.490758 -0.310478,0.978782 -0.460383,1.469844 0.07445,0.0854 0.153031,0.16677 0.22827,0.251377 0.07791,-0.246083 0.156235,-0.492039 0.232113,-0.738762 0.909733,0.99715 1.859255,1.957743 2.764192,2.958879 0.194605,-0.143675 0.3722,-0.284216 0.516007,-0.418312 -1.047048,-1.216558 -2.198639,-2.337534 -3.280199,-3.523026 z m 5.094864,5.921601 c -0.792485,-0.0076 -1.586111,-0.0031 -2.378625,0.0039 -0.778734,0.576019 -1.751121,1.184708 -2.23668,1.657896 1.508436,-0.596464 3.089786,-1.08453 4.615305,-1.661734 z m -4.837818,1.90351 c -0.0138,0.0221 -0.05951,0.05196 -0.06909,0.07292 0.07286,8.27e-4 0.14583,-5.92e-4 0.218676,0 -0.04988,-0.02426 -0.09978,-0.04856 -0.149615,-0.07292 z m 2.133086,1.016997 c -0.506995,0.175406 -1.002186,0.367562 -1.500066,0.556466 1.363119,0.231234 2.726514,0.473651 4.089707,0.679276 -0.858297,-0.42146 -1.724226,-0.829076 -2.589641,-1.235742 z m -7.883997,2.022474 c -0.760189,0.06794 -1.517548,0.159237 -2.275041,0.253291 -0.464442,0.442495 -0.927958,0.885475 -1.377297,1.343199 1.220446,-0.507994 2.427705,-1.046954 3.636997,-1.581136 z m 2.555107,0.863487 c -0.111705,0.04755 -0.22221,0.09794 -0.333778,0.145835 -0.252011,0.765742 -0.537026,1.571484 -0.609998,2.152958 0.175854,-0.284887 0.341586,-0.576051 0.510256,-0.865402 0.03418,-0.102833 0.06615,-0.203069 0.09974,-0.305104 0.03658,-0.01568 0.07292,-0.03189 0.109343,-0.04794 0.09299,-0.159862 0.187735,-0.318691 0.28198,-0.477796 0.02857,-0.251519 0.02414,-0.468725 -0.05757,-0.602522 z"
       style="opacity:0.2;fill:#ffffff;stroke-width:0.982302"
       id="path7" />
  </g>
</svg>
