<?xml version="1.0" encoding="UTF-8" standalone="no"?>
<svg
   width="62"
   height="62"
   version="1.1"
   id="svg5"
   sodipodi:docname="distributor-logo-bodhi-linux.svg"
   inkscape:version="1.4 (unknown)"
   xmlns:inkscape="http://www.inkscape.org/namespaces/inkscape"
   xmlns:sodipodi="http://sodipodi.sourceforge.net/DTD/sodipodi-0.dtd"
   xmlns="http://www.w3.org/2000/svg"
   xmlns:svg="http://www.w3.org/2000/svg">
  <defs
     id="defs5" />
  <sodipodi:namedview
     id="namedview5"
     pagecolor="#ffffff"
     bordercolor="#000000"
     borderopacity="0.25"
     inkscape:showpageshadow="2"
     inkscape:pageopacity="0.0"
     inkscape:pagecheckerboard="0"
     inkscape:deskcolor="#d1d1d1"
     inkscape:zoom="12.078125"
     inkscape:cx="32"
     inkscape:cy="32"
     inkscape:window-width="1920"
     inkscape:window-height="996"
     inkscape:window-x="0"
     inkscape:window-y="0"
     inkscape:window-maximized="1"
     inkscape:current-layer="svg5" />
  <g
     id="g6"
     transform="translate(-0.5)">
    <ellipse
       style="opacity:0.2;stroke-width:0.965216"
       cx="31.5"
       cy="31.482758"
       id="circle1"
       rx="27.5"
       ry="27.517239" />
    <ellipse
       style="fill:#ff8533;stroke-width:0.965216;fill-opacity:1"
       cx="31.5"
       cy="30.517239"
       id="circle2"
       rx="27.5"
       ry="27.517239" />
    <path
       style="opacity:0.2;fill:#ffffff;stroke-width:0.965216"
       d="M 31.499991,2.9999998 A 27.499991,27.51723 0 0 0 4,30.51723 27.499991,27.51723 0 0 0 4.0207305,31.079195 27.499991,27.51723 0 0 1 31.499991,3.9655172 27.499991,27.51723 0 0 1 58.979254,30.920782 27.499991,27.51723 0 0 0 58.99998,30.51723 27.499991,27.51723 0 0 0 31.499991,2.9999998 Z"
       id="path2" />
    <ellipse
       style="opacity:0.2;stroke-width:0.965216"
       cx="31.5"
       cy="31.482758"
       id="circle3"
       rx="21.710514"
       ry="21.724125" />
    <ellipse
       style="fill:#ffffff;stroke-width:0.965216"
       cx="31.5"
       cy="30.517239"
       id="circle4"
       rx="21.710514"
       ry="21.724125" />
    <g
       style="opacity:0.1"
       transform="matrix(0.33043622,0,0,0.33194103,-7.3626158,40.841337)"
       id="g4">
      <path
         d="M 186.56017,45.31822 C 169.54353,30.824731 163.17243,22.126838 145.15565,8.8368253 c -3.15476,-1.30232 -3.71374,1.8833717 -7.5,4.0750417 -14.60684,8.45511 -17.35822,10.00604 -24.55233,10.00604 -6.12314,0 -7.87129,-0.45849 -13.972463,-3.66457 -3.835524,-2.01551 -7.630332,-4.60301 -8.432907,-5.75 -4.845162,-6.9244002 -6.606738,-9.8206603 -9.895054,-16.2687802 -2.014792,-3.95084 -5.081368,-10.5814928 -5.385559,-12.9556528 -0.304192,-2.374159 -1.347466,-5.902078 -2.318387,-7.839821 -0.970921,-1.937742 -2.965576,-8.237742 -4.432568,-14 -2.102127,-8.257033 -2.534088,-13.414109 -2.038735,-18.171115 0.794682,-7.631544 -0.394863,-10.549938 -6.34898,-16.469331 -5.565005,-5.53255 -21.886299,-26.920684 -24.671105,-33.095537 -2.389232,-5.29773 -0.99227,-8.04207 1.781969,-3.50068 8.639069,14.142021 23.203099,31.068518 30.319588,35.239059 4.202392,2.462765 4.568877,2.548572 11.215999,1.360665 11.74418,-2.098802 31.583842,0.235823 37.779162,4.44565 2.10345,1.429331 4.40624,2.598784 5.1173,2.598784 0.71107,0 3.85351,0.9 6.98321,2 3.1297,1.1 6.76294,2 8.07388,2 3.55807,0 11.36096,1.806934 13.09113,4.658409 0.84105,1.386124 3.733,3.971076 6.42656,5.744338 3.96438,2.609893 5.61121,4.65292 8.64442,10.724111 4.24734,8.501356 4.49647,11.311387 2.26472,18.826489 -1.19912,4.037863 -2.91362,6.670709 -6.95425,10.679196 -7.01133,6.9555343 -10.70284,10.67067427 -6.65335,16.5249643 4.72019,6.8238797 15.06282,16.3700447 31.0052,30.4755747 8.23928,7.28998 15.23856,13.92696 15.55396,14.74887 2.38354,6.21142 -2.71278,4.01232 -13.69689,-5.91031 z"
         id="path4" />
    </g>
    <g
       transform="matrix(0.33043622,0,0,0.33194103,-7.3626158,39.875819)"
       id="g5">
      <path
         style="fill:#6fa50e;fill-opacity:1"
         d="M 186.56017,45.31822 C 169.54353,30.824731 163.17243,22.126838 145.15565,8.8368253 c -3.15476,-1.30232 -3.71374,1.8833717 -7.5,4.0750417 -14.60684,8.45511 -17.35822,10.00604 -24.55233,10.00604 -6.12314,0 -7.87129,-0.45849 -13.972463,-3.66457 -3.835524,-2.01551 -7.630332,-4.60301 -8.432907,-5.75 -4.845162,-6.9244002 -6.606738,-9.8206603 -9.895054,-16.2687802 -2.014792,-3.95084 -5.081368,-10.5814928 -5.385559,-12.9556528 -0.304192,-2.374159 -1.347466,-5.902078 -2.318387,-7.839821 -0.970921,-1.937742 -2.965576,-8.237742 -4.432568,-14 -2.102127,-8.257033 -2.534088,-13.414109 -2.038735,-18.171115 0.794682,-7.631544 -0.394863,-10.549938 -6.34898,-16.469331 -5.565005,-5.53255 -21.886299,-26.920684 -24.671105,-33.095537 -2.389232,-5.29773 -0.99227,-8.04207 1.781969,-3.50068 8.639069,14.142021 23.203099,31.068518 30.319588,35.239059 4.202392,2.462765 4.568877,2.548572 11.215999,1.360665 11.74418,-2.098802 31.583842,0.235823 37.779162,4.44565 2.10345,1.429331 4.40624,2.598784 5.1173,2.598784 0.71107,0 3.85351,0.9 6.98321,2 3.1297,1.1 6.76294,2 8.07388,2 3.55807,0 11.36096,1.806934 13.09113,4.658409 0.84105,1.386124 3.733,3.971076 6.42656,5.744338 3.96438,2.609893 5.61121,4.65292 8.64442,10.724111 4.24734,8.501356 4.49647,11.311387 2.26472,18.826489 -1.19912,4.037863 -2.91362,6.670709 -6.95425,10.679196 -7.01133,6.9555343 -10.70284,10.67067427 -6.65335,16.5249643 4.72019,6.8238797 15.06282,16.3700447 31.0052,30.4755747 8.23928,7.28998 15.23856,13.92696 15.55396,14.74887 2.38354,6.21142 -2.71278,4.01232 -13.69689,-5.91031 z"
         id="path5" />
    </g>
  </g>
</svg>
