<?xml version="1.0" encoding="UTF-8" standalone="no"?>
<svg
   width="62"
   height="62"
   version="1.1"
   id="svg7"
   sodipodi:docname="distributor-logo-void.svg"
   inkscape:version="1.4 (unknown)"
   xmlns:inkscape="http://www.inkscape.org/namespaces/inkscape"
   xmlns:sodipodi="http://sodipodi.sourceforge.net/DTD/sodipodi-0.dtd"
   xmlns="http://www.w3.org/2000/svg"
   xmlns:svg="http://www.w3.org/2000/svg">
  <defs
     id="defs7" />
  <sodipodi:namedview
     id="namedview7"
     pagecolor="#ffffff"
     bordercolor="#000000"
     borderopacity="0.25"
     inkscape:showpageshadow="2"
     inkscape:pageopacity="0.0"
     inkscape:pagecheckerboard="0"
     inkscape:deskcolor="#d1d1d1"
     inkscape:zoom="12.078125"
     inkscape:cx="32"
     inkscape:cy="39.699871"
     inkscape:window-width="1920"
     inkscape:window-height="996"
     inkscape:window-x="0"
     inkscape:window-y="0"
     inkscape:window-maximized="1"
     inkscape:current-layer="svg7" />
  <g
     id="g7"
     transform="translate(-0.5,-1)">
    <path
       style="opacity:0.2;stroke-width:0.982303"
       d="M 31.5,4.982456 A 27.5,27.50877 0 0 0 4,32.49123 27.5,27.50877 0 0 0 31.5,60 27.5,27.50877 0 0 0 59,32.49123 27.5,27.50877 0 0 0 31.5,4.982456 Z"
       id="path1" />
    <path
       style="fill:#2d3d53;fill-opacity:1;stroke-width:0.982303"
       d="M 31.5,4 A 27.5,27.50877 0 0 0 4,31.50877 27.5,27.50877 0 0 0 31.5,59.01754 27.5,27.50877 0 0 0 59,31.50877 27.5,27.50877 0 0 0 31.5,4 Z"
       id="path2" />
    <path
       style="opacity:0.2;stroke-width:0.982303"
       d="m 31.5,10.87719 a 21.607149,21.61404 0 0 0 -12.689205,4.14474 l 4.853168,4.854716 A 14.854913,14.85965 0 0 1 31.5,17.63158 14.854913,14.85965 0 0 1 46.354913,32.49123 14.854913,14.85965 0 0 1 44.102892,40.322093 l 4.855081,4.856639 A 21.607149,21.61404 0 0 0 53.107149,32.49123 21.607149,21.61404 0 0 0 31.5,10.87719 Z M 14.042027,19.803728 A 21.607149,21.61404 0 0 0 9.8928577,32.49123 21.607149,21.61404 0 0 0 31.5,54.10526 21.607149,21.61404 0 0 0 44.189215,49.96053 L 39.336047,45.105814 A 14.854913,14.85965 0 0 1 31.5,47.35088 14.854913,14.85965 0 0 1 16.645087,32.49123 14.854913,14.85965 0 0 1 18.897118,24.66036 Z M 31.5,24.63158 A 7.8571433,7.859649 0 0 0 23.642856,32.49123 7.8571433,7.859649 0 0 0 31.5,40.35088 7.8571433,7.859649 0 0 0 39.357144,32.49123 7.8571433,7.859649 0 0 0 31.5,24.63158 Z"
       id="path3" />
    <path
       style="fill:#96cf96;stroke-width:0.982303;fill-opacity:1"
       d="M 31.5,9.8947369 A 21.607149,21.61404 0 0 0 18.810551,14.039714 l 4.853168,4.854716 A 14.854913,14.85965 0 0 1 31.5,16.64912 a 14.854913,14.85965 0 0 1 14.854913,14.85965 14.854913,14.85965 0 0 1 -2.2525,7.83087 l 4.855804,4.857355 A 21.607149,21.61404 0 0 0 53.107149,31.50877 21.607149,21.61404 0 0 0 31.5,9.8947369 Z"
       id="path4" />
    <path
       style="fill:#2a6f4b;stroke-width:0.982303;fill-opacity:1"
       d="M 14.041793,18.820555 A 21.607149,21.61404 0 0 0 9.8928576,31.50877 21.607149,21.61404 0 0 0 31.5,53.12281 21.607149,21.61404 0 0 0 44.189449,48.977826 L 39.336281,44.12312 A 14.854913,14.85965 0 0 1 31.5,46.36842 14.854913,14.85965 0 0 1 16.645087,31.50877 a 14.854913,14.85965 0 0 1 2.25251,-7.830863 z"
       id="path5" />
    <ellipse
       style="fill:#96cf96;stroke-width:0.982303;fill-opacity:1"
       cx="31.500004"
       cy="31.508774"
       id="circle5"
       rx="7.857142"
       ry="7.8596478" />
    <path
       style="opacity:0.1;fill:#ffffff;stroke-width:0.982303"
       d="M 31.5,4 A 27.5,27.50877 0 0 0 4,31.50877 27.5,27.50877 0 0 0 4.0211007,31.915572 27.5,27.50877 0 0 1 31.5,4.982456 27.5,27.50877 0 0 1 58.978903,32.084428 27.5,27.50877 0 0 0 59,31.50877 27.5,27.50877 0 0 0 31.5,4 Z"
       id="path6" />
    <path
       style="opacity:0.2;fill:#ffffff;stroke-width:0.982303"
       d="M 31.5,9.894737 A 21.607149,21.61404 0 0 0 18.810795,14.03947 l 0.581221,0.581417 A 21.607149,21.61404 0 0 1 31.5,10.87719 21.607149,21.61404 0 0 1 53.091799,32.182287 21.607149,21.61404 0 0 0 53.107147,31.50877 21.607149,21.61404 0 0 0 31.5,9.894737 Z M 14.042027,18.821268 A 21.607149,21.61404 0 0 0 9.8928577,31.50877 21.607149,21.61404 0 0 0 9.9082104,31.817713 21.607149,21.61404 0 0 1 14.042032,19.803728 l 4.492536,4.493968 a 14.854913,14.85965 0 0 1 0.362554,-0.619789 z M 31.5,23.64912 a 7.8571433,7.859649 0 0 0 -7.857144,7.85965 7.8571433,7.859649 0 0 0 0.02107,0.416398 7.8571433,7.859649 0 0 1 7.836041,-7.293588 7.8571433,7.859649 0 0 1 7.836047,7.443252 7.8571433,7.859649 0 0 0 0.02108,-0.566062 7.8571433,7.859649 0 0 0 -7.857145,-7.85965 z m 14.833815,8.247261 a 14.854913,14.85965 0 0 1 -2.230923,7.443259 l 0.362545,0.362664 a 14.854913,14.85965 0 0 0 1.889476,-7.211074 14.854913,14.85965 0 0 0 -0.02108,-0.594849 z m -29.66762,0.207238 a 14.854913,14.85965 0 0 0 -0.02108,0.387611 14.854913,14.85965 0 0 0 14.854913,14.85965 14.854913,14.85965 0 0 0 7.836047,-2.245066 l 4.271937,4.273299 A 21.607149,21.61404 0 0 0 44.189233,48.97807 L 39.336059,44.123354 A 14.854913,14.85965 0 0 1 31.500012,46.36842 14.854913,14.85965 0 0 1 16.666207,32.103619 Z"
       id="path7" />
  </g>
</svg>
