<?xml version="1.0" encoding="UTF-8" standalone="no"?>
<svg
   width="62"
   height="62"
   version="1.1"
   id="svg5"
   sodipodi:docname="distributor-logo-alpine.svg"
   inkscape:version="1.4 (unknown)"
   xmlns:inkscape="http://www.inkscape.org/namespaces/inkscape"
   xmlns:sodipodi="http://sodipodi.sourceforge.net/DTD/sodipodi-0.dtd"
   xmlns:xlink="http://www.w3.org/1999/xlink"
   xmlns="http://www.w3.org/2000/svg"
   xmlns:svg="http://www.w3.org/2000/svg">
  <defs
     id="defs5">
    <linearGradient
       id="linearGradient5"
       inkscape:collect="always">
      <stop
         style="stop-color:#0c5174;stop-opacity:1;"
         offset="0"
         id="stop5" />
      <stop
         style="stop-color:#1281ba;stop-opacity:1;"
         offset="1"
         id="stop6" />
    </linearGradient>
    <linearGradient
       inkscape:collect="always"
       xlink:href="#linearGradient5"
       id="linearGradient6"
       x1="32"
       y1="60"
       x2="32"
       y2="5"
       gradientUnits="userSpaceOnUse" />
  </defs>
  <sodipodi:namedview
     id="namedview5"
     pagecolor="#ffffff"
     bordercolor="#000000"
     borderopacity="0.25"
     inkscape:showpageshadow="2"
     inkscape:pageopacity="0.0"
     inkscape:pagecheckerboard="0"
     inkscape:deskcolor="#d1d1d1"
     inkscape:zoom="12.078125"
     inkscape:cx="31.958603"
     inkscape:cy="27.280724"
     inkscape:window-width="1920"
     inkscape:window-height="996"
     inkscape:window-x="0"
     inkscape:window-y="0"
     inkscape:window-maximized="1"
     inkscape:current-layer="svg5" />
  <g
     id="g5"
     transform="matrix(0.98387886,0,0,0.98245614,-0.48387632,-0.92982455)">
    <path
       style="opacity:0.2"
       d="m 19.154,61 c -1.711,0 -3.81,-1.227 -4.664,-2.726 L 1.6407,35.726 c -0.85427,-1.499 -0.85427,-3.953 0,-5.452 L 14.49,7.7258 C 15.344,6.2266 17.443,5 19.154,5 h 25.692 c 1.71,0 3.809,1.2266 4.663,2.7258 l 12.85,22.5482 c 0.854,1.499 0.854,3.953 0,5.452 L 49.509,58.274 C 48.655,59.773 46.557,61 44.846,61 Z"
       id="path1" />
    <path
       style="fill:url(#linearGradient6)"
       d="m 19.154,60 c -1.711,0 -3.81,-1.227 -4.664,-2.726 L 1.6407,34.726 c -0.85427,-1.499 -0.85427,-3.953 0,-5.452 L 14.49,6.7258 C 15.344,5.2266 17.443,4 19.154,4 h 25.692 c 1.71,0 3.809,1.2266 4.663,2.7258 l 12.85,22.5482 c 0.854,1.499 0.854,3.953 0,5.452 L 49.509,57.274 C 48.655,58.773 46.557,60 44.846,60 Z"
       id="path2" />
    <path
       style="opacity:0.2"
       d="M 26,23 10,40 h 7 l 9,-10 8,10 h 7 l -5,-5 4,-3 8,8 h 7 L 40,25 33,31 Z m -2,12 -4,5 h 4 z"
       id="path3" />
    <path
       style="fill:#f2f2f2;fill-opacity:1"
       d="M 26,22 10,39 h 7 l 9,-10 8,10 h 7 l -5,-5 4,-3 8,8 h 7 L 40,24 33,30 Z m -2,12 -4,5 h 4 z"
       id="path4" />
    <path
       style="opacity:0.1;fill:#ffffff"
       d="M 19.154,4 C 17.443,4 15.344,5.2274 14.49,6.7266 L 1.6406,29.273 C 1.1412,30.15 0.94278,31.352 1.0273,32.5 1.0874,31.685 1.2858,30.896 1.6406,30.273 L 14.49,7.7266 C 15.344,6.2274 17.443,5 19.154,5 h 25.692 c 1.71,0 3.81,1.2274 4.664,2.7266 L 62.359,30.273 c 0.355,0.623 0.554,1.412 0.614,2.227 0.084,-1.148 -0.114,-2.35 -0.614,-3.227 L 49.51,6.7266 C 48.656,5.2274 46.556,4 44.846,4 Z"
       id="path5" />
  </g>
</svg>
