<?xml version="1.0" encoding="UTF-8" standalone="no"?>
<svg
   width="62"
   height="62"
   version="1.1"
   id="svg19"
   sodipodi:docname="distributor-logo-knoppix.svg"
   inkscape:version="1.4 (unknown)"
   xmlns:inkscape="http://www.inkscape.org/namespaces/inkscape"
   xmlns:sodipodi="http://sodipodi.sourceforge.net/DTD/sodipodi-0.dtd"
   xmlns="http://www.w3.org/2000/svg"
   xmlns:svg="http://www.w3.org/2000/svg">
  <defs
     id="defs19" />
  <sodipodi:namedview
     id="namedview19"
     pagecolor="#ffffff"
     bordercolor="#000000"
     borderopacity="0.25"
     inkscape:showpageshadow="2"
     inkscape:pageopacity="0.0"
     inkscape:pagecheckerboard="0"
     inkscape:deskcolor="#d1d1d1"
     inkscape:zoom="12.078125"
     inkscape:cx="32"
     inkscape:cy="33.655886"
     inkscape:window-width="1920"
     inkscape:window-height="996"
     inkscape:window-x="0"
     inkscape:window-y="0"
     inkscape:window-maximized="1"
     inkscape:current-layer="svg19" />
  <g
     id="g19"
     transform="translate(-0.5,-1)">
    <path
       style="opacity:0.2;stroke-width:0.982303"
       d="m 17.750005,30.52632 h 27.5 c 0,0 1.964284,-7.64155 9.821428,-13.75439 0,-1.96491 0,-2.94737 -4.910714,-0.98246 -3.928577,3.05642 -17.678572,11.78948 -17.678572,11.78948 h -1.964284 c 0,0 -12.767858,-8.73306 -16.696435,-11.78948 -5.8928559,-1.96491 -5.8928559,-0.98245 -5.8928559,0.98246 7.8571389,6.11284 9.8214329,13.75439 9.8214329,13.75439 z"
       id="path1" />
    <path
       style="opacity:0.2;stroke-width:0.982303"
       d="m 16.767858,44.2807 h 29.464284 l 2.94643,6.944 2.94643,-0.0668 c 2.518217,-0.057 4.910714,2.57895 4.910714,3.92983 -2.975891,1.35088 -8.839281,1.96491 -8.839281,1.96491 l -8.839291,0.98245 -7.366071,-5.40351 -7.366071,5.40351 -9.821427,-0.98246 c 0,0 -6.3061463,-0.61403 -8.8392894,-1.96491 0,-1.35088 2.3918132,-3.92983 4.9107124,-3.92983 h 2.94643 z"
       id="path2" />
    <path
       style="fill:#ffa74c;stroke-width:0.982303;fill-opacity:1"
       d="m 16.767858,43.29825 h 29.464284 l 2.94643,6.944 2.94643,-0.0668 c 2.518217,-0.057 4.910714,2.57895 4.910714,3.92982 -2.975891,1.35088 -8.839281,1.96492 -8.839281,1.96492 l -8.839291,0.98244 -7.366071,-5.40351 -7.366071,5.40351 -9.821427,-0.98245 c 0,0 -6.3061463,-0.61404 -8.8392894,-1.96492 0,-1.35087 2.3918132,-3.92982 4.9107124,-3.92982 h 2.94643 z"
       id="path3" />
    <path
       style="opacity:0.2;fill:#ffffff;stroke-width:0.982303"
       d="m 16.767858,43.29825 -2.94643,6.87719 h -2.94643 c -2.5188992,0 -4.9107124,2.57895 -4.9107124,3.92982 0.074646,0.0403 0.1799286,0.0727 0.2608578,0.11102 C 6.8897594,52.85361 8.829,51.15789 10.874998,51.15789 h 2.94643 l 2.94643,-6.87719 h 29.464284 l 2.94643,6.944 2.94643,-0.0668 c 2.042859,-0.0462 3.980631,1.67313 4.647498,3.04758 0.08347,-0.0354 0.183662,-0.0639 0.263216,-0.10021 0,-1.35087 -2.392497,-3.9868 -4.910714,-3.92982 l -2.94643,0.0668 -2.94643,-6.944 z"
       id="path4" />
    <path
       style="opacity:0.2;stroke-width:0.982303"
       d="m 36.165182,60 h 13.995537 c 0,-5.19326 -5.458749,-7.40084 -9.330355,-7.78891 C 37.367319,51.8633 31.5,55.30288 31.5,55.30288 c 0,0 -7.561519,-4.02906 -11.662941,-3.09179 C 16.6058,52.94891 12.839291,54.80674 12.839291,60 H 26.834828 C 29.803841,60 31.5,56.86891 31.5,56.86891 c 0,0 1.696159,3.13109 4.665182,3.13109 z"
       id="path5" />
    <path
       style="fill:#f7c021;stroke-width:0.982303;fill-opacity:1"
       d="m 36.165182,59.01754 h 13.995537 c 0,-5.19326 -5.458749,-7.40084 -9.330355,-7.78891 C 37.367319,50.88084 31.5,54.32042 31.5,54.32042 c 0,0 -7.561519,-4.02905 -11.662941,-3.09179 -3.231259,0.73783 -6.997768,2.59565 -6.997768,7.78891 h 13.995537 c 2.969013,0 4.665172,-3.13108 4.665172,-3.13108 0,0 1.696159,3.13108 4.665182,3.13108 z"
       id="path6" />
    <path
       style="opacity:0.2;fill:#ffffff;stroke-width:0.982303"
       d="m 21.515534,51.09305 c -0.599109,-0.0206 -1.165798,0.0187 -1.678475,0.13558 -3.231259,0.73783 -6.997768,2.59565 -6.997768,7.78891 h 0.05008 c 0.446878,-4.44856 3.929557,-6.11677 6.947684,-6.80645 C 23.938481,51.27382 31.5,55.30288 31.5,55.30288 c 0,0 5.867319,-3.43958 9.330364,-3.09179 3.617227,0.36252 8.618302,2.31565 9.259637,6.80645 h 0.07068 c 0,-5.19326 -5.458749,-7.40084 -9.330355,-7.78891 -3.463037,-0.34779 -9.330364,3.09179 -9.330364,3.09179 0,0 -5.789734,-3.08491 -9.984466,-3.22737 z"
       id="path7" />
    <path
       style="fill:#2d3d53;stroke-width:0.982303;fill-opacity:1"
       d="m 17.750005,29.54386 h 27.5 c 0,0 1.964284,-7.64154 9.821428,-13.75439 0,-1.96491 0,-2.94736 -4.910714,-0.98245 -3.928577,3.05642 -17.678572,11.78947 -17.678572,11.78947 h -1.964284 c 0,0 -12.767858,-8.73305 -16.696435,-11.78947 -5.8928559,-1.96491 -5.8928559,-0.98246 -5.8928559,0.98245 7.8571389,6.11285 9.8214329,13.75439 9.8214329,13.75439 z"
       id="path8" />
    <path
       style="opacity:0.1;fill:#ffffff;stroke-width:0.982303"
       d="m 9.3672143,13.73614 c -1.4386422,-0.01866 -1.4386422,0.82526 -1.4386422,2.05333 0.016895,0.0128 0.03113,0.0275 0.047925,0.0403 0.1578306,-1.26638 1.0175005,-1.64954 5.8449309,-0.0403 3.928577,3.05642 16.696435,11.78948 16.696435,11.78948 h 1.964284 c 0,0 13.749995,-8.73306 17.678572,-11.78948 4.015,-1.60631 4.736869,-1.22708 4.870447,0.0324 0.01376,-0.0108 0.02649,-0.0216 0.04029,-0.0324 0,-1.96491 0,-2.94736 -4.910714,-0.98245 C 46.232165,17.86344 32.48217,26.59649 32.48217,26.59649 h -1.96429 c 0,0 -12.767858,-8.73305 -16.696435,-11.78947 -2.209822,-0.73684 -3.590715,-1.05909 -4.4542156,-1.07088 z"
       id="path9" />
    <path
       style="opacity:0.2;stroke-width:0.982303"
       d="m 31.5,4.982456 c -5.274108,0 -9.821428,4.908744 -9.821428,11.004494 0,3.6174 -0.549994,6.36435 -1.350449,8.64463 H 11.857144 C 8.9109109,24.66302 4,26.59649 4,27.57895 9.0131523,28.248 12.914907,29.48786 17.197051,30.82989 15.438032,33.71537 13.821428,36.3906 13.821428,40.74386 13.821428,51.37895 21.736524,60 31.5,60 c 9.763486,0 17.678572,-8.62105 17.678572,-19.25614 0,-4.43284 -1.674556,-7.12575 -3.471873,-10.07411 C 49.575356,29.3906 54.826881,28.22147 59,27.57895 59,26.59649 54.089286,24.63158 51.142856,24.63158 H 42.671877 C 41.871432,22.3513 41.321428,19.60435 41.321428,15.98695 41.321428,9.8912 36.774108,4.982456 31.5,4.982456 Z"
       id="path10" />
    <path
       style="fill:#cbcbcb;stroke-width:0.982303"
       d="m 31.5,4 c -5.274108,0 -9.821428,4.912281 -9.821428,10.80702 0,3.92982 -0.549994,6.56182 -1.350449,8.8421 H 11.857144 C 8.9109109,23.68056 4,25.61404 4,26.59649 c 5.0131523,0.66905 8.914907,1.90891 13.197051,3.25095 -1.759019,2.88547 -3.375623,5.5607 -3.375623,9.91396 0,10.63509 7.915096,19.25614 17.678572,19.25614 9.763486,0 17.678572,-8.62105 17.678572,-19.25614 0,-4.43284 -1.674556,-7.12575 -3.471873,-10.0741 C 49.575356,28.40814 54.826881,27.23902 59,26.59649 59,25.61404 54.089286,23.64912 51.142856,23.64912 H 42.671877 C 41.871432,21.36884 41.321428,18.73684 41.321428,14.80702 41.321428,8.912281 36.774108,4 31.5,4 Z"
       id="path11" />
    <path
       style="opacity:0.1;stroke-width:0.982303"
       d="m 31.5,20.70175 c -3.516069,0 -5.892851,3.17629 -5.892851,6.8772 0,8.35186 -5.89286,8.8421 -5.89286,14.73684 0,6.4567 5.277057,11.78947 11.785711,11.78947 6.508664,0 11.785721,-5.33277 11.785721,-11.78947 0,-5.89474 -5.89286,-6.38498 -5.89286,-14.73684 0,-3.70091 -2.376792,-6.8772 -5.892861,-6.8772 z"
       id="path12" />
    <path
       style="fill:#f5f5f5;stroke-width:0.982303;fill-opacity:1"
       d="m 31.5,19.7193 c -3.516069,0 -5.892851,3.17628 -5.892851,6.87719 0,8.35186 -5.89286,8.84211 -5.89286,14.73684 0,6.45671 5.277057,11.78948 11.785711,11.78948 6.508664,0 11.785721,-5.33277 11.785721,-11.78948 0,-5.89473 -5.89286,-6.38498 -5.89286,-14.73684 0,-3.70091 -2.376792,-6.87719 -5.892861,-6.87719 z"
       id="path13" />
    <ellipse
       style="opacity:0.1;stroke-width:0.982303"
       cx="27.571436"
       cy="14.807014"
       id="circle13"
       rx="3.928571"
       ry="3.9298239" />
    <ellipse
       style="fill:#f2f2f2;stroke-width:0.982303;fill-opacity:1"
       cx="27.571436"
       cy="13.824562"
       id="circle14"
       rx="3.928571"
       ry="3.9298239" />
    <ellipse
       style="fill:#2d3d53;stroke-width:0.982303;fill-opacity:1"
       cx="27.571436"
       cy="13.824562"
       id="circle15"
       rx="1.9642855"
       ry="1.9649119" />
    <path
       style="opacity:0.1;stroke-width:0.982303"
       d="m 37.392861,19.91579 c 0,3.79817 -2.638039,6.6807 -5.892861,6.6807 -3.254822,0 -5.892851,-2.88253 -5.892851,-6.6807 z"
       id="path15" />
    <path
       style="fill:#ffa74c;stroke-width:0.982303;fill-opacity:1"
       d="m 37.392861,18.93333 c 0,3.79818 -2.638039,6.68071 -5.892861,6.68071 -3.254822,0 -5.892851,-2.88253 -5.892851,-6.68071 z"
       id="path16" />
    <ellipse
       style="opacity:0.1;stroke-width:0.982303"
       cx="35.42857"
       cy="14.807014"
       id="circle16"
       rx="3.928571"
       ry="3.9298239" />
    <ellipse
       style="fill:#f2f2f2;stroke-width:0.982303;fill-opacity:1"
       cx="35.42857"
       cy="13.824562"
       id="circle17"
       rx="3.928571"
       ry="3.9298239" />
    <ellipse
       style="fill:#2d3d53;stroke-width:0.982303;fill-opacity:1"
       cx="35.42857"
       cy="13.824562"
       id="circle18"
       rx="1.9642855"
       ry="1.9649119" />
    <path
       style="fill:#f9cf52;stroke-width:0.982303;fill-opacity:1"
       d="m 37.392861,19.064 c 0,0.6553 -2.638039,4.58512 -5.892861,4.58512 -3.254822,0 -5.892851,-3.92982 -5.892851,-4.58512 0,-1.8087 2.638029,-3.27453 5.892851,-3.27453 3.254822,0 5.892861,1.46583 5.892861,3.27453 z"
       id="path18" />
    <path
       style="opacity:0.2;fill:#ffffff;stroke-width:0.982303"
       d="m 31.5,4 c -5.274108,0 -9.821428,4.912281 -9.821428,10.80702 0,3.92982 -0.549994,6.56182 -1.350449,8.8421 H 11.857144 C 8.9109109,23.68056 4,25.61404 4,26.59649 c 0.2746074,0.03634 0.5336968,0.0806 0.8018213,0.12084 1.5124017,-0.96182 4.838331,-2.06217 7.0553227,-2.08575 h 8.470979 c 0.800455,-2.28028 1.350449,-4.91228 1.350449,-8.84211 0,-5.894733 4.54732,-10.807014 9.821428,-10.807014 5.274108,0 9.821428,4.912281 9.821428,10.807014 0,3.92983 0.550004,6.56183 1.350449,8.84211 h 8.470979 c 2.232418,0 5.582509,1.12688 7.080272,2.10147 0.253389,-0.0422 0.530361,-0.0982 0.776872,-0.13656 0,-0.98245 -4.910714,-2.94737 -7.857144,-2.94737 H 42.671877 C 41.871432,21.36884 41.321428,18.73684 41.321428,14.80702 41.321428,8.912281 36.774108,4 31.5,4 Z m 14.701701,26.52239 c -0.158129,0.0501 -0.341791,0.0973 -0.495002,0.14736 1.727589,2.83537 3.326519,5.44969 3.44929,9.58485 0.003,-0.16506 0.02259,-0.32618 0.02259,-0.4932 0,-4.01038 -1.384818,-6.59915 -2.976872,-9.23901 z m -29.493754,0.15522 c -1.551785,2.58681 -2.886519,5.15004 -2.886519,9.08379 0,0.16604 0.01961,0.32716 0.02259,0.49123 0.120801,-4.05754 1.663749,-6.65123 3.35402,-9.42274 -0.165987,-0.0521 -0.325096,-0.10021 -0.490094,-0.15228 z"
       id="path19" />
  </g>
</svg>
