<?xml version="1.0" encoding="UTF-8" standalone="no"?>
<svg
   width="62"
   height="62"
   version="1.1"
   id="svg7"
   sodipodi:docname="distributor-logo-steamos.svg"
   inkscape:version="1.4 (unknown)"
   xmlns:inkscape="http://www.inkscape.org/namespaces/inkscape"
   xmlns:sodipodi="http://sodipodi.sourceforge.net/DTD/sodipodi-0.dtd"
   xmlns="http://www.w3.org/2000/svg"
   xmlns:svg="http://www.w3.org/2000/svg">
  <defs
     id="defs7" />
  <sodipodi:namedview
     id="namedview7"
     pagecolor="#ffffff"
     bordercolor="#000000"
     borderopacity="0.25"
     inkscape:showpageshadow="2"
     inkscape:pageopacity="0.0"
     inkscape:pagecheckerboard="0"
     inkscape:deskcolor="#d1d1d1"
     inkscape:zoom="12.078125"
     inkscape:cx="32"
     inkscape:cy="32"
     inkscape:window-width="1920"
     inkscape:window-height="996"
     inkscape:window-x="0"
     inkscape:window-y="0"
     inkscape:window-maximized="1"
     inkscape:current-layer="svg7" />
  <g
     id="g7"
     transform="translate(-0.5,-1)">
    <ellipse
       style="opacity:0.2;stroke-width:0.982303"
       cx="31.499979"
       cy="32.491234"
       id="circle1"
       rx="27.499979"
       ry="27.508766" />
    <path
       style="fill:#dc71f4;stroke-width:0.982303;fill-opacity:1"
       d="m 58.999962,31.508768 c 0,15.192673 -12.312161,27.508768 -27.499981,27.508768 -12.853144,0 -23.6467686,-8.820653 -26.6614509,-20.740706 -0.5475943,-2.165187 1.1872255,-0.659335 1.1872255,-2.994759 0,-0.259321 -2.0221684,-4.291105 -2.015041,-4.548702 C 4.4211441,15.899241 16.571401,4 31.499981,4 46.687801,4 58.999962,16.316097 58.999962,31.508768 Z"
       id="path1" />
    <path
       style="opacity:0.1;stroke-width:0.982303"
       d="m 39.357118,15.78947 a 10.803566,10.807018 0 0 0 -10.803564,10.80702 10.803566,10.807018 0 0 0 0.01152,0.241774 l -5.163919,8.609924 a 8.3482086,8.3508761 0 0 0 -0.249376,-0.0097 8.3482086,8.3508761 0 0 0 -5.560992,2.13377 L 4.0460383,31.585523 A 27.499981,27.508768 0 0 0 4,32.491224 27.499981,27.508768 0 0 0 4.9207584,39.489305 l 9.8866446,4.371163 a 8.3482086,8.3508761 0 0 0 8.344367,8.279876 8.3482086,8.3508761 0 0 0 8.348211,-8.350876 8.3482086,8.3508761 0 0 0 -0.03259,-0.638981 l 9.238271,-5.841006 A 10.803566,10.807018 0 0 0 50.160684,26.59649 10.803566,10.807018 0 0 0 39.357118,15.78947 Z m 0,3.929828 a 6.8749955,6.8771922 0 0 1 6.874996,6.877192 6.8749955,6.8771922 0 0 1 -6.874996,6.87719 6.8749955,6.8771922 0 0 1 -6.874995,-6.87719 6.8749955,6.8771922 0 0 1 6.874995,-6.877192 z m 0,1.964912 a 4.9107109,4.91228 0 0 0 -4.91071,4.91228 4.9107109,4.91228 0 0 0 4.91071,4.912278 4.9107109,4.91228 0 0 0 4.910711,-4.912278 4.9107109,4.91228 0 0 0 -4.910711,-4.91228 z M 23.15177,38.38596 a 5.401782,5.403508 0 0 1 5.401784,5.403508 5.401782,5.403508 0 0 1 -5.401784,5.403508 5.401782,5.403508 0 0 1 -5.198447,-3.943255 l 3.809639,1.684757 a 3.4378413,3.4389398 0 1 0 2.777621,-6.290022 L 20.730946,38.959698 A 5.401782,5.403508 0 0 1 23.15177,38.38596 Z"
       id="path2" />
    <path
       style="fill:#3e33cc;stroke-width:0.982303;fill-opacity:1"
       d="m 30.124982,23.25614 4.124998,9.628066 9.723205,1.37544 -15.223203,9.628068 v -6.877192 h -6.874994 z"
       id="path3" />
    <path
       style="fill:#3e33cc;stroke-width:0.982303;fill-opacity:1"
       d="M 39.357118,14.807018 A 10.803566,10.807018 0 0 0 28.553554,25.614032 10.803566,10.807018 0 0 0 39.357118,36.421048 10.803566,10.807018 0 0 0 50.160684,25.614032 10.803566,10.807018 0 0 0 39.357118,14.807018 Z m 0,3.929822 a 6.8749955,6.8771922 0 0 1 6.874996,6.877192 6.8749955,6.8771922 0 0 1 -6.874996,6.877192 6.8749955,6.8771922 0 0 1 -6.874995,-6.877192 6.8749955,6.8771922 0 0 1 6.874995,-6.877192 z"
       id="path4" />
    <path
       style="fill:#3e33cc;stroke-width:0.982303;fill-opacity:1"
       d="m 23.15177,34.456136 a 8.3482086,8.3508761 0 0 0 -8.348204,8.350876 8.3482086,8.3508761 0 0 0 8.348204,8.350876 8.3482086,8.3508761 0 0 0 8.348211,-8.350876 8.3482086,8.3508761 0 0 0 -8.348211,-8.350876 z m 0,2.947368 a 5.401782,5.403508 0 0 1 5.401784,5.403508 5.401782,5.403508 0 0 1 -5.401784,5.403508 5.401782,5.403508 0 0 1 -5.401779,-5.403508 5.401782,5.403508 0 0 1 5.401779,-5.403508 z"
       id="path5" />
    <ellipse
       style="fill:#3e33cc;stroke-width:0.982303;fill-opacity:1"
       cx="39.357109"
       cy="25.614029"
       id="circle5"
       rx="4.9107118"
       ry="4.912281" />
    <path
       style="fill:#3e33cc;stroke-width:0.982303;fill-opacity:1"
       d="M 4.0460383,30.603067 A 27.499981,27.508768 0 0 0 4,31.508768 27.499981,27.508768 0 0 0 4.9207584,38.506849 l 16.8422036,7.445175 a 3.4378413,3.4389398 0 1 0 2.777621,-6.290022 z"
       id="path6" />
    <path
       style="opacity:0.2;fill:#ffffff;stroke-width:0.982303"
       d="M 31.499981,4 C 16.866425,4 4.901686,15.432796 4.0479558,29.856629 c -0.0028,0.04793 0.031658,0.152333 0.06138,0.249453 C 5.3185588,16.030874 17.115966,4.982456 31.499981,4.982456 c 15.023177,0 27.223603,12.052351 27.486553,27.01754 C 58.989433,31.835987 59,31.673466 59,31.508768 58.999962,16.316097 46.687801,4 31.499981,4 Z"
       id="path7" />
  </g>
</svg>
