<?xml version="1.0" encoding="UTF-8" standalone="no"?>
<svg
   width="62"
   height="62"
   version="1.1"
   id="svg4"
   sodipodi:docname="distributor-logo-peppermint.svg"
   inkscape:version="1.4 (unknown)"
   xmlns:inkscape="http://www.inkscape.org/namespaces/inkscape"
   xmlns:sodipodi="http://sodipodi.sourceforge.net/DTD/sodipodi-0.dtd"
   xmlns="http://www.w3.org/2000/svg"
   xmlns:svg="http://www.w3.org/2000/svg">
  <defs
     id="defs4" />
  <sodipodi:namedview
     id="namedview4"
     pagecolor="#ffffff"
     bordercolor="#000000"
     borderopacity="0.25"
     inkscape:showpageshadow="2"
     inkscape:pageopacity="0.0"
     inkscape:pagecheckerboard="0"
     inkscape:deskcolor="#d1d1d1"
     inkscape:zoom="12.078125"
     inkscape:cx="32"
     inkscape:cy="32"
     inkscape:window-width="1920"
     inkscape:window-height="996"
     inkscape:window-x="0"
     inkscape:window-y="0"
     inkscape:window-maximized="1"
     inkscape:current-layer="svg4" />
  <g
     id="g4"
     transform="translate(-0.499992,-1)">
    <ellipse
       style="opacity:0.2;stroke-width:0.982302"
       cx="31.5"
       cy="32.491226"
       id="circle1"
       rx="27.5"
       ry="27.508774" />
    <ellipse
       style="fill:#c83771;stroke-width:0.982302"
       cx="31.5"
       cy="31.508774"
       id="circle2"
       rx="27.5"
       ry="27.508774" />
    <path
       style="opacity:0.2;stroke-width:0.982302"
       d="m 31.900137,4.9940152 c -0.139519,0.3622384 -0.247066,0.6527961 -0.247066,0.6527961 -0.670916,1.8407348 -3.703797,10.7309357 -1.471678,15.1325077 0,0 1.037457,-0.0187 1.503902,-0.975165 0.268309,-0.538892 -1.942496,9.605842 -0.185311,12.682512 0,0 1.825304,-4.771281 5.548337,-7.253293 0.0106,-0.0086 0.255501,-0.126891 0.236331,-0.139681 -0.798706,-0.683888 -1.764401,-0.333115 -1.764401,-0.333115 0.362076,-9.853476 8.304932,-14.613615 9.678708,-15.3635419 0,0 0.430132,-0.247848 0.644532,-0.3680369 A 27.499992,27.508766 0 0 0 31.900137,4.9940152 Z M 31.499992,32.486666 c 0,0 5.14547,-0.08754 8.655517,2.675655 0.01489,0.0044 0.198264,0.201298 0.206788,0.179988 0.421713,-0.956587 -0.204105,-1.759595 -0.204105,-1.759595 9.211746,-2.484139 16.007363,3.009123 17.598383,4.462114 l 0.510258,0.445941 a 27.499992,27.508766 0 0 0 0.733151,-5.998735 27.499992,27.508766 0 0 0 -1.67041,-9.429274 l -0.682125,0.03494 c -1.914768,0.05754 -10.620366,0.52858 -13.962155,4.13975 0,0 0.389605,0.939956 1.460933,1.031573 0.611284,0.04474 -10.362998,1.492772 -12.646235,4.217659 z m 0,0 c 0,0 0,0.0028 0,0.0028 0,0 -4.227806,-2.937956 -5.239503,-7.247914 0,-0.0149 -0.02383,-0.278752 -0.04295,-0.265955 -0.935016,0.487874 -0.950675,1.501697 -0.950675,1.501697 C 16.246789,22.678535 14.486311,13.786244 14.215825,11.962548 L 14.13795,11.218416 A 27.499992,27.508766 0 0 0 5.0983898,24.814299 l 0.5559079,0.437885 c 1.2608906,0.922491 8.8782143,6.302715 13.9111313,5.42922 10e-7,0 0.27613,-0.983543 -0.51831,-1.695122 -0.45154,-0.406925 8.955605,4.291905 12.452874,3.505752 0.006,0.01394 2.07895,4.965155 0.628421,9.14989 -0.0066,0.0086 -0.128169,0.249836 -0.104736,0.249836 1.054286,0.0703 1.608639,-0.781744 1.608639,-0.781744 5.454635,7.665473 2.489307,15.902688 1.603269,17.958605 l -0.327629,0.687719 a 27.499992,27.508766 0 0 0 13.500235,-5.652192 l -0.190669,-0.623246 c -0.724162,-2.060174 -3.88911,-10.385744 -8.317136,-12.424614 0,2e-6 -0.797695,0.650534 -0.561282,1.68169 0.13205,0.590142 -4.516493,-8.919764 -7.839113,-10.251312 z m 0,0.0054 c 0,0 -4.233322,3.443683 -8.714597,3.164583 -0.0149,0 -0.277562,-0.0535 -0.271242,-0.03222 0.210863,1.022629 1.189699,1.327081 1.189699,1.327081 -6.20648,7.360781 -14.8911969,6.587387 -16.7846633,6.321073 l -0.7277832,-0.13969 a 27.499992,27.508766 0 0 0 10.6616185,12.62072 l 0.494139,-0.462062 c 1.663442,-1.314509 8.608943,-7.071983 9.058346,-11.895391 0,0 -0.886612,-0.525299 -1.793941,0.04568 -0.517325,0.31943 6.730712,-7.419435 6.888424,-10.949776 z"
       id="path2" />
    <path
       style="fill:#f3f3f3;stroke-width:0.982302;fill-opacity:1"
       d="m 31.900137,4.0107454 c -0.139519,0.3622393 -0.247066,0.6527961 -0.247066,0.6527961 -0.670916,1.8407356 -3.703797,10.7309375 -1.471678,15.1325095 0,0 1.037457,-0.0187 1.503902,-0.975167 0.268309,-0.538896 -1.942496,9.605843 -0.185303,12.682513 0,0 1.825303,-4.771281 5.548337,-7.253292 0.0106,-0.0086 0.2555,-0.126891 0.236331,-0.139682 -0.798706,-0.683887 -1.764401,-0.333121 -1.764401,-0.333121 0.362076,-9.853469 8.304932,-14.6136069 9.678708,-15.3635357 0,0 0.430132,-0.2478482 0.644532,-0.3680374 A 27.499992,27.508766 0 0 0 31.900137,4.0107454 Z M 31.499992,31.503397 c 0,0 5.14547,-0.08754 8.655517,2.675655 0.01489,0.0044 0.198264,0.201292 0.206788,0.179982 0.421713,-0.956581 -0.204105,-1.759589 -0.204105,-1.759589 9.211746,-2.484139 16.007363,3.009124 17.598383,4.462112 l 0.510258,0.445944 a 27.499992,27.508766 0 0 0 0.733151,-5.998735 27.499992,27.508766 0 0 0 -1.67041,-9.429274 l -0.682125,0.03494 c -1.914768,0.05754 -10.620366,0.52858 -13.962155,4.139743 0,0 0.389605,0.939962 1.460933,1.03158 0.611284,0.04474 -10.362998,1.492771 -12.646235,4.217658 z m 0,0 c 0,0 0,0.0028 0,0.0028 0,0 -4.227806,-2.937955 -5.239503,-7.247914 0,-0.0149 -0.02383,-0.278752 -0.04295,-0.26596 -0.935016,0.48788 -0.950675,1.501703 -0.950675,1.501703 C 16.246789,21.695267 14.486311,12.802969 14.215825,10.97928 L 14.13795,10.235148 A 27.499992,27.508766 0 0 0 5.0983928,23.831029 l 0.5559079,0.437891 c 1.2608906,0.922492 8.8782143,6.302715 13.9111313,5.429214 10e-7,0 0.27613,-0.983536 -0.51831,-1.695122 -0.45154,-0.406918 8.955605,4.291905 12.452874,3.505759 0.006,0.01395 2.07895,4.965155 0.628421,9.14989 -0.0066,0.0086 -0.128169,0.249836 -0.104736,0.249836 1.054286,0.07026 1.608639,-0.781744 1.608639,-0.781744 5.454634,7.665473 2.489307,15.902687 1.603269,17.958605 l -0.327629,0.687719 a 27.499992,27.508766 0 0 0 13.500235,-5.652192 l -0.190669,-0.623246 c -0.724161,-2.060174 -3.88911,-10.385744 -8.317136,-12.424614 0,2e-6 -0.797695,0.650534 -0.561282,1.68169 0.13205,0.590142 -4.516493,-8.919764 -7.839112,-10.251313 z m 0,0.0055 c 0,0 -4.233322,3.443681 -8.714597,3.164583 -0.0149,0 -0.277562,-0.05351 -0.271242,-0.03222 0.210863,1.022625 1.189699,1.32708 1.189699,1.32708 -6.20648,7.360762 -14.8911969,6.587368 -16.7846633,6.321055 L 6.1914055,42.149611 A 27.499992,27.508766 0 0 0 16.853024,54.770332 l 0.494139,-0.462062 c 1.663442,-1.314508 8.608943,-7.071987 9.058346,-11.895391 0,0 -0.886612,-0.5253 -1.793941,0.04568 -0.517325,0.319429 6.730712,-7.419435 6.888424,-10.949776 z"
       id="path3" />
    <path
       style="opacity:0.2;fill:#ffffff;stroke-width:0.982302"
       d="M 31.499992,4 A 27.499992,27.508766 0 0 0 4,31.508766 27.499992,27.508766 0 0 0 4.0326098,31.982727 27.499992,27.508766 0 0 1 31.499992,4.9824558 27.499992,27.508766 0 0 1 58.982721,31.746704 27.499992,27.508766 0 0 0 58.999984,31.508766 27.499992,27.508766 0 0 0 31.499992,4 Z"
       id="path4" />
  </g>
</svg>
