<?xml version="1.0" encoding="UTF-8" standalone="no"?>
<svg
   width="62"
   height="62"
   version="1.1"
   id="svg4"
   sodipodi:docname="distributor-logo-mx.svg"
   inkscape:version="1.4 (unknown)"
   xmlns:inkscape="http://www.inkscape.org/namespaces/inkscape"
   xmlns:sodipodi="http://sodipodi.sourceforge.net/DTD/sodipodi-0.dtd"
   xmlns="http://www.w3.org/2000/svg"
   xmlns:svg="http://www.w3.org/2000/svg">
  <defs
     id="defs4" />
  <sodipodi:namedview
     id="namedview4"
     pagecolor="#ffffff"
     bordercolor="#000000"
     borderopacity="0.25"
     inkscape:showpageshadow="2"
     inkscape:pageopacity="0.0"
     inkscape:pagecheckerboard="0"
     inkscape:deskcolor="#d1d1d1"
     inkscape:zoom="12.078125"
     inkscape:cx="32"
     inkscape:cy="32"
     inkscape:window-width="1920"
     inkscape:window-height="996"
     inkscape:window-x="0"
     inkscape:window-y="0"
     inkscape:window-maximized="1"
     inkscape:current-layer="svg4" />
  <g
     id="g4"
     transform="translate(-0.5,-1.0000002)">
    <rect
       style="opacity:0.2;stroke-width:0.982302"
       width="55"
       height="55.017544"
       x="4"
       y="4.9824567"
       rx="2.7499988"
       ry="2.7508759"
       id="rect1" />
    <rect
       style="fill:#2d3d53;stroke-width:0.982302;fill-opacity:1"
       width="55"
       height="55.017544"
       x="4"
       y="4"
       rx="2.7499988"
       ry="2.7508759"
       id="rect2" />
    <path
       style="opacity:0.1;fill:#ffffff;stroke-width:0.982302"
       d="M 6.750785,4 C 5.2272853,4 4,5.2276768 4,6.7516624 V 7.7341182 C 4,6.2101326 5.2272853,4.9824558 6.750785,4.9824558 h 49.498218 c 1.523304,0 2.750982,1.2276768 2.750982,2.7516624 V 6.7516624 C 58.999985,5.2276768 57.772307,4 56.249003,4 Z"
       id="path2" />
    <path
       style="opacity:0.2;stroke-width:0.982302"
       d="m 22.660713,16.771927 -3.928574,3.92982 10.843838,12.204067 -2.190182,2.576989 L 24.624996,32.491224 9.8928559,49.19297 H 53.107133 L 43.285709,37.403503 42.148384,38.702311 35.062225,30.727714 45.249992,18.736838 43.285709,16.771927 33.203029,28.636065 Z m 8.77446,18.225537 7.032144,7.912706 -2.056612,2.35298 -7.132316,-7.72898 z"
       id="path3" />
    <path
       style="fill:#f2f2f2;stroke-width:0.982302;fill-opacity:1"
       d="M 22.660713,15.789468 18.732139,19.719296 29.575977,31.923364 27.385795,34.500343 24.624996,31.508764 9.8928559,48.210519 H 53.107133 l -9.821424,-11.789476 -1.137325,1.29881 -7.086159,-7.974598 10.187767,-11.990869 -1.964283,-1.964918 -10.08268,11.864137 z m 8.77446,18.225545 7.032144,7.912698 -2.056612,2.35298 -7.132316,-7.728978 z"
       id="path4" />
  </g>
</svg>
