<?xml version="1.0" encoding="UTF-8" standalone="no"?>
<svg
   width="62"
   height="62"
   version="1.1"
   id="svg4"
   sodipodi:docname="distributor-logo-pureos.svg"
   inkscape:version="1.4 (unknown)"
   xmlns:inkscape="http://www.inkscape.org/namespaces/inkscape"
   xmlns:sodipodi="http://sodipodi.sourceforge.net/DTD/sodipodi-0.dtd"
   xmlns="http://www.w3.org/2000/svg"
   xmlns:svg="http://www.w3.org/2000/svg">
  <defs
     id="defs4" />
  <sodipodi:namedview
     id="namedview4"
     pagecolor="#ffffff"
     bordercolor="#000000"
     borderopacity="0.25"
     inkscape:showpageshadow="2"
     inkscape:pageopacity="0.0"
     inkscape:pagecheckerboard="0"
     inkscape:deskcolor="#d1d1d1"
     inkscape:zoom="12.078125"
     inkscape:cx="32"
     inkscape:cy="34.152652"
     inkscape:window-width="1920"
     inkscape:window-height="996"
     inkscape:window-x="0"
     inkscape:window-y="0"
     inkscape:window-maximized="1"
     inkscape:current-layer="svg4" />
  <ellipse
     cx="31.499998"
     cy="32.491234"
     style="opacity:0.2;stroke-width:0.982303"
     id="circle1"
     rx="27.499998"
     ry="27.508766" />
  <ellipse
     cx="31.499998"
     cy="31.508766"
     style="fill:#2d3d53;stroke-width:0.982303;fill-opacity:1"
     id="circle2"
     rx="27.499998"
     ry="27.508766" />
  <path
     d="M 31.5,4 A 27.5,27.508768 0 0 0 4,31.508768 27.5,27.508768 0 0 0 4.0211163,32.084488 27.5,27.508768 0 0 1 31.5,4.982456 27.5,27.508768 0 0 1 58.979375,31.915506 27.5,27.508768 0 0 0 59,31.508768 27.5,27.508768 0 0 0 31.5,4 Z"
     style="opacity:0.1;fill:#ffffff;stroke-width:0.982303"
     id="path2" />
  <path
     d="M 14.803573,21.68421 V 43.29824 H 48.196429 V 21.68421 Z M 17.75,24.631576 H 45.250002 V 40.350872 H 17.75 Z"
     style="opacity:0.2;stroke-width:0.982303"
     id="path3" />
  <path
     d="M 14.803573,20.70175 V 42.315784 H 48.196429 V 20.70175 Z M 17.75,23.64912 H 45.250002 V 39.368416 H 17.75 Z"
     style="fill:#f3f3f3;stroke-width:0.982303;fill-opacity:1"
     id="path4" />
</svg>
