<?xml version="1.0" encoding="UTF-8" standalone="no"?>
<svg
   width="62"
   height="62"
   version="1.1"
   id="svg6"
   sodipodi:docname="distributor-logo-openbsd.svg"
   inkscape:version="1.4 (unknown)"
   xmlns:inkscape="http://www.inkscape.org/namespaces/inkscape"
   xmlns:sodipodi="http://sodipodi.sourceforge.net/DTD/sodipodi-0.dtd"
   xmlns="http://www.w3.org/2000/svg"
   xmlns:svg="http://www.w3.org/2000/svg">
  <defs
     id="defs6" />
  <sodipodi:namedview
     id="namedview6"
     pagecolor="#ffffff"
     bordercolor="#000000"
     borderopacity="0.25"
     inkscape:showpageshadow="2"
     inkscape:pageopacity="0.0"
     inkscape:pagecheckerboard="0"
     inkscape:deskcolor="#d1d1d1"
     inkscape:zoom="12.078125"
     inkscape:cx="32"
     inkscape:cy="32"
     inkscape:window-width="1920"
     inkscape:window-height="996"
     inkscape:window-x="0"
     inkscape:window-y="0"
     inkscape:window-maximized="1"
     inkscape:current-layer="svg6" />
  <g
     id="g6"
     transform="translate(-1,-2.5)">
    <path
       d="m 35,8 -2.800781,4.201172 a 22,22 0 0 0 -2.720703,0.53125 L 25,9 v 5.429688 a 22,22 0 0 0 -3.351562,2.11914 L 17,15 18.498047,19.492188 A 22,22 0 0 0 15.978516,23 H 11 l 3.179688,3.974609 A 22,22 0 0 0 13.230469,31 H 12 C 11,31 11,26 8,26 H 4 c 0,0 3.864448,4.316002 4,7 0.1655904,3.278774 -4,9 -4,9 h 3 c 4,0 4,-6 6,-6 l 0.08008,-0.398438 a 22,22 0 0 0 1.095703,5.429688 L 11,45 h 4.970703 a 22,22 0 0 0 2.523438,3.515625 L 17,53 21.634766,51.455078 A 22,22 0 0 0 25,53.595703 V 59 l 4.466797,-3.722656 a 22,22 0 0 0 2.728515,0.515625 L 35,60 37.492188,55.845703 a 22,22 0 0 0 2.886718,-0.542969 L 45,59 v -5.431641 a 22,22 0 0 0 3.349609,-2.11914 L 53,53 51.023438,49.048828 a 22,22 0 0 0 3.25,-4.447266 A 4,4 0 0 0 56,45 4,4 0 0 0 60,41 4,4 0 0 0 57.929688,37.498047 4,4 0 0 0 60,34 4,4 0 0 0 56.634766,30.054688 22,22 0 0 0 51.019531,18.960938 L 53,15 48.347656,16.550781 A 22,22 0 0 0 45,14.425781 V 9 l -4.623047,3.697266 a 22,22 0 0 0 -2.878906,-0.533204 z"
       style="opacity:0.2"
       id="path1" />
    <path
       d="m 35,7 -2.800781,4.201172 a 22,22 0 0 0 -2.720703,0.53125 L 25,8 v 5.429688 a 22,22 0 0 0 -3.351562,2.11914 L 17,14 18.498047,18.492188 A 22,22 0 0 0 15.978516,22 H 11 l 3.179688,3.974609 A 22,22 0 0 0 13.230469,30 H 12 C 11,30 11,25 8,25 H 4 c 0,0 3.864448,4.316002 4,7 0.1655904,3.278774 -4,9 -4,9 h 3 c 4,0 4,-6 6,-6 l 0.08008,-0.398438 a 22,22 0 0 0 1.095703,5.429688 L 11,44 h 4.970703 a 22,22 0 0 0 2.523438,3.515625 L 17,52 21.634766,50.455078 A 22,22 0 0 0 25,52.595703 V 58 l 4.466797,-3.722656 a 22,22 0 0 0 2.728515,0.515625 L 35,59 37.492188,54.845703 a 22,22 0 0 0 2.886718,-0.542969 L 45,58 v -5.431641 a 22,22 0 0 0 3.349609,-2.11914 L 53,52 51.023438,48.048828 a 22,22 0 0 0 3.25,-4.447266 A 4,4 0 0 0 56,44 4,4 0 0 0 60,40 4,4 0 0 0 57.929688,36.498047 4,4 0 0 0 60,33 4,4 0 0 0 56.634766,29.054688 22,22 0 0 0 51.019531,17.960938 L 53,14 48.347656,15.550781 A 22,22 0 0 0 45,13.425781 V 8 l -4.623047,3.697266 a 22,22 0 0 0 -2.878906,-0.533204 z"
       style="fill:#e8d149;fill-opacity:1"
       id="path2" />
    <path
       d="m 47.5,24.000297 a 4.5,6 0 0 0 -4.460938,5.257812 c 4.4e-4,-2.58e-4 0.0015,2.59e-4 0.002,0 A 4.5,6 0 0 0 43,30.000297 4.5,6 0 0 0 44.375,34.308891 3.5,1.5 0 0 1 46.5,34.000297 3.5,1.5 0 0 1 49.871094,35.096 4.5,6 0 0 0 52,30.000297 4.5,6 0 0 0 51.955078,29.207328 4.5,6 0 0 0 47.5,24.000297 Z"
       style="opacity:0.2"
       id="path3" />
    <path
       d="m 47.492188,23.355469 -4.451172,4.90039 A 4.5,6 0 0 0 43,29 4.5,6 0 0 0 44.375,33.308594 3.5,1.5 0 0 1 46.5,33 3.5,1.5 0 0 1 49.871094,34.095703 4.5,6 0 0 0 52,29 4.5,6 0 0 0 51.955078,28.207031 Z"
       style="fill:#f2f2f2;fill-opacity:1"
       id="path4" />
    <path
       d="m 47.5,23 a 4.5,6 0 0 0 -4.460938,5.257812 C 44.008234,27.688143 45.64884,27 48,27 c 1.711809,0 3.080226,0.647806 3.955078,1.207031 A 4.5,6 0 0 0 47.5,23 Z"
       style="fill:#ae842a;fill-opacity:1"
       id="path5" />
    <circle
       cx="47.5"
       cy="30.5"
       r="1.5"
       style="fill:#2d3d53;fill-opacity:1"
       id="circle5" />
    <path
       d="m 35,7 -2.800781,4.201172 a 22,22 0 0 0 -2.720703,0.53125 L 25,8 v 1 l 4.478516,3.732422 a 22,22 0 0 1 2.720703,-0.53125 L 35,8 l 2.498047,4.164062 a 22,22 0 0 1 2.878906,0.533204 L 45,9 V 8 l -4.623047,3.697266 a 22,22 0 0 0 -2.878906,-0.533204 z m 10,6.425781 v 1 a 22,22 0 0 1 3.347656,2.125 L 52.400391,15.199219 53,14 48.347656,15.550781 A 22,22 0 0 0 45,13.425781 Z m -20,0.0039 a 22,22 0 0 0 -3.351562,2.11914 L 17,14 l 0.375,1.125 4.273438,1.423828 A 22,22 0 0 1 25,14.429688 Z m 26.337891,4.894531 -0.31836,0.636719 a 22,22 0 0 1 5.615235,11.09375 4,4 0 0 1 3.328125,3.435546 A 4,4 0 0 0 60,33 4,4 0 0 0 56.634766,29.054688 22,22 0 0 0 51.337891,18.324219 Z m -33.074219,0.46289 A 22,22 0 0 0 15.978516,22 H 11 l 0.800781,1 h 4.177735 a 22,22 0 0 1 2.519531,-3.507812 z M 4,25 c 0,0 0.3528793,0.402144 0.8300781,1 H 8 c 3,0 3,5 4,5 h 1.230469 a 22,22 0 0 1 0.949219,-4.025391 L 13.970703,26.712891 A 22,22 0 0 0 13.230469,30 H 12 c -1,0 -1,-5 -4,-5 z m 3.9667969,7.740234 C 7.5854389,36.070115 4,41 4,41 H 4.6835938 C 5.8569333,39.216845 8.1230982,35.437407 8,33 7.9957796,32.916434 7.9780175,32.826785 7.9667969,32.740234 Z M 58.636719,37 a 4,4 0 0 1 -0.707031,0.498047 4,4 0 0 1 2.035156,2.996094 A 4,4 0 0 0 60,40 4,4 0 0 0 58.636719,37 Z M 13.953125,40.308594 11,44 h 0.800781 l 2.375,-2.96875 A 22,22 0 0 1 13.953125,40.308594 Z M 18.259766,48.220703 17,52 l 0.375,-0.125 1.119141,-3.359375 a 22,22 0 0 1 -0.234375,-0.294922 z m 33.080078,0.458985 a 22,22 0 0 1 -0.316406,0.36914 l 1.376953,2.75 L 53,52 Z"
       style="opacity:0.2;fill:#ffffff"
       id="path6" />
  </g>
</svg>
