<?xml version="1.0" encoding="UTF-8" standalone="no"?>
<svg
   width="62"
   height="62"
   version="1.1"
   id="svg10"
   sodipodi:docname="distributor-logo-korora.svg"
   inkscape:version="1.4 (unknown)"
   xmlns:inkscape="http://www.inkscape.org/namespaces/inkscape"
   xmlns:sodipodi="http://sodipodi.sourceforge.net/DTD/sodipodi-0.dtd"
   xmlns="http://www.w3.org/2000/svg"
   xmlns:svg="http://www.w3.org/2000/svg">
  <defs
     id="defs10" />
  <sodipodi:namedview
     id="namedview10"
     pagecolor="#ffffff"
     bordercolor="#000000"
     borderopacity="0.25"
     inkscape:showpageshadow="2"
     inkscape:pageopacity="0.0"
     inkscape:pagecheckerboard="0"
     inkscape:deskcolor="#d1d1d1"
     inkscape:zoom="12.078125"
     inkscape:cx="32"
     inkscape:cy="32"
     inkscape:window-width="1920"
     inkscape:window-height="996"
     inkscape:window-x="0"
     inkscape:window-y="0"
     inkscape:window-maximized="1"
     inkscape:current-layer="svg10" />
  <g
     id="g10"
     transform="translate(-0.5,-1)">
    <path
       style="opacity:0.2;stroke-width:0.982303"
       d="m 39.357144,4.982456 c -10.84875,0 -19.642855,8.796914 -19.642855,19.649124 0,10.85221 8.794105,19.64912 19.642855,19.64912 C 50.205895,44.2807 59,35.48379 59,24.63158 V 7.986807 C 59,6.316632 57.666255,4.982456 55.996608,4.982456 Z"
       id="path1" />
    <path
       style="fill:#2d3d53;stroke-width:0.982303;fill-opacity:1"
       d="m 39.357144,4 c -10.84875,0 -19.642855,8.79691 -19.642855,19.64912 0,10.85221 8.794105,19.64913 19.642855,19.64913 C 50.205895,43.29825 59,34.50133 59,23.64912 V 7.004351 C 59,5.334175 57.666255,4 55.996608,4 Z"
       id="path2" />
    <path
       style="opacity:0.2;stroke-width:0.982303"
       d="m 39.357144,38.38596 c 7.62143,0 13.750005,-6.13052 13.750005,-13.75438 V 10.87719 H 39.357144 c -7.621429,0 -13.749995,6.13053 -13.749995,13.75439 0,7.62386 6.128566,13.75438 13.749995,13.75438 z"
       id="path3" />
    <path
       style="fill:#ececec;stroke-width:0.982303"
       d="m 39.357144,37.40351 c 7.62143,0 13.750005,-6.13053 13.750005,-13.75439 V 9.894737 H 39.357144 c -7.621429,0 -13.749995,6.130523 -13.749995,13.754383 0,7.62386 6.128566,13.75439 13.749995,13.75439 z"
       id="path4" />
    <path
       style="opacity:0.2;stroke-width:0.982303"
       d="M 23.642856,20.70175 C 12.794105,20.70175 4,29.49867 4,40.35088 v 16.6428 C 4,58.66386 5.3414112,60 7.007125,60 h 16.635731 c 10.84875,0 19.642865,-8.79691 19.642865,-19.64912 0,-10.85221 -8.794115,-19.64913 -19.642865,-19.64913 z"
       id="path5" />
    <path
       style="opacity:0.1;fill:#ffffff;stroke-width:0.982303"
       d="m 39.357144,4 c -10.84875,0 -19.642855,8.79691 -19.642855,19.64912 0,0.16506 0.008,0.32716 0.0118,0.49123 C 19.987321,13.51607 28.673391,4.982456 39.357144,4.982456 H 55.995628 C 57.665276,4.982456 59,6.317221 59,7.987396 V 7.00494 C 59,5.334765 57.665276,4 55.995628,4 Z"
       id="path6" />
    <path
       style="fill:#415878;stroke-width:0.982303;fill-opacity:1"
       d="M 23.642856,19.7193 C 12.794105,19.7193 4,28.51621 4,39.36842 v 16.64281 c 0,1.67017 1.3414112,3.00631 3.007125,3.00631 h 16.635731 c 10.84875,0 19.642865,-8.79691 19.642865,-19.64912 0,-10.85221 -8.794115,-19.64912 -19.642865,-19.64912 z"
       id="path7" />
    <path
       style="opacity:0.2;stroke-width:0.982303"
       d="m 23.642856,26.59649 c -7.62143,0 -13.7499983,6.13053 -13.7499983,13.75439 V 54.10526 H 23.642856 c 7.621429,0 13.750005,-6.13052 13.750005,-13.75438 0,-7.62386 -6.128576,-13.75439 -13.750005,-13.75439 z"
       id="path8" />
    <path
       style="fill:#ffffff;stroke-width:0.982303"
       d="m 23.642856,25.61404 c -7.62143,0 -13.7499983,6.13052 -13.7499983,13.75438 V 53.12281 H 23.642856 c 7.621429,0 13.750005,-6.13053 13.750005,-13.75439 0,-7.62386 -6.128576,-13.75438 -13.750005,-13.75438 z"
       id="path9" />
    <path
       style="opacity:0.2;fill:#ffffff;stroke-width:0.982303"
       d="M 23.642856,19.7193 C 12.794105,19.7193 4,28.51621 4,39.36842 v 0.98246 c 0,-10.85221 8.794105,-19.64913 19.642856,-19.64913 10.683753,0 19.369823,8.53362 19.631079,19.1579 0.004,-0.16407 0.0118,-0.32618 0.0118,-0.49123 0,-10.85221 -8.794115,-19.64912 -19.642867,-19.64912 z"
       id="path10" />
  </g>
</svg>
