<?xml version="1.0" encoding="UTF-8" standalone="no"?>
<svg
   width="62"
   height="62"
   version="1.1"
   id="svg5"
   sodipodi:docname="distributor-logo-hyperbola.svg"
   inkscape:version="1.4 (unknown)"
   xmlns:inkscape="http://www.inkscape.org/namespaces/inkscape"
   xmlns:sodipodi="http://sodipodi.sourceforge.net/DTD/sodipodi-0.dtd"
   xmlns="http://www.w3.org/2000/svg"
   xmlns:svg="http://www.w3.org/2000/svg">
  <defs
     id="defs5" />
  <sodipodi:namedview
     id="namedview5"
     pagecolor="#ffffff"
     bordercolor="#000000"
     borderopacity="0.25"
     inkscape:showpageshadow="2"
     inkscape:pageopacity="0.0"
     inkscape:pagecheckerboard="0"
     inkscape:deskcolor="#d1d1d1"
     inkscape:zoom="12.078125"
     inkscape:cx="32"
     inkscape:cy="32"
     inkscape:window-width="1920"
     inkscape:window-height="996"
     inkscape:window-x="0"
     inkscape:window-y="0"
     inkscape:window-maximized="1"
     inkscape:current-layer="svg5" />
  <rect
     opacity="0.2"
     width="56"
     height="56"
     x="4"
     y="5"
     ry="8"
     id="rect1" />
  <rect
     style="fill:#2d3d53;fill-opacity:1"
     width="56"
     height="56"
     x="3"
     y="3"
     ry="8"
     id="rect2" />
  <path
     style="opacity:0.2"
     d="m 33.955078,12.826 c -7.908,18.48 9.935766,24.269784 22.009766,0.458984 -9.056,7.684 -22.259766,16.160216 -22.009766,-0.458984 z m 0.298828,17.169922 0.0039,0.0039 C 28.679602,30.017108 20.173717,35.956375 8,52.560375 33.930116,33.320375 39.037453,37.42 42.322266,52.576 44.235421,42.196 42.27243,29.975922 34.253906,29.995922 Z"
     id="path2" />
  <path
     fill="#ffffff"
     style="opacity:0.1"
     d="M 12,4 C 7.568,4 4,7.568 4,12 v 1 C 4,8.568 7.568,5 12,5 h 40 c 4.432,0 8,3.568 8,8 V 12 C 60,7.568 56.432,4 52,4 Z"
     id="path3" />
  <path
     fill="#c0c0c0"
     d="M 34.258597,29 C 28.680387,29.01728 20.173717,34.956 8,51.56 33.930116,32.32 39.036507,36.42 42.32132,51.576 c 1.913155,-10.38 -0.04818,-22.6 -8.066704,-22.58 z"
     id="path4"
     style="fill:#cccccc;fill-opacity:1" />
  <path
     fill="#c0c0c0"
     d="m 33.955397,11.825613 c -7.908,18.48 9.936,24.27 22.01,0.4592 -9.056,7.684 -22.26,16.16 -22.01,-0.4592 z"
     id="path5"
     style="fill:#cccccc;fill-opacity:1" />
</svg>
