<?xml version="1.0" encoding="UTF-8" standalone="no"?>
<svg
   width="62"
   height="62"
   version="1.1"
   id="svg9"
   sodipodi:docname="distributor-logo-blackarch.svg"
   inkscape:version="1.4 (unknown)"
   xmlns:inkscape="http://www.inkscape.org/namespaces/inkscape"
   xmlns:sodipodi="http://sodipodi.sourceforge.net/DTD/sodipodi-0.dtd"
   xmlns="http://www.w3.org/2000/svg"
   xmlns:svg="http://www.w3.org/2000/svg">
  <defs
     id="defs9" />
  <sodipodi:namedview
     id="namedview9"
     pagecolor="#ffffff"
     bordercolor="#000000"
     borderopacity="0.25"
     inkscape:showpageshadow="2"
     inkscape:pageopacity="0.0"
     inkscape:pagecheckerboard="0"
     inkscape:deskcolor="#d1d1d1"
     inkscape:zoom="12.078125"
     inkscape:cx="32"
     inkscape:cy="32"
     inkscape:window-width="1920"
     inkscape:window-height="996"
     inkscape:window-x="0"
     inkscape:window-y="0"
     inkscape:window-maximized="1"
     inkscape:current-layer="svg9" />
  <g
     id="g9"
     transform="translate(-1.0019032,-1)">
    <path
       d="m 32.000381,12.841167 c -1.780746,4.288365 -2.854762,7.09344 -4.83736,11.253897 1.215543,1.265684 2.707642,2.739545 5.130828,4.404194 -2.605124,-1.052977 -4.382084,-2.110093 -5.710045,-3.207089 -2.537297,5.200663 -6.512693,12.608689 -14.579901,26.846268 6.34056,-3.595454 10.755505,-5.812146 15.336413,-6.658025 -0.196699,-0.83095 -0.308543,-1.729788 -0.300938,-2.667636 l 0.007,-0.199528 c 0.100576,-3.990099 2.758197,-7.171187 5.216675,-7.176571 2.458478,-0.0055 4.849267,3.940202 4.748646,7.930302 -0.01892,0.75088 -0.105149,1.473071 -0.255783,2.143002 4.530904,0.870639 8.993094,3.081631 15.247842,6.628456 -1.233353,-2.230252 -2.334164,-4.240726 -3.385375,-6.155512 -1.655932,-1.260664 -3.383076,-2.901353 -6.906178,-4.67761 2.421583,0.618062 4.155431,1.331113 5.506902,2.128173 C 36.530977,23.886786 35.665807,21.2892 32.000075,12.840187 Z"
       style="fill:#2d3d53;fill-rule:evenodd;stroke-width:0.991192;fill-opacity:1"
       id="path1" />
    <path
       d="M 29.999933,10.87719 V 60 l 3.999979,-7.85965 V 10.87719 Z"
       style="opacity:0.2;stroke-width:0.991192"
       id="path2" />
    <path
       d="M 29.999933,9.894737 V 59.01754 l 3.999979,-7.85965 V 9.894737 Z"
       style="fill:#445d7e;stroke-width:0.991192;fill-opacity:1"
       id="path3" />
    <path
       d="m 31.96281,12.844023 a 1.0000964,0.9825544 0 0 0 -0.892573,0.615953 v -0.0059 c -1.785244,4.299216 -2.848174,7.077828 -4.816385,11.208094 a 1.0000964,0.9825544 0 0 0 -0.04882,0.704227 1.0000964,0.9825544 0 0 0 -0.527342,0.485471 C 23.156382,31.01979 19.190386,38.414051 11.126978,52.644935 a 1.0000964,0.9825544 0 0 0 1.373042,1.327852 c 6.320615,-3.584132 10.63757,-5.733804 15.02142,-6.543305 a 1.0000964,0.9825544 0 0 0 0.789064,-1.187774 c -0.179188,-0.75696 -0.281811,-1.577234 -0.275391,-2.43119 1.6e-5,-0.002 -1.6e-5,-0.0038 0,-0.0059 l 0.0059,-0.172694 a 1.0000964,0.9825544 0 0 0 0.002,-0.0098 c 0.04508,-1.787412 0.671954,-3.396333 1.525384,-4.518916 0.853432,-1.12258 1.90231,-1.698377 2.693352,-1.700111 0.684006,-0.0015 1.681422,0.671211 2.470689,1.984101 0.789272,1.312896 1.320638,3.144717 1.275392,4.939146 -0.01742,0.692599 -0.09709,1.353473 -0.232426,1.95532 a 1.0000964,0.9825544 0 0 0 0.785156,1.176258 c 4.339196,0.833896 8.70707,2.980549 14.939313,6.514603 a 1.0000964,0.9825544 0 0 0 1.378905,-1.318229 c -1.23219,-2.227885 -2.333205,-4.238126 -3.384781,-6.153574 a 1.0000964,0.9825544 0 0 0 -0.267596,-0.31083 c -0.385128,-0.29321 -0.903104,-0.695164 -1.339835,-1.04386 a 1.0000964,0.9825544 0 0 0 0.208981,-1.193533 C 37.414268,24.418371 36.5884,21.903416 32.915936,13.438872 A 1.0000964,0.9825544 0 0 0 31.96281,12.844023 Z m 0.05076,3.463541 c 2.753109,6.39348 4.992687,11.32882 13.097613,26.253836 -0.942293,-0.384454 -1.693937,-0.810374 -2.935537,-1.137883 -0.005,-0.0026 -0.0067,-0.0052 -0.01174,-0.0078 v 0.002 c -0.08676,-0.02284 -0.11672,-0.05612 -0.205083,-0.07868 a 1.0000964,0.9825544 0 0 0 -0.707025,1.824832 c 3.31264,1.670154 4.916543,3.16365 6.580054,4.447924 0.534034,0.972883 1.144803,2.079221 1.71679,3.120061 -4.363112,-2.363777 -8.128099,-4.088653 -11.714805,-4.908444 0.06872,-0.478234 0.161169,-0.945915 0.173828,-1.448739 0.05533,-2.195666 -0.557135,-4.330753 -1.55273,-5.98684 -0.99558,-1.656143 -2.422767,-2.953241 -4.197243,-2.949341 -1.667445,0.0037 -3.177814,1.021928 -4.292959,2.488759 -1.115136,1.466829 -1.866326,3.442599 -1.921866,5.645288 l -0.0078,0.189961 a 1.0000964,0.9825544 0 0 0 0,0.02684 c -0.0057,0.704245 0.120832,1.348562 0.22656,2.001375 -3.634668,0.806385 -7.414484,2.544228 -11.835898,4.948738 6.191836,-10.998484 10.228663,-18.40336 12.509719,-23.030155 1.295152,0.921497 2.830669,1.815996 4.974597,2.682566 a 1.0000964,0.9825544 0 0 0 0.953123,-1.713544 c -2.130663,-1.463688 -3.373079,-2.709328 -4.503896,-3.86841 1.423897,-3.037183 2.47004,-5.616574 3.654284,-8.502467 z"
       style="opacity:0.2;fill-rule:evenodd;stroke-width:0.991192"
       id="path4" />
    <path
       d="m 32.000381,12.841167 c -1.780746,4.288365 -2.854762,7.09344 -4.83736,11.253897 1.215543,1.265684 2.707642,2.739545 5.130828,4.404194 -2.605124,-1.052977 -4.382084,-2.110093 -5.710045,-3.207089 -2.537297,5.200663 -6.512693,12.608689 -14.579901,26.846268 6.34056,-3.595454 10.755505,-5.812146 15.336413,-6.658025 -0.196699,-0.83095 -0.308543,-1.729788 -0.300938,-2.667636 l 0.007,-0.199528 c 0.100576,-3.990099 2.758197,-7.171187 5.216675,-7.176571 2.458478,-0.0055 4.849267,3.940202 4.748646,7.930302 -0.01892,0.75088 -0.105149,1.473071 -0.255783,2.143002 4.530904,0.870639 8.993094,3.081631 15.247842,6.628456 -1.233353,-2.230252 -2.334164,-4.240726 -3.385375,-6.155512 -1.655932,-1.260664 -3.383076,-2.901353 -6.906178,-4.67761 2.421583,0.618062 4.155431,1.331113 5.506902,2.128173 C 36.530977,23.886786 35.665807,21.2892 32.000075,12.840187 Z"
       style="fill:none;stroke:#1aa1e5;stroke-width:1.98236;stroke-linecap:round;stroke-linejoin:round;stroke-opacity:1"
       id="path5" />
    <path
       d="m 31.96672,11.85965 a 1.0000964,0.9825544 0 0 0 -0.892577,0.615953 v -0.0059 c -1.785246,4.299182 -2.848176,7.077792 -4.816388,11.208062 a 1.0000964,0.9825544 0 0 0 -0.04882,0.704222 1.0000964,0.9825544 0 0 0 -0.527344,0.485475 c -2.52133,5.16791 -6.487327,12.562171 -14.550734,26.793055 a 1.0000964,0.9825544 0 0 0 0.0078,0.963269 C 19.192999,38.408466 23.157719,31.01693 25.677635,25.851916 a 1.0000964,0.9825544 0 0 1 0.527341,-0.485471 1.0000964,0.9825544 0 0 1 0.04882,-0.704227 c 1.968216,-4.130266 3.031146,-6.908839 4.81639,-11.208053 v 0.0059 a 1.0000964,0.9825544 0 0 1 0.892575,-0.615953 1.0000964,0.9825544 0 0 1 0.953124,0.594849 c 3.670824,8.460752 4.498246,10.980406 15.165961,30.490676 a 1.0000964,0.9825544 0 0 0 0.01757,-0.961346 C 37.418178,23.433988 36.592305,20.919032 32.919839,12.454499 A 1.0000964,0.9825544 0 0 0 31.96672,11.85965 Z m -3.304678,12.269191 c -0.108075,0.234719 -0.19018,0.441129 -0.302731,0.68119 1.130811,1.159074 2.373231,2.404722 4.503894,3.86842 a 1.0000964,0.9825544 0 0 1 0.291011,0.314692 1.0000964,0.9825544 0 0 0 -0.287104,-1.299065 C 30.9177,26.354898 29.71918,25.203655 28.662042,24.128841 Z m 3.599599,10.325376 c -1.667443,0.0037 -3.177812,1.021938 -4.292948,2.488763 -1.115146,1.466835 -1.866335,3.442605 -1.921874,5.645284 l -0.0078,0.189969 a 1.0000964,0.9825544 0 0 0 0,0.02684 c -0.0011,0.136337 0.01972,0.262953 0.02732,0.395284 0.126203,-2.051734 0.846911,-3.889874 1.898434,-5.273028 1.115129,-1.466821 2.625501,-2.485119 4.292941,-2.488749 1.774479,-0.004 3.201669,1.293138 4.197251,2.949283 0.870264,1.447613 1.44833,3.26159 1.542964,5.161736 0.0031,-0.05313 0.01233,-0.103476 0.01369,-0.157346 v -0.002 c 0.05494,-2.194938 -0.557423,-4.331196 -1.552713,-5.986788 -0.995588,-1.656087 -2.422774,-2.953192 -4.197251,-2.949288 z m 9.404262,5.871712 a 1.0000964,0.9825544 0 0 0 -0.818354,1.469854 1.0000964,0.9825544 0 0 1 1.111321,-0.456694 c 0.08835,0.02256 0.118375,0.05584 0.205083,0.07868 v -0.002 c 0.005,0.0026 0.0067,0.0052 0.01174,0.0078 1.2416,0.327512 1.993244,0.753429 2.935538,1.137883 -0.274229,-0.504981 -0.426454,-0.80308 -0.687499,-1.285634 -0.662532,-0.295386 -1.319164,-0.592634 -2.244133,-0.836622 -0.005,-0.0026 -0.0067,-0.0052 -0.01174,-0.0078 v 0.002 c -0.08677,-0.02284 -0.116722,-0.05612 -0.205086,-0.07868 a 1.0000964,0.9825544 0 0 0 -0.296872,-0.0288 z m -13.60151,2.964639 c -0.0073,0.110561 -0.01865,0.219934 -0.02145,0.33196 a 1.0000964,0.9825544 0 0 1 -0.002,0.0098 l -0.0059,0.172701 c -1.6e-5,0.0021 1.6e-5,0.0039 0,0.0059 -0.0054,0.725508 0.08085,1.417496 0.212896,2.076211 a 1.0000964,0.9825544 0 0 0 0.06639,-0.629386 C 28.168485,44.641134 28.091245,43.97525 28.06442,43.290783 Z m 7.929658,0.308943 c -0.02895,0.597132 -0.09671,1.172838 -0.214843,1.698185 a 1.0000964,0.9825544 0 0 0 0.06049,0.604445 c 0.08995,-0.498833 0.154038,-1.022153 0.167964,-1.575386 0.0061,-0.242232 4.48e-4,-0.485028 -0.01369,-0.727244 z m 12.220658,0.813595 a 1.0000964,0.9825544 0 0 1 -0.328121,0.733003 c 0.436732,0.348696 0.954707,0.75065 1.339835,1.04386 a 1.0000964,0.9825544 0 0 1 0.267582,0.310857 c 1.047568,1.908151 2.144606,3.912801 3.371083,6.130754 a 1.0000964,0.9825544 0 0 0 0.01757,-0.961346 C 51.650415,49.442248 50.549476,47.431901 49.4979,45.516442 A 1.0000964,0.9825544 0 0 0 49.230322,45.205596 C 48.938214,44.983208 48.566239,44.689921 48.2147,44.413106 Z m -22.10148,0.431743 c -3.368549,0.770399 -6.88712,2.354966 -10.910124,4.505477 -0.27443,0.488472 -0.493907,0.885802 -0.777339,1.389253 4.421413,-2.404502 8.20123,-4.142345 11.835892,-4.948739 -0.05098,-0.314878 -0.104931,-0.627378 -0.148429,-0.945991 z m 11.849565,0.02684 c -0.03633,0.320085 -0.08345,0.635642 -0.12891,0.95175 3.586707,0.819792 7.351694,2.544667 11.714806,4.908444 -0.253246,-0.460827 -0.501343,-0.912339 -0.759761,-1.381578 -3.984137,-2.121551 -7.493235,-3.698347 -10.826135,-4.478614 z"
       style="opacity:0.2;fill:#ffffff;fill-rule:evenodd;stroke-width:0.991192"
       id="path6" />
    <path
       d="m 30.999933,4.896107 c -0.553998,0 -1,0.438176 -1,0.982456 v 4.998627 a 5.9999786,1.473684 0 0 0 -3.999983,1.387339 5.9999786,1.473684 0 0 0 4.863254,1.446816 c 0.0466,0.0066 0.08829,0.02684 0.136729,0.02684 h 1.99999 c 0.05059,0 0.09401,-0.02171 0.142579,-0.0288 A 5.9999786,1.473684 0 0 0 37.999904,12.264509 5.9999786,1.473684 0 0 0 33.999912,10.87717 V 5.878563 c 0,-0.54428 -0.445992,-0.982456 -0.999989,-0.982456 z"
       style="opacity:0.2;stroke-width:0.991192"
       id="path7" />
    <path
       d="m 30.999933,4 c -0.553998,0 -1,0.438175 -1,0.982456 v 4.998626 a 5.9999786,1.473684 0 0 0 -3.999983,1.387338 5.9999786,1.473684 0 0 0 4.863254,1.44682 c 0.0466,0.0066 0.08829,0.02685 0.136729,0.02685 h 0.99999 1 c 0.05059,0 0.09401,-0.02171 0.142579,-0.0288 a 5.9999786,1.473684 0 0 0 4.857402,-1.4449 5.9999786,1.473684 0 0 0 -3.999992,-1.387333 V 4.982456 C 33.999912,4.438175 33.55392,4 32.999923,4 Z"
       style="fill:#2d3d53;stroke-width:0.991192;fill-opacity:1"
       id="path8" />
    <path
       d="m 30.999933,4 c -0.553998,0 -1,0.438175 -1,0.982456 v 0.982456 c 0,-0.54428 0.446002,-0.982456 1,-0.982456 h 1.99999 c 0.553997,0 0.999989,0.438176 0.999989,0.982456 V 4.982456 C 33.999912,4.438175 33.55392,4 32.999923,4 Z m -1,5.981082 a 5.9999786,1.473684 0 0 0 -3.999983,1.387338 5.9999786,1.473684 0 0 0 0.351558,0.49123 5.9999786,1.473684 0 0 1 3.648425,-0.896109 z m 3.999979,0 v 0.982459 a 5.9999786,1.473684 0 0 1 3.646474,0.896109 5.9999786,1.473684 0 0 0 0.353518,-0.49123 5.9999786,1.473684 0 0 0 -3.999992,-1.387338 z"
       style="opacity:0.2;fill:#ffffff;stroke-width:0.991192"
       id="path9" />
  </g>
</svg>
