<?xml version="1.0" encoding="UTF-8" standalone="no"?>
<svg
   width="62"
   height="62"
   version="1.1"
   id="svg9"
   sodipodi:docname="distributor-logo-freedos.svg"
   inkscape:version="1.4 (unknown)"
   xmlns:inkscape="http://www.inkscape.org/namespaces/inkscape"
   xmlns:sodipodi="http://sodipodi.sourceforge.net/DTD/sodipodi-0.dtd"
   xmlns="http://www.w3.org/2000/svg"
   xmlns:svg="http://www.w3.org/2000/svg">
  <defs
     id="defs9" />
  <sodipodi:namedview
     id="namedview9"
     pagecolor="#ffffff"
     bordercolor="#000000"
     borderopacity="0.25"
     inkscape:showpageshadow="2"
     inkscape:pageopacity="0.0"
     inkscape:pagecheckerboard="0"
     inkscape:deskcolor="#d1d1d1"
     inkscape:zoom="12.078125"
     inkscape:cx="32"
     inkscape:cy="32"
     inkscape:window-width="1920"
     inkscape:window-height="996"
     inkscape:window-x="0"
     inkscape:window-y="0"
     inkscape:window-maximized="1"
     inkscape:current-layer="svg9" />
  <g
     id="g9"
     transform="translate(-1,-1.5)">
    <path
       style="opacity:0.2"
       d="m 5,41 c 0,0 1.2636,2.263 3,5 0,0 -1,1 -1,5 0,2 1,5 1,5 l 3.205,-5.443 C 12.35,51.645 13.619,52.54 15,53 c 5.109,1.703 15.966,0.892 19,0 13.969,-4.108 13,-10 13,-10 z"
       id="path1" />
    <path
       style="fill:#688eca;fill-opacity:1"
       d="m 5,40 c 0,0 1.2636,2.263 3,5 0,0 -1,1 -1,5 0,2 1,5 1,5 l 3.205,-5.443 C 12.35,50.645 13.619,51.54 15,52 c 5.109,1.703 15.966,0.892 19,0 13.969,-4.108 13,-10 13,-10 z"
       id="path2" />
    <path
       style="opacity:0.2"
       d="M 29,10 C 4,10 4,40 4,45 c 0,0 12,2 21,2 4.715,0 10.284,-0.676 14.627,-1.246 C 43.08,50.68 46,56 46,56 46,56 47.036,50.244 46.1,45.166 49.204,51.012 59,52 59,52 c 0,0 -7,-6.654 -7,-11 0,-4 8,-4 8,-4 0,0 -2,-4 -5,-4 -4,0 -6,4 -6,4 0,-7 2,-27 -20,-27 z"
       id="path3" />
    <path
       style="fill:#b4c7e4;fill-opacity:1"
       d="M 29,9 C 4,9 4,39 4,44 c 0,0 12,2 21,2 4.715,0 10.284,-0.676 14.627,-1.246 C 43.08,49.68 46,55 46,55 46,55 47.036,49.244 46.1,44.166 49.204,50.012 59,51 59,51 c 0,0 -7,-6.654 -7,-11 0,-4 8,-4 8,-4 0,0 -2,-4 -5,-4 -4,0 -6,4 -6,4 C 49,29 51,9 29,9 Z"
       id="path4" />
    <circle
       style="opacity:0.2"
       cx="26"
       cy="38"
       r="5"
       id="circle4" />
    <circle
       style="fill:#f2f2f2;fill-opacity:1"
       cx="26"
       cy="37"
       r="5"
       id="circle5" />
    <circle
       style="fill:#2d3d53;fill-opacity:1"
       cx="26"
       cy="37"
       r="2"
       id="circle6" />
    <circle
       style="opacity:0.2"
       cx="12"
       cy="38"
       r="5"
       id="circle7" />
    <circle
       style="fill:#f2f2f2;fill-opacity:1"
       cx="12"
       cy="37"
       r="5"
       id="circle8" />
    <circle
       style="fill:#2d3d53;fill-opacity:1"
       cx="12"
       cy="37"
       r="2"
       id="circle9" />
    <path
       style="opacity:0.2;fill:#ffffff"
       d="M 29,9 C 4,9 4,39 4,44 4,44 4.0155,44.002 4.0156,44.002 4.0587,37.277 5.061,10 29,10 47.628,10 49.043,24.316 49.041,32.961 49.134,24.475 48.364,9 29,9 Z m 26,23 c -3.963,0 -5.949,3.903 -5.986,3.977 C 49.009,36.299 49,36.717 49,37 c 0,0 2,-4 6,-4 2.048,0 3.61,1.846 4.408,3.029 C 59.606,36.023 60,36 60,36 c 0,0 -2,-4 -5,-4 z m -2.945,8.578 C 52.033,40.717 52,40.85 52,41 c 0,3.227 3.852,7.715 5.84,9.818 C 58.398,50.909 59,51 59,51 59,51 52.606,44.911 52.055,40.578 Z M 46.1,45.166 c 0.288,1.564 0.376,3.177 0.379,4.682 0.036,-1.372 -0.017,-2.891 -0.202,-4.401 -0.056,-0.096 -0.125,-0.182 -0.177,-0.281 z"
       id="path9" />
  </g>
</svg>
