<?xml version="1.0" encoding="UTF-8" standalone="no"?>
<svg
   width="62"
   height="62"
   version="1.1"
   id="svg8"
   sodipodi:docname="distributor-logo-alt-linux.svg"
   inkscape:version="1.4 (unknown)"
   xmlns:inkscape="http://www.inkscape.org/namespaces/inkscape"
   xmlns:sodipodi="http://sodipodi.sourceforge.net/DTD/sodipodi-0.dtd"
   xmlns="http://www.w3.org/2000/svg"
   xmlns:svg="http://www.w3.org/2000/svg">
  <defs
     id="defs8" />
  <sodipodi:namedview
     id="namedview8"
     pagecolor="#ffffff"
     bordercolor="#000000"
     borderopacity="0.25"
     inkscape:showpageshadow="2"
     inkscape:pageopacity="0.0"
     inkscape:pagecheckerboard="0"
     inkscape:deskcolor="#d1d1d1"
     inkscape:zoom="12.078125"
     inkscape:cx="32"
     inkscape:cy="32"
     inkscape:window-width="1920"
     inkscape:window-height="996"
     inkscape:window-x="0"
     inkscape:window-y="0"
     inkscape:window-maximized="1"
     inkscape:current-layer="svg8" />
  <g
     id="g8"
     transform="translate(-0.5,-1)">
    <rect
       style="opacity:0.2;stroke-width:0.982302"
       width="55"
       height="55.017544"
       x="4"
       y="4.9824567"
       rx="2.7499986"
       ry="2.7508757"
       id="rect1" />
    <rect
       style="fill:#ffdb4e;stroke-width:0.982302;fill-opacity:1"
       width="55"
       height="55.017544"
       x="4"
       y="4"
       rx="2.7499986"
       ry="2.7508757"
       id="rect2" />
    <path
       style="opacity:0.1;stroke-width:0.982302"
       d="m 32.132499,48.278412 c -0.698184,0.139238 -1.885047,0.698316 -2.65424,1.047912 -0.139194,0.07015 -0.139194,0.27954 0,0.27954 0.210289,0.07015 0.350544,0.13935 0.488862,0.279542 0.350454,0.418874 0.769103,0.768467 0.769103,1.32754 0,0.628163 -0.349486,0.837649 -0.279453,1.396632 0.209419,1.118154 1.11683,3.058177 1.11683,4.246485 -0.0692,0.907702 -0.907411,0.907702 -1.39628,1.536838 -0.140174,0.209486 -0.2102,0.418872 -0.2102,0.698412 0,0.279534 -0.0692,0.768463 0.2102,0.768463 0.348608,0.07011 0.418736,-0.62826 0.768224,-0.62826 0.48877,0.0692 0.419707,0.76847 0.838348,0.76847 H 50.15088 c -0.07004,-0.210355 -0.209319,-0.488928 -0.348508,-0.559083 -0.90848,-0.838516 -3.213049,-1.956678 -3.631789,-3.283252 -0.699063,-2.026734 0.209319,-4.6107 0.488769,-6.846919 0.977546,-6.496352 0.629036,-10.060123 -0.558803,-15.439287 -0.629029,-3.073869 -1.117799,-5.798042 -2.025212,-8.801751 -0.14026,-0.559082 -0.907511,-1.327552 -1.187831,-1.81648 -0.209419,-0.34959 -0.418741,-0.978822 -0.488772,-1.397597 -0.488772,-2.3054 -0.278571,-4.540652 -1.955186,-6.49733 -0.628927,-0.698314 -1.815792,-0.768459 -2.584014,-1.257388 -1.466312,-0.76847 -2.932723,-1.536937 -4.400007,-2.444639 -0.209321,-0.1403 -0.838258,-0.349687 -1.186864,-0.1403 1.675634,1.18831 2.793434,2.584939 3.282206,4.680949 0.209321,0.977857 0.488772,1.746318 -0.488772,2.305302 -0.27945,0.140292 -2.095809,1.504384 -2.934066,3.530243 -0.209321,0.418774 -1.396283,3.143921 -2.793435,5.728862 -1.67564,-0.908671 -3.352338,-0.977859 -4.539204,-0.977859 -1.256988,0 -2.921605,0.139238 -3.969273,0.907704 -2.233572,1.677137 -3.212084,3.842334 -3.910176,6.287939 -0.558895,1.885656 -0.90751,3.842338 -1.047667,5.798041 -0.14016,2.654993 0.140633,5.411318 0.419205,8.066411 0.210192,1.746322 0.418641,3.423861 0.558808,5.170176 0.348606,1.885658 0.279451,3.353407 0.20932,3.702036 -0.627962,1.956681 -1.605506,2.655085 -3.491527,3.00468 -0.279454,0 -0.419618,0.13935 -0.349486,0.279542 h 5.238263 v 0 h 5.854238 c 0.557929,0 0.698094,-0.279542 1.256988,-0.76847 0.768223,-0.768459 -0.279453,-2.096009 0,-3.842326 0.628936,-4.332133 2.513514,-8.066808 3.420936,-12.25874 0.140267,-0.488928 0.210287,-1.118058 0.280421,-1.816374 0.348604,1.677142 0.837846,2.712402 1.326615,4.319397 0.488775,1.676159 0.977544,2.156011 1.746738,2.574793 v 0 c -0.07014,0 -0.140274,0 -0.210296,0.07014 z"
       id="path2" />
    <path
       style="fill:#2d3d53;stroke-width:0.982302;fill-opacity:1"
       d="m 32.132499,47.29596 c -0.698184,0.139231 -1.885047,0.698316 -2.65424,1.047913 -0.139194,0.07013 -0.139194,0.279533 0,0.279533 0.210289,0.07018 0.350544,0.139352 0.488862,0.27954 0.350454,0.418874 0.769103,0.76847 0.769103,1.327549 0,0.628162 -0.349486,0.837648 -0.279453,1.396632 0.209419,1.118154 1.11683,3.058177 1.11683,4.246485 -0.0692,0.907702 -0.907411,0.907702 -1.39628,1.536831 -0.140174,0.209486 -0.2102,0.418872 -0.2102,0.698412 0,0.27954 -0.0692,0.76847 0.2102,0.76847 0.348608,0.07006 0.418736,-0.62826 0.768224,-0.62826 0.48877,0.06922 0.419707,0.768462 0.838348,0.768462 H 50.15088 C 50.080857,58.807172 49.941561,58.5286 49.802372,58.458451 48.893892,57.619929 46.589323,56.501774 46.170583,55.1752 45.47152,53.148463 46.379902,50.564492 46.659352,48.328274 47.636898,41.83192 47.288388,38.268159 46.100549,32.888993 45.47152,29.815124 44.98275,27.090945 44.075337,24.087234 c -0.14026,-0.55908 -0.907511,-1.327544 -1.187831,-1.816472 -0.209419,-0.349597 -0.418741,-0.978821 -0.488772,-1.397603 -0.488772,-2.305399 -0.278571,-4.540645 -1.955186,-6.497323 -0.628927,-0.698314 -1.815792,-0.768468 -2.584014,-1.257397 -1.466312,-0.768468 -2.932723,-1.536928 -4.400007,-2.444637 -0.209321,-0.140301 -0.838258,-0.349688 -1.186864,-0.140301 1.675634,1.18831 2.793434,2.584938 3.282206,4.68095 0.209321,0.977856 0.488772,1.746325 -0.488772,2.305309 -0.27945,0.140284 -2.095809,1.504377 -2.934066,3.530243 -0.209321,0.418774 -1.396283,3.143913 -2.793435,5.728854 -1.67564,-0.90867 -3.352338,-0.977852 -4.539204,-0.977852 -1.256988,0 -2.921605,0.139232 -3.969273,0.907704 -2.233572,1.677139 -3.212084,3.842327 -3.910176,6.287932 -0.558895,1.885655 -0.90751,3.842339 -1.047667,5.79805 -0.14016,2.654993 0.140633,5.411318 0.419205,8.066403 0.210192,1.746324 0.418641,3.423861 0.558808,5.170183 0.348606,1.885657 0.279451,3.353407 0.20932,3.702028 -0.627962,1.956681 -1.605506,2.655092 -3.491527,3.004688 -0.279454,0 -0.419618,0.13935 -0.349486,0.279534 h 5.238263 v 0 h 5.854238 c 0.557929,0 0.698094,-0.279534 1.256988,-0.768462 0.768223,-0.768467 -0.279453,-2.096009 0,-3.842334 0.628936,-4.332133 2.513514,-8.066808 3.420936,-12.258731 0.140267,-0.488928 0.210287,-1.118067 0.280421,-1.816383 0.348604,1.677141 0.837846,2.71241 1.326615,4.319396 0.488775,1.676168 0.977544,2.15602 1.746738,2.574794 v 0 c -0.07014,0 -0.140274,0 -0.210296,0.07017 z"
       id="path3" />
    <path
       style="fill:#f2f2f2;stroke-width:0.982302;fill-opacity:1"
       d="m 32.171373,47.914934 c -0.173525,-1.5e-5 -0.352427,0.02574 -0.527185,0.07812 -0.418752,0.07015 -0.559358,0.630082 -0.278938,0.909624 0,0 0.208799,0.13923 0.278938,0.209266 v 0.139511 c -0.187929,0.18863 -0.843971,0.163181 -1.221741,0.18973 0.176784,0.230442 0.312408,0.476887 0.312408,0.78964 0,0.628163 -0.348974,0.836139 -0.278938,1.395125 0.209419,1.118154 1.11853,3.058653 1.11853,4.246961 -0.0036,0.0442 -0.01809,0.07708 -0.02509,0.11719 0.255275,0.236003 0.824032,0.348722 0.931647,0.510612 0.209323,0.279539 -0.138626,0.769587 0.06972,1.049129 0.07013,0.21036 0.351626,0.278458 0.490927,0.209272 0.349485,-0.07015 0.487621,-0.488292 0.767074,-0.488292 0.488771,-0.06922 1.118592,-0.06973 1.467199,0.27902 0.140175,0.07014 0.20921,-5.7e-4 0.20921,-0.06975 0.0692,-0.279542 -1.048111,-0.558878 -1.188273,-1.676942 -0.140167,-0.9078 -0.06844,-2.28973 -0.697337,-3.267586 -0.139286,-0.140311 -0.348381,-0.13939 -0.418405,-0.348779 0,-0.27954 0.209209,-0.630656 0.209209,-0.979375 0,-0.140219 -0.06908,-0.419109 -0.209209,-0.488294 -0.209419,-0.07011 -0.490508,0.06975 -0.769863,0.06975 -0.41874,0 -0.906021,-1.9e-4 -1.185473,-0.139502 -0.07001,-0.07006 -0.07039,-0.139119 0.06974,-0.209274 0.278484,-0.07014 0.97604,0.280234 1.394682,-0.13951 0.488871,-0.41887 0.839711,-1.117849 0.630389,-1.676931 -0.15771,-0.471852 -0.628647,-0.708678 -1.149211,-0.708726 z"
       id="path4" />
    <path
       style="fill:#c83771;stroke-width:0.982302"
       d="m 33.110044,10.883195 c 1.187831,0.62913 2.654146,2.864381 3.422367,4.051716 0.349578,0.488927 0.838348,0.07004 0.628061,-0.348719 -1.185993,-1.67714 -2.583149,-3.073867 -4.050428,-3.702997 v 0 M 26.96427,29.432626 c 0.907509,0.210356 1.731901,0.547964 2.010376,1.386488 0.280418,0.838611 1.206082,1.327539 0.8565,3.77218 0,0 -0.0692,0.279541 0,0 0.0692,-0.628169 -0.0692,0.279442 0,0 0.07005,-0.418871 0.769199,0.567506 0.908395,0.77689 -0.279453,-0.838616 -0.352801,-2.802757 0.694786,-2.732603 0.558897,0.07015 0.488865,0.48893 1.397253,0.698316 0.278476,0.07015 0.907412,-0.139232 1.047666,-0.62816 0.348517,-1.048012 0,-1.95668 -0.838347,-2.654996 -0.489739,-0.419841 -1.117707,-0.629237 -1.745769,-0.209485 -0.140166,0.13935 -0.349573,0.558106 -0.349573,0.768468 0.139287,0.907798 -0.349484,0.628258 -0.698091,0 -0.488772,-0.768468 -2.305541,-1.316338 -3.283182,-1.1771 v 0 m 6.006484,12.704 c 0.419608,-1.327547 -0.0692,-3.283255 -0.349485,-4.751007 -0.139305,-0.488926 0.488773,-0.628159 0.628935,-0.139239 0.418742,1.955713 0.34861,3.423463 -0.27945,4.890248 v 0 M 35.27542,17.380509 c -0.140166,0.06922 -0.698095,0.488929 -1.047669,0.698316 0.768217,0.139344 1.815892,0.698314 2.304662,1.607081 0.349576,0.76847 0.628059,1.88556 0.768226,2.65403 0,-0.488928 -0.07015,-2.65403 0.140166,-2.933561 0.348613,-0.419748 1.047677,-0.07017 1.536447,0.139225 0.348609,0.140305 0.558894,0.559081 0.90751,0.768469 0.349479,0.140292 0.699061,0.209388 1.04757,0.07013 0.348616,-0.07013 0.699068,-0.349688 0.838354,-0.698317 0.209321,-0.629227 -0.419615,-3.144012 -1.815891,-2.584938 -0.558803,0.209392 -0.628934,1.048009 -1.117706,1.466784 -0.278477,0.209385 -0.558903,0.27954 -0.907511,0.209385 -0.349485,0 -0.769094,-0.209385 -1.117701,-0.488929 C 36.3231,17.93956 35.83433,17.51972 35.275428,17.380477 Z"
       id="path5" />
    <path
       style="fill:#231f20;stroke-width:0.982302"
       d="m 32.272663,48.773166 c 0.209319,0 0.488772,0.27954 0.41864,0.349686 -0.140167,0.139358 -0.209321,-0.07013 -0.488772,-0.07013 -0.209323,0 -0.418638,0.07013 -0.418638,-0.07009 0,-0.13935 0.209315,-0.209486 0.48877,-0.209486 z"
       id="path6" />
    <path
       style="fill:#f1f1f1;stroke-width:0.982302;fill-opacity:1"
       d="m 34.724566,17.742331 c -0.62225,0.42575 -1.910076,1.659579 -2.592129,3.307929 -0.209319,0.418772 -1.396071,3.144296 -2.793224,5.729235 0.349583,0.209384 0.908227,0.628128 1.186704,0.838387 1.606568,1.257398 2.374843,1.395906 3.352486,2.443908 0.418639,0.629138 1.18653,2.864381 1.395851,3.214073 0.348616,0.977854 0.48971,1.955741 0.280381,2.933597 -0.209319,1.048009 -0.909322,1.956293 -1.257936,2.935121 -0.210289,0.558102 -0.348412,1.536687 -0.557731,2.164949 -0.209322,0.629127 -0.209776,1.048046 -0.559252,1.607032 -0.278584,0.27954 -0.628594,0.0707 -0.418305,-0.27896 0.209321,-0.418774 0.279454,-1.537472 0,-2.305941 -0.349483,-1.04801 -0.839052,-2.165958 -1.118505,-2.794115 -0.348604,-0.629236 -0.977286,-2.165866 -1.186701,-2.794124 -0.698095,-1.81647 -0.27887,-5.310798 -3.491921,-5.310798 -1.186866,0.140312 -2.515098,0.349982 -3.35248,1.188597 -1.047674,0.907702 -1.466338,1.886772 -1.95511,3.353554 -0.419607,1.257389 -0.209939,2.095393 -0.350095,2.863857 -0.208354,1.88556 0.210284,2.516143 0,4.402676 -0.208354,1.9557 -0.558447,2.22253 -0.977089,3.689315 -0.278483,0.838514 -0.558186,2.070004 -1.116991,2.769287 -0.208451,0.279541 -0.837292,0.489076 -0.977556,0.13947 -0.627961,-1.327541 -0.28012,-3.804353 -0.420286,-4.99256 -0.140161,-0.279542 -0.27887,-0.20949 -0.27887,0 -0.139184,0.69928 5.9e-5,3.316113 0.07019,4.223915 0.209322,1.327543 0.83841,2.585533 1.116991,3.91298 0.349477,1.536934 1.955711,5.727704 1.327654,7.054286 -0.180632,0.300382 -0.463181,0.762364 -0.760826,0.979382 h 5.021144 c 0.139486,0 0.252797,-0.0177 0.353131,-0.05158 0.003,-9.36e-4 0.0048,-0.0036 0.0078,-0.0046 0.165827,-0.08746 0.332012,-0.210059 0.498633,-0.353244 0.07878,-0.07288 0.162441,-0.144128 0.262194,-0.236508 0.08829,-0.08822 0.175704,-0.181912 0.2622,-0.27896 0.510704,-0.785878 -0.388655,-2.052406 -0.127309,-3.685568 0.628936,-4.332136 2.514317,-8.067176 3.421728,-12.259101 0.140271,-0.488926 0.210259,-1.117941 0.280385,-1.816255 0.348612,1.677135 0.837842,2.713008 1.326611,4.32 0.428542,1.632712 0.886883,1.978572 1.746559,2.574172 2.502376,-0.03077 1.62804,3.594242 2.09546,5.180505 0.34861,0.977855 1.185247,2.140157 1.465575,3.118012 0.418737,1.257394 0.210139,2.095055 -0.139443,3.282296 h 2.514356 c 2.305638,-0.209386 4.679553,-3.35357 4.959006,-5.309281 0.139286,-0.698316 -0.06942,-3.491549 -0.419818,-4.120686 -0.628058,-1.048003 -1.536462,-1.74701 -1.955108,-2.445424 -1.326156,-1.886524 -0.837768,-4.959883 -0.278868,-7.055794 0.488773,-1.955712 1.675282,-4.540637 1.744446,-4.540637 0.140147,-0.209388 -0.208427,-0.420536 -0.348593,-0.141 -0.558894,0.629126 -1.257354,2.584668 -1.536805,3.423291 -0.348508,1.048 -0.627597,2.235802 -0.766889,3.283811 -0.209319,1.606984 0.278251,3.353499 -0.0712,4.960588 -0.0692,0.349588 -0.627516,0.697559 -0.907842,0.488175 -2.303696,-1.81647 -2.792126,-5.517741 -2.721995,-8.242888 0.0692,-2.794327 1.255111,-5.37891 1.674725,-8.173143 0.139306,-0.629227 -0.488577,-1.18712 -0.557739,-1.816252 -0.139306,-0.83862 -0.06934,-1.11914 -0.139445,-1.887511 0,-0.489024 0.348589,-1.606284 0.348589,-2.095207 0.0701,-1.188216 -0.07014,-2.44486 0,-3.702247 -0.269469,-2.298668 -0.7151,-2.598279 -2.576503,-3.690124 z"
       id="path7" />
    <path
       style="opacity:0.2;fill:#ffffff;stroke-width:0.982302"
       d="M 6.7507665,4 C 5.2272673,4 4,5.2276588 4,6.7516439 V 7.7341002 C 4,6.2101146 5.2272673,4.9824557 6.7507665,4.9824557 H 56.249219 c 1.523503,0 2.750764,1.2276588 2.750764,2.7516445 V 6.7516439 C 58.999983,5.2276589 57.772722,4 56.249219,4 Z"
       id="path8" />
  </g>
</svg>
