<?xml version="1.0" encoding="UTF-8" standalone="no"?>
<svg
   height="62"
   width="62"
   version="1.1"
   id="svg5"
   sodipodi:docname="distributor-logo-archlabs.svg"
   inkscape:version="1.4 (unknown)"
   xmlns:inkscape="http://www.inkscape.org/namespaces/inkscape"
   xmlns:sodipodi="http://sodipodi.sourceforge.net/DTD/sodipodi-0.dtd"
   xmlns="http://www.w3.org/2000/svg"
   xmlns:svg="http://www.w3.org/2000/svg">
  <defs
     id="defs5" />
  <sodipodi:namedview
     id="namedview5"
     pagecolor="#ffffff"
     bordercolor="#000000"
     borderopacity="0.25"
     inkscape:showpageshadow="2"
     inkscape:pageopacity="0.0"
     inkscape:pagecheckerboard="0"
     inkscape:deskcolor="#d1d1d1"
     inkscape:zoom="12.078125"
     inkscape:cx="32"
     inkscape:cy="32"
     inkscape:window-width="1920"
     inkscape:window-height="996"
     inkscape:window-x="0"
     inkscape:window-y="0"
     inkscape:window-maximized="1"
     inkscape:current-layer="svg5" />
  <path
     style="opacity:0.2;stroke-width:0.982303"
     d="M 31.5,4.982456 C 21.678572,27.57895 21.678572,28.5614 4,60 4,60 19.714289,51.15789 31.5,51.15789 43.285721,51.15789 59,60 59,60 41.321428,28.5614 41.321428,27.57895 31.5,4.982456 Z"
     id="path1" />
  <path
     style="fill:#2d3d53;stroke-width:0.982303;fill-opacity:1"
     d="M 31.5,4 C 21.678572,26.59649 21.678572,27.57895 4,59.01754 c 0,0 15.714289,-8.8421 27.5,-8.8421 11.785721,0 27.5,8.8421 27.5,8.8421 C 41.321428,27.57895 41.321428,26.59649 31.5,4 Z"
     id="path2" />
  <path
     style="opacity:0.1;fill:#ffffff;stroke-width:0.982303"
     d="M 31.5,4 C 21.678572,26.59649 21.678572,27.57895 4,59.01754 c 0,0 0.294741,-0.16308 0.7883666,-0.42638 C 21.59214,28.67537 21.84357,27.19874 31.5,4.982456 41.15643,27.19874 41.40786,28.67537 58.211342,58.59116 58.705364,58.85446 59,59.01754 59,59.01754 41.321428,27.57895 41.321428,26.59649 31.5,4 Z"
     id="path3" />
  <path
     style="opacity:0.2;stroke-width:0.982303"
     d="m 32.482147,22.66667 c 0,0 -7.857145,5.89473 -7.857145,11.78947 0,4.253826 0.898736,8.113684 2.042937,11.323191 -0.04795,-0.527771 -0.07866,-1.036412 -0.07866,-1.498631 0,-5.89474 3.928577,-9.82456 3.928577,-9.82456 0,0 3.928567,2.94737 3.928567,7.85965 0,2.699555 -0.588355,6.252463 -1.120257,8.922701 0.364083,0.02549 0.730331,0.0604 1.09916,0.09977 1.870951,-2.844563 3.949667,-7.086975 3.949667,-11.969844 0,-6.87719 -5.892853,-13.75438 -5.892853,-13.75438 z"
     id="path4" />
  <path
     style="fill:#f2f2f2;stroke-width:0.982303;fill-opacity:1"
     d="m 32.482147,21.68421 c 0,0 -7.857145,5.89474 -7.857145,11.78947 0,4.253826 0.898736,8.113694 2.042937,11.323191 -0.04795,-0.527771 -0.07866,-1.036412 -0.07866,-1.498621 0,-5.89474 3.928577,-9.82457 3.928577,-9.82457 0,0 3.928567,2.94737 3.928567,7.85965 0,2.699565 -0.588355,6.252463 -1.120257,8.922701 0.364083,0.02549 0.730331,0.0604 1.09916,0.09978 1.870951,-2.844573 3.949667,-7.086985 3.949667,-11.969853 0,-6.877191 -5.892853,-13.754381 -5.892853,-13.754381 z"
     id="path5" />
</svg>
