<?xml version="1.0" encoding="UTF-8" standalone="no"?>
<svg
   width="62"
   height="62"
   version="1.1"
   id="svg6"
   sodipodi:docname="distributor-logo-condres.svg"
   inkscape:version="1.4 (unknown)"
   xmlns:inkscape="http://www.inkscape.org/namespaces/inkscape"
   xmlns:sodipodi="http://sodipodi.sourceforge.net/DTD/sodipodi-0.dtd"
   xmlns="http://www.w3.org/2000/svg"
   xmlns:svg="http://www.w3.org/2000/svg">
  <defs
     id="defs6" />
  <sodipodi:namedview
     id="namedview6"
     pagecolor="#ffffff"
     bordercolor="#000000"
     borderopacity="0.25"
     inkscape:showpageshadow="2"
     inkscape:pageopacity="0.0"
     inkscape:pagecheckerboard="0"
     inkscape:deskcolor="#d1d1d1"
     inkscape:zoom="12.078125"
     inkscape:cx="32"
     inkscape:cy="31.089263"
     inkscape:window-width="1920"
     inkscape:window-height="996"
     inkscape:window-x="0"
     inkscape:window-y="0"
     inkscape:window-maximized="1"
     inkscape:current-layer="svg6" />
  <g
     id="g6"
     transform="translate(-0.5,-1.0000002)">
    <rect
       x="4"
       y="4.9824567"
       width="55"
       height="55.017544"
       rx="1.964285"
       ry="1.9649116"
       style="opacity:0.2;stroke-width:0.982302"
       id="rect1" />
    <rect
       x="4"
       y="4"
       width="55"
       height="55.017544"
       rx="1.964285"
       ry="1.9649116"
       style="fill:#a2e44e;stroke-width:0.982302;fill-opacity:1"
       id="rect2" />
    <path
       d="M 4.3951587,4.7905702 C 4.1496324,5.1185516 4,5.5218207 4,5.9649116 V 57.052617 c 0,1.08856 0.8760713,1.96491 1.964285,1.96491 h 25.535706 z"
       style="fill:#f8c73a;stroke-width:0.982302;fill-opacity:1"
       id="path2" />
    <path
       d="M 58.604825,4.7905702 31.499991,59.017527 H 57.0357 c 1.088213,0 1.964283,-0.876351 1.964283,-1.96491 V 5.9649111 c 0,-0.4430909 -0.149627,-0.84636 -0.395158,-1.1743409 z"
       style="fill:#2e93d1;stroke-width:0.982302;fill-opacity:1"
       id="path3" />
    <path
       d="M 5.964285,4 C 4.8760713,4 4,4.8763507 4,5.9649116 V 6.9473673 C 4,5.8588066 4.8760713,4.9824557 5.964285,4.9824557 H 57.0357 c 1.088213,0 1.964283,0.8763509 1.964283,1.9649116 V 5.9649116 C 58.999983,4.8763507 58.123913,4 57.0357,4 Z"
       style="opacity:0.2;fill:#ffffff;stroke-width:0.982302"
       id="path4" />
    <path
       d="m 4.445033,5.7135416 c -0.016295,0.02006 -0.034377,0.03878 -0.049874,0.05949 L 31.499991,59.999986 58.604825,5.7730265 c -0.01547,-0.02071 -0.03359,-0.03943 -0.04986,-0.05949 L 31.499992,50.175428 Z"
       style="opacity:0.2;stroke-width:0.982302"
       id="path5" />
    <path
       d="M 4.445033,4.7310854 C 4.428742,4.7511414 4.410656,4.7698664 4.395158,4.7905724 L 31.499991,59.017527 58.604825,4.7905702 c -0.01547,-0.020706 -0.03359,-0.03943 -0.04986,-0.059487 L 31.499991,49.192969 Z"
       style="fill:#f3f3f3;stroke-width:0.982302;fill-opacity:1"
       id="path6" />
  </g>
</svg>
