<?xml version="1.0" encoding="UTF-8" standalone="no"?>
<svg
   width="62"
   height="62"
   version="1.1"
   id="svg5"
   sodipodi:docname="distributor-logo-archbang.svg"
   inkscape:version="1.4 (unknown)"
   xmlns:inkscape="http://www.inkscape.org/namespaces/inkscape"
   xmlns:sodipodi="http://sodipodi.sourceforge.net/DTD/sodipodi-0.dtd"
   xmlns="http://www.w3.org/2000/svg"
   xmlns:svg="http://www.w3.org/2000/svg">
  <defs
     id="defs5" />
  <sodipodi:namedview
     id="namedview5"
     pagecolor="#ffffff"
     bordercolor="#000000"
     borderopacity="0.25"
     inkscape:showpageshadow="2"
     inkscape:pageopacity="0.0"
     inkscape:pagecheckerboard="0"
     inkscape:deskcolor="#d1d1d1"
     inkscape:zoom="12.078125"
     inkscape:cx="32"
     inkscape:cy="32"
     inkscape:window-width="1920"
     inkscape:window-height="996"
     inkscape:window-x="0"
     inkscape:window-y="0"
     inkscape:window-maximized="1"
     inkscape:current-layer="svg5" />
  <g
     id="g5"
     transform="translate(-0.5,-1)">
    <path
       style="opacity:0.2;stroke-width:0.982299"
       d="M 31.5,4.9824562 C 21.678572,27.578947 21.678572,28.561404 4,60 4,60 19.714285,51.157895 31.5,51.157895 43.285714,51.157895 59,60 59,60 41.321429,28.561404 41.321429,27.578947 31.5,4.9824562 Z"
       id="path1" />
    <path
       style="fill:#1480b8;stroke-width:0.982299;fill-opacity:1"
       d="M 31.5,4 C 21.678572,26.596491 21.678572,27.578947 4,59.017544 c 0,0 15.714285,-8.842106 27.5,-8.842106 11.785714,0 27.5,8.842106 27.5,8.842106 C 41.321429,27.578947 41.321429,26.596491 31.5,4 Z"
       id="path2" />
    <path
       style="opacity:0.2;stroke-width:0.982299"
       d="m 36.951874,17.545123 c 0,0 -2.505446,1.191719 -6.434018,1.191719 0,2.947369 0.982144,2.947369 0.982144,9.824562 0,5.894736 -0.982144,13.754385 -0.982144,13.754385 l 3.928572,-2.947368 3.795983,-18.896561 z m -5.942945,27.718035 a 3.4375,3.4385965 0 0 0 -3.437501,3.438597 3.4375,3.4385965 0 0 0 1.20509,2.613332 c 0.922232,-0.09231 1.836608,-0.157192 2.723482,-0.157192 0.597143,0 1.21,0.03734 1.823839,0.08056 a 3.4375,3.4385965 0 0 0 1.122589,-2.536698 3.4375,3.4385965 0 0 0 -3.437499,-3.438597 z"
       id="path3" />
    <path
       style="fill:#f2f2f2;stroke-width:0.982299;fill-opacity:1"
       d="m 36.951874,16.562666 c 0,0 -2.505446,1.191719 -6.434018,1.191719 0,2.94737 0.982144,2.94737 0.982144,9.824562 0,5.894738 -0.982144,13.754387 -0.982144,13.754387 l 3.928572,-2.947369 3.795983,-18.896561 z m -5.942945,27.718036 a 3.4375,3.4385965 0 0 0 -3.437501,3.438596 3.4375,3.4385965 0 0 0 1.20509,2.613334 c 0.922232,-0.09235 1.836608,-0.157194 2.723482,-0.157194 0.597143,0 1.21,0.03734 1.823839,0.08056 a 3.4375,3.4385965 0 0 0 1.122589,-2.536694 3.4375,3.4385965 0 0 0 -3.437499,-3.438596 z"
       id="path4" />
    <path
       style="opacity:0.2;fill:#ffffff;stroke-width:0.982299"
       d="M 31.5,4 C 21.678572,26.596491 21.678572,27.578947 4,59.017544 c 0,0 0.2947411,-0.163088 0.788366,-0.426386 C 21.592143,28.675368 21.843572,27.198736 31.5,4.9824562 41.156429,27.198736 41.407857,28.675368 58.21134,58.591158 58.705357,58.854456 59,59.017544 59,59.017544 41.321429,27.578947 41.321429,26.596491 31.5,4 Z"
       id="path5" />
  </g>
</svg>
