<?xml version="1.0" encoding="UTF-8" standalone="no"?>
<svg
   width="62"
   height="62"
   version="1.1"
   id="svg7"
   sodipodi:docname="distributor-logo-salentos.svg"
   inkscape:version="1.4 (unknown)"
   xmlns:inkscape="http://www.inkscape.org/namespaces/inkscape"
   xmlns:sodipodi="http://sodipodi.sourceforge.net/DTD/sodipodi-0.dtd"
   xmlns="http://www.w3.org/2000/svg"
   xmlns:svg="http://www.w3.org/2000/svg">
  <defs
     id="defs7" />
  <sodipodi:namedview
     id="namedview7"
     pagecolor="#ffffff"
     bordercolor="#000000"
     borderopacity="0.25"
     inkscape:showpageshadow="2"
     inkscape:pageopacity="0.0"
     inkscape:pagecheckerboard="0"
     inkscape:deskcolor="#d1d1d1"
     inkscape:zoom="12.078125"
     inkscape:cx="32"
     inkscape:cy="32.745149"
     inkscape:window-width="1920"
     inkscape:window-height="996"
     inkscape:window-x="0"
     inkscape:window-y="0"
     inkscape:window-maximized="1"
     inkscape:current-layer="svg7" />
  <g
     id="g7"
     transform="translate(-0.344401,-0.752519)">
    <path
       d="M 31.497006,3.999965 C 30.310039,3.9721432 29.13806,4.2608483 28.109486,4.8344461 L 9.0783424,15.461264 c -2.0011185,1.11739 -3.2338816,3.182381 -3.2339386,5.417152 v 21.254032 c 5.7e-5,2.234772 1.2328201,4.299769 3.2339386,5.417151 L 28.110075,58.176613 c 1.030122,0.575203 2.183294,0.854315 3.332838,0.837332 1.083613,-0.01599 0.852262,-1.204792 1.823305,-1.747006 L 52.197046,46.842075 c 2.001975,-1.117597 3.638689,-2.172773 3.638141,-4.408366 V 21.280755 c -6.1e-5,-0.759929 0.866359,-1.90452 0.599478,-2.594586 -0.517988,-1.339361 -1.504156,-2.489521 -2.824983,-3.226872 L 34.579127,4.8324818 C 33.640436,4.3090783 32.580828,4.0221358 31.497595,3.998 Z"
       style="fill:#6dde6d;stroke-width:0.981614;fill-opacity:1"
       id="path1" />
    <path
       d="M 6.3577744,18.454886 A 6.4678773,6.2553689 0 0 0 5.844403,20.878393 v 21.25319 A 6.4678773,6.2553689 0 0 0 9.0778765,47.55042 L 28.110928,58.177014 a 6.4678773,6.2553689 0 0 0 3.233473,0.832783 V 31.752519 Z"
       style="fill:#c83771;stroke-width:0.981614"
       id="path2" />
    <path
       d="M 56.336776,18.45105 31.344401,31.752519 v 27.257278 a 6.4678773,6.2553689 0 0 0 3.233474,-0.832783 L 53.609017,47.55042 a 6.4678773,6.2553689 0 0 0 3.235384,-5.420753 V 20.876478 A 6.4678773,6.2553689 0 0 0 56.336776,18.45105 Z"
       style="fill:#ffd166;stroke-width:0.981614;fill-opacity:1"
       id="path3" />
    <path
       d="m 31.497648,4.0001852 a 6.4679521,6.2601154 0 0 0 -3.38672,0.8366186 L 9.0778765,15.471071 A 6.4679521,6.2601154 0 0 0 5.844403,20.893746 v 0.984369 a 6.4679521,6.2601154 0 0 1 3.2334735,-5.42459 L 28.110928,5.8192558 a 6.4679521,6.2601154 0 0 1 3.38672,-0.8366192 6.4679521,6.2601154 0 0 1 3.080227,0.8366192 L 53.610928,16.453525 a 6.4679521,6.2601154 0 0 1 3.233473,5.42459 V 20.893746 A 6.4679521,6.2601154 0 0 0 53.610928,15.471071 L 34.577875,4.8368038 A 6.4679521,6.2601154 0 0 0 31.497648,4.0001852 Z"
       style="opacity:0.2;fill:#ffffff;stroke-width:0.981614"
       id="path4" />
    <path
       d="m 5.844403,41.135781 a 6.4678773,6.2603024 0 0 0 0.00195,0.07292 v -0.07292 z m 0.00195,0.982448 v 0.982452 a 6.4678773,6.2603024 0 0 0 3.2334632,5.420753 L 28.112851,59.159539 a 6.4678773,6.2603024 0 0 0 6.466945,0 L 53.610928,48.521434 a 6.4678773,6.2603024 0 0 0 3.233473,-5.420753 V 42.118229 A 6.4678773,6.2603024 0 0 1 53.610928,47.53898 L 34.579793,58.177092 a 6.4678773,6.2603024 0 0 1 -6.466945,0 L 9.0797919,47.53898 A 6.4678773,6.2603024 0 0 1 5.8463191,42.118229 Z"
       style="opacity:0.2;stroke-width:0.981614"
       id="path5" />
    <path
       d="M 6.3577744,18.454886 A 6.4678773,6.2553689 0 0 0 5.844403,20.878393 v 0.982454 A 6.4678773,6.2553689 0 0 1 6.3577744,19.43734 L 31.3444,32.734973 v -0.982454 z"
       style="opacity:0.2;fill:#ffffff;stroke-width:0.981614"
       id="path6" />
    <path
       d="M 56.336776,18.45105 31.344401,31.752519 v 0.982454 L 56.336776,19.433504 a 6.4678773,6.2553689 0 0 1 0.507625,2.425421 V 20.876478 A 6.4678773,6.2553689 0 0 0 56.336776,18.45105 Z"
       style="opacity:0.2;fill:#ffffff;stroke-width:0.981614"
       id="path7" />
  </g>
</svg>
