<?xml version="1.0" encoding="UTF-8" standalone="no"?>
<svg
   height="62"
   width="62"
   version="1.1"
   id="svg3"
   sodipodi:docname="distributor-logo-artix.svg"
   inkscape:version="1.4 (unknown)"
   xmlns:inkscape="http://www.inkscape.org/namespaces/inkscape"
   xmlns:sodipodi="http://sodipodi.sourceforge.net/DTD/sodipodi-0.dtd"
   xmlns="http://www.w3.org/2000/svg"
   xmlns:svg="http://www.w3.org/2000/svg">
  <defs
     id="defs3" />
  <sodipodi:namedview
     id="namedview3"
     pagecolor="#ffffff"
     bordercolor="#000000"
     borderopacity="0.25"
     inkscape:showpageshadow="2"
     inkscape:pageopacity="0.0"
     inkscape:pagecheckerboard="0"
     inkscape:deskcolor="#d1d1d1"
     inkscape:zoom="12.078125"
     inkscape:cx="32"
     inkscape:cy="32"
     inkscape:window-width="1920"
     inkscape:window-height="996"
     inkscape:window-x="0"
     inkscape:window-y="0"
     inkscape:window-maximized="1"
     inkscape:current-layer="svg3" />
  <g
     id="g3"
     transform="translate(-1,-1)">
    <path
       style="opacity:0.2"
       d="M 32,5 22,25 48,36 Z M 20,30 4,60 49,41 Z m 32,15 -14,7 22,8 z"
       id="path1" />
    <path
       style="fill:#2eacd1;fill-opacity:1"
       d="M 32,4 22,24 48,35 Z M 20,29 4,59 49,40 Z m 32,15 -14,7 22,8 z"
       id="path2" />
    <path
       style="opacity:0.2;fill:#ffffff"
       d="M 32,4 22,24 22.412109,24.173828 32,5 47.339844,34.720703 48,35 Z M 20,29 4,59 4.6875,58.708984 20,30 47.751953,40.527344 49,40 Z M 52,44 38,51 39.158203,51.421875 52,45 59.337891,58.759766 60,59 Z"
       id="path3" />
  </g>
</svg>
