<?xml version="1.0" encoding="UTF-8" standalone="no"?>
<svg
   width="62"
   height="62"
   version="1.1"
   id="svg5"
   sodipodi:docname="distributor-logo-netbsd.svg"
   inkscape:version="1.4 (unknown)"
   xmlns:inkscape="http://www.inkscape.org/namespaces/inkscape"
   xmlns:sodipodi="http://sodipodi.sourceforge.net/DTD/sodipodi-0.dtd"
   xmlns="http://www.w3.org/2000/svg"
   xmlns:svg="http://www.w3.org/2000/svg">
  <defs
     id="defs5" />
  <sodipodi:namedview
     id="namedview5"
     pagecolor="#ffffff"
     bordercolor="#000000"
     borderopacity="0.25"
     inkscape:showpageshadow="2"
     inkscape:pageopacity="0.0"
     inkscape:pagecheckerboard="0"
     inkscape:deskcolor="#d1d1d1"
     inkscape:zoom="12.078125"
     inkscape:cx="32"
     inkscape:cy="32"
     inkscape:window-width="1920"
     inkscape:window-height="996"
     inkscape:window-x="0"
     inkscape:window-y="0"
     inkscape:window-maximized="1"
     inkscape:current-layer="svg5" />
  <path
     d="m 42.729558,4.9246271 c -9.99192,0 -16.810714,3.9825611 -21.048222,3.9825611 -0.972928,0 -4.305183,-0.7017898 -4.305183,-0.7017898 -0.171956,-0.044208 -0.345365,-0.082579 -0.519921,-0.1150469 -1.49941,-0.8413239 -3.18183,-1.2115338 -4.832785,-1.0929514 h -0.0059 C 10.968883,7.0735774 9.8927816,7.3137087 8.6966997,7.9446243 7.1726498,8.7485181 5.0453377,10.63551 4.3090158,13.315424 c -0.7363219,2.679921 0.033032,4.95293 0.6561383,6.178053 L 22.665548,54.686506 c 0.0065,0.01153 0.01279,0.02304 0.0192,0.03453 1.91889,3.766998 5.72644,5.638001 9.65406,5.14454 1.542886,-0.193829 4.016424,-1.105631 5.667345,-2.929876 2.376943,-2.626502 2.04673,-3.718688 2.202473,-4.931707 0.340586,-6.198341 -5.256254,-13.391152 -8.299569,-18.99434 2.805405,-1.061082 5.156512,-2.487355 7.088977,-3.648923 3.398224,-2.042606 4.395583,-2.782237 5.275967,-2.782237 2.93484,0 4.180481,0.506212 4.180481,0.506212 5.946527,2.160305 11.879272,-3.229772 10.292929,-9.351447 0.811415,-3.141896 -0.39377,-6.459067 -3.033203,-8.3486139 0,0 -5.037934,-4.4600081 -12.984629,-4.4600081 z"
     style="opacity:0.2;stroke-width:0.982015"
     id="path1" />
  <path
     d="m 42.729558,3.9433594 c -9.99192,0 -16.810714,3.982561 -21.048222,3.982561 -0.972928,0 -4.305183,-0.7017897 -4.305183,-0.7017897 C 17.204197,7.1799225 17.030788,7.1415511 16.856232,7.109083 15.356822,6.26776 13.674402,5.89755 12.023447,6.0161316 h -0.0059 C 10.968893,6.0923102 9.892791,6.332441 8.6967096,6.9633559 7.1726598,7.7672497 5.0453471,9.6542403 4.3090258,12.334154 c -0.7363219,2.679921 0.033032,4.952929 0.6561378,6.178053 L 22.665548,53.705235 c 0.0065,0.01153 0.01279,0.02304 0.0192,0.03453 1.91889,3.766996 5.72644,5.638001 9.65406,5.144538 1.542886,-0.193829 4.016424,-1.10563 5.667345,-2.929876 2.376943,-2.626502 2.04673,-3.718679 2.202473,-4.931699 0.340586,-6.198349 -5.256254,-13.39116 -8.299569,-18.994348 2.805405,-1.061081 5.156512,-2.487355 7.088977,-3.648922 3.398224,-2.042599 4.395583,-2.782238 5.275967,-2.782238 2.93484,0 4.180481,0.506213 4.180481,0.506213 5.946527,2.160312 11.879272,-3.229773 10.292929,-9.351448 0.811415,-3.141895 -0.39377,-6.459066 -3.033203,-8.3486105 0,0 -5.037934,-4.4600081 -12.984629,-4.4600081 z"
     style="fill:#f59356;stroke-width:0.982015;fill-opacity:1"
     id="path2" />
  <path
     d="m 42.730384,12.778924 c -7.016349,0 -13.893747,3.982915 -21.049048,3.982915 -2.806538,0 -6.384876,-0.981739 -6.384876,-0.981739 l 5.402588,9.817388 c 0,0 2.525885,0.981739 3.929157,0.981739 7.124651,0 13.892369,-7.896126 19.505445,-7.896126 4.209811,0 7.016348,1.023958 7.016348,1.023958 0,0 -2.806537,-2.916751 -7.016348,-2.916751 -7.016349,0 -9.682557,1.93501 -9.682557,1.93501 0,0 5.472747,-3.955427 9.682557,-3.955427 2.806539,0 7.016348,1.010209 7.016348,1.010209 0,0 -4.209809,-3.001176 -8.419614,-3.001176 z m -30.143365,2.052597 c -0.08112,0.006 -0.158127,0.02655 -0.222002,0.06025 -0.573281,0.302388 -0.572799,0.693427 -0.394671,1.043651 l 17.716439,35.223971 c 0.354078,0.695091 1.080442,0.989201 1.671863,0.9149 0.295706,-0.03711 0.584204,-0.145422 0.819483,-0.405406 0.235281,-0.259985 0.334485,-1.04155 0.180687,-1.398353 C 25.813136,38.286782 19.821117,27.167728 13.261248,15.190359 13.118109,14.926411 12.830286,14.814048 12.587019,14.831521 Z"
     style="opacity:0.2;stroke-width:0.982015"
     id="path3" />
  <path
     d="m 42.730384,11.796917 c -7.016349,0 -13.893747,3.982909 -21.049048,3.982909 -2.806538,0 -6.384876,-0.981731 -6.384876,-0.981731 l 5.402588,9.817383 c 0,0 2.525885,0.981736 3.929157,0.981736 7.124651,0 13.892369,-7.896119 19.505445,-7.896119 4.209811,0 7.016348,1.02395 7.016348,1.02395 0,0 -2.806537,-2.916742 -7.016348,-2.916742 -7.016349,0 -9.682557,1.935003 -9.682557,1.935003 0,0 5.472747,-3.955427 9.682557,-3.955427 2.806539,0 7.016348,1.010216 7.016348,1.010216 0,0 -4.209809,-3.001178 -8.419614,-3.001178 z m -30.143365,2.052592 c -0.08112,0.006 -0.158127,0.02655 -0.222002,0.06025 -0.573281,0.302388 -0.572799,0.693426 -0.394671,1.043644 l 17.716439,35.22397 c 0.354078,0.695097 1.080442,0.98921 1.671863,0.914901 0.295706,-0.03711 0.584204,-0.145423 0.819483,-0.405406 0.235281,-0.259978 0.334485,-1.04155 0.180687,-1.398353 C 25.813136,37.304777 19.821117,26.185717 13.261248,14.208354 13.118109,13.944406 12.830286,13.832041 12.587019,13.849509 Z"
     style="fill:#f2f2f2;stroke-width:0.982015;fill-opacity:1"
     id="path4" />
  <path
     d="m 42.729558,3.9433594 c -9.99192,0 -16.810714,3.982561 -21.048222,3.982561 -0.972928,0 -4.305183,-0.7017897 -4.305183,-0.7017897 C 17.204197,7.1799226 17.030788,7.141551 16.856232,7.109083 15.356822,6.2677599 13.674402,5.89755 12.023447,6.0161316 h -0.0059 C 10.968931,6.0923102 9.892791,6.3324411 8.6967096,6.9633559 7.1726598,7.7672498 5.0453471,9.6542403 4.3090258,12.334154 4.0390823,13.316643 3.9736056,14.242269 4.0270013,15.08379 4.0574054,14.519704 4.1401527,13.930528 4.3090258,13.315893 5.0453471,10.63598 7.1726598,8.7489884 8.6967096,7.9450946 9.892791,7.3141798 10.968931,7.074049 12.01769,6.9978704 h 0.0059 c 1.650956,-0.1185818 3.333371,0.2516283 4.83278,1.0929512 0.17456,0.032468 0.347964,0.070843 0.519925,0.1150478 -3.8e-5,0 3.332212,0.7017899 4.305145,0.7017899 4.237507,0 11.056301,-3.9825611 21.048222,-3.9825611 7.946694,0 12.984628,4.4600081 12.984628,4.4600081 1.934888,1.3851697 3.089864,3.5390577 3.253833,5.8271557 0.14271,-2.642787 -1.043959,-5.2268604 -3.253833,-6.8088945 0,0 -5.037934,-4.4600081 -12.984628,-4.4600081 z M 58.837561,17.233263 c -0.03168,0.166928 -0.04729,0.334272 -0.09018,0.500455 0.136305,0.525999 0.198264,1.042271 0.228301,1.553144 0.04547,-0.665998 -5.33e-4,-1.352915 -0.13813,-2.053599 z m -26.47575,15.585099 c -0.154353,0.06163 -0.295578,0.13229 -0.452774,0.191749 2.890404,5.321655 8.072892,12.075328 8.295733,18.050951 0.0016,-0.01276 0.0022,-0.02556 0.0039,-0.03833 0.325082,-5.916418 -4.736961,-12.723096 -7.846811,-18.204358 z"
     style="opacity:0.2;fill:#ffffff;stroke-width:0.982015"
     id="path5" />
</svg>
