<?xml version="1.0" encoding="UTF-8" standalone="no"?>
<svg
   width="62"
   height="62"
   version="1.1"
   id="svg4"
   sodipodi:docname="distributor-logo-midnightbsd.svg"
   inkscape:version="1.4 (unknown)"
   xmlns:inkscape="http://www.inkscape.org/namespaces/inkscape"
   xmlns:sodipodi="http://sodipodi.sourceforge.net/DTD/sodipodi-0.dtd"
   xmlns="http://www.w3.org/2000/svg"
   xmlns:svg="http://www.w3.org/2000/svg">
  <defs
     id="defs4" />
  <sodipodi:namedview
     id="namedview4"
     pagecolor="#ffffff"
     bordercolor="#000000"
     borderopacity="0.25"
     inkscape:showpageshadow="2"
     inkscape:pageopacity="0.0"
     inkscape:pagecheckerboard="0"
     inkscape:deskcolor="#d1d1d1"
     inkscape:zoom="12.078125"
     inkscape:cx="32"
     inkscape:cy="32"
     inkscape:window-width="1920"
     inkscape:window-height="996"
     inkscape:window-x="0"
     inkscape:window-y="0"
     inkscape:window-maximized="1"
     inkscape:current-layer="svg4" />
  <g
     id="g4"
     transform="matrix(0.98214286,0,0,0.98245614,-0.42857152,-0.92982455)">
    <circle
       cx="32"
       cy="33"
       r="28"
       style="opacity:0.2"
       id="circle1" />
    <circle
       cx="32"
       cy="32"
       r="28"
       style="fill:#2d3d53;fill-opacity:1"
       id="circle2" />
    <path
       d="M 32,4 A 28,28 0 0 0 4,32 28,28 0 0 0 4.0215,32.586 28,28 0 0 1 32,5 28,28 0 0 1 59.979,32.414 28,28 0 0 0 60,32 28,28 0 0 0 32,4 Z"
       style="opacity:0.1;fill:#ffffff"
       id="path2" />
    <path
       d="M 26.3125,13.255859 C 17.975209,16.24508 12.009666,24.143039 12,33 c 0,11.597979 9.802412,21 21.400391,21 5.895908,-0.0097 11.515038,-2.49764 15.486328,-6.855469 -0.591108,0.214093 -1.175572,0.406319 -1.761719,0.576172 0.0601,-0.404589 -0.829782,-0.606854 -0.90625,-0.96875 -0.303681,-1.437277 -0.268446,-2.933699 0.0918,-4.367187 0.271416,-1.08003 1.21139,-1.792638 1.212891,-2.90625 0.0023,-1.623836 -0.123047,-3.048828 -0.123047,-3.048828 0,0 1.083582,-0.403111 1.595703,-0.69336 0.523271,-0.296568 1.064493,-0.946371 1.058594,-1.697266 -0.0034,-0.435367 -0.734218,-0.760673 -1.00586,-1.208984 -0.226072,-0.373102 -0.133375,-0.865104 -0.404297,-1.207031 -0.231363,-0.292001 -1.083984,-0.726563 -1.083984,-0.726563 0,0 -0.456198,-1.929408 -1.308594,-1.861328 C 45.903961,29.062952 46,30.945312 46,30.945312 c 0,0 -1.850723,0.671088 -1.962891,2.417969 -0.04792,0.746298 -0.625339,1.105132 -1.257812,1.636719 -0.632474,0.531588 -1.421176,1.235721 -2.115235,1.433594 -5.07306,1.446309 -5.399397,4.358395 -5.527343,7.21289 -0.03965,0.884582 0.552734,2.617188 0.552734,2.617188 0,0 -2.649017,-2.240753 -2.742187,-3.84961 -0.0942,-1.626768 1.669818,-2.845463 1.484375,-4.455078 -0.108837,-0.944693 -1.630975,-2.692872 -2.296875,-1.986328 -0.487453,0.517206 1.270583,1.263382 1.339843,2.238282 0.04673,0.657907 -1.696273,2.327766 -1.484375,4.302734 0.136476,1.271993 1.043534,3.070925 1.703125,4.259766 C 26.227724,43.525666 21,36.047098 21,27.400391 21.0094,22.162973 22.77541,17.118453 26.3125,13.255859 Z m 18.085938,31.732422 c 0.185459,-0.01964 0.363395,0.06812 0.40039,0.320313 0.139973,0.954262 0.191758,2.70777 0.197266,2.90039 -0.633039,0.113477 -1.277929,0.186804 -1.931641,0.230469 0.08617,-0.419528 0.443723,-2.118915 0.880859,-3.132812 0.07413,-0.171926 0.267666,-0.298717 0.453126,-0.31836 z"
       style="opacity:0.2"
       id="path3" />
    <path
       d="M 26.3125,12.255859 C 17.975209,15.24508 12.009666,23.143039 12,32 c 0,11.597979 9.802412,21 21.400391,21 5.895908,-0.0097 11.515038,-2.49764 15.486328,-6.855469 -0.591108,0.214093 -1.175572,0.406319 -1.761719,0.576172 0.0601,-0.404589 -0.829782,-0.606854 -0.90625,-0.96875 -0.303681,-1.437277 -0.268446,-2.933699 0.0918,-4.367187 0.271416,-1.08003 1.21139,-1.792638 1.212891,-2.90625 0.0023,-1.623836 -0.123047,-3.048828 -0.123047,-3.048828 0,0 1.083582,-0.403111 1.595703,-0.69336 0.523271,-0.296568 1.064493,-0.946371 1.058594,-1.697266 -0.0034,-0.435367 -0.734218,-0.760673 -1.00586,-1.208984 -0.226072,-0.373102 -0.133375,-0.865104 -0.404297,-1.207031 -0.231363,-0.292001 -1.083984,-0.726563 -1.083984,-0.726563 0,0 -0.456198,-1.929408 -1.308594,-1.861328 C 45.903961,28.062952 46,29.945312 46,29.945312 c 0,0 -1.850723,0.671088 -1.962891,2.417969 -0.04792,0.746298 -0.625339,1.105132 -1.257812,1.636719 -0.632474,0.531588 -1.421176,1.235721 -2.115235,1.433594 -5.07306,1.446309 -5.399397,4.358395 -5.527343,7.21289 -0.03965,0.884582 0.552734,2.617188 0.552734,2.617188 0,0 -2.649017,-2.240753 -2.742187,-3.84961 -0.0942,-1.626768 1.669818,-2.845463 1.484375,-4.455078 -0.108837,-0.944693 -1.630975,-2.692872 -2.296875,-1.986328 -0.487453,0.517206 1.270583,1.263382 1.339843,2.238282 0.04673,0.657907 -1.696273,2.327766 -1.484375,4.302734 0.136476,1.271993 1.043534,3.070925 1.703125,4.259766 C 26.227724,42.525666 21,35.047098 21,26.400391 21.0094,21.162973 22.77541,16.118453 26.3125,12.255859 Z m 18.085938,31.732422 c 0.185459,-0.01964 0.363395,0.06812 0.40039,0.320313 0.139973,0.954262 0.191758,2.70777 0.197266,2.90039 -0.633039,0.113477 -1.277929,0.186804 -1.931641,0.230469 0.08617,-0.419528 0.443723,-2.118915 0.880859,-3.132812 0.07413,-0.171926 0.267666,-0.298717 0.453126,-0.31836 z"
       style="fill:#f2f2f2;fill-opacity:1"
       id="path4" />
  </g>
</svg>
