<?xml version="1.0" encoding="UTF-8" standalone="no"?>
<svg
   width="62"
   height="62"
   version="1.1"
   id="svg13"
   sodipodi:docname="distributor-logo-ms-dos.svg"
   inkscape:version="1.4 (unknown)"
   xmlns:inkscape="http://www.inkscape.org/namespaces/inkscape"
   xmlns:sodipodi="http://sodipodi.sourceforge.net/DTD/sodipodi-0.dtd"
   xmlns="http://www.w3.org/2000/svg"
   xmlns:svg="http://www.w3.org/2000/svg">
  <defs
     id="defs13" />
  <sodipodi:namedview
     id="namedview13"
     pagecolor="#ffffff"
     bordercolor="#000000"
     borderopacity="0.25"
     inkscape:showpageshadow="2"
     inkscape:pageopacity="0.0"
     inkscape:pagecheckerboard="0"
     inkscape:deskcolor="#d1d1d1"
     inkscape:zoom="12.078125"
     inkscape:cx="32"
     inkscape:cy="32"
     inkscape:window-width="1920"
     inkscape:window-height="996"
     inkscape:window-x="0"
     inkscape:window-y="0"
     inkscape:window-maximized="1"
     inkscape:current-layer="svg13" />
  <g
     id="g13"
     transform="translate(0.5)">
    <rect
       style="opacity:0.2;stroke-width:0.948712"
       width="55"
       height="55.050846"
       x="3"
       y="3.9491525"
       rx="4.1250005"
       ry="4.1288137"
       id="rect1" />
    <rect
       style="fill:#383861;stroke-width:0.948712;fill-opacity:1"
       width="55"
       height="55.050846"
       x="3"
       y="3"
       rx="4.1250005"
       ry="4.1288137"
       id="rect2" />
    <path
       style="opacity:0.2;stroke-width:0.948712"
       d="m 41.879295,42.85746 q 0,4.953253 -2.725773,7.70043 -2.710543,2.747182 -7.690031,2.747182 -5.040396,0 -7.750933,-2.71943 -2.695318,-2.733304 -2.695318,-7.755927 0,-5.022632 2.710545,-7.71431 2.725773,-2.691678 7.766171,-2.691678 4.964254,0 7.674796,2.733308 2.710543,2.733303 2.710543,7.700425 z m -16.994206,0 q 0,3.74615 1.659835,5.68861 1.659829,1.928577 4.918567,1.928577 3.243524,0 4.888116,-1.914703 1.659841,-1.914705 1.659841,-5.702484 0,-3.732277 -1.644609,-5.660854 -1.629362,-1.928574 -4.872883,-1.928574 -3.273972,0 -4.949032,1.928574 -1.659835,1.928577 -1.659835,5.660854 z"
       id="path2" />
    <path
       style="opacity:0.2;stroke-width:0.948712"
       d="M 10.586211,9.6440663 V 30.52541 h 3.689371 v -9.710269 c 0,-0.701888 -0.01533,-1.501973 -0.05194,-2.398829 -0.03644,-0.896876 -0.07477,-1.733891 -0.111117,-2.513769 -0.03646,-0.779893 -0.06336,-1.36377 -0.08151,-1.753718 h 0.111152 l 4.700636,16.376585 h 3.800524 l 5.030332,-16.346925 h 0.111116 l -0.08141,1.753719 c -0.01828,0.760385 -0.04504,1.570621 -0.08144,2.428489 -0.01828,0.857868 -0.02973,1.61729 -0.02973,2.280185 v 9.884532 h 3.856073 V 9.6440663 h -5.63406 L 20.920943,25.612813 h -0.08148 L 16.220295,9.6440663 Z m 32.811811,0 c -2.436283,0 -4.360929,0.5107937 -5.774845,1.5349607 -1.413919,1.005189 -2.122518,2.420809 -2.122518,4.241512 0,0.929337 0.185845,1.723918 0.555633,2.387722 0.36979,0.663796 0.838329,1.235066 1.403895,1.709215 0.587314,0.455181 1.195356,0.84177 1.826172,1.164194 0.630826,0.303454 1.219395,0.569552 1.763206,0.797139 0.870091,0.360355 1.640793,0.700889 2.315126,1.023308 0.674318,0.303453 1.208658,0.636995 1.600204,0.997351 0.413309,0.360342 0.61861,0.796713 0.61861,1.308793 0,0.625869 -0.259521,1.147372 -0.781586,1.564618 -0.50031,0.398278 -1.359988,0.596927 -2.578122,0.596927 -1.174645,0 -2.359653,-0.170257 -3.556036,-0.511662 -1.174643,-0.360342 -2.317008,-0.750645 -3.426389,-1.167893 v 4.011647 c 1.935983,0.815533 4.131736,1.223512 6.589779,1.223512 2.740821,0 4.8513,-0.532186 6.330479,-1.594278 1.500927,-1.081041 2.252148,-2.521332 2.252148,-4.323088 0,-1.06208 -0.228467,-1.952492 -0.685273,-2.673195 -0.456799,-0.720699 -1.107465,-1.348728 -1.955816,-1.879773 -0.826605,-0.531036 -1.841061,-1.041839 -3.037447,-1.534959 -1.457419,-0.606903 -2.553446,-1.117712 -3.293035,-1.534959 -0.739586,-0.417238 -1.111262,-0.988502 -1.111262,-1.709203 0,-0.606919 0.251641,-1.10003 0.751951,-1.479354 0.500312,-0.379305 1.21678,-0.567266 2.15214,-0.567266 0.891852,0 1.763113,0.102827 2.611468,0.311444 0.84834,0.208629 1.80488,0.503107 2.870757,0.882408 L 50.317467,11.06779 C 49.099327,10.612616 47.945372,10.261379 46.857746,10.01483 45.770117,9.7682746 44.616169,9.6440663 43.398022,9.6440663 Z"
       id="path3" />
    <path
       style="fill:#f2f2f2;stroke-width:0.948712;fill-opacity:1"
       d="M 18.843539,29.57626 14.140687,13.198735 h -0.10937 q 0.02731,0.584903 0.08191,1.754737 0.05462,1.169824 0.109375,2.515115 0.05462,1.345303 0.05462,2.398145 v 9.709528 h -3.69104 V 8.6949136 h 5.632468 l 4.620842,15.9680924 h 0.0819 L 25.815767,8.6949136 h 5.632486 V 29.57626 h -3.855244 v -9.885007 q 0,-0.994345 0.0273,-2.281151 0.05463,-1.286806 0.0819,-2.427392 0.05463,-1.169823 0.08195,-1.754726 H 27.674826 L 22.643891,29.57626 Z"
       id="path4" />
    <path
       style="fill:#f2f2f2;stroke-width:0.948712;fill-opacity:1"
       d="m 50.413778,23.658936 q 0,2.702627 -2.251393,4.324201 -2.218752,1.593123 -6.329993,1.593123 -3.68706,0 -6.59102,-1.223285 v -4.011269 q 1.664076,0.625868 3.426022,1.166397 1.794595,0.512079 3.556542,0.512079 1.827228,0 2.57768,-0.597434 0.783105,-0.625865 0.783105,-1.56468 0,-0.768107 -0.619953,-1.308639 -0.58733,-0.540517 -1.598819,-0.995706 -1.011496,-0.483618 -2.316645,-1.02415 -0.815718,-0.341379 -1.761961,-0.796558 -0.946225,-0.483635 -1.827211,-1.16641 -0.848357,-0.711209 -1.403039,-1.70691 -0.554695,-0.995703 -0.554695,-2.389689 0,-2.731074 2.120886,-4.238868 2.12087,-1.5362244 5.775296,-1.5362244 1.827215,0 3.458657,0.3698338 1.631441,0.3698331 3.458658,1.0525916 l -1.598811,3.356962 q -1.598813,-0.568975 -2.871341,-0.881909 -1.272534,-0.312939 -2.610303,-0.312939 -1.403048,0 -2.153503,0.568974 -0.750467,0.56897 -0.750467,1.479336 0,1.081038 1.109377,1.706922 1.109382,0.625866 3.29552,1.536228 1.79458,0.739667 3.034478,1.536223 1.272528,0.796571 1.957731,1.877612 0.685202,1.081061 0.685202,2.674188 z"
       id="path5" />
    <path
       style="fill:#8d5fd3;stroke-width:0.948712"
       d="m 41.879295,41.90831 q 0,4.953252 -2.725773,7.70043 -2.710543,2.747174 -7.690031,2.747174 -5.040396,0 -7.750933,-2.719422 -2.695318,-2.733318 -2.695318,-7.755939 0,-5.022622 2.710545,-7.714299 2.725773,-2.691678 7.766171,-2.691678 4.964254,0 7.674796,2.733304 2.710543,2.733308 2.710543,7.70043 z m -16.994206,0 q 0,3.74615 1.659835,5.68861 1.659829,1.928572 4.918567,1.928572 3.243524,0 4.888116,-1.914698 1.659841,-1.914708 1.659841,-5.702484 0,-3.73228 -1.644609,-5.660854 -1.629362,-1.92859 -4.872883,-1.92859 -3.273972,0 -4.949032,1.92859 -1.659835,1.928574 -1.659835,5.660854 z"
       id="path6" />
    <path
       style="opacity:0.2;stroke-width:0.948712"
       d="m 30.499986,42.664443 q 0,5.170347 -3.206103,7.912628 -3.206121,2.728001 -9.235524,2.728001 H 11.534487 V 32.423725 h 7.209756 q 5.56683,0 8.661288,2.685153 3.094455,2.685152 3.094455,7.555565 z m -4.019597,0.11426 q 0,-7.498435 -7.831852,-7.498435 h -3.30181 v 15.153974 h 2.711632 q 8.42203,0 8.42203,-7.655539 z"
       id="path7" />
    <path
       style="fill:#c83771;stroke-width:0.948712"
       d="m 30.499986,41.715292 q 0,5.170346 -3.206103,7.912629 -3.206121,2.727993 -9.235524,2.727993 h -6.523872 v -20.88134 h 7.209756 q 5.56683,0 8.661288,2.68515 3.094455,2.685155 3.094455,7.555568 z m -4.019597,0.11426 q 0,-7.498434 -7.831852,-7.498434 h -3.30181 v 15.153973 h 2.711632 q 8.42203,0 8.42203,-7.655539 z"
       id="path8" />
    <path
       style="opacity:0.2;stroke-width:0.948712"
       d="m 51.362052,47.511646 c 0,1.806104 -0.952327,3.223198 -2.856977,4.251286 -1.904661,1.028088 -4.532008,1.54214 -7.882036,1.54214 -3.350033,0 -6.0922,-0.356592 -8.226491,-1.069767 V 49.09546 c 1.350811,0.43531 2.782686,0.778008 4.295607,1.028094 1.526428,0.25007 2.944778,0.375112 4.255073,0.375112 1.91817,0 3.329781,-0.250074 4.234825,-0.750229 0.918552,-0.500152 1.377842,-1.171652 1.377842,-2.014503 0,-0.759494 -0.418759,-1.403201 -1.256269,-1.931149 -0.837503,-0.527935 -2.566558,-1.153119 -5.187149,-1.87556 -2.701638,-0.750238 -4.606299,-1.606978 -5.71397,-2.570237 -1.107669,-0.963256 -1.661504,-2.121008 -1.661504,-3.473268 0,-1.694969 0.878035,-3.028703 2.634101,-4.001219 1.756063,-0.972525 4.113245,-1.458776 7.071534,-1.458776 2.836727,0 5.659943,0.426054 8.469649,1.27816 l -1.539934,2.709155 c -2.634097,-0.759482 -4.984525,-1.139225 -7.051281,-1.139225 -1.566959,0 -3.324607,0.236179 -4.135097,0.708541 -0.810498,0.463113 -1.215734,1.079038 -1.215734,1.847788 0,0.527936 0.162095,0.981782 0.486285,1.361531 0.324203,0.370478 1.237443,0.72244 1.980396,1.055869 0.742947,0.333438 2.269521,0.773383 4.201201,1.319844 2.174811,0.620561 3.768776,1.199437 4.781901,1.736641 1.013116,0.537205 1.756066,1.143858 2.228854,1.819998 0.472789,0.676136 0.709174,1.472667 0.709174,2.389619 z"
       id="path9" />
    <path
       style="fill:#ffef66;stroke-width:0.948712;fill-opacity:1"
       d="m 51.362052,46.562495 c 0,1.806104 -0.952327,3.223199 -2.856977,4.251287 -1.904661,1.028086 -4.532008,1.542132 -7.882036,1.542132 -3.350033,0 -6.0922,-0.356584 -8.226491,-1.069762 v -3.139843 c 1.350811,0.435311 2.782686,0.778007 4.295607,1.02809 1.526428,0.250075 2.944778,0.375116 4.255073,0.375116 1.91817,0 3.329781,-0.250087 4.234825,-0.750229 0.918552,-0.500152 1.377842,-1.171652 1.377842,-2.014502 0,-0.759495 -0.418759,-1.403202 -1.256269,-1.93115 -0.837503,-0.527935 -2.566558,-1.153119 -5.187149,-1.87556 -2.701638,-0.750237 -4.606299,-1.60698 -5.71397,-2.570238 -1.107669,-0.963255 -1.661504,-2.121006 -1.661504,-3.473266 0,-1.69497 0.878035,-3.028704 2.634101,-4.001219 1.756063,-0.972526 4.113245,-1.458777 7.071534,-1.458777 2.836727,0 5.659943,0.426055 8.469649,1.278161 l -1.539934,2.709154 c -2.634097,-0.759481 -4.984525,-1.139228 -7.051281,-1.139228 -1.566959,0 -3.324607,0.236183 -4.135097,0.708539 -0.810498,0.463104 -1.215734,1.079044 -1.215734,1.847794 0,0.527936 0.162095,0.981782 0.486285,1.361522 0.324203,0.370484 1.237443,0.722436 1.980396,1.055878 0.742947,0.333437 2.269521,0.773382 4.201201,1.319842 2.174811,0.620563 3.768776,1.199439 4.781901,1.736642 1.013116,0.537201 1.756066,1.143859 2.228854,1.819998 0.472789,0.676136 0.709174,1.472666 0.709174,2.389619 z"
       id="path10" />
    <path
       style="opacity:0.1;fill:#ffffff;stroke-width:0.948712"
       d="M 7.1264809,3 C 4.8412305,3 3,4.8429327 3,7.1302958 V 8.0794483 C 3,5.7920855 4.8412305,3.9491528 7.1264809,3.9491528 H 53.8735 c 2.285258,0 4.126488,1.8429327 4.126488,4.1302955 V 7.1302958 C 57.999988,4.8429327 56.158758,3 53.8735,3 Z"
       id="path11" />
    <path
       style="opacity:0.2;stroke-width:0.948712"
       d="m 35.356205,32.944637 c -1.17098,0.652722 -1.940209,1.470888 -2.324393,2.447043 1.411795,0.243016 3.616988,1.888932 4.428375,2.84931 v 0 c -0.32419,-0.379746 -0.485255,-0.834617 -0.485255,-1.362553 0,-0.76875 0.404489,-1.383294 1.214988,-1.846398 0.155097,-0.09043 0.353912,-0.169668 0.570441,-0.242847 -0.949758,-0.838975 -2.084764,-1.45387 -3.404156,-1.844555 z m -9.014181,0.431944 c -0.997183,0.433303 -1.874394,1.007372 -2.615159,1.738879 -0.09423,0.09354 -0.175498,0.198757 -0.264853,0.296605 1.100308,0.643868 1.894447,1.581054 2.392913,2.801109 0.199795,-0.371277 0.429167,-0.711854 0.690833,-1.01589 0.596097,-0.686304 1.348629,-1.183472 2.248447,-1.503437 -0.395224,-0.559552 -0.856277,-1.072631 -1.389073,-1.534957 -0.330401,-0.286702 -0.69046,-0.541563 -1.063108,-0.782309 z"
       id="path12" />
    <path
       style="fill:#8d5fd3;stroke-width:0.948712"
       d="m 31.492719,31.474574 c -3.360265,0 -5.946825,0.897273 -7.764007,2.691733 -1.807029,1.794451 -2.711472,4.367151 -2.711472,7.715568 0,0.68623 0.06158,1.31696 0.137065,1.939082 l 3.759764,-1.412597 c -0.0058,-0.17138 -0.02973,-0.323076 -0.02973,-0.500528 2e-6,-2.48819 0.552922,-4.375828 1.659475,-5.661544 1.11671,-1.285716 2.766165,-1.927976 4.948817,-1.927976 2.162344,0 3.788487,0.64226 4.874728,1.927976 0.365652,0.42878 0.649009,0.950189 0.892718,1.512703 l 3.489369,-1.312495 c -0.414551,-0.839064 -0.937358,-1.589679 -1.581669,-2.239407 -1.807027,-1.822202 -4.3656,-2.732515 -7.675107,-2.732515 z"
       id="path13" />
  </g>
</svg>
