<?xml version="1.0" encoding="UTF-8" standalone="no"?>
<svg
   width="62"
   height="62"
   version="1.1"
   id="svg4"
   sodipodi:docname="distributor-logo-bunsenlabs.svg"
   inkscape:version="1.4 (unknown)"
   xmlns:inkscape="http://www.inkscape.org/namespaces/inkscape"
   xmlns:sodipodi="http://sodipodi.sourceforge.net/DTD/sodipodi-0.dtd"
   xmlns="http://www.w3.org/2000/svg"
   xmlns:svg="http://www.w3.org/2000/svg">
  <defs
     id="defs4" />
  <sodipodi:namedview
     id="namedview4"
     pagecolor="#ffffff"
     bordercolor="#000000"
     borderopacity="0.25"
     inkscape:showpageshadow="2"
     inkscape:pageopacity="0.0"
     inkscape:pagecheckerboard="0"
     inkscape:deskcolor="#d1d1d1"
     inkscape:zoom="12.078125"
     inkscape:cx="32"
     inkscape:cy="32"
     inkscape:window-width="1920"
     inkscape:window-height="996"
     inkscape:window-x="0"
     inkscape:window-y="0"
     inkscape:window-maximized="1"
     inkscape:current-layer="svg4" />
  <g
     id="g4"
     transform="translate(-0.5,-1)">
    <ellipse
       style="opacity:0.2;stroke-width:0.982299"
       cx="31.5"
       cy="32.491226"
       id="circle1"
       rx="27.5"
       ry="27.508774" />
    <ellipse
       style="fill:#2d3d53;stroke-width:0.982299;fill-opacity:1"
       cx="31.5"
       cy="31.508774"
       id="circle2"
       rx="27.5"
       ry="27.508774" />
    <path
       style="opacity:0.1;fill:#ffffff;stroke-width:0.982299"
       d="M 31.499995,4 A 27.499995,27.508769 0 0 0 4,31.508769 27.499995,27.508769 0 0 0 4.0211161,32.084488 27.499995,27.508769 0 0 1 31.499995,4.9824561 27.499995,27.508769 0 0 1 58.979369,31.915508 27.499995,27.508769 0 0 0 58.999992,31.508769 27.499995,27.508769 0 0 0 31.499995,4 Z"
       id="path2" />
    <path
       style="opacity:0.2;stroke-width:0.982299"
       d="m 33.464281,10.877193 c 0,0 -10.803569,7.859648 -10.803569,15.719296 0,6.119831 1.323442,11.437449 2.994383,15.732731 -0.01778,-0.336666 -0.04796,-0.6954 -0.04796,-0.99589 0,-7.859648 3.928568,-13.754384 3.928568,-13.754384 0,0 4.216047,4.849319 4.910714,7.859649 1.406786,6.096287 -1.964284,18.666665 -1.964284,18.666665 0,0 8.839283,-10.807017 8.839283,-19.649121 0,-8.842104 -6.874999,-17.68421 -7.857141,-18.666666 -1.157467,-1.157836 0,-4.91228 0,-4.91228 z"
       id="path3" />
    <path
       style="fill:#fcc650;stroke-width:0.982299;fill-opacity:1"
       d="m 33.464281,9.8947364 c 0,0 -10.803569,7.8596496 -10.803569,15.7192986 0,6.119827 1.323442,11.437446 2.994383,15.732727 -0.01778,-0.336663 -0.04796,-0.6954 -0.04796,-0.995886 0,-7.859649 3.928568,-13.754387 3.928568,-13.754387 0,0 4.216047,4.849322 4.910714,7.85965 1.406786,6.096287 -1.964284,18.666665 -1.964284,18.666665 0,0 8.839283,-10.807016 8.839283,-19.649122 0,-8.842104 -6.874999,-17.684209 -7.857141,-18.666666 -1.157467,-1.157834 0,-4.9122796 0,-4.9122796 z"
       id="path4" />
  </g>
</svg>
