<?xml version="1.0" encoding="UTF-8" standalone="no"?>
<svg
   width="62"
   height="62"
   version="1.1"
   id="svg4"
   sodipodi:docname="distributor-logo-openmandriva.svg"
   inkscape:version="1.4 (unknown)"
   xmlns:inkscape="http://www.inkscape.org/namespaces/inkscape"
   xmlns:sodipodi="http://sodipodi.sourceforge.net/DTD/sodipodi-0.dtd"
   xmlns="http://www.w3.org/2000/svg"
   xmlns:svg="http://www.w3.org/2000/svg">
  <defs
     id="defs4" />
  <sodipodi:namedview
     id="namedview4"
     pagecolor="#ffffff"
     bordercolor="#000000"
     borderopacity="0.25"
     inkscape:showpageshadow="2"
     inkscape:pageopacity="0.0"
     inkscape:pagecheckerboard="0"
     inkscape:deskcolor="#d1d1d1"
     inkscape:zoom="12.078125"
     inkscape:cx="32"
     inkscape:cy="32"
     inkscape:window-width="1920"
     inkscape:window-height="996"
     inkscape:window-x="0"
     inkscape:window-y="0"
     inkscape:window-maximized="1"
     inkscape:current-layer="svg4" />
  <g
     id="g4"
     transform="translate(-0.5,-1)">
    <ellipse
       style="opacity:0.2;stroke-width:0.982303"
       cx="31.5"
       cy="32.49123"
       id="circle1"
       rx="27.5"
       ry="27.50877" />
    <ellipse
       style="fill:#3593fd;stroke-width:0.982303;fill-opacity:1"
       cx="31.5"
       cy="31.50877"
       id="circle2"
       rx="27.5"
       ry="27.50877" />
    <path
       style="opacity:0.2;fill:#ffffff;stroke-width:0.982303"
       d="M 31.499996,4 A 27.499996,27.508766 0 0 0 4,31.508766 27.499996,27.508766 0 0 0 4.0211163,32.084486 27.499996,27.508766 0 0 1 31.499996,4.9824559 27.499996,27.508766 0 0 1 58.979367,31.915504 27.499996,27.508766 0 0 0 58.99999,31.508766 27.499996,27.508766 0 0 0 31.499996,4 Z"
       id="path2" />
    <path
       style="opacity:0.2;stroke-width:0.982303"
       d="M 31.499996,8.9122799 A 23.571427,23.578944 0 0 0 7.9285711,32.491223 23.571427,23.578944 0 0 0 31.499996,56.070167 23.571427,23.578944 0 0 0 54.473295,37.691362 17.678569,17.684207 0 0 1 39.357137,46.245604 17.678569,17.684207 0 0 1 21.678569,28.561396 17.678569,17.684207 0 0 1 39.357137,10.877189 a 17.678569,17.684207 0 0 1 1.714822,0.0845 23.571427,23.578944 0 0 0 -9.571963,-2.0493991 z m 7.857141,3.9298251 A 15.714286,15.719297 0 0 0 23.642853,28.561396 15.714286,15.719297 0 0 0 39.357137,44.280693 15.714286,15.719297 0 0 0 55.071423,28.561396 15.714286,15.719297 0 0 0 39.357137,12.842105 Z m 0,3.929823 A 11.785709,11.789468 0 0 1 51.142849,28.561396 11.785709,11.789468 0 0 1 39.357137,40.350871 11.785709,11.789468 0 0 1 27.571427,28.561396 11.785709,11.789468 0 0 1 39.357137,16.771928 Z"
       id="path3" />
    <path
       style="fill:#f2f2f2;stroke-width:0.982303;fill-opacity:1"
       d="M 31.499996,7.929824 A 23.571427,23.578944 0 0 0 7.9285711,31.508766 23.571427,23.578944 0 0 0 31.499996,55.08771 23.571427,23.578944 0 0 0 54.473295,36.708905 17.678569,17.684207 0 0 1 39.357137,45.263151 17.678569,17.684207 0 0 1 21.678569,27.578944 17.678569,17.684207 0 0 1 39.357137,9.8947357 17.678569,17.684207 0 0 1 41.071959,9.9792295 23.571427,23.578944 0 0 0 31.499996,7.929824 Z m 7.857141,3.929825 A 15.714286,15.719297 0 0 0 23.642853,27.578944 15.714286,15.719297 0 0 0 39.357137,43.29824 15.714286,15.719297 0 0 0 55.071423,27.578944 15.714286,15.719297 0 0 0 39.357137,11.859649 Z m 0,3.929819 A 11.785709,11.789468 0 0 1 51.142849,27.578944 11.785709,11.789468 0 0 1 39.357137,39.368413 11.785709,11.789468 0 0 1 27.571427,27.578944 11.785709,11.789468 0 0 1 39.357137,15.789468 Z"
       id="path4" />
  </g>
</svg>
