<?xml version="1.0" encoding="UTF-8" standalone="no"?>
<svg
   width="62"
   height="62"
   version="1.1"
   id="svg4"
   sodipodi:docname="distributor-logo-trueos.svg"
   inkscape:version="1.4 (unknown)"
   xmlns:inkscape="http://www.inkscape.org/namespaces/inkscape"
   xmlns:sodipodi="http://sodipodi.sourceforge.net/DTD/sodipodi-0.dtd"
   xmlns="http://www.w3.org/2000/svg"
   xmlns:svg="http://www.w3.org/2000/svg">
  <defs
     id="defs4" />
  <sodipodi:namedview
     id="namedview4"
     pagecolor="#ffffff"
     bordercolor="#000000"
     borderopacity="0.25"
     inkscape:showpageshadow="2"
     inkscape:pageopacity="0.0"
     inkscape:pagecheckerboard="0"
     inkscape:deskcolor="#d1d1d1"
     inkscape:zoom="6.0390625"
     inkscape:cx="76.50194"
     inkscape:cy="27.570505"
     inkscape:window-width="1920"
     inkscape:window-height="996"
     inkscape:window-x="0"
     inkscape:window-y="0"
     inkscape:window-maximized="1"
     inkscape:current-layer="svg4" />
  <g
     id="g1"
     transform="matrix(0.99978864,0,0,1,-6.7478335,-13.754386)">
    <ellipse
       cx="37.755814"
       cy="45.405552"
       style="opacity:0.2;stroke-width:1.30606"
       id="circle1"
       rx="27.505814"
       ry="27.348835" />
    <ellipse
       cx="37.755814"
       cy="44.103222"
       style="fill:#e5e5e5;fill-opacity:1;stroke-width:1.30606"
       id="circle2"
       rx="27.505814"
       ry="27.348835" />
    <path
       d="M 37.755818,16.754386 A 27.505818,27.348836 0 0 0 10.25,44.103222 27.505818,27.348836 0 0 0 10.27813,44.866306 27.505818,27.348836 0 0 1 37.755812,18.056711 27.505818,27.348836 0 0 1 65.233493,44.642468 27.505818,27.348836 0 0 0 65.261623,44.103222 27.505818,27.348836 0 0 0 37.7558,16.754386 Z"
       style="opacity:0.1;fill:#ffffff;stroke-width:1.30606"
       id="path2" />
  </g>
  <g
     id="g2"
     transform="translate(2.027862,0.16558862)">
    <path
       d="m 32.296244,0.9997377 c 0,0 1.034478,2.7986774 1.034478,5.5973568 0,4.3004145 -4.288445,6.5777385 -7.241365,9.7953635 -4.344814,4.734303 -4.137933,9.595466 -5.586202,9.595466 -2.896541,0 -4.344815,-3.99811 -4.344815,-3.99811 0,0 0.204844,4.095583 1.448274,5.597354 5.793088,6.996689 1.448269,8.396032 1.448269,8.396032 0,0 -5.79309,0.750471 -5.79309,-4.198011 0,-2.798685 1.448268,-3.674154 1.448268,-5.597356 0,-1.39934 -2.124328,-2.798682 -2.124328,-2.798682 0,0 1.089855,1.399342 1.089855,2.798682 0,1.399335 -3.10345,1.399335 -3.10345,8.396024 0,4.198016 5.586202,5.597355 7.034476,6.996698 1.079478,1.043002 1.448269,4.198013 -1.448274,4.198013 -1.079479,0 -1.448279,-1.399337 -1.448279,-2.798674 v -1.999057 c 0,0 -1.469856,1.997291 -1.448268,3.398394 0.08613,5.597355 9.724123,9.595463 9.724123,9.595463 0,0 -1.034492,-3.998108 -1.034492,-6.796786 0,-5.597353 3.103462,-4.478728 3.103462,-8.396035 0,-5.597351 -1.655184,-6.996684 -1.655184,-6.996684 0,0 3.678435,2.798668 3.754644,6.996684 0.04413,2.43078 -2.927855,4.640874 -2.306369,6.996695 0.337263,1.278434 1.448271,2.798678 2.896549,2.798678 2.896535,0 3.325752,-1.330346 3.660286,-2.798678 0.58148,-2.55222 -3.240255,-4.383368 -3.24624,-6.996695 -0.0024,-1.042997 2.124318,-2.798673 2.124318,-2.798673 0,0 -0.676043,1.399344 -0.676043,2.798673 0,2.986718 5.379055,3.565488 5.379055,6.996695 0,3.23511 -4.907453,4.997638 -4.831,7.796316 0.01425,0.517011 0.170284,1.288075 0.69303,1.399338 6.785013,0.501458 15.724206,-6.396976 15.724206,-13.393667 0,-6.996698 -5.793152,-10.355653 -5.793152,-10.355653 0,0 4.344817,-2.238398 4.344817,-6.436409 0,-2.798679 -2.223957,-4.447471 -4.551709,-11.194708 -1.44828,-4.1980164 1.034485,-6.5968819 1.034485,-6.5968819 0,0 -4.137924,2.3988655 -4.137924,5.1975369 0,5.597357 2.580542,5.597357 2.580542,9.795374 0,1.6818 -0.718471,4.198019 -2.166746,4.198019 -1.011591,0 -1.528967,-0.999531 -1.685184,-2.39887 -0.108467,-0.97176 1.271388,-2.798672 1.271388,-2.798672 0,0 -3.102558,1.399334 -3.103455,4.198011 -2.87e-4,0.932894 2.068975,2.398866 -0.827575,2.398866 -2.896564,0 -4.344828,-1.399335 -4.344828,-4.198017 0,-3.129015 4.344828,-8.396031 4.344828,-8.396031 0,0 2.89655,-4.046628 2.89655,-6.9966893 0,-2.7986773 -4.137931,-6.996693 -4.137931,-6.996693 z m 4.137931,29.3861073 c 0,0 4.344811,2.798677 4.344811,6.996699 0,1.319303 -1.44826,2.798668 -2.896535,2.798668 -2.096656,0 -4.551729,-1.116875 -4.551729,-2.798668 0,-2.798687 2.496611,-4.198022 3.802124,-4.198022 0.749114,-1.399333 -0.698671,-2.798677 -0.698671,-2.798677 z"
       style="opacity:0.1;stroke-width:1.0169"
       id="path3" />
    <path
       d="m 32.296244,0 c 0,0 1.034478,2.7986772 1.034478,5.5973542 0,4.3004191 -4.288445,6.5777348 -7.241365,9.7953708 -4.344814,4.734291 -4.137933,9.595464 -5.586202,9.595464 -2.896541,0 -4.344815,-3.998113 -4.344815,-3.998113 0,0 0.204844,4.095587 1.448274,5.597355 5.793088,6.996696 1.448269,8.396034 1.448269,8.396034 0,0 -5.79309,0.750467 -5.79309,-4.198018 0,-2.798677 1.448268,-3.674145 1.448268,-5.597355 0,-1.399334 -2.124328,-2.798677 -2.124328,-2.798677 0,0 1.089855,1.399343 1.089855,2.798677 0,1.399339 -3.10345,1.399339 -3.10345,8.396035 0,4.19801 5.586202,5.597355 7.034476,6.996688 1.079478,1.043006 1.448269,4.19802 -1.448274,4.19802 -1.079479,0 -1.448279,-1.399343 -1.448279,-2.79868 V 39.9811 c 0,0 -1.469856,1.997288 -1.448268,3.398392 0.08613,5.597355 9.724123,9.595468 9.724123,9.595468 0,0 -1.034492,-3.998113 -1.034492,-6.79679 0,-5.597355 3.103462,-4.478724 3.103462,-8.396033 0,-5.597353 -1.655184,-6.99669 -1.655184,-6.99669 0,0 3.678435,2.79868 3.754644,6.99669 0.04413,2.430779 -2.927855,4.64087 -2.306369,6.996698 0.337263,1.278429 1.448271,2.798675 2.896549,2.798675 2.896535,0 3.325752,-1.330348 3.660286,-2.798675 0.58148,-2.552225 -3.240255,-4.383373 -3.24624,-6.996698 -0.0024,-1.043 2.124318,-2.798672 2.124318,-2.798672 0,0 -0.676043,1.399334 -0.676043,2.798672 0,2.986717 5.379055,3.565484 5.379055,6.996698 0,3.235108 -4.907453,4.997636 -4.831,7.796314 0.01425,0.51701 0.170284,1.288074 0.69303,1.399337 6.785013,0.501459 15.724206,-6.396976 15.724206,-13.393671 0,-6.996688 -5.793152,-10.355652 -5.793152,-10.355652 0,0 4.344817,-2.238393 4.344817,-6.436405 0,-2.798682 -2.223957,-4.447472 -4.551709,-11.194708 -1.44828,-4.1980208 1.034485,-6.5968853 1.034485,-6.5968853 0,0 -4.137924,2.3988645 -4.137924,5.1975443 0,5.597355 2.580542,5.597355 2.580542,9.795367 0,1.681798 -0.718471,4.198016 -2.166746,4.198016 -1.011591,0 -1.528967,-0.999523 -1.685184,-2.398863 -0.108467,-0.971763 1.271388,-2.798678 1.271388,-2.798678 0,0 -3.102558,1.399337 -3.103455,4.198018 -2.87e-4,0.93289 2.068975,2.398862 -0.827575,2.398862 -2.896564,0 -4.344828,-1.399339 -4.344828,-4.198016 0,-3.129016 4.344828,-8.396028 4.344828,-8.396028 0,0 2.89655,-4.0466311 2.89655,-6.9966971 C 36.434175,4.1980155 32.296244,0 32.296244,0 Z m 4.137931,29.386111 c 0,0 4.344811,2.798673 4.344811,6.996688 0,1.319316 -1.44826,2.798683 -2.896535,2.798683 -2.096656,0 -4.551729,-1.116888 -4.551729,-2.798683 0,-2.798672 2.496611,-4.198015 3.802124,-4.198015 0.749114,-1.399337 -0.698671,-2.798673 -0.698671,-2.798673 z"
       style="fill:#c83771;stroke-width:1.0169"
       id="path4" />
  </g>
</svg>
