<?xml version="1.0" encoding="UTF-8" standalone="no"?>
<svg
   width="62"
   height="62"
   version="1.1"
   id="svg5"
   sodipodi:docname="distributor-logo-freebsd.svg"
   inkscape:version="1.4 (unknown)"
   xmlns:inkscape="http://www.inkscape.org/namespaces/inkscape"
   xmlns:sodipodi="http://sodipodi.sourceforge.net/DTD/sodipodi-0.dtd"
   xmlns="http://www.w3.org/2000/svg"
   xmlns:svg="http://www.w3.org/2000/svg">
  <defs
     id="defs5" />
  <sodipodi:namedview
     id="namedview5"
     pagecolor="#ffffff"
     bordercolor="#000000"
     borderopacity="0.25"
     inkscape:showpageshadow="2"
     inkscape:pageopacity="0.0"
     inkscape:pagecheckerboard="0"
     inkscape:deskcolor="#d1d1d1"
     inkscape:zoom="12.078125"
     inkscape:cx="32"
     inkscape:cy="32.082794"
     inkscape:window-width="1920"
     inkscape:window-height="996"
     inkscape:window-x="0"
     inkscape:window-y="0"
     inkscape:window-maximized="1"
     inkscape:current-layer="svg5" />
  <g
     id="g5"
     transform="translate(-0.41252637,-0.99991906)">
    <path
       style="opacity:0.2;stroke-width:0.980772"
       d="M 12.762244,5.0263927 C 10.469637,5.2174441 7.0312828,6.8642713 5.4428072,9.3894246 3.4729003,12.52151 3.9301244,14.113718 4.0278695,15.617397 c 0.097747,1.503675 0.393049,2.851677 0.8642592,4.247912 0.7143813,2.116844 1.892288,3.795009 2.9178314,5.640858 -1.0844196,2.865389 -1.8435215,5.842339 -1.8508916,8.933279 -7.7e-6,0.0066 -7.7e-6,0.0128 0,0.01928 -1.5e-6,14.012927 11.4887265,25.541195 25.4535845,25.541193 13.964866,2e-6 25.453589,-11.528266 25.453587,-25.541195 v -0.0116 c -0.005,-3.095371 -0.765714,-6.075016 -1.850891,-8.944793 1.025331,-1.84461 2.203255,-3.519526 2.917832,-5.637019 0.471268,-1.396277 0.766536,-2.744208 0.864257,-4.247835 0.0977,-1.503695 0.554011,-3.096494 -1.414935,-6.2280394 C 56.325237,7.7090778 54.394405,6.1974704 52.590833,5.5597844 50.791706,4.9236715 49.262946,4.9272832 48.009493,5.0417463 47.231942,5.1107573 46.46637,5.2468138 45.703526,5.4369901 42.246889,6.2754028 39.21153,7.8926341 36.146961,9.8345581 34.569373,9.5261474 33.049971,8.9218201 31.4356,8.9174391 c -0.0092,-1.59e-5 -0.01784,-1.59e-5 -0.02675,0 -1.622385,9.823e-4 -3.1524,0.6051523 -4.738137,0.9132818 C 23.608629,7.8910031 20.575696,6.2747322 17.121782,5.4369861 16.356697,5.2462535 15.588475,5.1105513 14.808169,5.0417423 14.159561,4.9830577 13.482275,4.9663901 12.762244,5.0263927 Z"
       id="path1" />
    <path
       style="fill:#c83771;stroke-width:0.980772"
       d="M 12.762244,4.0442066 C 10.469637,4.2352576 7.0312828,5.8820851 5.4428072,8.4072388 3.4729003,11.539321 3.9301244,13.13153 4.0278695,14.635208 c 0.097746,1.503675 0.393049,2.851679 0.8642592,4.247914 0.7143813,2.116843 1.892288,3.795009 2.9178314,5.640857 -1.0844196,2.86539 -1.8435215,5.84234 -1.8508916,8.933279 -7.7e-6,0.0066 -7.7e-6,0.0128 0,0.01928 -1.5e-6,14.012928 11.4887265,25.541197 25.4535845,25.541195 13.964866,2e-6 25.453589,-11.528267 25.453587,-25.541195 v -0.01167 c -0.005,-3.095371 -0.765714,-6.075018 -1.850891,-8.944792 1.025331,-1.84461 2.203255,-3.519527 2.917832,-5.637021 0.471268,-1.396276 0.766536,-2.744207 0.864257,-4.247833 0.0977,-1.503627 0.554011,-3.096426 -1.414935,-6.2279692 C 56.325237,6.7268815 54.394405,5.215274 52.590833,4.5775882 50.791706,3.9414753 49.262946,3.945087 48.009493,4.0595501 47.231942,4.1285609 46.46637,4.2646176 45.703526,4.4547942 42.246889,5.2932067 39.21153,6.9104376 36.146961,8.852362 34.569373,8.5439513 33.049971,7.9396234 31.4356,7.9352427 c -0.0092,-1.56e-5 -0.01784,-1.56e-5 -0.02675,0 -1.622381,0.00105 -3.152396,0.6051527 -4.738133,0.9132819 C 23.608627,6.9088168 20.575694,5.2925461 17.12178,4.4548002 16.356695,4.2640673 15.588473,4.1283648 14.808167,4.0595561 14.159559,4.0008711 13.482273,3.9842041 12.762242,4.0442061 Z"
       id="path2" />
    <path
       style="opacity:0.2;stroke-width:0.980772"
       d="m 13.408526,12.858364 c -0.635101,0.05293 -1.070767,0.293632 -1.342281,0.725249 -0.387026,0.615369 -0.284885,2.191233 0.244747,3.760575 0.526363,1.559717 1.78377,4.02351 2.959896,6.024591 1.942907,-2.837272 4.614049,-5.124916 7.732446,-6.623212 -2.775047,-1.757921 -5.758664,-3.199195 -7.732446,-3.676153 -0.430316,-0.109156 -0.815204,-0.173676 -1.158717,-0.203379 -0.257646,-0.02369 -0.491947,-0.0253 -0.703645,-0.0078 z m 36.008259,0 c -0.211695,-0.01766 -0.446006,-0.01598 -0.703644,0.0078 -0.343446,0.02973 -0.728409,0.0942 -1.158721,0.203378 -2.187918,0.528701 -5.631583,2.21822 -8.638771,4.240231 -1.530505,1.029048 -1.629551,1.163524 -1.629089,2.206456 3.63e-4,0.745389 0.06096,0.992482 0.435949,1.772843 1.037887,2.159682 3.357515,4.366263 5.34235,5.08061 0.880516,0.317078 2.007254,0.306682 2.424515,-0.02304 1.047832,-0.824395 4.126356,-6.33958 5.02494,-9.002349 0.529632,-1.569269 0.631704,-3.145135 0.244747,-3.760575 -0.271568,-0.431613 -0.707198,-0.672323 -1.342276,-0.725247 z m -18.004132,3.9179 A 17.621712,17.682366 0 0 0 13.790939,34.458631 17.621712,17.682366 0 0 0 31.412653,52.141 17.621712,17.682366 0 0 0 49.034368,34.458631 17.621712,17.682366 0 0 0 47.435867,27.148538 c -0.204374,0.250842 -0.419405,0.492341 -0.734236,0.740604 -0.874647,0.691085 -1.550926,0.669276 -2.233307,0.675369 -0.682379,0.0062 -1.368811,-0.09463 -2.065043,-0.345359 -2.734678,-0.984221 -5.136705,-3.358639 -6.443705,-6.078316 -0.409744,-0.85272 -0.630573,-1.774508 -0.630985,-2.624727 -2.41e-4,-0.550658 0.08552,-1.422311 0.550677,-2.141224 a 17.621712,17.682366 0 0 0 -4.466615,-0.598621 z"
       id="path3" />
    <path
       style="fill:#f1f1f1;stroke-width:0.980772;fill-opacity:1"
       d="m 13.408526,11.876178 c -0.635101,0.05293 -1.070767,0.293632 -1.342281,0.72525 -0.387026,0.615367 -0.284885,2.191233 0.244747,3.760574 0.526363,1.559716 1.78377,4.02351 2.959896,6.024589 1.942907,-2.837271 4.614049,-5.124915 7.732446,-6.62321 -2.775047,-1.757921 -5.758664,-3.199197 -7.732446,-3.676152 -0.430316,-0.109156 -0.815204,-0.173677 -1.158717,-0.20338 -0.257646,-0.02369 -0.491947,-0.02534 -0.703645,-0.0078 z m 36.008259,0 c -0.211695,-0.01766 -0.446006,-0.01598 -0.703644,0.0078 -0.343446,0.02973 -0.728409,0.0942 -1.158721,0.203379 -2.187918,0.528699 -5.631583,2.218219 -8.638771,4.240231 -1.530505,1.029048 -1.629551,1.163523 -1.629089,2.206456 3.63e-4,0.745389 0.06096,0.99248 0.435949,1.772841 1.037887,2.159684 3.357515,4.366264 5.34235,5.08061 0.880516,0.317078 2.007254,0.30668 2.424515,-0.02304 1.047832,-0.824397 4.126356,-6.339582 5.02494,-9.002351 0.529632,-1.569264 0.631704,-3.145132 0.244747,-3.760571 -0.271568,-0.431617 -0.707198,-0.672329 -1.342276,-0.725251 z m -18.004132,3.917899 a 17.621712,17.682366 0 0 0 -17.621714,17.682368 17.621712,17.682366 0 0 0 17.621714,17.68237 17.621712,17.682366 0 0 0 17.621715,-17.68237 17.621712,17.682366 0 0 0 -1.598501,-7.310093 c -0.204374,0.250842 -0.419405,0.492341 -0.734236,0.740605 -0.874647,0.691085 -1.550926,0.669275 -2.233307,0.675369 -0.682379,0.0062 -1.368811,-0.09464 -2.065043,-0.345362 -2.734678,-0.984218 -5.136705,-3.358638 -6.443705,-6.078313 -0.409744,-0.85272 -0.630573,-1.774509 -0.630985,-2.624729 -2.41e-4,-0.550656 0.08552,-1.422312 0.550677,-2.141223 a 17.621712,17.682366 0 0 0 -4.466615,-0.598622 z"
       id="path4" />
    <path
       style="opacity:0.2;fill:#ffffff;stroke-width:0.980772"
       d="m 49.001632,4.0019171 c -0.347701,0.00651 -0.679109,0.028947 -0.992475,0.057564 -0.77755,0.069013 -1.543358,0.2051086 -2.306201,0.3952843 -3.456638,0.8384129 -6.491065,2.4560943 -9.555632,4.3980186 -1.577589,-0.3084109 -3.097472,-0.9128322 -4.711846,-0.9172133 -0.0092,-1.55e-5 -0.01784,-1.55e-5 -0.02675,0 -1.622379,0.00105 -3.152874,0.6052466 -4.738612,0.9133756 C 23.608023,6.9092343 20.576022,5.2925136 17.122107,4.4547672 16.357019,4.2640346 15.588564,4.1282925 14.808255,4.0594829 14.159654,4.0007982 13.482152,3.9841294 12.762124,4.0441321 10.469514,4.2351836 7.0304129,5.8824574 5.4419376,8.407611 3.9490898,10.781187 3.8528955,12.267567 3.9350652,13.504092 3.9969132,12.450749 4.3192992,11.175024 5.4419376,9.3900655 7.0304129,6.8649116 10.469514,5.2176377 12.762124,5.0265868 c 0.720028,-0.060005 1.39753,-0.043338 2.046131,0.015353 0.780309,0.068808 1.548764,0.2045517 2.313852,0.3952843 3.453915,0.837746 6.485916,2.4544668 9.547987,4.3941804 1.585739,-0.3081291 3.116235,-0.9123438 4.738612,-0.9133755 0.0091,-1.5e-5 0.01778,-1.5e-5 0.02675,0 1.614374,0.00436 3.134257,0.6088025 4.711846,0.9172133 3.064569,-1.9419245 6.098996,-3.5596061 9.555634,-4.3980186 0.762844,-0.1901763 1.528652,-0.3262738 2.306201,-0.3952843 1.253454,-0.1144632 2.782686,-0.1180222 4.581812,0.5180911 1.803572,0.637686 3.734894,2.1496862 4.79216,3.8300368 1.122091,1.7846467 1.444857,3.0605827 1.506866,4.1140247 0.08191,-1.236645 -0.01471,-2.723308 -1.506866,-5.0964792 C 56.325859,6.7272607 54.394537,5.2152603 52.590965,4.577574 51.241619,4.1004895 50.044726,3.98243 49.001628,4.0019171 Z m 6.226361,21.1361999 c -0.07003,0.122536 -0.143405,0.240707 -0.212261,0.364583 1.03335,2.732728 1.765221,5.565416 1.837695,8.502453 0.0037,-0.176277 0.01343,-0.350597 0.01343,-0.527686 v -0.01347 c -0.0046,-2.875232 -0.675701,-5.645685 -1.638824,-8.325914 z m -47.6309226,0.002 c -0.9625546,2.676737 -1.6319721,5.444763 -1.6388191,8.316321 -7.6e-6,0.0066 -7.6e-6,0.01458 0,0.02108 0,0.179664 0.00959,0.356535 0.013386,0.53536 0.07237,-2.938238 0.8033435,-5.773239 1.8376949,-8.506334 -0.069104,-0.124387 -0.1419601,-0.24346 -0.2122619,-0.366507 z"
       id="path5" />
  </g>
</svg>
