<?xml version="1.0" encoding="UTF-8" standalone="no"?>
<svg
   width="62"
   height="62"
   version="1.1"
   id="svg20"
   sodipodi:docname="distributor-logo-pisilinux.svg"
   inkscape:version="1.4 (unknown)"
   xmlns:inkscape="http://www.inkscape.org/namespaces/inkscape"
   xmlns:sodipodi="http://sodipodi.sourceforge.net/DTD/sodipodi-0.dtd"
   xmlns="http://www.w3.org/2000/svg"
   xmlns:svg="http://www.w3.org/2000/svg">
  <defs
     id="defs20" />
  <sodipodi:namedview
     id="namedview20"
     pagecolor="#ffffff"
     bordercolor="#000000"
     borderopacity="0.25"
     inkscape:showpageshadow="2"
     inkscape:pageopacity="0.0"
     inkscape:pagecheckerboard="0"
     inkscape:deskcolor="#d1d1d1"
     inkscape:zoom="12.078125"
     inkscape:cx="32"
     inkscape:cy="32"
     inkscape:window-width="1920"
     inkscape:window-height="996"
     inkscape:window-x="0"
     inkscape:window-y="0"
     inkscape:window-maximized="1"
     inkscape:current-layer="svg20" />
  <path
     style="opacity:0.2;stroke-width:0.98217"
     d="m 57.774749,6.9025488 c -0.102262,-0.3053676 -0.09336,-0.6901075 -0.28569,-0.9425592 -2.629084,0.3792283 -5.231478,1.0285477 -7.664903,2.1011916 -2.577935,1.1079212 -5.379148,2.9678838 -7.349006,4.9577328 3.209882,3.344369 5.696189,7.424127 8.607196,10.595808 1.35623,1.965599 2.722408,5.015394 3.880765,7.098948 0.256784,-0.465219 1.807809,-2.45525 2.022358,-2.94362 1.69529,-3.493532 2.053241,-7.448976 1.963196,-11.275442 -0.03891,-3.227855 -0.51803,-6.433656 -1.173916,-9.5920592 z"
     id="path1" />
  <path
     style="opacity:0.2;stroke-width:0.98217"
     d="M 5.1786984,6.9025488 C 5.2809739,6.5971812 5.2720822,6.2124413 5.4643951,5.9599896 8.093472,6.3392179 10.695869,6.9885373 13.129291,8.0611812 15.707236,9.1691024 18.508438,11.029065 20.4783,13.018914 17.268414,16.363283 14.782107,20.443041 11.871103,23.614722 10.514881,25.580321 9.1486908,28.630116 7.9903411,30.71367 7.7335472,30.248451 6.1825277,28.25842 5.9679772,27.77005 4.2726954,24.276518 3.9147399,20.321074 4.0047843,16.494608 4.0436932,13.266753 4.5228186,10.060952 5.1786984,6.9025488 Z"
     id="path2" />
  <path
     style="opacity:0.2;stroke-width:0.98217"
     d="m 21.942405,10.081331 c -0.530866,0.350581 -1.046798,0.721292 -1.550442,1.107568 -1.187563,0.885052 -2.272886,1.904097 -3.330359,2.936786 -0.402143,0.411472 -0.795486,0.830523 -1.181359,1.255963 -0.176767,0.193346 -0.352303,0.38772 -0.52561,0.583825 -0.132301,0.152419 -0.26372,0.305558 -0.394177,0.45945 -8.35e-4,9.65e-4 -0.0017,0.0019 -0.0023,0.0027 -0.0023,0.0029 -0.005,0.0059 -0.0072,0.0086 -3.639507,4.257615 -6.5281669,9.126632 -8.8401883,14.205182 -0.2409492,0.545907 -0.4740674,1.095143 -0.7004894,1.647061 -0.04997,0.119237 -0.1003174,0.238356 -0.1496354,0.357824 -0.016981,0.04646 -0.03486,0.0928 -0.052119,0.139154 -0.2563727,0.639843 -0.5025674,1.28369 -0.7374053,1.931545 -0.027833,0.07621 -0.054913,0.152536 -0.081941,0.228923 -0.1129236,0.31549 -0.2240974,0.63153 -0.3315695,0.948935 -0.041382,0.09133 -0.053987,0.183021 -0.049007,0.274374 -3.343e-4,0.0013 -6.498e-4,0.0023 -9.819e-4,0.0038 6.209e-4,0.0019 0.00131,0.0038 0.00192,0.0058 0.013394,0.196849 0.10606,0.392126 0.1665174,0.579275 0.3978186,1.116736 0.8626373,2.21072 1.3901616,3.273997 0.00128,0.0023 0.00258,0.0052 0.00396,0.0078 0.084182,0.16956 0.1700232,0.338297 0.2574798,0.506214 0.00718,0.01373 0.014417,0.02762 0.021638,0.04136 0.9361469,1.790509 2.0564405,3.485691 3.3583813,5.036982 0.8563827,1.04507 1.7966097,2.017715 2.7980227,2.924776 0.0896,0.08176 0.180621,0.161703 0.271246,0.24223 0.03043,0.02696 0.06057,0.05436 0.09109,0.08113 0.36162,0.318632 0.730992,0.628457 1.1081,0.928812 2.31194,1.866844 5.021978,3.390855 7.797332,4.41989 0.09397,0.0346 0.187671,0.06942 0.282062,0.102884 0.777129,0.284616 1.566304,0.535548 2.365502,0.751043 0.196356,0.05287 0.393229,0.104386 0.590678,0.153089 1.934147,0.481459 3.919138,0.756764 5.912202,0.828973 0.0078,3.35e-4 0.01631,8.43e-4 0.02438,0.0012 0.173892,0.006 0.347861,0.0096 0.521842,0.01274 0.05886,0.0011 0.11777,0.0028 0.176681,0.0034 0.117724,0.0014 0.235462,8.69e-4 0.353195,8.27e-4 0.117667,5.4e-5 0.23536,5.82e-4 0.353033,-8.27e-4 0.05896,-7.53e-4 0.117904,-0.0023 0.176835,-0.0034 0.173851,-0.0028 0.347592,-0.0068 0.52135,-0.01274 0.0084,-3.38e-4 0.01727,-8.39e-4 0.02612,-0.0012 1.992636,-0.0723 3.977329,-0.347605 5.911053,-0.828973 0.19489,-0.04819 0.389018,-0.09904 0.582818,-0.151148 0.0023,-7.46e-4 0.0054,-0.0014 0.008,-0.0022 0.799812,-0.215674 1.589757,-0.466781 2.367472,-0.751694 0.09244,-0.03274 0.184316,-0.0669 0.276323,-0.100803 0.0014,-5.01e-4 0.0023,-0.0012 0.0038,-0.0017 2.807583,-1.029312 5.492445,-2.575291 7.800124,-4.422479 0.377177,-0.30052 0.746736,-0.610506 1.108422,-0.929306 0.120231,-0.106005 0.240292,-0.212208 0.358768,-0.320155 1.001353,-0.907018 1.941528,-1.87961 2.797864,-2.924621 1.300748,-1.549886 2.420111,-3.243407 3.355748,-5.032105 0.009,-0.01748 0.01823,-0.0349 0.02738,-0.05238 0.08622,-0.165851 0.171067,-0.332438 0.254194,-0.499882 0.0014,-0.0023 0.0023,-0.0054 0.004,-0.0082 0.52748,-1.063211 0.992201,-2.15717 1.38999,-3.273834 0.06048,-0.187142 0.153273,-0.382431 0.166686,-0.579268 5.93e-4,-0.0019 0.0014,-0.0038 0.002,-0.0058 -3.5e-4,-0.0013 -6.71e-4,-0.0023 -9.9e-4,-0.0038 0.0048,-0.09133 -0.0072,-0.183018 -0.04903,-0.274375 -0.107046,-0.316202 -0.217945,-0.631055 -0.330415,-0.945374 -0.02794,-0.07894 -0.05612,-0.157856 -0.08487,-0.236551 -0.234937,-0.648046 -0.481022,-1.292116 -0.737495,-1.932134 -0.01669,-0.04482 -0.03388,-0.08954 -0.05031,-0.134425 -0.04818,-0.116601 -0.09709,-0.232857 -0.145872,-0.349216 -0.227562,-0.554874 -0.461915,-1.106958 -0.70412,-1.65571 -2.311973,-5.078442 -5.200636,-9.947304 -8.840034,-14.204855 -0.0018,-0.0021 -0.0032,-0.004 -0.005,-0.0061 -0.0012,-0.0014 -0.0023,-0.0027 -0.0034,-0.0041 -5.05e-4,-5.81e-4 -9.75e-4,-0.0012 -0.0015,-0.0018 C 47.908557,16.271 47.777145,16.117866 47.644857,15.965441 47.479224,15.778013 47.311658,15.592315 47.143021,15.407571 46.749544,14.973088 46.348151,14.545408 45.937741,14.125475 44.880657,13.093067 43.795896,12.074483 42.609048,11.189736 42.10477,10.803184 41.588212,10.432067 41.056732,10.081082 37.80086,7.9583161 35.080987,7.0503692 31.388204,6.9513268 28.034682,6.9710718 24.306184,8.5446254 21.94243,10.081052 Z"
     id="path3" />
  <path
     style="fill:#c83771;stroke-width:0.98217"
     d="m 57.774749,4.9376107 c -0.10225,-0.305367 -0.0934,-0.6901087 -0.28569,-0.9425603 -2.629084,0.3792289 -5.231478,1.0285478 -7.664903,2.1011924 -2.577935,1.1079207 -5.379148,2.9678852 -7.349006,4.9577342 3.209882,3.344364 5.696189,7.42413 8.607196,10.595809 1.35623,1.965598 2.722408,5.015387 3.880765,7.098948 0.256784,-0.465219 1.807809,-2.455247 2.022358,-2.943624 1.69529,-3.493532 2.053241,-7.44897 1.963196,-11.275434 -0.03891,-3.227852 -0.51803,-6.4336631 -1.173916,-9.5920653 z"
     id="path4" />
  <path
     style="opacity:0.1;fill:#ffffff;stroke-width:0.98217"
     d="m 57.488341,3.9941406 c -2.629078,0.3792286 -5.231621,1.0285783 -7.665049,2.1012217 -2.577938,1.107922 -5.378765,2.9686518 -7.348631,4.9585027 0.164136,0.170998 0.318937,0.351158 0.479427,0.525783 1.930427,-1.8142733 4.490318,-3.4794222 6.869204,-4.5017957 2.433428,-1.0726446 5.035971,-1.7200752 7.665049,-2.0993032 0.192321,0.2524515 0.18347,0.6368244 0.285735,0.9421915 0.655881,3.158402 1.134717,6.3629314 1.173638,9.5907844 0.0052,0.22482 0.0036,0.451789 0.0057,0.677384 0.008,-0.554302 0.0071,-1.109154 -0.0057,-1.659875 C 58.908798,11.301176 58.429957,8.0966534 57.774076,4.938251 57.671819,4.6328839 57.680625,4.2465922 57.488341,3.9941406 Z"
     id="path5" />
  <path
     style="fill:#c83771;stroke-width:0.98217;fill-opacity:1"
     d="M 5.1786984,4.9376107 C 5.2809739,4.6322437 5.2720802,4.247502 5.4643951,3.9950504 8.093472,4.3742793 10.695869,5.0235982 13.129291,6.0962428 15.707236,7.2041635 18.508438,9.064128 20.4783,11.053977 17.268414,14.398341 14.782107,18.478107 11.871103,21.649786 10.514881,23.615384 9.1486908,26.665173 7.9903411,28.748734 7.7335472,28.283515 6.1825277,26.293487 5.9679772,25.80511 4.2726954,22.311578 3.9147399,18.35614 4.0047843,14.529676 4.0436935,11.301824 4.5228186,8.0960129 5.1786984,4.9376107 Z"
     id="path6" />
  <path
     style="opacity:0.1;fill:#ffffff;stroke-width:0.98217"
     d="M 5.4649777,3.9941406 C 5.2726607,4.2465922 5.281513,4.6328839 5.1792401,4.938251 4.5233611,8.0966534 4.0445159,11.301176 4.005608,14.529034 c -0.012957,0.550721 -0.014004,1.105573 -0.00576,1.659875 0.00197,-0.225595 4.633e-4,-0.452564 0.00576,-0.677384 0.03891,-3.227853 0.5177531,-6.4323824 1.1736321,-9.5907844 0.1022752,-0.3053671 0.093422,-0.68974 0.2857376,-0.9421915 2.6290765,0.379228 5.2316213,1.0266586 7.6650433,2.0993032 2.37889,1.0223735 4.938775,2.6875224 6.869207,4.5017957 0.160498,-0.174625 0.315292,-0.354785 0.479423,-0.525783 C 18.508794,9.0640141 15.707965,7.2032843 13.130021,6.0953623 10.696599,5.0227189 8.0940542,4.3733692 5.4649777,3.9941406 Z"
     id="path7" />
  <path
     style="fill:#e5e5e5;stroke-width:0.98217;stroke:#e5e5e5;stroke-opacity:1;fill-opacity:1"
     d="m 21.942405,9.0988816 c -0.530866,0.3505805 -1.046798,0.7212932 -1.550442,1.1075604 -1.187563,0.885066 -2.272886,1.904106 -3.330359,2.9368 -0.402143,0.411468 -0.795486,0.830521 -1.181359,1.255959 -0.176767,0.19335 -0.352303,0.387722 -0.52561,0.583815 -0.132301,0.15242 -0.26372,0.305569 -0.394177,0.459461 -8.35e-4,9.58e-4 -0.0017,0.0019 -0.0023,0.0027 -0.0023,0.0029 -0.005,0.0059 -0.0072,0.0086 -3.639507,4.257611 -6.5281669,9.126631 -8.8401883,14.205176 -0.2409492,0.545903 -0.4740674,1.095134 -0.7004894,1.647067 -0.04997,0.11924 -0.1003174,0.238345 -0.1496354,0.357824 -0.016981,0.04646 -0.03486,0.09278 -0.052119,0.139138 -0.2563727,0.639861 -0.5025674,1.283704 -0.7374053,1.931551 -0.027833,0.07617 -0.054913,0.152547 -0.081941,0.228913 -0.1129236,0.315512 -0.2240974,0.631542 -0.3315695,0.948954 -0.041382,0.09132 -0.053987,0.183024 -0.049007,0.274377 -3.343e-4,0.0013 -6.498e-4,0.0023 -9.819e-4,0.0038 6.209e-4,0.0019 0.00131,0.0038 0.00192,0.0058 0.013394,0.196844 0.10606,0.39212 0.1665174,0.579271 0.3978186,1.116735 0.8626373,2.210718 1.3901616,3.274 0.00128,0.0023 0.00258,0.0052 0.00396,0.0078 0.084182,0.169565 0.1700232,0.338293 0.2574798,0.506217 0.00718,0.01376 0.014417,0.02762 0.021638,0.04136 0.9361469,1.790501 2.0564405,3.485685 3.3583813,5.036982 0.8563827,1.045069 1.7966097,2.017714 2.7980227,2.924774 0.0896,0.08169 0.180621,0.161697 0.271246,0.242228 0.03043,0.02696 0.06057,0.05436 0.09109,0.08118 0.36162,0.318631 0.730992,0.628457 1.1081,0.92882 2.31194,1.866835 5.021978,3.390851 7.797332,4.41988 0.09397,0.0346 0.187671,0.06949 0.282062,0.102884 0.777129,0.284618 1.566304,0.535552 2.365502,0.751044 0.196356,0.05289 0.393229,0.104384 0.590678,0.153095 1.934147,0.481456 3.919138,0.756755 5.912202,0.828967 0.0078,3.38e-4 0.01631,8.43e-4 0.02438,0.0012 0.173892,0.006 0.347861,0.0096 0.521842,0.01274 0.05886,0.0011 0.11777,0.0028 0.176681,0.0034 0.117724,0.0014 0.235462,8.72e-4 0.353195,8.33e-4 0.117667,5.3e-5 0.23536,5.83e-4 0.353033,-8.33e-4 0.05896,-7.52e-4 0.117904,-0.0023 0.176835,-0.0034 0.173851,-0.0028 0.347592,-0.0068 0.52135,-0.01274 0.0084,-3.3e-4 0.01727,-8.27e-4 0.02612,-0.0012 1.992636,-0.0723 3.977329,-0.347605 5.911053,-0.828967 0.19489,-0.04822 0.389018,-0.09904 0.582818,-0.151149 0.0023,-7.5e-4 0.0054,-0.0014 0.008,-0.0022 0.799812,-0.215671 1.589757,-0.466772 2.367472,-0.751689 0.09244,-0.03274 0.184316,-0.0669 0.276323,-0.100802 0.0014,-5.02e-4 0.0023,-0.0012 0.0038,-0.0017 2.807583,-1.029311 5.492445,-2.575299 7.800124,-4.422489 0.377177,-0.30051 0.746736,-0.610506 1.108422,-0.929302 0.120231,-0.106003 0.240292,-0.212209 0.358768,-0.320158 1.001353,-0.907015 1.941528,-1.879603 2.797864,-2.924615 1.300748,-1.549886 2.420111,-3.243404 3.355748,-5.032109 0.009,-0.01748 0.01823,-0.0349 0.02738,-0.05238 0.08622,-0.165846 0.171067,-0.33244 0.254194,-0.499887 0.0014,-0.0023 0.0023,-0.0054 0.004,-0.0082 0.52748,-1.063216 0.992201,-2.157163 1.38999,-3.273829 0.06048,-0.18715 0.153273,-0.382429 0.166686,-0.57928 5.93e-4,-0.0019 0.0014,-0.0038 0.002,-0.0058 -3.5e-4,-0.0013 -6.71e-4,-0.0023 -9.9e-4,-0.0038 0.0048,-0.09133 -0.0072,-0.183024 -0.04903,-0.274376 -0.107046,-0.316208 -0.217945,-0.63106 -0.330415,-0.945376 -0.02794,-0.07894 -0.05612,-0.157849 -0.08487,-0.236551 -0.234958,-0.648064 -0.481042,-1.292136 -0.737516,-1.932154 -0.01669,-0.04482 -0.03388,-0.08954 -0.05031,-0.134425 -0.04818,-0.116602 -0.09708,-0.232859 -0.145872,-0.349224 -0.227525,-0.554831 -0.461881,-1.106914 -0.704088,-1.655666 -2.311971,-5.078446 -5.200636,-9.947305 -8.840032,-14.204858 -0.0018,-0.0021 -0.0032,-0.004 -0.005,-0.0061 -0.0012,-0.0014 -0.0023,-0.0027 -0.0034,-0.0041 -5.03e-4,-5.82e-4 -9.77e-4,-0.0012 -0.0015,-0.0018 -0.130788,-0.15371 -0.26219,-0.30685 -0.3945,-0.45928 C 47.478878,14.795147 47.31131,14.609444 47.142679,14.424698 46.749198,13.99021 46.347805,13.562517 45.937394,13.142592 44.880527,12.110909 43.795767,11.09232 42.608916,10.207582 42.104749,9.8209984 41.588187,9.4498853 41.056713,9.0988954 37.800837,6.9761604 35.080965,6.0682134 31.388181,5.9691712 28.03466,5.9889136 24.306161,7.5624698 21.942405,9.0988955 Z"
     id="path8" />
  <path
     style="fill:#2d3d53;stroke-width:0.98217;fill-opacity:1"
     d="m 17.830606,29.54918 c -1.25745,9.22e-4 -2.515697,0.177754 -3.716301,0.542962 -0.349198,2.114548 -0.524477,4.337126 0.192695,6.400167 0.561967,1.821408 1.98635,3.367997 3.786149,4.086755 2.192802,0.908866 4.692198,0.942033 6.987633,0.419522 0.295382,-1.323427 0.541979,-2.6701 0.50694,-4.030329 0.05754,-1.669326 -0.333019,-3.407478 -1.346817,-4.775069 -1.167749,-1.614131 -3.19158,-2.439508 -5.15534,-2.586694 -0.416783,-0.03834 -0.835808,-0.05758 -1.254959,-0.05727 z m -0.02588,1.740455 c 0.673644,-0.01254 1.34846,0.04082 2.005547,0.174999 0.287873,0.118976 0.722197,0.05406 0.924952,0.291957 -0.919927,0.355707 -1.707331,1.098959 -1.962655,2.050741 -0.311649,0.997185 -0.0036,2.137981 0.741059,2.877589 1.072625,1.192197 3.199028,1.247365 4.315455,0.09068 -0.02872,0.916228 -0.05894,1.850769 -0.282888,2.735103 -0.928694,0.09324 -1.884783,0.131361 -2.810971,-0.01574 -1.692171,-0.181526 -3.439438,-1.002207 -4.290526,-2.509629 -0.967483,-1.652149 -0.976296,-3.625535 -0.738487,-5.457982 0.272839,-0.149633 0.592081,-0.116639 0.891208,-0.14608 0.39942,-0.05238 0.803102,-0.08398 1.2073,-0.09158 z"
     id="path9" />
  <path
     style="fill:#2d3d53;stroke-width:0.98217;fill-opacity:1"
     d="m 25.610294,43.942062 c -0.08393,0.17037 0.163898,0.286074 0.258482,0.418591 1.378992,1.300985 2.740663,2.613535 4.143638,3.89874 0.283789,0.270288 0.707483,0.388085 1.117852,0.486947 0.0023,0.766704 0.009,1.534464 -0.0023,2.302222 0.159886,0.156709 0.453021,0.13358 0.660856,0.0515 -0.01477,-0.775118 0.01593,-1.551289 -0.01727,-2.325353 0.422371,-0.133584 0.875362,-0.250314 1.187141,-0.533225 1.406978,-1.340955 2.836593,-2.67033 4.23957,-4.014426 0.05193,-0.08839 0.233173,-0.167231 0.161225,-0.276611 -1.578843,-0.392283 -3.224307,-0.557406 -4.867119,-0.629981 -2.319641,-0.07154 -4.656593,0.08414 -6.881631,0.621566 z"
     id="path10" />
  <path
     style="fill:#2d3d53;stroke-width:0.98217;fill-opacity:1"
     d="m 31.388185,5.9692151 c -1.422177,0.00849 -2.91149,0.2966691 -4.335849,0.7425992 1.273556,4.5831167 2.483127,9.1834767 3.739929,13.7707277 0.174534,-0.01882 0.349102,-0.03548 0.52364,-0.05318 0.342834,-4.803102 0.846043,-9.599568 1.171689,-14.4037466 -0.357587,-0.027299 -0.723219,-0.04624 -1.099409,-0.056331 z m -4.938656,0.9419683 c -1.70613,0.5938737 -3.288245,1.3954293 -4.507133,2.1876982 -0.708579,0.51031 -2.126524,1.4703504 -0.841764,0.6041134 2.514078,3.989968 5.05848,7.96211 7.582622,11.946536 0.158886,-0.06204 0.31773,-0.125212 0.476612,-0.190586 -0.364748,-1.807701 -0.646793,-3.628672 -1.01714,-5.435242 -0.307683,-1.506219 -0.53473,-3.025667 -0.84242,-4.530771 C 26.985832,9.9700968 26.746184,8.4355426 26.449529,6.9111834 Z"
     id="path11" />
  <path
     style="opacity:0.2;fill:none;stroke:#000000;stroke-width:2.9465;stroke-linecap:round;stroke-linejoin:round"
     d="M 18.14822,49.699038 5.4820539,58.520889"
     id="path12" />
  <path
     style="fill:none;stroke:#c83771;stroke-width:2.9465;stroke-linecap:round;stroke-linejoin:round;stroke-opacity:1"
     d="M 18.14822,48.716526 5.4820539,57.538378"
     id="path13" />
  <path
     style="fill:#2d3d53;stroke-width:0.98217;fill-opacity:1"
     d="m 45.246659,29.54918 c 1.257447,9.22e-4 2.515704,0.177754 3.716301,0.542962 0.349192,2.114548 0.524478,4.337126 -0.192682,6.400167 -0.561969,1.821408 -1.986358,3.367997 -3.786159,4.086755 -2.1928,0.908866 -4.692196,0.942033 -6.987626,0.419522 -0.295377,-1.323427 -0.541987,-2.6701 -0.506937,-4.030329 -0.05754,-1.669326 0.333014,-3.407478 1.346812,-4.775069 1.167748,-1.614131 3.191577,-2.439508 5.155334,-2.586694 0.416787,-0.03834 0.835819,-0.05758 1.254964,-0.05727 z m 0.02588,1.740455 c -0.673652,-0.01254 -1.348467,0.04082 -2.005555,0.174999 -0.28786,0.118976 -0.722187,0.05406 -0.924948,0.291957 0.919922,0.355707 1.707327,1.098959 1.962653,2.050741 0.311647,0.997185 0.0036,2.137981 -0.741063,2.877589 -1.072615,1.192197 -3.199025,1.247365 -4.315455,0.09068 0.02875,0.916228 0.05885,1.850769 0.2829,2.735103 0.928683,0.09324 1.884775,0.131361 2.810965,-0.01574 1.692168,-0.181526 3.439437,-1.002207 4.290526,-2.509629 0.967487,-1.652149 0.976294,-3.625535 0.738496,-5.457982 -0.272857,-0.149633 -0.592081,-0.116639 -0.891223,-0.14608 -0.399419,-0.05238 -0.803099,-0.08398 -1.207291,-0.09158 z"
     id="path14" />
  <path
     style="opacity:0.2;fill:none;stroke:#000000;stroke-width:2.9465;stroke-linecap:round;stroke-linejoin:round"
     d="m 26.003208,49.699038 -12.66617,8.821851"
     id="path15" />
  <path
     style="fill:none;stroke:#c83771;stroke-width:2.9465;stroke-linecap:round;stroke-linejoin:round;stroke-opacity:1"
     d="m 26.003208,48.716526 -12.66617,8.821852"
     id="path16" />
  <path
     style="opacity:0.2;fill:none;stroke:#000000;stroke-width:2.9465;stroke-linecap:round;stroke-linejoin:round"
     d="m 44.757004,49.699038 12.666163,8.821851"
     id="path17" />
  <path
     style="fill:none;stroke:#c83771;stroke-width:2.9465;stroke-linecap:round;stroke-linejoin:round;stroke-opacity:1"
     d="m 44.757004,48.716526 12.666163,8.821852"
     id="path18" />
  <path
     style="opacity:0.2;fill:none;stroke:#000000;stroke-width:2.9465;stroke-linecap:round;stroke-linejoin:round"
     d="m 36.902012,49.699038 12.666171,8.821851"
     id="path19" />
  <path
     style="fill:none;stroke:#c83771;stroke-width:2.9465;stroke-linecap:round;stroke-linejoin:round;stroke-opacity:1"
     d="m 36.902012,48.716526 12.666171,8.821852"
     id="path20" />
</svg>
