<?xml version="1.0" encoding="UTF-8" standalone="no"?>
<svg
   width="62"
   height="62"
   version="1.1"
   id="svg4"
   sodipodi:docname="distributor-logo-aix.svg"
   inkscape:version="1.4 (unknown)"
   xmlns:inkscape="http://www.inkscape.org/namespaces/inkscape"
   xmlns:sodipodi="http://sodipodi.sourceforge.net/DTD/sodipodi-0.dtd"
   xmlns="http://www.w3.org/2000/svg"
   xmlns:svg="http://www.w3.org/2000/svg">
  <defs
     id="defs4" />
  <sodipodi:namedview
     id="namedview4"
     pagecolor="#ffffff"
     bordercolor="#000000"
     borderopacity="0.25"
     inkscape:showpageshadow="2"
     inkscape:pageopacity="0.0"
     inkscape:pagecheckerboard="0"
     inkscape:deskcolor="#d1d1d1"
     inkscape:zoom="12.078125"
     inkscape:cx="32"
     inkscape:cy="32"
     inkscape:window-width="1920"
     inkscape:window-height="996"
     inkscape:window-x="0"
     inkscape:window-y="0"
     inkscape:window-maximized="1"
     inkscape:current-layer="svg4" />
  <g
     id="g4"
     transform="translate(-0.5,-1)">
    <ellipse
       cx="31.5"
       cy="32.49123"
       style="opacity:0.2;stroke-width:0.982297"
       id="circle1"
       rx="27.5"
       ry="27.50877" />
    <ellipse
       cx="31.5"
       cy="31.50877"
       style="fill:#76b200;stroke-width:0.982297;fill-opacity:1"
       id="circle2"
       rx="27.5"
       ry="27.50877" />
    <path
       d="M 31.499996,4 A 27.499996,27.508766 0 0 0 4,31.508766 27.499996,27.508766 0 0 0 4.021116,32.084487 27.499996,27.508766 0 0 1 31.499996,4.982456 27.499996,27.508766 0 0 1 58.979369,31.915503 27.499996,27.508766 0 0 0 58.99999,31.508766 27.499996,27.508766 0 0 0 31.499996,4 Z"
       style="opacity:0.2;fill:#ffffff;stroke-width:0.982297"
       id="path2" />
    <path
       d="M 31.499996,7.9298233 A 24.553566,24.561396 0 0 0 6.9464284,32.491219 24.553566,24.561396 0 0 0 31.499996,57.052615 24.553566,24.561396 0 0 0 56.053561,32.491219 24.553566,24.561396 0 0 0 31.499996,7.9298233 Z m 0,1.964912 A 22.589284,22.596488 0 0 1 54.08928,32.491219 22.589284,22.596488 0 0 1 31.499996,55.087707 22.589284,22.596488 0 0 1 8.9107132,32.491219 22.589284,22.596488 0 0 1 31.499996,9.8947353 Z M 19.714286,25.614028 14.803569,38.385956 h 2.946428 l 1.177808,-2.947368 h 4.812881 l 0.884311,2.947368 h 2.946429 l -3.92857,-12.771928 z m 9.82142,0 v 12.771928 h 2.94643 V 25.614028 Z m 4.910717,0 4.910711,6.385965 -4.910711,6.385963 h 2.94643 l 3.437499,-4.470944 3.4375,4.470944 h 2.946429 l -4.910716,-6.385963 4.910716,-6.385965 h -2.946429 l -3.4375,4.470945 -3.437499,-4.470945 z m -12.767856,2.947368 1.177808,3.929823 h -2.748849 z"
       style="opacity:0.2;stroke-width:0.982297"
       id="path3" />
    <path
       d="M 31.499996,6.947368 A 24.553566,24.561396 0 0 0 6.9464284,31.508766 24.553566,24.561396 0 0 0 31.499996,56.070161 24.553566,24.561396 0 0 0 56.053561,31.508766 24.553566,24.561396 0 0 0 31.499996,6.947368 Z m 0,1.9649113 A 22.589284,22.596488 0 0 1 54.08928,31.508766 22.589284,22.596488 0 0 1 31.499996,54.105254 22.589284,22.596488 0 0 1 8.9107132,31.508766 22.589284,22.596488 0 0 1 31.499996,8.9122793 Z M 19.714286,24.631574 14.803569,37.403502 h 2.946428 l 1.177808,-2.947369 h 4.812881 l 0.884311,2.947369 h 2.946429 l -3.92857,-12.771928 z m 9.82142,0 v 12.771928 h 2.94643 V 24.631574 Z m 4.910717,0 4.910711,6.385964 -4.910711,6.385964 h 2.94643 l 3.437499,-4.470943 3.4375,4.470943 h 2.946429 l -4.910716,-6.385964 4.910716,-6.385964 h -2.946429 l -3.4375,4.470944 -3.437499,-4.470944 z m -12.767856,2.947369 1.177808,3.929823 h -2.748849 z"
       style="fill:#f1f1f1;stroke-width:0.982297;fill-opacity:1"
       id="path4" />
  </g>
</svg>
