<?xml version="1.0" encoding="UTF-8" standalone="no"?>
<svg
   width="62"
   height="62"
   version="1.1"
   id="svg10"
   sodipodi:docname="distributor-logo-dragonflybsd.svg"
   inkscape:version="1.4 (unknown)"
   xmlns:inkscape="http://www.inkscape.org/namespaces/inkscape"
   xmlns:sodipodi="http://sodipodi.sourceforge.net/DTD/sodipodi-0.dtd"
   xmlns="http://www.w3.org/2000/svg"
   xmlns:svg="http://www.w3.org/2000/svg">
  <defs
     id="defs10" />
  <sodipodi:namedview
     id="namedview10"
     pagecolor="#ffffff"
     bordercolor="#000000"
     borderopacity="0.25"
     inkscape:showpageshadow="2"
     inkscape:pageopacity="0.0"
     inkscape:pagecheckerboard="0"
     inkscape:deskcolor="#d1d1d1"
     inkscape:zoom="12.078125"
     inkscape:cx="32"
     inkscape:cy="32.496766"
     inkscape:window-width="1920"
     inkscape:window-height="996"
     inkscape:window-x="0"
     inkscape:window-y="0"
     inkscape:window-maximized="1"
     inkscape:current-layer="svg10" />
  <g
     id="g11"
     transform="translate(-0.47068705,-1)">
    <g
       id="g10">
      <ellipse
         cx="31.465944"
         cy="26.5965"
         style="opacity:0.2;stroke-width:0.981705"
         id="circle1"
         rx="21.580807"
         ry="21.614029" />
      <ellipse
         cx="31.465944"
         cy="25.614029"
         style="fill:#9ec936;stroke-width:0.981705;fill-opacity:1"
         id="circle2"
         rx="21.580807"
         ry="21.614029" />
      <path
         d="M 31.465938,4 A 21.580819,21.61404 0 0 0 9.8851223,25.61404 21.580819,21.61404 0 0 0 9.9061977,26.189698 21.580819,21.61404 0 0 1 31.465938,4.982456 21.580819,21.61404 0 0 1 53.025675,26.020832 21.580819,21.61404 0 0 0 53.046746,25.61404 21.580819,21.61404 0 0 0 31.465938,4 Z"
         style="opacity:0.2;fill:#ffffff;stroke-width:0.981705"
         id="path2" />
      <path
         d="m 31.465938,11.85965 c -0.258846,1.559342 -0.525961,2.813054 -0.791273,3.92982 h -1.333472 c -1.578234,0 -2.848961,1.272694 -2.848961,2.853347 v 0.188046 c -1e-6,1.301989 0.867879,2.383731 2.053859,2.728624 -0.02157,0.0247 -0.09201,0.124723 -0.09201,0.124723 0,0 -0.323591,0.936125 -0.599676,2.500272 C 24.234924,21.741567 18.69425,18.100419 15.027401,16.259596 9.3765227,13.422756 7.6625067,11.978095 5.4919196,11.92105 4.5052897,11.89514 3.9706871,12.174756 3.9706871,12.782623 c 0,9.628071 11.1261949,13.367981 17.9061009,14.207238 l 4.615424,0.589089 -11.464811,2.160629 c -5.4796397,1.37544 -11.0567139,7.71e-4 -11.0567139,2.751651 0,4.100764 2.8373219,5.501369 8.3169629,5.501369 4.562065,0 11.550343,-4.221357 15.691308,-7.015355 0.157146,0.4338 0.344314,0.857756 0.55178,1.274125 L 31.396962,60 34.263164,32.255206 c 0.211315,-0.423736 0.402319,-0.855553 0.561362,-1.297143 4.177407,2.793626 11.247032,7.034536 15.81967,7.034536 5.479647,0 8.257577,-1.400605 8.257577,-5.501369 0,-2.75088 -5.517682,-1.376211 -10.997329,-2.751651 L 36.301692,27.57895 41.055067,26.989861 c 6.780715,-0.97259 17.748998,-4.579167 17.748998,-14.207238 0,-0.607867 -0.534603,-0.891269 -1.521241,-0.865409 -2.170587,0.0569 -3.727491,1.505542 -9.37838,4.342382 -3.679006,1.846927 -9.301668,5.507738 -12.959217,7.949836 -0.277036,-1.579879 -0.605425,-2.525222 -0.605425,-2.525222 0,0 -0.06574,-0.101173 -0.08626,-0.126646 1.183508,-0.346441 2.048108,-1.426472 2.048108,-2.726701 v -0.188046 c -1e-6,-1.580653 -1.270729,-2.853347 -2.848959,-2.853347 H 32.24378 c -0.257411,-1.116774 -0.519008,-2.370459 -0.777857,-3.92982 z"
         style="opacity:0.2;stroke-width:0.981705"
         id="path3" />
      <rect
         x="26.561213"
         y="14.807014"
         width="9.8094616"
         height="5.8947382"
         ry="2.8531711"
         style="fill:#ffe133;stroke-width:0.981705;fill-opacity:1"
         id="rect3" />
      <path
         d="m 29.41016,14.80702 c -1.578224,0 -2.848952,1.272684 -2.848952,2.85334 v 0.188053 c 0,0.0474 0.01115,0.09136 0.01345,0.138155 0.29573,-1.260532 1.41521,-2.197098 2.766576,-2.197098 h 4.111537 c 1.531546,0 2.763426,1.201711 2.83555,2.717105 0.04992,-0.212184 0.08236,-0.430278 0.08236,-0.658162 V 17.66036 c 0,-1.580656 -1.270736,-2.85334 -2.848962,-2.85334 z"
         style="opacity:0.2;fill:#ffffff;stroke-width:0.981705"
         id="path4" />
      <path
         d="m 28.523098,30.52632 2.94284,28.49122 2.94284,-28.49122 v -9.82457 c 0,0 -1.572928,-1.571929 -2.94284,-9.82456 -1.369911,8.252631 -2.94284,9.82456 -2.94284,9.82456 z"
         style="fill:#c83771;stroke-width:0.981705"
         id="path5" />
      <path
         d="m 28.523098,21.68421 v 8.84211 l 0.203088,1.968746 c 0.852324,1.621944 1.975208,2.943534 2.739752,2.943534 0.764534,0 1.887417,-1.32159 2.739751,-2.943534 l 0.203089,-1.968746 v -8.84211 z"
         style="opacity:0.2;stroke-width:0.981705"
         id="path6" />
      <path
         d="m 31.465938,10.87719 c -1.369911,8.252631 -2.94284,9.82456 -2.94284,9.82456 v 0.89036 c 0.183267,-0.200355 1.657492,-1.989239 2.94284,-9.73246 1.369912,8.252631 2.873864,9.82456 2.873864,9.82456 l 0.069,-0.98246 c 0,0 -1.572928,-1.571929 -2.942841,-9.82456 z"
         style="opacity:0.1;fill:#ffffff;stroke-width:0.981705"
         id="path7" />
      <path
         d="m 28.523098,20.70175 h 5.88568 c 0,0 0.98094,2.75088 0.98094,6.8772 0,2.673371 -2.553868,6.87719 -3.92378,6.87719 -1.369911,0 -3.92379,-4.203819 -3.92379,-6.87719 0,-4.12632 0.98095,-6.8772 0.98095,-6.8772 z"
         style="fill:#782144;stroke-width:0.981705"
         id="path8" />
      <path
         d="m 27.785471,24.092382 c -0.137585,0.996542 -0.243323,2.160001 -0.243323,3.486568 0,0.955031 0.332822,2.102981 0.814265,3.187221 1.841923,-1.254225 3.109525,-2.204771 3.109525,-2.204771 0,0 1.269232,0.943789 3.115265,2.189426 0.477775,-1.079817 0.808515,-2.221273 0.808515,-3.171876 0,-1.315586 -0.103638,-2.470247 -0.239483,-3.461628 -2.057286,1.372144 -3.684297,2.479168 -3.684297,2.479168 0,0 -1.62561,-1.118793 -3.680467,-2.504108 z"
         style="opacity:0.2;stroke-width:0.981705"
         id="path9" />
      <path
         d="m 57.350165,10.934926 c -2.170588,0.0569 -3.726144,1.505751 -9.377032,4.342601 -5.674071,2.848478 -16.507195,10.336513 -16.507195,10.336513 0,0 -10.696602,-7.488035 -16.370673,-10.336513 -5.6508823,-2.83685 -7.36357,-4.282249 -9.5341571,-4.339294 -0.98663,-0.02592 -1.5224208,0.254477 -1.5224208,0.862334 0,9.628071 11.1262399,13.367196 17.9061359,14.206453 l 4.616385,0.58947 -11.465943,2.1614 c -5.4796429,1.37544 -11.0565817,0 -11.0565817,2.75088 0,4.100764 2.8371157,5.50176 8.3167597,5.50176 6.788394,0 19.110495,-9.43158 19.110495,-9.43158 0,0 12.458623,9.43158 19.247018,9.43158 5.479647,0 8.257731,-1.400996 8.257731,-5.50176 0,-2.75088 -5.517908,-1.37544 -10.997554,-2.75088 l -11.602465,-2.1614 4.752907,-0.58947 c 6.780715,-0.97258 17.74901,-4.578995 17.74901,-14.207066 0,-0.607867 -0.535793,-0.890888 -1.52242,-0.865028 z"
         style="fill:#f2f2f2;stroke-width:0.981705;fill-opacity:1"
         id="path10" />
    </g>
  </g>
</svg>
