<?xml version="1.0" encoding="UTF-8" standalone="no"?>
<svg
   height="62"
   width="62"
   version="1.1"
   id="svg5"
   sodipodi:docname="distributor-logo-antix.svg"
   inkscape:version="1.4 (unknown)"
   xmlns:inkscape="http://www.inkscape.org/namespaces/inkscape"
   xmlns:sodipodi="http://sodipodi.sourceforge.net/DTD/sodipodi-0.dtd"
   xmlns="http://www.w3.org/2000/svg"
   xmlns:svg="http://www.w3.org/2000/svg">
  <defs
     id="defs5" />
  <sodipodi:namedview
     id="namedview5"
     pagecolor="#ffffff"
     bordercolor="#000000"
     borderopacity="0.25"
     inkscape:showpageshadow="2"
     inkscape:pageopacity="0.0"
     inkscape:pagecheckerboard="0"
     inkscape:deskcolor="#d1d1d1"
     inkscape:zoom="12.078125"
     inkscape:cx="32"
     inkscape:cy="35.063389"
     inkscape:window-width="1920"
     inkscape:window-height="996"
     inkscape:window-x="0"
     inkscape:window-y="0"
     inkscape:window-maximized="1"
     inkscape:current-layer="svg5" />
  <g
     id="g5"
     transform="translate(-0.5,-1)">
    <ellipse
       style="opacity:0.2;stroke-width:0.982303"
       cx="31.5"
       cy="32.49123"
       id="circle1"
       rx="27.5"
       ry="27.50877" />
    <ellipse
       style="fill:#a1a3ab;stroke-width:0.982303;fill-opacity:1"
       cx="31.5"
       cy="31.50877"
       id="circle2"
       rx="27.5"
       ry="27.50877" />
    <path
       style="opacity:0.1;fill:#ffffff;stroke-width:0.982303"
       d="M 31.499996,4 A 27.499996,27.508766 0 0 0 4,31.508766 27.499996,27.508766 0 0 0 4.0172646,31.992321 27.499996,27.508766 0 0 1 31.499996,4.9824559 27.499996,27.508766 0 0 1 58.975056,31.992321 27.499996,27.508766 0 0 0 58.99999,31.508766 27.499996,27.508766 0 0 0 31.499996,4 Z"
       id="path2" />
    <path
       style="opacity:0.2;stroke-width:0.982303"
       d="m 20.499997,4.9824559 c -3.732141,0 -5.696424,0 -13.553569,5.8947331 C 17.75,7.929824 24.624999,12.842105 34.446424,24.631576 20.696423,39.368413 4,59.999989 4,59.999989 H 17.75 L 39.357137,30.526312 c 4.910714,7.859645 8.839287,15.719292 8.839287,29.473677 h 8.053571 C 56.053567,49.192972 50.160709,36.421045 43.285711,25.614033 l 5.892853,-6.877195 c 0,0 2.946429,-3.92982 6.875003,0 0,-3.92982 2.946423,-5.894733 2.946423,-5.894733 H 48.196424 c -0.91872,0 -3.928573,2.947363 -8.839287,7.859643 C 32.48214,11.859649 25.607142,4.9824559 20.499997,4.9824559 Z"
       id="path3" />
    <path
       style="fill:#e5e5e5;stroke-width:0.982303;fill-opacity:1"
       d="M 20.499997,4 C 16.767856,4 14.803573,4 6.946428,9.8947357 17.75,6.9473676 24.624999,11.859649 34.446424,23.649117 20.696423,38.385957 4,59.01753 4,59.01753 H 17.75 L 39.357137,29.543855 c 4.910714,7.859647 8.839287,15.719296 8.839287,29.473675 h 8.053571 C 56.053567,48.210519 50.160709,35.438592 43.285711,24.631576 l 5.892853,-6.877191 c 0,0 2.946429,-3.929826 6.875003,0 0,-3.929826 2.946423,-5.894736 2.946423,-5.894736 H 48.196424 c -0.91872,0 -3.928573,2.947369 -8.839287,7.859648 C 32.48214,10.877189 25.607142,4 20.499997,4 Z"
       id="path4" />
    <path
       style="opacity:0.2;fill:#ffffff;stroke-width:0.982303"
       d="M 20.500766,4 C 16.768624,4 14.803573,4 6.946428,9.8947357 7.6264233,9.7092235 8.2908238,9.5557736 8.9414052,9.4322907 15.136285,5.0317395 17.115138,4.9824559 20.500766,4.9824559 c 5.10714,0 11.981374,6.8771931 18.856371,15.7192921 4.910714,-4.91228 7.920567,-7.859643 8.839287,-7.859643 H 57.9392 c 0.57462,-0.64375 1.06079,-0.982456 1.06079,-0.982456 H 48.196424 c -0.91872,0 -3.928573,2.947369 -8.839287,7.859648 C 32.48214,10.877189 25.607906,4 20.500766,4 Z M 34.014819,24.123079 C 20.348309,38.825576 4,59.01753 4,59.01753 h 0.803746 c 2.1140056,-2.601657 16.870733,-20.697368 29.642678,-34.385954 -0.146509,-0.17587 -0.28638,-0.335695 -0.431605,-0.508497 z m 9.620011,1.082232 -0.349119,0.408722 C 49.954725,36.09725 55.683713,48.423515 56.201272,59.01753 h 0.04791 C 56.056201,48.397756 50.355879,35.890837 43.63483,25.205311 Z"
       id="path5" />
  </g>
</svg>
