<?xml version="1.0" encoding="UTF-8" standalone="no"?>
<svg
   width="62"
   height="62"
   version="1.1"
   id="svg6"
   sodipodi:docname="distributor-logo-aryalinux.svg"
   inkscape:version="1.4 (unknown)"
   xmlns:inkscape="http://www.inkscape.org/namespaces/inkscape"
   xmlns:sodipodi="http://sodipodi.sourceforge.net/DTD/sodipodi-0.dtd"
   xmlns="http://www.w3.org/2000/svg"
   xmlns:svg="http://www.w3.org/2000/svg">
  <defs
     id="defs6" />
  <sodipodi:namedview
     id="namedview6"
     pagecolor="#ffffff"
     bordercolor="#000000"
     borderopacity="0.25"
     inkscape:showpageshadow="2"
     inkscape:pageopacity="0.0"
     inkscape:pagecheckerboard="0"
     inkscape:deskcolor="#d1d1d1"
     inkscape:zoom="12.078125"
     inkscape:cx="32"
     inkscape:cy="32.662354"
     inkscape:window-width="1920"
     inkscape:window-height="996"
     inkscape:window-x="0"
     inkscape:window-y="0"
     inkscape:window-maximized="1"
     inkscape:current-layer="svg6" />
  <g
     id="g6"
     transform="matrix(0.98214286,0,0,0.98245614,0.07142848,0.07017535)">
    <rect
       style="opacity:0.2"
       width="56"
       height="56"
       x="4"
       y="5"
       rx="2.8"
       ry="2.8"
       id="rect1" />
    <rect
       style="fill:#2d3d53;fill-opacity:1"
       width="56"
       height="56"
       x="4"
       y="4"
       rx="2.8"
       ry="2.8"
       id="rect2" />
    <path
       style="opacity:0.2"
       d="m 26,11 -1,2.75 V 55 h 6 V 11 Z m 7,0 v 44 h 4 l 2,-6 V 11 Z M 22,22 10,55 h 6 l 6,-17.334 z m 20,27 -2,6 h 14 v -6 z"
       id="path2" />
    <path
       style="fill:#37c871"
       d="m 26,10 -1,2.75 V 54 h 6 V 10 Z M 22,21 10,54 h 6 l 6,-17.334 z"
       id="path3" />
    <path
       style="fill:#ffb380"
       d="m 33,10 v 44 h 4 l 2,-6 V 10 Z m 9,38 -2,6 h 14 v -6 z"
       id="path4" />
    <path
       style="opacity:0.2;fill:#ffffff"
       d="m 26,10 -1,2.75 v 1 L 26,11 h 5 v -1 z m 7,0 v 1 h 6 V 10 Z M 22,21 10,54 h 0.363 L 22,22 Z m 20,27 -2,6 h 0.334 L 42,49 h 12 v -1 z"
       id="path5" />
    <path
       style="opacity:0.1;fill:#ffffff"
       d="M 6.8008,4 C 5.2496,4 4,5.2496 4,6.8008 v 1 C 4,6.2496 5.2496,5 6.8008,5 H 57.199 C 58.75,5 60,6.2496 60,7.8008 v -1 C 60,5.2496 58.75,4 57.199,4 Z"
       id="path6" />
  </g>
</svg>
