<?xml version="1.0" encoding="UTF-8" standalone="no"?>
<svg
   width="62"
   height="62"
   version="1.1"
   id="svg4"
   sodipodi:docname="distributor-logo-ghostbsd.svg"
   inkscape:version="1.4 (unknown)"
   xmlns:inkscape="http://www.inkscape.org/namespaces/inkscape"
   xmlns:sodipodi="http://sodipodi.sourceforge.net/DTD/sodipodi-0.dtd"
   xmlns="http://www.w3.org/2000/svg"
   xmlns:svg="http://www.w3.org/2000/svg">
  <defs
     id="defs4" />
  <sodipodi:namedview
     id="namedview4"
     pagecolor="#ffffff"
     bordercolor="#000000"
     borderopacity="0.25"
     inkscape:showpageshadow="2"
     inkscape:pageopacity="0.0"
     inkscape:pagecheckerboard="0"
     inkscape:deskcolor="#d1d1d1"
     inkscape:zoom="12.078125"
     inkscape:cx="32"
     inkscape:cy="32.082794"
     inkscape:window-width="1920"
     inkscape:window-height="996"
     inkscape:window-x="0"
     inkscape:window-y="0"
     inkscape:window-maximized="1"
     inkscape:current-layer="svg4" />
  <g
     id="g4"
     transform="translate(-0.5,-1)">
    <ellipse
       cx="31.5"
       cy="32.49123"
       style="opacity:0.2;stroke-width:0.982302"
       id="circle1"
       rx="27.5"
       ry="27.50877" />
    <ellipse
       cx="31.5"
       cy="31.50877"
       style="fill:#2d3d53;stroke-width:0.982302;fill-opacity:1"
       id="circle2"
       rx="27.5"
       ry="27.50877" />
    <path
       d="M 31.499995,4 A 27.499995,27.508765 0 0 0 4,31.508765 27.499995,27.508765 0 0 0 4.0211163,32.084485 27.499995,27.508765 0 0 1 31.499995,4.9824559 27.499995,27.508765 0 0 1 58.979367,31.915504 27.499995,27.508765 0 0 0 58.99999,31.508765 27.499995,27.508765 0 0 0 31.499995,4 Z"
       style="opacity:0.1;fill:#ffffff;stroke-width:0.982302"
       id="path2" />
    <path
       d="m 46.624996,11.85983 c -6.383845,0 -12.674637,2.78418 -18.174634,6.91049 -6.308375,4.73279 -13.61683,13.854299 -13.61683,19.35605 0,1.945168 1.375001,4.126318 4.125003,4.126318 6.874997,0 15.487888,-8.319241 15.487888,-8.319241 0,0 -7.410173,8.295543 -11.196425,12.312339 -2.223361,2.358745 -3.945839,2.561292 -6.695834,6.687611 -1.135104,1.703195 1.671263,2.386964 2.177976,2.154495 4.695974,-2.154474 7.223507,-6.90656 9.330359,-8.842106 1.497169,-1.37544 6.188525,-4.625866 12.361567,-10.127624 0.352298,-0.313983 -1.725496,-0.858859 -2.049071,-0.639362 -4.124999,2.798217 -4.723875,3.889796 -4.723875,3.889796 0,0 6.040151,-7.474057 10.865949,-13.361405 0.970994,-1.184581 -0.700929,-1.375434 -0.700929,-1.375434 h -1.920165 c 0,0 8.756558,-4.821885 8.820728,-8.842105 0.03101,-1.944915 -1.341711,-3.929822 -4.091707,-3.929822 z m -0.770757,2.842211 c 0.967396,0.05117 1.303718,0.484404 0.770757,1.284101 -2.75,4.126317 -5.500002,5.501756 -8.250001,5.501756 -0.377929,-0.344438 0,-1.375439 0,-1.375439 0,0 -2.946426,1.178943 -2.946426,2.554383 0,1.29678 1.571429,2.947369 2.946426,2.947369 1.024866,0 2.691144,-0.982454 2.691144,-0.982454 0,0 -7.372484,7.859643 -17.816141,13.3614 -2.720409,1.433119 -4.615554,-0.269645 -4.291463,-1.242226 1.374999,-4.126312 7.659848,-12.632589 13.616823,-16.605171 5.671877,-3.782452 11.150616,-5.556252 13.278881,-5.443719 z"
       style="opacity:0.2;stroke-width:0.982302"
       id="path3" />
    <path
       d="m 46.624996,10.877189 c -6.383845,0 -12.674637,2.784184 -18.174634,6.910497 -6.308375,4.732789 -13.61683,13.854293 -13.61683,19.35605 0,1.945161 1.375001,4.126311 4.125003,4.126311 6.874997,0 15.487888,-8.319235 15.487888,-8.319235 0,0 -7.410173,8.295543 -11.196425,12.31234 -2.223361,2.358744 -3.945839,2.561291 -6.695834,6.687608 -1.135104,1.703192 1.671263,2.386967 2.177976,2.154491 4.695974,-2.15447 7.223507,-6.90656 9.330359,-8.842099 1.497169,-1.37544 6.188525,-4.625873 12.361567,-10.127624 0.352298,-0.313984 -1.725496,-0.85886 -2.049071,-0.639363 -4.124999,2.798218 -4.723875,3.889792 -4.723875,3.889792 0,0 6.040151,-7.474054 10.865949,-13.3614 0.970994,-1.184588 -0.700929,-1.37544 -0.700929,-1.37544 h -1.920165 c 0,0 8.756558,-4.821881 8.820728,-8.8421 0.03101,-1.944915 -1.341711,-3.929828 -4.091707,-3.929828 z m -0.770757,2.842217 c 0.967396,0.05117 1.303718,0.484404 0.770757,1.284102 -2.75,4.12631 -5.500002,5.50175 -8.250001,5.50175 -0.377929,-0.344439 0,-1.37544 0,-1.37544 0,0 -2.946426,1.17895 -2.946426,2.554389 0,1.296774 1.571429,2.947368 2.946426,2.947368 1.024866,0 2.691144,-0.982458 2.691144,-0.982458 0,0 -7.372484,7.859648 -17.816141,13.361405 -2.720409,1.433115 -4.615554,-0.269646 -4.291463,-1.242226 1.374999,-4.126317 7.659848,-12.632588 13.616823,-16.60517 5.671877,-3.782459 11.150616,-5.556253 13.278881,-5.44372 z"
       style="fill:#00b7cc;stroke-width:0.982302;fill-opacity:1"
       id="path4" />
  </g>
</svg>
