<?xml version="1.0" encoding="UTF-8" standalone="no"?>
<svg
   width="62"
   height="62"
   version="1.1"
   id="svg20"
   sodipodi:docname="distributor-logo-vanilla-os.svg"
   inkscape:version="1.4 (unknown)"
   xmlns:inkscape="http://www.inkscape.org/namespaces/inkscape"
   xmlns:sodipodi="http://sodipodi.sourceforge.net/DTD/sodipodi-0.dtd"
   xmlns="http://www.w3.org/2000/svg"
   xmlns:svg="http://www.w3.org/2000/svg">
  <defs
     id="defs20" />
  <sodipodi:namedview
     id="namedview20"
     pagecolor="#ffffff"
     bordercolor="#000000"
     borderopacity="0.25"
     inkscape:showpageshadow="2"
     inkscape:pageopacity="0.0"
     inkscape:pagecheckerboard="0"
     inkscape:deskcolor="#d1d1d1"
     inkscape:zoom="12.078125"
     inkscape:cx="32"
     inkscape:cy="31.254851"
     inkscape:window-width="1920"
     inkscape:window-height="996"
     inkscape:window-x="0"
     inkscape:window-y="0"
     inkscape:window-maximized="1"
     inkscape:current-layer="svg20" />
  <g
     id="g20"
     transform="translate(-1,-1.499999)">
    <path
       style="opacity:0.2"
       d="m 32,7 c -2.414482,2.3939138 -4.257504,4.533808 -5.568359,6.419922 -2.44383,3.516341 -3.27908,7.403896 -3.449219,8.5 -0.08014,0.516317 -0.01661,1.719616 0.394531,3.404297 C 19.47539,22.13062 14.547284,22.237949 9.1152344,23.25 7.3942618,23.570762 5.6889339,24.107631 4,24 c 0.8685058,3.282995 1.7927547,5.533249 2.7734375,7.609375 1.8281099,3.870605 4.7842355,6.536851 5.6503905,7.232422 0.586187,0.470932 2.53879,1.400207 5.673828,1.947265 -0.350065,0.113121 -0.687143,0.234044 -1.001953,0.369141 -4.800809,2.060287 -6.898163,6.619936 -8.3710936,12.0625 C 8.2684094,54.906452 7.8292993,56.528593 7,58 c 3.342905,0.642204 5.960758,0.928678 8.261719,0.947266 4.289684,0.03445 7.980311,-1.466445 8.984375,-1.94336 1.004063,-0.476914 4.202345,-3.189464 6.896484,-8.8125 0.362481,-0.756571 0.63142,-1.548729 0.853516,-2.384765 1.324137,3.864096 2.719597,6.688318 4.21875,8.425781 3.409062,3.950878 8.399492,4.580567 14.046875,4.351562 C 52.011019,58.512954 53.344004,58.65167 55,59 54.612778,55.626544 54.454903,52.841505 53.783203,50.646484 52.531002,46.554275 49.989505,43.49223 49.232422,42.679688 48.745148,42.156811 47.09238,41.048964 44.332031,40.089844 c 1.641638,-0.03072 3.031391,-0.208001 4.15625,-0.595703 4.939587,-1.702434 7.369968,-6.096325 9.240235,-11.416016 C 58.307757,26.430417 59.064497,25.40662 60,24 c -3.28654,-0.885711 -6.075841,-1.926068 -8.369141,-2.113281 -4.275564,-0.349121 -8.067079,0.877293 -9.103515,1.279297 -0.437132,0.16954 -1.2953,0.712921 -2.371094,1.683593 0.943709,-5.073672 -1.641907,-9.342774 -5.298828,-13.59375 C 33.717514,9.9305733 32.752264,8.5119594 32,7 Z m -0.707031,31.347656 c 0.145298,0.135836 0.294842,0.272288 0.445312,0.410156 -0.08611,0.01018 -0.171039,0.0184 -0.257812,0.0293 -0.06273,-0.146818 -0.124946,-0.29458 -0.1875,-0.439453 z"
       id="path1" />
    <path
       style="fill:#ffbf61;stroke-width:0.155971;fill-opacity:1"
       d="m 38.735284,37.75885 c 6.186067,0.878821 9.739161,3.108713 10.496234,3.921102 0.757084,0.812543 3.29875,3.875175 4.550952,7.967388 0.671701,2.195023 0.830308,4.979199 1.21753,8.352658 -1.655998,-0.34833 -2.988039,-0.487052 -4.737341,-0.416022 C 44.615271,57.812981 39.624862,57.182407 36.215796,53.231525 33.943138,50.597599 31.907253,45.482753 30,37.999999 c 3.349433,-0.555024 6.225138,-0.59784 8.735284,-0.241149 z"
       id="path2" />
    <path
       style="opacity:0.2;fill:#ffffff"
       d="M 35.751953,37.53125 C 34.002251,37.505492 32.093394,37.65311 30,38 c 0.08348,0.327527 0.167969,0.644446 0.251953,0.962891 3.240506,-0.515472 6.036309,-0.55267 8.482422,-0.205079 6.186061,0.878821 9.740975,3.109487 10.498047,3.921876 0.757083,0.812542 3.29858,3.874587 4.550781,7.966796 0.600953,1.963828 0.796709,4.4269 1.107422,7.333985 C 54.928184,57.988219 54.962111,57.99203 55,58 54.612778,54.626544 54.454903,51.841505 53.783203,49.646484 52.531002,45.554275 49.989505,42.49223 49.232422,41.679688 48.47535,40.867299 44.920436,38.638586 38.734375,37.759766 37.793071,37.626007 36.801775,37.546705 35.751953,37.53125 Z"
       id="path3" />
    <path
       style="fill:#ffbf61;stroke-width:0.155971;fill-opacity:1"
       d="m 34.999608,30.449876 c 3.101462,-5.410157 6.490313,-7.881246 7.526903,-8.283285 1.036437,-0.402004 4.828135,-1.628234 9.103704,-1.279113 2.293302,0.187213 5.083242,1.226807 8.369785,2.112519 -0.935504,1.406621 -1.693029,2.430766 -2.272271,4.078476 -1.870268,5.319696 -4.298985,9.713246 -9.238577,11.415681 C 45.196102,39.629162 39.67683,38.992735 32,37.999998 c 0.718573,-3.30982 1.741179,-5.354784 2.999608,-7.550122 z"
       id="path4" />
    <path
       style="opacity:0.2;fill:#ffffff"
       d="m 50.054688,20.826172 c -3.604219,0.0063 -6.620463,0.98809 -7.527344,1.339844 C 41.490755,22.568054 38.101459,25.039067 35,30.449219 33.741572,32.644555 32.718572,34.690183 32,38 c 0.08029,0.01038 0.152602,0.01899 0.232422,0.0293 0.700209,-2.751085 1.638165,-4.609809 2.767578,-6.580078 3.101459,-5.410152 6.490755,-7.881165 7.527344,-8.283203 1.036436,-0.402004 4.827951,-1.626465 9.103515,-1.277344 2.159435,0.176285 4.764583,1.105427 7.804688,1.953125 C 59.617075,23.569626 59.802624,23.296774 60,23 c -3.28654,-0.885711 -6.075841,-1.926068 -8.369141,-2.113281 -0.534445,-0.04364 -1.061283,-0.06145 -1.576171,-0.06055 z"
       id="path5" />
    <path
       style="fill:#ffbf61;stroke-width:0.155971;fill-opacity:1"
       d="m 26.403094,31.565881 c -3.142408,-5.38665 -3.590247,-9.549726 -3.420108,-10.645831 0.170139,-1.096105 1.00453,-4.983694 3.448362,-8.500039 1.310857,-1.886116 3.154167,-4.0260968 5.568651,-6.420013 0.752265,1.5119609 1.717637,2.9305676 2.857546,4.255855 3.680509,4.278395 6.277344,8.575199 5.28161,13.692074 -0.663839,3.411414 -3.433499,7.921483 -8.139156,14.05207 -2.51284,-2.277582 -4.321867,-4.248333 -5.596905,-6.434116 z"
       id="path6" />
    <path
       style="opacity:0.2;fill:#ffffff"
       d="m 32,6 c -2.414482,2.3939138 -4.257504,4.533808 -5.568359,6.419922 -2.44383,3.516341 -3.27908,7.403896 -3.449219,8.5 -0.03491,0.22491 -0.04093,0.585492 -0.0059,1.052734 0.0021,-0.01621 0.0035,-0.03768 0.0059,-0.05273 0.170139,-1.096104 1.005389,-4.983659 3.449219,-8.5 C 27.742496,11.533808 29.585518,9.3939138 32,7 c 0.752264,1.5119594 1.717514,2.9305733 2.857422,4.255859 3.018548,3.508901 5.30577,7.029949 5.482422,11.00586 0.198684,-4.390745 -2.213452,-8.205856 -5.482422,-12.00586 C 33.717514,8.9305733 32.752264,7.5119594 32,6 Z"
       id="path7" />
    <path
       style="fill:#ffbf61;stroke-width:0.155971;fill-opacity:1"
       d="M 23.376117,40.220023 C 17.127588,40.235805 13.290299,38.537723 12.424262,37.841964 11.558106,37.146392 8.6018974,34.47935 6.7737857,30.608741 5.7931019,28.532613 4.8685072,26.282997 4.0000005,22.999999 5.6889361,23.10763 7.3939083,22.571195 9.1148826,22.250433 14.670918,21.215282 19.700322,21.124846 23.642704,24.546814 26.270795,26.82811 29.035596,31.867778 32,38.999999 c -3.234908,1.028882 -6.088583,1.213566 -8.623883,1.220024 z"
       id="path8" />
    <path
       style="opacity:0.2;fill:#ffffff"
       d="M 15.113281,21.619141 C 13.207437,21.606216 11.198746,21.861819 9.1152344,22.25 7.3942618,22.570762 5.6889339,23.107631 4,23 4.092271,23.34879 4.1857594,23.679366 4.2792969,24.005859 5.8770021,24.043079 7.4889197,23.553119 9.1152344,23.25 14.671264,22.21485 19.7002,22.12491 23.642578,25.546875 c 2.514726,2.18289 5.156396,6.91381 7.976563,13.564453 C 31.746826,39.072972 31.871108,39.040995 32,39 29.035599,31.867786 26.270666,26.828169 23.642578,24.546875 21.178592,22.408147 18.289689,21.640682 15.113281,21.619141 Z"
       id="path9" />
    <path
       style="fill:#ffbf61;stroke-width:0.155971;fill-opacity:1"
       d="m 31.142293,47.191522 c -2.694142,5.623041 -5.891659,8.336043 -6.895723,8.812958 -1.004065,0.476915 -4.695142,1.977952 -8.984831,1.943504 C 12.960776,57.929396 10.34291,57.642205 7.0000017,57 7.8293018,55.528592 8.268086,53.906611 8.7242864,52.22086 10.197218,46.77829 12.29539,42.218654 17.096204,40.158365 c 3.200459,-1.373446 8.174596,-1.585528 15.903797,-1.158366 -0.472537,3.353433 -0.764546,5.90987 -1.857708,8.191523 z"
       id="path10" />
    <path
       style="opacity:0.2;fill:#ffffff"
       d="m 26.53125,38.802734 c -4.195894,0.01606 -7.235234,0.411226 -9.435547,1.355469 -4.800809,2.060287 -6.898163,6.619936 -8.3710936,12.0625 C 8.2684094,53.906452 7.8292993,55.528593 7,57 7.1564413,57.03005 7.3037239,57.05548 7.4570312,57.08398 8.0048741,55.865561 8.3610733,54.564041 8.7246094,53.220703 10.19754,47.778139 12.294894,43.21849 17.095703,41.158203 20.275865,39.793468 25.213872,39.577764 32.859375,39.994141 32.906032,39.659817 32.950511,39.351208 33,39 30.584627,38.866512 28.438474,38.795436 26.53125,38.802734 Z"
       id="path11" />
    <path
       style="fill:none;stroke:#ffe57f;stroke-width:2.00001;stroke-linecap:round;stroke-miterlimit:1"
       d="M 50,54 C 42.01932,48.55424 39.546731,45.056404 32,38.000001"
       id="path12" />
    <path
       style="fill:none;stroke:#ffe57f;stroke-width:2.00001;stroke-linecap:round;stroke-miterlimit:1"
       d="m 32,37.999999 c 7.086815,-4.816399 12.172729,-8.025567 21,-12"
       id="path13" />
    <path
       style="fill:none;stroke:#ffe57f;stroke-width:2.00001;stroke-linecap:round;stroke-miterlimit:1"
       d="M 32,38 C 31.020257,29.662211 30.061181,21.531425 31,13"
       id="path14" />
    <path
       style="fill:none;stroke:#ffe57f;stroke-width:2.00001;stroke-linecap:round;stroke-miterlimit:1"
       d="m 10,26 c 7.226056,4.694253 13.840467,8.854447 22.000001,12.000001"
       id="path15" />
    <path
       style="fill:none;stroke:#ffe57f;stroke-width:2.00001;stroke-linecap:round;stroke-miterlimit:1"
       d="M 13,53.000001 C 21.182749,48.317333 25.369627,44.449571 31.999999,38"
       id="path16" />
    <path
       style="opacity:0.1"
       d="m 39.998695,38.104978 c 0.06219,1.512432 -2.119635,1.616741 -2.134407,3.463845 -0.01273,1.605435 -0.318403,3.01793 -1.556717,3.829628 -1.238461,0.811749 -2.828408,-0.04366 -4.228095,0.01767 -1.39973,0.06118 -2.439115,1.031488 -3.739571,0.330909 -1.300601,-0.700536 -1.318735,-1.821383 -2.070105,-3.04153 -0.751325,-1.219995 -2.205733,-2.109905 -2.267876,-3.622184 -0.06214,-1.512283 1.396835,-2.235221 2.04534,-3.516594 0.648409,-1.281179 0.469003,-3.246063 1.707318,-4.057763 1.23846,-0.811745 2.591325,0.17188 3.991201,0.110652 1.399687,-0.06133 2.924108,-1.074331 4.224565,-0.373751 1.300646,0.700684 1.074727,2.495014 1.826053,3.715009 0.751323,1.219995 2.140153,1.631826 2.202294,3.144106 z"
       id="path17" />
    <path
       style="fill:#ffe57f"
       d="m 39.998695,37.104978 c 0.06219,1.512432 -2.119635,1.616741 -2.134407,3.463845 -0.01273,1.605435 -0.318403,3.01793 -1.556717,3.829628 -1.238461,0.811749 -2.828408,-0.04366 -4.228095,0.01767 -1.39973,0.06118 -2.439115,1.031488 -3.739571,0.330909 -1.300601,-0.700536 -1.318735,-1.821383 -2.070105,-3.04153 -0.751325,-1.219995 -2.205733,-2.109905 -2.267876,-3.622184 -0.06214,-1.512283 1.396835,-2.235221 2.04534,-3.516594 0.648409,-1.281179 0.469003,-3.246063 1.707318,-4.057763 1.23846,-0.811745 2.591325,0.17188 3.991201,0.110652 1.399687,-0.06133 2.924108,-1.074331 4.224565,-0.373751 1.300646,0.700684 1.074727,2.495014 1.826053,3.715009 0.751323,1.219995 2.140153,1.631826 2.202294,3.144106 z"
       id="path18" />
    <path
       style="opacity:0.1"
       d="m 37.511847,41.724504 c -0.626244,1.226438 -2.781337,0.0034 -3.481173,1.027443 -0.715282,1.04652 -0.811145,2.318477 -2.116285,2.245012 -1.189601,-0.06705 -0.827276,-2.194213 -1.81444,-2.762197 -0.987359,-0.568085 -3.181866,0.855921 -3.736259,-0.443527 -0.576738,-1.352063 1.763607,-1.391129 1.731258,-2.867568 -0.03244,-1.476742 -2.598464,-2.305795 -2.00625,-3.344491 0.592113,-1.038497 2.742771,0.07845 3.726207,-0.49638 0.983391,-0.574983 1.121888,-3.078705 2.313376,-3.082791 1.19149,-0.0041 0.915212,2.547535 1.902422,3.115668 0.987313,0.567938 3.294227,-0.693246 3.893605,0.341167 0.599272,1.034609 -2.556783,1.883872 -2.552812,3.026939 0.0039,1.142917 2.68416,2.17576 2.140351,3.240725 z"
       id="path19" />
    <path
       style="fill:#fff9e5;fill-opacity:1"
       d="m 37.511847,40.724504 c -0.626244,1.226438 -2.781337,0.0034 -3.481173,1.027443 -0.715282,1.04652 -0.811145,2.318477 -2.116285,2.245012 -1.189601,-0.06705 -0.827276,-2.194213 -1.81444,-2.762197 -0.987359,-0.568085 -3.181866,0.855921 -3.736259,-0.443527 -0.576738,-1.352063 1.763607,-1.391129 1.731258,-2.867568 -0.03244,-1.476742 -2.598464,-2.305795 -2.00625,-3.344491 0.592113,-1.038497 2.742771,0.07845 3.726207,-0.49638 0.983391,-0.574983 1.121888,-3.078705 2.313376,-3.082791 1.19149,-0.0041 0.915212,2.547535 1.902422,3.115668 0.987313,0.567938 3.294227,-0.693246 3.893605,0.341167 0.599272,1.034609 -2.556783,1.883872 -2.552812,3.026939 0.0039,1.142917 2.68416,2.17576 2.140351,3.240725 z"
       id="path20" />
  </g>
</svg>
