<?xml version="1.0" encoding="UTF-8" standalone="no"?>
<svg
   width="62"
   height="62"
   version="1.1"
   id="svg7"
   sodipodi:docname="distributor-logo-android.svg"
   inkscape:version="1.4 (unknown)"
   xmlns:inkscape="http://www.inkscape.org/namespaces/inkscape"
   xmlns:sodipodi="http://sodipodi.sourceforge.net/DTD/sodipodi-0.dtd"
   xmlns="http://www.w3.org/2000/svg"
   xmlns:svg="http://www.w3.org/2000/svg">
  <defs
     id="defs7" />
  <sodipodi:namedview
     id="namedview7"
     pagecolor="#ffffff"
     bordercolor="#000000"
     borderopacity="0.25"
     inkscape:showpageshadow="2"
     inkscape:pageopacity="0.0"
     inkscape:pagecheckerboard="0"
     inkscape:deskcolor="#d1d1d1"
     inkscape:zoom="12.078125"
     inkscape:cx="32"
     inkscape:cy="32"
     inkscape:window-width="1920"
     inkscape:window-height="996"
     inkscape:window-x="0"
     inkscape:window-y="0"
     inkscape:window-maximized="1"
     inkscape:current-layer="svg7" />
  <g
     id="g7"
     transform="matrix(1,0,0,1.0051071,7.400934e-7,-1.0412568)">
    <path
       style="opacity:0.2;stroke-width:0.965525"
       d="M 56.212197,48.792071 H 5.7186981 c 0,0 -2.8430736,0 -2.7144623,-2.787828 C 4.3665567,31.314991 16.383413,19.826607 31.006186,19.826607 c 14.576536,0 26.563619,11.415858 27.988705,26.038411 0.141858,2.927053 -2.782694,2.927053 -2.782694,2.927053 z"
       id="path1" />
    <path
       style="fill:none;stroke:#2b884a;stroke-width:5.79314;stroke-linecap:round;stroke-opacity:1"
       d="M 15.599974,26.826606 9.7586089,17.895593"
       id="path2" />
    <path
       style="fill:none;stroke:#2b884a;stroke-width:5.59999;stroke-linecap:round;stroke-opacity:1"
       d="m 46.399915,26.826606 5.841368,-8.931013"
       id="path3" />
    <path
       style="opacity:0.1;fill:#ffffff;stroke-width:0.965525"
       d="m 9.7511137,14.964844 a 2.8968361,2.8968361 0 0 0 -2.8663945,3.373677 2.8968361,2.8968361 0 0 1 2.8663945,-2.408152 2.8968361,2.8968361 0 0 1 2.4326633,1.346447 l 5.842165,8.931081 a 2.8968361,2.8968361 0 0 1 0.446932,1.127702 2.8968361,2.8968361 0 0 0 -0.446932,-2.093222 L 12.183777,16.311301 A 2.8968361,2.8968361 0 0 0 9.7511137,14.964844 Z m 42.4113303,0.0981 a 2.8002743,2.8002743 0 0 0 -2.262944,1.30118 l -5.842169,8.931087 a 2.8002743,2.8002743 0 0 0 -0.435615,2.049853 2.8002743,2.8002743 0 0 1 0.435615,-1.084328 L 49.8995,17.329649 a 2.8002743,2.8002743 0 0 1 2.262944,-1.301185 2.8002743,2.8002743 0 0 1 2.849424,2.317625 2.8002743,2.8002743 0 0 0 -2.849424,-3.28315 z"
       id="path4" />
    <path
       style="fill:#24db7a;stroke-width:0.965525;fill-opacity:1"
       d="M 56.212197,47.826561 H 5.7186981 c 0,0 -2.8430736,0 -2.7144623,-2.787818 C 4.3665567,30.349481 16.383413,18.8611 31.006186,18.8611 c 14.576536,0 26.563619,11.415855 27.988705,26.038408 0.141858,2.927053 -2.782694,2.927053 -2.782694,2.927053 z"
       id="path5" />
    <path
       style="opacity:0.2;stroke-width:0.965525"
       d="m 17.48273,35.274802 a 2.8965463,2.8965463 0 0 0 -2.896547,2.896548 2.8965463,2.8965463 0 0 0 2.896547,2.896539 2.8965463,2.8965463 0 0 0 2.896551,-2.896539 2.8965463,2.8965463 0 0 0 -2.896551,-2.896548 z m 27.03443,0 a 2.8965463,2.8965463 0 0 0 -2.896539,2.896548 2.8965463,2.8965463 0 0 0 2.896539,2.896539 2.8965463,2.8965463 0 0 0 2.89655,-2.896539 2.8965463,2.8965463 0 0 0 -2.89655,-2.896548 z"
       id="path6" />
    <circle
       style="fill:#ffffff;stroke-width:0.965525"
       cx="17.482841"
       cy="37.205822"
       r="2.8965673"
       id="circle6" />
    <circle
       style="fill:#ffffff;stroke-width:0.965525"
       cx="-44.517456"
       cy="37.205822"
       r="2.8965673"
       transform="scale(-1,1)"
       id="circle7" />
    <path
       style="opacity:0.2;fill:#ffffff;stroke-width:0.965525"
       d="m 31.00769,18.860879 c -14.622765,0 -26.6415978,11.489223 -28.0039178,26.178479 -0.010799,0.234008 0.00873,0.439402 0.039596,0.631734 C 4.55624,31.142903 16.496522,19.826405 31.007689,19.826405 c 14.471818,0 26.386006,11.254559 27.951131,25.725893 0.03047,-0.199205 0.0494,-0.410805 0.03766,-0.652482 C 57.571447,30.277254 45.584237,18.860879 31.007688,18.860879 Z"
       id="path7" />
  </g>
</svg>
