<?xml version="1.0" encoding="UTF-8" standalone="no"?>
<svg
   width="62"
   height="62"
   version="1.1"
   id="svg6"
   sodipodi:docname="distributor-logo-rosa.svg"
   inkscape:version="1.4 (unknown)"
   xmlns:inkscape="http://www.inkscape.org/namespaces/inkscape"
   xmlns:sodipodi="http://sodipodi.sourceforge.net/DTD/sodipodi-0.dtd"
   xmlns="http://www.w3.org/2000/svg"
   xmlns:svg="http://www.w3.org/2000/svg">
  <defs
     id="defs6" />
  <sodipodi:namedview
     id="namedview6"
     pagecolor="#ffffff"
     bordercolor="#000000"
     borderopacity="0.25"
     inkscape:showpageshadow="2"
     inkscape:pageopacity="0.0"
     inkscape:pagecheckerboard="0"
     inkscape:deskcolor="#d1d1d1"
     inkscape:zoom="12.078125"
     inkscape:cx="32"
     inkscape:cy="35.063389"
     inkscape:window-width="1920"
     inkscape:window-height="996"
     inkscape:window-x="0"
     inkscape:window-y="0"
     inkscape:window-maximized="1"
     inkscape:current-layer="svg6" />
  <g
     id="g7"
     transform="translate(-0.5,-1)">
    <ellipse
       style="opacity:0.2;stroke-width:0.982303"
       cx="31.499998"
       cy="32.491234"
       id="circle1"
       rx="27.499998"
       ry="27.508766" />
    <ellipse
       style="fill:#2f4884;stroke-width:0.982303;fill-opacity:1"
       cx="31.499998"
       cy="31.508766"
       id="circle2"
       rx="27.499998"
       ry="27.508766" />
    <path
       style="opacity:0.1;fill:#ffffff;stroke-width:0.982303"
       d="M 31.5,4 A 27.5,27.508768 0 0 0 4,31.508768 27.5,27.508768 0 0 0 4.0211163,32.084488 27.5,27.508768 0 0 1 31.5,4.982456 27.5,27.508768 0 0 1 58.979375,31.915506 27.5,27.508768 0 0 0 59,31.508768 27.5,27.508768 0 0 0 31.5,4 Z"
       id="path2" />
    <g
       style="opacity:0.2;fill:none;stroke:#000000;stroke-width:3;stroke-linejoin:round"
       id="g4"
       transform="matrix(0.98214286,0,0,0.982456,0.07142853,0.07017596)">
      <path
         d="m 48.5,33 c 0,9.113 -7.387,16.5 -16.5,16.5 -9.113,0 -16.5,-7.387 -16.5,-16.5 0,-9.113 7.387,-16.5 16.5,-16.5 4.556,0 16.5,0 16.5,0 0,0 0,11.944 0,16.5 z"
         id="path3" />
      <path
         d="m 48.5,16.5 c 0,0 -1.5,9.5 -9.5,16 C 31,39 20,45 20,45 v 0 0"
         id="path4" />
    </g>
    <g
       style="fill:none;stroke:#ffffff;stroke-width:3;stroke-linejoin:round"
       id="g6"
       transform="matrix(0.98214286,0,0,0.982456,0.07142853,0.07017596)">
      <path
         d="m 48.5,15.5 c 0,0 -1.5,9.5 -9.5,16 C 31,38 20,44 20,44 v 0 0"
         id="path5" />
      <path
         d="m 48.5,32 c 0,9.113 -7.387,16.5 -16.5,16.5 -9.113,0 -16.5,-7.387 -16.5,-16.5 0,-9.113 7.387,-16.5 16.5,-16.5 4.556,0 16.5,0 16.5,0 0,0 0,11.944 0,16.5 z"
         id="path6" />
    </g>
  </g>
</svg>
