<?xml version="1.0" encoding="UTF-8" standalone="no"?>
<svg
   width="62"
   height="62"
   version="1.1"
   id="svg11"
   sodipodi:docname="distributor-logo-absolute.svg"
   inkscape:version="1.4 (unknown)"
   xmlns:inkscape="http://www.inkscape.org/namespaces/inkscape"
   xmlns:sodipodi="http://sodipodi.sourceforge.net/DTD/sodipodi-0.dtd"
   xmlns="http://www.w3.org/2000/svg"
   xmlns:svg="http://www.w3.org/2000/svg">
  <defs
     id="defs11" />
  <sodipodi:namedview
     id="namedview11"
     pagecolor="#ffffff"
     bordercolor="#000000"
     borderopacity="0.25"
     inkscape:showpageshadow="2"
     inkscape:pageopacity="0.0"
     inkscape:pagecheckerboard="0"
     inkscape:deskcolor="#d1d1d1"
     inkscape:zoom="12.078125"
     inkscape:cx="32"
     inkscape:cy="32"
     inkscape:window-width="1920"
     inkscape:window-height="996"
     inkscape:window-x="0"
     inkscape:window-y="0"
     inkscape:window-maximized="1"
     inkscape:current-layer="svg11" />
  <g
     id="g11"
     transform="translate(-2.1558866,-2.2419146)">
    <rect
       style="opacity:0.2;stroke-width:0.982303"
       width="51.07143"
       height="51.087719"
       x="7.9285707"
       y="8.912281"
       rx="2.5535712"
       ry="2.5543857"
       id="rect1" />
    <rect
       style="fill:#917c6f;stroke-width:0.982303"
       width="51.07143"
       height="51.087719"
       x="7.9285707"
       y="7.9298239"
       rx="2.5535712"
       ry="2.5543857"
       id="rect2" />
    <rect
       style="opacity:0.2;stroke-width:0.982303"
       width="13.75"
       height="33.4035"
       x="41.321434"
       y="4.9824572"
       rx="1.9642855"
       ry="1.9649121"
       id="rect3" />
    <path
       style="opacity:0.1;fill:#ffffff;stroke-width:0.982303"
       d="m 10.482142,7.9298246 c -1.4150706,0 -2.5535705,1.138863 -2.5535705,2.5543854 v 0.982459 c 0,-1.415719 1.1384999,-2.5543884 2.5535705,-2.5543884 h 45.964287 c 1.415268,0 2.553568,1.1386694 2.553568,2.5543884 V 10.48421 c 0,-1.4155224 -1.1383,-2.5543854 -2.553568,-2.5543854 z"
       id="path3" />
    <rect
       style="fill:#6c5d53;stroke-width:0.982303"
       width="13.75"
       height="33.4035"
       x="41.321434"
       y="4"
       rx="1.9642855"
       ry="1.9649121"
       id="rect4" />
    <rect
       style="opacity:0.2;stroke-width:0.982303"
       width="33.392849"
       height="13.754386"
       x="4"
       y="42.315796"
       rx="1.9642855"
       ry="1.9649121"
       id="rect5" />
    <rect
       style="fill:#ac9d93;stroke-width:0.982303"
       width="33.392849"
       height="13.754386"
       x="4"
       y="41.33334"
       rx="1.9642855"
       ry="1.9649121"
       id="rect6" />
    <rect
       style="opacity:0.2;stroke-width:0.982303"
       width="13.75"
       height="13.754386"
       x="41.321434"
       y="42.315796"
       rx="1.9642855"
       ry="1.9649121"
       id="rect7" />
    <rect
       style="fill:#f2f2f2;stroke-width:0.982303;fill-opacity:1"
       width="13.75"
       height="13.754386"
       x="41.321434"
       y="41.33334"
       rx="1.9642855"
       ry="1.9649121"
       id="rect8" />
    <path
       style="opacity:0.2;stroke-width:0.982303"
       d="m 13.821427,13.82456 c -1.088213,0 -1.964283,0.876351 -1.964283,1.964911 v 1.964916 h 17.67857 V 23.768 h -17.67857 v 12.65305 c 0,1.088561 0.87607,1.964912 1.964283,1.964912 h 21.607146 c 1.088213,0 1.964284,-0.876351 1.964284,-1.964912 V 15.789471 c 0,-1.08856 -0.876071,-1.964911 -1.964284,-1.964911 z m 1.964285,13.754388 h 13.750002 v 6.99607 H 15.785712 Z"
       id="path8" />
    <path
       style="fill:#f2f2f2;stroke-width:0.982303;fill-opacity:1"
       d="m 13.821427,12.842106 c -1.088213,0 -1.964283,0.876351 -1.964283,1.964913 v 1.964911 h 17.67857 v 6.013611 h -17.67857 v 12.653056 c 0,1.088561 0.87607,1.964911 1.964283,1.964911 h 21.607146 c 1.088213,0 1.964284,-0.87635 1.964284,-1.964911 V 14.807019 c 0,-1.088562 -0.876071,-1.964913 -1.964284,-1.964913 z m 1.964285,13.754385 H 29.535714 V 33.59256 H 15.785712 Z"
       id="path9" />
    <path
       style="opacity:0.2;fill:#ffffff;stroke-width:0.982303"
       d="m 43.285715,4 c -1.088218,0 -1.964288,0.876351 -1.964288,1.9649121 v 0.982456 c 0,-1.088561 0.87607,-1.9649121 1.964288,-1.9649121 h 9.821428 c 1.088215,0 1.964286,0.8763511 1.964286,1.9649121 V 5.9649121 C 55.071429,4.876351 54.195358,4 53.107143,4 Z"
       id="path10" />
    <path
       style="opacity:0.2;fill:#ffffff;stroke-width:0.982303"
       d="M 5.9642856,41.333331 C 4.8760716,41.333331 4,42.209681 4,43.298246 V 44.2807 C 4,43.192139 4.8760716,42.315788 5.9642856,42.315788 H 35.428573 c 1.088213,0 1.964284,0.876351 1.964284,1.964912 v -0.982454 c 0,-1.088565 -0.876071,-1.964915 -1.964284,-1.964915 z"
       id="path11" />
  </g>
</svg>
