<?xml version="1.0" encoding="UTF-8" standalone="no"?>
<svg
   width="62"
   height="62"
   version="1.1"
   id="svg8"
   sodipodi:docname="distributor-logo-ultimate-edition.svg"
   inkscape:version="1.4 (unknown)"
   xmlns:inkscape="http://www.inkscape.org/namespaces/inkscape"
   xmlns:sodipodi="http://sodipodi.sourceforge.net/DTD/sodipodi-0.dtd"
   xmlns="http://www.w3.org/2000/svg"
   xmlns:svg="http://www.w3.org/2000/svg">
  <defs
     id="defs8" />
  <sodipodi:namedview
     id="namedview8"
     pagecolor="#ffffff"
     bordercolor="#000000"
     borderopacity="0.25"
     inkscape:showpageshadow="2"
     inkscape:pageopacity="0.0"
     inkscape:pagecheckerboard="0"
     inkscape:deskcolor="#d1d1d1"
     inkscape:zoom="12.078125"
     inkscape:cx="32"
     inkscape:cy="32"
     inkscape:window-width="1920"
     inkscape:window-height="996"
     inkscape:window-x="0"
     inkscape:window-y="0"
     inkscape:window-maximized="1"
     inkscape:current-layer="svg8" />
  <g
     id="g8"
     transform="translate(-0.5,-1)">
    <ellipse
       cx="31.5"
       cy="32.49123"
       style="opacity:0.2;stroke-width:0.982303"
       id="circle1"
       rx="27.5"
       ry="27.50877" />
    <ellipse
       cx="31.5"
       cy="31.50877"
       style="fill:#6a87ae;stroke-width:0.982303;fill-opacity:1"
       id="circle2"
       rx="27.5"
       ry="27.50877" />
    <path
       d="m 31.499996,10.929003 a 21.607142,21.614033 0 0 0 -17.271898,8.673243 l 4.262345,8.529329 A 13.75,13.754385 0 0 1 31.499996,18.788649 H 48.14463 A 21.607142,21.614033 0 0 0 31.499996,10.929003 Z m 8.284912,10.659258 A 13.75,13.754385 0 0 1 45.249996,32.54303 13.75,13.754385 0 0 1 37.62496,44.850596 l -4.624892,9.254655 A 21.607142,21.614033 0 0 0 53.107138,32.54303 21.607142,21.614033 0 0 0 50.095486,21.588261 Z M 12.555387,22.152409 A 21.607142,21.614033 0 0 0 9.8928564,32.54303 21.607142,21.614033 0 0 0 30.063229,54.086066 l 4.018728,-8.043858 A 13.75,13.754385 0 0 1 31.499996,46.297415 13.75,13.754385 0 0 1 17.75,32.54303 Z"
       style="opacity:0.2;stroke-width:0.982303"
       id="path2" />
    <path
       d="M 31.499996,9.9465438 A 21.607142,21.614033 0 0 0 14.228098,18.619787 l 4.262345,8.52933 A 13.75,13.754385 0 0 1 31.499996,17.806192 H 48.14463 A 21.607142,21.614033 0 0 0 31.499996,9.9465438 Z m 8.284912,10.6592652 a 13.75,13.754385 0 0 1 5.465088,10.954767 13.75,13.754385 0 0 1 -7.625036,12.307563 l -4.624892,9.25466 A 21.607142,21.614033 0 0 0 53.107138,31.560576 21.607142,21.614033 0 0 0 50.095486,20.605809 Z M 12.555387,21.16995 A 21.607142,21.614033 0 0 0 9.8928564,31.560576 21.607142,21.614033 0 0 0 30.063229,53.103608 l 4.018728,-8.043859 A 13.75,13.754385 0 0 1 31.499996,45.314957 13.75,13.754385 0 0 1 17.75,31.560576 Z"
       style="fill:#f2f2f2;stroke-width:0.982303;fill-opacity:1"
       id="path3" />
    <path
       d="M 27.571427,25.66584 V 37.455309 H 24.624999 V 25.66584 h -2.94643 v 11.789469 c 0,2.947368 2.94643,2.947368 2.94643,2.947368 h 2.946428 c 0,0 2.946428,0 2.946428,-2.947368 V 25.66584 Z"
       style="opacity:0.2;stroke-width:0.982303"
       id="path4" />
    <path
       d="M 27.571427,24.683381 V 36.472856 H 24.624999 V 24.683381 h -2.94643 v 11.789475 c 0,2.947369 2.94643,2.947369 2.94643,2.947369 h 2.946428 c 0,0 2.946428,0 2.946428,-2.947369 V 24.683381 Z"
       style="fill:#ffffff;stroke-width:0.982303"
       id="path5" />
    <path
       d="m 35.428569,28.613209 h 5.892853 V 25.66584 H 32.48214 v 14.736837 h 8.839282 v -2.947368 h -5.892853 v -2.947363 h 5.892853 v -2.94737 h -5.892853 z"
       style="opacity:0.2;stroke-width:0.982303"
       id="path6" />
    <path
       d="m 35.428569,27.63075 h 5.892853 V 24.683381 H 32.48214 v 14.736844 h 8.839282 v -2.947369 h -5.892853 v -2.947368 h 5.892853 V 30.57812 h -5.892853 z"
       style="fill:#ffffff;stroke-width:0.982303"
       id="path7" />
    <path
       d="M 31.499996,4 A 27.499996,27.508766 0 0 0 4,31.508766 27.499996,27.508766 0 0 0 4.0211163,32.084486 27.499996,27.508766 0 0 1 31.499996,4.9824559 27.499996,27.508766 0 0 1 58.979367,31.915504 27.499996,27.508766 0 0 0 58.99999,31.508766 27.499996,27.508766 0 0 0 31.499996,4 Z"
       style="opacity:0.2;fill:#ffffff;stroke-width:0.982303"
       id="path8" />
  </g>
</svg>
