<?xml version="1.0" encoding="UTF-8" standalone="no"?>
<svg
   height="62"
   width="62"
   version="1.1"
   id="svg11"
   sodipodi:docname="distributor-logo-archman.svg"
   inkscape:version="1.4 (unknown)"
   xmlns:inkscape="http://www.inkscape.org/namespaces/inkscape"
   xmlns:sodipodi="http://sodipodi.sourceforge.net/DTD/sodipodi-0.dtd"
   xmlns="http://www.w3.org/2000/svg"
   xmlns:svg="http://www.w3.org/2000/svg">
  <defs
     id="defs11" />
  <sodipodi:namedview
     id="namedview11"
     pagecolor="#ffffff"
     bordercolor="#000000"
     borderopacity="0.25"
     inkscape:showpageshadow="2"
     inkscape:pageopacity="0.0"
     inkscape:pagecheckerboard="0"
     inkscape:deskcolor="#d1d1d1"
     inkscape:zoom="12.078125"
     inkscape:cx="32"
     inkscape:cy="30.923674"
     inkscape:window-width="1920"
     inkscape:window-height="996"
     inkscape:window-x="0"
     inkscape:window-y="0"
     inkscape:window-maximized="1"
     inkscape:current-layer="svg11" />
  <g
     id="g11"
     transform="translate(-0.503906,-1)">
    <path
       style="opacity:0.2;fill-rule:evenodd;stroke-width:0.98233"
       d="m 31.500071,4.9825235 c -2.448092,6.0030755 -3.926694,9.9304845 -6.652484,15.7549195 1.671375,1.772072 3.324429,3.526084 6.656319,5.856757 C 27.921855,25.119924 25.877469,23.948617 24.051514,22.412718 20.562703,29.694152 15.096354,40.066024 4.003906,60 12.705428,54.975719 18.768978,51.874634 25.054759,50.68522 a 8.839285,10.807754 0 0 1 -2.393978,-7.384279 8.839285,10.807754 0 0 1 8.83929,-10.807763 8.839285,10.807754 0 0 1 8.839282,10.807763 8.839285,10.807754 0 0 1 -2.267365,7.207731 c -0.01406,0.06861 -0.01956,0.143246 -0.03455,0.211087 6.230017,1.21898 12.366141,4.314357 20.966452,9.280241 -1.695861,-3.122559 -3.210175,-5.937312 -4.655593,-8.618187 -2.276907,-1.765061 -4.250125,-3.63273 -9.094408,-6.119662 3.329689,0.865331 5.312129,1.434379 7.170406,2.550333 C 37.729936,20.448665 36.538861,16.808413 31.500071,4.9825235 Z"
       id="path1" />
    <path
       style="fill:#a02c5a;fill-rule:evenodd;stroke-width:0.98233"
       d="m 31.500071,4 c -2.448092,6.003071 -3.926694,9.930488 -6.652484,15.754916 1.671375,1.77208 3.324429,3.526091 6.656319,5.856764 -3.582051,-1.474282 -5.626437,-2.645582 -7.452392,-4.181481 -3.488811,7.281426 -8.95516,17.653305 -20.047608,37.587281 8.701522,-5.024288 14.765072,-8.125373 21.050853,-9.314787 a 8.839285,10.807754 0 0 1 -2.393978,-7.38428 8.839285,10.807754 0 0 1 8.83929,-10.807754 8.839285,10.807754 0 0 1 8.839282,10.807754 8.839285,10.807754 0 0 1 -2.267365,7.207731 c -0.01406,0.06861 -0.01956,0.143255 -0.03455,0.211088 6.230017,1.218988 12.366141,4.314356 20.966452,9.280248 -1.695861,-3.12256 -3.210175,-5.937311 -4.655593,-8.618195 -2.276907,-1.765061 -4.250125,-3.63273 -9.094408,-6.119662 3.329689,0.86534 5.312129,1.434387 7.170406,2.550341 C 37.729936,19.466146 36.538861,15.825885 31.500071,4 Z"
       id="path2" />
    <path
       style="opacity:0.2;stroke-width:0.98233"
       d="m 31.500071,32.493178 a 8.839285,10.807754 0 0 0 -8.83929,10.807763 8.839285,10.807754 0 0 0 2.472623,7.478309 c 0.568343,-0.10121 1.13542,-0.203389 1.714917,-0.280175 a 5.8928571,9.333973 0 0 1 -1.241108,-5.724351 5.8928571,9.333973 0 0 1 5.892858,-9.333971 5.8928571,9.333973 0 0 1 5.892857,9.333971 5.8928571,9.333973 0 0 1 -1.246864,5.722429 c 0.585414,0.07746 1.158144,0.181622 1.732181,0.284012 a 8.839285,10.807754 0 0 0 2.461108,-7.480224 8.839285,10.807754 0 0 0 -8.839282,-10.807763 z"
       id="path3" />
    <path
       style="fill:#c2c2c2;stroke-width:0.98233"
       d="m 31.500071,31.510659 a 8.839285,10.807754 0 0 0 -8.83929,10.807754 8.839285,10.807754 0 0 0 2.472623,7.478309 c 0.568343,-0.101202 1.13542,-0.203389 1.714917,-0.280174 a 5.8928571,9.333973 0 0 1 -1.241108,-5.724348 5.8928571,9.333973 0 0 1 5.892858,-9.333975 5.8928571,9.333973 0 0 1 5.892857,9.333975 5.8928571,9.333973 0 0 1 -1.246864,5.722433 c 0.585414,0.07746 1.158144,0.181623 1.732181,0.284012 a 8.839285,10.807754 0 0 0 2.461108,-7.480232 8.839285,10.807754 0 0 0 -8.839282,-10.807754 z"
       id="path4" />
    <path
       style="opacity:0.2;fill:#ffffff;stroke-width:0.98233"
       d="m 31.500071,31.510659 a 8.839285,10.807754 0 0 0 -8.83929,10.807754 8.839285,10.807754 0 0 0 0.01727,0.40683 8.839285,10.807754 0 0 1 8.822025,-10.232065 8.839285,10.807754 0 0 1 8.823941,10.412451 8.839285,10.807754 0 0 0 0.01532,-0.587216 8.839285,10.807754 0 0 0 -8.839281,-10.807754 z m 5.87943,12.688367 a 5.8928571,9.333973 0 0 1 -1.233437,5.315607 c 0.13221,0.01751 0.260246,0.04341 0.391323,0.06335 a 5.8928571,9.333973 0 0 0 0.855541,-4.803233 5.8928571,9.333973 0 0 0 -0.01346,-0.575698 z m -11.75886,0.170791 a 5.8928571,9.333973 0 0 0 -0.01347,0.404907 5.8928571,9.333973 0 0 0 0.847862,4.805151 c 0.131696,-0.01992 0.260411,-0.04574 0.393246,-0.06335 a 5.8928571,9.333973 0 0 1 -1.22768,-5.146731 z"
       id="path5" />
    <path
       style="opacity:0.1;fill:#ffffff;fill-rule:evenodd;stroke-width:0.98233"
       d="m 31.500071,4 c -2.448092,6.003071 -3.926694,9.930488 -6.652484,15.754916 0.09877,0.104744 0.202152,0.211895 0.301166,0.316637 2.520255,-5.444189 4.00323,-9.331189 6.351318,-15.0890295 4.94328,11.6017225 6.260224,15.4588955 20.179963,41.4329375 0.251652,0.129841 0.499717,0.267636 0.744276,0.414503 C 37.729939,19.466146 36.538861,15.825885 31.500071,4 Z M 24.051514,21.430199 C 20.562703,28.711625 15.096354,39.083504 4.003906,59.01748 4.277687,58.859396 4.5274961,58.720785 4.7961422,58.566514 15.295333,39.669887 20.657027,29.497297 24.051514,22.412718 c 1.825955,1.535899 3.870341,2.707206 7.452392,4.181482 -1.232666,-0.862255 -2.18714,-1.62776 -3.046175,-2.362272 -1.817503,-0.902929 -3.182297,-1.772231 -4.406217,-2.801729 z M 40.32209,42.725243 a 8.839285,10.807754 0 0 1 -2.250102,6.800901 c -0.01406,0.06861 -0.01956,0.143255 -0.03455,0.211088 0.156627,0.03068 0.313422,0.07633 0.469976,0.109385 a 8.839285,10.807754 0 0 0 1.831927,-6.545676 8.839285,10.807754 0 0 0 -0.01727,-0.575698 z m -17.64596,0.189982 a 8.839285,10.807754 0 0 0 -0.01532,0.385716 8.839285,10.807754 0 0 0 1.80699,6.53608 c 0.195814,-0.04087 0.390824,-0.09724 0.586988,-0.134328 a 8.839285,10.807754 0 0 1 -2.378635,-6.787468 z m 22.577775,2.346926 c 4.844283,2.486932 6.817501,4.354601 9.094408,6.119662 1.207243,2.239115 2.519299,4.670903 3.888288,7.198134 0.260237,0.149369 0.50247,0.284614 0.767305,0.437533 -1.695861,-3.12256 -3.210175,-5.937311 -4.655593,-8.618195 -1.638502,-1.270166 -3.136439,-2.597159 -5.643481,-4.166125 -0.993723,-0.311995 -2.091121,-0.617615 -3.450927,-0.971009 z"
       id="path6" />
    <path
       style="opacity:0.2;stroke-width:0.98233"
       d="m 31.500071,40.353366 -1.684227,3.930095 h -4.208631 l 2.946425,2.947574 -2.946425,5.895141 5.892858,-2.947574 5.892857,2.947574 -2.946433,-5.895141 2.946433,-2.947574 H 33.18429 Z"
       id="path7" />
    <path
       style="fill:#e6e6e6;stroke-width:0.98233"
       d="m 31.500071,39.370846 -1.684227,3.930095 h -4.208631 l 2.946425,2.947566 -2.946425,5.895141 5.892858,-2.947566 5.892857,2.947566 -2.946433,-5.895141 2.946433,-2.947566 H 33.18429 Z"
       id="path8" />
    <path
       style="fill:#9f9f9f;stroke-width:0.98233"
       d="m 31.500071,45.265987 -5.892858,6.877661 5.892858,-2.947566 z"
       id="path9" />
    <path
       style="fill:#f4f4f4;stroke-width:0.98233"
       d="m 31.500071,39.370846 v 5.895141 l 5.892857,-1.965046 H 33.18429 Z"
       id="path10" />
    <path
       style="opacity:0.2;fill:#ffffff;stroke-width:0.98233"
       d="m 31.500071,39.370846 -1.684227,3.930095 h -4.208631 l 0.982139,0.98252 h 3.226492 l 1.684227,-3.930095 1.684219,3.930095 h 3.226492 l 0.982146,-0.98252 H 33.18429 Z m -3.274452,7.532042 -2.618406,5.24076 0.65412,-0.328146 2.292305,-4.584467 z m 6.548897,0 -0.328021,0.328147 2.292306,4.584467 0.654127,0.328146 z"
       id="path11" />
  </g>
</svg>
