<?xml version="1.0" encoding="UTF-8" standalone="no"?>
<svg
   width="62"
   height="62"
   version="1.1"
   id="svg4"
   sodipodi:docname="distributor-logo-smartos.svg"
   inkscape:version="1.4 (unknown)"
   xmlns:inkscape="http://www.inkscape.org/namespaces/inkscape"
   xmlns:sodipodi="http://sodipodi.sourceforge.net/DTD/sodipodi-0.dtd"
   xmlns="http://www.w3.org/2000/svg"
   xmlns:svg="http://www.w3.org/2000/svg">
  <defs
     id="defs4" />
  <sodipodi:namedview
     id="namedview4"
     pagecolor="#ffffff"
     bordercolor="#000000"
     borderopacity="0.25"
     inkscape:showpageshadow="2"
     inkscape:pageopacity="0.0"
     inkscape:pagecheckerboard="0"
     inkscape:deskcolor="#d1d1d1"
     inkscape:zoom="12.078125"
     inkscape:cx="32"
     inkscape:cy="32"
     inkscape:window-width="1920"
     inkscape:window-height="996"
     inkscape:window-x="0"
     inkscape:window-y="0"
     inkscape:window-maximized="1"
     inkscape:current-layer="svg4" />
  <g
     id="g4"
     transform="translate(-0.5,-1.0000002)">
    <rect
       x="4"
       y="4.9824567"
       width="55"
       height="55.017544"
       rx="4.9107132"
       ry="4.9122796"
       style="opacity:0.2;stroke-width:0.982302"
       id="rect1" />
    <rect
       x="4"
       y="4"
       width="55"
       height="55.017544"
       rx="4.9107132"
       ry="4.9122796"
       style="fill:#14b2eb;stroke-width:0.982302;fill-opacity:1"
       id="rect2" />
    <path
       d="m 13.955701,11.859648 c -1.706512,0 -3.080706,1.374623 -3.080706,3.081688 v 16.433108 c 0,1.707065 1.374194,3.081688 3.080706,3.081688 H 49.178558 V 50.175428 H 32.482138 V 37.403501 h -2.946429 v 12.637608 c 0,1.707057 1.374184,3.081688 3.080705,3.081688 h 16.427867 c 1.706521,0 3.080705,-1.374631 3.080705,-3.081688 V 34.456132 c 0,-1.707065 -1.239907,-2.947369 -2.946428,-2.947369 H 13.821424 V 14.807017 h 16.696429 v 13.754377 h 2.946422 V 14.941336 c 0,-1.707065 -1.374185,-3.081688 -3.080706,-3.081688 z"
       style="opacity:0.2;stroke-width:0.982302"
       id="path2" />
    <path
       d="m 13.955701,10.877188 c -1.706512,0 -3.080706,1.374632 -3.080706,3.081689 v 16.433108 c 0,1.707065 1.374194,3.081688 3.080706,3.081688 H 49.178558 V 49.192969 H 32.482138 V 36.421042 h -2.946429 v 12.637607 c 0,1.707065 1.374184,3.081688 3.080705,3.081688 h 16.427867 c 1.706521,0 3.080705,-1.374623 3.080705,-3.081688 V 33.473673 c 0,-1.707056 -1.239907,-2.947361 -2.946428,-2.947361 H 13.821424 V 13.824557 h 16.696429 v 13.754386 h 2.946422 V 13.958877 c 0,-1.707057 -1.374185,-3.081689 -3.080706,-3.081689 z"
       style="fill:#2d3d53;stroke-width:0.982302;fill-opacity:1"
       id="path3" />
    <path
       d="M 8.9107133,4 C 6.1901779,4 4,6.1908765 4,8.9122797 V 9.8947353 C 4,7.1733322 6.1901779,4.9824557 8.9107133,4.9824557 H 54.089271 c 2.72054,0 4.910712,2.1908765 4.910712,4.9122796 V 8.9122797 C 58.999983,6.1908765 56.809811,4 54.089271,4 Z"
       style="opacity:0.2;fill:#ffffff;stroke-width:0.982302"
       id="path4" />
  </g>
</svg>
