<?xml version="1.0" encoding="UTF-8" standalone="no"?>
<svg
   width="62"
   height="62"
   version="1.1"
   id="svg6"
   sodipodi:docname="distributor-logo-academix.svg"
   inkscape:version="1.4 (unknown)"
   xmlns:inkscape="http://www.inkscape.org/namespaces/inkscape"
   xmlns:sodipodi="http://sodipodi.sourceforge.net/DTD/sodipodi-0.dtd"
   xmlns="http://www.w3.org/2000/svg"
   xmlns:svg="http://www.w3.org/2000/svg">
  <defs
     id="defs6" />
  <sodipodi:namedview
     id="namedview6"
     pagecolor="#ffffff"
     bordercolor="#000000"
     borderopacity="0.25"
     inkscape:showpageshadow="2"
     inkscape:pageopacity="0.0"
     inkscape:pagecheckerboard="0"
     inkscape:deskcolor="#d1d1d1"
     inkscape:zoom="12.078125"
     inkscape:cx="32"
     inkscape:cy="32"
     inkscape:window-width="1920"
     inkscape:window-height="996"
     inkscape:window-x="0"
     inkscape:window-y="0"
     inkscape:window-maximized="1"
     inkscape:current-layer="svg6" />
  <g
     id="g6"
     transform="translate(-0.5,-1)">
    <ellipse
       style="opacity:0.2;stroke-width:0.982298"
       cx="31.5"
       cy="32.491226"
       id="circle1"
       rx="27.5"
       ry="27.508774" />
    <path
       style="fill:#ffb380;stroke-width:0.982298"
       d="M 31.804996,5.7192981 13.468471,52.270828 c 4.828265,4.19966 11.130843,6.74671 18.031521,6.74671 7.117471,0 13.599102,-2.709674 18.482319,-7.147753 z"
       id="path1" />
    <path
       style="fill:#5599ff;stroke-width:0.982298"
       d="M 30.007599,4.0537279 A 27.499992,27.508766 0 0 0 4,31.508766 27.499992,27.508766 0 0 0 12.332867,51.198189 Z"
       id="path2" />
    <path
       style="fill:#c83771;stroke-width:0.982298"
       d="M 33.001982,4.0748355 50.676715,51.223131 A 27.499992,27.508766 0 0 0 58.99999,31.508766 27.499992,27.508766 0 0 0 33.001982,4.0748355 Z"
       id="path3" />
    <path
       style="opacity:0.2;fill:#ffffff;stroke-width:0.982298"
       d="M 31.499992,4 A 27.499992,27.508766 0 0 0 4,31.508766 27.499992,27.508766 0 0 0 4.0211161,32.084486 27.499992,27.508766 0 0 1 31.499992,4.9824561 27.499992,27.508766 0 0 1 58.979367,31.915508 27.499992,27.508766 0 0 0 58.99999,31.508766 27.499992,27.508766 0 0 0 31.499992,4 Z"
       id="path4" />
    <path
       style="opacity:0.2;stroke-width:0.982298"
       d="M 31.499992,4.9824561 A 27.499992,27.508766 0 0 0 28.486427,5.1820177 C 28.319991,5.6946815 19.811162,31.850539 11.237547,51.046595 a 27.499992,27.508766 0 0 0 4.103132,3.668864 L 21.67857,41.333328 h 20.624996 l 6.0866,12.85252 a 27.499992,27.508766 0 0 0 3.993791,-3.810851 C 43.687864,31.2206 34.668952,5.613799 34.509725,5.1609102 A 27.499992,27.508766 0 0 0 31.499992,4.9824561 Z m 0,7.8596499 7.857141,22.596489 H 23.642852 Z"
       id="path5" />
    <path
       style="fill:#f2f2f2;stroke-width:0.982298;fill-opacity:1"
       d="M 31.499992,4 A 27.499992,27.508766 0 0 0 28.486427,4.1995614 C 28.319991,4.7122256 19.811162,30.868082 11.237547,50.064143 A 27.499992,27.508766 0 0 0 15.340679,53.733 L 21.67857,40.350876 h 20.624996 l 6.0866,12.85252 a 27.499992,27.508766 0 0 0 3.993791,-3.810858 C 43.687864,30.23814 34.668952,4.631343 34.509725,4.1784544 A 27.499992,27.508766 0 0 0 31.499992,4 Z m 0,7.859648 7.857141,22.596489 H 23.642852 Z"
       id="path6" />
  </g>
</svg>
