<?xml version="1.0" encoding="UTF-8" standalone="no"?>
<svg
   width="62"
   height="62"
   version="1.1"
   id="svg6"
   sodipodi:docname="distributor-logo-backbox.svg"
   inkscape:version="1.4 (unknown)"
   xmlns:inkscape="http://www.inkscape.org/namespaces/inkscape"
   xmlns:sodipodi="http://sodipodi.sourceforge.net/DTD/sodipodi-0.dtd"
   xmlns="http://www.w3.org/2000/svg"
   xmlns:svg="http://www.w3.org/2000/svg">
  <defs
     id="defs6" />
  <sodipodi:namedview
     id="namedview6"
     pagecolor="#ffffff"
     bordercolor="#000000"
     borderopacity="0.25"
     inkscape:showpageshadow="2"
     inkscape:pageopacity="0.0"
     inkscape:pagecheckerboard="0"
     inkscape:deskcolor="#d1d1d1"
     inkscape:zoom="12.078125"
     inkscape:cx="32"
     inkscape:cy="32"
     inkscape:window-width="1920"
     inkscape:window-height="996"
     inkscape:window-x="0"
     inkscape:window-y="0"
     inkscape:window-maximized="1"
     inkscape:current-layer="svg6" />
  <g
     id="g6"
     transform="translate(-0.49999951,-0.9999995)">
    <path
       d="M 20.696425,4.982456 C 20.198793,4.982119 19.719576,5.170712 19.355578,5.510143 L 4.6234312,19.264529 C 4.2254391,19.636445 3.9996591,20.156941 4,20.70175 v 37.333339 c 1.08e-4,1.085144 0.8794855,1.9648 1.9642856,1.96491 H 42.303573 c 0.497632,3.35e-4 0.976849,-0.188258 1.340856,-0.527689 L 58.376572,45.71793 c 0.397991,-0.371916 0.623774,-0.892421 0.623427,-1.43723 V 6.947369 c -1e-4,-1.085146 -0.879482,-1.964804 -1.964283,-1.964913 z"
       style="opacity:0.2;stroke-width:0.982303"
       id="path1" />
    <path
       d="M 20.696425,4 C 20.198793,3.9996629 19.719576,4.1882559 19.355578,4.5276864 L 4.6234312,18.282069 C 4.2254393,18.653985 3.9996595,19.17449 4.0000004,19.7193 v 37.333329 c 1.084e-4,1.085146 0.8794857,1.96481 1.9642856,1.96491 h 36.339288 c 0.497632,3.43e-4 0.976849,-0.188248 1.340856,-0.527679 L 58.376572,44.73547 c 0.397991,-0.371915 0.623774,-0.892412 0.623427,-1.437221 V 5.9649124 c -1e-4,-1.0851458 -0.879482,-1.9648036 -1.964283,-1.964912 z"
       style="fill:#e4e4e4;stroke-width:0.982303"
       id="path2" />
    <path
       d="m 22.908172,8.9122809 c -0.51437,6.52e-5 -1.008181,0.2019274 -1.375389,0.5622256 L 8.5174733,22.246436 C 8.1408635,22.615937 7.9286381,23.121434 7.9285721,23.64912 v 30.456139 c 1.079e-4,1.085154 0.8794848,1.96481 1.9642855,1.96492 H 40.091836 c 0.514361,-6.6e-5 1.008182,-0.201934 1.375383,-0.562226 l 13.015312,-12.77193 c 0.376608,-0.36951 0.588833,-0.875 0.588901,-1.402693 V 10.87719 C 55.071322,9.7920467 54.191947,8.9123889 53.107148,8.9122805 Z"
       style="opacity:0.2;stroke-width:0.982303"
       id="path3" />
    <path
       d="m 22.908172,7.9298249 c -0.51437,6.43e-5 -1.008181,0.2019274 -1.375389,0.5622256 L 8.5174733,21.263977 c -0.3766105,0.369509 -0.5888357,0.874998 -0.5889016,1.402692 v 30.45614 c 1.083e-4,1.085144 0.879485,1.9648 1.9642855,1.96491 H 40.091836 c 0.514361,-6.6e-5 1.008182,-0.201924 1.375383,-0.562226 l 13.015312,-12.77193 c 0.376608,-0.369501 0.588833,-0.874999 0.588901,-1.402684 V 9.8947365 C 55.071322,8.80959 54.191947,7.9299329 53.107148,7.9298245 Z"
       style="fill:#318ece;stroke-width:0.982303;fill-opacity:1"
       id="path4" />
    <path
       d="m 22.908172,7.9298249 c -0.51437,6.43e-5 -1.008181,0.2019274 -1.375389,0.5622256 L 8.5174733,21.263977 c -0.3766098,0.369509 -0.5888356,0.874998 -0.5889016,1.402692 v 0.982451 c 6.6e-5,-0.527686 0.2122918,-1.033183 0.5889016,-1.402684 L 21.532783,9.4745065 c 0.367208,-0.360299 0.861019,-0.5621606 1.375389,-0.5622256 h 30.198976 c 1.084799,1.08e-4 1.964174,0.879766 1.964284,1.9649091 V 9.8947369 c -1.1e-4,-1.0851465 -0.879485,-1.9648036 -1.964284,-1.964912 z"
       style="opacity:0.2;fill:#ffffff;stroke-width:0.982303"
       id="path5" />
    <path
       d="M 20.696425,4 C 20.198793,3.999663 19.719576,4.1882554 19.355578,4.5276864 L 4.6234312,18.282069 C 4.2254391,18.653985 3.9996595,19.17449 4.0000004,19.7193 v 0.98245 C 3.9996595,20.156941 4.2254391,19.636445 4.6234312,19.264529 L 19.355578,5.5101424 C 19.719576,5.1707114 20.198793,4.982119 20.696425,4.982456 h 36.339291 c 1.084801,1.09e-4 1.964183,0.8797665 1.964283,1.964912 V 5.964912 C 58.999899,4.879766 58.120517,4.000109 57.035716,4 Z"
       style="opacity:0.2;fill:#ffffff;stroke-width:0.982303"
       id="path6" />
  </g>
</svg>
