<?xml version="1.0" encoding="UTF-8" standalone="no"?>
<svg
   width="62"
   height="62"
   version="1"
   id="svg15"
   sodipodi:docname="distributor-logo-calculate-linux.svg"
   inkscape:version="1.4 (unknown)"
   xmlns:inkscape="http://www.inkscape.org/namespaces/inkscape"
   xmlns:sodipodi="http://sodipodi.sourceforge.net/DTD/sodipodi-0.dtd"
   xmlns="http://www.w3.org/2000/svg"
   xmlns:svg="http://www.w3.org/2000/svg">
  <defs
     id="defs15" />
  <sodipodi:namedview
     id="namedview15"
     pagecolor="#ffffff"
     bordercolor="#000000"
     borderopacity="0.25"
     inkscape:showpageshadow="2"
     inkscape:pageopacity="0.0"
     inkscape:pagecheckerboard="0"
     inkscape:deskcolor="#d1d1d1"
     inkscape:zoom="12.078125"
     inkscape:cx="32"
     inkscape:cy="32"
     inkscape:window-width="1920"
     inkscape:window-height="996"
     inkscape:window-x="0"
     inkscape:window-y="0"
     inkscape:window-maximized="1"
     inkscape:current-layer="svg15" />
  <g
     id="g15"
     transform="translate(-0.5,-1.0000005)">
    <rect
       style="opacity:0.2;stroke-width:0.982302"
       width="55"
       height="55.017544"
       x="4"
       y="4.9824572"
       rx="16.499992"
       ry="16.505255"
       id="rect1" />
    <path
       style="fill:#ff9a4c;stroke-width:0.982302;fill-opacity:1"
       d="m 20.499997,4 h 21.999999 c 9.141,0 16.499994,7.361348 16.499994,16.50526 v 22.007016 c 0,9.143915 -7.358994,16.505257 -16.499994,16.505257 H 25.492133 L 21.452662,57.111601 C 13.185189,53.210779 5.9498396,52.071871 6.3287329,42.935815 L 7.175545,22.517083 C 7.5031249,14.618318 9.5007215,6.02658 16.89802,4.3911886 18.056762,4.1350154 19.262039,4 20.499997,4 Z"
       id="path1" />
    <path
       style="opacity:0.1;stroke-width:0.982302"
       d="M 17.623777,5.2457234 C 9.866252,6.6018362 4,13.327727 4,21.487717 v 22.007014 c 0,9.143913 7.359001,16.50526 16.499997,16.50526 h 5.755128 c 0.876975,-3.393192 1.259425,-6.374025 1.04199,-9.477415 -0.02021,-0.289075 0.349688,-1.126318 1.272951,-1.995998 0.923272,-0.869679 2.334302,-1.806765 4.165284,-2.560141 3.661958,-1.506745 8.997491,-2.291504 15.56274,-0.510419 3.036534,0.824205 5.225801,1.330878 6.781006,1.61453 1.555204,0.283652 2.44159,0.363045 3.050784,0.244466 0.152291,-0.02968 0.29358,-0.0719 0.435058,-0.163876 0.04606,-0.02996 0.08841,-0.07902 0.131584,-0.123572 0.05392,-0.282168 0.08939,-0.569796 0.128915,-0.856964 -0.06286,-0.119995 -0.146534,-0.222491 -0.225586,-0.308934 -0.343334,-0.375402 -0.853483,-0.691782 -1.415284,-0.988598 h -0.0028 C 56.744382,44.64208 55.404716,43.727484 53.59927,42.560077 51.793822,41.39267 49.477369,40.502958 46.893457,39.129541 41.725612,36.382708 36.057036,33.875699 30.656644,34.460573 27.742104,34.776538 25.660866,34.20248 24.256985,33.192588 22.853102,32.1827 22.09501,30.723315 21.888333,29.149554 c -0.413344,-3.147524 0.87793,-7.596447 4.294188,-8.373735 3.378458,-0.769056 6.167709,-1.3506 8.313111,-2.079276 1.072768,-0.364337 1.906962,-0.742591 2.430419,-1.335142 0.261729,-0.296277 0.43745,-0.67468 0.437744,-1.079933 3e-4,-0.405255 -0.161937,-0.798524 -0.429689,-1.171274 -0.07937,-0.111202 -0.198725,-0.187271 -0.333006,-0.212226 0,0 -2.160879,-0.391115 -4.71045,-1.324396 -2.549569,-0.933268 -5.098588,-2.427215 -6.543337,-4.4621089 -0.0062,-0.00911 -0.0122,-0.018099 -0.01888,-0.02686 C 23.910695,7.3224345 21.051121,5.8509502 17.623756,5.2457234 Z"
       id="path2" />
    <path
       style="opacity:0.2;fill:#ffffff;stroke-width:0.982302"
       d="M 20.500765,4 C 11.359765,4 4,11.362113 4,20.506028 v 0.982458 C 4,12.34457 11.359765,4.9824559 20.500765,4.9824559 h 21.998461 c 9.141001,0 16.500764,7.3621141 16.500764,16.5060301 V 20.506028 C 58.99999,11.362113 51.640227,4 42.499226,4 Z"
       id="path3" />
    <path
       style="fill:#2d3d53;stroke-width:0.982302;fill-opacity:1"
       d="M 17.623777,4.2632676 C 9.866252,5.61938 4,12.345274 4,20.50526 v 22.007016 c 0,9.143915 7.359001,16.505257 16.499997,16.505257 h 5.755128 c 0.876975,-3.393186 1.259425,-6.374021 1.04199,-9.477414 -0.02021,-0.289072 0.349688,-1.126314 1.272951,-1.995994 0.923272,-0.86968 2.334302,-1.806769 4.165284,-2.560145 3.661958,-1.506743 8.997491,-2.291504 15.56274,-0.510416 3.036534,0.824202 5.225801,1.330876 6.781006,1.614529 1.555204,0.283649 2.44159,0.363043 3.050784,0.244464 0.152291,-0.02968 0.29358,-0.0719 0.435058,-0.163873 0.04606,-0.02996 0.08841,-0.07902 0.131584,-0.123576 0.05392,-0.282166 0.08939,-0.569795 0.128915,-0.85696 -0.06286,-0.119998 -0.146534,-0.222493 -0.225586,-0.308938 -0.343334,-0.375398 -0.853483,-0.691779 -1.415284,-0.988594 h -0.0028 C 56.744386,43.659624 55.40472,42.745024 53.599274,41.577621 51.793826,40.410216 49.477373,39.520503 46.893461,38.147085 41.725616,35.400253 36.05704,32.893245 30.656648,33.478116 c -2.91454,0.315965 -4.995777,-0.258094 -6.399659,-1.267982 -1.403883,-1.00989 -2.161976,-2.469276 -2.368652,-4.043038 -0.413344,-3.147522 0.87793,-7.596443 4.294188,-8.373731 3.378458,-0.769057 6.167709,-1.350601 8.313111,-2.079276 1.072768,-0.364341 1.906962,-0.742592 2.430419,-1.335142 0.26173,-0.296277 0.43745,-0.67468 0.437744,-1.079937 3e-4,-0.40525 -0.161937,-0.798524 -0.429689,-1.171269 -0.07937,-0.111207 -0.198725,-0.187277 -0.333006,-0.212226 0,0 -2.160879,-0.391121 -4.71045,-1.324396 -2.549574,-0.933275 -5.098593,-2.427221 -6.543342,-4.4621118 -0.0062,-0.00912 -0.0122,-0.0181 -0.01889,-0.026864 -1.41774,-1.7621644 -4.277314,-3.2336489 -7.704679,-3.8388754 z"
       id="path4" />
    <path
       style="fill:#e4e6e7;stroke-width:0.982302;fill-opacity:1"
       d="m 34.032747,40.27186 c -2.752027,0.0018 -5.465127,0.572126 -8.094312,1.344842 0.558141,1.881199 1.042952,5.319226 1.393866,7.744452 0.08088,-0.372964 0.446517,-1.072511 1.23779,-1.817859 0.923271,-0.869678 2.335167,-1.806468 4.166146,-2.559843 3.661957,-1.506745 8.997528,-2.292748 15.562771,-0.511657 2.314226,0.628143 4.007456,1.027609 5.431753,1.329385 -3.8638,-0.988026 -7.400842,-2.951532 -11.206559,-4.130372 -2.738133,-0.891503 -5.605075,-1.431394 -8.491455,-1.398948 z m 21.716184,5.928136 c 0.843099,0.136284 1.470047,0.198212 1.936267,0.177764 -0.04475,-0.0112 -0.172445,-0.01994 -0.449687,-0.0185 -0.428081,-0.0202 -0.977116,-0.08663 -1.48658,-0.159214 z"
       id="path5" />
    <path
       style="fill:#f2f2f2;stroke-width:0.982302;fill-opacity:1"
       d="m 4,26.818309 v 15.693967 c 0,9.143915 7.359001,16.505257 16.499997,16.505257 h 5.537599 c 0.05552,-0.3217 0.124987,-0.635148 0.171876,-0.961728 C 27.144133,51.530042 26.882614,44.03932 23.454099,35.729106 21.060459,29.929372 18.240753,28.180043 16.058104,30.221982 11.970256,34.047319 6.5797291,27.692845 4.4350586,26.92039 4.298314,26.871162 4.1449951,26.852738 4,26.818309 Z"
       id="path6" />
    <path
       style="fill:#486285;stroke-width:0.982302;fill-opacity:1"
       d="M 17.631835,4.2632676 C 12.389143,5.1771581 8.0209837,8.5438957 5.7321773,13.152575 c 4.8487437,-2.172958 9.5659967,-2.233042 13.6049777,2.740132 5.284125,6.618642 17.312833,-0.183112 17.774291,-1.488266 -0.03019,-0.0541 -0.06728,-0.107838 -0.102052,-0.161188 -0.08073,-0.02868 -0.582826,-0.208315 -1.460939,-0.561457 -0.85792,-0.197373 -2.066394,-0.508169 -3.657714,-1.090676 -2.549566,-0.933282 -5.098582,-2.427228 -6.543334,-4.4621184 -0.0062,-0.00912 -0.0122,-0.0181 -0.01889,-0.026864 -1.416652,-1.7607161 -4.27307,-3.2321454 -7.69669,-3.8388699 z m 5.446286,26.8185804 c 0.52746,1.319078 1.937588,4.533893 2.596924,6.578997 4.021384,-1.682092 10.676609,-4.140686 24.126953,4.5642 8.983768,5.815566 9.683189,2.975269 7.54907,1.848245 -0.374163,-0.197777 -1.281566,-0.829872 -2.387449,-1.603784 -0.441271,-0.290112 -0.827388,-0.546482 -1.361573,-0.891885 -1.805448,-1.167405 -4.124584,-2.059809 -6.708498,-3.433223 -5.167841,-2.746833 -10.836421,-5.251151 -16.236812,-4.666282 -2.914539,0.315965 -4.995775,-0.258094 -6.39966,-1.267982 -0.457241,-0.328918 -0.839524,-0.710097 -1.162841,-1.122915 -0.0054,-0.0026 -0.011,-0.003 -0.01609,-0.0054 z"
       id="path7" />
    <path
       style="fill:#ffb833;stroke-width:0.982302;fill-opacity:1"
       d="m 26.44066,9.3328995 c -0.895917,0.3719533 -2.086728,1.2953145 -2.396771,1.8348615 -0.30836,0.760685 -0.825706,1.449836 -1.587028,1.800859 -0.972398,0.545485 -2.158001,0.657338 -3.044252,1.355666 -0.699102,0.610723 -0.245147,1.621903 0.279698,2.181121 1.276951,1.399516 3.074688,2.32112 4.944981,2.598487 1.731587,0.199149 3.018624,-0.552004 4.712361,-0.768261 2.192068,-0.429426 4.451761,-0.659546 6.541279,-1.488605 0.580483,-0.244043 1.128907,-0.653395 1.429408,-1.211906 0.02629,-0.109649 0.04472,-0.221799 0.04481,-0.336984 3.03e-4,-0.405256 -0.161838,-0.798972 -0.429594,-1.171717 -0.07993,-0.11061 -0.199531,-0.185966 -0.333785,-0.210227 0,0 -0.09635,-0.02213 -0.101987,-0.0232 -0.270175,0.0055 -0.59478,0.01058 -0.656756,0.01858 -0.82963,-0.215969 -1.56889,-0.471889 -2.260776,-0.760532 -0.53057,-0.160907 -1.096667,-0.343161 -1.692113,-0.561125 -2.015028,-0.737609 -3.887458,-1.82894 -5.44947,-3.2569997 z"
       id="path8" />
    <ellipse
       style="opacity:0.2;stroke-width:0.982302"
       cx="18.732141"
       cy="9.8947334"
       id="circle8"
       rx="2.9464285"
       ry="2.9473684" />
    <ellipse
       style="fill:#ffffff;stroke-width:0.982302"
       cx="18.732141"
       cy="8.9122801"
       id="circle9"
       rx="2.9464285"
       ry="2.9473684" />
    <path
       style="fill:#3d3d3d;stroke-width:0.982302"
       d="m 20.780606,8.7088365 c 0,-1.0505734 -0.849875,-1.8994159 -1.898804,-1.8994159 -1.052856,0 -1.902744,0.8488425 -1.902744,1.8994159 0,1.0505724 0.849888,1.9033465 1.902744,1.9033465 1.048929,0 1.898804,-0.8527741 1.898804,-1.9033465"
       id="path9" />
    <path
       style="fill:#ffffff;stroke-width:0.982302"
       d="m 18.244586,8.368644 c 0,-0.1585034 -0.128333,-0.2908068 -0.286785,-0.2908068 -0.159757,0 -0.288089,0.1323056 -0.288089,0.2908068 0,0.1585037 0.128317,0.2868776 0.288089,0.2868776 0.158447,0 0.286785,-0.1283759 0.286785,-0.2868776"
       id="path10" />
    <path
       style="fill:#ffffff;stroke-width:0.982302"
       d="M 21.444285,8.2816646 C 21.592252,8.8816179 20.27226,7.654202 18.686423,7.654202 c -1.589764,0 -2.78667,1.3872284 -2.625599,0.5003987 0.172855,-0.9457782 1.227027,-2.1456849 2.692388,-2.1456849 1.38155,0 2.409516,1.1291698 2.691073,2.2727488"
       id="path11" />
    <path
       style="fill:#3d3d3d;stroke-width:0.982302"
       d="m 19.914803,15.272763 v 0 c 0.02319,-0.265925 0.282719,-0.363012 0.534848,-0.369342 0.143471,-0.0022 0.299601,0.03797 0.438852,0.134021 0.928335,0.638434 2.880901,1.757019 5.387411,1.752797 0.696253,0.0022 1.589173,-0.0855 2.256942,-0.284922 2.142561,-0.656376 4.703927,-0.697528 5.412834,-0.697528 0.708916,0 2.224848,0.181504 2.224848,0.181504 1.149872,-0.01904 1.154095,-0.841049 0.972643,-1.567069 L 36.698007,13.89459 c 0,0 0.791197,0.198391 0.741608,1.204059 -0.0981,1.368678 -1.730083,0.981393 -2.603563,0.956071 -1.731142,-0.04958 -4.23659,0.198387 -6.396034,0.723911 -0.696255,0.207887 -2.339228,0.16673 -2.339228,0.16673 -1.975878,-9.82e-4 -4.129929,-1.010941 -4.510763,-1.072147 -0.676204,-0.246933 -1.500108,0.165677 -1.675224,-0.600448"
       id="path12" />
    <path
       style="opacity:0.5;fill:#f3f3f3;stroke-width:0.982302;fill-opacity:1"
       d="m 26.340214,9.2370594 c -0.330346,0.1426999 -0.602006,0.2566029 -0.652119,0.2566029 -0.616075,0 -1.020779,0.6133987 -1.049263,0.9553037 -0.09915,1.187173 1.170138,1.993783 4.703092,2.292418 4.439144,0.373563 7.949564,2.769547 7.817699,1.78076 l 0.0078,-0.0017 c -0.06488,-0.133294 -0.139365,-0.265493 -0.231798,-0.394177 -0.07993,-0.11061 -0.199534,-0.185964 -0.333786,-0.210225 0,0 -2.162067,-0.393018 -4.711639,-1.3263 -2.059386,-0.753796 -3.984187,-1.877864 -5.549849,-3.3527624 z"
       id="path13" />
    <path
       style="fill:#3d3d3d;stroke-width:0.982302"
       d="m 25.675775,10.821865 c -0.111807,0.203666 0.142411,0.251156 0.337579,0.359848 0.196212,0.108688 0.241575,0.147736 0.387155,0.177283 0.140309,0.02743 0.0064,-0.264871 -0.151918,-0.494918 -0.15508,-0.225829 -0.458893,-0.244822 -0.572824,-0.04217"
       id="path14" />
    <path
       style="fill:#3d3d3d;stroke-width:0.982302"
       d="m 25.712412,9.1309715 c -0.249977,0.0252 -0.514484,0.1298352 -0.763384,0.3014304 -0.497795,0.3431887 -0.974298,0.9648071 -1.296512,1.8858771 -0.292811,0.837682 -0.932976,1.265962 -1.713746,1.604535 -0.78076,0.338578 -1.679386,0.553797 -2.392127,0.981585 -0.357591,0.214648 -0.60263,0.50056 -0.720114,0.828547 -0.117483,0.327988 -0.107292,0.685365 -0.0081,1.035687 0.199148,0.700635 0.737491,1.403061 1.451048,2.032724 1.427115,1.259322 3.576122,2.23927 5.359123,1.833316 a 0.26391172,0.2639959 0 1 0 -0.11746,-0.514752 c -1.503105,0.34223 -3.564867,-0.54281 -4.892435,-1.71429 -0.663789,-0.58574 -1.137718,-1.239908 -1.291881,-1.782304 -0.07704,-0.271201 -0.07793,-0.506518 -0.0049,-0.711068 0.07327,-0.20455 0.221203,-0.389964 0.496049,-0.554941 0.605915,-0.363669 1.492824,-0.585946 2.330321,-0.949118 0.837497,-0.363182 1.646249,-0.901434 2.001172,-1.916796 0.292953,-0.837004 0.718428,-1.362364 1.098856,-1.6246329 0.380426,-0.2622693 0.67618,-0.2503316 0.819007,-0.1406681 A 0.26401007,0.26409428 0 1 0 26.388915,9.3071915 C 26.197168,9.1599406 25.962091,9.1057696 25.712121,9.1309704 Z"
       id="path15" />
  </g>
</svg>
