<?xml version="1.0" encoding="UTF-8" standalone="no"?>
<svg
   width="62"
   height="62"
   version="1.1"
   id="svg3"
   sodipodi:docname="djv.svg"
   inkscape:version="1.4 (unknown)"
   xmlns:inkscape="http://www.inkscape.org/namespaces/inkscape"
   xmlns:sodipodi="http://sodipodi.sourceforge.net/DTD/sodipodi-0.dtd"
   xmlns="http://www.w3.org/2000/svg"
   xmlns:svg="http://www.w3.org/2000/svg">
  <defs
     id="defs3" />
  <sodipodi:namedview
     id="namedview3"
     pagecolor="#ffffff"
     bordercolor="#000000"
     borderopacity="0.25"
     inkscape:showpageshadow="2"
     inkscape:pageopacity="0.0"
     inkscape:pagecheckerboard="0"
     inkscape:deskcolor="#d1d1d1"
     inkscape:zoom="12.078125"
     inkscape:cx="32"
     inkscape:cy="32"
     inkscape:window-width="1920"
     inkscape:window-height="996"
     inkscape:window-x="0"
     inkscape:window-y="0"
     inkscape:window-maximized="1"
     inkscape:current-layer="svg3" />
  <g
     id="g3"
     transform="translate(-0.499997,-1.0000001)">
    <ellipse
       style="opacity:0.2;stroke-width:0.982299"
       cx="31.49999"
       cy="32.49123"
       id="circle1"
       rx="18.660713"
       ry="18.666666" />
    <path
       style="opacity:0.2;stroke-width:0.982299"
       d="M 31.5,4.9824562 A 27.5,27.508772 0 1 0 58.999997,32.491229 27.5,27.508772 0 0 0 31.5,4.9824562 Z m -0.04603,2.9492871 a 2.4219265,2.422699 0 0 1 2.493724,2.4216007 h -0.0249 c 0,1.02499 -0.973871,2.083752 -1.736012,3.168037 a 0.84682735,0.84709747 0 0 1 -1.388813,0 c -0.719819,-1.084285 -1.69383,-2.143047 -1.69383,-3.168037 a 2.4219265,2.422699 0 0 1 2.349853,-2.4216007 z m 7.229878,3.6151317 a 4.8099792,4.8115135 0 0 1 0.479561,0.03454 13.447618,13.451908 0 0 1 10.611749,7.708059 4.8099792,4.8115135 0 0 1 -3.209231,6.700658 l -5.844905,1.414202 a 5.2587976,5.2604751 0 0 1 -6.477924,-4.701208 l -0.456541,-5.996438 a 4.8099792,4.8115135 0 0 1 4.897285,-5.159811 z m -14.367678,0.04224 a 4.8099792,4.8115135 0 0 1 0.262801,0.002 4.8099792,4.8115135 0 0 1 4.634485,5.115677 l -0.45654,5.996435 a 5.2587976,5.2604751 0 0 1 -6.477926,4.743421 l -5.844897,-1.414194 a 4.8099792,4.8115135 0 0 1 -3.209233,-6.700657 13.447618,13.451908 0 0 1 10.611748,-7.708059 4.8099792,4.8115135 0 0 1 0.47956,-0.03454 z M 9.6166313,23.777685 a 2.422226,2.4229987 0 0 1 0.1093401,0 2.422226,2.4229987 0 0 1 0.7135896,0.118971 c 0.973849,0.313425 1.675806,1.577313 2.480292,2.619243 a 0.84682735,0.84709747 0 0 1 -0.431607,1.329767 c -1.27024,0.381195 -2.5729857,0.981987 -3.546838,0.660089 a 2.422226,2.4229987 0 0 1 0.6752213,-4.72807 z m 43.6574007,0.002 a 2.422226,2.4229987 0 0 1 0.103586,0 2.422226,2.4229987 0 0 1 0.680976,4.72615 c -0.97385,0.321909 -2.234259,-0.295824 -3.546838,-0.660075 a 0.84682735,0.84709747 0 0 1 -0.431607,-1.329766 c 0.78755,-1.041924 1.506443,-2.305817 2.480292,-2.619242 a 2.422226,2.4229987 0 0 1 0.713591,-0.117051 z M 31.5,25.614077 a 1.9642857,1.9649123 0 0 1 1.964283,1.96491 A 1.9642857,1.9649123 0 1 1 31.5,25.614077 Z M 26.625732,29.5439 a 1.9555165,1.9545571 0 0 1 0.575475,0.101699 1.9642857,1.9633218 0 1 1 -2.480296,1.260692 v -0.0076 a 1.9555165,1.9545571 0 0 1 1.904821,-1.354727 z m 9.700577,0.002 a 1.9615426,1.9649123 0 0 1 1.948942,1.358561 v -0.02686 a 1.9702996,1.973684 0 0 1 -1.262208,2.500281 1.9615426,1.9649123 0 1 1 -0.686734,-3.83197 z m 13.404714,0.40483 a 4.7930429,4.7945718 0 0 1 4.803292,3.88377 13.549238,13.55356 0 0 1 -4.047502,12.486011 4.8015108,4.8030424 0 0 1 -7.360314,-0.992052 l -3.157437,-5.081208 a 5.2587976,5.2604751 0 0 1 2.472624,-7.650492 l 5.562914,-2.28728 a 4.7930429,4.7945718 0 0 1 1.726423,-0.358828 z M 13.15004,29.9661 a 4.7930429,4.7945718 0 0 1 1.870291,0.360744 l 5.56484,2.287278 v 0.01727 a 5.2587976,5.2604751 0 0 1 2.472621,7.648569 l -3.159354,5.083048 a 4.8015108,4.8030424 0 0 1 -7.3584,0.992049 13.549238,13.55356 0 0 1 -4.0475017,-12.50329 4.7930429,4.7945718 0 0 1 4.6575037,-3.885689 z m 15.349819,5.472583 a 1.9625312,1.9649123 0 1 1 -1.101072,3.551803 1.95377,1.9561403 0 0 1 -0.42969,-2.743969 1.9625312,1.9649123 0 0 1 1.530762,-0.807834 z m 5.973426,0 a 1.9642857,1.9649123 0 0 1 1.126009,3.555641 1.9642857,1.9649123 0 0 1 -2.745011,-0.439419 1.9642857,1.9649123 0 0 1 1.619002,-3.116222 z m -3.155519,6.174873 a 5.2503295,5.2520042 0 0 1 4.179861,1.844024 l 3.894042,4.582244 a 4.7930429,4.7945718 0 0 1 -1.329344,7.301261 13.447618,13.451908 0 0 1 -13.124651,0 4.7930429,4.7945718 0 0 1 -1.329344,-7.301261 l 3.894043,-4.582244 a 5.2503295,5.2520042 0 0 1 3.815393,-1.844024 z m -11.756941,7.188042 a 0.84682735,0.84709747 0 0 1 0.06905,0 0.84682735,0.84709747 0 0 1 0.81909,0.898035 c -0.03387,1.321466 0.135116,2.727731 -0.466131,3.574829 A 2.4222266,2.4229993 0 0 1 16.06194,50.428813 c 0.601249,-0.83016 2.006593,-1.109486 3.251429,-1.575389 a 0.84682735,0.84709747 0 0 1 0.247459,-0.0518 z m 23.826555,0.02686 a 0.84682735,0.84709747 0 0 1 0.331858,0.04989 c 1.244835,0.440496 2.65018,0.703342 3.251428,1.550445 a 2.4222266,2.4229993 0 0 1 -3.920897,2.845663 h -0.03261 c -0.601247,-0.830154 -0.431607,-2.25191 -0.431607,-3.547968 A 0.84682735,0.84709747 0 0 1 43.38738,48.82846 Z"
       id="path1" />
    <ellipse
       style="fill:#2d3d53;stroke-width:0.982299;fill-opacity:1"
       cx="31.49999"
       cy="31.508764"
       id="circle2"
       rx="18.660713"
       ry="18.666666" />
    <path
       style="fill:#d9d9d9;stroke-width:0.982299;fill-opacity:1"
       d="M 31.5,4 A 27.5,27.508772 0 1 0 58.999997,31.508772 27.5,27.508772 0 0 0 31.5,4 Z m -0.04603,2.9492873 a 2.4219265,2.422699 0 0 1 2.493724,2.4216007 h -0.0249 c 0,1.024989 -0.973871,2.083753 -1.736012,3.168037 a 0.84682735,0.84709747 0 0 1 -1.388813,0 C 30.078121,11.454641 29.104111,10.395877 29.104111,9.370888 a 2.4219265,2.422699 0 0 1 2.349844,-2.4216007 z m 7.229878,3.6151317 a 4.8099792,4.8115135 0 0 1 0.479561,0.03454 13.447618,13.451908 0 0 1 10.611749,7.708059 4.8099792,4.8115135 0 0 1 -3.209231,6.700658 l -5.844901,1.4142 a 5.2587976,5.2604751 0 0 1 -6.477924,-4.7012 L 33.786555,15.72424 a 4.8099792,4.8115135 0 0 1 4.897285,-5.159813 z m -14.36768,0.04217 a 4.8099792,4.8115135 0 0 1 0.262801,0.002 4.8099792,4.8115135 0 0 1 4.634485,5.115681 l -0.456542,5.996435 a 5.2587976,5.2604751 0 0 1 -6.477924,4.743418 L 16.43408,25.04993 a 4.8099792,4.8115135 0 0 1 -3.209229,-6.700656 13.447618,13.451908 0 0 1 10.611748,-7.70806 4.8099792,4.8115135 0 0 1 0.47956,-0.03454 z M 9.6166273,22.795226 a 2.422226,2.4229987 0 0 1 0.1093401,0 2.422226,2.4229987 0 0 1 0.7135896,0.118968 c 0.973849,0.313428 1.675806,1.577316 2.480292,2.619243 a 0.84682735,0.84709747 0 0 1 -0.431607,1.32977 c -1.27024,0.381197 -2.5729857,0.981986 -3.546838,0.66009 a 2.422226,2.4229987 0 0 1 0.6752233,-4.728071 z m 43.6574007,0.002 a 2.422226,2.4229987 0 0 1 0.103586,0 2.422226,2.4229987 0 0 1 0.680976,4.726146 c -0.97385,0.321902 -2.234259,-0.295833 -3.546838,-0.660086 a 0.84682735,0.84709747 0 0 1 -0.431607,-1.329765 c 0.78755,-1.041929 1.506443,-2.305819 2.480292,-2.619238 a 2.422226,2.4229987 0 0 1 0.713591,-0.117051 z M 31.499998,24.6316 a 1.9642857,1.9649123 0 0 1 1.964283,1.964914 1.9642857,1.9649123 0 1 1 -1.964283,-1.964914 z m -4.874268,3.92983 a 1.9555165,1.9545571 0 0 1 0.575475,0.101701 1.9642857,1.9633218 0 1 1 -2.480296,1.260691 v -0.0076 a 1.9555165,1.9545571 0 0 1 1.904821,-1.354717 z m 9.700577,0.002 a 1.9615426,1.9649123 0 0 1 1.948942,1.358554 v -0.02686 a 1.9702996,1.973684 0 0 1 -1.262208,2.500275 1.9615426,1.9649123 0 1 1 -0.686734,-3.831965 z m 13.404714,0.404833 a 4.7930429,4.7945718 0 0 1 4.803292,3.88377 A 13.549238,13.55356 0 0 1 50.486811,45.338045 4.8015108,4.8030424 0 0 1 43.126497,44.346 L 39.96906,39.26485 a 5.2587976,5.2604751 0 0 1 2.472624,-7.650493 l 5.562915,-2.287279 a 4.7930429,4.7945718 0 0 1 1.726422,-0.358829 z m -36.580983,0.01536 a 4.7930429,4.7945718 0 0 1 1.870291,0.360745 l 5.56484,2.287275 v 0.01727 a 5.2587976,5.2604751 0 0 1 2.472621,7.648573 l -3.159354,5.083057 A 4.8015108,4.8030424 0 0 1 12.540038,45.372523 13.549238,13.55356 0 0 1 8.4925363,32.869236 4.7930429,4.7945718 0 0 1 13.15004,28.983542 Z m 15.349819,5.472586 a 1.9625312,1.9649123 0 1 1 -1.101072,3.55181 1.95377,1.9561403 0 0 1 -0.42969,-2.743969 1.9625312,1.9649123 0 0 1 1.530762,-0.807841 z m 5.973426,0 a 1.9642857,1.9649123 0 0 1 1.12601,3.555653 1.9642857,1.9649123 0 0 1 -2.745012,-0.439425 1.9642857,1.9649123 0 0 1 1.619002,-3.116228 z m -3.155519,6.1749 a 5.2503295,5.2520042 0 0 1 4.179861,1.84403 l 3.894042,4.582231 a 4.7930429,4.7945718 0 0 1 -1.329344,7.301261 13.447618,13.451908 0 0 1 -13.124652,0 4.7930429,4.7945718 0 0 1 -1.329343,-7.301261 l 3.894045,-4.582231 a 5.2503295,5.2520042 0 0 1 3.815393,-1.844029 z m -11.756941,7.188048 a 0.84682735,0.84709747 0 0 1 0.06905,0 0.84682735,0.84709747 0 0 1 0.81909,0.898021 c -0.03388,1.32147 0.135116,2.727736 -0.466131,3.574834 a 2.4222266,2.4229993 0 0 1 -3.920901,-2.845667 c 0.601249,-0.830155 2.006594,-1.109481 3.251429,-1.575383 a 0.84682735,0.84709747 0 0 1 0.247455,-0.0518 z m 23.826555,0.02686 a 0.84682735,0.84709747 0 0 1 0.331858,0.04989 c 1.244835,0.440483 2.65018,0.703342 3.251428,1.550433 a 2.4222266,2.4229993 0 0 1 -3.920897,2.845664 h -0.03261 C 42.41592,51.461849 42.58556,50.040092 42.58556,48.744034 a 0.84682735,0.84709747 0 0 1 0.801827,-0.898027 z"
       id="path2" />
    <path
       style="opacity:0.2;fill:#ffffff;stroke-width:0.982299"
       d="M 31.5,4 A 27.5,27.508772 0 0 0 4.0268555,32.518092 27.5,27.508772 0 0 1 31.5,4.9824562 27.5,27.508772 0 0 1 58.980817,32.118969 27.5,27.508772 0 0 0 58.999997,31.508772 27.5,27.508772 0 0 0 31.5,4 Z m 2.372871,5.7719297 C 33.669995,10.671173 32.849785,11.595615 32.18673,12.538925 a 0.84682735,0.84709747 0 0 1 -1.38881,0 c -0.616145,-0.928139 -1.4141,-1.837299 -1.632429,-2.7228615 a 2.4219265,2.422699 0 0 0 -0.06138,0.5372805 c 0,1.02499 0.97401,2.083752 1.693814,3.168037 a 0.84682735,0.84709747 0 0 0 1.388809,0 c 0.762147,-1.084285 1.736014,-2.143047 1.736014,-3.168037 h 0.02495 a 2.4219265,2.422699 0 0 0 -0.07482,-0.5814143 z m -0.0729,6.1365133 a 4.8099792,4.8115135 0 0 0 -0.01344,0.798243 l 0.456541,5.996438 a 5.2587976,5.2604751 0 0 0 6.477923,4.701207 l 5.844901,-1.4142 a 4.8099792,4.8115135 0 0 0 3.627411,-5.161732 4.8099792,4.8115135 0 0 1 -3.627407,4.179276 l -5.844897,1.4142 A 5.2587976,5.2604751 0 0 1 34.2431,21.720668 Z m -4.603797,0.04219 -0.439275,5.770013 a 5.2587976,5.2604751 0 0 1 -6.477923,4.743429 l -5.844901,-1.414194 a 4.8099792,4.8115135 0 0 1 -3.627406,-4.179276 4.8099792,4.8115135 0 0 0 3.627406,5.161732 l 5.844901,1.414201 A 5.2587976,5.2604751 0 0 0 28.7569,22.703109 l 0.45654,-5.996438 A 4.8099792,4.8115135 0 0 0 29.19618,15.950643 Z M 7.3166502,25.706149 a 2.422226,2.4229987 0 0 0 1.6247558,2.799615 c 0.9738523,0.321898 2.276598,-0.278894 3.546838,-0.660089 a 0.84682735,0.84709747 0 0 0 0.45079,-1.302903 0.84682735,0.84709747 0 0 1 -0.45079,0.320448 c -1.27024,0.381191 -2.5729857,0.981981 -3.546838,0.660085 A 2.422226,2.4229987 0 0 1 7.3166502,25.70614 Z m 48.3609428,0.002 a 2.422226,2.4229987 0 0 1 -1.619001,1.815236 c -0.97385,0.321899 -2.234259,-0.295835 -3.546838,-0.660089 a 0.84682735,0.84709747 0 0 1 -0.45079,-0.322368 0.84682735,0.84709747 0 0 0 0.45079,1.304825 c 1.312579,0.364252 2.572988,0.981985 3.546838,0.660087 a 2.422226,2.4229987 0 0 0 1.619001,-2.7977 z m -22.276612,1.375813 a 1.9642857,1.9649123 0 0 1 -3.801965,0.002 1.9642857,1.9649123 0 1 0 3.865267,0.493053 1.9642857,1.9649123 0 0 0 -0.0633,-0.495065 z m 4.910718,3.927913 a 1.9702996,1.973684 0 0 1 -1.298656,1.383446 1.9615426,1.9649123 0 0 1 -2.503313,-1.377742 1.9615426,1.9649123 0 0 0 2.503313,2.360197 1.9702996,1.973684 0 0 0 1.298656,-2.365953 z m -13.62148,0.0057 a 1.9642857,1.9633218 0 1 0 3.800048,0 1.9642857,1.9633218 0 0 1 -3.800048,0 z m 30.068534,4.935308 a 13.549238,13.55356 0 0 1 -4.27194,9.385132 4.8015108,4.8030424 0 0 1 -7.360314,-0.992045 l -3.157437,-5.081133 a 5.2587976,5.2604751 0 0 1 -0.765379,-2.289199 5.2587976,5.2604751 0 0 0 0.765379,3.271657 l 3.157437,5.081139 a 4.8015108,4.8030424 0 0 0 7.360314,0.992051 13.549238,13.55356 0 0 0 4.27194,-10.367599 z m -46.4944884,0.08252 a 13.549238,13.55356 0 0 0 4.2757734,10.319627 4.8015108,4.8030424 0 0 0 7.3584,-0.992045 l 3.159354,-5.083064 a 5.2587976,5.2604751 0 0 0 0.767298,-3.283169 5.2587976,5.2604751 0 0 1 -0.767298,2.300711 l -3.159354,5.083061 a 4.8015108,4.8030424 0 0 1 -7.3584,0.992038 13.549238,13.55356 0 0 1 -4.2757734,-9.33717 z m 24.2811794,0.874923 a 1.9642857,1.9649123 0 0 0 0.308839,1.644465 1.9642857,1.9649123 0 0 0 2.745011,0.439419 1.9642857,1.9649123 0 0 0 0.748117,-2.081962 1.9642857,1.9649123 0 0 1 -0.748117,1.099505 1.9642857,1.9649123 0 0 1 -2.745011,-0.439419 1.9642857,1.9649123 0 0 1 -0.308839,-0.662008 z m -5.892856,0.002 a 1.95377,1.9561403 0 0 0 0.746199,2.078079 1.9625312,1.9649123 0 0 0 3.053851,-2.078124 1.9625312,1.9649123 0 0 1 -3.053851,1.09567 1.95377,1.9561403 0 0 1 -0.746199,-1.09567 z m -6.213206,12.612679 c 0.0067,1.055895 0.02111,2.094035 -0.456541,2.766995 a 2.4222266,2.4229993 0 0 1 -4.317976,-0.951753 2.4222266,2.4229993 0 0 0 4.317976,1.93421 c 0.601247,-0.847093 0.43226,-2.253364 0.466131,-3.574831 a 0.84682735,0.84709747 0 0 0 -0.0096,-0.174621 z m 22.134662,0.878852 c -0.0253,1.091334 -0.05471,2.183265 0.443115,2.870614 h 0.03261 a 2.4222266,2.4229993 0 0 0 4.316055,-1.934206 2.4222266,2.4229993 0 0 1 -4.316057,0.951753 h -0.03261 c -0.345746,-0.47741 -0.428359,-1.155943 -0.443115,-1.888189 z m -2.065954,0.241776 a 4.7930429,4.7945718 0 0 1 -2.445765,3.712993 13.447618,13.451908 0 0 1 -13.124651,0 4.7930429,4.7945718 0 0 1 -2.440012,-3.709156 4.7930429,4.7945718 0 0 0 2.440012,4.691616 13.447618,13.451908 0 0 0 13.124651,0 4.7930429,4.7945718 0 0 0 2.445765,-4.695453 z"
       id="path3" />
  </g>
</svg>
