<?xml version="1.0" encoding="UTF-8" standalone="no"?>
<svg
   width="62"
   height="62"
   version="1"
   id="svg7"
   sodipodi:docname="dockstation.svg"
   inkscape:version="1.4 (unknown)"
   xmlns:inkscape="http://www.inkscape.org/namespaces/inkscape"
   xmlns:sodipodi="http://sodipodi.sourceforge.net/DTD/sodipodi-0.dtd"
   xmlns:xlink="http://www.w3.org/1999/xlink"
   xmlns="http://www.w3.org/2000/svg"
   xmlns:svg="http://www.w3.org/2000/svg">
  <defs
     id="defs7">
    <linearGradient
       id="linearGradient7"
       inkscape:collect="always">
      <stop
         style="stop-color:#29b6f6;stop-opacity:1;"
         offset="0"
         id="stop8" />
      <stop
         style="stop-color:#0aa0e4;stop-opacity:1;"
         offset="0.59162253"
         id="stop10" />
      <stop
         style="stop-color:#eff2f6;stop-opacity:1;"
         offset="0.76739442"
         id="stop11" />
      <stop
         style="stop-color:#eff2f6;stop-opacity:1;"
         offset="1"
         id="stop9" />
    </linearGradient>
    <linearGradient
       id="linearGradient1"
       inkscape:collect="always">
      <stop
         style="stop-color:#566c80;stop-opacity:1;"
         offset="0"
         id="stop5" />
      <stop
         style="stop-color:#566c80;stop-opacity:1;"
         offset="0.28848785"
         id="stop7" />
      <stop
         style="stop-color:#495361;stop-opacity:1;"
         offset="1"
         id="stop6" />
    </linearGradient>
    <linearGradient
       id="c-3"
       gradientUnits="userSpaceOnUse"
       x1="24.072048"
       x2="23.959682"
       y1="0.75082099"
       y2="46.056854">
      <stop
         offset="0"
         stop-color="#fff"
         id="stop3" />
      <stop
         offset="1"
         stop-color="#d9d9d9"
         id="stop4" />
    </linearGradient>
    <linearGradient
       id="b-6"
       gradientUnits="userSpaceOnUse"
       x1="29.203026"
       x2="34.121048"
       xlink:href="#a-7"
       y1="24.827356"
       y2="29.224836" />
    <linearGradient
       id="a-7">
      <stop
         offset="0"
         id="stop1" />
      <stop
         offset="1"
         stop-opacity="0"
         id="stop2" />
    </linearGradient>
    <linearGradient
       id="d"
       gradientUnits="userSpaceOnUse"
       x1="15.948756"
       x2="25.031786"
       xlink:href="#a-7"
       y1="23.618279"
       y2="33.69899" />
    <linearGradient
       id="e"
       gradientUnits="userSpaceOnUse"
       x1="21.990562"
       x2="29.320522"
       xlink:href="#a-7"
       y1="33.780373"
       y2="41.931858" />
    <linearGradient
       id="paint154_linear_890_11"
       x1="778"
       y1="812.29199"
       x2="788"
       y2="812.29199"
       gradientUnits="userSpaceOnUse"
       gradientTransform="translate(-751,-696)">
      <stop
         stop-color="#EFF2F6"
         id="stop1050" />
      <stop
         offset="0.600785"
         stop-color="#B7C6CD"
         id="stop1051" />
    </linearGradient>
    <linearGradient
       id="paint155_linear_890_11"
       x1="783"
       y1="813"
       x2="783"
       y2="817"
       gradientUnits="userSpaceOnUse"
       gradientTransform="translate(-751,-696)">
      <stop
         stop-color="#EFF2F6"
         id="stop1052" />
      <stop
         offset="0.734138"
         stop-color="#B7C6CD"
         id="stop1053" />
    </linearGradient>
    <radialGradient
       id="paint156_radial_890_11"
       cx="0"
       cy="0"
       r="1"
       gradientUnits="userSpaceOnUse"
       gradientTransform="matrix(27.999986,27.999976,-27.999986,27.999976,32.302392,33.999998)">
      <stop
         offset="0.60067803"
         stop-color="#B7C6CD"
         id="stop1054"
         style="stop-color:#384850;stop-opacity:1;" />
      <stop
         offset="0.876735"
         stop-color="#EFF2F6"
         id="stop1055" />
    </radialGradient>
    <linearGradient
       id="paint157_linear_890_11"
       x1="796.84485"
       y1="799.43359"
       x2="768.90088"
       y2="770.81476"
       gradientUnits="userSpaceOnUse"
       gradientTransform="matrix(1.1666666,0,0,1.1666668,-881.19764,-881.8333)">
      <stop
         offset="0.00000057"
         stop-color="#2E2E41"
         id="stop1056"
         style="stop-color:#495361;stop-opacity:1;" />
      <stop
         offset="0.711139"
         stop-color="#566C80"
         id="stop1057" />
    </linearGradient>
    <linearGradient
       id="paint158_linear_890_11"
       x1="792"
       y1="794"
       x2="774"
       y2="776"
       gradientUnits="userSpaceOnUse"
       gradientTransform="translate(-751,-696)">
      <stop
         offset="0.304478"
         stop-color="#2E2E41"
         id="stop1058" />
      <stop
         offset="1"
         stop-color="#566C80"
         id="stop1059" />
    </linearGradient>
    <linearGradient
       id="paint159_linear_890_11"
       x1="788"
       y1="790"
       x2="778"
       y2="780"
       gradientUnits="userSpaceOnUse"
       gradientTransform="translate(-751,-696)">
      <stop
         offset="0.391394"
         stop-color="#5200FF"
         id="stop1060" />
      <stop
         offset="1"
         stop-color="#0085FF"
         id="stop1061" />
    </linearGradient>
    <linearGradient
       id="paint160_linear_890_11"
       x1="784"
       y1="798"
       x2="782"
       y2="796"
       gradientUnits="userSpaceOnUse"
       gradientTransform="translate(-751,-696)">
      <stop
         stop-color="#FF7E07"
         id="stop1062" />
      <stop
         offset="1"
         stop-color="#FFE607"
         id="stop1063" />
    </linearGradient>
    <linearGradient
       inkscape:collect="always"
       xlink:href="#linearGradient1"
       id="linearGradient6"
       x1="17.408081"
       y1="16.037786"
       x2="49.155514"
       y2="50.137749"
       gradientUnits="userSpaceOnUse"
       gradientTransform="translate(-1.3023872,-3)" />
    <radialGradient
       inkscape:collect="always"
       xlink:href="#linearGradient7"
       id="radialGradient9"
       cx="32.302387"
       cy="34"
       fx="32.302387"
       fy="34"
       r="28"
       gradientUnits="userSpaceOnUse"
       gradientTransform="matrix(0.99999999,1,-1,0.99999999,32.697613,-35.302387)" />
    <linearGradient
       id="c-3-6"
       gradientUnits="userSpaceOnUse"
       x1="24.072048"
       x2="23.959682"
       y1="0.75082099"
       y2="46.056854"
       gradientTransform="matrix(0.91471346,0,0,0.90068147,9.0468769,9.3836444)">
      <stop
         offset="0"
         stop-color="#fff"
         id="stop3-2" />
      <stop
         offset="1"
         stop-color="#d9d9d9"
         id="stop4-9" />
    </linearGradient>
    <linearGradient
       id="b-6-1"
       gradientUnits="userSpaceOnUse"
       x1="29.203026"
       x2="34.121048"
       xlink:href="#a-7"
       y1="24.827356"
       y2="29.224836"
       gradientTransform="matrix(1.1104534,0,0,1.0934187,4.3491158,4.7861435)" />
    <linearGradient
       id="d-0"
       gradientUnits="userSpaceOnUse"
       x1="15.948756"
       x2="25.031786"
       xlink:href="#a-7"
       y1="23.618279"
       y2="33.69899"
       gradientTransform="matrix(1.1104534,0,0,1.0934187,4.3491158,4.7861435)" />
    <linearGradient
       id="e-9"
       gradientUnits="userSpaceOnUse"
       x1="21.990562"
       x2="29.320522"
       xlink:href="#a-7"
       y1="33.780373"
       y2="41.931858"
       gradientTransform="matrix(1.1104534,0,0,1.0934187,4.3491158,4.7861435)" />
    <linearGradient
       id="linearGradient773"
       gradientTransform="matrix(2.0428665,-6.8308524,5.7819337,2.3633129,-33.356582,5.3194785)"
       gradientUnits="userSpaceOnUse"
       x1="24"
       x2="24"
       y1="35"
       y2="13">
      <stop
         offset="0"
         stop-color="#cd7223"
         id="stop224-5"
         style="stop-color:#ffb380;stop-opacity:1" />
      <stop
         offset=".53"
         stop-color="#f48e00"
         id="stop226-3" />
      <stop
         offset="1"
         stop-color="#ffa92d"
         id="stop228-5" />
    </linearGradient>
    <linearGradient
       id="linearGradient4432">
      <stop
         style="stop-color:#eff1f1;stop-opacity:1"
         offset="0"
         id="stop17" />
      <stop
         style="stop-color:#6f8181;stop-opacity:1"
         offset="1"
         id="stop19" />
    </linearGradient>
    <linearGradient
       id="a-2">
      <stop
         stop-color="#969692"
         offset="0"
         id="stop3-3" />
      <stop
         stop-color="#969692"
         stop-opacity="0"
         offset="1"
         id="stop4-6" />
    </linearGradient>
    <linearGradient
       id="e-1"
       x1="-1.1176227"
       x2="-0.41036412"
       y1="289.6546"
       y2="289.64532"
       gradientTransform="matrix(6.7456967,0.0127412,0.01265839,6.7456978,-29.126969,-1911.263)"
       gradientUnits="userSpaceOnUse"
       xlink:href="#a-2" />
    <linearGradient
       id="d-09"
       x1="-0.86155176"
       x2="-0.1469878"
       y1="289.66055"
       y2="289.70197"
       gradientTransform="matrix(6.7456967,0.0127412,0.01265839,6.7456978,-38.91316,-1913.9109)"
       gradientUnits="userSpaceOnUse"
       xlink:href="#a-2" />
    <linearGradient
       id="c-2"
       x1="-0.59261101"
       x2="0.11464758"
       y1="289.77438"
       y2="289.76511"
       gradientTransform="matrix(6.7456967,0.0127412,0.01265839,6.7456978,-48.766822,-1916.5629)"
       gradientUnits="userSpaceOnUse"
       xlink:href="#a-2" />
    <linearGradient
       id="b-0"
       x1="-0.30974263"
       x2="0.37280104"
       y1="289.83627"
       y2="289.84122"
       gradientTransform="matrix(6.7456967,0.0127412,0.01265839,6.7456978,-58.553025,-1919.2116)"
       gradientUnits="userSpaceOnUse"
       xlink:href="#a-2" />
  </defs>
  <sodipodi:namedview
     id="namedview7"
     pagecolor="#ffffff"
     bordercolor="#000000"
     borderopacity="0.25"
     inkscape:showpageshadow="2"
     inkscape:pageopacity="0.0"
     inkscape:pagecheckerboard="0"
     inkscape:deskcolor="#d1d1d1"
     inkscape:zoom="8.3306018"
     inkscape:cx="23.587732"
     inkscape:cy="47.235483"
     inkscape:window-width="1920"
     inkscape:window-height="996"
     inkscape:window-x="0"
     inkscape:window-y="0"
     inkscape:window-maximized="1"
     inkscape:current-layer="svg7" />
  <path
     d="M 59,31 C 59,46.46415 46.464172,59 30.999998,59 15.535835,59 3.0000001,46.46415 3.0000001,31 3.0000001,15.535835 15.535835,3 30.999998,3 46.464172,3 59,15.535835 59,31 Z"
     id="path154"
     style="fill:url(#radialGradient9)" />
  <path
     d="m 54.333333,31 c 0,12.88701 -10.446332,23.33332 -23.333335,23.33332 C 18.112999,54.33332 7.6666671,43.88701 7.6666671,31 7.6666671,18.113006 18.112999,7.666668 30.999998,7.666668 43.887001,7.666668 54.333333,18.113006 54.333333,31 Z"
     id="path155"
     style="fill:url(#linearGradient6)" />
  <g
     id="g2"
     transform="matrix(1.0000161,0,0,1,11.666558,-50.333332)">
    <path
       style="fill:#b3e8ff;stroke-width:0.833318"
       d="M 42.666244,81.334223 C 41.49959,82.500938 29.932031,84.46013 17.045498,84.46013 4.1589692,84.46013 -2.8333443,82.500938 -4,81.334223 -4,68.447085 6.4465952,58 19.333129,58 32.219651,58 42.666244,68.447085 42.666244,81.334223 Z"
       id="path1" />
    <path
       style="fill:#0aacf5;stroke-width:0.833318;fill-opacity:1"
       d="m 16.57827,76.320641 c -5.281077,0.0729 -11.8557935,1.408057 -19.242996,3.240734 -0.7026188,0.174306 -1.0358096,0.255177 -1.2623594,0.298517 -0.039858,0.490549 -0.06417,0.982243 -0.072921,1.474331 0.00233,12.848105 10.3900624,23.277007 23.2374334,23.329777 0.05267,-6e-5 0.08166,0.003 0.134439,0.003 12.870519,-0.0219 23.293177,-10.460993 23.294378,-23.332175 -0.0095,-0.843199 -0.06377,-1.68528 -0.164055,-2.522553 -2.262469,1.072567 -4.303886,1.704843 -6.578858,1.688123 -6.029252,-0.04692 -11.851164,-3.850352 -17.162145,-4.154092 -0.700257,-0.02691 -1.42848,-0.03536 -2.182915,-0.02517 z"
       id="path2" />
    <path
       style="opacity:0.2;stroke-width:0.833318"
       d="M 9.7498758,81.333129 A 1.2499889,1.2499889 0 0 0 8.499886,82.583115 1.2499889,1.2499889 0 0 0 9.7498758,83.833104 1.2499889,1.2499889 0 0 0 10.999864,82.583115 1.2499889,1.2499889 0 0 0 9.7498758,81.333129 Z m 21.2498132,4.999952 a 3.3333032,3.3333032 0 0 0 -3.333305,3.333303 3.3333032,3.3333032 0 0 0 3.333305,3.333306 3.3333032,3.3333032 0 0 0 3.333298,-3.333306 3.3333032,3.3333032 0 0 0 -3.333298,-3.333303 z M 17.666474,99.666308 a 1.666652,1.666652 0 0 0 -1.666657,1.666592 1.666652,1.666652 0 0 0 1.666657,1.66664 1.666652,1.666652 0 0 0 1.666655,-1.66664 1.666652,1.666652 0 0 0 -1.666655,-1.666592 z"
       id="path3-9" />
    <circle
       style="fill:#b3e8ff;stroke-width:0.833318"
       cx="9.7498827"
       cy="81.749756"
       r="1.2499897"
       id="circle3" />
    <circle
       style="fill:#b3e8ff;stroke-width:0.833318"
       cx="30.999668"
       cy="88.833054"
       r="3.3333032"
       id="circle4" />
    <circle
       style="fill:#b3e8ff;stroke-width:0.833318"
       cx="17.666462"
       cy="100.49963"
       r="1.6666516"
       id="circle5" />
    <path
       style="opacity:0.1;stroke-width:0.833318"
       d="m 16.577613,76.320151 c -5.281057,0.0729 -11.8557871,1.40786 -19.2429898,3.240527 -0.702619,0.174314 -1.0348333,0.256137 -1.2613822,0.299477 -0.039857,0.490553 -0.064496,0.982506 -0.073243,1.474595 3.38e-5,0.184099 0.010379,0.365423 0.014661,0.5485 0.01191,-0.396892 0.026437,-0.793979 0.058585,-1.189771 0.2265492,-0.04342 0.5587639,-0.12516 1.2613827,-0.299475 7.3872023,-1.832667 13.9619313,-3.167534 19.2429893,-3.240527 0.754441,-0.01047 1.483966,-0.0011 2.184225,0.02595 5.31097,0.303739 11.132059,4.106685 17.161307,4.153614 2.274976,0.01663 4.316248,-0.615247 6.578722,-1.687813 0.08668,0.724665 0.132863,1.453127 0.151352,2.182597 0.0035,-0.164545 0.01293,-0.327791 0.01295,-0.493162 -0.0095,-0.843198 -0.06411,-1.68549 -0.164379,-2.522759 -2.262479,1.072564 -4.303752,1.704525 -6.578726,1.687811 -6.029245,-0.04693 -11.850337,-3.849872 -17.161307,-4.153608 -0.700258,-0.02692 -1.429786,-0.03642 -2.184224,-0.02599 z"
       id="path5" />
  </g>
</svg>
