<?xml version="1.0" encoding="UTF-8" standalone="no"?>
<svg
   clip-rule="evenodd"
   fill-rule="evenodd"
   stroke-linejoin="round"
   stroke-miterlimit="2"
   viewBox="0 0 62 62"
   version="1.1"
   id="svg4"
   sodipodi:docname="drawpile.svg"
   width="62"
   height="62"
   inkscape:version="1.4 (unknown)"
   xmlns:inkscape="http://www.inkscape.org/namespaces/inkscape"
   xmlns:sodipodi="http://sodipodi.sourceforge.net/DTD/sodipodi-0.dtd"
   xmlns:xlink="http://www.w3.org/1999/xlink"
   xmlns="http://www.w3.org/2000/svg"
   xmlns:svg="http://www.w3.org/2000/svg">
  <defs
     id="defs4">
    <linearGradient
       id="linearGradient4"
       inkscape:collect="always">
      <stop
         style="stop-color:#006aff;stop-opacity:1;"
         offset="0"
         id="stop4" />
      <stop
         style="stop-color:#00aad4;stop-opacity:1"
         offset="1"
         id="stop5" />
    </linearGradient>
    <linearGradient
       inkscape:collect="always"
       xlink:href="#linearGradient4"
       id="linearGradient5"
       x1="26.210688"
       y1="51.676731"
       x2="26.747381"
       y2="5.0129685"
       gradientUnits="userSpaceOnUse" />
  </defs>
  <sodipodi:namedview
     id="namedview4"
     pagecolor="#ffffff"
     bordercolor="#000000"
     borderopacity="0.25"
     inkscape:showpageshadow="2"
     inkscape:pageopacity="0.0"
     inkscape:pagecheckerboard="0"
     inkscape:deskcolor="#d1d1d1"
     inkscape:zoom="8.0520833"
     inkscape:cx="17.510996"
     inkscape:cy="33.966365"
     inkscape:window-width="1920"
     inkscape:window-height="996"
     inkscape:window-x="0"
     inkscape:window-y="0"
     inkscape:window-maximized="1"
     inkscape:current-layer="svg4" />
  <linearGradient
     id="a"
     x2="1"
     gradientTransform="matrix(0,-46.384463,46.186601,0,30.641802,51.830117)"
     gradientUnits="userSpaceOnUse">
    <stop
       stop-color="#006aff"
       offset="0"
       id="stop1" />
    <stop
       stop-color="#00a6e2"
       offset="1"
       id="stop2" />
  </linearGradient>
  <g
     id="g4"
     transform="translate(1.8272263,2.3904607)">
    <path
       d="m 18.148871,8.28901 9.40386,18.543033 c 0,0 -21.3235226,9.418254 -25.5889645,12.217341 -1.21676806,0.799035 -0.8791183,3.331779 0,4.574721 4.3894514,6.207318 13.0173325,8.751154 20.7783735,9.377562 5.791618,0.467337 11.219804,-0.51296 18.12997,-4.337972 L 30.53756,30.152723 54.491068,20.442231 c 3.308973,-2.911297 2.971321,-4.683234 2.057827,-6.478594 C 51.476779,7.280352 44.725004,4.7402107 36.898887,4.1927236 31.141646,3.7895066 24.63789,4.8043302 18.148871,8.28901 Z"
       fill="#3f3f3f"
       fill-rule="nonzero"
       id="path2"
       style="stroke-width:1.23042;fill:#476285;fill-opacity:1" />
    <ellipse
       cx="29.200459"
       cy="28.63604"
       id="circle2"
       style="stroke-width:1.23042;fill:#86c4df;fill-opacity:1"
       rx="23.141924"
       ry="23.241062" />
    <path
       d="m 29.200465,5.394975 c -3.029026,0.00736 -6.027361,0.6116068 -8.82556,1.7793323 -0.0013,0.5203591 0.308185,1.022222 0.95279,0.9790639 2.346361,-0.1566008 2.384422,-0.6658618 3.205832,0.4340436 0.82141,1.0999055 0.429737,3.3737022 -1.055927,2.7460652 -1.486886,-0.630099 -3.951113,-1.6880811 -4.576073,-0.431573 -0.626191,1.257737 0.275027,1.572168 1.488114,0.826162 1.21308,-0.746016 2.189198,-0.392125 2.42371,0.824926 0.23329,1.218277 0.158391,3.573458 -1.172564,3.140655 -1.329727,-0.432816 -1.761919,0.235512 -0.9798,0.902609 0.782121,0.6671 -0.0786,1.060446 -1.291663,0.549955 -1.211858,-0.510492 -1.173794,1.060444 -2.815392,0.98153 -1.644045,-0.07893 -1.760692,1.727542 -2.269005,2.394637 -0.508316,0.667095 -0.589358,2.828682 -0.705994,3.339176 -0.117875,0.510494 -0.62496,0.903848 -0.898766,-0.706552 -0.272578,-1.610405 0.08105,-2.319421 -1.366561,-2.436569 -1.4476024,-0.118369 -2.8964252,2.934732 -2.1523666,3.588256 0.7428252,0.653541 1.7582366,-0.602971 1.6808826,0.340338 -0.0786,0.943305 -0.584443,5.222085 0.940507,5.419378 1.524953,0.196059 2.541587,0.03947 3.793961,0.864385 1.251148,0.824932 3.596282,0.901384 5.27962,3.572234 1.682114,2.670849 3.639257,2.982815 5.516589,3.415622 1.878562,0.432815 1.680883,1.49449 0.703538,2.907597 -0.978569,1.413111 -0.428508,2.866909 -3.715375,3.966815 -3.285642,1.098673 -3.521382,3.849671 -3.403518,4.360164 0.01227,0.05428 -0.06751,0.411852 -0.121552,0.717655 2.947992,1.316928 6.137869,2.000055 9.364573,2.006219 6.153826,-0.0062 12.058406,-2.478488 16.395059,-6.863316 -0.527959,-1.693014 -1.093987,-4.021068 -1.112403,-5.009995 -0.04048,-2.080204 0.547609,-2.236806 -0.195221,-3.611689 -0.742832,-1.37488 -2.270235,-0.04193 -5.242788,-0.434041 -2.972549,-0.393356 -2.50352,-2.276267 -4.57608,-4.868195 -2.073784,-2.59193 1.919083,-4.714056 3.014295,-7.384904 0.927006,-2.260234 4.464347,-1.876748 6.177156,-1.585741 l 3.150584,-1.636294 c 0.153476,-0.127008 0.29836,-0.251551 0.488673,-0.392124 2.229718,-1.649854 -1.092761,-1.686845 -1.991522,-2.314482 -0.901223,-0.62887 -0.784579,-0.07893 -1.448829,0.746006 -0.665476,0.824928 -1.683339,-0.62887 -2.582101,-1.101138 -0.901219,-0.469803 -1.093986,1.098678 -2.149912,2.905137 -1.055916,1.806456 -1.682109,0.981528 -2.621389,0 -0.939282,-0.98153 -0.353611,-1.845921 0.62373,-2.238036 0.978569,-0.392124 1.057153,-0.548724 0.35361,-1.33296 -0.704764,-0.785472 -1.017858,-0.473507 -0.314322,-1.101143 0.704775,-0.628868 1.136961,-0.549949 2.661916,-1.49202 1.526175,-0.94331 -0.235746,-1.806459 -1.252378,-1.118403 C 37.56191,13.731814 36.270241,11.647914 35.99767,9.8944794 35.723865,8.1422738 36.544045,8.7020914 37.483327,8.0732214 37.614703,7.9856719 37.547157,7.455449 37.412107,6.9387891 34.790706,5.9276651 32.008473,5.4048397 29.200451,5.394975 Z m -1.217996,1.3539202 c 1.423041,0.054254 3.053584,0.5746143 2.573507,2.1073308 -0.624959,2.002521 -0.686349,1.411875 -1.40585,1.847155 -0.779667,0.469801 -1.175022,0.784234 -1.839277,1.727539 -0.664248,0.943298 -2.189195,0.746012 -1.350599,-0.274977 0.839829,-1.022215 0.529188,-3.7707528 0.05888,-4.5167649 0,0 -0.62496,-0.5894119 0.783354,-0.82493 0.175579,-0.029595 0.375713,-0.049323 0.59058,-0.060417 0.187856,-0.0099 0.386765,-0.012331 0.589355,-0.00492 z M 8.5952148,18.1561 c -0.2738041,0.536392 -0.5328739,1.099908 -0.7931711,1.659728 -1.1467824,2.797852 -1.7398189,5.794236 -1.7435021,8.820218 0.00733,2.273787 0.3474724,4.53402 1.0092668,6.709169 L 10.94894,33.567118 C 11.01769,32.875359 11.400779,32.68793 11.548118,32.53996 11.821919,32.264987 9.7100744,31.126851 9.7874304,28.378322 9.8647624,25.629791 7.5577082,26.257427 7.9886724,23.351063 8.3582452,20.857777 8.834639,19.121605 8.5952148,18.1561 Z M 11.629154,36.344011 8.1630226,38.204727 8.0021783,37.887823 c 1.9166242,4.424284 5.1580647,8.140782 9.2712557,10.632837 l 0.101909,-0.429112 c 0,0 -2.111845,-2.826217 -2.308296,-4.751051 -0.195219,-1.923602 -1.605988,-2.985286 -3.247578,-6.559979 -0.07123,-0.154133 -0.128921,-0.293471 -0.190315,-0.436507 z"
       fill-rule="nonzero"
       id="path3"
       style="fill:url(#linearGradient5)" />
    <path
       d="m 49.67434,9.282871 c 1.376387,1.948262 -0.45061,4.363863 1.755779,6.646291 1.328502,1.050589 0.755111,1.443936 -0.502179,1.990188 -10.873558,5.876853 -21.698009,11.852352 -32.62068,17.635487 -1.990295,0.860691 -0.392901,2.277499 0.963834,1.194856 L 54.710849,20.768997 c -1.252377,-1.490794 1.451283,-2.133229 1.714039,-3.469886 0.624959,-3.176407 -1.232736,-4.418118 -2.884149,-5.661064 -0.952787,-0.716412 -2.577192,-1.625193 -3.866399,-2.355176 z m -8.588593,10.307301 c -2.002574,0.360061 -3.775539,1.524089 -5.665154,2.270099 L 4.1726122,35.953122 c 1.6182648,2.461226 -4.80568178,3.443991 -0.96261,7.689478 1.6489603,1.821256 4.2212403,2.836083 6.0924377,4.223294 C 7.9407872,45.931192 9.6879706,43.371322 7.4607104,40.789258 6.1604504,39.672091 6.7473475,39.323127 7.994811,38.78304 18.854864,32.912352 29.667035,26.949186 40.57252,21.168513 c 0.50832,-0.212089 1.742273,-1.413109 0.513227,-1.578341 z"
       id="path4"
       style="stroke-width:1.23042;fill:#f2f2f2;fill-opacity:1"
       fill="#ffffff" />
  </g>
</svg>
