<?xml version="1.0" encoding="UTF-8" standalone="no"?>
<svg
   width="62"
   height="62"
   version="1.1"
   id="svg18"
   sodipodi:docname="duckduckgo.svg"
   inkscape:version="1.4 (unknown)"
   xmlns:inkscape="http://www.inkscape.org/namespaces/inkscape"
   xmlns:sodipodi="http://sodipodi.sourceforge.net/DTD/sodipodi-0.dtd"
   xmlns="http://www.w3.org/2000/svg"
   xmlns:svg="http://www.w3.org/2000/svg">
  <defs
     id="defs18" />
  <sodipodi:namedview
     id="namedview18"
     pagecolor="#ffffff"
     bordercolor="#000000"
     borderopacity="0.25"
     inkscape:showpageshadow="2"
     inkscape:pageopacity="0.0"
     inkscape:pagecheckerboard="0"
     inkscape:deskcolor="#d1d1d1"
     inkscape:zoom="12.078125"
     inkscape:cx="32"
     inkscape:cy="32"
     inkscape:window-width="1920"
     inkscape:window-height="996"
     inkscape:window-x="0"
     inkscape:window-y="0"
     inkscape:window-maximized="1"
     inkscape:current-layer="svg18" />
  <g
     id="g18"
     transform="translate(-0.5,-1)">
    <ellipse
       style="opacity:0.2;stroke-width:0.982299"
       cx="31.5"
       cy="32.491199"
       id="circle1"
       rx="27.5"
       ry="27.508747" />
    <ellipse
       style="fill:#e6532b;stroke-width:0.982299"
       cx="31.5"
       cy="31.508747"
       id="circle2"
       rx="27.5"
       ry="27.508747" />
    <path
       style="opacity:0.2;stroke-width:0.982299"
       d="m 21.175592,10.674878 c -0.853306,-0.0031 -1.705377,0.06197 -2.542515,0.201478 -0.05213,0.0088 -0.104143,0.01502 -0.155997,0.02421 -0.398967,0.07375 -0.642911,0.217968 -0.974312,0.271321 0.404731,0.03522 1.937311,0.736529 2.901037,1.122918 -0.468966,0.175217 -1.105303,0.283012 -1.606516,0.483549 -0.208172,0.03342 -0.408883,0.08489 -0.588418,0.163875 -0.474128,0.210917 -0.827143,1.008146 -0.823789,1.38618 2.301754,-0.228391 5.705034,-0.07104 8.194066,0.65817 -1.760561,0.243077 -3.379546,0.69212 -4.548604,1.297531 -0.05492,0.0281 -0.107566,0.05686 -0.161487,0.086 -0.138008,0.05219 -0.266914,0.108068 -0.380415,0.166557 -3.75199,1.9403 -5.410437,6.472718 -4.422719,11.903442 0.891443,4.886583 4.629559,22.029506 6.349444,30.090303 0.478703,0.181365 0.962393,0.349767 1.450518,0.505048 5e-4,0.0024 0.0022,0.0086 0.0028,0.0108 2.531175,0.721268 5.153346,0.951504 7.789018,0.95374 2.315947,-0.0187 4.620594,-0.319242 6.861224,-0.894572 -0.741408,-1.389969 -1.667839,-2.903838 -2.246938,-4.000057 -1.180541,-1.63088 -1.636236,-2.961559 -2.205885,-4.564193 -1.564511,-3.737548 -2.718884,-9.740112 -2.011568,-12.771729 -0.977658,-0.668709 0.967222,-1.334516 1.237044,-2.953251 0.207919,-1.23209 1.685492,-1.720895 3.982088,-1.861673 2.301751,-0.142558 1.544434,-1.111304 3.462091,-1.562011 0.09597,-0.02254 0.201588,-0.04646 0.311995,-0.07252 1.180505,-4.073387 -1.650605,-11.161196 -4.808515,-14.262187 -1.029542,-1.010539 -2.61187,-1.646818 -4.395382,-1.982565 -0.685978,-0.92392 -1.791842,-1.806498 -3.358155,-2.624601 -2.181354,-1.136759 -4.75015,-1.766552 -7.310071,-1.77571 z"
       id="path2" />
    <path
       style="fill:#ffffff;stroke-width:0.982299"
       d="m 21.175592,9.6924826 c -0.853306,-0.003 -1.705377,0.061962 -2.542515,0.2014803 -0.05213,0.00856 -0.104143,0.01505 -0.155997,0.024179 -0.398967,0.073735 -0.642911,0.2179701 -0.974312,0.2713251 0.404731,0.03522 1.937311,0.736525 2.901037,1.122913 -0.468966,0.175217 -1.105303,0.283016 -1.606516,0.483554 -0.208172,0.03342 -0.408883,0.08489 -0.588418,0.16387 -0.474128,0.210918 -0.827143,1.008149 -0.823789,1.386185 2.301754,-0.228393 5.705034,-0.07104 8.194066,0.658166 -1.760561,0.243076 -3.379546,0.692119 -4.548604,1.297531 -0.05492,0.0281 -0.107566,0.05686 -0.161487,0.086 -0.138008,0.05219 -0.266914,0.108069 -0.380415,0.166556 -3.75199,1.940303 -5.410437,6.472719 -4.422719,11.903441 0.891443,4.886587 4.629559,22.029506 6.349444,30.090308 0.478703,0.181361 0.962393,0.349762 1.450518,0.505044 5e-4,0.0024 0.0022,0.0086 0.0028,0.0108 2.531175,0.721268 5.153346,0.951499 7.789018,0.953735 2.315947,-0.0187 4.620594,-0.319238 6.861224,-0.894571 -0.741403,-1.389966 -1.667834,-2.903828 -2.246933,-4.000052 -1.180541,-1.630879 -1.636236,-2.96156 -2.205885,-4.564194 -1.564511,-3.737546 -2.718884,-8.561992 -2.011568,-11.593604 -0.977658,-0.668712 0.967222,-1.334518 1.237044,-2.953254 0.207919,-1.232091 1.685492,-1.720895 3.982088,-1.861677 2.301751,-0.142554 1.544434,-2.28942 3.462091,-2.740126 0.09597,-0.02254 0.201588,-0.04646 0.311995,-0.07252 1.18048,-4.073393 -1.65063,-11.161207 -4.80854,-14.262199 -1.029552,-1.010545 -2.611879,-1.64682 -4.395392,-1.982569 -0.685983,-0.923923 -1.791844,-1.806504 -3.35816,-2.624607 -2.181354,-1.136761 -4.75015,-1.76655 -7.310069,-1.7757102 z"
       id="path3" />
    <path
       fill="#d5d7d8"
       d="m 17.606923,12.698074 c -0.0056,-0.462604 0.341075,-0.721637 0.801497,-0.903177 -0.210755,0.03342 -0.412628,0.08458 -0.594396,0.163563 -0.480011,0.210924 -0.838843,1.00953 -0.835447,1.387564 2.33032,-0.228392 5.776309,-0.07037 8.296237,0.658835 0.185938,-0.0253 0.371893,-0.05065 0.560711,-0.07164 -2.513399,-1.081942 -5.501577,-1.49973 -8.228602,-1.235128"
       id="path4"
       style="stroke-width:0.982299" />
    <path
       fill="#d5d7d8"
       d="m 18.084583,9.9178893 c 0.05252,-0.00912 0.105774,-0.01544 0.158524,-0.024054 -0.502729,0.060516 -0.767808,0.2347187 -1.145184,0.2947287 0.409758,0.03522 1.96235,0.737839 2.93804,1.124229 0.136835,-0.05039 0.260118,-0.106349 0.36066,-0.172435 -0.50586,-0.07241 -1.762821,-1.1738514 -2.31204,-1.2224687"
       id="path5"
       style="stroke-width:0.982299" />
    <path
       style="fill:#d5d7d8;stroke-width:0.982299"
       d="m 20.869067,15.387653 c -0.138008,0.05219 -0.266916,0.108068 -0.380417,0.166555 -3.75199,1.940306 -5.410436,6.472719 -4.422718,11.903442 0.891442,4.886586 4.629558,22.029506 6.349443,30.090311 0.499263,0.18967 1.003957,0.365247 1.513463,0.526533 -1.548294,-7.328987 -5.703956,-26.319152 -6.653227,-31.524846 -0.972755,-5.3535 -0.02722,-9.196876 3.593456,-11.161995 z"
       id="path6" />
    <path
       style="opacity:0.2;stroke-width:0.982299"
       d="m 35.342174,31.686195 c -2.305412,0.14511 -5.561424,2.547936 -5.770136,3.817988 -0.270859,1.668611 1.029835,3.267269 2.011247,3.956583 0.0026,0.0018 0.0056,0.0042 0.0082,0.006 0.981154,0.688008 7.514156,2.909426 10.755407,2.84783 3.244878,-0.06372 8.574029,-2.066641 7.988806,-3.671563 -0.582634,-1.605448 -5.875275,1.416477 -11.395525,0.90073 -4.088274,-0.382897 -4.809961,-2.228992 -3.904678,-3.577346 1.138594,-1.694706 3.21251,0.321561 6.633213,-0.710198 3.425881,-1.028881 8.216936,-2.870538 9.994619,-3.873317 4.110279,-2.309642 -1.719938,-3.267531 -3.097024,-2.626761 -1.305353,0.60788 -5.848856,1.763612 -7.955139,2.275967 -0.110825,0.02686 -0.216738,0.0525 -0.313066,0.07569 -1.925021,0.464591 -2.645157,0.431442 -4.955752,0.578388"
       id="path7" />
    <path
       style="fill:#ffd821;stroke-width:0.982299"
       d="m 35.342174,30.703741 c -2.305412,0.14511 -5.561424,2.547936 -5.770136,3.817987 -0.270859,1.668608 1.029835,3.267266 2.011247,3.956584 0.0026,0.0018 0.0056,0.0042 0.0082,0.006 0.981154,0.688009 7.514156,2.909428 10.755407,2.847833 3.244878,-0.06372 8.574029,-2.066644 7.988806,-3.671567 -0.582634,-1.605443 -5.875275,1.416477 -11.395525,0.900728 -4.088274,-0.382895 -4.809961,-2.228985 -3.904678,-3.577339 1.138594,-1.69471 3.21251,0.321555 6.633213,-0.710199 3.425881,-1.028887 8.216936,-2.87054 9.994619,-3.873323 4.110279,-2.309635 -1.719938,-3.267531 -3.097024,-2.626761 -1.305353,0.607883 -5.848856,1.763617 -7.955139,2.275973 -0.110825,0.02686 -0.216738,0.0525 -0.313066,0.07568 -1.925021,0.46459 -2.645157,0.43144 -4.955752,0.578386"
       id="path8" />
    <path
       style="opacity:0.1;stroke-width:0.982299"
       d="m 40.237277,48.210924 c -1.01458,-0.03639 -4.266336,2.16176 -5.570455,3.074461 -0.05254,-0.212203 -0.102497,-0.378247 -0.142568,-0.476112 -0.10277,-0.243947 -0.894538,-0.307122 -1.792576,-0.22286 -0.998819,0.09378 -2.126635,0.369835 -2.587226,0.782544 -2.083487,-0.993705 -6.368328,-2.889193 -6.460147,-1.719569 -0.12591,1.549393 1.42e-4,7.864432 0.86857,8.34207 0.555893,0.304102 3.294884,-1.047705 5.198211,-2.06146 0.113458,0.09286 0.256951,0.161789 0.448805,0.2026 1.114771,0.239654 3.225742,-3.85e-4 3.973237,-0.47611 0.125168,-0.07974 0.213052,-0.239156 0.269282,-0.448254 0.0759,-0.03488 0.146203,-0.07066 0.205924,-0.108894 0.07494,-0.04794 0.135792,-0.122455 0.184798,-0.220328 0.009,0.0034 0.0173,0.0068 0.02637,0.0102 1.705504,0.631359 5.102445,1.819488 5.839738,1.560023 0.994088,-0.364494 0.743529,-7.98535 -0.372242,-8.228105 -0.02793,-0.006 -0.05704,-0.009 -0.08977,-0.0102 z"
       id="path9" />
    <path
       style="fill:#65bc46;stroke-width:0.982299"
       d="m 40.237277,47.22847 c -1.01458,-0.03639 -4.266336,2.161756 -5.570455,3.074456 -0.05254,-0.212202 -0.102497,-0.37824 -0.142568,-0.476109 -0.10277,-0.243949 -0.894538,-0.307119 -1.792576,-0.22286 -0.998819,0.09378 -2.126635,0.369837 -2.587226,0.782545 -2.083487,-0.993706 -6.368328,-2.889192 -6.460147,-1.719566 -0.12591,1.549391 1.42e-4,7.864425 0.86857,8.342063 0.555893,0.304102 3.294884,-1.047703 5.198211,-2.061455 0.113458,0.09282 0.256951,0.16179 0.448805,0.202598 1.114771,0.239654 3.225742,-3.82e-4 3.973237,-0.476109 0.125168,-0.07974 0.213052,-0.239156 0.269282,-0.448253 0.0759,-0.03488 0.146203,-0.07066 0.205924,-0.108898 0.07494,-0.04796 0.135792,-0.122452 0.184798,-0.220325 0.009,0.0034 0.0173,0.0068 0.02637,0.0102 1.705504,0.631354 5.102445,1.819486 5.839738,1.56002 0.994088,-0.364491 0.743529,-7.98535 -0.372242,-8.228105 -0.02793,-0.006 -0.05704,-0.009 -0.08977,-0.0102 z"
       id="path10" />
    <path
       fill="#43a244"
       d="m 30.674338,54.593834 c -1.118506,-0.237748 -0.744761,-1.311175 -0.744761,-3.812263 0,-0.0082 0.0026,-0.0159 0.003,-0.02412 -0.292627,0.165897 -0.477013,0.360438 -0.477013,0.580277 0,2.072148 -0.254808,3.162048 0.294369,3.611041 0.113458,0.09283 0.258786,0.160412 0.450637,0.201221 1.114775,0.239654 3.226127,0 3.973618,-0.475728 0.125165,-0.07974 0.211011,-0.23822 0.267249,-0.447319 -0.8749,0.401967 -2.743138,0.590301 -3.767088,0.366881"
       id="path11"
       style="stroke-width:0.982299" />
    <path
       style="fill:#2d4f8e;stroke-width:0.982299"
       d="m 22.511471,21.002829 c 1.180847,0.0169 1.759036,0.779055 1.759036,0.779055 0,0 -1.534701,-0.693403 -3.026612,0.244463 -1.489381,0.936856 -1.434084,1.893914 -1.434084,1.893914 0,0 -0.792197,-1.764791 1.318605,-2.629991 0.528268,-0.216359 0.989438,-0.293043 1.383055,-0.287441 z"
       id="path12" />
    <path
       style="fill:#2d4f8e;stroke-width:0.982299"
       d="m 35.670066,19.749618 c 0.223306,-0.0151 0.473512,-0.0034 0.754638,0.04294 1.219298,0.202817 1.654299,1.300218 1.654299,1.300218 0,0 -1.10464,-0.628509 -1.96045,-0.617877 -1.758701,0.02307 -2.23706,0.800561 -2.23706,0.800561 0,0 0.225425,-1.420222 1.788573,-1.525873 z"
       id="path13" />
    <path
       style="fill:#2d4f8e;stroke-width:0.982299"
       d="m 23.645446,25.614014 c 1.084471,0 1.961695,0.878628 1.961695,1.96491 0,1.086527 -0.877224,1.964909 -1.961695,1.964909 -1.087404,4.91e-4 -1.966879,-0.878382 -1.966879,-1.964909 0,-1.086282 0.879475,-1.96491 1.966879,-1.96491 z"
       id="path14" />
    <path
       style="fill:#ffffff;stroke-width:0.982299"
       d="m 24.151138,26.558118 c -0.279668,0 -0.508285,0.227469 -0.508285,0.51016 0,0.281951 0.229351,0.511377 0.508285,0.510644 0.281865,0 0.510483,-0.228693 0.510483,-0.510644 0,-0.282691 -0.228618,-0.51016 -0.510483,-0.51016"
       id="path15" />
    <path
       style="fill:#2d4f8e;stroke-width:0.982299"
       d="m 35.430074,23.649102 c 1.086981,0 1.962778,0.877895 1.962778,1.960388 0,1.087607 -0.875797,1.969434 -1.962778,1.969434 -1.081013,0 -1.965795,-0.881827 -1.965795,-1.969434 0,-1.082493 0.884782,-1.960388 1.965795,-1.960388 z"
       id="path16" />
    <path
       style="fill:#ffffff;stroke-width:0.982299"
       d="m 35.934402,24.596616 c -0.277072,0 -0.505834,0.229405 -0.505834,0.508841 0,0.283129 0.228762,0.508557 0.505834,0.508557 0.289013,0 0.510668,-0.225428 0.510668,-0.508557 0,-0.279436 -0.221655,-0.508841 -0.510668,-0.508841"
       id="path17" />
    <path
       style="opacity:0.2;fill:#ffffff;stroke-width:0.982299"
       d="M 31.499995,4 A 27.499995,27.508743 0 0 0 4,31.508743 27.499995,27.508743 0 0 0 4.0326097,31.9827 27.499995,27.508743 0 0 1 31.499995,4.982455 27.499995,27.508743 0 0 1 58.982724,31.746681 27.499995,27.508743 0 0 0 58.999991,31.508743 27.499995,27.508743 0 0 0 31.499995,4 Z"
       id="path18" />
  </g>
</svg>
