<?xml version="1.0" encoding="UTF-8" standalone="no"?>
<svg
   width="62"
   height="62"
   version="1.1"
   id="svg30"
   sodipodi:docname="duckstation.svg"
   inkscape:version="1.4 (unknown)"
   xmlns:inkscape="http://www.inkscape.org/namespaces/inkscape"
   xmlns:sodipodi="http://sodipodi.sourceforge.net/DTD/sodipodi-0.dtd"
   xmlns="http://www.w3.org/2000/svg"
   xmlns:svg="http://www.w3.org/2000/svg">
  <defs
     id="defs30" />
  <sodipodi:namedview
     id="namedview30"
     pagecolor="#ffffff"
     bordercolor="#000000"
     borderopacity="0.25"
     inkscape:showpageshadow="2"
     inkscape:pageopacity="0.0"
     inkscape:pagecheckerboard="0"
     inkscape:deskcolor="#d1d1d1"
     inkscape:zoom="7.0710678"
     inkscape:cx="20.930361"
     inkscape:cy="31.607673"
     inkscape:window-width="1920"
     inkscape:window-height="996"
     inkscape:window-x="0"
     inkscape:window-y="0"
     inkscape:window-maximized="1"
     inkscape:current-layer="svg30" />
  <g
     id="g30"
     transform="matrix(0.9999967,0,0,0.99127584,-0.49996999,-1.4678262)">
    <path
       style="opacity:0.2"
       d="M 34.007812,36 31,37.734376 v 9.792968 3.382812 l 3.007812,1.742188 3.007812,1.734374 3.007814,-1.734374 v -3.38672 -0.004 l -3.007814,-1.73828 v -9.789062 z m -10,6.613282 L 21,44.347656 v 9.789062 0.004 3.382814 L 24.007812,59.265624 27.015624,61 30.023438,59.265624 v -3.386718 l -3.007814,-1.742188 v -9.789062 z"
       id="path1" />
    <path
       style="fill:#ba2c00"
       d="M 34.007998,44.789448 31,46.52551 v 3.38606 l 3.007998,1.738998 3.008002,1.736064 3.008,-1.736064 V 48.26451 l -3.008,-1.739 z"
       id="path2" />
    <path
       style="fill:#ff7900"
       d="M 34.007998,44.788566 31,46.52463 34.007998,48.263628 37.016,49.99969 40.024,48.263628 37.016,46.52463 Z"
       id="path3" />
    <path
       style="fill:#ff4200"
       d="M 34.007998,34.998268 37.016,36.734936 v 9.790572 L 34.007998,48.262178 31,46.525508 v -9.790572 z"
       id="path4" />
    <path
       style="fill:#ff4200"
       d="m 37.016,53.386632 3.008,-1.736064 v -3.38694 l -3.008,1.736062 z"
       id="path5" />
    <path
       style="fill:#ba2c00"
       d="m 34.007998,34.998268 v 13.26391 L 31,46.525508 v -9.790572 z"
       id="path6" />
    <path
       style="fill:#ba2c00"
       d="M 24.007998,51.402818 21,53.138878 v 3.38606 l 3.007998,1.739 L 27.016,60 30.024,58.263938 V 54.87788 l -3.008,-1.739002 z"
       id="path7" />
    <path
       style="fill:#ff4200"
       d="m 27.016,60 3.008,-1.736062 v -3.38694 l -3.008,1.736062 z"
       id="path8" />
    <path
       style="fill:#ff7900"
       d="M 24.007998,51.401936 21,53.137998 l 3.007998,1.739 3.008002,1.736062 3.008,-1.736062 -3.008,-1.739 z"
       id="path9" />
    <path
       style="fill:#ff4200"
       d="M 24.007998,41.611638 27.016,43.348306 v 9.79057 L 24.007998,54.875546 21,53.138876 v -9.79057 z"
       id="path10" />
    <path
       style="fill:#ba2c00"
       d="M 24.007998,41.611638 V 54.875546 L 21,53.138876 v -9.79057 z"
       id="path11" />
    <path
       style="opacity:0.2"
       d="m 25,13.535589 15.999998,9.237604 V 41.248399 L 25,50.486002 9.0000017,41.248398 l 5e-7,-18.475206 z"
       id="path12" />
    <path
       style="fill:#ffce00"
       d="m 25,12.535587 15.999998,9.237604 V 40.248397 L 25,49.486 9.0000017,40.248396 l 5e-7,-18.475206 z"
       id="path13" />
    <path
       style="fill:#ff6700"
       d="m 9,21.772136 v 18.476562 l 15.999998,9.236978 V 31.011718 Z"
       id="path14" />
    <path
       style="fill:#ffc200"
       d="M 24.999998,12.535154 9,21.772136 24.999998,31.011718 41,21.772136 Z"
       id="path15" />
    <path
       style="opacity:0.2"
       d="m 34.999997,6.5083885 13.999998,8.0829035 -10e-7,16.165806 L 34.999996,38.84 20.999997,30.757097 l 1e-6,-16.165806 z"
       id="path16" />
    <path
       style="fill:#ff9e02"
       d="m 34.999997,4.5081787 13.999998,8.0829033 -10e-7,16.165806 -13.999998,8.082902 -13.999999,-8.082903 1e-6,-16.165806 z"
       id="path17" />
    <path
       style="fill:#3f3f3f"
       d="m 37,24.246208 3,-1.799998 v 4.05 l -3,1.799998 z"
       id="path18" />
    <path
       style="fill:#ff6700"
       d="M 21.000002,12.58996 V 28.755584 L 35,36.84113 V 20.672772 Z"
       id="path19" />
    <path
       style="fill:#ffc200"
       d="M 35,4.5071472 21.000002,12.58996 35,20.672772 49,12.58996 Z"
       id="path20" />
    <path
       style="fill:#3f3f3f"
       d="m 44,20.499994 3,-1.799999 v 4.050003 L 44,24.55 Z"
       id="path21" />
    <path
       style="opacity:0.2"
       d="m 46,29.59 -8,1.332032 V 33.59 l 8,4 8,-4 v -2.667968 z"
       id="path22" />
    <path
       style="fill:#ba2c00"
       d="M 46,28.588012 V 36.588 L 38.000012,32.588008 38,29.921346 Z"
       id="path23" />
    <path
       style="fill:#ff7900"
       d="M 46,28.588012 V 36.588 L 53.999988,32.588008 54,29.921344 Z"
       id="path24" />
    <rect
       style="fill:#ff4200"
       width="8.9440002"
       height="8.9440002"
       x="54.700001"
       y="3.27"
       transform="matrix(0.89442719,0.44721359,-0.89442719,0.44721359,0,0)"
       id="rect24" />
    <path
       style="opacity:0.2"
       d="m 14,8.3229938 5,2.8867512 v 5.773503 L 14,19.869999 8.9999998,16.983248 9,11.209745 Z"
       id="path25" />
    <path
       style="fill:#ff9e02"
       d="m 14,7.3229938 5,2.8867512 v 5.773503 L 14,18.869999 8.9999998,15.983248 9,10.209745 Z"
       id="path26" />
    <path
       style="fill:#ff6700"
       d="m 9.0000012,10.209414 v 5.773927 l 4.9999998,2.885742 c 0,9.16e-4 0,-5.771485 0,-5.771485 z"
       id="path27" />
    <path
       style="fill:#ffc200"
       d="M 14.000001,7.3236729 9.0000012,10.209414 14.000001,13.097598 19,10.209414 Z"
       id="path28" />
    <path
       style="opacity:0.2;fill:#ffffff"
       d="m 35,4.5078125 -14,8.0820315 0.865234,0.5 L 35,5.5078125 48.134766,13.089844 49,12.589844 Z"
       id="path29" />
    <path
       style="opacity:0.2;fill:#ffffff"
       d="m 14,7.3242188 -5,2.8847652 0.8652344,0.5 L 14,8.3242188 18.134766,10.708984 19,10.208984 Z"
       id="path30" />
  </g>
</svg>
