<?xml version="1.0" encoding="UTF-8" standalone="no"?>
<svg
   width="62"
   height="62"
   version="1.1"
   id="svg5"
   sodipodi:docname="dupeguru.svg"
   inkscape:version="1.4 (unknown)"
   xmlns:inkscape="http://www.inkscape.org/namespaces/inkscape"
   xmlns:sodipodi="http://sodipodi.sourceforge.net/DTD/sodipodi-0.dtd"
   xmlns:xlink="http://www.w3.org/1999/xlink"
   xmlns="http://www.w3.org/2000/svg"
   xmlns:svg="http://www.w3.org/2000/svg">
  <defs
     id="defs5">
    <linearGradient
       id="linearGradient1"
       inkscape:collect="always">
      <stop
         style="stop-color:#b3b3b3;stop-opacity:1"
         offset="0"
         id="stop1" />
      <stop
         style="stop-color:#ececec;stop-opacity:1"
         offset="1"
         id="stop2" />
    </linearGradient>
    <linearGradient
       inkscape:collect="always"
       xlink:href="#linearGradient1"
       id="linearGradient2"
       x1="31"
       y1="58.017544"
       x2="31.890375"
       y2="3.9824562"
       gradientUnits="userSpaceOnUse" />
  </defs>
  <sodipodi:namedview
     id="namedview5"
     pagecolor="#ffffff"
     bordercolor="#000000"
     borderopacity="0.25"
     inkscape:showpageshadow="2"
     inkscape:pageopacity="0.0"
     inkscape:pagecheckerboard="0"
     inkscape:deskcolor="#d1d1d1"
     inkscape:zoom="5.84375"
     inkscape:cx="-2.9090909"
     inkscape:cy="38.930481"
     inkscape:window-width="1920"
     inkscape:window-height="996"
     inkscape:window-x="0"
     inkscape:window-y="0"
     inkscape:window-maximized="1"
     inkscape:current-layer="svg5" />
  <rect
     style="opacity:0.2;stroke-width:0.9823"
     width="55"
     height="55.017544"
     x="3.5"
     y="3.9824562"
     rx="8.25"
     ry="8.2526312"
     id="rect1" />
  <rect
     style="fill:url(#linearGradient2);stroke-width:0.9823"
     width="55"
     height="55.017544"
     x="3.5"
     y="3"
     rx="8.25"
     ry="8.2526312"
     id="rect2" />
  <path
     style="opacity:0.1;fill:#ffffff;stroke-width:0.9823"
     d="M 11.748466,3 C 7.1779651,3 3.4999999,6.6791384 3.4999999,11.251097 v 0.982456 c 0,-4.5719585 3.6779652,-8.2510968 8.2484661,-8.2510968 h 38.503068 c 4.5705,0 8.248466,3.6791383 8.248466,8.2510968 V 11.251097 C 58.5,6.6791384 54.822034,3 50.251534,3 Z"
     id="path4" />
  <g
     id="g1"
     transform="translate(1.21123,0.00811)">
    <path
       style="opacity:0.1;stroke-width:1.01344"
       d="m 16.62999,11.991243 c -1.106922,0 -1.73311,0.811828 -1.73311,1.818388 v 8.849757 c 0,0 -6.84e-4,1.332052 -1.370044,1.332052 H 10.78877 l 6.16216,6.66808 6.16216,6.666125 5.71284,-6.181742 c -3.253316,-3.325918 -6.570708,-7.275888 -7.506124,-17.760059 -0.06918,-1.143267 -1.115287,-1.392601 -1.115287,-1.392601 z m 9.899172,0 c 0,0 -1.112686,0.340686 -1.279774,1.230489 -1.198928,6.866057 -0.377434,12.875462 4.136194,17.316691 L 35.43742,23.99144 h -2.738076 c -1.369366,0 -1.370034,-1.332052 -1.370034,-1.332052 v -8.849757 c 0,-1.00656 -1.155729,-1.818388 -2.262665,-1.818388 z m 9.935288,13.666241 -5.71284,6.181742 c 3.253316,3.325917 6.570708,7.277841 7.506124,17.762011 0.06918,1.143269 1.115287,1.390653 1.115287,1.390653 h 3.574529 c 1.106922,0 1.73311,-0.811834 1.73311,-1.81839 v -8.849759 c 0,0 6.84e-4,-1.332053 1.370044,-1.332053 h 2.738066 l -6.16216,-6.668079 z m -6.272492,6.787221 -6.051838,6.546983 h 2.738076 c 1.369366,0 1.370034,1.332053 1.370034,1.332053 V 49.1735 c 0,1.006556 1.155729,1.81839 2.262665,1.81839 h 2.537483 c 0,0 1.112686,-0.340696 1.279774,-1.230491 1.198928,-6.86606 0.377434,-12.875465 -4.136194,-17.316694 z"
       id="path2" />
    <path
       style="fill:#6c5d53;stroke-width:1.01344"
       d="m 36.464458,24.657784 -5.712846,6.182391 c 3.253316,3.325918 6.57165,7.276217 7.507056,17.760386 0.06918,1.143268 1.114998,1.390973 1.114998,1.390973 h 3.573888 c 1.106922,0 1.733114,-0.811173 1.733114,-1.81774 v -8.849105 c 0,0 0,-1.333358 1.36936,-1.333358 h 2.738742 l -6.162164,-6.666773 z m -6.271832,6.786567 -6.052506,6.54698 h 2.738742 c 1.369376,0 1.369376,1.333358 1.369376,1.333358 v 8.849105 c 0,1.006567 1.155722,1.81774 2.262658,1.81774 h 2.538378 c 0,0 1.112532,-0.339736 1.27962,-1.229541 1.198928,-6.866054 0.37736,-12.876412 -4.136268,-17.317642 z"
       id="path3" />
    <path
       style="fill:#ff954e;stroke-width:1.01344;fill-opacity:1"
       d="m 23.113082,36.325644 5.712846,-6.182392 c -3.253316,-3.325917 -6.57165,-7.276216 -7.507056,-17.760387 -0.0692,-1.143267 -1.114998,-1.390975 -1.114998,-1.390975 h -3.573888 c -1.106922,0 -1.733114,0.811181 -1.733114,1.817742 v 8.849106 c 0,0 0,1.333358 -1.36936,1.333358 H 10.78877 l 6.162164,6.666774 z m 6.271832,-6.786568 6.052506,-6.54698 h -2.738742 c -1.369376,0 -1.369376,-1.333358 -1.369376,-1.333358 v -8.849106 c 0,-1.006561 -1.155722,-1.817742 -2.262658,-1.817742 h -2.538378 c 0,0 -1.112532,0.339737 -1.27962,1.22954 -1.198928,6.866057 -0.37736,12.876417 4.136268,17.317646 z"
       id="path4-3" />
  </g>
</svg>
