<?xml version="1.0" encoding="UTF-8" standalone="no"?>
<svg
   width="62"
   height="62"
   version="1.1"
   id="svg4"
   sodipodi:docname="edb-debugger.svg"
   inkscape:version="1.4 (unknown)"
   xmlns:inkscape="http://www.inkscape.org/namespaces/inkscape"
   xmlns:sodipodi="http://sodipodi.sourceforge.net/DTD/sodipodi-0.dtd"
   xmlns:xlink="http://www.w3.org/1999/xlink"
   xmlns="http://www.w3.org/2000/svg"
   xmlns:svg="http://www.w3.org/2000/svg">
  <defs
     id="defs4">
    <linearGradient
       id="linearGradient4"
       inkscape:collect="always">
      <stop
         style="stop-color:#3e5674;stop-opacity:1;"
         offset="0"
         id="stop4" />
      <stop
         style="stop-color:#7996b9;stop-opacity:1;"
         offset="1"
         id="stop5" />
    </linearGradient>
    <linearGradient
       inkscape:collect="always"
       xlink:href="#linearGradient4"
       id="linearGradient5"
       x1="32"
       y1="60"
       x2="32"
       y2="5"
       gradientUnits="userSpaceOnUse" />
  </defs>
  <sodipodi:namedview
     id="namedview4"
     pagecolor="#ffffff"
     bordercolor="#000000"
     borderopacity="0.25"
     inkscape:showpageshadow="2"
     inkscape:pageopacity="0.0"
     inkscape:pagecheckerboard="0"
     inkscape:deskcolor="#d1d1d1"
     inkscape:zoom="8.5405241"
     inkscape:cx="37.351338"
     inkscape:cy="28.159864"
     inkscape:window-width="1920"
     inkscape:window-height="996"
     inkscape:window-x="0"
     inkscape:window-y="0"
     inkscape:window-maximized="1"
     inkscape:current-layer="svg4" />
  <g
     id="g4"
     transform="matrix(0.98214286,0,0,0.98245614,-0.42857152,-0.92982455)">
    <circle
       cx="32"
       cy="33"
       r="28"
       style="opacity:0.2"
       id="circle1" />
    <path
       style="fill:url(#linearGradient5);fill-opacity:1"
       id="circle2"
       sodipodi:type="arc"
       sodipodi:cx="32"
       sodipodi:cy="32"
       sodipodi:rx="28"
       sodipodi:ry="28"
       sodipodi:start="0"
       sodipodi:end="6.2808388"
       sodipodi:open="true"
       sodipodi:arc-type="arc"
       d="M 60,32 A 28,28 0 0 1 32.016426,59.999995 28,28 0 0 1 4.0000193,32.032851 28,28 0 0 1 31.950723,4.0000434 28,28 0 0 1 59.999923,31.934298" />
    <path
       d="M 32,4 A 28,28 0 0 0 4,32 28,28 0 0 0 4.0215,32.586 28,28 0 0 1 32,5 28,28 0 0 1 59.979,32.414 28,28 0 0 0 60,32 28,28 0 0 0 32,4 Z"
       style="opacity:0.2;fill:#ffffff"
       id="path2" />
    <path
       d="m 49,13 c 0,0 -42,2 -42,20 1e-7,18 42,20 42,20 C 49,53 10,47 10,33 10,19 49,13 49,13 Z m -3,3 C 46,16 12,22 12,33 12,44 46,50 46,50 46,50 15,40 15,33 15,26 46,16 46,16 Z m -6,6 c 0,0 -23,4 -23,11 0,7 23,11 23,11 0,0 -20,-5 -20,-11 0,-6 20,-11 20,-11 z"
       style="opacity:0.2"
       id="path3" />
    <path
       d="m 49,12 c 0,0 -42,2 -42,20 1e-7,18 42,20 42,20 C 49,52 10,46 10,32 10,18 49,12 49,12 Z m -3,3 C 46,15 12,21 12,32 12,43 46,49 46,49 46,49 15,39 15,32 15,25 46,15 46,15 Z m -6,6 c 0,0 -23,4 -23,11 0,7 23,11 23,11 0,0 -20,-5 -20,-11 0,-6 20,-11 20,-11 z"
       style="fill:#f2f2f2;fill-opacity:1"
       id="path4" />
  </g>
</svg>
