<?xml version="1.0" encoding="UTF-8" standalone="no"?>
<svg
   width="62"
   height="62"
   version="1"
   id="svg12"
   sodipodi:docname="entangle.svg"
   inkscape:version="1.4 (unknown)"
   xmlns:inkscape="http://www.inkscape.org/namespaces/inkscape"
   xmlns:sodipodi="http://sodipodi.sourceforge.net/DTD/sodipodi-0.dtd"
   xmlns="http://www.w3.org/2000/svg"
   xmlns:svg="http://www.w3.org/2000/svg">
  <defs
     id="defs12" />
  <sodipodi:namedview
     id="namedview12"
     pagecolor="#ffffff"
     bordercolor="#000000"
     borderopacity="0.25"
     inkscape:showpageshadow="2"
     inkscape:pageopacity="0.0"
     inkscape:pagecheckerboard="0"
     inkscape:deskcolor="#d1d1d1"
     inkscape:zoom="10"
     inkscape:cx="19.65"
     inkscape:cy="30.25"
     inkscape:window-width="1920"
     inkscape:window-height="996"
     inkscape:window-x="0"
     inkscape:window-y="0"
     inkscape:window-maximized="1"
     inkscape:current-layer="svg12" />
  <g
     id="g12"
     transform="matrix(0.98214286,0,0,0.98245614,-0.42857152,-0.92982455)">
    <circle
       style="opacity:0.2"
       cx="40"
       cy="41"
       r="20"
       id="circle1" />
    <circle
       style="fill:#2c80a2"
       cx="40"
       cy="40"
       r="20"
       id="circle2" />
    <circle
       style="opacity:0.2"
       cx="40"
       cy="41"
       r="12"
       id="circle3" />
    <circle
       style="fill:#ffffff"
       cx="40"
       cy="40"
       r="12"
       id="circle4" />
    <circle
       style="opacity:0.2"
       cx="24"
       cy="25"
       r="20"
       id="circle5" />
    <circle
       style="fill:#37abc8"
       cx="24"
       cy="24"
       r="20"
       id="circle6" />
    <circle
       style="opacity:0.2"
       cx="24"
       cy="25"
       r="12"
       id="circle7" />
    <circle
       style="fill:#ffffff"
       cx="24"
       cy="24"
       r="12"
       id="circle8" />
    <path
       style="opacity:0.2;fill:none;stroke:#000000;stroke-width:2;stroke-linecap:round"
       d="m 39.01399,44.985892 c 0,0 -1.306868,-9.400722 -6,-14 -4.69313,-4.599284 -12,-6 -12,-6"
       id="path8" />
    <path
       style="fill:none;stroke:#c83771;stroke-width:2;stroke-linecap:round;stroke-opacity:1"
       d="m 39.01399,43.985892 c 0,0 -1.306868,-9.400722 -6,-14 -4.69313,-4.599284 -12,-6 -12,-6"
       id="path9" />
    <path
       style="opacity:0.2;fill:none;stroke:#000000;stroke-width:2;stroke-linecap:round"
       d="m 25.002048,20.997238 c 0,0 1.306868,9.400722 6,14 4.69313,4.599284 12,6 12,6"
       id="path10" />
    <path
       style="fill:none;stroke:#c83771;stroke-width:2;stroke-linecap:round;stroke-opacity:1"
       d="m 25.002048,19.997238 c 0,0 1.306868,9.400722 6,14 4.69313,4.599284 12,6 12,6"
       id="path11" />
    <path
       style="opacity:0.2;fill:#ffffff"
       d="M 24,4 A 20,20 0 0 0 4,24 20,20 0 0 0 4.0175781,24.494141 20,20 0 0 1 24,5 20,20 0 0 1 43.974609,24.490234 20,20 0 0 0 44,24 20,20 0 0 0 24,4 Z"
       id="path12" />
  </g>
</svg>
