<?xml version="1.0" encoding="UTF-8" standalone="no"?>
<svg
   width="62"
   height="62"
   version="1"
   id="svg4"
   sodipodi:docname="exaile.svg"
   inkscape:version="1.4 (unknown)"
   xmlns:inkscape="http://www.inkscape.org/namespaces/inkscape"
   xmlns:sodipodi="http://sodipodi.sourceforge.net/DTD/sodipodi-0.dtd"
   xmlns="http://www.w3.org/2000/svg"
   xmlns:svg="http://www.w3.org/2000/svg">
  <defs
     id="defs4" />
  <sodipodi:namedview
     id="namedview4"
     pagecolor="#ffffff"
     bordercolor="#000000"
     borderopacity="0.25"
     inkscape:showpageshadow="2"
     inkscape:pageopacity="0.0"
     inkscape:pagecheckerboard="0"
     inkscape:deskcolor="#d1d1d1"
     inkscape:zoom="7.0710678"
     inkscape:cx="57.629203"
     inkscape:cy="41.790011"
     inkscape:window-width="1920"
     inkscape:window-height="996"
     inkscape:window-x="0"
     inkscape:window-y="0"
     inkscape:window-maximized="1"
     inkscape:current-layer="svg4" />
  <path
     style="opacity:0.2"
     d="m 5.0507996,30.500416 c -0.0126,0.333995 -0.050799,0.66199 -0.050799,0.999984 C 5.0000004,45.904179 16.595822,57.5 30.9996,57.5 c 14.403778,0 25.9996,-11.595821 25.9996,-25.9996 0,-0.337994 -0.038,-0.665989 -0.05,-0.999984 -0.527991,13.931785 -11.883817,24.999615 -25.9496,24.999615 -14.065783,0 -25.4216085,-11.06783 -25.9496004,-24.999615 z"
     id="path1" />
  <rect
     style="fill:#a6c738;fill-opacity:1"
     width="51.999001"
     height="51.999001"
     x="-56.5"
     y="-57"
     rx="26"
     ry="26"
     transform="matrix(0,-1,-1,0,0,0)"
     id="rect1" />
  <path
     style="opacity:0.2;fill:#ffffff"
     d="M 31,4.5 C 16.596222,4.5 5,16.096222 5,30.5 5,30.61092 5.011605,30.718793 5.017578,30.828125 5.3726906,16.738364 16.821617,5.5 31,5.5 45.178383,5.5 56.627309,16.738364 56.982422,30.828125 56.988345,30.718793 57,30.61092 57,30.5 57,16.096222 45.403778,4.5 31,4.5 Z"
     id="path2" />
  <path
     d="M 25.30706,18.439739 C 24.45698,17.904009 23.364486,17.854132 22.462887,18.310172 21.562564,18.766298 21,19.653635 21,20.620531 v 20.758782 c 0,0.966896 0.562493,1.854233 1.462887,2.310359 0.901569,0.45617 1.994063,0.406467 2.844173,-0.129566 4.698867,-2.963696 12.126376,-7.647377 16.459806,-10.379413 0.769782,-0.48581 1.233132,-1.304246 1.233132,-2.180879 0,-0.876633 -0.46331,-1.695026 -1.233132,-2.180879 -4.33343,-2.731906 -11.760939,-7.415544 -16.459806,-10.37924 z"
     fill-opacity="0.85"
     id="path3-7"
     style="fill:#ffffff;fill-opacity:1;stroke-width:1.22129" />
</svg>
