<?xml version="1.0" encoding="UTF-8" standalone="no"?>
<svg
   id="svg5"
   width="62"
   height="62"
   version="1.1"
   sodipodi:docname="extra-finder.svg"
   inkscape:version="1.4 (unknown)"
   xmlns:inkscape="http://www.inkscape.org/namespaces/inkscape"
   xmlns:sodipodi="http://sodipodi.sourceforge.net/DTD/sodipodi-0.dtd"
   xmlns="http://www.w3.org/2000/svg"
   xmlns:svg="http://www.w3.org/2000/svg">
  <sodipodi:namedview
     id="namedview1"
     pagecolor="#ffffff"
     bordercolor="#000000"
     borderopacity="0.25"
     inkscape:showpageshadow="2"
     inkscape:pageopacity="0.0"
     inkscape:pagecheckerboard="0"
     inkscape:deskcolor="#d1d1d1"
     inkscape:zoom="6.0390625"
     inkscape:cx="24.589909"
     inkscape:cy="43.467012"
     inkscape:window-width="1920"
     inkscape:window-height="996"
     inkscape:window-x="0"
     inkscape:window-y="0"
     inkscape:window-maximized="1"
     inkscape:current-layer="svg5" />
  <defs
     id="defs4">
    <radialGradient
       id="a-0"
       cx="27.024"
       cy="39.514"
       r="32"
       gradientTransform="matrix(1.1065233,0.20756718,-0.20172218,1.0754608,7.4370973,-1.9634505)"
       gradientUnits="userSpaceOnUse">
      <stop
         id="stop3-7"
         stop-color="#9d96db"
         stop-opacity=".54697"
         offset=".43079" />
      <stop
         id="stop4-59"
         stop-color="#8078d0"
         stop-opacity=".37261"
         offset=".55784" />
    </radialGradient>
  </defs>
  <g
     id="g1"
     transform="translate(-3.0000435,-3.000087)">
    <path
       id="path7"
       d="m 19.001692,6.000087 c -7.202814,0 -13.001605,5.799141 -13.001605,13.001605 V 34.000043 48.998395 C 6.000087,56.201209 11.799228,62 19.001692,62 H 34.000043 48.998395 C 56.201209,62 62,56.200859 62,48.998395 V 19.002567 C 62,11.799753 56.200859,6.000962 48.998395,6.000962 H 34.000043 19.001692 Z"
       fill="#b1c1ec"
       fill-opacity="0.86914"
       stroke-width="0.888999" />
    <path
       id="path9"
       d="m 19.001692,6.000087 c -7.202814,0 -13.001605,5.799141 -13.001605,13.001605 V 34.000043 48.998395 C 6.000087,56.201209 11.799228,62 19.001692,62 H 34.000043 48.998395 C 56.201209,62 62,56.200859 62,48.998395 V 19.002567 C 62,11.799753 56.200859,6.000962 48.998395,6.000962 H 34.000043 19.001692 Z"
       fill="url(#a-0)"
       stroke-width="0.888999"
       style="fill:url(#a-0)" />
    <path
       id="path8"
       d="m 19.001692,6.000087 c -7.202814,0 -13.001605,5.799141 -13.001605,13.001605 V 34.000043 48.998395 C 6.000087,56.201209 11.799228,62 19.001692,62 h 14.998351 6.671865 C 38.456324,55.28106 37.612738,44.138652 40.125034,38.516786 h -9.542735 c 0,-8.123575 4.050456,-21.947591 11.347857,-32.516699 H 34.000481 19.002129 Z"
       fill="#2677f5"
       stroke-width="0.888999" />
    <path
       id="path15"
       d="M 39.22291,6.000087 C 32.106109,16.63132 28.203177,30.141299 28.203177,38.515911 v 1.354848 h 9.050986 c -0.598324,1.992809 -0.899148,4.232106 -0.984373,6.576577 -6.472015,0.292906 -13.208105,-1.075023 -20.261469,-4.177418 l -1.03906,2.512033 c 7.298801,3.210108 14.414727,4.657618 21.272966,4.374994 0.03693,1.082023 0.12936,2.184346 0.246094,3.274157 0.329839,3.079295 0.956636,6.970589 1.777297,9.568985 h 2.761671 c -0.878762,-2.526821 -1.594335,-6.610965 -1.941447,-9.850735 -0.113663,-1.06111 -0.159758,-2.135346 -0.191406,-3.189457 4.852217,-0.522628 9.565485,-1.923335 14.136478,-4.205594 l -1.148436,-2.455683 c -4.223094,2.108309 -8.549087,3.403657 -12.98848,3.923406 0.119954,-2.790983 0.556499,-5.327167 1.367185,-7.141039 l 0.847655,-1.919309 H 30.991229 c 0.39207,-7.959075 4.389168,-21.218717 11.484357,-31.1613265 z m 3.335932,14.310603 v 6.745977 h 2.624996 V 20.31069 Z m -21.874965,0.141128 v 6.774152 h 2.624995 v -6.774152 z"
       color="#000000"
       fill="#1e334a"
       stroke-width="0.888999"
       style="text-indent:0;text-decoration-line:none;text-transform:none" />
  </g>
  <rect
     id="rect20"
     x="164.66"
     y="-2.4139999e-06"
     width="64"
     height="64"
     rx="14.859"
     ry="14.859"
     fill="#215185" />
</svg>
