<?xml version="1.0" encoding="UTF-8" standalone="no"?>
<svg
   width="62"
   height="62"
   version="1.1"
   id="svg9"
   sodipodi:docname="FamiStudio.svg"
   inkscape:version="1.4 (unknown)"
   xmlns:inkscape="http://www.inkscape.org/namespaces/inkscape"
   xmlns:sodipodi="http://sodipodi.sourceforge.net/DTD/sodipodi-0.dtd"
   xmlns="http://www.w3.org/2000/svg"
   xmlns:svg="http://www.w3.org/2000/svg">
  <defs
     id="defs9" />
  <sodipodi:namedview
     id="namedview9"
     pagecolor="#ffffff"
     bordercolor="#000000"
     borderopacity="0.25"
     inkscape:showpageshadow="2"
     inkscape:pageopacity="0.0"
     inkscape:pagecheckerboard="0"
     inkscape:deskcolor="#d1d1d1"
     inkscape:zoom="5"
     inkscape:cx="8.9"
     inkscape:cy="42.7"
     inkscape:window-width="1920"
     inkscape:window-height="996"
     inkscape:window-x="0"
     inkscape:window-y="0"
     inkscape:window-maximized="1"
     inkscape:current-layer="svg9" />
  <g
     id="g9"
     transform="matrix(0.98214286,0,0,0.98245614,-0.42857152,-0.92982455)">
    <rect
       style="opacity:0.2"
       width="56"
       height="56"
       x="4"
       y="5"
       ry="8.3999996"
       id="rect1" />
    <rect
       style="fill:#2b3b50;fill-opacity:1"
       width="56"
       height="56"
       x="4"
       y="4"
       ry="8.3999996"
       id="rect2" />
    <path
       style="opacity:0.2"
       d="M 22,5 V 23 H 4 V 43 H 22 V 60 H 42 V 43 H 60 V 23 H 42 V 5 Z"
       id="path2" />
    <rect
       style="fill:#c9cfdb"
       width="20"
       height="20"
       x="22"
       y="22"
       id="rect3" />
    <rect
       style="fill:#2ad4ff"
       width="18"
       height="20"
       x="42"
       y="22"
       id="rect4" />
    <rect
       style="fill:#c83771"
       width="18"
       height="20"
       x="4"
       y="22"
       ry="0"
       id="rect5" />
    <rect
       style="fill:#ffb380"
       width="20"
       height="18"
       x="22"
       y="4"
       id="rect6" />
    <rect
       style="fill:#55ff99"
       width="20"
       height="18"
       x="22"
       y="42"
       id="rect7" />
    <path
       style="opacity:0.1"
       d="M 27,9 V 19 H 37 V 9 Z m 18,18 v 3 h 3 v -3 z m 3,3 v 3 h 3 v -3 z m 3,0 h 3 v -3 h -3 z m 3,0 v 3 h 3 v -3 z m 0,3 h -3 v 3 h 3 z m 0,3 v 3 h 3 v -3 z m -3,0 h -3 v 3 h 3 z m -3,0 v -3 h -3 v 3 z M 13,28 8,38 h 10 z m 17,17 v 13 h 2 V 45 Z m -3,1 v 11 h 2 V 46 Z m 6,1 v 9 h 2 v -9 z m 3,2 v 5 h 2 v -5 z"
       id="path7" />
    <path
       style="fill:#30373a"
       d="M 27,8 V 18 H 37 V 8 Z m 18,18 v 3 h 3 v -3 z m 3,3 v 3 h 3 v -3 z m 3,0 h 3 v -3 h -3 z m 3,0 v 3 h 3 v -3 z m 0,3 h -3 v 3 h 3 z m 0,3 v 3 h 3 v -3 z m -3,0 h -3 v 3 h 3 z m -3,0 v -3 h -3 v 3 z M 13,27 8,37 h 10 z m 17,17 v 13 h 2 V 44 Z m -3,1 v 11 h 2 V 45 Z m 6,1 v 9 h 2 v -9 z m 3,2 v 5 h 2 v -5 z"
       id="path8" />
    <path
       style="opacity:0.1;fill:#ffffff"
       d="M 12.398438,4 C 7.7448373,4 4,7.7448373 4,12.398438 v 1 C 4,8.7448373 7.7448373,5 12.398438,5 H 51.601562 C 56.255162,5 60,8.7448373 60,13.398438 v -1 C 60,7.7448373 56.255162,4 51.601562,4 Z"
       id="path9" />
  </g>
</svg>
