<?xml version="1.0" encoding="UTF-8" standalone="no"?>
<svg
   width="62"
   height="62"
   version="1.1"
   id="svg29"
   sodipodi:docname="fceux.svg"
   inkscape:version="1.4 (unknown)"
   xmlns:inkscape="http://www.inkscape.org/namespaces/inkscape"
   xmlns:sodipodi="http://sodipodi.sourceforge.net/DTD/sodipodi-0.dtd"
   xmlns:xlink="http://www.w3.org/1999/xlink"
   xmlns="http://www.w3.org/2000/svg"
   xmlns:svg="http://www.w3.org/2000/svg">
  <defs
     id="defs29">
    <linearGradient
       id="linearGradient3"
       inkscape:collect="always">
      <stop
         style="stop-color:#cccccc;stop-opacity:1"
         offset="0"
         id="stop3" />
      <stop
         style="stop-color:#f2f2f2;stop-opacity:1"
         offset="1"
         id="stop4" />
    </linearGradient>
    <linearGradient
       id="linearGradient1"
       inkscape:collect="always">
      <stop
         style="stop-color:#ff2a2a;stop-opacity:1"
         offset="0"
         id="stop1" />
      <stop
         style="stop-color:#ffaaaa;stop-opacity:1"
         offset="1"
         id="stop2" />
    </linearGradient>
    <linearGradient
       id="linearGradient29"
       inkscape:collect="always">
      <stop
         style="stop-color:#2d3d53;stop-opacity:1;"
         offset="0"
         id="stop29" />
      <stop
         style="stop-color:#354864;stop-opacity:1;"
         offset="1"
         id="stop30" />
    </linearGradient>
    <linearGradient
       inkscape:collect="always"
       xlink:href="#linearGradient29"
       id="linearGradient30"
       x1="30.782633"
       y1="60"
       x2="30.193521"
       y2="5"
       gradientUnits="userSpaceOnUse"
       gradientTransform="matrix(0.98214286,0,0,0.98245614,-0.42857152,-0.92982455)" />
    <linearGradient
       inkscape:collect="always"
       xlink:href="#linearGradient1"
       id="linearGradient2"
       x1="256"
       y1="512"
       x2="256"
       y2="264.21301"
       gradientUnits="userSpaceOnUse" />
    <linearGradient
       inkscape:collect="always"
       xlink:href="#linearGradient3"
       id="linearGradient4"
       x1="256"
       y1="247.77901"
       x2="255.9995"
       y2="0"
       gradientUnits="userSpaceOnUse" />
  </defs>
  <sodipodi:namedview
     id="namedview29"
     pagecolor="#ffffff"
     bordercolor="#000000"
     borderopacity="0.25"
     inkscape:showpageshadow="2"
     inkscape:pageopacity="0.0"
     inkscape:pagecheckerboard="0"
     inkscape:deskcolor="#d1d1d1"
     inkscape:zoom="7.0710678"
     inkscape:cx="20.435386"
     inkscape:cy="48.153972"
     inkscape:window-width="1920"
     inkscape:window-height="996"
     inkscape:window-x="0"
     inkscape:window-y="0"
     inkscape:window-maximized="1"
     inkscape:current-layer="svg29" />
  <rect
     style="opacity:0.2;stroke-width:0.9823"
     width="55"
     height="55.017544"
     x="3.5"
     y="3.9824562"
     ry="13.754386"
     id="rect1" />
  <rect
     style="fill:url(#linearGradient30);stroke-width:0.9823"
     width="55"
     height="55.017544"
     x="3.5"
     y="3"
     ry="13.754386"
     id="rect2" />
  <path
     style="opacity:0.1;fill:#ffffff;stroke-width:0.9823"
     d="M 17.25,3 C 9.6324999,3 3.4999999,9.1344561 3.4999999,16.754386 v 0.982456 c 0,-7.61993 6.1325,-13.7543858 13.7500001,-13.7543858 h 27.5 c 7.6175,0 13.75,6.1344558 13.75,13.7543858 V 16.754386 C 58.5,9.1344561 52.3675,3 44.75,3 Z"
     id="path28" />
  <g
     id="g2"
     transform="matrix(0.08257419,0,0,0.08203186,9.8610074,10)">
	<path
   class="st0"
   d="m 10.766,264.966 v 182.186 c 0.009,35.829 29.029,64.84 64.848,64.848 h 360.772 c 35.828,-0.009 64.848,-29.02 64.848,-64.848 V 264.966 264.213 H 10.766 Z m 443.472,95.267 c 7.754,0 14.037,6.284 14.037,14.037 0,7.754 -6.283,14.037 -14.037,14.037 -7.753,0 -14.037,-6.283 -14.037,-14.037 0,-7.753 6.284,-14.037 14.037,-14.037 z m -30.507,-30.525 c 7.754,0 14.037,6.266 14.037,14.037 0,7.736 -6.283,14.037 -14.037,14.037 -7.754,0 -14.046,-6.301 -14.046,-14.037 0,-7.771 6.292,-14.037 14.046,-14.037 z m 0,61.032 c 7.754,0 14.037,6.284 14.037,14.037 0,7.754 -6.283,14.037 -14.037,14.037 -7.754,0 -14.046,-6.283 -14.046,-14.037 0,-7.753 6.292,-14.037 14.046,-14.037 z m -30.524,-30.507 c 7.744,0 14.037,6.284 14.037,14.037 0,7.754 -6.292,14.037 -14.037,14.037 -7.762,0 -14.037,-6.283 -14.037,-14.037 -0.001,-7.753 6.274,-14.037 14.037,-14.037 z M 154.469,298.842 H 357.535 V 449.69 H 154.469 Z M 48.406,362.657 h 30.21 v -30.21 h 23.226 v 30.21 h 30.21 v 23.226 h -30.21 v 30.21 H 78.616 v -30.21 h -30.21 z"
   id="path1-3"
   style="fill:url(#linearGradient2)" />

	<path
   class="st0"
   d="M 436.385,0 H 75.614 C 39.795,0.009 10.775,29.02 10.766,64.848 v 182.196 0.735 H 501.234 V 247.044 64.848 C 501.234,29.02 472.214,0.009 436.385,0 Z M 386.678,206.174 H 125.322 V 50.845 h 261.356 z"
   id="path2-6"
   style="fill:url(#linearGradient4)" />

</g>
</svg>
