<?xml version="1.0" encoding="UTF-8" standalone="no"?>
<svg
   width="62"
   height="62"
   viewBox="0 0 16.404166 16.404167"
   version="1.1"
   id="svg1443"
   inkscape:version="1.4 (unknown)"
   sodipodi:docname="filebot.svg"
   xmlns:inkscape="http://www.inkscape.org/namespaces/inkscape"
   xmlns:sodipodi="http://sodipodi.sourceforge.net/DTD/sodipodi-0.dtd"
   xmlns:xlink="http://www.w3.org/1999/xlink"
   xmlns="http://www.w3.org/2000/svg"
   xmlns:svg="http://www.w3.org/2000/svg"
   xmlns:rdf="http://www.w3.org/1999/02/22-rdf-syntax-ns#"
   xmlns:cc="http://creativecommons.org/ns#"
   xmlns:dc="http://purl.org/dc/elements/1.1/">
  <defs
     id="defs1437">
    <linearGradient
       gradientTransform="matrix(0.4711726,0,0,0.47114666,-53.953909,-18.000765)"
       gradientUnits="userSpaceOnUse"
       y2="70.679932"
       x2="132.21078"
       y1="42.151531"
       x1="132.21078"
       id="linearGradient1632"
       xlink:href="#linearGradient1630"
       inkscape:collect="always" />
    <linearGradient
       id="linearGradient1630"
       inkscape:collect="always">
      <stop
         id="stop1626"
         offset="0"
         style="stop-color:#fafafc;stop-opacity:1" />
      <stop
         id="stop1628"
         offset="1"
         style="stop-color:#e2e6ea;stop-opacity:1" />
    </linearGradient>
    <filter
       color-interpolation-filters="sRGB"
       height="1.1311001"
       width="1.1106"
       y="-0.065563001"
       x="-0.055319"
       id="c-9">
      <feGaussianBlur
         id="feGaussianBlur1093"
         stdDeviation="1.1062912" />
    </filter>
    <linearGradient
       gradientUnits="userSpaceOnUse"
       gradientTransform="matrix(0.13235,0,0,0.13075,-32.379,1.0873)"
       y2="269.48999"
       y1="235.14999"
       x2="657.65002"
       x1="319.20999"
       id="a-12">
      <stop
         id="stop1076"
         offset="0"
         stop-color="#e54c18" />
      <stop
         id="stop1078"
         offset="1"
         stop-color="#fec350" />
    </linearGradient>
    <linearGradient
       xlink:href="#a-7"
       id="c-36"
       x1="8.6850004"
       x2="8.7620001"
       y1="16.868999"
       y2="4.5339999"
       gradientTransform="matrix(1.0634748,0,0,1.0634748,-0.80999368,1.8113865)"
       gradientUnits="userSpaceOnUse" />
    <linearGradient
       id="a-7">
      <stop
         offset="0"
         style="stop-color:#2369ff;stop-opacity:1;"
         id="stop8" />
      <stop
         offset="1"
         style="stop-color:#7fa8ff;stop-opacity:1"
         id="stop10" />
    </linearGradient>
  </defs>
  <sodipodi:namedview
     id="base"
     pagecolor="#ffffff"
     bordercolor="#666666"
     borderopacity="1.0"
     inkscape:pageopacity="0.0"
     inkscape:pageshadow="2"
     inkscape:zoom="11.2"
     inkscape:cx="32.901786"
     inkscape:cy="29.330357"
     inkscape:document-units="px"
     inkscape:current-layer="layer1"
     inkscape:document-rotation="0"
     showgrid="false"
     units="px"
     inkscape:window-width="1920"
     inkscape:window-height="996"
     inkscape:window-x="0"
     inkscape:window-y="0"
     inkscape:window-maximized="1"
     inkscape:showpageshadow="2"
     inkscape:pagecheckerboard="0"
     inkscape:deskcolor="#d1d1d1">
    <inkscape:grid
       id="grid1"
       units="px"
       originx="0"
       originy="0"
       spacingx="0.26458332"
       spacingy="0.26458334"
       empcolor="#0099e5"
       empopacity="0.30196078"
       color="#0099e5"
       opacity="0.14901961"
       empspacing="5"
       enabled="true"
       visible="false" />
  </sodipodi:namedview>
  <metadata
     id="metadata1440">
    <rdf:RDF>
      <cc:Work
         rdf:about="">
        <dc:format>image/svg+xml</dc:format>
        <dc:type
           rdf:resource="http://purl.org/dc/dcmitype/StillImage" />
      </cc:Work>
    </rdf:RDF>
  </metadata>
  <g
     inkscape:label="Capa 1"
     inkscape:groupmode="layer"
     id="layer1">
    <g
       style="opacity:0.295"
       transform="matrix(0.47117252,0,0,0.47114656,-31.72741,-18.000762)"
       id="g1702">
      <rect
         ry="6.6098609"
         rx="6.6098609"
         y="40.709618"
         x="69.839508"
         height="29.810888"
         width="29.810888"
         id="rect1634"
         style="fill:none;fill-opacity:1;stroke:#000000;stroke-width:0.1;stroke-linecap:round;stroke-linejoin:round;stroke-miterlimit:4;stroke-dasharray:none;stroke-opacity:0.02" />
      <rect
         style="fill:none;fill-opacity:1;stroke:#000000;stroke-width:0.2;stroke-linecap:round;stroke-linejoin:round;stroke-miterlimit:4;stroke-dasharray:none;stroke-opacity:0.02"
         id="rect1638"
         width="29.810888"
         height="29.810888"
         x="69.839508"
         y="40.709618"
         rx="6.6098609"
         ry="6.6098609" />
      <rect
         ry="6.6098609"
         rx="6.6098609"
         y="40.709618"
         x="69.839508"
         height="29.810888"
         width="29.810888"
         id="rect1640"
         style="fill:none;fill-opacity:1;stroke:#000000;stroke-width:0.3;stroke-linecap:round;stroke-linejoin:round;stroke-miterlimit:4;stroke-dasharray:none;stroke-opacity:0.02" />
      <rect
         style="fill:none;fill-opacity:1;stroke:#000000;stroke-width:0.4;stroke-linecap:round;stroke-linejoin:round;stroke-miterlimit:4;stroke-dasharray:none;stroke-opacity:0.02"
         id="rect1642"
         width="29.810888"
         height="29.810888"
         x="69.839508"
         y="40.709618"
         rx="6.6098609"
         ry="6.6098609" />
      <rect
         ry="6.6098609"
         rx="6.6098609"
         y="40.709618"
         x="69.839508"
         height="29.810888"
         width="29.810888"
         id="rect1644"
         style="fill:none;fill-opacity:1;stroke:#000000;stroke-width:0.5;stroke-linecap:round;stroke-linejoin:round;stroke-miterlimit:4;stroke-dasharray:none;stroke-opacity:0.02" />
      <rect
         style="fill:none;fill-opacity:1;stroke:#000000;stroke-width:0.6;stroke-linecap:round;stroke-linejoin:round;stroke-miterlimit:4;stroke-dasharray:none;stroke-opacity:0.02"
         id="rect1646"
         width="29.810888"
         height="29.810888"
         x="69.839508"
         y="40.709618"
         rx="6.6098609"
         ry="6.6098609" />
      <rect
         ry="6.6098609"
         rx="6.6098609"
         y="40.709618"
         x="69.839508"
         height="29.810888"
         width="29.810888"
         id="rect1648"
         style="fill:none;fill-opacity:1;stroke:#000000;stroke-width:0.7;stroke-linecap:round;stroke-linejoin:round;stroke-miterlimit:4;stroke-dasharray:none;stroke-opacity:0.02" />
      <rect
         style="fill:none;fill-opacity:1;stroke:#000000;stroke-width:0.8;stroke-linecap:round;stroke-linejoin:round;stroke-miterlimit:4;stroke-dasharray:none;stroke-opacity:0.02"
         id="rect1650"
         width="29.810888"
         height="29.810888"
         x="69.839508"
         y="40.709618"
         rx="6.6098609"
         ry="6.6098609" />
      <rect
         ry="6.6098609"
         rx="6.6098609"
         y="40.709618"
         x="69.839508"
         height="29.810888"
         width="29.810888"
         id="rect1652"
         style="fill:none;fill-opacity:1;stroke:#000000;stroke-width:1;stroke-linecap:round;stroke-linejoin:round;stroke-miterlimit:4;stroke-dasharray:none;stroke-opacity:0.02" />
      <rect
         style="fill:none;fill-opacity:1;stroke:#000000;stroke-width:1.2;stroke-linecap:round;stroke-linejoin:round;stroke-miterlimit:4;stroke-dasharray:none;stroke-opacity:0.02"
         id="rect1654"
         width="29.810888"
         height="29.810888"
         x="69.839508"
         y="40.709618"
         rx="6.6098609"
         ry="6.6098609" />
      <rect
         ry="6.6098609"
         rx="6.6098609"
         y="40.709618"
         x="69.839508"
         height="29.810888"
         width="29.810888"
         id="rect1656"
         style="fill:none;fill-opacity:1;stroke:#000000;stroke-width:1.4;stroke-linecap:round;stroke-linejoin:round;stroke-miterlimit:4;stroke-dasharray:none;stroke-opacity:0.02" />
      <rect
         style="fill:none;fill-opacity:1;stroke:#000000;stroke-width:1.6;stroke-linecap:round;stroke-linejoin:round;stroke-miterlimit:4;stroke-dasharray:none;stroke-opacity:0.02"
         id="rect1658"
         width="29.810888"
         height="29.810888"
         x="69.839508"
         y="40.709618"
         rx="6.6098609"
         ry="6.6098609" />
      <rect
         ry="6.6098609"
         rx="6.6098609"
         y="40.709618"
         x="69.839508"
         height="29.810888"
         width="29.810888"
         id="rect1660"
         style="fill:none;fill-opacity:1;stroke:#000000;stroke-width:1.8;stroke-linecap:round;stroke-linejoin:round;stroke-miterlimit:4;stroke-dasharray:none;stroke-opacity:0.02" />
      <rect
         style="fill:none;fill-opacity:1;stroke:#000000;stroke-width:2;stroke-linecap:round;stroke-linejoin:round;stroke-miterlimit:4;stroke-dasharray:none;stroke-opacity:0.02"
         id="rect1662"
         width="29.810888"
         height="29.810888"
         x="69.839508"
         y="40.709618"
         rx="6.6098609"
         ry="6.6098609" />
      <rect
         ry="6.6098609"
         rx="6.6098609"
         y="40.709618"
         x="69.839508"
         height="29.810888"
         width="29.810888"
         id="rect1664"
         style="fill:none;fill-opacity:1;stroke:#000000;stroke-width:2.2;stroke-linecap:round;stroke-linejoin:round;stroke-miterlimit:4;stroke-dasharray:none;stroke-opacity:0.02" />
      <rect
         style="fill:none;fill-opacity:1;stroke:#000000;stroke-width:2.6;stroke-linecap:round;stroke-linejoin:round;stroke-miterlimit:4;stroke-dasharray:none;stroke-opacity:0.02"
         id="rect1666"
         width="29.810888"
         height="29.810888"
         x="69.839508"
         y="40.709618"
         rx="6.6098609"
         ry="6.6098609" />
      <rect
         ry="6.6098609"
         rx="6.6098609"
         y="40.709618"
         x="69.839508"
         height="29.810888"
         width="29.810888"
         id="rect1668"
         style="fill:none;fill-opacity:1;stroke:#000000;stroke-width:3;stroke-linecap:round;stroke-linejoin:round;stroke-miterlimit:4;stroke-dasharray:none;stroke-opacity:0.02" />
      <rect
         style="fill:none;fill-opacity:1;stroke:#000000;stroke-width:3.4;stroke-linecap:round;stroke-linejoin:round;stroke-miterlimit:4;stroke-dasharray:none;stroke-opacity:0.02"
         id="rect1670"
         width="29.810888"
         height="29.810888"
         x="69.839508"
         y="40.709618"
         rx="6.6098609"
         ry="6.6098609" />
      <rect
         ry="6.6098609"
         rx="6.6098609"
         y="40.709618"
         x="69.839508"
         height="29.810888"
         width="29.810888"
         id="rect1672"
         style="fill:none;fill-opacity:1;stroke:#000000;stroke-width:3.8;stroke-linecap:round;stroke-linejoin:round;stroke-miterlimit:4;stroke-dasharray:none;stroke-opacity:0.02" />
      <rect
         style="fill:none;fill-opacity:1;stroke:#000000;stroke-width:4.2;stroke-linecap:round;stroke-linejoin:round;stroke-miterlimit:4;stroke-dasharray:none;stroke-opacity:0.02"
         id="rect1674"
         width="29.810888"
         height="29.810888"
         x="69.839508"
         y="40.709618"
         rx="6.6098609"
         ry="6.6098609" />
      <rect
         ry="6.6098609"
         rx="6.6098609"
         y="40.709618"
         x="69.839508"
         height="29.810888"
         width="29.810888"
         id="rect1676"
         style="fill:none;fill-opacity:1;stroke:#000000;stroke-width:4.6;stroke-linecap:round;stroke-linejoin:round;stroke-miterlimit:4;stroke-dasharray:none;stroke-opacity:0.02" />
      <rect
         style="fill:none;fill-opacity:1;stroke:#000000;stroke-width:5;stroke-linecap:round;stroke-linejoin:round;stroke-miterlimit:4;stroke-dasharray:none;stroke-opacity:0.02"
         id="rect1678"
         width="29.810888"
         height="29.810888"
         x="69.839508"
         y="40.709618"
         rx="6.6098609"
         ry="6.6098609" />
    </g>
    <rect
       ry="3.1142132"
       rx="3.1143851"
       y="1.1794344"
       x="1.1790471"
       height="14.045296"
       width="14.04607"
       id="rect849"
       style="fill:url(#linearGradient1632);fill-opacity:1;stroke-width:1.29783;stroke-linecap:round;stroke-linejoin:round" />
    <g
       id="g1"
       transform="translate(0.13229281,0.51027465)">
      <path
         style="opacity:0.1;stroke-width:0.264583"
         d="m 8.4666672,2.9184092 c 0,0.01583 -0.00206,0.04058 -0.00577,0.07416 -0.00392,0.03368 -0.00865,0.07118 -0.014425,0.11272 -0.00577,0.04154 -0.014425,0.0851 -0.025961,0.130463 -0.011435,0.04547 -0.024929,0.08807 -0.04028,0.127594 -0.015346,0.03952 -0.032554,0.07118 -0.051715,0.09487 -0.019267,0.02369 -0.04028,0.03559 -0.063256,0.03559 -0.026892,0 -0.060371,-0.0079 -0.1006528,-0.02369 -0.040381,-0.01572 -0.087362,-0.03262 -0.1410366,-0.05046 -0.053674,-0.01774 -0.1170326,-0.03463 -0.1897666,-0.05046 -0.072939,-0.01572 -0.1533991,-0.0238 -0.2415858,-0.0238 -0.1649375,0 -0.3058715,0.02582 -0.4228015,0.07713 -0.1170321,0.05142 -0.2176848,0.131525 -0.3019568,0.240209 -0.084375,0.108789 -0.1552532,0.246157 -0.212843,0.41221 -0.057485,0.166053 -0.1073483,0.361852 -0.1495874,0.587187 l -0.097768,0.533855 h 1.2291314 c 0.042138,0 0.075618,0.01487 0.1006528,0.04451 0.024929,0.02964 0.037401,0.07809 0.037401,0.145337 0,0.04356 -0.00392,0.08892 -0.011536,0.136411 -0.00773,0.04749 -0.017203,0.09402 -0.028744,0.139387 -0.011435,0.04547 -0.025866,0.08892 -0.043064,0.130568 -0.017203,0.04154 -0.03647,0.04035 -0.05759,0.07201 -0.021114,0.03166 -0.045122,0.05737 -0.071909,0.07713 -0.026892,0.01986 -0.053687,0.02882 -0.080563,0.02964 H 6.2464474 L 5.262898,11.17615 c -0.065214,0.332106 -0.1534006,0.619804 -0.2645616,0.862987 -0.1112679,0.243185 -0.2473598,0.444935 -0.4083831,0.605038 -0.1610227,0.160104 -0.3470801,0.278774 -0.5579657,0.355904 -0.2108811,0.07713 -0.4486553,0.115694 -0.7132156,0.115694 -0.1725615,0 -0.313495,-0.01392 -0.4228013,-0.04154 -0.1093059,-0.02773 -0.1773004,-0.05344 -0.204189,-0.07724 -0.015248,-0.01987 -0.026786,-0.04154 -0.034512,-0.06512 -0.00762,-0.0238 -0.011436,-0.05546 -0.011436,-0.09498 0,-0.01583 0.00288,-0.0425 0.00855,-0.08011 0.00577,-0.03761 0.01257,-0.07713 0.02009,-0.118564 0.00773,-0.04165 0.017309,-0.0852 0.028743,-0.130568 0.011538,-0.04558 0.025035,-0.08807 0.040282,-0.127488 0.015351,-0.03963 0.032555,-0.07129 0.051717,-0.09498 0.019264,-0.0238 0.042239,-0.03559 0.069025,-0.03559 0.026889,0 0.052747,0.0029 0.077678,0.0089 0.024932,0.0059 0.051717,0.0118 0.08046,0.01774 0.028744,0.0059 0.063255,0.01179 0.1035367,0.01784 0.040281,0.0059 0.091071,0.0088 0.1523693,0.0088 0.1610231,0 0.3001024,-0.02571 0.4170321,-0.07713 0.1169297,-0.05142 0.2165516,-0.131525 0.2990723,-0.240208 0.082417,-0.10879 0.1514419,-0.246158 0.207074,-0.412317 0.055528,-0.166053 0.106421,-0.365784 0.152369,-0.599087 L 5.2972023,5.9707692 H 4.5610085 c -0.038428,0 -0.0682,-0.01275 -0.089217,-0.03857 -0.021119,-0.02571 -0.031629,-0.03642 -0.031629,-0.107603 0,-0.03166 0.00196,-0.07022 0.00577,-0.115695 0.00382,-0.04547 0.010507,-0.0919 0.02009,-0.139387 0.00948,-0.04749 0.022048,-0.09285 0.037397,-0.136412 0.015248,-0.04345 0.034514,-0.08308 0.057589,-0.118669 0.022974,-0.03559 0.046875,-0.06417 0.071909,-0.08605 0.024932,-0.02167 0.056559,-0.03261 0.094883,-0.03261 h 0.7247583 l 0.143818,-0.741451 c 0.061298,-0.324244 0.149588,-0.608011 0.26456,-0.851194 0.1149726,-0.243183 0.2539492,-0.44387 0.4170326,-0.602061 0.1629801,-0.158085 0.350892,-0.275799 0.5636323,-0.352929 0.2128425,-0.07713 0.4477322,-0.115696 0.704668,-0.115696 0.084272,0 0.1725618,0.005 0.26456,0.01487 0.092102,0.0099 0.1773,0.02369 0.2560087,0.04154 0.078503,0.01774 0.1475275,0.03857 0.2070741,0.06226 0.059341,0.0238 0.1006522,0.04749 0.1236265,0.07118 0.022971,0.01987 0.04028,0.04749 0.051716,0.08308 0.011642,0.03591 0.01741,0.07362 0.01741,0.113039 z"
         id="path2" />
      <path
         style="fill:#ff9955;stroke-width:0.264583"
         d="m 8.4666672,2.6538262 c 0,0.01583 -0.00206,0.04058 -0.00577,0.07416 -0.00392,0.03368 -0.00865,0.07118 -0.014425,0.11272 -0.00577,0.04154 -0.014425,0.0851 -0.025961,0.130463 -0.011435,0.04547 -0.024929,0.08807 -0.04028,0.127594 -0.015346,0.03952 -0.032554,0.07118 -0.051715,0.09487 -0.019267,0.02369 -0.04028,0.03559 -0.063256,0.03559 -0.026892,0 -0.060371,-0.0079 -0.1006528,-0.02369 -0.040381,-0.01572 -0.087362,-0.03261 -0.1410366,-0.05046 -0.053674,-0.01774 -0.1170326,-0.03463 -0.1897666,-0.05046 -0.072939,-0.01572 -0.1533991,-0.0238 -0.2415858,-0.0238 -0.1649375,0 -0.3058715,0.02581 -0.4228015,0.07713 -0.1170321,0.05142 -0.2176848,0.131525 -0.3019568,0.240208 -0.084375,0.10879 -0.1552532,0.246158 -0.212843,0.412211 -0.057489,0.166045 -0.1073517,0.361845 -0.1495908,0.58718 l -0.097768,0.533855 h 1.2291314 c 0.042138,0 0.075618,0.01487 0.1006528,0.04451 0.024929,0.02964 0.037401,0.07809 0.037401,0.145336 0,0.04356 -0.00392,0.08892 -0.011536,0.136412 -0.00773,0.04749 -0.017203,0.09402 -0.028744,0.139387 -0.011435,0.04547 -0.025866,0.08892 -0.043064,0.130568 -0.017203,0.04154 -0.03647,0.04035 -0.05759,0.07201 -0.021114,0.03166 -0.045122,0.05737 -0.071909,0.07713 -0.026892,0.01986 -0.053687,0.02882 -0.080563,0.02964 H 6.2464474 L 5.262898,10.911566 c -0.065214,0.332107 -0.1534006,0.619805 -0.2645616,0.862988 -0.1112679,0.243185 -0.2473598,0.444935 -0.4083831,0.605038 -0.1610227,0.160104 -0.3470801,0.278773 -0.5579657,0.355904 -0.2108811,0.07713 -0.4486553,0.115694 -0.7132156,0.115694 -0.1725615,0 -0.313495,-0.01392 -0.4228013,-0.04154 -0.1093059,-0.02773 -0.1773004,-0.05344 -0.204189,-0.07723 -0.015248,-0.01987 -0.026786,-0.04154 -0.034512,-0.06513 -0.00762,-0.0238 -0.011436,-0.05546 -0.011436,-0.09498 0,-0.01583 0.00288,-0.0425 0.00855,-0.0801 0.00577,-0.03761 0.01257,-0.07713 0.02009,-0.118565 0.00773,-0.04164 0.017309,-0.0852 0.028743,-0.130568 0.011538,-0.04558 0.025035,-0.08807 0.040282,-0.127488 0.015351,-0.03963 0.032555,-0.07129 0.051717,-0.09498 0.019264,-0.0238 0.042239,-0.03559 0.069025,-0.03559 0.026889,0 0.052747,0.0029 0.077678,0.0089 0.024932,0.0059 0.051717,0.0118 0.08046,0.01774 0.028744,0.0059 0.063255,0.0118 0.1035367,0.01784 0.040281,0.0059 0.091071,0.0088 0.1523693,0.0088 0.1610231,0 0.3001024,-0.02571 0.4170321,-0.07713 0.1169297,-0.05142 0.2165516,-0.131525 0.2990723,-0.240208 0.082417,-0.10879 0.1514419,-0.246158 0.207074,-0.412317 0.055528,-0.166053 0.106421,-0.365784 0.152369,-0.599087 L 5.2972023,5.7061862 H 4.5610085 c -0.038428,0 -0.0682,-0.01275 -0.089217,-0.03857 -0.021119,-0.02571 -0.031629,-0.03642 -0.031629,-0.107602 0,-0.03166 0.00196,-0.07022 0.00577,-0.115695 0.00382,-0.04547 0.010507,-0.0919 0.02009,-0.139387 0.00948,-0.04749 0.022048,-0.09285 0.037397,-0.136412 0.015248,-0.04345 0.034514,-0.08308 0.057589,-0.11867 0.022974,-0.03559 0.046875,-0.06417 0.071909,-0.08605 0.024932,-0.02168 0.056559,-0.03261 0.094883,-0.03261 h 0.7247583 l 0.143818,-0.741451 c 0.061298,-0.324245 0.149588,-0.608011 0.26456,-0.851194 0.1149726,-0.243184 0.2539492,-0.443871 0.4170326,-0.602062 0.1629801,-0.158085 0.350892,-0.275798 0.5636323,-0.352929 0.2128425,-0.07713 0.4477322,-0.115695 0.704668,-0.115695 0.084272,0 0.1725618,0.005 0.26456,0.01487 0.092102,0.0099 0.1773,0.02369 0.2560087,0.04154 0.078503,0.01774 0.1475275,0.03857 0.2070741,0.06226 0.059341,0.0238 0.1006522,0.04749 0.1236265,0.07118 0.022971,0.01987 0.04028,0.04749 0.051716,0.08308 0.011642,0.03591 0.01741,0.07362 0.01741,0.113039 z"
         id="path3" />
      <path
         style="opacity:0.1;stroke-width:0.264583"
         d="m 13.493745,7.1778162 c 0,0.239821 -0.0213,0.504666 -0.06382,0.794428 -0.04251,0.289869 -0.111211,0.427601 -0.205898,0.721336 -0.09489,0.293843 -0.2139,0.579631 -0.356916,0.857471 -0.143224,0.277948 -0.318356,0.5237828 -0.525189,0.7375058 -0.207042,0.213938 -0.444951,0.385884 -0.713834,0.515729 -0.268883,0.129845 -0.571546,0.194821 -0.908091,0.194821 -0.348186,0 -0.646172,-0.06798 -0.893748,-0.203842 -0.247576,-0.13586 -0.468129,-0.331754 -0.66145,-0.587579 l -0.1044559,0.566036 c -0.00779,0.06798 -0.049371,0.115992 -0.1248273,0.143916 -0.075457,0.02792 -0.1905153,0.042 -0.3451717,0.042 -0.1624525,0 -0.2708582,-0.016 -0.3250088,-0.0479 -0.054151,-0.032 -0.073587,-0.07808 -0.0581,-0.1379 L 9.750896,2.7243672 c 0.0077,-0.032 0.02027,-0.06004 0.03772,-0.08399 0.01736,-0.02406 0.04636,-0.04393 0.08699,-0.06004 0.04064,-0.01589 0.09292,-0.02792 0.156736,-0.03598 0.06382,-0.0079 0.144056,-0.01192 0.240821,-0.01192 0.09282,0 0.168273,0.004 0.22627,0.01192 0.0581,0.0081 0.104455,0.02008 0.139273,0.03598 0.03482,0.016 0.05613,0.03598 0.06382,0.06004 0.0077,0.02395 0.0097,0.05198 0.0059,0.08399 l -0.464282,2.564528 c -0.01944,0.103962 -0.04261,0.212004 -0.06964,0.323807 -0.02713,0.111909 -0.05509,0.222852 -0.08419,0.332829 -0.029,0.109975 -0.0581,0.213938 -0.0871,0.311777 -0.029,0.09806 -0.05509,0.1829 -0.07837,0.254857 0.06184,-0.13994 0.159543,-0.284821 0.292997,-0.43475 0.133454,-0.149927 0.29019,-0.287828 0.469999,-0.413807 0.179914,-0.125871 0.376249,-0.230799 0.589007,-0.314785 0.212758,-0.08399 0.42749,-0.125871 0.644197,-0.125871 0.231985,0 0.43123,0.032 0.597633,0.09591 0.166402,0.06401 0.307548,0.148962 0.423644,0.254857 0.115992,0.105895 0.209846,0.226933 0.281458,0.362793 0.07151,0.135967 0.126699,0.275799 0.165363,0.419714 0.03866,0.143913 0.06579,0.286862 0.08128,0.428735 0.01549,0.142088 0.02328,0.273007 0.02328,0.392865 z m -1.003921,0.08399 c 0,-0.107936 -0.0097,-0.231766 -0.02889,-0.371814 -0.01954,-0.139834 -0.05716,-0.269785 -0.113187,-0.38975 -0.05612,-0.119965 -0.137404,-0.220812 -0.243834,-0.302757 -0.106327,-0.08195 -0.248616,-0.122972 -0.426554,-0.122972 -0.208912,0 -0.421772,0.06208 -0.638377,0.185908 -0.216707,0.123937 -0.417823,0.294916 -0.603557,0.512721 -0.18563,0.217912 -0.351097,0.473735 -0.496088,0.76747 -0.145094,0.293736 -0.250485,0.460572 -0.316278,0.808329 l -0.1914502,0.995479 c 0.1817842,0.2758 0.3771852,0.479642 0.5860962,0.611528 0.208912,0.1318848 0.444847,0.1979348 0.708014,0.1979348 0.201116,0 0.383005,-0.04791 0.545457,-0.143914 0.162453,-0.09601 0.309522,-0.2238178 0.441002,-0.3837348 0.131583,-0.15981 0.245602,-0.34271 0.342469,-0.548593 0.09666,-0.205883 0.1769,-0.421754 0.240717,-0.647614 0.06382,-0.225859 0.112147,-0.298722 0.145095,-0.526514 0.03295,-0.227793 0.04937,-0.441731 0.04937,-0.641707 z"
         id="path4" />
      <path
         style="fill:#8d5fd3;stroke-width:0.264583"
         d="m 13.493745,6.9132332 c 0,0.239821 -0.0213,0.504666 -0.06382,0.794427 -0.04251,0.28987 -0.111211,0.427602 -0.205898,0.721337 -0.09489,0.293843 -0.2139,0.57963 -0.356916,0.857471 -0.143224,0.277948 -0.318356,0.523783 -0.525189,0.7375058 -0.207042,0.213938 -0.444951,0.385883 -0.713834,0.515729 -0.268883,0.129845 -0.571546,0.19482 -0.908091,0.19482 -0.348186,0 -0.646172,-0.06798 -0.893748,-0.203841 C 9.578673,10.394822 9.35812,10.198927 9.164799,9.9431032 L 9.0603431,10.509139 c -0.00779,0.06798 -0.049371,0.115991 -0.1248273,0.143916 -0.075457,0.02792 -0.1905153,0.04199 -0.3451717,0.04199 -0.1624525,0 -0.2708582,-0.016 -0.3250088,-0.0479 -0.054151,-0.032 -0.073587,-0.07808 -0.0581,-0.1379 L 9.750896,2.4597742 c 0.0077,-0.032 0.02027,-0.06004 0.03772,-0.08399 0.01736,-0.02406 0.04636,-0.04392 0.08699,-0.06004 0.04064,-0.01589 0.09292,-0.02792 0.156736,-0.03598 0.06382,-0.0079 0.144056,-0.01192 0.240821,-0.01192 0.09282,0 0.168273,0.004 0.22627,0.01192 0.0581,0.0081 0.104455,0.02008 0.139273,0.03598 0.03482,0.016 0.05613,0.03598 0.06382,0.06004 0.0077,0.02395 0.0097,0.05198 0.0059,0.08399 l -0.464282,2.564527 c -0.01944,0.103962 -0.04261,0.212005 -0.06964,0.323807 -0.02713,0.11191 -0.05509,0.222853 -0.08419,0.332829 -0.029,0.109976 -0.0581,0.213939 -0.0871,0.311778 -0.029,0.09806 -0.05509,0.1829 -0.07837,0.254857 0.06184,-0.13994 0.159543,-0.284821 0.292997,-0.43475 0.133454,-0.149928 0.29019,-0.287828 0.469999,-0.413807 0.179914,-0.125872 0.376249,-0.2308 0.589007,-0.314785 0.212758,-0.08399 0.42749,-0.125871 0.644197,-0.125871 0.231985,0 0.43123,0.032 0.597633,0.09591 0.166402,0.06401 0.307548,0.148962 0.423644,0.254857 0.115992,0.105894 0.209846,0.226933 0.281458,0.362792 0.07151,0.135967 0.126699,0.2758 0.165363,0.419714 0.03866,0.143914 0.06579,0.286863 0.08128,0.428736 0.01549,0.142088 0.02328,0.273007 0.02328,0.392864 z m -1.003921,0.08399 c 0,-0.107935 -0.0097,-0.231766 -0.02889,-0.371813 -0.01954,-0.139834 -0.05716,-0.269785 -0.113187,-0.38975 -0.05612,-0.119965 -0.137404,-0.220812 -0.243834,-0.302758 -0.106327,-0.08194 -0.248616,-0.122972 -0.426554,-0.122972 -0.208912,0 -0.421772,0.06208 -0.638377,0.185908 -0.216707,0.123938 -0.417823,0.294917 -0.603557,0.512722 -0.18563,0.217911 -0.351097,0.473734 -0.496088,0.76747 -0.145094,0.293736 -0.250485,0.460572 -0.316278,0.808329 l -0.1914502,0.995479 c 0.1817842,0.2758 0.3771852,0.479641 0.5860962,0.611528 0.208912,0.131885 0.444847,0.197935 0.708014,0.197935 0.201116,0 0.383005,-0.04791 0.545457,-0.143914 0.162453,-0.09601 0.309522,-0.223819 0.441002,-0.383735 0.131583,-0.15981 0.245602,-0.34271 0.342469,-0.548593 0.09666,-0.205883 0.1769,-0.421754 0.240717,-0.647614 0.06382,-0.22586 0.112147,-0.298722 0.145095,-0.526514 0.03295,-0.227793 0.04937,-0.441731 0.04937,-0.641708 z"
         id="path5" />
    </g>
  </g>
</svg>
