<?xml version="1.0" encoding="UTF-8" standalone="no"?>
<svg
   width="62"
   height="62"
   version="1.1"
   id="svg29"
   sodipodi:docname="flycast.svg"
   inkscape:version="1.4 (unknown)"
   xmlns:inkscape="http://www.inkscape.org/namespaces/inkscape"
   xmlns:sodipodi="http://sodipodi.sourceforge.net/DTD/sodipodi-0.dtd"
   xmlns:xlink="http://www.w3.org/1999/xlink"
   xmlns="http://www.w3.org/2000/svg"
   xmlns:svg="http://www.w3.org/2000/svg">
  <defs
     id="defs29">
    <linearGradient
       id="linearGradient29"
       inkscape:collect="always">
      <stop
         style="stop-color:#2d3d53;stop-opacity:1;"
         offset="0"
         id="stop29" />
      <stop
         style="stop-color:#7a34eb;stop-opacity:1;"
         offset="1"
         id="stop30" />
    </linearGradient>
    <linearGradient
       inkscape:collect="always"
       xlink:href="#linearGradient29"
       id="linearGradient30"
       x1="30.782633"
       y1="60"
       x2="30.193521"
       y2="5"
       gradientUnits="userSpaceOnUse"
       gradientTransform="matrix(0.98214286,0,0,0.98245614,-0.42857152,-0.92982455)" />
  </defs>
  <sodipodi:namedview
     id="namedview29"
     pagecolor="#ffffff"
     bordercolor="#000000"
     borderopacity="0.25"
     inkscape:showpageshadow="2"
     inkscape:pageopacity="0.0"
     inkscape:pagecheckerboard="0"
     inkscape:deskcolor="#d1d1d1"
     inkscape:zoom="7.0710678"
     inkscape:cx="25.102291"
     inkscape:cy="48.012551"
     inkscape:window-width="1920"
     inkscape:window-height="996"
     inkscape:window-x="0"
     inkscape:window-y="0"
     inkscape:window-maximized="1"
     inkscape:current-layer="svg29" />
  <rect
     style="opacity:0.2;stroke-width:0.9823"
     width="55"
     height="55.017544"
     x="3.5"
     y="3.9824562"
     ry="13.754386"
     id="rect1" />
  <rect
     style="fill:url(#linearGradient30);stroke-width:0.9823"
     width="55"
     height="55.017544"
     x="3.5"
     y="3"
     ry="13.754386"
     id="rect2" />
  <path
     style="opacity:0.1;fill:#ffffff;stroke-width:0.9823"
     d="M 17.25,3 C 9.6324999,3 3.4999999,9.1344561 3.4999999,16.754386 v 0.982456 c 0,-7.61993 6.1325,-13.7543858 13.7500001,-13.7543858 h 27.5 c 7.6175,0 13.75,6.1344558 13.75,13.7543858 V 16.754386 C 58.5,9.1344561 52.3675,3 44.75,3 Z"
     id="path28" />
  <g
     id="g1"
     transform="matrix(0.99991437,0,0,1,5.5005994,-62.5)">
    <path
       d="M 25,77 C 15.883861,77 7,84.759184 7,95.400391 7,103.59536 14.289234,111 23.5,111 c 3.347882,0 7.077297,-1.15447 10.107422,-3.30078 C 36.637546,105.5529 39,102.27234 39,98.199219 39,90.413504 32.957143,83 25,83 c -6.411074,0 -11.804187,5.068262 -12,10.949219 -0.08557,2.569833 0.483633,5.300023 2.189453,7.460941 C 16.895273,103.57107 19.750838,105 23.599609,105 27.657056,105 32,101.85796 32,96.800781 32,93.018889 28.902438,90 25.140625,90 24.271572,90 23.173902,90.047446 22.083984,90.580078 20.994067,91.112711 20,92.424164 20,94 c 0,2.580952 1.580806,4.240235 3.029297,4.742188 1.448491,0.501952 2.767578,0.236328 2.767578,0.236328 a 1.500658,1.500658 0 1 0 -0.513672,-2.957032 c 0,0 -0.699975,0.08477 -1.271484,-0.113281 C 23.44021,95.710155 23,95.619048 23,94 23,93.38092 23.055308,93.444029 23.400391,93.275391 23.745473,93.106752 24.469678,93 25.140625,93 27.355062,93 29,94.606423 29,96.800781 29,100.1436 26.141827,102 23.599609,102 20.44838,102 18.677536,100.98752 17.544922,99.552734 16.412308,98.117951 15.93183,96.098154 16,94.050781 16.134351,90.015764 20.211074,86 25,86 31.042857,86 36,91.984933 36,98.199219 36,101.12609 34.350813,103.49632 31.875,105.25 29.399187,107.00368 26.128367,108 23.5,108 15.910766,108 10,101.78455 10,95.400391 10,86.441597 17.603785,80 25,80 c 8.674176,0 12.372086,3.488834 14.255859,6.964844 1.883773,3.476009 1.746094,6.966797 1.746094,6.966797 a 1.50015,1.50015 0 1 0 2.996094,0.136718 c 0,0 0.212711,-4.259212 -2.103516,-8.533203 C 39.578304,81.261166 34.525824,77 25,77 Z"
       style="opacity:0.1"
       id="path3-3" />
    <path
       d="M 25,76 C 15.883861,76 7,83.759184 7,94.400391 7,102.59536 14.289234,110 23.5,110 c 3.347882,0 7.077297,-1.15447 10.107422,-3.30078 C 36.637546,104.5529 39,101.27234 39,97.199219 39,89.413504 32.957143,82 25,82 c -6.411074,0 -11.804187,5.068262 -12,10.949219 -0.08557,2.569833 0.483633,5.300023 2.189453,7.460941 C 16.895273,102.57107 19.750838,104 23.599609,104 27.657056,104 32,100.85796 32,95.800781 32,92.018889 28.902438,89 25.140625,89 24.271572,89 23.173902,89.047446 22.083984,89.580078 20.994067,90.112711 20,91.424164 20,93 c 0,2.580952 1.580806,4.240235 3.029297,4.742188 1.448491,0.501952 2.767578,0.236328 2.767578,0.236328 a 1.500658,1.500658 0 1 0 -0.513672,-2.957032 c 0,0 -0.699975,0.08477 -1.271484,-0.113281 C 23.44021,94.710155 23,94.619048 23,93 23,92.38092 23.055308,92.444029 23.400391,92.275391 23.745473,92.106752 24.469678,92 25.140625,92 27.355062,92 29,93.606423 29,95.800781 29,99.143598 26.141827,101 23.599609,101 20.44838,101 18.677536,99.987518 17.544922,98.552734 16.412308,97.117951 15.93183,95.098154 16,93.050781 16.134351,89.015764 20.211074,85 25,85 31.042857,85 36,90.984933 36,97.199219 36,100.12609 34.350813,102.49632 31.875,104.25 29.399187,106.00368 26.128367,107 23.5,107 15.910766,107 10,100.78455 10,94.400391 10,85.441597 17.603785,79 25,79 c 8.674176,0 12.372086,3.488834 14.255859,6.964844 1.883773,3.476009 1.746094,6.966797 1.746094,6.966797 a 1.50015,1.50015 0 1 0 2.996094,0.136718 c 0,0 0.212711,-4.259212 -2.103516,-8.533203 C 39.578304,80.261166 34.525824,76 25,76 Z"
       style="fill:#f0e8fd;fill-opacity:1"
       id="path4-6" />
  </g>
</svg>
