<?xml version="1.0" encoding="UTF-8" standalone="no"?>
<svg
   width="62"
   height="62"
   viewBox="0 0 62 62"
   fill="none"
   version="1.1"
   id="svg25"
   sodipodi:docname="freezer.svg"
   inkscape:version="1.4 (unknown)"
   xmlns:inkscape="http://www.inkscape.org/namespaces/inkscape"
   xmlns:sodipodi="http://sodipodi.sourceforge.net/DTD/sodipodi-0.dtd"
   xmlns:xlink="http://www.w3.org/1999/xlink"
   xmlns="http://www.w3.org/2000/svg"
   xmlns:svg="http://www.w3.org/2000/svg">
  <sodipodi:namedview
     id="namedview25"
     pagecolor="#ffffff"
     bordercolor="#000000"
     borderopacity="0.25"
     inkscape:showpageshadow="2"
     inkscape:pageopacity="0.0"
     inkscape:pagecheckerboard="0"
     inkscape:deskcolor="#d1d1d1"
     inkscape:zoom="8.5405241"
     inkscape:cx="48.533321"
     inkscape:cy="45.020656"
     inkscape:window-width="1920"
     inkscape:window-height="996"
     inkscape:window-x="0"
     inkscape:window-y="0"
     inkscape:window-maximized="1"
     inkscape:current-layer="svg25" />
  <path
     d="m 16,55 h 8 v 2 c 0,1.1046 -0.7163,2 -1.6,2 H 17.6 C 16.7163,59 16,58.1046 16,57 Z"
     id="path1"
     style="fill:url(#paint0_linear_633_21)" />
  <path
     d="m 38,55 h 8 v 2 c 0,1.1046 -0.7163,2 -1.6,2 H 39.6 C 38.7163,59 38,58.1046 38,57 Z"
     id="path2"
     style="fill:url(#paint1_linear_633_21)" />
  <path
     d="m 12,7 c 0,-2.20914 1.7909,-4 4,-4 h 30 c 2.2091,0 4,1.79086 4,4 v 46 c 0,2.2091 -1.7909,4 -4,4 H 16 c -2.2091,0 -4,-1.7909 -4,-4 z"
     id="path3"
     style="fill:url(#linearGradient27)" />
  <path
     d="m 14,7 c 0,-1.10457 0.8954,-2 2,-2 h 30 c 1.1046,0 2,0.89543 2,2 v 22 c 0,1.1046 -0.8954,2 -2,2 H 16 c -1.1046,0 -2,-0.8954 -2,-2 z"
     id="path4"
     style="fill:url(#linearGradient29)" />
  <circle
     cx="39"
     cy="10"
     r="1"
     id="circle7"
     style="fill:url(#paint7_linear_633_21)" />
  <circle
     cx="43"
     cy="10"
     r="1"
     id="circle8"
     style="fill:url(#paint8_linear_633_21)" />
  <defs
     id="defs25">
    <linearGradient
       id="linearGradient28"
       inkscape:collect="always">
      <stop
         style="stop-color:#1b2632;stop-opacity:1;"
         offset="0"
         id="stop28" />
      <stop
         style="stop-color:#26384a;stop-opacity:1;"
         offset="1"
         id="stop29" />
    </linearGradient>
    <linearGradient
       id="linearGradient25"
       inkscape:collect="always">
      <stop
         style="stop-color:#364963;stop-opacity:1;"
         offset="0"
         id="stop26" />
      <stop
         style="stop-color:#3f5b7b;stop-opacity:1;"
         offset="1"
         id="stop27" />
    </linearGradient>
    <linearGradient
       id="paint0_linear_633_21"
       x1="25"
       y1="60"
       x2="21.799999"
       y2="53.599998"
       gradientUnits="userSpaceOnUse"
       gradientTransform="translate(-1,-1)">
      <stop
         stop-color="#2E2E41"
         id="stop8" />
      <stop
         offset="1"
         stop-color="#566C80"
         id="stop9" />
    </linearGradient>
    <linearGradient
       id="paint1_linear_633_21"
       x1="47"
       y1="60"
       x2="43.799999"
       y2="53.599998"
       gradientUnits="userSpaceOnUse"
       gradientTransform="translate(-1,-1)">
      <stop
         stop-color="#2E2E41"
         id="stop10" />
      <stop
         offset="1"
         stop-color="#566C80"
         id="stop11" />
    </linearGradient>
    <linearGradient
       id="paint2_linear_633_21"
       x1="51"
       y1="58"
       x2="0.170644"
       y2="22.231199"
       gradientUnits="userSpaceOnUse">
      <stop
         offset="0.221007"
         stop-color="#2E2E41"
         id="stop12" />
      <stop
         offset="1"
         stop-color="#566C80"
         id="stop13" />
    </linearGradient>
    <linearGradient
       id="paint3_linear_633_21"
       x1="49"
       y1="32"
       x2="23.9083"
       y2="-0.81222802"
       gradientUnits="userSpaceOnUse">
      <stop
         offset="0.16552401"
         stop-color="#2E2E41"
         id="stop14"
         style="stop-color:#2a2a3c;stop-opacity:1;" />
      <stop
         offset="0.784914"
         stop-color="#566C80"
         id="stop15" />
    </linearGradient>
    <linearGradient
       id="paint4_linear_633_21"
       x1="32"
       y1="10"
       x2="32"
       y2="16"
       gradientUnits="userSpaceOnUse"
       gradientTransform="translate(41,-9)">
      <stop
         stop-color="#EFF2F6"
         id="stop16" />
      <stop
         offset="0.600628"
         stop-color="#B7C6CD"
         id="stop17" />
    </linearGradient>
    <linearGradient
       id="paint5_linear_633_21"
       x1="28"
       y1="42"
       x2="36"
       y2="50"
       gradientUnits="userSpaceOnUse"
       gradientTransform="translate(61.17417,-16.999999)">
      <stop
         offset="0.313567"
         stop-color="#EFF2F6"
         id="stop18" />
      <stop
         offset="0.581564"
         stop-color="#B7C6CD"
         id="stop19" />
    </linearGradient>
    <linearGradient
       id="paint6_linear_633_21"
       x1="30"
       y1="44"
       x2="34"
       y2="48"
       gradientUnits="userSpaceOnUse"
       gradientTransform="translate(61.17417,-16.999999)">
      <stop
         stop-color="#F15700"
         id="stop20" />
      <stop
         offset="0.717503"
         stop-color="#FF0000"
         id="stop21" />
    </linearGradient>
    <linearGradient
       id="paint7_linear_633_21"
       x1="31"
       y1="28"
       x2="29"
       y2="26"
       gradientUnits="userSpaceOnUse"
       gradientTransform="translate(9,-17)">
      <stop
         stop-color="#FF7E07"
         id="stop22" />
      <stop
         offset="1"
         stop-color="#FFE607"
         id="stop23" />
    </linearGradient>
    <linearGradient
       id="paint8_linear_633_21"
       x1="35"
       y1="28"
       x2="33"
       y2="26"
       gradientUnits="userSpaceOnUse"
       gradientTransform="translate(9,-17)">
      <stop
         stop-color="#089953"
         id="stop24" />
      <stop
         offset="1"
         stop-color="#16D96F"
         id="stop25" />
    </linearGradient>
    <linearGradient
       inkscape:collect="always"
       xlink:href="#linearGradient25"
       id="linearGradient27"
       x1="51"
       y1="58"
       x2="1"
       y2="25.61837"
       gradientUnits="userSpaceOnUse"
       gradientTransform="translate(-1,-1)" />
    <linearGradient
       inkscape:collect="always"
       xlink:href="#linearGradient28"
       id="linearGradient29"
       x1="51"
       y1="31"
       x2="25.320827"
       y2="-2.0297542"
       gradientUnits="userSpaceOnUse"
       gradientTransform="translate(-1,-1)" />
    <linearGradient
       id="paint4_linear_633_21-7"
       x1="32"
       y1="10"
       x2="32"
       y2="16"
       gradientUnits="userSpaceOnUse"
       gradientTransform="matrix(0,0.3923077,-0.3923077,0,22.940572,4.9148469)">
      <stop
         stop-color="#EFF2F6"
         id="stop16-3" />
      <stop
         offset="0.600628"
         stop-color="#B7C6CD"
         id="stop17-6" />
    </linearGradient>
    <linearGradient
       inkscape:collect="always"
       xlink:href="#linearGradient28"
       id="linearGradient30"
       gradientUnits="userSpaceOnUse"
       gradientTransform="matrix(1,0,0,0.70611293,-1.000004,29.583854)"
       x1="51"
       y1="31"
       x2="25.320827"
       y2="-2.0297542" />
    <linearGradient
       inkscape:collect="always"
       xlink:href="#paint7_linear_633_21"
       id="linearGradient31"
       gradientUnits="userSpaceOnUse"
       gradientTransform="translate(9.999994,10.000001)"
       x1="31"
       y1="28"
       x2="29"
       y2="26" />
    <linearGradient
       inkscape:collect="always"
       xlink:href="#paint8_linear_633_21"
       id="linearGradient32"
       gradientUnits="userSpaceOnUse"
       gradientTransform="translate(9.999994,10.000001)"
       x1="35"
       y1="28"
       x2="33"
       y2="26" />
    <linearGradient
       inkscape:collect="always"
       xlink:href="#paint4_linear_633_21-7"
       id="linearGradient33"
       gradientUnits="userSpaceOnUse"
       gradientTransform="matrix(0,0.3923077,-0.3923077,0,22.940572,31.139606)"
       x1="32"
       y1="10"
       x2="32"
       y2="16" />
    <linearGradient
       inkscape:collect="always"
       xlink:href="#paint5_linear_633_21"
       id="linearGradient34"
       gradientUnits="userSpaceOnUse"
       gradientTransform="translate(-0.800001,-14.179467)"
       x1="28"
       y1="42"
       x2="36"
       y2="50" />
    <linearGradient
       inkscape:collect="always"
       xlink:href="#paint6_linear_633_21"
       id="linearGradient35"
       gradientUnits="userSpaceOnUse"
       gradientTransform="translate(-0.800001,-14.179467)"
       x1="30"
       y1="44"
       x2="34"
       y2="48" />
  </defs>
  <path
     d="m 17.840574,12.368693 c 0.650012,0 1.176921,0.526909 1.176921,1.176923 v 7.846151 c 0,0.650016 -0.526909,1.176926 -1.176921,1.176926 -0.650016,0 -1.176926,-0.52691 -1.176926,-1.176926 v -7.846151 c 0,-0.650014 0.52691,-1.176923 1.176926,-1.176923 z"
     id="path5-2"
     style="fill:url(#paint4_linear_633_21-7);stroke-width:0.392308" />
  <path
     d="m 13.999996,35.633 c 0,-0.779951 1.595404,-1.812468 2.700004,-1.812468 h 29 c 1.104603,0 2.300004,0.932517 2.300004,1.712468 v 14.834 c 0,0.779973 -1.295401,1.812468 -2.400004,1.812468 H 16.4 c -1.1046,0 -2.400004,-1.032495 -2.400004,-1.812468 z"
     id="path4-0"
     style="fill:url(#linearGradient30);stroke-width:0.840305"
     sodipodi:nodetypes="sssssssss" />
  <circle
     cx="40"
     cy="37"
     r="1"
     id="circle7-3"
     style="fill:url(#linearGradient31)" />
  <circle
     cx="44"
     cy="37"
     r="1"
     id="circle8-6"
     style="fill:url(#linearGradient32)" />
  <path
     d="m 17.840574,38.593452 c 0.650012,0 1.176921,0.526909 1.176921,1.176923 v 7.846151 c 0,0.650016 -0.526909,1.176926 -1.176921,1.176926 -0.650016,0 -1.176926,-0.52691 -1.176926,-1.176926 v -7.846151 c 0,-0.650014 0.52691,-1.176923 1.176926,-1.176923 z"
     id="path5-2-1"
     style="fill:url(#linearGradient33);stroke-width:0.392308" />
  <g
     id="g35"
     transform="translate(-0.20000076,1.1794682)">
    <circle
       cx="31.200001"
       cy="31.820532"
       r="4"
       id="circle5-6"
       style="fill:url(#linearGradient34)" />
    <circle
       cx="31.200001"
       cy="31.820532"
       r="2"
       id="circle6-1"
       style="fill:url(#linearGradient35)" />
  </g>
</svg>
