<?xml version="1.0" encoding="UTF-8" standalone="no"?>
<svg
   width="62"
   height="62"
   version="1.1"
   id="svg5"
   sodipodi:docname="FreeTexturePacker.svg"
   inkscape:version="1.4 (unknown)"
   xmlns:inkscape="http://www.inkscape.org/namespaces/inkscape"
   xmlns:sodipodi="http://sodipodi.sourceforge.net/DTD/sodipodi-0.dtd"
   xmlns="http://www.w3.org/2000/svg"
   xmlns:svg="http://www.w3.org/2000/svg">
  <defs
     id="defs5" />
  <sodipodi:namedview
     id="namedview5"
     pagecolor="#ffffff"
     bordercolor="#000000"
     borderopacity="0.25"
     inkscape:showpageshadow="2"
     inkscape:pageopacity="0.0"
     inkscape:pagecheckerboard="0"
     inkscape:deskcolor="#d1d1d1"
     inkscape:zoom="12.078125"
     inkscape:cx="31.958603"
     inkscape:cy="32.745149"
     inkscape:window-width="1920"
     inkscape:window-height="996"
     inkscape:window-x="0"
     inkscape:window-y="0"
     inkscape:window-maximized="1"
     inkscape:current-layer="svg5" />
  <g
     id="g5"
     transform="matrix(0.95192546,0,0,0.94915783,0.53845617,0.15252659)">
    <path
       style="opacity:0.2"
       d="M 32,4 C 31.127,4.0157 30.27,4.2414 29.501,4.6585 L 9.7923,15.924 C 8.4632,16.64 7.1298,17.894 6.5529,19.277 5.922,20.789 5.9526,21.972 6.0611,22.865 l 0.1123,22.061 c 0.0398,1.636 0.8009,3.169 2.0767,4.184 2.5549,2.032 20.7569,12.18 20.7569,12.18 0.911,0.517 1.949,0.76 2.993,0.701 1.044,0.059 2.082,-0.184 2.993,-0.701 0,0 18.202,-10.148 20.757,-12.18 1.276,-1.014 2.037,-2.548 2.077,-4.184 l 0.112,-22.061 c 0.108,-0.893 0.139,-2.076 -0.492,-3.588 -0.577,-1.383 -1.91,-2.637 -3.239,-3.353 L 34.499,4.6585 C 33.73,4.2414 32.873,4.0157 32,4 Z"
       id="path1" />
    <path
       style="fill:#33414c;fill-opacity:1"
       d="M 32,3 C 31.127,3.0154 30.27,3.2411 29.501,3.6582 L 9.7923,14.924 C 8.4632,15.64 7.1298,16.894 6.5529,18.277 5.922,19.789 5.9526,20.972 6.0611,21.865 l 0.1123,22.061 c 0.0398,1.636 0.8009,3.169 2.0767,4.184 2.5549,2.032 20.7569,12.18 20.7569,12.18 0.911,0.517 1.949,0.76 2.993,0.701 1.044,0.059 2.082,-0.184 2.993,-0.701 0,0 18.202,-10.148 20.757,-12.18 1.276,-1.014 2.037,-2.548 2.077,-4.184 l 0.112,-22.061 c 0.108,-0.893 0.139,-2.076 -0.492,-3.588 -0.577,-1.383 -1.91,-2.637 -3.239,-3.353 L 34.499,3.6582 C 33.73,3.2411 32.873,3.0154 32,3 Z"
       id="path2" />
    <path
       style="opacity:0.2"
       d="m 32.021,15.728 -2.82,1.702 5.598,3.469 L 23.013,27.773 17.104,24.47 17,41.725 l 2.885,1.612 0.18,-6.662 5.795,3.143 0.117,-3.289 -5.868,-3.502 -0.038,-3.286 8.821,4.812 0.069,-3.226 -2.639,-1.746 11.736,-6.816 5.74,3.344 -8.841,5.296 0.043,17.211 2.968,-1.714 v -6.89 L 46.945,34.829 47,24.368 Z m 11.911,14.015 0.027,3.218 -5.991,3.459 V 33.186 Z M 32.091,10.038 12,21.637 V 44.366 L 32.15,55.962 52,44.664 V 21.466 Z M 31.994,13.42 49.159,23.257 49.157,42.694 32.15,52.774 15,43 14.868,23.333 Z"
       id="path3" />
    <path
       style="fill:#f1f1f1;fill-opacity:1"
       d="m 32.021,14.728 -2.82,1.702 5.598,3.469 L 23.013,26.773 17.104,23.47 17,40.725 l 2.885,1.612 0.18,-6.662 5.795,3.143 0.117,-3.289 -5.868,-3.502 -0.038,-3.286 8.821,4.812 0.069,-3.226 -2.639,-1.746 11.736,-6.816 5.74,3.344 -8.841,5.296 0.043,17.211 2.968,-1.714 v -6.89 L 46.945,33.829 47,23.368 Z m 11.911,14.015 0.027,3.218 -5.991,3.459 V 32.186 Z M 32.091,9.0383 12,20.637 V 43.366 L 32.15,54.962 52,43.664 V 20.466 Z M 31.994,12.42 49.159,22.257 49.157,41.694 32.15,51.774 15,42 14.868,22.333 Z"
       id="path4" />
    <path
       style="opacity:0.1;fill:#ffffff"
       d="M 32,3 C 31.127,3.0154 30.271,3.2411 29.502,3.6582 L 9.793,14.924 C 8.4639,15.64 7.1296,16.894 6.5527,18.277 6.0188,19.557 5.9655,20.588 6.0254,21.42 6.0736,20.793 6.2152,20.086 6.5527,19.277 7.1296,17.894 8.4639,16.64 9.793,15.924 L 29.502,4.6582 C 30.271,4.2411 31.127,4.0154 32,4 c 0.873,0.0154 1.729,0.2411 2.498,0.6582 L 54.207,15.924 c 1.329,0.716 2.663,1.97 3.24,3.353 0.338,0.809 0.479,1.516 0.528,2.143 0.059,-0.832 0.006,-1.863 -0.528,-3.143 -0.577,-1.383 -1.911,-2.637 -3.24,-3.353 L 34.498,3.6582 C 33.729,3.2411 32.873,3.0154 32,3 Z"
       id="path5" />
  </g>
</svg>
