<?xml version="1.0" encoding="UTF-8" standalone="no"?>
<svg
   width="62"
   height="62"
   version="1.1"
   id="svg9"
   sodipodi:docname="friture.svg"
   inkscape:version="1.4 (unknown)"
   xmlns:inkscape="http://www.inkscape.org/namespaces/inkscape"
   xmlns:sodipodi="http://sodipodi.sourceforge.net/DTD/sodipodi-0.dtd"
   xmlns:xlink="http://www.w3.org/1999/xlink"
   xmlns="http://www.w3.org/2000/svg"
   xmlns:svg="http://www.w3.org/2000/svg">
  <defs
     id="defs9">
    <linearGradient
       id="linearGradient1"
       inkscape:collect="always">
      <stop
         style="stop-color:#2d3d53;stop-opacity:1;"
         offset="0"
         id="stop1" />
      <stop
         style="stop-color:#415272;stop-opacity:1;"
         offset="1"
         id="stop2" />
    </linearGradient>
    <linearGradient
       inkscape:collect="always"
       xlink:href="#linearGradient1"
       id="linearGradient2"
       x1="31"
       y1="58.017544"
       x2="29.9"
       y2="0"
       gradientUnits="userSpaceOnUse" />
  </defs>
  <sodipodi:namedview
     id="namedview9"
     pagecolor="#ffffff"
     bordercolor="#000000"
     borderopacity="0.25"
     inkscape:showpageshadow="2"
     inkscape:pageopacity="0.0"
     inkscape:pagecheckerboard="0"
     inkscape:deskcolor="#d1d1d1"
     inkscape:zoom="10"
     inkscape:cx="20.6"
     inkscape:cy="27.35"
     inkscape:window-width="1920"
     inkscape:window-height="996"
     inkscape:window-x="0"
     inkscape:window-y="0"
     inkscape:window-maximized="1"
     inkscape:current-layer="svg9" />
  <rect
     style="opacity:0.2;stroke-width:0.9823"
     width="55"
     height="55.017544"
     x="3.5"
     y="3.9824562"
     ry="8.2526312"
     id="rect1" />
  <rect
     style="fill:url(#linearGradient2);fill-opacity:1;stroke-width:0.9823"
     width="55"
     height="55.017544"
     x="3.5"
     y="3"
     ry="8.2526312"
     id="rect2" />
  <path
     style="opacity:0.1;fill:#ffffff;stroke-width:0.9823"
     d="M 11.748466,3 C 7.1779651,3 3.4999999,6.6791384 3.4999999,11.251097 v 0.982456 c 0,-4.5719585 3.6779652,-8.2510968 8.2484661,-8.2510968 h 38.503068 c 4.5705,0 8.248466,3.6791383 8.248466,8.2510968 V 11.251097 C 58.5,6.6791384 54.822034,3 50.251534,3 Z"
     id="path9" />
  <g
     id="g1"
     transform="matrix(0.94805199,0,0,0.95238965,82.716235,-13.628249)">
    <path
       style="fill:#00aad4;stroke-width:0.0720121"
       d="m -62.333838,43.710478 -10.226351,15.158156 c -1.33782,1.486171 -1.475017,2.609372 -0.967702,4.31456 0.741654,2.455383 2.20733,3.646832 4.430639,4.006036 2.201974,0.449149 3.014224,-0.09232 4.63352,-1.499682 l 14.22304,-12.361599 0.315012,0.224365 z"
       id="path3-3" />
    <ellipse
       style="opacity:0.2;stroke-width:0.0720121"
       cx="-49.96666"
       cy="40.865173"
       id="circle3"
       rx="14.666659"
       ry="14.608684" />
    <ellipse
       style="fill:#e5e5e5;stroke-width:0.0720121;fill-opacity:1"
       cx="-49.96666"
       cy="39.952148"
       id="circle4"
       rx="14.666659"
       ry="14.608684" />
    <path
       style="opacity:0.7;stroke-width:0.0720121;fill:#2d3d53;fill-opacity:1"
       d="m -62.561619,32.412393 -0.718196,1.44569 c 0.72402,5.407221 2.507472,9.213577 6.211443,12.535432 3.520271,3.157096 8.422156,5.213882 14.782847,6.021083 l 1.677696,-1.196739 c -6.651679,-0.690759 -12.112264,-2.732136 -15.557058,-5.821545 -3.44479,-3.089412 -5.705294,-7.819964 -6.396732,-12.983921 z"
       id="path4-6" />
    <path
       style="opacity:0.2;fill:#ffffff;stroke-width:0.914852"
       d="m -49.966662,25.343449 a 14.666664,14.608689 0 0 0 -14.666664,14.608688 14.666664,14.608689 0 0 0 0.01964,0.529638 14.666664,14.608689 0 0 1 14.646975,-14.225284 14.666664,14.608689 0 0 1 14.646977,14.079059 14.666664,14.608689 0 0 0 0.01964,-0.383413 14.666664,14.608689 0 0 0 -14.666682,-14.608688 z"
       id="path6" />
  </g>
</svg>
