<?xml version="1.0" encoding="UTF-8" standalone="no"?>
<svg
   width="62"
   height="62"
   version="1"
   id="svg8"
   sodipodi:docname="fspy.svg"
   inkscape:version="1.4 (unknown)"
   xmlns:inkscape="http://www.inkscape.org/namespaces/inkscape"
   xmlns:sodipodi="http://sodipodi.sourceforge.net/DTD/sodipodi-0.dtd"
   xmlns:xlink="http://www.w3.org/1999/xlink"
   xmlns="http://www.w3.org/2000/svg"
   xmlns:svg="http://www.w3.org/2000/svg">
  <defs
     id="defs8">
    <linearGradient
       id="linearGradient1"
       inkscape:collect="always">
      <stop
         style="stop-color:#233143;stop-opacity:1;"
         offset="0"
         id="stop1" />
      <stop
         style="stop-color:#3e5775;stop-opacity:1;"
         offset="1"
         id="stop2" />
    </linearGradient>
    <linearGradient
       inkscape:collect="always"
       xlink:href="#linearGradient1"
       id="linearGradient2"
       x1="31.597424"
       y1="53.787048"
       x2="31.508774"
       y2="4.9824562"
       gradientUnits="userSpaceOnUse"
       gradientTransform="translate(-1.0000006,-1.0000005)" />
  </defs>
  <sodipodi:namedview
     id="namedview8"
     pagecolor="#ffffff"
     bordercolor="#000000"
     borderopacity="0.25"
     inkscape:showpageshadow="2"
     inkscape:pageopacity="0.0"
     inkscape:pagecheckerboard="0"
     inkscape:deskcolor="#d1d1d1"
     inkscape:zoom="7.9761645"
     inkscape:cx="23.758286"
     inkscape:cy="44.444921"
     inkscape:window-width="1920"
     inkscape:window-height="996"
     inkscape:window-x="0"
     inkscape:window-y="0"
     inkscape:window-maximized="1"
     inkscape:current-layer="svg8" />
  <rect
     style="opacity:0.2;stroke-width:0.98246"
     width="55.017544"
     height="55.017544"
     x="2.9999993"
     y="3.9824567"
     rx="27.508772"
     ry="27.508772"
     id="rect1" />
  <rect
     style="fill:url(#linearGradient2);fill-opacity:1;stroke-width:0.98246"
     width="55.017544"
     height="55.017544"
     x="2.9999993"
     y="2.9999995"
     rx="27.508772"
     ry="27.508772"
     id="rect2" />
  <path
     style="opacity:0.1;fill:#ffffff;stroke-width:0.98246"
     d="m 30.508772,2.9999995 c -15.239861,0 -27.5087726,12.2689125 -27.5087726,27.5087735 0,0.164762 0.010575,0.327172 0.013432,0.491229 C 3.2747731,15.989522 15.433673,3.9824555 30.508772,3.9824555 c 15.075097,0 27.233997,12.0070665 27.49534,27.0175465 0.0029,-0.164057 0.01347,-0.326467 0.01347,-0.49123 -3.8e-5,-15.23986 -12.26895,-27.5087725 -27.50881,-27.5087725 z"
     id="path2" />
  <g
     id="g1"
     transform="matrix(1.0263423,0,0,1.0261189,87.194146,-18.633812)">
    <path
       style="opacity:0.2;fill:none;stroke:#000000;stroke-width:2.8"
       d="m -54.751856,64.232503 -8.26,-13.3 8.26,-4.27 8.26,4.27 z m 16.1,-25.9 -16.1,25.9 -8.26,-13.3 z m -32.2,0 16.1,25.9 8.26,-13.3 z"
       id="path2-7" />
    <path
       style="fill:none;stroke:#ff5e49;stroke-width:2.8"
       d="m -70.851856,37.332102 16.1,25.9 8.26,-13.3 z"
       id="path3-5" />
    <path
       style="fill:none;stroke:#5cd262;stroke-width:2.8"
       d="m -38.651856,37.332102 -16.1,25.9 -8.26,-13.3 z"
       id="path4" />
    <path
       style="fill:none;stroke:#ffffff;stroke-width:2.8"
       d="m -54.751856,63.232102 -8.26,-13.3 8.26,-4.27 8.26,4.27 z"
       id="path5" />
  </g>
</svg>
