<?xml version="1.0" encoding="UTF-8" standalone="no"?>
<svg
   width="62"
   height="62"
   version="1.1"
   id="svg29"
   sodipodi:docname="io.github.leonardschardijn.Chirurgien.svg"
   inkscape:version="1.4 (unknown)"
   xmlns:inkscape="http://www.inkscape.org/namespaces/inkscape"
   xmlns:sodipodi="http://sodipodi.sourceforge.net/DTD/sodipodi-0.dtd"
   xmlns:xlink="http://www.w3.org/1999/xlink"
   xmlns="http://www.w3.org/2000/svg"
   xmlns:svg="http://www.w3.org/2000/svg">
  <defs
     id="defs29">
    <linearGradient
       id="linearGradient29"
       inkscape:collect="always">
      <stop
         style="stop-color:#2d3d53;stop-opacity:1;"
         offset="0"
         id="stop29" />
      <stop
         style="stop-color:#354864;stop-opacity:1;"
         offset="1"
         id="stop30" />
    </linearGradient>
    <linearGradient
       inkscape:collect="always"
       xlink:href="#linearGradient29"
       id="linearGradient30"
       x1="30.782633"
       y1="60"
       x2="30.193521"
       y2="5"
       gradientUnits="userSpaceOnUse"
       gradientTransform="matrix(0.98214286,0,0,0.98245614,-0.42857152,-0.92982455)" />
  </defs>
  <sodipodi:namedview
     id="namedview29"
     pagecolor="#ffffff"
     bordercolor="#000000"
     borderopacity="0.25"
     inkscape:showpageshadow="2"
     inkscape:pageopacity="0.0"
     inkscape:pagecheckerboard="0"
     inkscape:deskcolor="#d1d1d1"
     inkscape:zoom="7.0710678"
     inkscape:cx="25.173001"
     inkscape:cy="36.557421"
     inkscape:window-width="1920"
     inkscape:window-height="996"
     inkscape:window-x="0"
     inkscape:window-y="0"
     inkscape:window-maximized="1"
     inkscape:current-layer="svg29" />
  <rect
     style="opacity:0.2;stroke-width:0.9823"
     width="55"
     height="55.017544"
     x="3.5"
     y="3.9824562"
     ry="13.754386"
     id="rect1" />
  <rect
     style="fill:url(#linearGradient30);stroke-width:0.9823"
     width="55"
     height="55.017544"
     x="3.5"
     y="3"
     ry="13.754386"
     id="rect2" />
  <path
     style="opacity:0.1;fill:#ffffff;stroke-width:0.9823"
     d="M 17.25,3 C 9.6324999,3 3.4999999,9.1344561 3.4999999,16.754386 v 0.982456 c 0,-7.61993 6.1325,-13.7543858 13.7500001,-13.7543858 h 27.5 c 7.6175,0 13.75,6.1344558 13.75,13.7543858 V 16.754386 C 58.5,9.1344561 52.3675,3 44.75,3 Z"
     id="path28" />
  <g
     id="g1"
     transform="matrix(0.81461676,0,0,0.81461676,10.59385,-17.062389)">
    <path
       style="opacity:0.2"
       d="M 21.863281,33 C 20.282316,33 19,34.269748 19,35.833984 V 47.166016 C 19,48.730254 20.282316,50 21.863281,50 H 37.136719 C 38.717683,50 40,48.730254 40,47.166016 V 35.833984 C 40,34.269748 38.717683,33 37.136719,33 Z M -0.1660156,50 C -1.7302518,50 -3,51.282315 -3,52.863281 V 68.136719 C -3,69.717685 -1.7302518,71 -0.1660156,71 H 11.166016 C 12.730253,71 14,69.717685 14,68.136719 V 52.863281 C 14,51.282315 12.730253,50 11.166016,50 Z M 24.769531,64 C 23.240684,64 22,65.231771 22,66.75 v 16.5 C 22,84.768229 23.240684,86 24.769531,86 H 43.230469 C 44.759315,86 46,84.768229 46,83.25 V 66.75 C 46,65.231771 44.759315,64 43.230469,64 Z"
       id="path1" />
    <path
       style="opacity:0.2"
       d="m 12,38.300562 v 2.699219 H 8.394531 C 5.976698,40.999781 4,42.976479 4,45.394312 v 8.40625 a 1.50015,1.50015 0 1 0 3,0 v -8.40625 C 7,44.720477 7.720696,43.999781 8.394531,43.999781 H 12 V 46.699 l 7,-4.199219 z m 31.666016,2.699219 a 1.50015,1.50015 0 1 0 0,3 h 5.134765 c 0.673835,0 1.298828,0.660017 1.298828,1.394531 v 26.605469 c 0,0.734514 -0.564314,1.300781 -1.298828,1.300781 H 46 a 1.50015,1.50015 0 1 0 0,3 h 2.800781 c 2.357154,0 4.298828,-1.943627 4.298828,-4.300781 V 45.394312 c 0,-2.357154 -1.880995,-4.394531 -4.298828,-4.394531 z m -27.066407,16 a 1.50015,1.50015 0 1 0 0,3 H 35.654297 C 36.328129,59.999781 37,60.689686 37,61.394312 v 5.00586 a 1.50015,1.50015 0 1 0 3,0 v -5.00586 C 40,59.00727 38.072129,56.999781 35.654297,56.999781 Z M 5.476562,68.978297 A 1.50015,1.50015 0 0 0 4,70.499781 v 5.246094 c 0,2.417833 2.067264,4.253906 4.394531,4.253906 H 15 V 82.699 l 7,-4.199219 -7,-4.199219 v 2.699219 H 8.394531 C 7.63013,76.999781 7,76.41971 7,75.745875 V 70.499781 A 1.50015,1.50015 0 0 0 5.476562,68.978297 Z"
       id="path2" />
    <path
       style="fill:none;stroke:#7a94b7;stroke-width:3;stroke-linecap:round;stroke-linejoin:round;stroke-opacity:1"
       d="m 5.5001,52.8 v -8.4061 c 0,-1.545834 1.347966,-2.8938 2.8938,-2.8938 H 13.8"
       id="path3" />
    <path
       style="fill:none;stroke:#7a94b7;stroke-width:3;stroke-linecap:round;stroke-linejoin:round;stroke-opacity:1"
       d="m 38.5001,65.4 v -5.0061 c 0,-1.545834 -1.300368,-2.8938 -2.8462,-2.8938 H 16.6"
       id="path4" />
    <path
       style="fill:none;stroke:#7a94b7;stroke-width:3;stroke-linecap:round;stroke-linejoin:round;stroke-opacity:1"
       d="m 46,73.8 h 2.8 c 1.545834,0 2.8,-1.254166 2.8,-2.8 V 44.3939 c 0,-1.545834 -1.254166,-2.8938 -2.8,-2.8938 h -5.133334"
       id="path5" />
    <path
       style="fill:#2fd077;fill-opacity:1"
       d="m 21.863636,32 h 15.272727 c 1.580964,0 2.863636,1.269097 2.863636,2.833334 V 46.166666 C 39.999999,47.730904 38.717327,49 37.136363,49 H 21.863636 C 20.282671,49 19,47.730904 19,46.166666 V 34.833334 C 19,33.269097 20.282671,32 21.863636,32 Z m 0,0"
       id="path6" />
    <path
       style="fill:#7aeb93;fill-opacity:1"
       d="m 19,36 h 20.999999 v 1 H 19 Z m 0,0"
       id="path7" />
    <path
       style="fill:#7aeb93;fill-opacity:1"
       d="m 19,45 h 20.999999 v 1 H 19 Z m 0,0"
       id="path8" />
    <path
       style="fill:#1d7b50"
       d="m 22,34 h 13 v 1 H 22 Z m 0,0"
       id="path9" />
    <path
       style="fill:#27a56b;fill-opacity:1"
       d="m 22,39 h 17 v 1 h -3 v 3 H 22 Z"
       id="path10" />
    <path
       style="fill:#2fd077;fill-opacity:1"
       d="M -0.1666664,49.000002 H 11.166667 C 12.730904,49.000002 14,50.282673 14,51.863639 V 67.136365 C 14,68.717331 12.730904,70 11.166667,70 H -0.1666664 c -1.5642362,0 -2.8333334,-1.282669 -2.8333334,-2.863635 V 51.863639 c 0,-1.580966 1.2690972,-2.863637 2.8333334,-2.863637 z m 0,0"
       id="path11" />
    <path
       style="fill:#7aeb93;fill-opacity:1"
       d="m -3,53 h 17 v 1 H -3 Z m 0,0"
       id="path12" />
    <path
       style="fill:#7aeb93;fill-opacity:1"
       d="m -3,64 h 17 v 1 H -3 Z m 0,0"
       id="path13" />
    <path
       style="fill:#1d7b50"
       d="m 0,51 h 10 v 1 H 0 Z m 0,0"
       id="path14" />
    <path
       style="fill:#27a56b;fill-opacity:1"
       d="m 0,56 h 13 v 1.333333 H 10.11111 V 60 H 0 Z"
       id="path15" />
    <path
       style="fill:#27a56b;fill-opacity:1"
       d="m 0,66 h 11 v 1 H 0 Z m 0,0"
       id="path16" />
    <path
       style="fill:none;stroke:#7a94b7;stroke-width:3;stroke-linecap:round;stroke-linejoin:round;stroke-opacity:1"
       d="m 5.5001,69.5 v 5.2461 c 0,1.545834 1.347966,2.7538 2.8938,2.7538 H 18"
       id="path17" />
    <path
       style="fill:#7a94b7;fill-opacity:1"
       d="m 22,77.5 -7,-4.2 v 8.4 z m 0,0"
       id="path18" />
    <path
       style="fill:#7a94b7;fill-opacity:1"
       d="m 19,41.5 -7,-4.2 v 8.4 z m 0,0"
       id="path19" />
    <path
       style="opacity:0.2;fill:#ffffff"
       d="m 12,37.300781 v 1 L 18.166016,42 19,41.5 Z M 8.394531,40 C 5.976698,40 4,41.976698 4,44.394531 v 1 C 4,42.976698 5.976698,41 8.394531,41 H 12 v -1 z m 35.271485,0 a 1.50015,1.50015 0 0 0 -1.433594,2 1.50015,1.50015 0 0 1 1.433594,-1 h 5.134765 c 2.417833,0 4.298828,2.037377 4.298828,4.394531 v -1 C 53.099609,42.037377 51.218614,40 48.800781,40 Z M 16.599609,56 a 1.50015,1.50015 0 0 0 -1.433593,2 1.50015,1.50015 0 0 1 1.433593,-1 H 35.654297 C 38.072129,57 40,59.007489 40,61.394531 v -1 C 40,58.007489 38.072129,56 35.654297,56 Z M 5.476562,67.978516 A 1.50015,1.50015 0 0 0 4,69.5 v 1 A 1.50015,1.50015 0 0 1 5.476562,68.978516 1.50015,1.50015 0 0 1 7,70.5 v -1 A 1.50015,1.50015 0 0 0 5.476562,67.978516 Z M 50.099609,71 c 0,0.734514 -0.564314,1.300781 -1.298828,1.300781 H 46 a 1.50015,1.50015 0 0 0 -1.433594,2 1.50015,1.50015 0 0 1 1.433594,-1 h 2.800781 c 0.734514,0 1.298828,-0.566267 1.298828,-1.300781 z M 15,73.300781 v 1 L 21.166016,78 22,77.5 Z m -8,1.445313 v 1 C 7,76.419929 7.63013,77 8.394531,77 H 15 V 76 H 8.394531 C 7.63013,76 7,75.419929 7,74.746094 Z"
       id="path20" />
    <path
       style="fill:#2fd077;fill-opacity:1"
       d="m 24.769231,63 h 18.46154 c 1.528846,0 2.76923,1.231771 2.76923,2.75 V 82.250001 C 46.000001,83.76823 44.759617,85 43.230771,85 H 24.769231 C 23.240384,85 22,83.76823 22,82.250001 V 65.75 C 22,64.231771 23.240384,63 24.769231,63 Z m 0,0"
       id="path21" />
    <path
       style="opacity:0.2;fill:#ffffff"
       d="M 21.863281,32 C 20.282316,32 19,33.269748 19,34.833984 v 1 C 19,34.269748 20.282316,33 21.863281,33 H 37.136719 C 38.717683,33 40,34.269748 40,35.833984 v -1 C 40,33.269748 38.717683,32 37.136719,32 Z M -0.1660156,49 C -1.7302518,49 -3,50.282315 -3,51.863281 v 1 C -3,51.282315 -1.7302518,50 -0.1660156,50 H 11.166016 C 12.730253,50 14,51.282315 14,52.863281 v -1 C 14,50.282315 12.730253,49 11.166016,49 Z M 24.769531,63 C 23.240684,63 22,64.231771 22,65.75 v 1 C 22,65.231771 23.240684,64 24.769531,64 H 43.230469 C 44.759315,64 46,65.231771 46,66.75 v -1 C 46,64.231771 44.759315,63 43.230469,63 Z"
       id="path22" />
    <path
       style="fill:#7aeb93;fill-opacity:1"
       d="m 22,67 h 24.000001 v 1 H 22 Z m 0,0"
       id="path23" />
    <path
       style="fill:#7aeb93;fill-opacity:1"
       d="m 22,79 h 24.000001 v 1 H 22 Z m 0,0"
       id="path24" />
    <path
       style="fill:#1d7b50"
       d="m 25,65 h 13 v 1 H 25 Z m 0,0"
       id="path25" />
    <path
       style="fill:#27a56b;fill-opacity:1"
       d="m 25,71 h 20 v 4 h -6 v 1 H 25 Z"
       id="path26" />
    <path
       style="fill:#27a56b;fill-opacity:1"
       d="m 25,81 h 17 v 1 H 25 Z m 0,0"
       id="path27" />
    <path
       style="opacity:0.2"
       d="m 43,39.000221 c -0.297022,0 -0.592849,0.113355 -0.820312,0.339844 l -1.839844,1.839844 c -0.452977,0.454931 -0.452977,1.187645 0,1.640624 l 1.839844,1.839844 c 0.454927,0.452978 1.187647,0.452978 1.640624,0 l 1.839844,-1.839844 c 0.452978,-0.452979 0.452978,-1.185693 0,-1.640624 L 43.820312,39.340065 C 43.593823,39.113576 43.297022,39.000221 43,39.000221 Z m -26,16 c -0.297022,0 -0.593823,0.113428 -0.820312,0.339844 l -1.839844,1.839844 c -0.452973,0.45283 -0.452973,1.187795 0,1.640624 l 1.839844,1.839844 c 0.452979,0.452831 1.185693,0.452831 1.640624,0 l 1.839844,-1.839844 c 0.452979,-0.452829 0.452979,-1.187795 0,-1.640624 L 17.820312,55.340065 C 17.592847,55.113649 17.297022,55.000221 17,55.000221 Z"
       id="path28-3" />
    <path
       style="fill:#f2f2f2;fill-opacity:1"
       d="m 42.17898,38.339735 -1.839247,1.839243 c -0.452977,0.454932 -0.452977,1.189066 0,1.642045 l 1.839247,1.839243 c 0.454928,0.452978 1.189064,0.452978 1.642042,0 l 1.839245,-1.839243 c 0.452978,-0.452979 0.452978,-1.187113 0,-1.642045 l -1.839245,-1.839243 c -0.452978,-0.452978 -1.187114,-0.452978 -1.642042,0 z m 0,0"
       id="path29" />
    <path
       style="fill:#f2f2f2;fill-opacity:1"
       d="M 16.178976,54.339623 14.33973,56.18022 c -0.452973,0.45283 -0.452973,1.186728 0,1.639558 l 1.839246,1.840599 c 0.452979,0.452831 1.187112,0.452831 1.642044,0 l 1.839242,-1.840599 c 0.452979,-0.45283 0.452979,-1.186728 0,-1.639558 L 17.82102,54.339623 c -0.454932,-0.452831 -1.189065,-0.452831 -1.642044,0 z m 0,0"
       id="path30" />
  </g>
</svg>
