<?xml version="1.0" encoding="UTF-8" standalone="no"?>
<svg
   width="62"
   height="62"
   version="1.1"
   id="svg4"
   sodipodi:docname="gaupol.svg"
   inkscape:version="1.4 (unknown)"
   xmlns:inkscape="http://www.inkscape.org/namespaces/inkscape"
   xmlns:sodipodi="http://sodipodi.sourceforge.net/DTD/sodipodi-0.dtd"
   xmlns="http://www.w3.org/2000/svg"
   xmlns:svg="http://www.w3.org/2000/svg">
  <defs
     id="defs4" />
  <sodipodi:namedview
     id="namedview4"
     pagecolor="#ffffff"
     bordercolor="#000000"
     borderopacity="0.25"
     inkscape:showpageshadow="2"
     inkscape:pageopacity="0.0"
     inkscape:pagecheckerboard="0"
     inkscape:deskcolor="#d1d1d1"
     inkscape:zoom="7.0710678"
     inkscape:cx="34.860364"
     inkscape:cy="47.164022"
     inkscape:window-width="1920"
     inkscape:window-height="996"
     inkscape:window-x="0"
     inkscape:window-y="0"
     inkscape:window-maximized="1"
     inkscape:current-layer="svg4" />
  <g
     id="g4"
     transform="translate(-1,-1.5)">
    <rect
       style="opacity:0.2"
       width="60"
       height="52"
       x="2"
       y="7"
       rx="5.4549999"
       ry="5.474"
       id="rect1" />
    <rect
       style="fill:#2d3d53;fill-opacity:1"
       width="60"
       height="52"
       x="2"
       y="6"
       rx="5.4549999"
       ry="5.474"
       id="rect2" />
    <path
       style="opacity:0.2;fill-rule:evenodd"
       d="m 32,18.001953 c -19.090909,0 -18.892578,1.363638 -18.892578,15 0,12.272728 2.125,12.271485 2.125,12.271485 L 11.744141,59 32,48.001953 c 19.091102,0 18.892578,-1.363636 18.892578,-15 0,-13.636362 0.198332,-15 -18.892578,-15 z m -10,12 a 3,3 0 0 1 3,3 3,3 0 0 1 -3,3 3,3 0 0 1 -3,-3 3,3 0 0 1 3,-3 z m 10,0 a 3,3 0 0 1 3,3 3,3 0 0 1 -3,3 3,3 0 0 1 -3,-3 3,3 0 0 1 3,-3 z m 10,0 a 3,3 0 0 1 3,3 3,3 0 0 1 -3,3 3,3 0 0 1 -3,-3 3,3 0 0 1 3,-3 z"
       id="path2" />
    <path
       style="fill:#f2f2f2;fill-rule:evenodd;fill-opacity:1"
       d="m 32,17.001953 c -19.090909,0 -18.892578,1.363638 -18.892578,15 0,12.272728 2.125,12.271485 2.125,12.271485 L 11.744141,58 32,47.001953 c 19.091102,0 18.892578,-1.363636 18.892578,-15 0,-13.636362 0.198332,-15 -18.892578,-15 z m -10,12 a 3,3 0 0 1 3,3 3,3 0 0 1 -3,3 3,3 0 0 1 -3,-3 3,3 0 0 1 3,-3 z m 10,0 a 3,3 0 0 1 3,3 3,3 0 0 1 -3,3 3,3 0 0 1 -3,-3 3,3 0 0 1 3,-3 z m 10,0 a 3,3 0 0 1 3,3 3,3 0 0 1 -3,3 3,3 0 0 1 -3,-3 3,3 0 0 1 3,-3 z"
       id="path3" />
    <path
       style="opacity:0.1;fill:#ffffff"
       d="M 7.453125,6 C 4.4313068,6 2,8.4402353 2,11.472656 v 1 C 2,9.4402353 4.4313068,7 7.453125,7 h 49.09375 C 59.568693,7 62,9.4402353 62,12.472656 v -1 C 62,8.4402353 59.568693,6 56.546875,6 Z"
       id="path4" />
  </g>
</svg>
