<?xml version="1.0" encoding="UTF-8" standalone="no"?>
<svg
   width="62"
   height="62"
   version="1.1"
   id="svg6"
   sodipodi:docname="gb-studio.svg"
   inkscape:version="1.4 (unknown)"
   xmlns:inkscape="http://www.inkscape.org/namespaces/inkscape"
   xmlns:sodipodi="http://sodipodi.sourceforge.net/DTD/sodipodi-0.dtd"
   xmlns:xlink="http://www.w3.org/1999/xlink"
   xmlns="http://www.w3.org/2000/svg"
   xmlns:svg="http://www.w3.org/2000/svg">
  <defs
     id="defs6">
    <linearGradient
       id="linearGradient6"
       inkscape:collect="always">
      <stop
         style="stop-color:#cccccc;stop-opacity:1"
         offset="0"
         id="stop6" />
      <stop
         style="stop-color:#ececec;stop-opacity:1"
         offset="1"
         id="stop7" />
    </linearGradient>
    <linearGradient
       inkscape:collect="always"
       xlink:href="#linearGradient6"
       id="linearGradient7"
       x1="29.156532"
       y1="54.533333"
       x2="29.270374"
       y2="6.9333334"
       gradientUnits="userSpaceOnUse"
       gradientTransform="translate(1,0.2666661)" />
  </defs>
  <sodipodi:namedview
     id="namedview6"
     pagecolor="#ffffff"
     bordercolor="#000000"
     borderopacity="0.25"
     inkscape:showpageshadow="2"
     inkscape:pageopacity="0.0"
     inkscape:pagecheckerboard="0"
     inkscape:deskcolor="#d1d1d1"
     inkscape:zoom="12.078125"
     inkscape:cx="32"
     inkscape:cy="30.675291"
     inkscape:window-width="1920"
     inkscape:window-height="996"
     inkscape:window-x="0"
     inkscape:window-y="0"
     inkscape:window-maximized="1"
     inkscape:current-layer="svg6" />
  <path
     style="opacity:0.2;stroke-width:0.933332"
     d="M 8.0909093,7.1999991 C 5.2705459,7.1999991 3,9.4785119 3,12.308775 v 38.315782 c 0,2.83026 2.2705459,5.108777 5.0909093,5.108777 H 34.818184 C 59,55.733334 59,46.792983 59,31.466666 V 12.308775 C 59,9.4785119 56.729457,7.1999991 53.909091,7.1999991 H 34.818184 Z"
     id="path1" />
  <path
     style="fill:url(#linearGradient7);stroke-width:0.933332"
     d="M 8.0909093,6.2666659 C 5.2705459,6.2666659 3,8.545178 3,11.375436 v 38.315792 c 0,2.830257 2.2705459,5.10877 5.0909093,5.10877 H 34.818184 C 59,54.799998 59,45.859647 59,30.533334 V 11.375436 C 59,8.545178 56.729457,6.2666659 53.909091,6.2666659 H 34.818184 Z"
     id="path2" />
  <path
     style="opacity:0.45;fill:#3c4e6c;fill-opacity:1;stroke-width:0.933332"
     d="m 13.033332,19.333334 c -1.421933,0 -2.566665,1.135268 -2.566665,2.54545 v 22.909093 c 0,1.410182 1.144732,2.545457 2.566665,2.545457 h 24.383336 c 14.116664,0 14.116664,-6.363641 14.116664,-14 v -11.45455 c 0,-1.410182 -1.144733,-2.54545 -2.566664,-2.54545 h -11.55 z"
     id="path3" />
  <rect
     style="fill:#8d5fd3;stroke-width:0.933332"
     width="22.399992"
     height="20.533331"
     x="19.799995"
     y="23.066662"
     rx="2.5200007"
     ry="2.7813327"
     id="rect3" />
  <circle
     style="opacity:0.1;stroke-width:0.933332"
     cx="37.866669"
     cy="29.800014"
     r="1.8666668"
     id="circle3" />
  <circle
     style="fill:#00d455;stroke-width:0.933332"
     cx="37.866669"
     cy="28.866667"
     r="1.8666668"
     id="circle4" />
  <path
     style="opacity:0.2;fill:#ffffff;stroke-width:0.933332"
     d="M 8.0895835,6.2666661 C 5.2692194,6.2666661 3,8.544219 3,11.374479 v 0.933332 C 3,9.4775526 5.2692194,7.1999993 8.0895835,7.1999993 H 34.817189 53.91042 C 56.730777,7.1999993 59,9.4775526 59,12.307811 V 11.374479 C 59,8.544219 56.730777,6.2666661 53.91042,6.2666661 H 34.817189 Z"
     id="path4" />
  <path
     style="opacity:0.3;fill:#3c4e6c;fill-opacity:1;stroke-width:0.933332"
     d="M 10.466667,6.2666661 V 10.933334 H 3 v 2.8 h 56 v -2.8 H 51.533332 V 6.2666661 h -2.8 V 10.933334 H 13.266668 V 6.2666661 Z"
     id="path5" />
  <path
     style="opacity:0.1;stroke-width:0.933332"
     d="M 22.319268,23.066666 C 20.923381,23.066666 19.8,24.307348 19.8,25.84844 v 0.933332 c 0,-1.541085 1.123381,-2.781774 2.519268,-2.781774 h 17.361464 c 1.395887,0 2.519268,1.240689 2.519268,2.781774 V 25.84844 c 0,-1.541092 -1.123381,-2.781774 -2.519268,-2.781774 z"
     id="path6" />
</svg>
