<?xml version="1.0" encoding="UTF-8" standalone="no"?>
<svg
   width="62"
   height="62"
   version="1.1"
   id="svg29"
   sodipodi:docname="ghex.svg"
   inkscape:version="1.4 (unknown)"
   xmlns:inkscape="http://www.inkscape.org/namespaces/inkscape"
   xmlns:sodipodi="http://sodipodi.sourceforge.net/DTD/sodipodi-0.dtd"
   xmlns:xlink="http://www.w3.org/1999/xlink"
   xmlns="http://www.w3.org/2000/svg"
   xmlns:svg="http://www.w3.org/2000/svg">
  <defs
     id="defs29">
    <linearGradient
       id="linearGradient29"
       inkscape:collect="always">
      <stop
         style="stop-color:#2d3d53;stop-opacity:1;"
         offset="0"
         id="stop29" />
      <stop
         style="stop-color:#2b6e45;stop-opacity:1;"
         offset="1"
         id="stop30" />
    </linearGradient>
    <linearGradient
       inkscape:collect="always"
       xlink:href="#linearGradient29"
       id="linearGradient30"
       x1="30.782633"
       y1="60"
       x2="30.193521"
       y2="5"
       gradientUnits="userSpaceOnUse"
       gradientTransform="matrix(0.98214286,0,0,0.98245614,-0.42857152,-0.92982455)" />
    <linearGradient
       id="_lgradient_24"
       x1="0"
       y1="0.5"
       x2="0.99995631"
       y2="0.50934696"
       gradientTransform="matrix(40.5,0,0,39.999995,11.250001,11)"
       gradientUnits="userSpaceOnUse">
      <stop
         offset="34.94098066785295%"
         stop-opacity="1"
         style="stop-color:rgb(178,229,107)"
         id="stop1" />
      <stop
         offset="0.5384922"
         stop-opacity="1"
         style="stop-color:#c1e963;stop-opacity:1;"
         id="stop2" />
      <stop
         offset="90.40515655585295%"
         stop-opacity="1"
         style="stop-color:rgb(236,244,81)"
         id="stop3" />
      <stop
         offset="100%"
         stop-opacity="1"
         style="stop-color:rgb(250,247,75)"
         id="stop4" />
    </linearGradient>
  </defs>
  <sodipodi:namedview
     id="namedview29"
     pagecolor="#ffffff"
     bordercolor="#000000"
     borderopacity="0.25"
     inkscape:showpageshadow="2"
     inkscape:pageopacity="0.0"
     inkscape:pagecheckerboard="0"
     inkscape:deskcolor="#d1d1d1"
     inkscape:zoom="7.0710678"
     inkscape:cx="25.102291"
     inkscape:cy="38.678741"
     inkscape:window-width="1920"
     inkscape:window-height="996"
     inkscape:window-x="0"
     inkscape:window-y="0"
     inkscape:window-maximized="1"
     inkscape:current-layer="svg29" />
  <rect
     style="opacity:0.2;stroke-width:0.9823"
     width="55"
     height="55.017544"
     x="3.5"
     y="3.9824562"
     ry="13.754386"
     id="rect1" />
  <rect
     style="fill:url(#linearGradient30);stroke-width:0.9823"
     width="55"
     height="55.017544"
     x="3.5"
     y="3"
     ry="13.754386"
     id="rect2" />
  <path
     style="opacity:0.1;fill:#ffffff;stroke-width:0.9823"
     d="M 17.25,3 C 9.6324999,3 3.4999999,9.1344561 3.4999999,16.754386 v 0.982456 c 0,-7.61993 6.1325,-13.7543858 13.7500001,-13.7543858 h 27.5 c 7.6175,0 13.75,6.1344558 13.75,13.7543858 V 16.754386 C 58.5,9.1344561 52.3675,3 44.75,3 Z"
     id="path28" />
  <path
     id="rect2-3"
     d="m 31.003506,2.999995 c -0.843002,5e-6 -1.267977,0.71875 -1.267977,2.163581 0,0.703207 0.09538,1.266185 0.309304,1.63894 0.213922,0.37083 0.543523,0.558841 0.958678,0.558841 0.850246,0 1.267975,-0.750991 1.267975,-2.197781 -3e-6,-0.701284 -0.09354,-1.235622 -0.309303,-1.606458 -0.213928,-0.37271 -0.538069,-0.557123 -0.958677,-0.557123 z m -13.364939,0.06488 -1.050941,0.885264 0.278546,0.328127 0.370838,-0.328127 c 0.148657,-0.134485 0.269356,-0.243787 0.340052,-0.326411 -0.01448,0.4592 -0.03076,0.813198 -0.03076,1.047609 v 2.623314 h 0.49386 V 3.064822 H 17.63857 Z m 6.683295,0 -1.052659,0.885264 0.247784,0.328127 0.401595,-0.328127 c 0.14865,-0.13449 0.269358,-0.24379 0.340048,-0.326416 -0.01446,0.459201 -0.03076,0.813199 -0.03076,1.047611 v 2.623312 h 0.495576 V 3.064785 h -0.401597 z m 13.332531,0 -1.020192,0.885264 0.247795,0.328127 0.401594,-0.328127 c 0.148643,-0.13449 0.269382,-0.24379 0.340046,-0.326416 -0.01485,0.459201 -0.03076,0.813199 -0.03076,1.047611 v 2.623312 h 0.495581 V 3.064793 h -0.43408 z m 6.683294,0 -1.021906,0.885264 0.247792,0.328127 0.403275,-0.328127 c 0.148651,-0.13449 0.269382,-0.24379 0.340054,-0.326416 -0.01485,0.459201 -0.03077,0.813199 -0.03077,1.047611 v 2.623312 h 0.463105 V 3.064775 H 44.337645 Z M 31.003506,3.459647 c 0.2665,2e-6 0.462773,0.122171 0.587836,0.393059 0.125096,0.268991 0.186268,0.705583 0.186268,1.310797 -4e-6,0.609045 -0.06118,1.074069 -0.186268,1.344991 -0.125089,0.268986 -0.321348,0.393061 -0.587836,0.393061 -0.262873,0 -0.464555,-0.124087 -0.587838,-0.393061 -0.121468,-0.26898 -0.186273,-0.733995 -0.186269,-1.344991 -1e-6,-0.609051 0.0648,-1.043747 0.186269,-1.310797 0.123277,-0.268981 0.324974,-0.393055 0.587838,-0.393055 z M 11.954624,3.645974 c -0.148438,0.04831 -0.291466,0.107162 -0.437473,0.160649 0.0087,0.01635 0.01922,0.02856 0.02735,0.04615 0.125091,0.26899 0.184556,0.705583 0.184556,1.310794 -2e-6,0.609051 -0.05948,1.074068 -0.184556,1.344996 -0.125094,0.268984 -0.32135,0.393058 -0.587839,0.393058 -0.262874,0 -0.46459,-0.124085 -0.587839,-0.393058 -0.121463,-0.268987 -0.155508,-0.734001 -0.155508,-1.344998 0,-0.320472 0.01118,-0.590099 0.0376,-0.815181 -0.18027,0.08883 -0.3629019,0.173175 -0.5383012,0.270022 -0.015642,0.169353 -0.025628,0.349103 -0.025628,0.545148 0,0.703207 0.1278458,1.266185 0.3417704,1.638939 0.213922,0.370835 0.512772,0.558845 0.927923,0.558845 0.850244,0 1.267975,-0.750993 1.267975,-2.197784 -3e-6,-0.651013 -0.08585,-1.151551 -0.270001,-1.517596 z m 38.290888,0.07175 -0.276823,0.232429 0.278542,0.328123 0.401589,-0.328123 c 0.02813,-0.02548 0.03891,-0.03771 0.0649,-0.06151 -0.154795,-0.05991 -0.310619,-0.116739 -0.468224,-0.1709 z m 0.733108,0.266607 c -0.0089,0.253004 -0.02047,0.533285 -0.02047,0.687032 v 2.623318 h 0.464815 V 4.187738 c -0.148229,-0.06787 -0.29311,-0.140972 -0.444334,-0.20337 z m -33.340417,6.393455 c -0.843001,5e-6 -1.267974,0.71875 -1.267974,2.163586 0,0.7032 0.126136,1.266184 0.340051,1.638933 0.213922,0.370832 0.512739,0.557123 0.927923,0.557123 0.850243,0 1.267974,-0.749304 1.267974,-2.196056 -4e-6,-0.701287 -0.09357,-1.235629 -0.309305,-1.606463 -0.213928,-0.372704 -0.538069,-0.557116 -0.958675,-0.557116 z m 13.364944,0 c -0.843009,5e-6 -1.267981,0.71875 -1.267981,2.163586 0,0.7032 0.09539,1.266184 0.309306,1.638933 0.213924,0.370832 0.543524,0.557123 0.958681,0.557123 0.850236,0 1.267967,-0.749304 1.267967,-2.196056 -3e-6,-0.701287 -0.09355,-1.235629 -0.3093,-1.606463 -0.213926,-0.37271 -0.538073,-0.557123 -0.958673,-0.557123 z m 20.015818,0 c -0.842996,5e-6 -1.237217,0.71875 -1.237217,2.163586 0,0.7032 0.09544,1.266184 0.309295,1.638933 0.213956,0.370832 0.51274,0.557123 0.927922,0.557123 0.850245,0 1.300449,-0.749304 1.300449,-2.196056 0,-0.701287 -0.126028,-1.235629 -0.341772,-1.606463 -0.213957,-0.37271 -0.538068,-0.557123 -0.958677,-0.557123 z m 6.683296,0 c -0.843,5e-6 -1.269692,0.71875 -1.269692,2.163586 0,0.7032 0.127845,1.266184 0.34177,1.638933 0.213961,0.370832 0.512741,0.557123 0.927922,0.557123 0.530698,0 0.904277,-0.291615 1.110763,-0.863037 -0.0883,-0.539566 -0.201556,-1.071259 -0.353742,-1.585957 0.003,0.08901 0.01552,0.155135 0.01552,0.252938 -2e-6,0.609047 -0.05941,1.07235 -0.184559,1.34327 -0.125099,0.268991 -0.321297,0.394779 -0.587836,0.394779 -0.262869,1e-6 -0.433804,-0.125786 -0.557084,-0.394779 -0.121465,-0.268981 -0.186283,-0.73227 -0.186283,-1.34327 0,-0.609053 0.06474,-1.04543 0.186283,-1.312515 0.12328,-0.268983 0.294215,-0.393065 0.557084,-0.393065 0.09786,1e-6 0.182575,0.02376 0.261445,0.05817 -0.07473,-0.175644 -0.163956,-0.342887 -0.246069,-0.514397 -0.0054,-6.3e-5 -0.01,-0.002 -0.01551,-0.002 z m -53.4134528,0.002 c -0.08024,0.167622 -0.1677704,0.330881 -0.2409496,0.50246 0.067787,-0.02725 0.1396552,-0.04615 0.2255716,-0.04615 0.2664988,4e-6 0.4627715,0.122164 0.5878396,0.393056 0.1250912,0.268989 0.1862657,0.707303 0.1862657,1.312523 -2.6e-6,0.609045 -0.061184,1.072347 -0.1862657,1.343271 -0.1250943,0.268984 -0.3213541,0.394777 -0.5878396,0.394777 -0.2628736,10e-7 -0.4338015,-0.12579 -0.5570841,-0.394777 -0.1214702,-0.268988 -0.1845628,-0.732272 -0.1845562,-1.343271 -1e-7,-0.09823 0.012071,-0.163743 0.01538,-0.25294 -0.1496215,0.506072 -0.262391,1.028471 -0.350302,1.558608 0.043369,0.123094 0.092556,0.23548 0.1486727,0.333263 0.2139253,0.370832 0.5127384,0.557125 0.9279234,0.557125 0.8502434,0 1.3004482,-0.749306 1.3004482,-2.196056 -3e-6,-0.701289 -0.1260402,-1.23563 -0.3417712,-1.606463 C 5.0209808,10.56729 4.7015452,10.384506 4.2888407,10.379775 Z m 6.6680838,0.06325 -1.0526607,0.885262 0.2785457,0.328127 0.401593,-0.328127 c 0.14866,-0.134591 0.238601,-0.24561 0.309303,-0.328232 -0.01448,0.459201 -10e-7,0.814922 0,1.049336 v 2.623278 h 0.464822 v -4.230021 h -0.401593 z m 13.364935,0 -1.05266,0.885262 0.247788,0.328127 0.401595,-0.328127 c 0.148649,-0.134485 0.269354,-0.245506 0.340047,-0.328128 -0.01447,0.459199 -0.03078,0.814921 -0.03078,1.049337 v 2.623312 h 0.495576 v -4.229944 h -0.401586 z m 13.332533,0 -1.020189,0.885262 0.24779,0.328127 0.401596,-0.328127 c 0.14864,-0.134485 0.269382,-0.245506 0.340045,-0.328128 -0.01485,0.459199 -0.03076,0.814921 -0.03076,1.049337 v 2.623312 h 0.495566 V 10.44287 h -0.434059 z m 6.683292,0 -1.021904,0.885262 0.247789,0.328127 0.403279,-0.328127 c 0.148647,-0.134485 0.269381,-0.245506 0.34005,-0.328128 -0.01485,0.459199 -0.03078,0.814921 -0.03078,1.049337 v 2.623312 h 0.463103 V 10.442704 H 44.33761 Z m -26.699449,0.39278 c 0.266502,4e-6 0.462772,0.122167 0.587842,0.393062 0.125088,0.268984 0.186264,0.707307 0.186264,1.312517 -3e-6,0.609044 -0.06118,1.072351 -0.186264,1.343271 -0.125097,0.268989 -0.321353,0.394778 -0.587842,0.394778 -0.262874,0 -0.464557,-0.125787 -0.587839,-0.394778 -0.121463,-0.268981 -0.184559,-0.732271 -0.184559,-1.343271 0,-0.609055 0.06309,-1.045429 0.184559,-1.312517 0.123279,-0.268983 0.324978,-0.393062 0.587839,-0.393062 z m 13.364944,0 c 0.266499,4e-6 0.462765,0.122167 0.587835,0.393062 0.125086,0.268984 0.186263,0.707307 0.186263,1.312517 -3e-6,0.609044 -0.06119,1.072351 -0.186263,1.343271 -0.125098,0.268989 -0.321349,0.394778 -0.587835,0.394778 -0.262876,0 -0.464565,-0.125787 -0.587847,-0.394778 -0.121465,-0.268981 -0.186268,-0.732271 -0.186265,-1.343271 -1e-6,-0.609055 0.06479,-1.045429 0.186265,-1.312517 0.123274,-0.268983 0.32498,-0.393062 0.587847,-0.393062 z m 20.015818,0 c 0.266474,4e-6 0.462773,0.122167 0.587843,0.393062 0.125133,0.268984 0.21703,0.707307 0.21703,1.312517 0,0.609044 -0.09198,1.072351 -0.21703,1.343271 -0.125105,0.268989 -0.321338,0.394778 -0.587843,0.394778 -0.262865,0 -0.4338,-0.125787 -0.557084,-0.394778 -0.121429,-0.268981 -0.184557,-0.732271 -0.184557,-1.343271 0,-0.609055 0.06309,-1.045429 0.184557,-1.312517 0.123318,-0.268983 0.294185,-0.393062 0.557084,-0.393062 z m -40.063396,6.917929 c -0.843002,4e-6 -1.269694,0.718751 -1.269694,2.16358 0,0.703211 0.1278458,1.267904 0.341771,1.640626 0.213922,0.370835 0.512772,0.557128 0.927923,0.557128 0.850244,0 1.267974,-0.750994 1.267974,-2.197779 -3e-6,-0.701294 -0.09357,-1.235636 -0.309303,-1.606468 C 11.700315,17.938111 11.37617,17.7537 10.955562,17.7537 Z m 20.046575,0 c -0.842997,4e-6 -1.267967,0.718751 -1.267967,2.16358 0,0.703211 0.09538,1.267904 0.309301,1.640626 0.21392,0.370835 0.543529,0.557128 0.958673,0.557128 0.850248,0 1.267982,-0.750994 1.267982,-2.197779 -3e-6,-0.701288 -0.09354,-1.23563 -0.309308,-1.606462 -0.21393,-0.372715 -0.538069,-0.557126 -0.958681,-0.557126 z m 6.681647,0 c -0.843004,4e-6 -1.267977,0.718751 -1.267977,2.16358 0,0.703211 0.0954,1.267904 0.309299,1.640626 0.21396,0.370835 0.543522,0.557128 0.958678,0.557128 0.850247,0 1.269696,-0.750994 1.269696,-2.197779 -7e-6,-0.701288 -0.124341,-1.23563 -0.340051,-1.606462 -0.213957,-0.372715 -0.509034,-0.557126 -0.929611,-0.557126 z m 13.334182,0 c -0.842998,4e-6 -1.237217,0.718751 -1.237217,2.16358 0,0.703211 0.09544,1.267904 0.309294,1.640626 0.213959,0.370835 0.512741,0.557128 0.927923,0.557128 0.850247,0 1.300453,-0.750994 1.300453,-2.197779 0,-0.701288 -0.126029,-1.23563 -0.341776,-1.606462 -0.213956,-0.372715 -0.538068,-0.557126 -0.958677,-0.557126 z m 6.683298,0 c -0.843003,4e-6 -1.269695,0.718751 -1.269695,2.16358 0,0.703211 0.127847,1.267904 0.341772,1.640626 0.213957,0.370835 0.512737,0.557128 0.927923,0.557128 C 58.551513,22.115079 59,21.364085 59,19.9173 c -2e-6,-0.701288 -0.124307,-1.23563 -0.34005,-1.606462 -0.213926,-0.372715 -0.53807,-0.557126 -0.958679,-0.557126 z m -53.4299895,0.06663 -1.0509409,0.885263 0.2785456,0.326419 0.4015929,-0.326419 c 0.1486561,-0.134486 0.2385978,-0.245498 0.3093032,-0.328125 -0.014517,0.459199 -1.5e-6,0.814919 0,1.04933 v 2.621598 H 4.6746035 V 17.82056 H 4.2713242 Z m 13.3649375,0 -1.050941,0.885263 0.278546,0.326419 0.370839,-0.326419 c 0.148656,-0.134486 0.269355,-0.245498 0.340051,-0.328125 -0.01448,0.459199 -0.03075,0.814919 -0.03075,1.04933 v 2.6216 h 0.493857 V 17.82057 h -0.401594 z m 6.6833,0 -1.052666,0.885263 0.247785,0.326419 0.401595,-0.326419 c 0.148652,-0.134486 0.269355,-0.245498 0.340053,-0.328125 -0.01448,0.459199 -0.0308,0.814919 -0.0308,1.04933 v 2.621598 h 0.49558 V 17.82055 h -0.40158 z m 20.01582,0 -1.021907,0.885263 0.247792,0.326419 0.40328,-0.326419 c 0.148644,-0.134486 0.269381,-0.245498 0.340049,-0.328125 -0.01485,0.459199 -0.03079,0.814919 -0.03079,1.04933 v 2.621599 h 0.463116 v -4.227875 h -0.40157 z m -33.380101,0.393069 c 0.266502,4e-6 0.462771,0.122166 0.587839,0.393058 0.125091,0.268988 0.184557,0.705583 0.184557,1.310799 -3e-6,0.609049 -0.05948,1.074068 -0.184557,1.344991 -0.125094,0.268983 -0.32135,0.393062 -0.587839,0.393062 -0.262874,0 -0.46459,-0.124085 -0.587839,-0.393062 -0.121463,-0.26898 -0.155508,-0.733998 -0.155508,-1.344991 0,-0.609053 0.03405,-1.043744 0.155508,-1.310799 0.123279,-0.268979 0.324978,-0.393058 0.587839,-0.393058 z m 20.046581,0 c 0.266502,4e-6 0.462774,0.122166 0.587836,0.393058 0.125097,0.268988 0.186268,0.705583 0.186268,1.310799 -10e-7,0.609049 -0.06119,1.074068 -0.186268,1.344991 -0.125088,0.268983 -0.321348,0.393062 -0.587836,0.393062 -0.262871,0 -0.464554,-0.124085 -0.587838,-0.393062 -0.121466,-0.26898 -0.186271,-0.733998 -0.186269,-1.344991 -1e-6,-0.609053 0.0648,-1.043744 0.186269,-1.310799 0.123278,-0.268979 0.324976,-0.393058 0.587838,-0.393058 z m 6.681643,0 c 0.266474,4e-6 0.46277,0.122166 0.58784,0.393058 0.125094,0.268988 0.186277,0.705583 0.186277,1.310799 -4e-6,0.609049 -0.06117,1.074068 -0.186277,1.344991 -0.12507,0.268983 -0.321336,0.393062 -0.58784,0.393062 -0.262869,0 -0.46456,-0.124085 -0.587845,-0.393062 -0.121427,-0.26898 -0.184554,-0.733998 -0.184554,-1.344991 0,-0.609053 0.06306,-1.043744 0.184554,-1.310799 0.123319,-0.268979 0.325012,-0.393058 0.587845,-0.393058 z m 13.334182,0 c 0.266473,4e-6 0.462771,0.122166 0.587838,0.393058 0.125137,0.268988 0.217034,0.705583 0.217034,1.310799 0,0.609049 -0.09197,1.074068 -0.217034,1.344991 -0.125101,0.268983 -0.321332,0.393062 -0.587838,0.393062 -0.262867,0 -0.433802,-0.124085 -0.557082,-0.393062 -0.121432,-0.26898 -0.184563,-0.733998 -0.184563,-1.344991 0,-0.609053 0.0631,-1.043744 0.184563,-1.310799 0.12331,-0.268979 0.29418,-0.393058 0.557082,-0.393058 z m 6.683296,0 c 0.266472,4e-6 0.462768,0.122166 0.587841,0.393058 0.125063,0.268988 0.184557,0.705583 0.184557,1.310799 -4e-6,0.609049 -0.0594,1.074068 -0.184557,1.344991 -0.125104,0.268983 -0.321305,0.393062 -0.587841,0.393062 -0.262868,0 -0.433803,-0.124085 -0.557086,-0.393062 -0.121463,-0.26898 -0.186278,-0.733998 -0.186278,-1.344991 0,-0.609053 0.06472,-1.043744 0.186278,-1.310799 0.123283,-0.268979 0.294218,-0.393058 0.557086,-0.393058 z m -46.746694,6.917937 c -0.843001,4e-6 -1.2696937,0.718742 -1.2696937,2.163581 0,0.703202 0.1278457,1.266183 0.3417707,1.638931 0.213922,0.370836 0.512772,0.557132 0.927923,0.557132 0.850244,0 1.267974,-0.749306 1.267974,-2.196063 -4e-6,-0.701288 -0.09357,-1.235623 -0.309303,-1.606455 -0.213928,-0.372725 -0.53807,-0.557126 -0.958678,-0.557126 z m 20.046582,0 c -0.843006,4e-6 -1.267977,0.718742 -1.267977,2.163581 0,0.703202 0.09539,1.266183 0.309306,1.638931 0.213921,0.370836 0.543523,0.557132 0.958679,0.557132 0.850238,0 1.267969,-0.749306 1.267969,-2.196063 -3e-6,-0.701288 -0.09354,-1.235623 -0.309298,-1.606455 -0.213929,-0.372725 -0.538069,-0.557126 -0.958679,-0.557126 z m 6.681638,0 c -0.842998,4e-6 -1.26797,0.718742 -1.26797,2.163581 0,0.703202 0.0954,1.266183 0.309292,1.638931 0.213958,0.370836 0.543531,0.557132 0.958678,0.557132 0.850248,0 1.2697,-0.749306 1.2697,-2.196063 -7e-6,-0.701288 -0.124376,-1.235623 -0.340055,-1.606455 -0.213959,-0.372725 -0.509034,-0.557126 -0.929612,-0.557126 z m 13.334185,0 c -0.843,4e-6 -1.237219,0.718742 -1.237219,2.163581 0,0.703202 0.09544,1.266183 0.309297,1.638931 0.213959,0.370836 0.512739,0.557132 0.927922,0.557132 0.850244,0 1.300448,-0.749306 1.300448,-2.196063 0,-0.701288 -0.126027,-1.235623 -0.341769,-1.606455 -0.213894,-0.372725 -0.538073,-0.557126 -0.958679,-0.557126 z m -46.7466929,0.06489 -1.0509406,0.885263 0.2785453,0.328128 0.4015931,-0.328128 c 0.1486567,-0.13449 0.2385978,-0.24551 0.3093037,-0.328125 -0.014518,0.4592 -1.4e-6,0.814916 0,1.049331 v 2.623312 H 4.6732812 V 25.196189 H 4.2700015 Z m 13.3649379,0 -1.05094,0.885263 0.278545,0.328128 0.370839,-0.328128 c 0.148656,-0.13449 0.269355,-0.24551 0.340051,-0.328125 -0.01448,0.4592 -0.03075,0.814916 -0.03075,1.049332 v 2.623311 h 0.493856 V 25.196234 H 17.6349 Z m 6.683296,0 -1.052659,0.885263 0.247783,0.328128 0.401591,-0.328128 c 0.148657,-0.13449 0.269357,-0.24551 0.340055,-0.328125 -0.01446,0.4592 -0.03079,0.814916 -0.03079,1.049331 v 2.623312 h 0.495579 v -4.229867 h -0.401592 z m 20.015828,0 -1.021906,0.885263 0.247785,0.328128 0.403281,-0.328128 c 0.148646,-0.13449 0.269382,-0.24551 0.340052,-0.328125 -0.01485,0.4592 -0.03078,0.814916 -0.03078,1.049331 v 2.623312 h 0.463105 v -4.229856 h -0.40159 z m 13.364934,0 -1.05266,0.885263 0.278541,0.328128 0.401596,-0.328128 c 0.148647,-0.13449 0.238593,-0.24551 0.309296,-0.328125 -0.01485,0.4592 0,0.814916 0,1.049331 v 2.623312 h 0.464823 v -4.229836 h -0.401596 z m -46.746692,0.39309 c 0.266502,4e-6 0.462771,0.123879 0.587839,0.394778 0.125091,0.26898 0.184556,0.705584 0.184556,1.310795 -2e-6,0.609049 -0.05948,1.074069 -0.184556,1.344991 -0.125094,0.26899 -0.32135,0.393062 -0.587839,0.393062 -0.262874,0 -0.46459,-0.12408 -0.587839,-0.393058 -0.121463,-0.268971 -0.155508,-0.733984 -0.155508,-1.344983 0,-0.609049 0.03405,-1.043743 0.155508,-1.310795 0.123279,-0.268986 0.324978,-0.394778 0.587839,-0.394778 z m 20.046576,0 c 0.266502,4e-6 0.462776,0.123879 0.587843,0.394778 0.12509,0.26898 0.186268,0.705584 0.186268,1.310795 -2e-6,0.609049 -0.06119,1.074069 -0.186268,1.344991 -0.125093,0.268986 -0.321355,0.393058 -0.587843,0.393058 -0.262865,0 -0.464553,-0.12408 -0.587836,-0.393058 -0.121466,-0.268979 -0.186267,-0.733992 -0.186264,-1.344991 0,-0.609048 0.06477,-1.043743 0.186264,-1.310795 0.123277,-0.268986 0.324982,-0.394778 0.587836,-0.394778 z m 6.681647,0 c 0.266471,4e-6 0.462768,0.123879 0.587836,0.394778 0.125106,0.26898 0.186278,0.705584 0.186278,1.310795 -2e-6,0.609049 -0.06118,1.074069 -0.186278,1.344991 -0.125068,0.268986 -0.321329,0.393058 -0.587836,0.393058 -0.262871,0 -0.464557,-0.12408 -0.587836,-0.393058 -0.121432,-0.268979 -0.184567,-0.733992 -0.184567,-1.344991 0,-0.609048 0.06305,-1.043743 0.184567,-1.310795 0.123308,-0.268986 0.324998,-0.394778 0.587836,-0.394778 z m 13.334183,0 c 0.266472,4e-6 0.462772,0.123879 0.587839,0.394778 0.125134,0.26898 0.217035,0.705584 0.217035,1.310795 0,0.609049 -0.09197,1.074069 -0.217035,1.344991 -0.125101,0.268986 -0.321332,0.393058 -0.587839,0.393058 -0.262866,0 -0.433802,-0.12408 -0.557082,-0.393058 -0.121434,-0.268979 -0.184563,-0.733992 -0.184563,-1.344991 0,-0.609048 0.0631,-1.043743 0.184563,-1.310795 0.123313,-0.268986 0.294183,-0.394778 0.557082,-0.394778 z M 4.2679742,32.508968 C 3.4249732,32.508972 3,33.227717 3,34.672555 c -5e-7,0.703201 0.1261392,1.266182 0.3400507,1.638931 0.2139254,0.370836 0.5127385,0.557127 0.9279235,0.557127 0.8502435,0 1.3004483,-0.749308 1.3004483,-2.196058 -2.9e-6,-0.701286 -0.1260399,-1.235628 -0.341771,-1.606462 C 5.0127271,32.693377 4.6885818,32.508968 4.2679742,32.508968 Z m 6.6832958,0 c -0.843001,4e-6 -1.269694,0.718749 -1.269694,2.163587 0,0.703201 0.1278458,1.266182 0.341771,1.638931 0.213921,0.370836 0.512771,0.557127 0.927923,0.557127 0.850243,0 1.267974,-0.749308 1.267974,-2.196058 -3e-6,-0.701286 -0.09357,-1.235628 -0.309303,-1.606462 -0.213929,-0.372716 -0.53807,-0.557125 -0.958678,-0.557125 z m 20.04658,0 c -0.842997,4e-6 -1.267974,0.718749 -1.267974,2.163587 0,0.703201 0.09538,1.266182 0.3093,1.638931 0.213923,0.370836 0.543529,0.557127 0.958679,0.557127 0.850248,0 1.267975,-0.749308 1.267975,-2.196058 -3e-6,-0.701286 -0.09354,-1.235628 -0.309303,-1.606462 -0.213928,-0.372716 -0.53807,-0.557125 -0.958677,-0.557125 z m 6.681646,0 c -0.843007,4e-6 -1.267979,0.718749 -1.267979,2.163587 0,0.703201 0.09541,1.266182 0.309301,1.638931 0.213959,0.370836 0.543523,0.557127 0.958678,0.557127 0.850239,0 1.269689,-0.749308 1.269689,-2.196058 -7e-6,-0.701286 -0.124373,-1.235628 -0.340052,-1.606462 -0.213892,-0.372716 -0.509032,-0.557125 -0.929606,-0.557125 z m 6.683291,0 c -0.842999,4e-6 -1.267972,0.718749 -1.267972,2.163587 0,0.703201 0.0954,1.266182 0.309293,1.638931 0.213958,0.370836 0.543528,0.557127 0.958679,0.557127 0.850243,0 1.267975,-0.749308 1.267975,-2.196058 -3e-6,-0.701286 -0.12434,-1.235628 -0.340051,-1.606462 -0.213925,-0.372716 -0.507316,-0.557125 -0.927924,-0.557125 z m 6.65089,0 c -0.843004,4e-6 -1.237224,0.718749 -1.237224,2.163587 0,0.703201 0.09544,1.266182 0.3093,1.638931 0.213959,0.370836 0.512737,0.557127 0.927924,0.557127 0.85024,0 1.300446,-0.749308 1.300446,-2.196058 0,-0.701286 -0.126023,-1.235628 -0.34177,-1.606462 -0.213858,-0.372716 -0.538069,-0.557125 -0.958676,-0.557125 z m -33.380103,0.06494 -1.050941,0.885266 0.278545,0.328129 0.370839,-0.328129 c 0.148656,-0.134489 0.269356,-0.245509 0.340051,-0.328129 -0.01448,0.4592 -0.03076,0.814917 -0.03076,1.049333 v 2.623312 h 0.493855 v -4.229861 h -0.401591 z m 6.683295,0 -1.052659,0.885266 0.247785,0.328129 0.401593,-0.328129 c 0.14865,-0.134489 0.269354,-0.245508 0.340047,-0.328129 -0.01446,0.4592 -0.03081,0.814918 -0.03081,1.049334 V 36.80369 H 24.7184 v -4.229868 h -0.401587 z m 33.380105,0 -1.052665,0.885266 0.278544,0.328129 0.401594,-0.328129 c 0.148646,-0.134489 0.238595,-0.245508 0.309294,-0.328129 -0.01485,0.4592 0,0.814918 0,1.049334 v 2.623311 h 0.464824 V 32.573821 H 57.696974 Z M 4.2669824,32.966962 c 0.266498,3e-6 0.4627708,0.122167 0.5878388,0.39306 0.1250911,0.268983 0.1862659,0.707304 0.1862659,1.312517 -2.8e-6,0.609047 -0.061183,1.072347 -0.1862659,1.343267 -0.125094,0.26899 -0.3213534,0.394781 -0.5878388,0.394781 -0.2628745,0 -0.4338023,-0.125771 -0.5570849,-0.394781 -0.1214697,-0.268982 -0.184563,-0.732269 -0.1845566,-1.343267 -7e-7,-0.609053 0.063092,-1.04543 0.1845566,-1.312517 0.1232758,-0.268986 0.2942171,-0.39306 0.5570849,-0.39306 z m 6.6832956,0 c 0.266502,3e-6 0.462771,0.122167 0.587839,0.39306 0.125091,0.268983 0.184556,0.707304 0.184556,1.312517 -2e-6,0.609047 -0.05948,1.072347 -0.184556,1.343267 -0.125095,0.26899 -0.321351,0.394781 -0.587839,0.394781 -0.262874,0 -0.46459,-0.125771 -0.587839,-0.394781 -0.121464,-0.268972 -0.155508,-0.732261 -0.155508,-1.34326 0,-0.609053 0.03405,-1.045429 0.155508,-1.312518 0.123279,-0.268983 0.324978,-0.393063 0.587839,-0.393063 z m 20.046581,0 c 0.266502,3e-6 0.462766,0.122167 0.587838,0.39306 0.125093,0.268983 0.186262,0.707304 0.186262,1.312517 -3e-6,0.609047 -0.06119,1.072347 -0.186262,1.343267 -0.125098,0.26899 -0.32135,0.394781 -0.587838,0.394781 -0.262875,0 -0.464558,-0.125771 -0.587836,-0.394781 -0.121466,-0.268979 -0.186276,-0.732269 -0.186272,-1.343267 -10e-7,-0.609053 0.06483,-1.04543 0.186272,-1.312517 0.123272,-0.268982 0.324972,-0.39306 0.587836,-0.39306 z m 6.681639,0 c 0.266473,3e-6 0.462772,0.122167 0.587842,0.39306 0.125099,0.268983 0.18628,0.707304 0.18628,1.312517 -4e-6,0.609047 -0.06118,1.072347 -0.18628,1.343267 -0.12507,0.26899 -0.321334,0.394781 -0.587842,0.394781 -0.262864,0 -0.464555,-0.125771 -0.587838,-0.394781 -0.12143,-0.268979 -0.184558,-0.732269 -0.184558,-1.343267 0,-0.609053 0.06305,-1.04543 0.184558,-1.312517 0.123316,-0.268982 0.325007,-0.39306 0.587838,-0.39306 z m 6.683296,0 c 0.266474,3e-6 0.462774,0.122167 0.587839,0.39306 0.125137,0.268983 0.184563,0.707304 0.184563,1.312517 -4e-6,0.609047 -0.0594,1.072347 -0.184563,1.343267 -0.125065,0.26899 -0.3213,0.394781 -0.587839,0.394781 -0.262866,0 -0.464555,-0.125771 -0.587836,-0.394781 -0.121429,-0.268979 -0.186281,-0.732269 -0.186281,-1.343267 -3e-6,-0.609053 0.06477,-1.04543 0.186281,-1.312517 0.123315,-0.268982 0.325002,-0.39306 0.587836,-0.39306 z m 6.650892,0 c 0.266471,3e-6 0.462769,0.122167 0.587837,0.39306 0.125132,0.268983 0.217032,0.707304 0.217032,1.312517 0,0.609047 -0.09197,1.072347 -0.217032,1.343267 -0.125101,0.26899 -0.321333,0.394781 -0.587837,0.394781 -0.26287,0 -0.433806,-0.125771 -0.557086,-0.394781 -0.121435,-0.268979 -0.18456,-0.732269 -0.18456,-1.343267 0,-0.609053 0.0631,-1.04543 0.18456,-1.312517 0.123313,-0.268982 0.294182,-0.39306 0.557086,-0.39306 z m -26.697474,6.917934 c -0.842996,0 -1.269689,0.718762 -1.269689,2.163609 0,0.70315 0.09538,1.26791 0.309301,1.64061 0.213921,0.37082 0.545215,0.55717 0.960395,0.55717 0.850249,-1e-5 1.26798,-0.751 1.26798,-2.19778 -3e-6,-0.701318 -0.09354,-1.235607 -0.309307,-1.606467 -0.213932,-0.37276 -0.53807,-0.557142 -0.95868,-0.557142 z m 6.681647,0 c -0.843003,0 -1.267974,0.718762 -1.267974,2.163609 0,0.70315 0.09539,1.26791 0.309303,1.64061 0.21392,0.37082 0.543522,0.55717 0.958678,0.55717 0.850239,-1e-5 1.267969,-0.751 1.267969,-2.19778 -2e-6,-0.701318 -0.09354,-1.235607 -0.309298,-1.606467 -0.213928,-0.37276 -0.538068,-0.557142 -0.958678,-0.557142 z m 13.364935,0 c -0.843,0 -1.267972,0.718762 -1.267972,2.163609 0,0.70315 0.0954,1.26791 0.309298,1.64061 0.213959,0.37082 0.543525,0.55717 0.958674,0.55717 0.850248,-1e-5 1.267978,-0.751 1.267978,-2.19778 -3e-6,-0.701318 -0.124341,-1.235607 -0.340053,-1.606467 -0.213957,-0.37276 -0.507313,-0.557142 -0.927925,-0.557142 z m 13.334186,0 c -0.843,0 -1.269695,0.718762 -1.269695,2.163609 0,0.70315 0.127844,1.26791 0.341769,1.64061 0.213959,0.37082 0.512743,0.55717 0.927926,0.55717 0.850245,-1e-5 1.298729,-0.751 1.298729,-2.19778 -4e-6,-0.701318 -0.124341,-1.235607 -0.340054,-1.606467 -0.213958,-0.372762 -0.538069,-0.557144 -0.958675,-0.557144 z m -53.42999,0.06685 -1.0509403,0.88526 0.2785451,0.360667 0.4015931,-0.360667 c 0.1486566,-0.134459 0.2385977,-0.24546 0.3093034,-0.32809 -0.014517,0.459212 -1.4e-6,0.81488 0,1.049363 v 2.621516 H 4.669313 V 39.951921 H 4.2660332 Z m 6.683296,0 -1.0526606,0.88526 0.2785456,0.360667 0.401593,-0.360667 c 0.14866,-0.134466 0.238601,-0.245467 0.309304,-0.328098 -0.01449,0.45921 -2e-6,0.814878 0,1.049361 v 2.621526 h 0.464821 v -4.227893 h -0.401593 z m 6.681642,0 -1.050941,0.88526 0.278546,0.360667 0.370838,-0.360667 c 0.148657,-0.134459 0.269356,-0.24546 0.340051,-0.32809 -0.01448,0.459212 -0.03075,0.81488 -0.03075,1.049363 v 2.621516 h 0.493856 v -4.227908 h -0.401592 z m 20.015825,0 -1.020186,0.88526 0.247792,0.360667 0.401586,-0.360667 c 0.148653,-0.134459 0.269383,-0.24546 0.340055,-0.32809 -0.01485,0.459212 -0.03075,0.81488 -0.03075,1.049363 v 2.621516 h 0.495575 v -4.22787 h -0.434073 z m 13.364936,0 -1.050939,0.88526 0.278543,0.360667 0.401596,-0.360667 c 0.148644,-0.134459 0.26938,-0.24546 0.340048,-0.32809 -0.01485,0.459212 -0.03078,0.81488 -0.03078,1.049363 v 2.621516 h 0.464818 v -4.227866 h -0.403266 z m -26.697466,0.393076 c 0.266502,9e-6 0.462776,0.122116 0.587837,0.393072 0.125095,0.269032 0.184562,0.705584 0.184562,1.310771 -3e-6,0.60907 -0.0594,1.07409 -0.184562,1.34497 -0.125089,0.26903 -0.321349,0.39308 -0.587837,0.39308 -0.262871,0 -0.46459,-0.12408 -0.587839,-0.39308 -0.121462,-0.26897 -0.186269,-0.73399 -0.186265,-1.34497 -1e-6,-0.608991 0.06476,-1.043731 0.186265,-1.310771 0.123281,-0.269011 0.324978,-0.393072 0.587839,-0.393072 z m 6.681648,0 c 0.266499,9e-6 0.462763,0.122116 0.587837,0.393072 0.125085,0.269032 0.186261,0.705584 0.186261,1.310771 -3e-6,0.60907 -0.06118,1.07409 -0.186261,1.34497 -0.125101,0.26903 -0.321351,0.39308 -0.587837,0.39308 -0.262876,0 -0.464565,-0.12408 -0.587845,-0.39308 -0.121466,-0.26897 -0.18627,-0.73399 -0.186267,-1.34497 -10e-7,-0.608991 0.06479,-1.043731 0.186267,-1.310771 0.123274,-0.269011 0.324978,-0.393072 0.587845,-0.393072 z m 13.364935,0 c 0.266471,9e-6 0.462768,0.122116 0.587836,0.393072 0.125138,0.269032 0.184559,0.705584 0.184559,1.310771 -3e-6,0.60907 -0.0594,1.07409 -0.184559,1.34497 -0.125068,0.26903 -0.321298,0.39308 -0.587836,0.39308 -0.26287,0 -0.464557,-0.12408 -0.587841,-0.39308 -0.12143,-0.26897 -0.186281,-0.73399 -0.186281,-1.34497 -3e-6,-0.608991 0.0648,-1.043731 0.186281,-1.310771 0.123312,-0.269011 0.325004,-0.393072 0.587841,-0.393072 z m 13.334181,0 c 0.26647,9e-6 0.462773,0.122116 0.587837,0.393072 0.125071,0.269032 0.184564,0.705584 0.184564,1.310771 -4e-6,0.60907 -0.0594,1.07409 -0.184564,1.34497 -0.125097,0.26903 -0.321299,0.39308 -0.587837,0.39308 -0.262867,0 -0.433801,-0.12408 -0.557084,-0.39308 -0.121463,-0.26897 -0.186277,-0.73399 -0.186277,-1.34497 0,-0.608991 0.06471,-1.043731 0.186277,-1.310771 0.123283,-0.269011 0.294217,-0.393072 0.557084,-0.393072 z m -46.746693,6.917883 c -0.843002,1e-5 -1.2696942,0.75128 -1.2696942,2.19611 0,0.70316 0.1278457,1.23366 0.3417702,1.60643 0.213922,0.37084 0.512772,0.55714 0.927924,0.55714 0.850243,0 1.267974,-0.71683 1.267974,-2.16357 -3e-6,-0.70132 -0.09357,-1.26813 -0.309304,-1.63897 -0.213927,-0.37272 -0.538069,-0.55714 -0.958677,-0.55714 z m 20.046574,0 c -0.842996,1e-5 -1.267968,0.75128 -1.267968,2.19611 0,0.70316 0.09538,1.23366 0.309301,1.60643 0.213922,0.37084 0.543528,0.55714 0.958674,0.55714 0.850249,0 1.267981,-0.71683 1.267981,-2.16357 -2e-6,-0.70132 -0.09354,-1.26813 -0.309307,-1.63897 -0.21393,-0.37272 -0.538068,-0.55714 -0.958681,-0.55714 z m 26.699459,0 c -0.843,1e-5 -1.269695,0.75128 -1.269695,2.19611 0,0.70316 0.127844,1.23366 0.341768,1.60643 0.213961,0.37084 0.512744,0.55714 0.927927,0.55714 0.0058,0 0.01,-0.002 0.01552,-0.002 0.08209,-0.17155 0.171364,-0.33876 0.246066,-0.51434 -0.07887,0.0339 -0.163527,0.0583 -0.261444,0.0583 -0.262868,0 -0.4338,-0.12409 -0.557083,-0.39302 -0.121464,-0.26903 -0.186281,-0.70151 -0.186281,-1.3125 0,-0.60904 0.06474,-1.07624 0.186281,-1.34329 0.123283,-0.26898 0.294215,-0.39479 0.557083,-0.39479 0.26647,0 0.462774,0.15636 0.587836,0.42725 0.125073,0.26902 0.184564,0.70559 0.184564,1.31083 0,0.0982 -0.01226,0.16371 -0.0155,0.25294 0.14964,-0.50609 0.262409,-1.02854 0.35034,-1.55866 -0.04344,-0.12315 -0.09212,-0.236 -0.148684,-0.33327 -0.21396,-0.37271 -0.538069,-0.55712 -0.958677,-0.55712 z m -53.4299902,0.065 -1.0509409,0.88523 0.2785456,0.36061 0.4015929,-0.36061 c 0.1486561,-0.13452 0.2385981,-0.24549 0.3093034,-0.32813 -0.014517,0.45919 -1.7e-6,0.81494 0,1.04931 v 2.52593 c 0.015196,0.0327 0.032392,0.0647 0.047848,0.0973 h 0.4169698 v -4.22988 H 4.264375 Z m 13.3649372,0 -1.05094,0.88523 0.278545,0.36061 0.370839,-0.36061 c 0.148656,-0.13452 0.269356,-0.24549 0.340051,-0.32813 -0.01448,0.45919 -0.03075,0.81494 -0.03075,1.04931 v 2.62332 h 0.493856 v -4.22988 h -0.401592 z m 6.683294,0 -1.052658,0.88523 0.247784,0.36061 0.401591,-0.36061 c 0.148655,-0.13452 0.269356,-0.24549 0.340054,-0.32813 -0.01445,0.45919 -0.03076,0.81494 -0.03076,1.04931 v 2.62332 h 0.495578 v -4.22985 h -0.4016 z m 13.332532,0 -1.020186,0.88523 0.247785,0.36061 0.401591,-0.36061 c 0.148653,-0.13452 0.269386,-0.24549 0.340055,-0.32813 -0.01485,0.45919 -0.03078,0.81494 -0.03078,1.04931 v 2.62332 h 0.495575 v -4.22985 h -0.43406 z m 6.683296,0 -1.021903,0.88523 0.247782,0.36061 0.403283,-0.36061 c 0.148647,-0.13452 0.269382,-0.24549 0.34005,-0.32813 -0.01485,0.45919 -0.03078,0.81494 -0.03078,1.04931 v 2.62332 h 0.4631 v -4.22985 H 44.32834 Z m 6.681639,0 -1.050939,0.88523 0.278544,0.36061 0.401594,-0.36061 c 0.148646,-0.13452 0.26938,-0.24549 0.340049,-0.32813 -0.01485,0.45919 -0.03079,0.81494 -0.03079,1.04931 v 2.62332 h 0.464815 v -4.22985 h -0.403272 z m -40.063395,0.39307 c 0.266502,0 0.462772,0.15636 0.587839,0.42724 0.125091,0.26903 0.184556,0.70559 0.184556,1.31084 -2e-6,0.60899 -0.05948,1.0416 -0.184556,1.31249 -0.125094,0.26899 -0.32135,0.39301 -0.587839,0.39301 -0.262874,0 -0.46459,-0.12406 -0.587839,-0.39301 -0.121463,-0.26902 -0.155508,-0.70152 -0.155508,-1.31249 0,-0.60904 0.03405,-1.07624 0.155508,-1.34329 0.123279,-0.26897 0.324978,-0.39479 0.587839,-0.39479 z m 20.046577,0 c 0.266501,0 0.462776,0.15636 0.587843,0.42724 0.12509,0.26903 0.186267,0.70559 0.186267,1.31084 -3e-6,0.60899 -0.06119,1.0416 -0.186267,1.31249 -0.125095,0.26899 -0.321355,0.39301 -0.587843,0.39301 -0.262866,0 -0.464553,-0.12406 -0.587839,-0.39301 -0.121465,-0.26902 -0.186264,-0.70152 -0.186262,-1.31249 -1e-6,-0.60904 0.06477,-1.07624 0.186262,-1.34329 0.123279,-0.26897 0.324982,-0.39479 0.587839,-0.39479 z m -13.364934,6.91789 c -0.843002,10e-6 -1.267975,0.75288 -1.267975,2.19773 0,0.70327 0.126136,1.23375 0.340051,1.60646 0.213922,0.37078 0.512739,0.55714 0.927924,0.55714 0.850244,0 1.267976,-0.71683 1.267976,-2.16361 -3e-6,-0.70124 -0.09357,-1.26804 -0.309306,-1.63893 -0.213927,-0.37268 -0.538069,-0.5588 -0.958677,-0.5588 z m 13.364934,0 c -0.842997,10e-6 -1.267971,0.75288 -1.267971,2.19773 0,0.70327 0.09538,1.23375 0.309301,1.60646 0.213925,0.37079 0.54353,0.55715 0.958676,0.55715 0.850248,0 1.26798,-0.71683 1.26798,-2.16361 -3e-6,-0.70124 -0.09354,-1.26804 -0.309307,-1.63893 -0.213929,-0.37268 -0.538071,-0.5588 -0.958679,-0.5588 z m 20.015829,0 c -0.842999,10e-6 -1.237217,0.75288 -1.237217,2.19773 0,0.65287 0.08711,1.15053 0.270006,1.51758 0.148448,-0.048 0.291474,-0.10715 0.437475,-0.16061 -0.0086,-0.0171 -0.01922,-0.028 -0.02743,-0.0459 -0.121429,-0.26903 -0.184557,-0.69984 -0.184557,-1.3108 0,-0.60903 0.06309,-1.07786 0.184557,-1.34494 0.123316,-0.26895 0.294187,-0.39303 0.557084,-0.39303 0.266471,0 0.462773,0.15461 0.587843,0.42556 0.125131,0.26896 0.21703,0.70719 0.21703,1.31244 0,0.32427 -0.02877,0.59076 -0.07174,0.81689 0.180758,-0.0888 0.364162,-0.17293 0.539991,-0.26997 0.01655,-0.16995 0.02743,-0.34994 0.02743,-0.54692 0,-0.70122 -0.12603,-1.26808 -0.341774,-1.6389 -0.213959,-0.37269 -0.53807,-0.55882 -0.958678,-0.55882 z m -40.063398,0.067 -1.0526602,0.88527 0.2785452,0.36052 0.401593,-0.36052 c 0.14866,-0.13452 0.238601,-0.24549 0.309304,-0.32823 -0.01448,0.4592 -10e-7,0.815 0,1.04936 v 1.64929 c 0.151804,0.0647 0.31007,0.11524 0.464821,0.17419 v -3.42985 h -0.401593 z m 13.36494,0 -1.052664,0.88527 0.247785,0.36052 0.401595,-0.36052 c 0.148652,-0.13452 0.269356,-0.24549 0.340048,-0.32823 -0.01446,0.4592 -0.03078,0.815 -0.03078,1.04936 v 2.62338 h 0.495576 v -4.22989 h -0.401579 z m 13.33253,0 -1.020184,0.88527 0.247783,0.36052 0.401595,-0.36052 c 0.14864,-0.13452 0.269383,-0.24549 0.340051,-0.32823 -0.01485,0.4592 -0.03078,0.815 -0.03078,1.04936 v 2.62338 h 0.495576 v -4.22989 h -0.434068 z m 6.683292,0 -1.021907,0.88527 0.247793,0.36052 0.403278,-0.36052 c 0.148645,-0.13452 0.26938,-0.24549 0.340049,-0.32823 -0.01485,0.4592 -0.03078,0.815 -0.03078,1.04936 v 2.62338 h 0.463102 v -4.22989 h -0.40159 z m -26.69945,0.39304 c 0.266501,0 0.46277,0.15459 0.58784,0.42554 0.125089,0.26897 0.186265,0.70718 0.186265,1.31245 -3e-6,0.6091 -0.06118,1.03998 -0.186265,1.31079 -0.125096,0.26898 -0.321352,0.39308 -0.58784,0.39308 -0.262874,0 -0.464557,-0.12413 -0.587839,-0.39308 -0.121464,-0.26904 -0.18456,-0.69984 -0.18456,-1.31079 0,-0.60903 0.06309,-1.07787 0.18456,-1.34493 0.123279,-0.26896 0.324978,-0.39306 0.587839,-0.39306 z m 13.364942,0 c 0.266498,0 0.462763,0.15459 0.587835,0.42554 0.125091,0.26897 0.186262,0.70718 0.186262,1.31245 -2e-6,0.6091 -0.06119,1.03998 -0.186262,1.31079 -0.125099,0.26898 -0.321349,0.39308 -0.587835,0.39308 -0.262878,0 -0.464565,-0.12413 -0.587841,-0.39308 -0.12147,-0.26904 -0.186274,-0.69984 -0.186271,-1.31079 -1e-6,-0.60903 0.06479,-1.07787 0.186271,-1.34493 0.12327,-0.26896 0.324972,-0.39306 0.587841,-0.39306 z"
     fill="#ffffff"
     fill-opacity="0.90255"
     opacity="0.57951"
     style="stroke-width:3.30702" />
  <path
     d="m 17.299934,24.73636 v 0 c 0.445264,0.892723 0.08162,1.982724 -0.811632,2.431828 v 0 c -0.89325,0.449086 -1.984193,0.08457 -2.434897,-0.813638 v 0 L 11.795344,21.827274 18.279334,11 h 11.118009 l 5.441097,9.090914 h 10.882237 l 6.529327,10.909083 -6.529327,10.909097 H 32.689214 l -2.312481,-4.645462 v 0 c -0.445263,-0.892721 -0.0816,-1.982721 0.811634,-2.431826 v 0 c 0.893242,-0.449086 1.984188,-0.08457 2.434903,0.813638 v 0 l 1.314923,2.627286 h 8.732991 l 4.35289,-7.272733 -4.35289,-7.272722 H 32.788968 L 27.34785,14.636361 h -7.019032 l -4.398232,7.354551 z m 12.342251,19.718176 v 0 c 0.600347,-0.802725 1.738432,-0.965432 2.539177,-0.363636 v 0 c 0.800767,0.601833 0.963089,1.742726 0.362742,2.545464 v 0 L 29.279442,51 H 18.279333 L 11.75,40.09089 18.279333,29.181806 h 8.968763 L 28.56304,26.55455 v 0 c 0.450696,-0.89819 1.54164,-1.262744 2.434882,-0.813638 v 0 c 0.893261,0.449086 1.256897,1.539085 0.811634,2.43181 v 0 l -2.312461,4.645467 h -9.168277 l -4.352888,7.272701 4.352888,7.27273 h 7.136927 z"
     fill-rule="evenodd"
     id="path4"
     style="fill:#a8fc7e;fill-opacity:1" />
</svg>
