<?xml version="1.0" encoding="UTF-8" standalone="no"?>
<svg
   clip-rule="evenodd"
   fill-rule="evenodd"
   stroke-linejoin="round"
   stroke-miterlimit="2"
   viewBox="0 0 62 62"
   version="1.1"
   id="svg10"
   sodipodi:docname="gimagereader.svg"
   width="62"
   height="62"
   inkscape:version="1.4 (unknown)"
   xmlns:inkscape="http://www.inkscape.org/namespaces/inkscape"
   xmlns:sodipodi="http://sodipodi.sourceforge.net/DTD/sodipodi-0.dtd"
   xmlns:xlink="http://www.w3.org/1999/xlink"
   xmlns="http://www.w3.org/2000/svg"
   xmlns:svg="http://www.w3.org/2000/svg">
  <defs
     id="defs10">
    <linearGradient
       id="linearGradient13"
       inkscape:collect="always">
      <stop
         style="stop-color:#d9d9d9;stop-opacity:1;"
         offset="0"
         id="stop13" />
      <stop
         style="stop-color:#f2f2f2;stop-opacity:1;"
         offset="1"
         id="stop14" />
    </linearGradient>
    <linearGradient
       id="linearGradient11"
       inkscape:collect="always">
      <stop
         style="stop-color:#008080;stop-opacity:1"
         offset="0"
         id="stop11" />
      <stop
         style="stop-color:#00acac;stop-opacity:1;"
         offset="1"
         id="stop12" />
    </linearGradient>
    <linearGradient
       inkscape:collect="always"
       xlink:href="#linearGradient11"
       id="linearGradient12"
       x1="18.386904"
       y1="45.517616"
       x2="18.200935"
       y2="2.3230278"
       gradientUnits="userSpaceOnUse" />
    <linearGradient
       inkscape:collect="always"
       xlink:href="#linearGradient13"
       id="linearGradient14"
       x1="44.10405"
       y1="43.398125"
       x2="43.835335"
       y2="2.164"
       gradientUnits="userSpaceOnUse" />
  </defs>
  <sodipodi:namedview
     id="namedview10"
     pagecolor="#ffffff"
     bordercolor="#000000"
     borderopacity="0.25"
     inkscape:showpageshadow="2"
     inkscape:pageopacity="0.0"
     inkscape:pagecheckerboard="0"
     inkscape:deskcolor="#d1d1d1"
     inkscape:zoom="11.387365"
     inkscape:cx="27.574421"
     inkscape:cy="29.286846"
     inkscape:window-width="1920"
     inkscape:window-height="996"
     inkscape:window-x="0"
     inkscape:window-y="0"
     inkscape:window-maximized="1"
     inkscape:current-layer="svg10" />
  <linearGradient
     id="a"
     x2="1"
     gradientTransform="matrix(-0.00109739,-43.1476,43.1476,-0.00109739,228.379,45.3582)"
     gradientUnits="userSpaceOnUse">
    <stop
       stop-color="#d9dfdf"
       offset="0"
       id="stop1" />
    <stop
       stop-color="#ffffff"
       offset="1"
       id="stop2" />
  </linearGradient>
  <linearGradient
     id="b"
     x2="1"
     gradientTransform="matrix(0,-42.321,42.321,0,195.644,44.5074)"
     gradientUnits="userSpaceOnUse">
    <stop
       stop-color="#04885f"
       offset="0"
       id="stop3" />
    <stop
       stop-color="#38b895"
       offset="1"
       id="stop4" />
  </linearGradient>
  <g
     id="g11"
     transform="matrix(1.1979359,0,0,1.2005341,2.2926649,2.1006881)">
    <path
       d="m 35.071,2.164 h 4.369 c 3.438,0 6.228,2.79 6.228,6.228 v 30.88 c 0,3.438 -2.79,6.228 -6.228,6.228 H 30.311 V 2.181 Z"
       id="path4"
       style="fill:url(#linearGradient14);fill-opacity:1" />
    <path
       d="M 24,2.332 39.714,0.776 c 2.209,-0.225 3.174,0.967 3.191,3.355 L 42.837,43.25 c -0.04,2.656 -1.222,4.047 -3.552,4.145 L 24.18,45.528 8.56,45.5 C 5.172,45.482 2.308,42.828 2.332,39.272 c 0,0 -0.072,1.829 -0.072,-30.736 0,-3.41 2.818,-6.228 6.228,-6.228 z"
       id="path5"
       style="fill:url(#linearGradient12)" />
    <path
       d="m 42.837,43.25 c -0.04,2.656 -1.222,4.047 -3.552,4.145 L 24,45.507 V 2.332 L 39.714,0.776 c 2.209,-0.225 3.174,0.967 3.191,3.355 z"
       fill-opacity="0.15"
       id="path6" />
    <g
       fill="#ffffff"
       id="g10">
      <path
         d="m 9.186,33.868 c 0,-1.315 0.454,-2.42 1.362,-3.314 0.908,-0.895 2.002,-1.342 3.282,-1.342 1.272,0 2.364,0.449 3.276,1.348 0.912,0.898 1.368,2.001 1.368,3.308 0,1.276 -0.452,2.363 -1.356,3.261 -0.904,0.898 -2,1.347 -3.288,1.347 -1.272,0 -2.364,-0.449 -3.276,-1.347 C 9.642,36.231 9.186,35.144 9.186,33.868 Z m 1.644,-0.012 c 0,0.836 0.29,1.558 0.87,2.169 0.58,0.61 1.29,0.915 2.13,0.915 0.84,0 1.55,-0.303 2.13,-0.909 0.58,-0.607 0.87,-1.331 0.87,-2.175 0,-0.851 -0.292,-1.582 -0.876,-2.192 -0.584,-0.61 -1.292,-0.916 -2.124,-0.916 -0.832,0 -1.54,0.301 -2.124,0.904 -0.584,0.602 -0.876,1.337 -0.876,2.204 z"
         fill-rule="nonzero"
         id="path7"
         style="fill:#f2f2f2;fill-opacity:1" />
      <path
         d="m 26.106,35.824 h 1.908 c -0.344,0.8 -0.898,1.442 -1.662,1.926 -0.764,0.484 -1.578,0.726 -2.442,0.726 -1.28,0 -2.372,-0.461 -3.276,-1.383 -0.904,-0.923 -1.356,-2.017 -1.356,-3.285 0,-1.235 0.448,-2.31 1.344,-3.224 0.896,-0.914 1.98,-1.372 3.252,-1.372 0.824,0 1.6,0.209 2.328,0.627 0.84,0.482 1.46,1.181 1.86,2.097 H 26.19 c -0.328,-0.388 -0.686,-0.683 -1.074,-0.885 -0.388,-0.202 -0.822,-0.303 -1.302,-0.303 -0.744,0 -1.404,0.289 -1.98,0.868 -0.608,0.61 -0.912,1.349 -0.912,2.216 0,0.836 0.296,1.562 0.888,2.181 0.592,0.618 1.28,0.927 2.064,0.927 0.52,0 0.992,-0.132 1.416,-0.396 0.224,-0.144 0.496,-0.384 0.816,-0.72 z"
         fill-rule="nonzero"
         id="path8"
         style="fill:#f2f2f2;fill-opacity:1" />
      <path
         d="m 28.998,38.284 v -8.88 h 2.724 c 0.504,0 0.924,0.048 1.26,0.144 0.336,0.096 0.636,0.248 0.9,0.456 0.296,0.24 0.532,0.52 0.708,0.84 0.224,0.408 0.336,0.844 0.336,1.308 0,0.352 -0.06,0.7 -0.18,1.044 -0.152,0.432 -0.376,0.792 -0.672,1.08 -0.24,0.224 -0.496,0.396 -0.768,0.516 -0.16,0.064 -0.396,0.136 -0.708,0.216 l 2.412,3.276 h -1.992 l -2.352,-3.396 -0.024,3.396 z m 1.644,-7.344 v 2.712 h 1.056 c 0.6,0 1.032,-0.168 1.296,-0.504 0.192,-0.24 0.288,-0.528 0.288,-0.864 0,-0.336 -0.1,-0.62 -0.3,-0.852 -0.28,-0.328 -0.708,-0.492 -1.284,-0.492 z"
         fill-rule="nonzero"
         id="path9"
         style="fill:#f2f2f2;fill-opacity:1" />
      <path
         d="M 10.005,24.463 H 35.393 L 26.14,10.294 20.299,19.373 16.251,15.094 Z"
         id="path10"
         style="fill:#f2f2f2;fill-opacity:1" />
    </g>
  </g>
</svg>
