<?xml version="1.0" encoding="UTF-8" standalone="no"?>
<svg
   width="62"
   height="62"
   version="1"
   id="svg3"
   sodipodi:docname="gitify.svg"
   inkscape:version="1.4 (unknown)"
   xmlns:inkscape="http://www.inkscape.org/namespaces/inkscape"
   xmlns:sodipodi="http://sodipodi.sourceforge.net/DTD/sodipodi-0.dtd"
   xmlns="http://www.w3.org/2000/svg"
   xmlns:svg="http://www.w3.org/2000/svg">
  <defs
     id="defs3" />
  <sodipodi:namedview
     id="namedview3"
     pagecolor="#ffffff"
     bordercolor="#000000"
     borderopacity="0.25"
     inkscape:showpageshadow="2"
     inkscape:pageopacity="0.0"
     inkscape:pagecheckerboard="0"
     inkscape:deskcolor="#d1d1d1"
     inkscape:zoom="12.078125"
     inkscape:cx="32"
     inkscape:cy="32"
     inkscape:window-width="1920"
     inkscape:window-height="996"
     inkscape:window-x="0"
     inkscape:window-y="0"
     inkscape:window-maximized="1"
     inkscape:current-layer="svg3" />
  <g
     id="g3"
     transform="translate(3.7767755e-8,-0.99928573)">
    <path
       style="opacity:0.2;stroke-width:0.980385"
       d="m 32.078039,4.9831182 c -0.249187,-0.00296 -0.498345,0.00784 -0.746361,0.032235 C 17.366198,5.050113 5.4571217,15.800469 4.1229814,29.886439 2.7502936,44.37939 13.020077,57.557089 27.359118,59.700576 41.382793,61.796917 54.715338,52.64771 58,38.899452 L 48.359931,27.260304 c -1.368083,-1.672657 -1.931212,-1.645309 -3.959392,-1.645309 h -8.898341 c -9.261137,-0.131532 -9.261137,13.886114 0,13.754585 h 7.757863 c -2.723046,4.796315 -8.118828,7.588648 -13.883899,6.726851 -7.271236,-1.086943 -12.314149,-7.557785 -11.618069,-14.907068 0.696081,-7.349285 6.862685,-12.750056 14.20759,-12.440916 0.297746,0.01596 0.596214,0.01238 0.893492,-0.01073 h 8.12168 c 3.820103,0.05427 6.945853,-3.040647 6.945853,-6.877291 0,-3.8366443 -3.12575,-6.931547 -6.945853,-6.8772935 z"
       id="path1" />
    <path
       style="fill:#2d3d53;fill-opacity:1;stroke-width:0.980385"
       d="m 32.078039,4.0006747 c -0.249187,-0.00298 -0.498345,0.00783 -0.746361,0.032235 C 17.366198,4.0676693 5.4571217,14.818026 4.1229814,28.903994 2.7502936,43.396947 13.020077,56.574646 27.359118,58.718129 41.382793,60.814473 54.715338,51.665265 58,37.917007 L 48.359931,26.277859 c -1.368083,-1.672657 -1.931212,-1.645307 -3.959392,-1.645307 h -8.898341 c -9.261137,-0.131533 -9.261137,13.886114 0,13.754584 h 7.757863 c -2.723046,4.796314 -8.118828,7.588649 -13.883899,6.726851 -7.271236,-1.086949 -12.314149,-7.557783 -11.618069,-14.907069 0.696081,-7.349285 6.862685,-12.750056 14.20759,-12.440916 0.297746,0.01596 0.596214,0.01238 0.893492,-0.01073 h 8.12168 c 3.820103,0.05426 6.945853,-3.040647 6.945853,-6.877293 0,-3.8366422 -3.12575,-6.9315447 -6.945853,-6.8772911 z"
       id="path2" />
    <path
       style="opacity:0.1;fill:#ffffff;stroke-width:0.980385"
       d="M 32.077349,3.999988 C 31.828164,3.997028 31.580153,4.008218 31.332136,4.032607 17.366655,4.067369 5.4564319,14.818585 4.1222915,28.904553 c -0.099248,1.047868 -0.1304397,2.087667 -0.1108263,3.11811 0.011906,-0.708277 0.043023,-1.4198 0.1108263,-2.135665 C 5.4564319,15.801028 17.366655,5.0498125 31.332136,5.0150519 c 0.248017,-0.024376 0.496028,-0.035571 0.745213,-0.03262 h 8.904343 c 3.654916,-0.051908 6.666645,2.780827 6.920934,6.3858831 0.01142,-0.162505 0.02485,-0.325763 0.02485,-0.491221 0,-3.8366426 -3.125671,-6.9313592 -6.945775,-6.8771058 z m 3.424161,20.633238 c -4.84911,-0.06887 -7.153608,3.741212 -6.924754,7.368328 0.208228,-3.300182 2.512722,-6.448546 6.924754,-6.385885 h 8.898612 c 2.028179,0 2.591103,-0.02822 3.959185,1.644443 l 9.443192,11.401719 c 0.06666,-0.247966 0.136826,-0.493431 0.196812,-0.744506 L 48.359307,26.277668 c -1.368082,-1.672656 -1.931006,-1.644442 -3.959185,-1.644442 z m -17.783851,7.420138 c -0.238354,6.985559 4.673808,12.999946 11.657814,14.043956 5.76507,0.861798 11.160854,-1.931121 13.883898,-6.727437 h -0.619099 c -2.870931,4.186774 -7.906943,6.54592 -13.264799,5.744993 C 22.721454,44.120195 17.949118,38.612624 17.717659,32.053364 Z"
       id="path3" />
  </g>
</svg>
