<?xml version="1.0" encoding="UTF-8" standalone="no"?>
<svg
   width="62"
   height="62"
   version="1"
   id="svg7"
   sodipodi:docname="gitqlient.svg"
   inkscape:version="1.4 (unknown)"
   xmlns:inkscape="http://www.inkscape.org/namespaces/inkscape"
   xmlns:sodipodi="http://sodipodi.sourceforge.net/DTD/sodipodi-0.dtd"
   xmlns:xlink="http://www.w3.org/1999/xlink"
   xmlns="http://www.w3.org/2000/svg"
   xmlns:svg="http://www.w3.org/2000/svg">
  <defs
     id="defs7">
    <linearGradient
       id="linearGradient2"
       inkscape:collect="always">
      <stop
         style="stop-color:#b7c6cd;stop-opacity:1;"
         offset="0"
         id="stop12" />
      <stop
         style="stop-color:#f3f3f3;stop-opacity:1;"
         offset="1"
         id="stop13" />
    </linearGradient>
    <linearGradient
       id="linearGradient7"
       inkscape:collect="always">
      <stop
         style="stop-color:#384850;stop-opacity:1;"
         offset="0"
         id="stop8" />
      <stop
         style="stop-color:#384850;stop-opacity:1;"
         offset="0.59162253"
         id="stop10" />
      <stop
         style="stop-color:#eff2f6;stop-opacity:1;"
         offset="0.92173076"
         id="stop11" />
      <stop
         style="stop-color:#eff2f6;stop-opacity:1;"
         offset="1"
         id="stop9" />
    </linearGradient>
    <linearGradient
       id="c-3"
       gradientUnits="userSpaceOnUse"
       x1="24.072048"
       x2="23.959682"
       y1="0.75082099"
       y2="46.056854">
      <stop
         offset="0"
         stop-color="#fff"
         id="stop3" />
      <stop
         offset="1"
         stop-color="#d9d9d9"
         id="stop4" />
    </linearGradient>
    <linearGradient
       id="b-6"
       gradientUnits="userSpaceOnUse"
       x1="29.203026"
       x2="34.121048"
       xlink:href="#a-7"
       y1="24.827356"
       y2="29.224836" />
    <linearGradient
       id="a-7">
      <stop
         offset="0"
         id="stop1" />
      <stop
         offset="1"
         stop-opacity="0"
         id="stop2" />
    </linearGradient>
    <linearGradient
       id="d"
       gradientUnits="userSpaceOnUse"
       x1="15.948756"
       x2="25.031786"
       xlink:href="#a-7"
       y1="23.618279"
       y2="33.69899" />
    <linearGradient
       id="e"
       gradientUnits="userSpaceOnUse"
       x1="21.990562"
       x2="29.320522"
       xlink:href="#a-7"
       y1="33.780373"
       y2="41.931858" />
    <linearGradient
       id="paint154_linear_890_11"
       x1="778"
       y1="812.29199"
       x2="788"
       y2="812.29199"
       gradientUnits="userSpaceOnUse"
       gradientTransform="translate(-751,-696)">
      <stop
         stop-color="#EFF2F6"
         id="stop1050" />
      <stop
         offset="0.600785"
         stop-color="#B7C6CD"
         id="stop1051" />
    </linearGradient>
    <linearGradient
       id="paint155_linear_890_11"
       x1="783"
       y1="813"
       x2="783"
       y2="817"
       gradientUnits="userSpaceOnUse"
       gradientTransform="translate(-751,-696)">
      <stop
         stop-color="#EFF2F6"
         id="stop1052" />
      <stop
         offset="0.734138"
         stop-color="#B7C6CD"
         id="stop1053" />
    </linearGradient>
    <radialGradient
       id="paint156_radial_890_11"
       cx="0"
       cy="0"
       r="1"
       gradientUnits="userSpaceOnUse"
       gradientTransform="matrix(27.999986,27.999976,-27.999986,27.999976,32.302392,33.999998)">
      <stop
         offset="0.60067803"
         stop-color="#B7C6CD"
         id="stop1054"
         style="stop-color:#384850;stop-opacity:1;" />
      <stop
         offset="0.876735"
         stop-color="#EFF2F6"
         id="stop1055" />
    </radialGradient>
    <linearGradient
       id="paint157_linear_890_11"
       x1="796.84485"
       y1="799.43359"
       x2="768.90088"
       y2="770.81476"
       gradientUnits="userSpaceOnUse"
       gradientTransform="matrix(1.1666666,0,0,1.1666668,-881.19764,-881.8333)">
      <stop
         offset="0.00000057"
         stop-color="#2E2E41"
         id="stop1056"
         style="stop-color:#495361;stop-opacity:1;" />
      <stop
         offset="0.711139"
         stop-color="#566C80"
         id="stop1057" />
    </linearGradient>
    <linearGradient
       id="paint158_linear_890_11"
       x1="792"
       y1="794"
       x2="774"
       y2="776"
       gradientUnits="userSpaceOnUse"
       gradientTransform="translate(-751,-696)">
      <stop
         offset="0.304478"
         stop-color="#2E2E41"
         id="stop1058" />
      <stop
         offset="1"
         stop-color="#566C80"
         id="stop1059" />
    </linearGradient>
    <linearGradient
       id="paint159_linear_890_11"
       x1="788"
       y1="790"
       x2="778"
       y2="780"
       gradientUnits="userSpaceOnUse"
       gradientTransform="translate(-751,-696)">
      <stop
         offset="0.391394"
         stop-color="#5200FF"
         id="stop1060" />
      <stop
         offset="1"
         stop-color="#0085FF"
         id="stop1061" />
    </linearGradient>
    <linearGradient
       id="paint160_linear_890_11"
       x1="784"
       y1="798"
       x2="782"
       y2="796"
       gradientUnits="userSpaceOnUse"
       gradientTransform="translate(-751,-696)">
      <stop
         stop-color="#FF7E07"
         id="stop1062" />
      <stop
         offset="1"
         stop-color="#FFE607"
         id="stop1063" />
    </linearGradient>
    <linearGradient
       inkscape:collect="always"
       xlink:href="#linearGradient2"
       id="linearGradient6"
       x1="17.408081"
       y1="16.037786"
       x2="49.155514"
       y2="50.137749"
       gradientUnits="userSpaceOnUse" />
    <radialGradient
       inkscape:collect="always"
       xlink:href="#linearGradient7"
       id="radialGradient9"
       cx="32.302387"
       cy="34"
       fx="32.302387"
       fy="34"
       r="28"
       gradientUnits="userSpaceOnUse"
       gradientTransform="matrix(0.99999999,1,-1,0.99999999,34,-32.302387)" />
  </defs>
  <sodipodi:namedview
     id="namedview7"
     pagecolor="#ffffff"
     bordercolor="#000000"
     borderopacity="0.25"
     inkscape:showpageshadow="2"
     inkscape:pageopacity="0.0"
     inkscape:pagecheckerboard="0"
     inkscape:deskcolor="#d1d1d1"
     inkscape:zoom="8.3306018"
     inkscape:cx="40.39324"
     inkscape:cy="50.116427"
     inkscape:window-width="1920"
     inkscape:window-height="996"
     inkscape:window-x="0"
     inkscape:window-y="0"
     inkscape:window-maximized="1"
     inkscape:current-layer="svg7" />
  <g
     id="g1"
     transform="translate(-1.3023872,-3)">
    <path
       d="m 60.302387,34 c 0,15.46415 -12.535828,28 -28.000002,28 C 16.838222,62 4.3023873,49.46415 4.3023873,34 4.3023873,18.535835 16.838222,6 32.302385,6 47.766559,6 60.302387,18.535835 60.302387,34 Z"
       id="path154"
       style="fill:url(#radialGradient9)" />
    <path
       d="m 55.63572,34 c 0,12.88701 -10.446332,23.33332 -23.333335,23.33332 C 19.415386,57.33332 8.9690543,46.88701 8.9690543,34 c 0,-12.886994 10.4463317,-23.333332 23.3333307,-23.333332 12.887003,0 23.333335,10.446338 23.333335,23.333332 z"
       id="path155"
       style="fill:url(#linearGradient6)" />
  </g>
  <g
     id="g9">
    <path
       style="opacity:0.1;stroke-width:0.842552"
       d="m 27.086247,34.084807 c -0.108416,-0.109728 -0.22365,-0.2244 -0.348878,-0.3475 -0.812296,-0.795342 -1.946822,-1.816655 -3.178906,-2.732963 -0.614532,-0.461235 -1.257798,-0.884721 -1.877472,-1.261985 -0.318328,-0.17535 -0.625292,-0.34476 -0.915398,-0.50493 -0.30239,-0.141964 -0.587655,-0.275872 -0.851454,-0.400429 -0.273,-0.102759 -0.522585,-0.196793 -0.744203,-0.280523 -0.219635,-0.09326 -0.423935,-0.127614 -0.588093,-0.17765 -0.32956,-0.08831 -0.518599,-0.139122 -0.518599,-0.139122 0,0 0.190725,0.03689 0.525943,0.102438 0.166404,0.03726 0.37584,0.05796 0.602481,0.136272 0.229838,0.0693 0.48948,0.146032 0.772115,0.231184 0.274774,0.106738 0.573786,0.222468 0.889952,0.345284 0.307092,0.141788 0.632554,0.291712 0.968898,0.447721 0.656318,0.338821 1.345212,0.724437 2.007794,1.150713 1.326328,0.849196 2.311772,1.84516 3.206953,2.603116 0.179964,0.153344 0.300391,0.29526 0.452279,0.429466 -0.0074,-0.133294 0.0062,-0.280318 -0.0074,-0.43322 0.0064,-0.262476 -0.06531,-0.720772 -0.150019,-1.14644 -0.08954,-0.426644 -0.214374,-0.903992 -0.374293,-1.379242 -0.435499,-0.92791 -1.022289,-1.925322 -1.881259,-2.815586 -0.418662,-0.454214 -0.904168,-0.874594 -1.42459,-1.267724 -0.512814,-0.399186 -1.099736,-0.73994 -1.68225,-1.06657 -0.605583,-0.306166 -1.236835,-0.574614 -1.875565,-0.795468 -0.660983,-0.201708 -1.306885,-0.372048 -1.973267,-0.463496 -0.674296,-0.07801 -1.30442,-0.06283 -1.941858,-0.02178 -0.636828,0.04138 -1.221064,0.104612 -1.766332,0.231021 -0.552312,0.146637 -1.041445,0.315609 -1.45959,0.497456 -0.417215,0.171516 -0.779918,0.363743 -1.055986,0.546839 -0.278739,0.178713 -0.483641,0.393469 -0.621049,0.509262 -0.137501,0.126764 -0.204088,0.21107 -0.204088,0.21107 0,0 0.07445,0.08659 0.214796,0.250892 0.137667,0.141682 0.333322,0.393854 0.563847,0.621772 0.218383,0.23312 0.481186,0.517522 0.783612,0.8435 0.286696,0.31941 0.594396,0.642162 0.910604,0.95765 0.317634,0.322352 0.651564,0.677324 0.995121,0.984616 0.342568,0.310356 0.706059,0.658262 1.080945,0.9377 0.751985,0.607312 1.582689,1.144946 2.48094,1.609532 0.447571,0.248954 0.920372,0.436694 1.399266,0.64499 0.478161,0.19969 0.977973,0.357476 1.479893,0.51255 0.507764,0.140706 1.014748,0.273258 1.52851,0.366164 0.516056,0.09376 1.01673,0.180028 1.513598,0.231588 0.491902,0.0554 0.970152,0.08962 1.41137,0.106662 0.30234,0.01797 0.589472,0.01384 0.858016,0.0113 m 5.99583,8.918803 c 0.224176,0.009 0.463908,0.01963 0.71569,0.01198 0.367718,-0.0034 0.76594,-0.02058 1.174875,-0.05527 0.413265,-0.03144 0.82872,-0.09225 1.256847,-0.159003 0.426226,-0.06605 0.845708,-0.166166 1.265662,-0.27312 0.41469,-0.119334 0.827517,-0.241058 1.221161,-0.398918 0.394027,-0.165192 0.783521,-0.313062 1.150333,-0.513612 0.73707,-0.37274 1.415812,-0.809268 2.026974,-1.307127 0.305322,-0.228319 0.599281,-0.515196 0.876772,-0.770659 0.278448,-0.252837 0.547558,-0.546464 0.803922,-0.812756 0.255412,-0.2605 0.50348,-0.527376 0.73414,-0.791922 0.243574,-0.269779 0.455256,-0.505165 0.631206,-0.698017 0.18624,-0.18813 0.342702,-0.397766 0.453792,-0.51484 0.112694,-0.136242 0.172488,-0.208052 0.172488,-0.208052 0,0 -0.05782,-0.07339 -0.176032,-0.184723 -0.117792,-0.101963 -0.294518,-0.289817 -0.532002,-0.448865 -0.235316,-0.162694 -0.545348,-0.405307 -0.898157,-0.5617 -0.353849,-0.165202 -0.766547,-0.321273 -1.231401,-0.459893 -0.45841,-0.121278 -0.947635,-0.189718 -1.480196,-0.240939 -0.533039,-0.051 -1.05705,-0.0099 -1.617647,0.03964 -0.553609,0.06112 -1.088029,0.189762 -1.634199,0.344803 -0.527076,0.171824 -1.046632,0.3844 -1.54372,0.629657 -0.477302,0.263274 -0.95792,0.538456 -1.375112,0.865201 -0.423719,0.321441 -0.817576,0.666874 -1.1547,1.042828 -0.692826,0.735861 -1.192248,1.568693 -1.530712,2.347204 -0.162984,0.397256 -0.290758,0.774669 -0.37899,1.132361 -0.09347,0.352029 -0.132616,0.694687 -0.167484,0.969503 -0.021,0.128234 -0.02834,0.254156 -0.03086,0.367378 0.123148,-0.110409 0.256402,-0.227006 0.402413,-0.352977 0.726577,-0.622399 1.735615,-1.410113 2.819573,-2.099281 0.541464,-0.346035 1.105918,-0.656836 1.64449,-0.928604 0.276455,-0.124291 0.544007,-0.243677 0.79648,-0.356586 0.260522,-0.09654 0.506942,-0.187456 0.733358,-0.271408 0.2336,-0.06536 0.448182,-0.124087 0.638128,-0.177304 0.187016,-0.06096 0.361282,0.0024 0.499122,-0.02488 0.277969,-0.04734 0.436156,-0.14987 0.436156,-0.14987 0,0 -0.15638,0.03848 -0.429028,0.105336 -0.135637,0.03838 -0.305195,0.06258 -0.485983,0.136406 -0.182695,0.0657 -0.388455,0.139408 -0.613495,0.219994 -0.21678,0.09937 -0.451239,0.206136 -0.699744,0.319324 -0.237744,0.128983 -0.48935,0.265423 -0.750292,0.406625 -0.506942,0.305399 -1.03237,0.649532 -1.532746,1.026549 -1.003464,0.748681 -1.92275,1.589123 -2.579198,2.245407 -0.101192,0.101573 -0.194227,0.196261 -0.281773,0.28692 M 31,31 c 0.239124,0.013 0.573612,-0.01601 0.888441,-0.08453 0.461353,-0.08924 0.958179,-0.20443 1.464987,-0.346601 0.512858,-0.138411 1.022606,-0.318213 1.54696,-0.509107 0.522102,-0.189509 1.028954,-0.424468 1.534904,-0.669176 0.496868,-0.260608 0.990928,-0.524034 1.453536,-0.8332 0.461652,-0.319409 0.9211,-0.613694 1.341322,-0.975822 0.85063,-0.685694 1.61505,-1.44636 2.282176,-2.27638 0.33738,-0.386428 0.648664,-0.851346 0.945602,-1.269002 0.29867,-0.414196 0.577372,-0.882779 0.84558,-1.310512 0.268152,-0.41953 0.52582,-0.846204 0.762088,-1.265622 0.251436,-0.429686 0.469736,-0.804333 0.651778,-1.111909 0.195876,-0.303379 0.350086,-0.629712 0.465936,-0.817422 0.114034,-0.214624 0.174612,-0.327844 0.174612,-0.327844 0,0 -0.08755,-0.08838 -0.258525,-0.215432 -0.168607,-0.114189 -0.428735,-0.333748 -0.759289,-0.499521 -0.328612,-0.171326 -0.767236,-0.436089 -1.24215,-0.571655 -0.478036,-0.147508 -1.02814,-0.268846 -1.64025,-0.354058 -0.600534,-0.06261 -1.229066,-0.04509 -1.9085,0.0064 -0.680038,0.05187 -1.330084,0.229296 -2.024428,0.42663 -0.683228,0.211849 -1.328659,0.512898 -1.983464,0.853135 -0.627448,0.359153 -1.237228,0.772939 -1.812138,1.22693 -0.546432,0.474372 -1.094592,0.965953 -1.552614,1.514485 -0.467316,0.542583 -0.8922,1.111627 -1.239696,1.709866 -0.721558,1.178492 -1.180454,2.446886 -1.448136,3.603035 -0.124391,0.587758 -0.208486,1.13988 -0.247032,1.655594 -0.04618,0.509113 -0.026,0.992736 -0.01414,1.381413 -4.34e-4,0.18245 0.01584,0.358537 0.03556,0.51596 0.132401,-0.181229 0.276202,-0.373383 0.434176,-0.5814 0.786895,-1.029104 1.895272,-2.352089 3.117681,-3.555824 0.610255,-0.603737 1.256544,-1.163931 1.878205,-1.664197 0.322214,-0.2357 0.634189,-0.462507 0.928536,-0.676967 0.307786,-0.193582 0.598973,-0.376194 0.866489,-0.544458 0.280257,-0.144211 0.537961,-0.274918 0.765853,-0.392256 0.222662,-0.127378 0.439054,-0.184491 0.606667,-0.254335 0.33967,-0.129482 0.533035,-0.202629 0.533035,-0.202629 0,0 -0.188698,0.08925 -0.517697,0.2445 -0.162645,0.08445 -0.370825,0.1568 -0.582989,0.300607 -0.216262,0.132958 -0.459836,0.282382 -0.726274,0.445716 -0.252216,0.18746 -0.525213,0.38924 -0.814507,0.603127 -0.272606,0.233294 -0.561166,0.480079 -0.860393,0.735633 -0.575125,0.539529 -1.16563,1.13699 -1.71803,1.774203 -1.109236,1.267619 -2.1487,2.561855 -2.927124,3.588354 -0.122407,0.190283 -0.389577,0.496676 -0.407638,0.510702 0,4e-5 0.877852,0.216577 1.160962,0.213557 z m -2.511536,20.80315 -5e-5,4.476472 h 1.710499 v -10.23507 c 0,0 3.716872,-2.943594 3.973362,-3.08286 -0.197902,-0.05862 -1.613996,0.115916 -1.613996,0.115916 -0.193797,-0.155858 -0.554638,-0.17496 -0.796534,-0.256712 l -0.09519,0.07876 -1.467644,1.098825 v -9.358094 c -0.0017,-1.312021 0.642158,-2.902899 1.734288,-3.628953 l 0.0113,-0.009 c 0.03767,-0.026 0.05246,-0.03754 0.08913,-0.06586 0.188258,-0.173832 0.669104,-1.209769 0.798432,-1.276138 -0.04396,-0.220757 -0.242928,0.274059 -0.462004,0.124981 -0.181132,-0.123275 -1.330704,0.112923 -1.532233,0.02656 -0.195531,-0.08378 -0.217521,-0.0524 -0.338207,0.1397 l -0.557668,0.518383 c -1.292626,0.997076 -1.401718,2.570922 -1.402762,4.203915 v 1.050636 l -1.331602,-1.505354 c -4.32e-4,-0.01862 -0.02884,-0.02538 -0.02934,-0.044 -0.02986,0.0062 -0.05635,-0.08232 -0.09203,-0.09053 l -1.696194,0.09478 c 0.169853,0.0076 -1.61589,-0.589989 -1.453424,-0.427474 0.162509,0.16256 4.551918,4.581119 4.551918,4.581119 v 13.469922 m -3.063504,0.657687"
       id="path2" />
    <path
       style="fill:#35434b;stroke-width:0.842552;fill-opacity:1"
       d="m 28.488461,50.96059 -5e-5,4.476468 h 1.710502 V 45.201993 c 0,0 3.716872,-2.943599 3.973362,-3.082861 -0.197902,-0.05862 -1.613996,0.115918 -1.613996,0.115918 -0.193797,-0.155864 -0.554638,-0.174964 -0.796534,-0.25672 l -0.09519,0.07877 -1.467644,1.098829 v -9.358108 c -0.0017,-1.312026 0.642158,-2.902896 1.734288,-3.628958 l 0.0113,-0.009 c 0.03767,-0.02604 0.05246,-0.03754 0.08913,-0.06586 0.188258,-0.173831 0.669104,-1.209767 0.798432,-1.276137 -0.04396,-0.22076 -0.242928,0.27406 -0.462004,0.124983 -0.181132,-0.123286 -1.330704,0.112919 -1.532233,0.02656 -0.195531,-0.08378 -0.217521,-0.05237 -0.338207,0.139694 l -0.557668,0.51839 c -1.292626,0.997067 -1.401718,2.570921 -1.402762,4.203908 v 1.050644 l -1.331594,-1.50541 c -4.32e-4,-0.01862 -0.02884,-0.02537 -0.02934,-0.044 -0.02986,0.0062 -0.05634,-0.08232 -0.09203,-0.09053 l -1.696198,0.09477 c 0.169853,0.0076 -1.615889,-0.589986 -1.453424,-0.427478 0.16251,0.162565 4.551918,4.581119 4.551918,4.581119 v 13.469928"
       id="path3" />
    <path
       style="fill:#ff8a33;stroke-width:0.842552;fill-opacity:1"
       d="m 30.999997,30.157439 c 0.239124,0.013 0.573612,-0.01602 0.888441,-0.08453 0.461353,-0.08924 0.958179,-0.204428 1.464987,-0.346597 0.512858,-0.138419 1.022606,-0.318224 1.54696,-0.509113 0.522102,-0.189503 1.028954,-0.424472 1.534904,-0.669179 0.496868,-0.26061 0.990928,-0.524028 1.453536,-0.833202 0.461652,-0.319398 0.9211,-0.613686 1.341322,-0.975819 0.85063,-0.685689 1.61505,-1.446355 2.282176,-2.276375 0.33738,-0.386428 0.648664,-0.851344 0.945602,-1.26901 0.29867,-0.41419 0.577372,-0.88277 0.84558,-1.310504 0.268152,-0.419538 0.52582,-0.846204 0.762088,-1.265621 0.251436,-0.429687 0.469736,-0.804334 0.651778,-1.111908 0.195876,-0.303381 0.350086,-0.629713 0.465936,-0.817424 0.114034,-0.214621 0.174612,-0.327842 0.174612,-0.327842 0,0 -0.08755,-0.08838 -0.258525,-0.215434 -0.168607,-0.114197 -0.428735,-0.333746 -0.759289,-0.499525 -0.328612,-0.17132 -0.767236,-0.436093 -1.24215,-0.571651 -0.478036,-0.147516 -1.02814,-0.268843 -1.64025,-0.354056 -0.600534,-0.06261 -1.229066,-0.04509 -1.9085,0.0064 -0.680038,0.05187 -1.330084,0.229296 -2.024428,0.426625 -0.683228,0.211848 -1.328659,0.512904 -1.983464,0.853141 -0.627448,0.359153 -1.237228,0.77294 -1.812138,1.226928 -0.546432,0.474374 -1.094592,0.965947 -1.552614,1.514486 -0.467316,0.542585 -0.8922,1.111628 -1.239696,1.709863 -0.721558,1.17849 -1.180454,2.446886 -1.448136,3.603039 -0.124391,0.587753 -0.208486,1.139876 -0.247032,1.655595 -0.04618,0.509108 -0.026,0.992736 -0.01414,1.381409 -4.34e-4,0.182454 0.01584,0.358542 0.03556,0.51596 0.132401,-0.18123 0.276202,-0.373383 0.434176,-0.581397 0.786895,-1.029107 1.895272,-2.352094 3.117681,-3.555822 0.610255,-0.603738 1.256544,-1.163939 1.878205,-1.6642 0.322214,-0.235698 0.634189,-0.462509 0.928536,-0.676967 0.307786,-0.19358 0.598973,-0.376195 0.866489,-0.544457 0.280257,-0.144212 0.537961,-0.274924 0.765853,-0.392259 0.222662,-0.127378 0.439054,-0.184491 0.606667,-0.254331 0.33967,-0.129483 0.533035,-0.202633 0.533035,-0.202633 0,0 -0.188698,0.08926 -0.517697,0.244503 -0.162645,0.08443 -0.370825,0.156799 -0.582989,0.300607 -0.216262,0.132954 -0.459836,0.282382 -0.726274,0.445711 -0.252216,0.187466 -0.525213,0.389243 -0.814507,0.603125 -0.272606,0.233296 -0.561166,0.480086 -0.860393,0.735641 -0.575125,0.539522 -1.16563,1.136987 -1.71803,1.774195 -1.109236,1.267621 -2.1487,2.561863 -2.927124,3.588361 -0.122407,0.190277 -0.389577,0.496677 -0.407638,0.510698 0,4.2e-5 0.877852,0.216576 1.160962,0.213561 z"
       id="path4" />
    <path
       style="fill:#35434b;stroke-width:0.842552;fill-opacity:1"
       d="m 32.288461,42.447174 c 0.224176,0.009 0.463908,0.01964 0.71569,0.01198 0.367718,-0.0034 0.76594,-0.02058 1.174875,-0.05529 0.413265,-0.03144 0.82872,-0.09224 1.256847,-0.159 0.426226,-0.06605 0.845708,-0.16616 1.265662,-0.273114 0.41469,-0.119342 0.827517,-0.241061 1.221161,-0.398924 0.394027,-0.165194 0.783521,-0.313056 1.150333,-0.513612 0.73707,-0.372734 1.415812,-0.809262 2.026974,-1.307126 0.305322,-0.228312 0.599281,-0.515196 0.876772,-0.77066 0.278448,-0.25283 0.547558,-0.546466 0.803922,-0.81275 0.255412,-0.260506 0.50348,-0.527383 0.73414,-0.791929 0.243574,-0.269774 0.455256,-0.505161 0.631206,-0.698014 0.18624,-0.188133 0.342702,-0.397764 0.453792,-0.514842 0.112694,-0.136244 0.172488,-0.208044 0.172488,-0.208044 0,0 -0.05782,-0.07339 -0.176032,-0.184724 -0.117792,-0.101964 -0.294518,-0.289818 -0.532002,-0.448866 -0.235316,-0.1627 -0.545348,-0.405306 -0.898157,-0.5617 -0.353849,-0.16521 -0.766547,-0.321278 -1.231401,-0.4599 -0.45841,-0.12127 -0.947635,-0.189718 -1.480196,-0.24093 -0.533039,-0.051 -1.05705,-0.0099 -1.617647,0.03964 -0.553609,0.06107 -1.088029,0.189759 -1.634199,0.344802 -0.527076,0.171824 -1.046632,0.384392 -1.54372,0.629656 -0.477302,0.263274 -0.95792,0.538449 -1.375112,0.865202 -0.423719,0.321432 -0.817576,0.666874 -1.1547,1.042826 -0.692826,0.735856 -1.192248,1.568687 -1.530712,2.347199 -0.162984,0.397256 -0.290758,0.774668 -0.37899,1.132368 -0.09347,0.352026 -0.132616,0.694686 -0.167484,0.9695 -0.021,0.128236 -0.02834,0.254157 -0.03086,0.367378 0.123148,-0.110408 0.256402,-0.227012 0.402413,-0.352981 0.726577,-0.622393 1.735615,-1.410115 2.819573,-2.099274 0.541464,-0.346043 1.105918,-0.656845 1.64449,-0.928612 0.276455,-0.124291 0.544007,-0.243669 0.79648,-0.356581 0.260522,-0.09654 0.506942,-0.18746 0.733358,-0.271412 0.2336,-0.06536 0.448182,-0.124085 0.638128,-0.177296 0.187016,-0.06092 0.361282,0.0026 0.499122,-0.02486 0.277969,-0.04734 0.436156,-0.149878 0.436156,-0.149878 0,0 -0.15638,0.03846 -0.429028,0.105336 -0.135637,0.03842 -0.305195,0.06254 -0.485983,0.136414 -0.182695,0.0657 -0.388455,0.13941 -0.613495,0.219985 -0.21678,0.09937 -0.451239,0.206144 -0.699744,0.319332 -0.237744,0.128975 -0.48935,0.265422 -0.750292,0.406624 -0.506942,0.305403 -1.03237,0.649532 -1.532746,1.026553 -1.003464,0.748671 -1.92275,1.589119 -2.579198,2.245402 -0.101192,0.101579 -0.194227,0.196266 -0.281773,0.286921"
       id="path5" />
    <path
       style="fill:#35434b;stroke-width:0.842552;fill-opacity:1"
       d="m 27.086247,33.242255 c -0.108416,-0.109734 -0.22365,-0.224394 -0.348878,-0.3475 -0.812296,-0.795342 -1.946822,-1.816656 -3.178906,-2.732958 -0.614532,-0.46124 -1.257798,-0.884733 -1.877472,-1.26199 -0.318328,-0.175344 -0.625292,-0.34476 -0.915398,-0.504924 -0.30239,-0.141977 -0.587655,-0.275878 -0.851454,-0.400438 -0.273,-0.102756 -0.522585,-0.19679 -0.744203,-0.28052 -0.219635,-0.09326 -0.423935,-0.127614 -0.588093,-0.177652 -0.32956,-0.08831 -0.518599,-0.139125 -0.518599,-0.139125 0,0 0.190725,0.0369 0.525943,0.102443 0.166404,0.03726 0.37584,0.05796 0.602481,0.136272 0.229838,0.06932 0.48948,0.146032 0.772115,0.231188 0.274774,0.106732 0.573786,0.222464 0.889952,0.34528 0.307092,0.141788 0.632554,0.291704 0.968898,0.447714 0.656318,0.338828 1.345212,0.724444 2.007794,1.150719 1.326328,0.849203 2.311772,1.845161 3.206953,2.603117 0.179964,0.153344 0.300391,0.295252 0.452279,0.429458 -0.0074,-0.133286 0.0062,-0.280318 -0.0074,-0.43322 0.0064,-0.262476 -0.06532,-0.720764 -0.150023,-1.146431 -0.08952,-0.426645 -0.214361,-0.903996 -0.37428,-1.379251 -0.435497,-0.927902 -1.022287,-1.925322 -1.881257,-2.815578 -0.418645,-0.454212 -0.904154,-0.874594 -1.424576,-1.267724 -0.512814,-0.399185 -1.099735,-0.739948 -1.682249,-1.066578 -0.605583,-0.30616 -1.236833,-0.574608 -1.875565,-0.79546 -0.660982,-0.201715 -1.306883,-0.372056 -1.973268,-0.463504 -0.674293,-0.07801 -1.30442,-0.06283 -1.941855,-0.02177 -0.63683,0.04142 -1.221067,0.104612 -1.766332,0.23103 -0.552314,0.146638 -1.041445,0.315608 -1.459589,0.497458 -0.417219,0.171513 -0.779922,0.363733 -1.05599,0.546837 -0.278744,0.178698 -0.483646,0.393446 -0.621053,0.509242 -0.137522,0.126773 -0.204109,0.21108 -0.204109,0.21108 0,0 0.07445,0.08659 0.214796,0.250885 0.137667,0.141692 0.333322,0.39386 0.563847,0.62177 0.218383,0.233124 0.481186,0.517522 0.783612,0.843508 0.286696,0.31941 0.594396,0.642162 0.910604,0.95765 0.317634,0.322352 0.651564,0.677321 0.995121,0.984614 0.342568,0.310359 0.706059,0.658264 1.080945,0.937698 0.751985,0.607317 1.582689,1.144942 2.48094,1.609536 0.447571,0.248948 0.920372,0.43669 1.399266,0.644984 0.478161,0.199696 0.977973,0.357482 1.479893,0.512556 0.507764,0.140712 1.014748,0.273258 1.52851,0.366156 0.516056,0.09377 1.01673,0.180036 1.513598,0.231588 0.491902,0.0554 0.970152,0.08963 1.41137,0.10667 0.30234,0.01796 0.589472,0.01385 0.858016,0.0113"
       id="path6" />
  </g>
</svg>
