<?xml version="1.0" encoding="UTF-8" standalone="no"?>
<svg
   width="62"
   height="62"
   version="1.1"
   id="svg6"
   sodipodi:docname="google-hangouts.svg"
   inkscape:version="1.4 (unknown)"
   xmlns:inkscape="http://www.inkscape.org/namespaces/inkscape"
   xmlns:sodipodi="http://sodipodi.sourceforge.net/DTD/sodipodi-0.dtd"
   xmlns:xlink="http://www.w3.org/1999/xlink"
   xmlns="http://www.w3.org/2000/svg"
   xmlns:svg="http://www.w3.org/2000/svg">
  <defs
     id="defs6">
    <linearGradient
       id="linearGradient8"
       inkscape:collect="always">
      <stop
         style="stop-color:#f2f2f2;stop-opacity:1"
         offset="0"
         id="stop8" />
      <stop
         style="stop-color:#cccccc;stop-opacity:1"
         offset="1"
         id="stop9" />
    </linearGradient>
    <linearGradient
       id="linearGradient6"
       inkscape:collect="always">
      <stop
         style="stop-color:#00aa44;stop-opacity:1"
         offset="0"
         id="stop6" />
      <stop
         style="stop-color:#00dc58;stop-opacity:1;"
         offset="1"
         id="stop7" />
    </linearGradient>
    <linearGradient
       inkscape:collect="always"
       xlink:href="#linearGradient6"
       id="linearGradient7"
       x1="411.20654"
       y1="546.03857"
       x2="411.24991"
       y2="500.73715"
       gradientUnits="userSpaceOnUse" />
    <linearGradient
       inkscape:collect="always"
       xlink:href="#linearGradient8"
       id="linearGradient9"
       x1="408.61075"
       y1="514.18445"
       x2="408.15936"
       y2="528.44464"
       gradientUnits="userSpaceOnUse" />
  </defs>
  <sodipodi:namedview
     id="namedview6"
     pagecolor="#ffffff"
     bordercolor="#000000"
     borderopacity="0.25"
     inkscape:showpageshadow="2"
     inkscape:pageopacity="0.0"
     inkscape:pagecheckerboard="0"
     inkscape:deskcolor="#d1d1d1"
     inkscape:zoom="8.0520833"
     inkscape:cx="19.063389"
     inkscape:cy="32.227684"
     inkscape:window-width="1920"
     inkscape:window-height="996"
     inkscape:window-x="0"
     inkscape:window-y="0"
     inkscape:window-maximized="1"
     inkscape:current-layer="svg6" />
  <linearGradient
     id="a"
     x1="409.04474"
     x2="408.66794"
     y1="547.09271"
     y2="500.79825"
     gradientUnits="userSpaceOnUse">
    <stop
       stop-color="#cdddf3"
       offset="0"
       id="stop1" />
    <stop
       stop-color="#fbfdf8"
       offset="1"
       id="stop2" />
  </linearGradient>
  <linearGradient
     id="b"
     x1="72.591591"
     x2="76.367653"
     y1="4.6072969"
     y2="183.86407"
     gradientTransform="matrix(0.25303413,0,0,-0.25303413,388.93143,547.17704)"
     gradientUnits="userSpaceOnUse">
    <stop
       stop-color="#109d59"
       offset="0"
       id="stop3" />
    <stop
       stop-color="#30aa6f"
       offset="1"
       id="stop4" />
  </linearGradient>
  <g
     transform="matrix(1.2025967,0,0,1.2025967,-460.74398,-599.03294)"
     id="g6">
    <path
       d="m 407.48845,500.61194 c -0.0218,0.051 -0.0627,0.049 -0.10248,0.047 -0.0121,-8e-4 -0.0245,0 -0.0359,-5e-4 -0.67965,0.061 -1.35702,0.1374 -2.02782,0.2647 -4.90557,0.9296 -8.93387,3.338 -12.05227,7.2289 -2.56475,3.1996 -3.97719,6.8701 -4.28235,10.9627 -0.0367,0.4927 -0.0554,0.9843 -0.0562,1.4747 v 0.064 c 0.002,1.4615 0.16447,2.9122 0.48633,4.3481 0.32313,1.4423 0.80516,2.8355 1.45343,4.1675 0.0569,0.1136 0.11336,0.2272 0.17105,0.3401 1.06502,2.0971 2.43495,3.9661 4.15204,5.5802 0.90409,0.8496 1.86967,1.6181 2.91596,2.2823 3.20443,2.0339 6.70237,3.1005 10.50244,3.1483 0.23279,0 0.2963,0.061 0.29529,0.2988 -0.0106,2.0339 -0.006,4.0683 -0.006,6.1022 2.5e-4,0.079 0.007,0.1576 0.0106,0.2558 0.0658,-0.027 0.10703,-0.042 0.14676,-0.061 3.82005,-1.7948 7.32787,-4.0627 10.45512,-6.9056 0.62195,-0.5658 1.21734,-1.1581 1.79021,-1.775 0.24519,-0.2642 0.48811,-0.5329 0.73405,-0.7961 0.37956,-0.4061 0.70799,-0.8598 1.06578,-1.2866 0.41321,-0.493 0.78416,-1.017 1.15005,-1.5443 0.8092,-1.1655 1.53136,-2.3813 2.13864,-3.6657 0.30718,-0.6496 0.59969,-1.3039 0.85854,-1.9734 0.009,-0.013 0.0202,-0.024 0.0256,-0.038 0.70546,-1.8342 1.15738,-3.732 1.39852,-5.6791 0.084,-0.6781 0.13841,-1.3608 0.17257,-2.0427 0.0154,-0.3082 0.0233,-0.6159 0.0238,-0.9231 v -0.067 c -0.002,-1.1341 -0.10501,-2.2627 -0.31022,-3.3823 -0.70672,-3.853 -2.39395,-7.2189 -5.05941,-10.0908 -1.12499,-1.2125 -2.3851,-2.2662 -3.77654,-3.1606 -2.59132,-1.666 -5.41468,-2.6868 -8.47614,-3.0483 -0.37322,-0.044 -0.75176,-0.039 -1.11967,-0.1263 h -2.64193 z"
       id="path4"
       style="fill:url(#linearGradient7)" />
    <path
       transform="translate(384.57143,499.798)"
       d="m 14.640625,14.386719 c -0.22976,0 -0.420853,0.0902 -0.595703,0.238281 -0.32211,0.2735 -0.355666,0.631072 -0.322266,1.013672 -0.001,2.396 -0.0069,4.7917 -0.0039,7.1875 3e-4,0.24387 0.107774,0.471055 0.277344,0.640625 l 2.876953,2.876953 c -0.03049,0.02423 -0.06242,0.04619 -0.08984,0.07617 -0.17711,0.1953 -0.0889,0.431144 -0.101562,0.652344 l -0.002,2.253906 c 0.038,0.0919 0.08631,0.170259 0.146484,0.230469 l 14.070312,14.070312 c 1.408663,-0.981003 2.761967,-2.046768 4.046875,-3.214844 0.62195,-0.5658 1.216193,-1.15849 1.789063,-1.77539 0.24519,-0.2642 0.488435,-0.531722 0.734375,-0.794922 0.37956,-0.4061 0.708616,-0.860309 1.066406,-1.287109 0.41321,-0.493001 0.784501,-1.017622 1.150391,-1.544922 0.8092,-1.1655 1.531392,-2.381616 2.138672,-3.666016 0.30718,-0.6496 0.598572,-1.303156 0.857422,-1.972656 0.009,-0.013 0.01999,-0.02311 0.02539,-0.03711 0.656307,-1.7064 1.08408,-3.470412 1.335938,-5.27539 l -9.38086,-9.38086 c -0.1779,-0.17789 -0.421727,-0.291445 -0.685547,-0.291015 h -4.03125 c -0.97039,0 -1.941979,-6e-4 -2.912109,0 -0.17611,0 -0.341051,0.0407 -0.494141,0.136719 -0.39319,0.246399 -0.520709,0.607981 -0.474609,1.050781 0.002,0.023 0.0039,0.04536 0.0039,0.06836 -7.83e-4,0.927031 -0.003,1.85408 -0.0039,2.78125 l -3.746094,-3.746094 c -0.17785,-0.17785 -0.421547,-0.291445 -0.685547,-0.291015 -0.98481,-3e-4 -1.970278,0 -2.955078,0 -0.53846,0 -1.076774,3e-4 -1.615234,0 z"
       fill-opacity="0.078431"
       id="path5" />
    <path
       d="m 399.21206,514.18472 c -0.22976,0 -0.42086,0.0902 -0.59571,0.23828 -0.32211,0.2735 -0.35566,0.63107 -0.32226,1.01367 -10e-4,2.396 -0.007,4.7917 -0.004,7.1875 5.1e-4,0.4162 0.311,0.78604 0.71484,0.89844 0.1331,0.032 0.26716,0.0407 0.4043,0.041 1.58425,0 3.1694,0.01 4.7539,0.01 -0.0273,0.1172 -0.0534,0.23496 -0.082,0.35156 -0.18193,0.7412 -0.59374,1.30943 -1.2539,1.70313 -0.35855,0.2138 -0.75692,0.29357 -1.15039,0.39257 -0.13436,0.0341 -0.23447,0.10127 -0.32227,0.19727 -0.17711,0.1953 -0.0889,0.43114 -0.10156,0.65234 l -0.002,2.25391 c 0.10096,0.2442 0.27663,0.39447 0.54687,0.35547 0.34944,-0.0514 0.69816,-0.10427 1.04102,-0.19727 0.80592,-0.2184 1.51764,-0.61564 2.17578,-1.11914 0.065,-0.0628 0.12931,-0.12745 0.19531,-0.18945 1.26795,-1.1816 1.94218,-2.63879 1.95508,-4.37109 0.0199,-2.61051 0.006,-5.22124 0.006,-7.83204 0,-0.1202 0.009,-0.24262 -0.0391,-0.35742 0.19736,-0.6081 -0.31305,-1.22951 -0.92969,-1.22851 -0.98481,-3e-4 -1.97028,0 -2.95508,0 -0.53846,0 -1.07677,3e-4 -1.61523,0 h -2.41992 z m 12.39062,0 c -0.17611,0 -0.34105,0.0407 -0.49414,0.13672 -0.39319,0.2464 -0.52071,0.60798 -0.47461,1.05078 0.002,0.023 0.004,0.0454 0.004,0.0684 -0.002,2.3664 -0.005,4.73371 -0.006,7.09961 -2.5e-4,0.6009 0.40793,1.01344 1.00586,1.02344 0.10602,5e-4 0.21234,2e-4 0.31836,0 0.0531,-3e-4 0.10726,0 0.16015,0 1.4638,0 2.92708,0.01 4.39063,0.01 -0.11614,0.664 -0.37209,1.25175 -0.87891,1.72265 -0.42206,0.3922 -0.93406,0.56515 -1.47656,0.68946 -0.42738,0.0979 -0.56004,0.24379 -0.56055,0.58789 0,0.0984 0.004,0.19592 0.006,0.29492 -0.004,0.4479 -0.008,0.8978 -0.0117,1.3457 0.002,0.2505 0.003,0.4997 0.006,0.75 0.004,0.3567 0.27195,0.55786 0.62696,0.50586 0.46507,-0.0683 0.92018,-0.17523 1.37109,-0.30273 0.017,-0.01 0.0341,-0.0193 0.0508,-0.0293 0.0298,-0.008 0.0604,-0.0134 0.0898,-0.0234 0.0529,-0.027 0.10526,-0.0571 0.16016,-0.0801 2.15813,-0.8976 3.62104,-3.08343 3.62304,-5.41993 0.002,-2.6154 0.002,-5.2306 0.002,-7.8457 0,-0.1202 0.008,-0.24067 -0.0391,-0.35547 0.19737,-0.6081 -0.31355,-1.22951 -0.92968,-1.22851 h -4.03125 c -0.97039,0 -1.94198,-6e-4 -2.91211,0 z"
       id="path6"
       style="fill:url(#linearGradient9)" />
  </g>
</svg>
