<?xml version="1.0" encoding="UTF-8" standalone="no"?>
<svg
   width="62"
   height="62"
   version="1.1"
   id="svg10"
   sodipodi:docname="google-webdesigner.svg"
   inkscape:version="1.4 (unknown)"
   xmlns:inkscape="http://www.inkscape.org/namespaces/inkscape"
   xmlns:sodipodi="http://sodipodi.sourceforge.net/DTD/sodipodi-0.dtd"
   xmlns="http://www.w3.org/2000/svg"
   xmlns:svg="http://www.w3.org/2000/svg">
  <defs
     id="defs10" />
  <sodipodi:namedview
     id="namedview10"
     pagecolor="#ffffff"
     bordercolor="#000000"
     borderopacity="0.25"
     inkscape:showpageshadow="2"
     inkscape:pageopacity="0.0"
     inkscape:pagecheckerboard="0"
     inkscape:deskcolor="#d1d1d1"
     inkscape:zoom="12.078125"
     inkscape:cx="32"
     inkscape:cy="34.815006"
     inkscape:window-width="1920"
     inkscape:window-height="996"
     inkscape:window-x="0"
     inkscape:window-y="0"
     inkscape:window-maximized="1"
     inkscape:current-layer="svg10" />
  <g
     id="g10"
     transform="matrix(0.96,0,0,0.94915254,0.27999937,0.15254216)">
    <circle
       style="opacity:0.2"
       cx="39"
       cy="29"
       r="14"
       id="circle1" />
    <circle
       style="fill:#b7b7b7"
       cx="39"
       cy="28"
       r="14"
       id="circle2" />
    <path
       style="opacity:0.2"
       d="M 36.316406,4 A 25.315789,25.315789 0 0 0 11,29.316406 25.315789,25.315789 0 0 0 11.023438,30 H 7 A 32,32 0 0 0 39,62 V 30 H 37 V 29 H 56.947266 A 20.000001,19.6 0 0 0 57,27.599609 20.000001,19.6 0 0 0 37,8 V 4.0234375 A 25.315789,25.315789 0 0 0 36.316406,4 Z"
       id="path2" />
    <path
       style="fill:#ffbe00;fill-opacity:1"
       d="M 7,29 A 32,32 0 0 0 39,61 V 29 Z"
       id="path3" />
    <path
       style="opacity:0.2;fill:#ffffff"
       d="m 7,29 a 32,32 0 0 0 0.050781,1 H 39 v -1 z"
       id="path4" />
    <path
       style="fill:#3c7cf6;fill-opacity:1"
       d="M 36.315789,3.0000006 A 25.315789,25.315789 0 0 0 11,28.31579 25.315789,25.315789 0 0 0 11.02405,29 H 37 V 3.0240548 a 25.315789,25.315789 0 0 0 -0.684211,-0.024054 z"
       id="path5" />
    <path
       style="fill:#d83927;fill-opacity:1"
       d="M 37.000003,7 V 28 H 56.94699 A 20.000001,19.6 0 0 0 57,26.599999 20.000001,19.6 0 0 0 37,7 Z"
       id="path6" />
    <path
       style="opacity:0.2"
       d="M 38.277344,19 A 12.277777,12 0 0 0 26,31 12.277777,12 0 0 0 38.277344,43 12.277777,12 0 0 0 39,42.974609 V 35.982422 A 8.5,8.5 0 0 0 47,27.5 8.5,8.5 0 0 0 38.5,19 8.5,8.5 0 0 0 38.371094,19.003906 12.277777,12 0 0 0 38.277344,19 Z"
       id="path7" />
    <path
       style="fill:#ffffff"
       d="m 38.277777,17.999999 a 12.277777,12 0 0 0 -12.277778,12 12.277777,12 0 0 0 12.277778,12 12.277777,12 0 0 0 0.722222,-0.02481 V 18.035845 a 12.277777,12 0 0 0 -0.722222,-0.03584 z"
       id="path8" />
    <circle
       style="fill:#f2f2f2;fill-opacity:1"
       cx="38.5"
       cy="26.5"
       r="8.5"
       id="circle8" />
    <path
       style="opacity:0.2;fill:#ffffff"
       d="M 36.316406,3 A 25.315789,25.315789 0 0 0 11,28.316406 25.315789,25.315789 0 0 0 11.017578,28.820312 25.315789,25.315789 0 0 1 36.316406,4 25.315789,25.315789 0 0 1 37,4.0234375 v -1 A 25.315789,25.315789 0 0 0 36.316406,3 Z"
       id="path9" />
    <path
       style="opacity:0.2;fill:#ffffff"
       d="M 37,7 V 8 A 20.000001,19.6 0 0 1 56.978516,27.173828 20.000001,19.6 0 0 0 57,26.599609 20.000001,19.6 0 0 0 37,7 Z"
       id="path10" />
  </g>
</svg>
