<?xml version="1.0" encoding="UTF-8" standalone="no"?>
<svg
   width="62"
   height="62"
   version="1.1"
   id="svg9"
   sodipodi:docname="goverlay.svg"
   inkscape:version="1.4 (unknown)"
   xmlns:inkscape="http://www.inkscape.org/namespaces/inkscape"
   xmlns:sodipodi="http://sodipodi.sourceforge.net/DTD/sodipodi-0.dtd"
   xmlns:xlink="http://www.w3.org/1999/xlink"
   xmlns="http://www.w3.org/2000/svg"
   xmlns:svg="http://www.w3.org/2000/svg">
  <defs
     id="defs9">
    <linearGradient
       id="linearGradient1"
       inkscape:collect="always">
      <stop
         style="stop-color:#2d3d53;stop-opacity:1;"
         offset="0"
         id="stop1" />
      <stop
         style="stop-color:#415272;stop-opacity:1;"
         offset="1"
         id="stop2" />
    </linearGradient>
    <linearGradient
       inkscape:collect="always"
       xlink:href="#linearGradient1"
       id="linearGradient2"
       x1="31"
       y1="58.017544"
       x2="29.9"
       y2="0"
       gradientUnits="userSpaceOnUse" />
  </defs>
  <sodipodi:namedview
     id="namedview9"
     pagecolor="#ffffff"
     bordercolor="#000000"
     borderopacity="0.25"
     inkscape:showpageshadow="2"
     inkscape:pageopacity="0.0"
     inkscape:pagecheckerboard="0"
     inkscape:deskcolor="#d1d1d1"
     inkscape:zoom="5"
     inkscape:cx="8.8"
     inkscape:cy="58.7"
     inkscape:window-width="1920"
     inkscape:window-height="996"
     inkscape:window-x="0"
     inkscape:window-y="0"
     inkscape:window-maximized="1"
     inkscape:current-layer="svg9" />
  <rect
     style="opacity:0.2;stroke-width:0.9823"
     width="55"
     height="55.017544"
     x="3.5"
     y="3.9824562"
     ry="8.2526312"
     id="rect1" />
  <rect
     style="fill:url(#linearGradient2);fill-opacity:1;stroke-width:0.9823"
     width="55"
     height="55.017544"
     x="3.5"
     y="3"
     ry="8.2526312"
     id="rect2" />
  <path
     style="opacity:0.1;fill:#ffffff;stroke-width:0.9823"
     d="M 11.748466,3 C 7.1779651,3 3.4999999,6.6791384 3.4999999,11.251097 v 0.982456 c 0,-4.5719585 3.6779652,-8.2510968 8.2484661,-8.2510968 h 38.503068 c 4.5705,0 8.248466,3.6791383 8.248466,8.2510968 V 11.251097 C 58.5,6.6791384 54.822034,3 50.251534,3 Z"
     id="path9" />
  <g
     id="g1"
     transform="matrix(0.74074074,0,0,0.74509804,24.333333,-36.431373)">
    <path
       style="opacity:0.2"
       d="m -14,66 a 4.0004,4.0004 0 0 0 -4,4 v 28 a 4.0004,4.0004 0 0 0 4,4 h 32 a 4.0004,4.0004 0 0 0 4,-4 V 70 a 4.0004,4.0004 0 0 0 -4,-4 z m 4,8 h 24 v 20 h -24 z m 37,1 a 2,2 0 0 0 -2,2 v 28 H -9 a 2,2 0 0 0 -2,2 2,2 0 0 0 2,2 h 36 a 2.0002,2.0002 0 0 0 2,-2 V 77 a 2,2 0 0 0 -2,-2 z m 7,7 a 2,2 0 0 0 -2,2 v 28 H -2 a 2,2 0 0 0 -2,2 2,2 0 0 0 2,2 h 36 a 2.0002,2.0002 0 0 0 2,-2 V 84 a 2,2 0 0 0 -2,-2 z"
       id="path1" />
    <path
       style="fill:none;stroke:#e4e4e4;stroke-width:4;stroke-linecap:round;stroke-linejoin:round"
       d="M -9,106 H 27 V 76"
       id="path2-3" />
    <path
       style="fill:none;stroke:#e4e4e4;stroke-width:8;stroke-linecap:round;stroke-linejoin:round"
       d="M -14,69 H 18 V 97 H -14 Z"
       id="path3" />
    <path
       style="fill:none;stroke:#e4e4e4;stroke-width:4;stroke-linecap:round;stroke-linejoin:round"
       d="M -2,113 H 34 V 83"
       id="path4" />
    <rect
       style="fill:#2d3d53;fill-opacity:1"
       width="32"
       height="28"
       x="-14"
       y="69"
       id="rect4-6" />
    <path
       style="opacity:0.2;fill:#ffffff"
       d="m -14,65 c -2.209047,2.21e-4 -3.999779,1.790953 -4,4 v 1 c 2.21e-4,-2.209047 1.790953,-3.999779 4,-4 h 32 c 2.209048,2.21e-4 3.999779,1.790953 4,4 v -1 c -2.21e-4,-2.209047 -1.790952,-3.999779 -4,-4 z m 41,9 c -1.104569,0 -2,0.895431 -2,2 v 1 c 0,-1.104569 0.895431,-2 2,-2 1.104569,0 2,0.895431 2,2 v -1 c 0,-1.104569 -0.895431,-2 -2,-2 z m 7,7 c -1.104569,0 -2,0.895431 -2,2 v 1 c 0,-1.104569 0.895431,-2 2,-2 1.104569,0 2,0.895431 2,2 v -1 c 0,-1.104569 -0.895431,-2 -2,-2 z m -43,23 c -1.104569,0 -2,0.89543 -2,2 0.02244,0.17171 0.06708,0.33979 0.132812,0.5 0.221116,-0.8586 0.981114,-1.46914 1.867188,-1.5 h 34 v -1 z m 7,7 c -1.104569,0 -2,0.89543 -2,2 0.02244,0.17171 0.06708,0.33979 0.132812,0.5 C -3.646072,112.6414 -2.886074,112.03086 -2,112 h 34 v -1 z"
       id="path5" />
    <rect
       style="opacity:0.2"
       width="32"
       height="1"
       x="-14"
       y="69"
       id="rect5-7" />
  </g>
</svg>
