<?xml version="1.0" encoding="UTF-8" standalone="no"?>
<svg
   width="62"
   height="62"
   version="1"
   id="svg18"
   sodipodi:docname="goxel.svg"
   inkscape:version="1.4 (unknown)"
   xmlns:inkscape="http://www.inkscape.org/namespaces/inkscape"
   xmlns:sodipodi="http://sodipodi.sourceforge.net/DTD/sodipodi-0.dtd"
   xmlns="http://www.w3.org/2000/svg"
   xmlns:svg="http://www.w3.org/2000/svg">
  <defs
     id="defs18" />
  <sodipodi:namedview
     id="namedview18"
     pagecolor="#ffffff"
     bordercolor="#000000"
     borderopacity="0.25"
     inkscape:showpageshadow="2"
     inkscape:pageopacity="0.0"
     inkscape:pagecheckerboard="0"
     inkscape:deskcolor="#d1d1d1"
     inkscape:zoom="7.0710678"
     inkscape:cx="33.941126"
     inkscape:cy="30.617724"
     inkscape:window-width="1920"
     inkscape:window-height="996"
     inkscape:window-x="0"
     inkscape:window-y="0"
     inkscape:window-maximized="1"
     inkscape:current-layer="svg18" />
  <g
     id="g19"
     transform="matrix(0.98214286,0,0,0.98245614,-0.42857152,-0.92982445)">
    <g
       id="g18">
      <path
         style="opacity:0.2;stroke-width:1.39715"
         d="m 46,28.8 13.999999,8.05 V 52.950001 L 46,61 32,52.949999 32.000001,36.85 Z"
         id="path1" />
      <path
         style="opacity:0.2;stroke-width:1.39715"
         d="m 18,28.8 13.999999,8.05 V 52.950001 L 18,61 4,52.949999 4.0000014,36.85 Z"
         id="path2" />
      <path
         style="fill:#6e7e87;stroke-width:1.39715"
         d="m 46,27.8 13.999999,8.05 V 51.950001 L 46,60 32,51.949999 32.000001,35.85 Z"
         id="path3" />
      <path
         style="opacity:0.25"
         d="m 46,27.800002 13.999998,8.05 v 16.1 L 46,60 Z"
         id="path4" />
      <path
         style="fill:#83929a"
         d="M 46,27.8 32,35.85 46,43.9 60,35.85 Z"
         id="path5" />
      <path
         style="fill:#2f5d7c;stroke-width:1.39715"
         d="m 18,27.8 13.999999,8.05 V 51.950001 L 18,60 4,51.949999 4.0000014,35.85 Z"
         id="path6" />
      <path
         style="opacity:0.2"
         d="m 18,27.800002 13.999998,8.05 v 16.1 L 18,60 Z"
         id="path7" />
      <path
         style="fill:#366a90"
         d="M 18,27.8 4,35.85 18,43.9 32,35.85 Z"
         id="path8" />
      <path
         style="opacity:0.2;stroke-width:1.39715"
         d="M 32,4.9999998 45.999999,13.05 V 29.150001 L 32,37.2 18,29.149999 18.000001,13.05 Z"
         id="path9" />
      <path
         style="fill:#447ede;stroke-width:1.39715"
         d="m 32,4 13.999999,8.05 V 28.150001 L 32,36.2 18,28.149999 18.000001,12.05 Z"
         id="path10" />
      <path
         style="opacity:0.2"
         d="m 32,4 13.999998,8.05 v 16.1 L 32,36.2 Z"
         id="path11" />
      <path
         style="fill:#649cff"
         d="M 32,3.9999998 18,12.05 32,20.1 46,12.05 Z"
         id="path12" />
      <path
         style="opacity:0.1"
         d="M 32.869141,36.349218 32,36.849218 46,44.9 l 14,-8.050782 -0.869141,-0.5 L 46,43.9 Z"
         id="path13" />
      <path
         style="opacity:0.1"
         d="M 4.8691406,36.349218 4,36.849218 18,44.9 l 14,-8.050782 -0.869141,-0.5 L 18,43.9 Z"
         id="path14" />
      <path
         style="opacity:0.1"
         d="M 18.869141,12.55039 18,13.05039 32,21.099218 46,13.05039 45.130859,12.55039 32,20.099218 Z"
         id="path15" />
      <path
         style="opacity:0.1;fill:#ffffff"
         d="m 46,27.800781 v 1 l 13.130859,7.548828 0.869141,-0.5 z"
         id="path16" />
      <path
         style="opacity:0.1;fill:#ffffff"
         d="m 18,27.800781 -14,8.048828 0.8691406,0.5 L 18,28.800781 Z"
         id="path17" />
      <path
         style="opacity:0.2;fill:#ffffff"
         d="m 32,4 -14,8.050781 0.869141,0.5 L 32,5 45.130859,12.550781 46,12.050781 Z"
         id="path18" />
    </g>
  </g>
</svg>
