<?xml version="1.0" encoding="UTF-8" standalone="no"?>
<svg
   width="62"
   height="62"
   version="1"
   id="svg6"
   sodipodi:docname="GP6-icon.svg"
   inkscape:version="1.4 (unknown)"
   xmlns:inkscape="http://www.inkscape.org/namespaces/inkscape"
   xmlns:sodipodi="http://sodipodi.sourceforge.net/DTD/sodipodi-0.dtd"
   xmlns="http://www.w3.org/2000/svg"
   xmlns:svg="http://www.w3.org/2000/svg">
  <defs
     id="defs6" />
  <sodipodi:namedview
     id="namedview6"
     pagecolor="#ffffff"
     bordercolor="#000000"
     borderopacity="0.25"
     inkscape:showpageshadow="2"
     inkscape:pageopacity="0.0"
     inkscape:pagecheckerboard="0"
     inkscape:deskcolor="#d1d1d1"
     inkscape:zoom="6.5100671"
     inkscape:cx="34.177835"
     inkscape:cy="42.165464"
     inkscape:window-width="1920"
     inkscape:window-height="996"
     inkscape:window-x="0"
     inkscape:window-y="0"
     inkscape:window-maximized="1"
     inkscape:current-layer="svg6" />
  <path
     style="opacity:0.2;stroke-width:0.982291"
     d="M 3.5502036,11.624583 C 3.0280924,23.361013 11.151851,47.342191 19.839363,54.9168 c 7.021001,6.121001 17.248721,6.498652 28.981285,-6.842499 7.173823,-8.157597 9.985525,-15.179685 9.629596,-21.010469 -0.31981,5.42425 -3.244636,11.78555 -9.629596,19.046371 C 37.087886,59.449784 26.861734,59.072524 19.839363,52.951922 11.609529,45.776179 3.9000454,23.893302 3.5502036,11.624583 Z"
     id="path1" />
  <path
     style="fill:#2d3d53;fill-opacity:1;stroke-width:0.982291"
     d="M 48.820648,47.09087 C 37.087886,60.432413 26.861734,60.055157 19.841322,53.934548 9.3044256,44.748736 -0.44400478,11.377199 5.1143759,5.0581401 10.671771,-1.2615067 45.653606,8.3542275 53.153307,15.348416 c 7.50088,6.994386 8.016113,17.698471 -4.333639,31.742654 z"
     id="path2" />
  <path
     style="opacity:0.1;fill:#ffffff;stroke-width:0.982291"
     d="M 12.389164,3.0032331 C 8.9537553,3.0548277 6.3308474,3.6758182 5.1151664,5.0582839 3.9524306,6.3804094 3.4989564,8.9370332 3.5460403,12.161738 3.5997631,9.401704 4.0728194,7.2259504 5.1151664,6.0407165 6.5045163,4.4607561 9.730347,3.877079 13.908413,3.9990983 h 0.002 c 12.534188,0.3662539 33.615832,7.0883007 39.24159,12.3341427 3.259358,3.037311 5.178202,6.783547 5.315462,11.192443 C 58.604697,22.688031 56.650807,18.611311 53.151943,15.350805 47.526174,10.10497 26.444535,3.3829188 13.910336,3.0166647 h -0.002 c -0.522242,-0.015253 -1.028465,-0.020803 -1.519235,-0.013432 z"
     id="path3" />
  <g
     id="g7"
     transform="matrix(1.0065815,0,0,1,-2.8793941,1.5000011)">
    <text
       xml:space="preserve"
       style="font-size:26.0117px;font-family:'Blush Asliring';-inkscape-font-specification:'Blush Asliring';text-align:start;writing-mode:lr-tb;direction:ltr;text-anchor:start;fill:#eef1f7;fill-opacity:1;stroke:#eef1f7;stroke-width:0;stroke-linecap:round;stroke-linejoin:round;paint-order:fill markers stroke;stroke-opacity:1"
       x="15.137044"
       y="38.083874"
       id="text6"><tspan
         sodipodi:role="line"
         id="tspan6"
         x="15.137044"
         y="38.083874"
         style="fill:#eef1f7;fill-opacity:1;stroke-width:0;stroke:#eef1f7;stroke-opacity:1">G</tspan></text>
    <text
       xml:space="preserve"
       style="font-size:27.2727px;font-family:'Blush Asliring';-inkscape-font-specification:'Blush Asliring';text-align:start;writing-mode:lr-tb;direction:ltr;text-anchor:start;fill:#c83771;fill-opacity:1;stroke:#c83771;stroke-width:0;stroke-linecap:round;stroke-linejoin:round;paint-order:fill markers stroke;stroke-opacity:1"
       x="34.443069"
       y="38.499977"
       id="text7"><tspan
         sodipodi:role="line"
         id="tspan7"
         x="34.443069"
         y="38.499977"
         style="fill:#c83771;stroke-width:0;stroke:#c83771;stroke-opacity:1">P</tspan></text>
  </g>
</svg>
