<?xml version="1.0" encoding="UTF-8" standalone="no"?>
<svg
   width="62"
   height="62"
   version="1.1"
   id="svg9"
   sodipodi:docname="GPG-Key4.svg"
   inkscape:version="1.4 (unknown)"
   xmlns:inkscape="http://www.inkscape.org/namespaces/inkscape"
   xmlns:sodipodi="http://sodipodi.sourceforge.net/DTD/sodipodi-0.dtd"
   xmlns:xlink="http://www.w3.org/1999/xlink"
   xmlns="http://www.w3.org/2000/svg"
   xmlns:svg="http://www.w3.org/2000/svg">
  <defs
     id="defs9">
    <linearGradient
       id="linearGradient1"
       inkscape:collect="always">
      <stop
         style="stop-color:#2d3d53;stop-opacity:1;"
         offset="0"
         id="stop1" />
      <stop
         style="stop-color:#37c871;stop-opacity:1"
         offset="1"
         id="stop2" />
    </linearGradient>
    <linearGradient
       inkscape:collect="always"
       xlink:href="#linearGradient1"
       id="linearGradient2"
       x1="31"
       y1="59"
       x2="29.9"
       y2="0"
       gradientUnits="userSpaceOnUse" />
  </defs>
  <sodipodi:namedview
     id="namedview9"
     pagecolor="#ffffff"
     bordercolor="#000000"
     borderopacity="0.25"
     inkscape:showpageshadow="2"
     inkscape:pageopacity="0.0"
     inkscape:pagecheckerboard="0"
     inkscape:deskcolor="#d1d1d1"
     inkscape:zoom="10"
     inkscape:cx="25.2"
     inkscape:cy="31.85"
     inkscape:window-width="1920"
     inkscape:window-height="996"
     inkscape:window-x="0"
     inkscape:window-y="0"
     inkscape:window-maximized="1"
     inkscape:current-layer="svg9" />
  <rect
     style="opacity:0.2;stroke-width:0.9823"
     width="55"
     height="55.017544"
     x="3.5"
     y="3.9824562"
     ry="8.2526312"
     id="rect1" />
  <rect
     style="fill:url(#linearGradient2);fill-opacity:1;stroke-width:0.9823"
     width="55"
     height="55.017544"
     x="3.5"
     y="3"
     ry="8.2526312"
     id="rect2" />
  <path
     style="opacity:0.1;fill:#ffffff;stroke-width:0.9823"
     d="M 11.748466,3 C 7.1779651,3 3.4999999,6.6791384 3.4999999,11.251097 v 0.982456 c 0,-4.5719585 3.6779652,-8.2510968 8.2484661,-8.2510968 h 38.503068 c 4.5705,0 8.248466,3.6791383 8.248466,8.2510968 V 11.251097 C 58.5,6.6791384 54.822034,3 50.251534,3 Z"
     id="path9" />
  <g
     id="g1"
     transform="translate(79.599989,-16.039211)">
    <ellipse
       cx="-55.296955"
       cy="54.753502"
       id="circle2"
       style="stroke-width:1.02947;fill:#6c83ac;fill-opacity:1"
       rx="10.303035"
       ry="10.285708" />
    <g
       fill-rule="nonzero"
       id="g4"
       transform="matrix(1.0303034,0,0,1.0285708,-72.812125,22.867787)">
      <path
         d="M 36,7 21,22 20,21 19.223,23.334 C 18.501,23.119 17.753,23.006 17,23 c -4.389,0 -8,3.611 -8,8 0,4.389 3.611,8 8,8 4.389,0 8,-3.611 8,-8 -0.005,-1.179 -0.27,-2.343 -0.777,-3.408 L 26,27 25,26 27,24 h 4 v -4 h 3 l 1,-1 v -3 h 2 l 2,-2 v -2 l 1,-1 V 7 Z M 14,32 c 1.097,0 2,0.903 2,2 0,1.097 -0.903,2 -2,2 -1.097,0 -2,-0.903 -2,-2 0,-1.097 0.903,-2 2,-2 z"
         id="path3-3"
         style="fill:#f2f2f2;fill-opacity:1" />
      <path
         d="M 20,20 35,6 20,15 14,11 Z"
         id="path4-6"
         style="fill:#ffd42a" />
    </g>
  </g>
</svg>
