<?xml version="1.0" encoding="UTF-8" standalone="no"?>
<svg
   width="62"
   height="62"
   version="1.1"
   id="svg4"
   sodipodi:docname="gps.svg"
   inkscape:version="1.4 (unknown)"
   xmlns:inkscape="http://www.inkscape.org/namespaces/inkscape"
   xmlns:sodipodi="http://sodipodi.sourceforge.net/DTD/sodipodi-0.dtd"
   xmlns="http://www.w3.org/2000/svg"
   xmlns:svg="http://www.w3.org/2000/svg">
  <defs
     id="defs4" />
  <sodipodi:namedview
     id="namedview4"
     pagecolor="#ffffff"
     bordercolor="#000000"
     borderopacity="0.25"
     inkscape:showpageshadow="2"
     inkscape:pageopacity="0.0"
     inkscape:pagecheckerboard="0"
     inkscape:deskcolor="#d1d1d1"
     inkscape:zoom="7.0710678"
     inkscape:cx="19.374726"
     inkscape:cy="27.365032"
     inkscape:window-width="1920"
     inkscape:window-height="996"
     inkscape:window-x="0"
     inkscape:window-y="0"
     inkscape:window-maximized="1"
     inkscape:current-layer="svg4" />
  <g
     id="g1">
    <ellipse
       style="opacity:0.2;stroke-width:0.982303"
       cx="30.5"
       cy="30.991226"
       id="circle1"
       rx="27.5"
       ry="27.508774" />
    <ellipse
       style="fill:#bf605a;fill-opacity:1;stroke-width:0.982303"
       cx="30.5"
       cy="30.008774"
       id="circle2"
       rx="27.5"
       ry="27.508774" />
    <path
       style="opacity:0.2;fill:#ffffff;stroke-width:0.982303"
       d="M 30.499994,2.5 A 27.499994,27.508768 0 0 0 3,30.008768 27.499994,27.508768 0 0 0 3.0172646,30.492322 27.499994,27.508768 0 0 1 30.499994,3.4824559 27.499994,27.508768 0 0 1 57.975051,30.492322 27.499994,27.508768 0 0 0 57.999986,30.008768 27.499994,27.508768 0 0 0 30.499994,2.5 Z"
       id="path4" />
    <g
       id="g4343"
       transform="matrix(0.98214263,0,0,0.98245598,8.9105894,-982.96125)">
      <path
         sodipodi:nodetypes="cccsc"
         inkscape:connector-curvature="0"
         id="path826-3"
         d="m 36.981944,1029.6479 -15,15 -15,-15 c 0,-8.2843 6.715729,-15 15,-15 8.284271,0 15,6.7157 15,15 z"
         style="opacity:1;fill:#f2f2f2;fill-opacity:1;stroke:none;stroke-width:3;stroke-linecap:round;stroke-linejoin:round;stroke-miterlimit:4;stroke-dasharray:none;stroke-dashoffset:0;stroke-opacity:1" />
      <circle
         r="7.0470982"
         cy="1027.2097"
         cx="21.981943"
         id="path831-6"
         style="opacity:1;fill:#bf605a;fill-opacity:1;stroke:none;stroke-width:3;stroke-linecap:round;stroke-linejoin:round;stroke-miterlimit:4;stroke-dasharray:none;stroke-dashoffset:0;stroke-opacity:1" />
      <ellipse
         ry="5.25"
         rx="10.5"
         cy="1043.22"
         cx="22.380247"
         id="path833-7"
         style="opacity:1;fill:#ffffff;fill-opacity:0.35000002;stroke:none;stroke-width:3;stroke-linecap:round;stroke-linejoin:round;stroke-miterlimit:4;stroke-dasharray:none;stroke-dashoffset:0;stroke-opacity:1" />
    </g>
  </g>
</svg>
