<?xml version="1.0" encoding="UTF-8" standalone="no"?>
<svg
   width="62"
   height="62"
   version="1"
   id="svg17"
   sodipodi:docname="gpsd-logo.svg"
   inkscape:version="1.4 (unknown)"
   xmlns:inkscape="http://www.inkscape.org/namespaces/inkscape"
   xmlns:sodipodi="http://sodipodi.sourceforge.net/DTD/sodipodi-0.dtd"
   xmlns="http://www.w3.org/2000/svg"
   xmlns:svg="http://www.w3.org/2000/svg">
  <defs
     id="defs17" />
  <sodipodi:namedview
     id="namedview17"
     pagecolor="#ffffff"
     bordercolor="#000000"
     borderopacity="0.25"
     inkscape:showpageshadow="2"
     inkscape:pageopacity="0.0"
     inkscape:pagecheckerboard="0"
     inkscape:deskcolor="#d1d1d1"
     inkscape:zoom="7.0710678"
     inkscape:cx="20.576807"
     inkscape:cy="44.335595"
     inkscape:window-width="1920"
     inkscape:window-height="996"
     inkscape:window-x="0"
     inkscape:window-y="0"
     inkscape:window-maximized="1"
     inkscape:current-layer="svg17" />
  <g
     id="g17"
     transform="translate(-0.5000002,0.61339733)">
    <path
       style="opacity:0.2;stroke-width:0.955028"
       d="m 13.460616,8.7057673 c -0.482862,0 -0.965,0.1857852 -1.335002,0.55608 l -3.7849892,3.7880567 -3.784995,3.788069 c -0.7399898,0.740591 -0.7399898,1.931587 0,2.672168 l 3.784995,3.78807 5.1199912,5.124152 5.120004,5.124137 5.120002,-5.124137 5.120004,-5.124152 -5.120004,-5.124155 -5.120002,-5.124152 -3.785,-3.7880567 c -0.369982,-0.3702958 -0.85214,-0.55608 -1.335004,-0.55608 z M 39.060614,33.5465 l -5.120003,5.124155 -5.119985,5.124152 5.119985,5.124155 5.120003,5.124135 3.785002,3.78807 c 0.739978,0.740581 1.930006,0.740581 2.670004,0 l 3.784984,-3.78807 3.784999,-3.788051 c 0.74,-0.740599 0.74,-1.931587 0,-2.672186 l -3.784999,-3.788053 -5.119986,-5.124152 z"
       id="path1" />
    <circle
       style="opacity:0.2;stroke-width:0.955028"
       cx="-17.410469"
       cy="44.098515"
       r="5.3194971"
       transform="matrix(0.70682023,-0.70739322,0.70682023,0.70739322,0,0)"
       id="circle1" />
    <path
       style="fill:#0e427e;stroke-width:0.955028"
       d="M 13.460444,8.3658814 C 13.137934,8.365453 12.815857,8.4918607 12.563591,8.7443143 L 4.9937941,16.317833 c -0.5044992,0.504904 -0.5044996,1.292651 0,1.797555 L 43.283956,56.436592 c 0.504515,0.50492 1.291607,0.50492 1.796101,0 l 7.567381,-7.573521 c 0.504489,-0.5049 0.504511,-1.292632 0,-1.797552 L 14.357278,8.7467405 C 14.105031,8.4942851 13.782931,8.3663107 13.460444,8.3658814 Z"
       id="path2" />
    <g
       transform="matrix(1.2410314,0,0,1.2420375,1.517938,0.29749321)"
       id="g11">
      <path
         style="fill:#7137c8"
         d="m 2.4472027,12.546241 c -0.5962707,0.596271 -0.5962707,1.556331 0,2.152602 L 5.4967215,17.748362 9.6225411,13.622543 5.4967215,9.4967227 Z"
         id="path3" />
      <rect
         style="fill:#7137c8;fill-opacity:1"
         width="5.835"
         height="5.835"
         x="-8.6599998"
         y="22.27"
         transform="rotate(-45)"
         id="rect3" />
      <rect
         style="fill:#aa87de;fill-opacity:1"
         width="5.835"
         height="5.835"
         x="-2.8299999"
         y="22.27"
         transform="rotate(-45)"
         id="rect4" />
      <rect
         style="fill:#7137c8;fill-opacity:1"
         width="5.835"
         height="5.835"
         x="-3.01"
         y="16.440001"
         transform="matrix(-0.70710678,0.70710678,0.70710678,0.70710678,0,0)"
         id="rect5" />
      <rect
         style="fill:#aa87de;fill-opacity:1"
         width="5.835"
         height="5.835"
         x="2.8299999"
         y="16.440001"
         transform="matrix(-0.70710678,0.70710678,0.70710678,0.70710678,0,0)"
         id="rect6" />
      <path
         style="fill:#aa87de"
         d="M 5.4967215,9.4967227 9.6225411,13.622543 13.748361,9.4967227 10.698842,6.4472039 c -0.59627,-0.5962707 -1.5563311,-0.5962707 -2.1526017,0 z"
         id="path6" />
      <path
         style="fill:#aa87de;fill-opacity:1"
         d="m 30.251639,42.503279 3.049519,3.049519 c 0.59627,0.596271 1.556331,0.596271 2.152601,0 l 3.049519,-3.049519 -4.125819,-4.125819 z"
         id="path7" />
      <path
         style="fill:#7137c8;fill-opacity:1"
         d="m 34.377459,38.37746 4.125819,4.125819 3.049519,-3.049519 c 0.596271,-0.59627 0.596271,-1.55633 0,-2.152601 L 38.503278,34.25164 Z"
         id="path8" />
      <rect
         style="fill:#aa87de;fill-opacity:1"
         width="5.835"
         height="5.835"
         x="-3.01"
         y="45.610001"
         transform="matrix(-0.70710678,0.70710678,0.70710678,0.70710678,0,0)"
         id="rect8" />
      <rect
         style="fill:#7137c8;fill-opacity:1"
         width="5.835"
         height="5.835"
         x="2.8299999"
         y="45.610001"
         transform="matrix(-0.70710678,0.70710678,0.70710678,0.70710678,0,0)"
         id="rect9" />
      <rect
         style="fill:#aa87de;fill-opacity:1"
         width="5.835"
         height="5.835"
         x="-8.6599998"
         y="39.779999"
         transform="rotate(-45)"
         id="rect10" />
      <rect
         style="fill:#7137c8;fill-opacity:1"
         width="5.835"
         height="5.835"
         x="-2.8299999"
         y="39.779999"
         transform="rotate(-45)"
         id="rect11" />
    </g>
    <circle
       style="fill:#2d3d53;fill-opacity:1;stroke-width:0.955028"
       cx="-16.735254"
       cy="43.42329"
       r="5.3194971"
       transform="matrix(0.70682023,-0.70739322,0.70682023,0.70739322,0,0)"
       id="circle11" />
    <path
       style="fill:#2d3d53;fill-opacity:1;stroke-width:0.131241"
       d="m 53.641235,7.7497156 -4.019351,7.7403304 -2.767876,7.843 -3.817299,-4.97021 -4.96618,-3.820392 7.836642,-2.77012 z"
       id="path11" />
    <circle
       style="opacity:0.2;stroke-width:0.955028"
       cx="31.792511"
       cy="44.098515"
       r="3.8201034"
       transform="matrix(0.70682023,-0.70739322,0.70682023,0.70739322,0,0)"
       id="circle12" />
    <circle
       style="fill:#486084;fill-opacity:1;stroke-width:0.955028"
       cx="32.467655"
       cy="43.42329"
       r="3.8201034"
       transform="matrix(0.70682023,-0.70739322,0.70682023,0.70739322,0,0)"
       id="circle13" />
    <rect
       style="opacity:0.2;stroke-width:0.955028"
       width="14.65202"
       height="29.622057"
       x="36.77153"
       y="-13.222948"
       rx="2.5480089"
       ry="2.5480089"
       transform="matrix(0.70682023,0.70739322,-0.70682023,0.70739322,0,0)"
       id="rect13" />
    <rect
       style="fill:#3f5574;fill-opacity:1;stroke-width:0.955028"
       width="14.65202"
       height="29.622057"
       x="36.093426"
       y="-13.901022"
       rx="2.5480089"
       ry="2.5480089"
       transform="matrix(0.70682023,0.70739322,-0.70682023,0.70739322,0,0)"
       id="rect14" />
    <path
       style="opacity:0.2;stroke-width:0.955028"
       d="m 59,25.197749 c -6.030407,6.035294 -15.807616,6.035294 -21.838026,0 -6.030408,-6.035298 -6.030408,-15.8204384 0,-21.8557316 z"
       id="path14" />
    <path
       style="fill:#f2f2f2;fill-opacity:1;stroke-width:0.955028"
       d="m 59,24.242332 c -6.030407,6.035304 -15.807616,6.035304 -21.838026,0 -6.030408,-6.035298 -6.030408,-15.8204363 0,-21.8557294 z"
       id="path15" />
    <path
       style="opacity:0.1;fill:#ffffff;stroke-width:0.955028"
       d="M 53.697169,3.9280637 A 3.818556,3.8216516 0 0 0 50.941394,5.0476889 3.818556,3.8216516 0 0 0 49.858102,8.2386191 3.818556,3.8216516 0 0 1 50.941394,6.0031019 3.818556,3.8216516 0 0 1 53.697169,4.8834767 3.818556,3.8216516 0 0 1 56.341073,6.0031019 3.818556,3.8216516 0 0 1 57.424367,8.2199581 3.818556,3.8216516 0 0 0 56.341073,5.0476889 3.818556,3.8216516 0 0 0 53.697169,3.9280637 Z"
       id="path16" />
    <path
       style="opacity:0.2;fill:#ffffff;stroke-width:0.955028"
       d="m 13.460616,7.7497154 c -0.482862,0 -0.966871,0.1857864 -1.336851,0.5560802 l -3.7850052,3.7861984 -3.78313,3.788072 c -0.4936743,0.49406 -0.6498001,1.187572 -0.484777,1.815643 0.082287,-0.31359 0.2383097,-0.613572 0.484777,-0.860246 l 3.78313,-3.788054 3.7850052,-3.7862004 c 0.36998,-0.3702937 0.853989,-0.5560801 1.336851,-0.5560801 0.482864,0 0.965022,0.1857864 1.335004,0.5560801 l 3.785,3.7862004 5.120003,5.126006 4.642684,4.646449 0.477319,-0.477709 -5.120003,-5.124154 -5.120003,-5.126007 -3.785,-3.7861984 C 14.425638,7.9355018 13.94348,7.7497154 13.460616,7.7497154 Z m 26.135126,25.3762886 -0.477321,0.477708 5.062197,5.0663 5.121854,5.124154 3.783132,3.788072 c 0.246476,0.246658 0.402498,0.546639 0.484785,0.860229 0.165022,-0.628072 0.0093,-1.321582 -0.484785,-1.815645 l -3.783132,-3.788071 -5.121854,-5.124152 z"
       id="path17" />
  </g>
</svg>
