<?xml version="1.0" encoding="UTF-8" standalone="no"?>
<svg
   width="62"
   height="62"
   version="1.1"
   id="svg13"
   sodipodi:docname="GPU.Screen.Recorder.svg"
   inkscape:version="1.4 (unknown)"
   xmlns:inkscape="http://www.inkscape.org/namespaces/inkscape"
   xmlns:sodipodi="http://sodipodi.sourceforge.net/DTD/sodipodi-0.dtd"
   xmlns="http://www.w3.org/2000/svg"
   xmlns:svg="http://www.w3.org/2000/svg">
  <defs
     id="defs13" />
  <sodipodi:namedview
     id="namedview13"
     pagecolor="#ffffff"
     bordercolor="#000000"
     borderopacity="0.25"
     inkscape:showpageshadow="2"
     inkscape:pageopacity="0.0"
     inkscape:pagecheckerboard="0"
     inkscape:deskcolor="#d1d1d1"
     inkscape:zoom="8"
     inkscape:cx="31.875"
     inkscape:cy="25.1875"
     inkscape:window-width="1920"
     inkscape:window-height="996"
     inkscape:window-x="0"
     inkscape:window-y="0"
     inkscape:window-maximized="1"
     inkscape:current-layer="svg13" />
  <g
     id="g13"
     transform="translate(-0.876,-0.97)">
    <path
       d="m 16.876,6 h 30 c 5.35,0 9.81,3.83 10.79,8.9 h 2.03 c -1,-6.19 -6.35,-10.93 -12.82,-10.93 h -30 c -6.71,0 -12.24,5.09 -12.93,11.62 h 2.03 C 6.666,10.18 11.276,6 16.876,6 m -13,15.59 h 2 v 20.45 h -2 z m 43,36.35 h -30 c -5.7,0 -10.39,-4.34 -10.94,-9.9 h -2 c 0.55,6.68 6.13,11.93 12.95,11.93 h 30 c 6.82,0 12.4,-5.25 12.95,-11.93 h -2 c -0.55,5.56 -5.24,9.9 -10.94,9.9 z m 11,-37.04 h 2 v 21.15 h -2 z"
       class="cls-6"
       style="opacity:1;fill:#3e5974;stroke-width:0;fill-opacity:1"
       id="path1" />
    <path
       d="m 55.286,14.9 h 2.39 C 56.696,9.83 52.236,6 46.886,6 h -30.01 c -5.6,0 -10.21,4.18 -10.9,9.59 h 2.7 c 4.49,0 4.62,6 0,6 h -2.8 v 20.45 h 2.8 c 4.49,0 4.62,6 0,6 h -2.74 c 0.55,5.56 5.24,9.9 10.94,9.9 h 30 c 5.7,0 10.39,-4.34 10.94,-9.9 h -2.54 c -4.62,0 -4.49,-6 0,-6 h 2.59 V 20.89 h -2.59 c -4.62,0 -4.49,-6 0,-6 z M 10.836,55 c -1.08,0 -1.96,-0.88 -1.96,-1.96 0,-1.08 0.88,-1.96 1.96,-1.96 1.08,0 1.96,0.88 1.96,1.96 0,1.08 -0.88,1.96 -1.96,1.96 m 0,-42.08 c -1.08,0 -1.96,-0.88 -1.96,-1.96 0,-1.08 0.88,-1.96 1.96,-1.96 1.08,0 1.96,0.88 1.96,1.96 0,1.08 -0.88,1.96 -1.96,1.96 m 42.22,38.17 c 1.08,0 1.96,0.88 1.96,1.96 0,1.08 -0.88,1.96 -1.96,1.96 -1.08,0 -1.96,-0.88 -1.96,-1.96 0,-1.08 0.88,-1.96 1.96,-1.96 m -1.95,-40.13 c 0,-1.08 0.88,-1.96 1.96,-1.96 1.08,0 1.96,0.88 1.96,1.96 0,1.08 -0.88,1.96 -1.96,1.96 -1.08,0 -1.96,-0.88 -1.96,-1.96"
       class="cls-6"
       style="opacity:0.94;fill:#000000;stroke-width:0"
       id="path2" />
    <path
       d="m 55.286,14.9 h 2.39 C 56.696,9.83 52.236,6 46.886,6 h -30.01 c -5.6,0 -10.21,4.18 -10.9,9.59 h 2.7 c 4.49,0 4.62,6 0,6 h -2.8 v 20.45 h 2.8 c 4.49,0 4.62,6 0,6 h -2.74 c 0.55,5.56 5.24,9.9 10.94,9.9 h 30 c 5.7,0 10.39,-4.34 10.94,-9.9 h -2.54 c -4.62,0 -4.49,-6 0,-6 h 2.59 V 20.89 h -2.59 c -4.62,0 -4.49,-6 0,-6 z M 10.836,55 c -1.08,0 -1.96,-0.88 -1.96,-1.96 0,-1.08 0.88,-1.96 1.96,-1.96 1.08,0 1.96,0.88 1.96,1.96 0,1.08 -0.88,1.96 -1.96,1.96 m 0,-42.08 c -1.08,0 -1.96,-0.88 -1.96,-1.96 0,-1.08 0.88,-1.96 1.96,-1.96 1.08,0 1.96,0.88 1.96,1.96 0,1.08 -0.88,1.96 -1.96,1.96 m 42.22,38.17 c 1.08,0 1.96,0.88 1.96,1.96 0,1.08 -0.88,1.96 -1.96,1.96 -1.08,0 -1.96,-0.88 -1.96,-1.96 0,-1.08 0.88,-1.96 1.96,-1.96 m -1.95,-40.13 c 0,-1.08 0.88,-1.96 1.96,-1.96 1.08,0 1.96,0.88 1.96,1.96 0,1.08 -0.88,1.96 -1.96,1.96 -1.08,0 -1.96,-0.88 -1.96,-1.96"
       class="cls-2"
       style="opacity:0.94;fill:#00b2b2;stroke-width:0;fill-opacity:1"
       id="path3" />
    <path
       d="m 13.686,13.79 h 36.37 v 36.37 h -36.37 z"
       class="cls-7"
       style="fill:#424963;stroke-width:0"
       id="path4" />
    <path
       d="m 16.876,16.97 h 30 v 30 h -30 z"
       class="cls-4"
       style="fill:#c5d3d9;stroke-width:0"
       id="path5" />
    <path
       d="m 43.356,16.97 h 3.52 v 30 h -3.52 z"
       class="cls-5"
       style="fill:#a3afb4;stroke-width:0"
       id="path6" />
    <path
       d="m 25.256,45.02 h -5.66 c -0.35,0 -0.63,-0.28 -0.63,-0.63 v -5.66 c 0,-0.57 0.68,-0.85 1.08,-0.45 l 5.66,5.66 c 0.4,0.4 0.12,1.08 -0.45,1.08"
       class="cls-7"
       style="fill:#ffd42a;stroke-width:0;fill-opacity:1"
       id="path7" />
    <path
       d="m 16.696,6 h 30.37 c 1.66,0 3,1.24285 3,2.7825 v 1.39125 H 13.686 V 8.7825 C 13.686,7.24285 15.026,6 16.686,6 Z m -3.01,47.274675 h 36.37 v 1.87355 c 0,1.53965 -1.35,2.791775 -3.01,2.791775 h -30.09 c -1.8,0 -3.27,-1.35415 -3.27,-3.032925 z"
       class="cls-8"
       style="fill:#ffd42a;stroke-width:0"
       id="path8" />
    <path
       d="m 16.876,16.97 h 26.67 v 0.54 h -26.67 z"
       class="cls-5"
       style="fill:#a3afb4;stroke-width:0"
       id="path10" />
    <path
       d="m 17.416,16.97 v 30 h -0.54 v -30 z"
       class="cls-5"
       style="fill:#a3afb4;stroke-width:0"
       id="path11" />
    <path
       d="m 47.146,32.52 v 2.72 h -2.63 v 0.91 h -2.19 v 0.44 h -2.17 v -0.91 h -2.63 v -0.89 h -2.17 v -2.27 h -1.3 v -1.85 h -4.35 v 1.82 h -1.31 v 2.3 h -2.19 v 0.91 h -2.62 v 0.89 h -2.18 v -0.44 h -2.18 v -0.92 h -2.61 V 32.5 h -1.74 v -1.81 h -2.18 v -2.27 h -1.3 v -1.83 h 40.96 v 1.83 h -1.31 v 2.26 h -2.17 v 1.84 z"
       class="cls-1"
       style="fill:#2d3f53;stroke-width:0;fill-opacity:1"
       id="path12" />
  </g>
  <path
     d="m 19.711,31 h -2.168 v -2.169 h 2.168 z m 4.337,0 h 2.169 v 2.168 h -2.169 z m -4.337,0 h 2.169 v 2.168 h -2.169 z m 2.169,0 v -2.169 h 2.168 V 31 Z m 19.516,0 h 2.168 v 2.168 h -2.168 z m -2.169,0 v -2.169 h 2.169 V 31 Z m -2.168,0 h 2.168 v 2.168 h -2.168 z m 0,0 H 34.89 v -2.169 h 2.169 z"
     id="path6-3"
     style="fill:#f2f2f2;fill-opacity:1" />
</svg>
