<?xml version="1.0" encoding="UTF-8" standalone="no"?>
<svg
   width="62"
   height="62"
   version="1.1"
   id="svg9"
   sodipodi:docname="gqrx.svg"
   inkscape:version="1.4 (unknown)"
   xmlns:inkscape="http://www.inkscape.org/namespaces/inkscape"
   xmlns:sodipodi="http://sodipodi.sourceforge.net/DTD/sodipodi-0.dtd"
   xmlns:xlink="http://www.w3.org/1999/xlink"
   xmlns="http://www.w3.org/2000/svg"
   xmlns:svg="http://www.w3.org/2000/svg">
  <defs
     id="defs9">
    <linearGradient
       id="linearGradient1"
       inkscape:collect="always">
      <stop
         style="stop-color:#2d3d53;stop-opacity:1;"
         offset="0"
         id="stop1" />
      <stop
         style="stop-color:#415272;stop-opacity:1;"
         offset="1"
         id="stop2" />
    </linearGradient>
    <linearGradient
       inkscape:collect="always"
       xlink:href="#linearGradient1"
       id="linearGradient2"
       x1="31"
       y1="58.017544"
       x2="29.9"
       y2="0"
       gradientUnits="userSpaceOnUse" />
  </defs>
  <sodipodi:namedview
     id="namedview9"
     pagecolor="#ffffff"
     bordercolor="#000000"
     borderopacity="0.25"
     inkscape:showpageshadow="2"
     inkscape:pageopacity="0.0"
     inkscape:pagecheckerboard="0"
     inkscape:deskcolor="#d1d1d1"
     inkscape:zoom="10"
     inkscape:cx="17.45"
     inkscape:cy="40.05"
     inkscape:window-width="1920"
     inkscape:window-height="996"
     inkscape:window-x="0"
     inkscape:window-y="0"
     inkscape:window-maximized="1"
     inkscape:current-layer="svg9" />
  <rect
     style="opacity:0.2;stroke-width:0.9823"
     width="55"
     height="55.017544"
     x="3.5"
     y="3.9824562"
     ry="8.2526312"
     id="rect1" />
  <rect
     style="fill:url(#linearGradient2);fill-opacity:1;stroke-width:0.9823"
     width="55"
     height="55.017544"
     x="3.5"
     y="3"
     ry="8.2526312"
     id="rect2" />
  <path
     style="opacity:0.1;fill:#ffffff;stroke-width:0.9823"
     d="M 11.748466,3 C 7.1779651,3 3.4999999,6.6791384 3.4999999,11.251097 v 0.982456 c 0,-4.5719585 3.6779652,-8.2510968 8.2484661,-8.2510968 h 38.503068 c 4.5705,0 8.248466,3.6791383 8.248466,8.2510968 V 11.251097 C 58.5,6.6791384 54.822034,3 50.251534,3 Z"
     id="path9" />
  <g
     id="g1"
     transform="translate(-0.83875238,-1.2733787)">
    <path
       d="m 19.689779,15.886119 a 2.212258,2.1935312 0 0 0 -2.099707,1.456502 L 12.582747,31.239305 H 3.0822207 a 2.212258,2.1935312 0 1 0 0,4.386626 H 14.142407 a 2.212258,2.1935312 0 0 0 2.082424,-1.456499 l 3.149559,-8.747543 5.903806,21.740345 a 2.212258,2.1935312 0 0 0 4.244778,0.08997 l 4.674651,-14.678481 2.199082,5.995192 a 2.212258,2.1935312 0 0 0 3.642084,0.801074 l 3.776015,-3.74405 h 16.780371 a 2.212258,2.1935312 0 1 0 0,-4.386623 H 42.898884 a 2.212258,2.1935312 0 0 0 -1.56398,0.642568 l -1.967935,1.951277 -3.238128,-8.826796 a 2.212258,2.1935312 0 0 0 -4.186453,0.08998 L 27.585278,38.778814 21.80893,17.509682 a 2.212258,2.1935312 0 0 0 -2.119151,-1.623569 z"
       style="opacity:0.2;stroke-width:1.10131"
       id="path2" />
    <path
       d="M 3.0822207,32.335962 H 14.142407 l 5.530092,-15.353184 7.742125,28.513056 6.636115,-20.836462 4.424072,12.063213 4.424073,-4.386623 h 17.696293"
       style="fill:none;stroke:#ffb500;stroke-width:4.40532;stroke-linecap:round;stroke-linejoin:round;stroke-opacity:1"
       id="path3-6" />
  </g>
  <text
     xml:space="preserve"
     style="font-size:17.2769px;font-family:'Blush Asliring';-inkscape-font-specification:'Blush Asliring';text-align:start;writing-mode:lr-tb;direction:ltr;text-anchor:start;fill:#ffb500;stroke:#ffb500;stroke-width:0;stroke-linecap:round;stroke-linejoin:round;stroke-opacity:1;paint-order:fill markers stroke;fill-opacity:1"
     x="34.388798"
     y="20.26009"
     id="text1"
     transform="scale(0.99630678,1.0037069)"><tspan
       sodipodi:role="line"
       id="tspan1"
       x="34.388798"
       y="20.26009"
       style="stroke-width:0;fill:#ffb500;fill-opacity:1">30</tspan></text>
</svg>
