<?xml version="1.0" encoding="UTF-8" standalone="no"?>
<svg
   width="62"
   height="62"
   version="1.1"
   id="svg9"
   sodipodi:docname="graebert-gmbh.ares-commander.svg"
   inkscape:version="1.4 (unknown)"
   xmlns:inkscape="http://www.inkscape.org/namespaces/inkscape"
   xmlns:sodipodi="http://sodipodi.sourceforge.net/DTD/sodipodi-0.dtd"
   xmlns:xlink="http://www.w3.org/1999/xlink"
   xmlns="http://www.w3.org/2000/svg"
   xmlns:svg="http://www.w3.org/2000/svg">
  <defs
     id="defs9">
    <linearGradient
       id="linearGradient1"
       inkscape:collect="always">
      <stop
         style="stop-color:#2d3d53;stop-opacity:1;"
         offset="0"
         id="stop1" />
      <stop
         style="stop-color:#415272;stop-opacity:1;"
         offset="1"
         id="stop2" />
    </linearGradient>
    <linearGradient
       inkscape:collect="always"
       xlink:href="#linearGradient1"
       id="linearGradient2"
       x1="31"
       y1="58.017544"
       x2="29.9"
       y2="0"
       gradientUnits="userSpaceOnUse" />
  </defs>
  <sodipodi:namedview
     id="namedview9"
     pagecolor="#ffffff"
     bordercolor="#000000"
     borderopacity="0.25"
     inkscape:showpageshadow="2"
     inkscape:pageopacity="0.0"
     inkscape:pagecheckerboard="0"
     inkscape:deskcolor="#d1d1d1"
     inkscape:zoom="7.0710678"
     inkscape:cx="-4.0305087"
     inkscape:cy="37.54737"
     inkscape:window-width="1920"
     inkscape:window-height="996"
     inkscape:window-x="0"
     inkscape:window-y="0"
     inkscape:window-maximized="1"
     inkscape:current-layer="svg9" />
  <rect
     style="opacity:0.2;stroke-width:0.9823"
     width="55"
     height="55.017544"
     x="3.5"
     y="3.9824562"
     ry="8.2526312"
     id="rect1" />
  <rect
     style="fill:url(#linearGradient2);fill-opacity:1;stroke-width:0.9823"
     width="55"
     height="55.017544"
     x="3.5"
     y="3"
     ry="8.2526312"
     id="rect2" />
  <path
     style="opacity:0.1;fill:#ffffff;stroke-width:0.9823"
     d="M 11.748466,3 C 7.1779651,3 3.4999999,6.6791384 3.4999999,11.251097 v 0.982456 c 0,-4.5719585 3.6779652,-8.2510968 8.2484661,-8.2510968 h 38.503068 c 4.5705,0 8.248466,3.6791383 8.248466,8.2510968 V 11.251097 C 58.5,6.6791384 54.822034,3 50.251534,3 Z"
     id="path9" />
  <g
     id="g1"
     transform="matrix(1.0318062,0,0,1.0288065,57.875808,2.2100844)">
    <path
       style="opacity:0.2"
       d="m -29.63837,50.709937 c -13.291124,-6.97646 -18.914826,-14.605446 -16.01929,-21.731404 2.78166,-6.84572 12.810672,-13.689508 30.441866,-20.7734943 3.81577,-1.533126 9.43096,-3.608233 9.52077,-3.518423 0.0287,0.0287 -1.756454,1.036209 -3.96711,2.238809 -9.820482,5.3423433 -20.299818,12.7685323 -23.218776,16.4540323 l -0.80871,1.021062 2.182768,-1.464834 c 3.027808,-2.031932 7.417942,-4.408544 11.30451,-6.119722 3.429132,-1.509788 11.021122,-4.422489 11.512956,-4.416987 0.15646,0.0014 -0.645932,0.507962 -1.78311,1.124914 -6.82549,3.703057 -14.785736,10.043069 -17.81101,14.185779 -0.876596,1.20038 -0.906794,1.21127 1.999998,-0.72103 1.137178,-0.755944 3.192476,-2.00297 4.567346,-2.77117 2.619232,-1.46349 8.093148,-4.10718 8.227002,-3.973326 0.04284,0.04284 -0.765968,0.641956 -1.797362,1.331358 -4.210304,2.814308 -9.85299,7.867264 -11.694634,10.47241 -0.543886,0.76937 -0.485478,0.748092 1.501248,-0.546922 1.914388,-1.247866 8.750994,-4.753654 9.270044,-4.753654 0.12558,0 -0.584626,0.604572 -1.57808,1.343492 -4.04173,3.006182 -8.602524,7.628264 -10.242568,10.380214 -0.506548,0.849958 -1.103494,2.28497 -1.32657,3.188916 -0.370832,1.502724 -0.373604,1.80585 -0.03234,3.538034 0.358344,1.818892 1.09368,3.577698 2.496774,5.971894 0.360458,0.615078 0.562884,1.116336 0.449834,1.113908 -0.11298,-0.0024 -1.551046,-0.710664 -3.195542,-1.573856 z"
       id="path2-7" />
    <path
       style="fill:#c83771"
       d="m -29.63837,49.70994 c -13.291124,-6.97646 -18.914826,-14.605446 -16.01929,-21.731404 2.78166,-6.84572 12.810672,-13.689509 30.441866,-20.7734943 3.81577,-1.533126 9.43096,-3.608234 9.52077,-3.518424 0.0287,0.0287 -1.756454,1.03621 -3.96711,2.23881 C -19.482616,11.267771 -29.961952,18.69396 -32.88091,22.37946 l -0.80871,1.021062 2.182768,-1.464834 c 3.027808,-2.031932 7.417942,-4.408544 11.30451,-6.119722 3.429132,-1.509789 11.021122,-4.422489 11.512956,-4.416987 0.15646,0.0014 -0.645932,0.507962 -1.78311,1.124914 -6.82549,3.703057 -14.785736,10.043069 -17.81101,14.185779 -0.876596,1.20038 -0.906794,1.21127 1.999998,-0.72103 1.137178,-0.755944 3.192476,-2.00297 4.567346,-2.77117 2.619232,-1.46349 8.093148,-4.10718 8.227002,-3.973326 0.04284,0.04284 -0.765968,0.641956 -1.797362,1.331358 -4.210304,2.814308 -9.85299,7.867264 -11.694634,10.47241 -0.543886,0.76937 -0.485478,0.748092 1.501248,-0.546922 1.914388,-1.247866 8.750994,-4.753654 9.270044,-4.753654 0.12558,0 -0.584626,0.604572 -1.57808,1.343492 -4.04173,3.006182 -8.602524,7.628264 -10.242568,10.380214 -0.506548,0.849958 -1.103494,2.28497 -1.32657,3.188916 -0.370832,1.502724 -0.373604,1.80585 -0.03234,3.538034 0.358344,1.818892 1.09368,3.577698 2.496774,5.971894 0.360458,0.615078 0.562884,1.116336 0.449834,1.113908 -0.11298,-0.0024 -1.551046,-0.710664 -3.195542,-1.573856 z"
       id="path3" />
    <path
       style="opacity:0.2"
       d="m -23.668164,13.236924 c -0.04618,-0.04634 -0.988352,0.385582 -2.597656,1.241407 -14.052445,7.47306 -19.629478,13.77547 -17.959376,20.294532 0.7462,2.91268 2.857883,5.796564 6.409376,8.760936 1.279782,1.068216 2.378474,1.94414 2.441796,1.94414 0.06328,0 -0.725176,-0.835738 -1.752734,-1.85664 -5.36886,-5.334158 -7.012075,-10.269652 -4.921875,-14.7875 1.96973,-4.25743 8.682969,-10.10461 16.756251,-14.593359 1.154226,-0.641753 1.660142,-0.96747 1.624218,-1.003516 z m 1.632422,5.816015 c -0.209316,0.0586 -1.686932,0.876488 -3.683204,2.053516 -9.813132,5.785924 -12.787596,9.899646 -11.407812,15.766408 l 0.451172,1.91406 0.15586,-2.553906 c 0.0861,-1.404748 0.337836,-3.041804 0.560548,-3.639452 1.3265,-3.559742 5.029204,-7.420996 11.09336,-11.563672 1.175034,-0.802704 2.341402,-1.596446 2.589454,-1.766408 0.239308,-0.16398 0.310396,-0.230078 0.240622,-0.210546 z m -0.96797,7.013674 c -0.02616,-0.07388 -0.77964,0.407244 -2.258592,1.451952 -3.844974,2.716038 -5.315208,4.780024 -5.78047,8.10742 l -0.13672,0.973438 0.325392,-0.855858 c 0.1794,-0.469678 0.659144,-1.511968 1.066404,-2.31875 0.966672,-1.914968 2.426462,-3.623404 4.678516,-5.476952 1.431654,-1.178324 2.131616,-1.807378 2.105468,-1.88125 z m -1.471092,5.835154 c -0.0457,-0.0092 -0.266024,0.13006 -0.634376,0.38008 -2.007544,1.362638 -3.07941,2.639392 -3.516406,4.19453 -0.1232,0.438344 -0.0062,0.348666 0.415624,-0.325392 0.322168,-0.514316 1.397456,-1.76176 2.389846,-2.772654 1.011972,-1.030838 1.421474,-1.46145 1.345312,-1.476564 z"
       id="path4" />
    <path
       style="fill:#f2f2f2;fill-opacity:1"
       d="m -23.668164,12.236927 c -0.04618,-0.04634 -0.988352,0.385582 -2.597656,1.241407 -14.052445,7.47306 -19.629478,13.77547 -17.959376,20.294532 0.7462,2.91268 2.857883,5.796564 6.409376,8.760936 1.279782,1.068216 2.378474,1.94414 2.441796,1.94414 0.06328,0 -0.725176,-0.835738 -1.752734,-1.85664 -5.36886,-5.334158 -7.012075,-10.269652 -4.921875,-14.7875 1.96973,-4.25743 8.682969,-10.10461 16.756251,-14.593359 1.154226,-0.641753 1.660142,-0.96747 1.624218,-1.003516 z m 1.632422,5.816015 c -0.209316,0.0586 -1.686932,0.876488 -3.683204,2.053516 -9.813132,5.785924 -12.787596,9.899646 -11.407812,15.766408 l 0.451172,1.91406 0.15586,-2.553906 c 0.0861,-1.404748 0.337836,-3.041804 0.560548,-3.639452 1.3265,-3.559742 5.029204,-7.420996 11.09336,-11.563672 1.175034,-0.802704 2.341402,-1.596446 2.589454,-1.766408 0.239308,-0.16398 0.310396,-0.230078 0.240622,-0.210546 z m -0.96797,7.013674 c -0.02616,-0.07388 -0.77964,0.407244 -2.258592,1.451952 -3.844974,2.716038 -5.315208,4.780024 -5.78047,8.10742 l -0.13672,0.973438 0.325392,-0.855858 c 0.1794,-0.469678 0.659144,-1.511968 1.066404,-2.31875 0.966672,-1.914968 2.426462,-3.623404 4.678516,-5.476952 1.431654,-1.178324 2.131616,-1.807378 2.105468,-1.88125 z m -1.471092,5.835154 c -0.0457,-0.0092 -0.266024,0.13006 -0.634376,0.38008 -2.007544,1.362638 -3.07941,2.639392 -3.516406,4.19453 -0.1232,0.438344 -0.0062,0.348666 0.415624,-0.325392 0.322168,-0.514316 1.397456,-1.76176 2.389846,-2.772654 1.011972,-1.030838 1.421474,-1.46145 1.345312,-1.476564 z"
       id="path5" />
  </g>
</svg>
