<?xml version="1.0" encoding="UTF-8" standalone="no"?>
<svg
   width="62"
   height="62"
   version="1.1"
   id="svg9"
   sodipodi:docname="grafx2.svg"
   inkscape:version="1.4 (unknown)"
   xmlns:inkscape="http://www.inkscape.org/namespaces/inkscape"
   xmlns:sodipodi="http://sodipodi.sourceforge.net/DTD/sodipodi-0.dtd"
   xmlns:xlink="http://www.w3.org/1999/xlink"
   xmlns="http://www.w3.org/2000/svg"
   xmlns:svg="http://www.w3.org/2000/svg">
  <defs
     id="defs9">
    <linearGradient
       id="linearGradient3"
       inkscape:collect="always">
      <stop
         style="stop-color:#a987de;stop-opacity:1;"
         offset="0"
         id="stop4" />
      <stop
         style="stop-color:#2ad4ff;stop-opacity:1"
         offset="1"
         id="stop5" />
    </linearGradient>
    <linearGradient
       id="linearGradient1"
       inkscape:collect="always">
      <stop
         style="stop-color:#2d3d53;stop-opacity:1;"
         offset="0"
         id="stop1" />
      <stop
         style="stop-color:#415272;stop-opacity:1;"
         offset="1"
         id="stop2" />
    </linearGradient>
    <linearGradient
       inkscape:collect="always"
       xlink:href="#linearGradient1"
       id="linearGradient2"
       x1="31"
       y1="58.017544"
       x2="29.9"
       y2="0"
       gradientUnits="userSpaceOnUse" />
    <linearGradient
       id="_lgradient_9"
       x1="0"
       y1="0.5"
       x2="1"
       y2="0.5"
       gradientTransform="matrix(44.000005,0,0,44,9.0000003,9)"
       gradientUnits="userSpaceOnUse">
      <stop
         offset="0%"
         stop-opacity="1"
         style="stop-color:rgb(84,51,255)"
         id="stop1-5" />
      <stop
         offset="51.73913043478261%"
         stop-opacity="1"
         style="stop-color:rgb(32,189,255)"
         id="stop2-3" />
      <stop
         offset="98.26086956521739%"
         stop-opacity="1"
         style="stop-color:rgb(165,254,203)"
         id="stop3" />
    </linearGradient>
    <linearGradient
       inkscape:collect="always"
       xlink:href="#linearGradient3"
       id="linearGradient5"
       x1="28.374725"
       y1="53"
       x2="44.672234"
       y2="9.3116951"
       gradientUnits="userSpaceOnUse" />
  </defs>
  <sodipodi:namedview
     id="namedview9"
     pagecolor="#ffffff"
     bordercolor="#000000"
     borderopacity="0.25"
     inkscape:showpageshadow="2"
     inkscape:pageopacity="0.0"
     inkscape:pagecheckerboard="0"
     inkscape:deskcolor="#d1d1d1"
     inkscape:zoom="7.0710678"
     inkscape:cx="-4.0305087"
     inkscape:cy="37.54737"
     inkscape:window-width="1920"
     inkscape:window-height="996"
     inkscape:window-x="0"
     inkscape:window-y="0"
     inkscape:window-maximized="1"
     inkscape:current-layer="svg9" />
  <rect
     style="opacity:0.2;stroke-width:0.9823"
     width="55"
     height="55.017544"
     x="3.5"
     y="3.9824562"
     ry="8.2526312"
     id="rect1" />
  <rect
     style="fill:url(#linearGradient2);fill-opacity:1;stroke-width:0.9823"
     width="55"
     height="55.017544"
     x="3.5"
     y="3"
     ry="8.2526312"
     id="rect2" />
  <path
     style="opacity:0.1;fill:#ffffff;stroke-width:0.9823"
     d="M 11.748466,3 C 7.1779651,3 3.4999999,6.6791384 3.4999999,11.251097 v 0.982456 c 0,-4.5719585 3.6779652,-8.2510968 8.2484661,-8.2510968 h 38.503068 c 4.5705,0 8.248466,3.6791383 8.248466,8.2510968 V 11.251097 C 58.5,6.6791384 54.822034,3 50.251534,3 Z"
     id="path9" />
  <path
     d="m 29.921959,28.228857 c 0.361526,0 0.72212,0.139267 0.999574,0.416846 l 0.999573,1.000974 -2.001953,2.001948 -0.999574,-1.000038 c -0.5549,-0.555174 -0.5549,-1.446791 0,-2.002884 0.277446,-0.277579 0.640848,-0.416846 1.00238,-0.416846 z M 40.461407,15.089979 v 0.0026 c -0.08221,0.002 -0.159746,0.0355 -0.217665,0.09346 l -0.862251,0.862738 c -0.05979,0.05974 -0.09342,0.141122 -0.09342,0.225241 v 4.951609 h -4.950234 c -0.08408,0.0013 -0.165349,0.03456 -0.225138,0.09442 l -3.191165,3.19266 c -0.124243,0.12429 -0.124243,0.326171 0,0.45142 l 5.293077,5.297405 -0.774438,0.773867 -3.452739,-3.456218 c -1.137829,-1.138361 -2.993119,-1.138361 -4.131902,0 -1.137818,1.139297 -1.137818,2.994528 0,4.133817 l 3.452756,3.456218 -1.361102,1.361746 -2.711935,-0.287855 c 0.845441,-1.143046 0.87812,-2.720685 -0.156002,-3.755308 -1.13784,-1.139294 -2.991269,-1.139294 -4.129109,0 l -5.520067,5.522666 c -1.815126,1.81597 -1.815126,4.770293 0,6.587192 1.815123,1.815971 4.76899,1.815971 6.584114,0 0.883726,-0.884148 1.229396,-2.043075 1.253666,-3.202937 l 0.748292,0.748628 c 0.124226,0.124307 0.326034,0.124307 0.451202,0 l 0.611902,-0.61497 c 0.124229,-0.124318 0.124229,-0.326191 0,-0.45142 l -3.065062,-3.066497 c -0.125168,-0.124307 -0.326034,-0.124307 -0.451209,0 l -1.84035,1.841199 c -0.124239,0.124307 -0.124239,0.326178 0,0.450491 l 0.612834,0.6131 c 0.05968,0.06067 0.141986,0.09443 0.227009,0.09443 0.08504,0 0.166288,-0.03355 0.226069,-0.09443 l 0.746416,-0.74676 c 0.447464,1.131828 0.333488,2.444972 -0.584816,3.362771 -1.232181,1.232755 -3.221997,1.232755 -4.454176,0 -1.233123,-1.23277 -1.233123,-3.223503 0,-4.457198 l 5.518222,-5.520802 c 0.554898,-0.555157 1.446118,-0.555157 2.001959,0 0.554897,0.556095 0.554897,1.447733 0,2.002889 l -1.227525,1.226217 c -0.06064,0.05975 -0.09434,0.141125 -0.09434,0.226178 0,0.08508 0.03354,0.167304 0.09434,0.227118 l 3.066912,3.066487 c 0.125194,0.124296 0.326973,0.124296 0.451229,0 l 0.612817,-0.613115 c 0.06068,-0.05972 0.09438,-0.141121 0.09438,-0.22618 0,-0.08508 -0.03359,-0.166365 -0.09438,-0.226178 l -1.450785,-1.452397 2.887557,0.300008 c 0.0962,0.0096 0.191512,-0.02516 0.259708,-0.09439 l 2.596091,-2.597309 c 0.06071,-0.05974 0.09435,-0.141136 0.09435,-0.22618 0,-0.08508 -0.03361,-0.167301 -0.09435,-0.227119 l -2.227088,-2.226265 2.00195,-2.002888 2.227091,2.228137 c 0.125178,0.124291 0.326963,0.124291 0.451209,0 l 2.453163,-2.453377 c 0.05979,-0.05974 0.09435,-0.142064 0.09435,-0.227101 0,-0.08508 -0.03455,-0.166364 -0.09435,-0.22618 l -2.228025,-2.22814 1.615204,-1.614099 c 0.124246,-0.124305 0.124246,-0.326184 0,-0.450484 l -0.612825,-0.614939 c -0.05979,-0.06067 -0.141995,-0.09442 -0.227006,-0.09442 -0.08501,0 -0.166284,0.03355 -0.226073,0.09442 l -1.612398,1.615019 -2.001955,-2.002891 2.009429,-2.010361 h 4.453247 v 5.816127 c -10e-4,0.129912 0.07754,0.247688 0.197112,0.297215 0.12051,0.0496 0.257836,0.02143 0.349385,-0.07104 l 0.862251,-0.862595 c 0.05977,-0.05974 0.09342,-0.141119 0.09342,-0.226178 V 22.72577 h 4.949297 c 0.08502,0 0.166285,-0.03279 0.226075,-0.09158 l 0.862245,-0.862664 c 0.09249,-0.09158 0.12051,-0.229929 0.07099,-0.349561 -0.04954,-0.120534 -0.167223,-0.198107 -0.297077,-0.198107 h -5.81153 v -5.814252 c 0,-0.086 -0.03455,-0.169177 -0.09715,-0.228992 -0.06166,-0.06068 -0.145732,-0.09255 -0.231678,-0.09061 z M 12.065065,23.895031 V 12.629128 H 24.603662 L 30.571219,18.936862 37.549558,12.629 H 49.811639 L 49.352022,23.915585 43.149984,31.030846 49.8733,38.29938 V 49.433 H 37.549558 L 30.581487,43.063138 24.061836,49.433 12.065065,49.432565 V 38.361057 l 6.765348,-7.381611 z M 9.0000003,25.131515 V 9.5 H 25.932064 L 30.662757,14.57126 36.344464,9.5 H 53 V 25.1119 L 47.267865,30.969154 53,37.092783 V 52 H 36.344464 L 30.65249,47.42874 25.328575,52 H 9.0000003 V 37.17503 l 5.6303217,-6.154476 z m 29.1633177,8.934982 c -1.05843,0 -2.117793,0.401867 -2.922123,1.206566 -1.608664,1.60944 -1.608664,4.237592 0,5.846998 l 0.437197,0.439279 1.706751,-1.70476 -0.439066,-0.440212 c -0.677282,-0.677597 -0.677282,-1.756135 0,-2.433734 0.677282,-0.677597 1.755331,-0.677597 2.432613,0 0.280253,0.280371 0.434394,0.623387 0.479235,0.984146 v 7.775089 l 1.617071,1.616911 0.606284,-0.60658 1.487221,-1.487899 3.749804,-3.752515 -1.703943,-1.705666 -3.350918,3.35154 c -0.0037,-1.792594 0.0048,-3.586129 0,-5.388081 v -0.03656 l -0.0048,-0.0355 c -0.106403,-0.880335 -0.495027,-1.743001 -1.173238,-2.422475 -0.804335,-0.804707 -1.862762,-1.205638 -2.922127,-1.205638 z"
     fill-rule="evenodd"
     id="path3"
     style="fill:url(#linearGradient5)"
     sodipodi:nodetypes="scccccsccccscccccccccccccccccsccccccccccscccccscccsccccscccccsccccccscccccscccccccccscscccscscccccccccccccccccccccccccccccccccccccccccccsscccccccccccccc" />
</svg>
