<?xml version="1.0" encoding="UTF-8" standalone="no"?>
<svg
   width="62"
   height="62"
   version="1.1"
   id="svg9"
   sodipodi:docname="gramps.svg"
   inkscape:version="1.4 (unknown)"
   xmlns:inkscape="http://www.inkscape.org/namespaces/inkscape"
   xmlns:sodipodi="http://sodipodi.sourceforge.net/DTD/sodipodi-0.dtd"
   xmlns:xlink="http://www.w3.org/1999/xlink"
   xmlns="http://www.w3.org/2000/svg"
   xmlns:svg="http://www.w3.org/2000/svg">
  <defs
     id="defs9">
    <linearGradient
       id="linearGradient1"
       inkscape:collect="always">
      <stop
         style="stop-color:#767676;stop-opacity:1;"
         offset="0"
         id="stop1" />
      <stop
         style="stop-color:#b8aca3;stop-opacity:1;"
         offset="1"
         id="stop2" />
    </linearGradient>
    <linearGradient
       inkscape:collect="always"
       xlink:href="#linearGradient1"
       id="linearGradient2"
       x1="56.208454"
       y1="55.482895"
       x2="18.44487"
       y2="3"
       gradientUnits="userSpaceOnUse" />
    <linearGradient
       id="_lgradient_9"
       x1="0"
       y1="0.5"
       x2="1"
       y2="0.5"
       gradientTransform="matrix(44.000005,0,0,44,9.0000003,9)"
       gradientUnits="userSpaceOnUse">
      <stop
         offset="0%"
         stop-opacity="1"
         style="stop-color:rgb(84,51,255)"
         id="stop1-5" />
      <stop
         offset="51.73913043478261%"
         stop-opacity="1"
         style="stop-color:rgb(32,189,255)"
         id="stop2-3" />
      <stop
         offset="98.26086956521739%"
         stop-opacity="1"
         style="stop-color:rgb(165,254,203)"
         id="stop3" />
    </linearGradient>
  </defs>
  <sodipodi:namedview
     id="namedview9"
     pagecolor="#ffffff"
     bordercolor="#000000"
     borderopacity="0.25"
     inkscape:showpageshadow="2"
     inkscape:pageopacity="0.0"
     inkscape:pagecheckerboard="0"
     inkscape:deskcolor="#d1d1d1"
     inkscape:zoom="7.0710678"
     inkscape:cx="-4.0305087"
     inkscape:cy="37.54737"
     inkscape:window-width="1920"
     inkscape:window-height="996"
     inkscape:window-x="0"
     inkscape:window-y="0"
     inkscape:window-maximized="1"
     inkscape:current-layer="svg9" />
  <rect
     style="opacity:0.2;stroke-width:0.9823"
     width="55"
     height="55.017544"
     x="3.5"
     y="3.9824562"
     ry="8.2526312"
     id="rect1" />
  <rect
     style="fill:url(#linearGradient2);fill-opacity:1;stroke-width:0.9823"
     width="55"
     height="55.017544"
     x="3.5"
     y="3"
     ry="8.2526312"
     id="rect2" />
  <path
     style="opacity:0.1;fill:#ffffff;stroke-width:0.9823"
     d="M 11.748466,3 C 7.1779651,3 3.4999999,6.6791384 3.4999999,11.251097 v 0.982456 c 0,-4.5719585 3.6779652,-8.2510968 8.2484661,-8.2510968 h 38.503068 c 4.5705,0 8.248466,3.6791383 8.248466,8.2510968 V 11.251097 C 58.5,6.6791384 54.822034,3 50.251534,3 Z"
     id="path9" />
  <g
     id="g18"
     transform="matrix(1.0238242,0,0,1.0285916,-2.7857744,-1.4009884)">
    <path
       style="fill:none;stroke:#2d3d53;stroke-width:1.99997;stroke-opacity:1"
       d="M 20.999757,30.000458 V 19.000615 h 23.999657 v 10.999843"
       id="path2" />
    <path
       style="fill:none;stroke:#2d3d53;stroke-width:1.99997;stroke-opacity:1"
       d="M 26.999672,44.000257 V 31.000443 h 23.999656 v 12.999814"
       id="path3" />
    <path
       style="fill:none;stroke:#2d3d53;stroke-width:1.99997;stroke-opacity:1"
       d="M 14.999843,44.000257 V 31.000443 H 38.9995 v 12.999814"
       id="path4" />
    <g
       style="opacity:0.2"
       transform="matrix(1.9999714,0,0,1.9999714,5.760572e-5,1.0006864)"
       id="g10">
      <rect
         width="3"
         height="4"
         x="6"
         y="20"
         id="rect4" />
      <rect
         width="3"
         height="4"
         x="12"
         y="20"
         id="rect5" />
      <rect
         width="3"
         height="4"
         x="18"
         y="20"
         id="rect6" />
      <rect
         width="3"
         height="4"
         x="15"
         y="7"
         id="rect7" />
      <rect
         width="3"
         height="4"
         x="9"
         y="13"
         id="rect8" />
      <rect
         width="3"
         height="4"
         x="21"
         y="13"
         id="rect9" />
      <rect
         width="3"
         height="4"
         x="24"
         y="20"
         id="rect10" />
    </g>
    <g
       style="fill:#ffffff"
       transform="matrix(1.9999714,0,0,1.9999714,5.760572e-5,8.866e-4)"
       id="g17">
      <rect
         width="3"
         height="4"
         x="6"
         y="20"
         id="rect11" />
      <rect
         width="3"
         height="4"
         x="12"
         y="20"
         id="rect12" />
      <rect
         width="3"
         height="4"
         x="18"
         y="20"
         id="rect13" />
      <rect
         width="3"
         height="4"
         x="15"
         y="7"
         id="rect14" />
      <rect
         width="3"
         height="4"
         x="9"
         y="13"
         id="rect15" />
      <rect
         width="3"
         height="4"
         x="21"
         y="13"
         id="rect16" />
      <rect
         width="3"
         height="4"
         x="24"
         y="20"
         id="rect17" />
    </g>
  </g>
</svg>
