<?xml version="1.0" encoding="UTF-8" standalone="no"?>
<svg
   width="62"
   height="62"
   version="1.1"
   id="svg9"
   sodipodi:docname="gramwallet.svg"
   inkscape:version="1.4 (unknown)"
   xmlns:inkscape="http://www.inkscape.org/namespaces/inkscape"
   xmlns:sodipodi="http://sodipodi.sourceforge.net/DTD/sodipodi-0.dtd"
   xmlns:xlink="http://www.w3.org/1999/xlink"
   xmlns="http://www.w3.org/2000/svg"
   xmlns:svg="http://www.w3.org/2000/svg">
  <defs
     id="defs9">
    <linearGradient
       id="linearGradient1"
       inkscape:collect="always">
      <stop
         style="stop-color:#2d3d53;stop-opacity:1;"
         offset="0"
         id="stop1" />
      <stop
         style="stop-color:#415272;stop-opacity:1;"
         offset="1"
         id="stop2" />
    </linearGradient>
    <linearGradient
       inkscape:collect="always"
       xlink:href="#linearGradient1"
       id="linearGradient2"
       x1="31"
       y1="58.017544"
       x2="29.9"
       y2="0"
       gradientUnits="userSpaceOnUse" />
  </defs>
  <sodipodi:namedview
     id="namedview9"
     pagecolor="#ffffff"
     bordercolor="#000000"
     borderopacity="0.25"
     inkscape:showpageshadow="2"
     inkscape:pageopacity="0.0"
     inkscape:pagecheckerboard="0"
     inkscape:deskcolor="#d1d1d1"
     inkscape:zoom="7.0710678"
     inkscape:cx="-4.0305087"
     inkscape:cy="37.54737"
     inkscape:window-width="1920"
     inkscape:window-height="996"
     inkscape:window-x="0"
     inkscape:window-y="0"
     inkscape:window-maximized="1"
     inkscape:current-layer="svg9" />
  <rect
     style="opacity:0.2;stroke-width:0.9823"
     width="55"
     height="55.017544"
     x="3.5"
     y="3.9824562"
     ry="8.2526312"
     id="rect1" />
  <rect
     style="fill:url(#linearGradient2);fill-opacity:1;stroke-width:0.9823"
     width="55"
     height="55.017544"
     x="3.5"
     y="3"
     ry="8.2526312"
     id="rect2" />
  <path
     style="opacity:0.1;fill:#ffffff;stroke-width:0.9823"
     d="M 11.748466,3 C 7.1779651,3 3.4999999,6.6791384 3.4999999,11.251097 v 0.982456 c 0,-4.5719585 3.6779652,-8.2510968 8.2484661,-8.2510968 h 38.503068 c 4.5705,0 8.248466,3.6791383 8.248466,8.2510968 V 11.251097 C 58.5,6.6791384 54.822034,3 50.251534,3 Z"
     id="path9" />
  <g
     id="g1"
     transform="matrix(1,0,0,0.99997867,66.365384,-7.6321824)">
    <path
       style="opacity:0.2;stroke-width:1.21372"
       d="m -46.696181,20.338573 c -2.353305,0 -4.775009,0.273197 -6.442712,2.052438 -0.833848,0.889617 -1.296771,2.203212 -1.21779,3.546196 0.07905,1.342987 0.591152,2.726786 1.493155,4.284787 l 15.89312,27.981352 a 1.8233201,1.818259 0 0 0 3.178618,-0.01161 l 16.130498,-28.821723 c 1.164983,-2.012216 1.850747,-4.273237 0.714533,-6.273318 -1.136209,-2.000068 -3.570911,-2.75789 -6.779787,-2.75789 z m 0,3.636149 h 9.488384 V 50.407863 L -49.699139,28.41812 a 1.8233201,1.818259 0 0 0 -0.0069,-0.01422 c -0.720754,-1.245011 -0.980421,-2.155261 -1.011267,-2.679774 -0.03091,-0.524507 0.05805,-0.650983 0.244509,-0.849857 0.37279,-0.397726 1.866943,-0.899575 3.776841,-0.899575 z m 13.13466,0 h 9.834975 c 2.62483,0 3.452065,0.638771 3.608287,0.913778 0.156229,0.275011 0.166504,1.16603 -0.700292,2.663197 a 1.8233201,1.818259 0 0 0 -0.01427,0.02368 l -12.728717,22.742536 z"
       id="path2" />
    <path
       style="fill:none;stroke:#f2f2f2;stroke-width:3.6412;stroke-linecap:round;stroke-linejoin:round;stroke-opacity:1"
       d="M -35.384664,56.094426 -51.285006,28.101394 c -3.245642,-5.606023 0.32656,-7.156969 4.589749,-7.156969 h 22.969709 c 5.833722,0 6.517618,2.795468 4.485828,6.304847 z"
       id="path3-3" />
    <rect
       style="fill:#f1f1f1;stroke-width:1.21372;fill-opacity:1"
       width="3.6462765"
       height="34.280453"
       x="-37.20779"
       y="21.054024"
       id="rect3" />
  </g>
</svg>
