<?xml version="1.0" encoding="UTF-8" standalone="no"?>
<svg
   clip-rule="evenodd"
   fill-rule="evenodd"
   stroke-linejoin="round"
   stroke-miterlimit="2"
   viewBox="0 0 62 62"
   version="1.1"
   id="svg3"
   sodipodi:docname="grapejuice.svg"
   width="62"
   height="62"
   inkscape:version="1.4 (unknown)"
   xmlns:inkscape="http://www.inkscape.org/namespaces/inkscape"
   xmlns:sodipodi="http://sodipodi.sourceforge.net/DTD/sodipodi-0.dtd"
   xmlns="http://www.w3.org/2000/svg"
   xmlns:svg="http://www.w3.org/2000/svg">
  <defs
     id="defs3" />
  <sodipodi:namedview
     id="namedview3"
     pagecolor="#ffffff"
     bordercolor="#000000"
     borderopacity="0.25"
     inkscape:showpageshadow="2"
     inkscape:pageopacity="0.0"
     inkscape:pagecheckerboard="0"
     inkscape:deskcolor="#d1d1d1"
     inkscape:zoom="9.4280904"
     inkscape:cx="22.485996"
     inkscape:cy="29.009056"
     inkscape:window-width="1920"
     inkscape:window-height="996"
     inkscape:window-x="0"
     inkscape:window-y="0"
     inkscape:window-maximized="1"
     inkscape:current-layer="svg3" />
  <linearGradient
     id="a"
     x2="1"
     gradientTransform="matrix(-5.9965,-20.9252,20.9252,-5.9965,512.066,-91.1817)"
     gradientUnits="userSpaceOnUse">
    <stop
       stop-color="#0052ff"
       offset="0"
       id="stop1" />
    <stop
       stop-color="#00a0fd"
       offset="1"
       id="stop2" />
  </linearGradient>
  <g
     fill-rule="nonzero"
     id="g3"
     transform="matrix(1.2686574,0,0,1.2703095,0.5522224,0.512572)">
    <path
       d="m 4.944,23.262 c 0.157,-0.244 0.432,-0.392 0.719,-0.377 0.053,0.003 0.106,0.012 0.16,0.026 l 13.999,3.563 -0.005,0.013 6.562,1.759 0.962,-3.588 c 0.191,-0.262 0.522,-0.396 0.846,-0.309 l 13.247,3.488 c 0.347,0.091 0.579,0.404 0.59,0.754 l -3.58,13.357 c -0.783,2.925 -3.732,4.679 -6.583,3.915 L 6.26,39.003 C 3.41,38.24 1.733,35.246 2.516,32.322 Z"
       id="path2"
       style="fill:#3384ff;fill-opacity:1" />
    <path
       d="M 5.974,19.416 9.556,6.052 c 0.783,-2.925 3.732,-4.679 6.583,-3.915 l 25.601,6.86 c 2.85,0.763 4.527,3.757 3.744,6.681 l -2.427,9.054 c -0.182,0.294 -0.535,0.45 -0.879,0.359 -10e-4,0 -0.003,10e-4 -0.005,0 l -13.995,-3.56 0.005,-0.018 -6.562,-1.758 -0.962,3.592 c -0.191,0.259 -0.521,0.389 -0.843,0.302 L 6.564,20.163 c -0.345,-0.09 -0.576,-0.4 -0.59,-0.747 z"
       id="path3"
       style="fill:#984be7;fill-opacity:1" />
  </g>
</svg>
