<?xml version="1.0" encoding="UTF-8" standalone="no"?>
<svg
   width="62"
   height="62"
   version="1.1"
   id="svg9"
   sodipodi:docname="greenfoot.svg"
   inkscape:version="1.4 (unknown)"
   xmlns:inkscape="http://www.inkscape.org/namespaces/inkscape"
   xmlns:sodipodi="http://sodipodi.sourceforge.net/DTD/sodipodi-0.dtd"
   xmlns:xlink="http://www.w3.org/1999/xlink"
   xmlns="http://www.w3.org/2000/svg"
   xmlns:svg="http://www.w3.org/2000/svg">
  <defs
     id="defs9">
    <linearGradient
       id="linearGradient1"
       inkscape:collect="always">
      <stop
         style="stop-color:#2d3d53;stop-opacity:1;"
         offset="0"
         id="stop1" />
      <stop
         style="stop-color:#415272;stop-opacity:1;"
         offset="1"
         id="stop2" />
    </linearGradient>
    <linearGradient
       inkscape:collect="always"
       xlink:href="#linearGradient1"
       id="linearGradient2"
       x1="31"
       y1="58.017544"
       x2="29.9"
       y2="0"
       gradientUnits="userSpaceOnUse" />
  </defs>
  <sodipodi:namedview
     id="namedview9"
     pagecolor="#ffffff"
     bordercolor="#000000"
     borderopacity="0.25"
     inkscape:showpageshadow="2"
     inkscape:pageopacity="0.0"
     inkscape:pagecheckerboard="0"
     inkscape:deskcolor="#d1d1d1"
     inkscape:zoom="7.0710678"
     inkscape:cx="-4.0305087"
     inkscape:cy="37.54737"
     inkscape:window-width="1920"
     inkscape:window-height="996"
     inkscape:window-x="0"
     inkscape:window-y="0"
     inkscape:window-maximized="1"
     inkscape:current-layer="svg9" />
  <rect
     style="opacity:0.2;stroke-width:0.9823"
     width="55"
     height="55.017544"
     x="3.5"
     y="3.9824562"
     ry="8.2526312"
     id="rect1" />
  <rect
     style="fill:url(#linearGradient2);fill-opacity:1;stroke-width:0.9823"
     width="55"
     height="55.017544"
     x="3.5"
     y="3"
     ry="8.2526312"
     id="rect2" />
  <path
     style="opacity:0.1;fill:#ffffff;stroke-width:0.9823"
     d="M 11.748466,3 C 7.1779651,3 3.4999999,6.6791384 3.4999999,11.251097 v 0.982456 c 0,-4.5719585 3.6779652,-8.2510968 8.2484661,-8.2510968 h 38.503068 c 4.5705,0 8.248466,3.6791383 8.248466,8.2510968 V 11.251097 C 58.5,6.6791384 54.822034,3 50.251534,3 Z"
     id="path9" />
  <g
     id="g1"
     transform="matrix(0.73999993,0,0,0.7368421,60.797375,5.7292311)">
    <circle
       cx="-48.61808"
       cy="10.796043"
       r="4"
       style="opacity:0.2"
       id="circle1" />
    <circle
       cx="-37.61808"
       cy="10.796043"
       r="4"
       style="opacity:0.2"
       id="circle2" />
    <circle
       cx="-27.61808"
       cy="12.796043"
       r="3"
       style="opacity:0.2"
       id="circle3" />
    <circle
       cx="-61.11808"
       cy="15.296043"
       r="5.5"
       style="opacity:0.2"
       id="circle4" />
    <path
       d="m -55.618081,28.796044 c -3.067119,-7.974508 11,-11 11,-11 0,0 14,-3 17,0 6,6 -3,5 0,14 3,9 11,5 11,14 0,9 -3,17 -11,17 -9,0 -14,-3 -14,-6 0,-9 3,-13 3,-19 0,-7 -12,4 -17,-9 z"
       style="opacity:0.2"
       id="path4-5" />
    <circle
       cx="-48.61808"
       cy="9.7960434"
       r="4"
       style="fill:#8ac246"
       id="circle5" />
    <circle
       cx="-37.61808"
       cy="9.7960434"
       r="4"
       style="fill:#8ac246"
       id="circle6" />
    <circle
       cx="-27.61808"
       cy="11.796043"
       r="3"
       style="fill:#8ac246"
       id="circle7" />
    <circle
       cx="-61.11808"
       cy="14.296043"
       r="5.5"
       style="fill:#8ac246"
       id="circle8" />
    <path
       d="m -55.618081,27.796044 c -3.067119,-7.974508 11,-11 11,-11 0,0 14,-3 17,0 6,6 -3,5 0,14 3,9 11,5 11,14 0,9 -3,17 -11,17 -9,0 -14,-3 -14,-6 0,-9 3,-13 3,-19 0,-7 -12,4 -17,-9 z"
       style="fill:#8ac246"
       id="path8" />
    <path
       d="m -48.618081,5.7960435 a 4,4 0 0 0 -4,4 4,4 0 0 0 0.03516,0.4941415 4,4 0 0 1 3.96484,-3.4941415 4,4 0 0 1 3.964844,3.5058595 4,4 0 0 0 0.03516,-0.5058595 4,4 0 0 0 -4,-4 z"
       style="opacity:0.2;fill:#ffffff"
       id="path9-6" />
    <path
       d="m -37.618081,5.7960435 a 4,4 0 0 0 -4,4 4,4 0 0 0 0.03516,0.4941415 4,4 0 0 1 3.964844,-3.4941415 4,4 0 0 1 3.964844,3.5058595 4,4 0 0 0 0.03516,-0.5058595 4,4 0 0 0 -4,-4 z"
       style="opacity:0.2;fill:#ffffff"
       id="path10" />
    <path
       d="m -27.618081,8.7960435 a 3,3 0 0 0 -3,3.0000005 3,3 0 0 0 0.04297,0.513672 3,3 0 0 1 2.95703,-2.5136725 3,3 0 0 1 2.957031,2.4863285 3,3 0 0 0 0.04297,-0.486328 3,3 0 0 0 -3,-3.0000005 z"
       style="opacity:0.2;fill:#ffffff"
       id="path11" />
    <path
       d="m -61.118081,8.7960435 a 5.5,5.5 0 0 0 -5.5,5.5000005 5.5,5.5 0 0 0 0.02539,0.486328 5.5,5.5 0 0 1 5.47461,-4.9863285 5.5,5.5 0 0 1 5.474609,5.0136725 5.5,5.5 0 0 0 0.02539,-0.513672 5.5,5.5 0 0 0 -5.499999,-5.5000005 z"
       style="opacity:0.2;fill:#ffffff"
       id="path12" />
    <path
       d="m -32.889565,15.465966 c -5.110596,-0.08862 -11.728516,1.330078 -11.728516,1.330078 0,0 -11.960806,2.57862 -11.408203,9.238281 0.637804,-5.921395 11.408203,-8.238281 11.408203,-8.238281 0,0 14,-3 17,0 1.324493,1.324493 1.891888,2.297904 2.044922,3.123047 0.245465,-1.033409 -0.151686,-2.229811 -2.044922,-4.123047 -0.9375,-0.9375 -2.948486,-1.289795 -5.271484,-1.330078 z m 4.667968,12.478516 c -0.06043,1.047606 0.08355,2.291651 0.603516,3.851562 2.96768,8.903039 10.815349,5.105443 10.984375,13.734375 0.0046,-0.245144 0.01563,-0.487582 0.01563,-0.734375 0,-9 -8,-5 -11,-14 -0.362936,-1.088807 -0.544033,-2.025371 -0.603516,-2.851562 z m -10.416015,9.509765 c -0.207305,5.642141 -2.980469,9.677302 -2.980469,18.341797 0,0.0547 0.01426,0.109376 0.01758,0.164062 0.180098,-8.408526 2.98242,-12.35628 2.98242,-18.164062 0,-0.123481 -0.01217,-0.229287 -0.01953,-0.341797 z"
       style="opacity:0.2;fill:#ffffff"
       id="path13" />
  </g>
</svg>
