<?xml version="1.0" encoding="UTF-8" standalone="no"?>
<svg
   width="62"
   height="62"
   version="1.1"
   id="svg7"
   sodipodi:docname="groovy.svg"
   inkscape:version="1.4 (unknown)"
   xmlns:inkscape="http://www.inkscape.org/namespaces/inkscape"
   xmlns:sodipodi="http://sodipodi.sourceforge.net/DTD/sodipodi-0.dtd"
   xmlns="http://www.w3.org/2000/svg"
   xmlns:svg="http://www.w3.org/2000/svg">
  <defs
     id="defs7" />
  <sodipodi:namedview
     id="namedview7"
     pagecolor="#ffffff"
     bordercolor="#000000"
     borderopacity="0.25"
     inkscape:showpageshadow="2"
     inkscape:pageopacity="0.0"
     inkscape:pagecheckerboard="0"
     inkscape:deskcolor="#d1d1d1"
     inkscape:zoom="12.078125"
     inkscape:cx="32"
     inkscape:cy="32"
     inkscape:window-width="1920"
     inkscape:window-height="996"
     inkscape:window-x="0"
     inkscape:window-y="0"
     inkscape:window-maximized="1"
     inkscape:current-layer="svg7" />
  <g
     id="g7"
     transform="translate(-0.5,-1)">
    <ellipse
       style="opacity:0.2;stroke-width:0.982302"
       cx="31.5"
       cy="32.491226"
       id="circle1"
       rx="27.5"
       ry="27.508774" />
    <ellipse
       style="fill:#008080;stroke-width:0.982302"
       cx="31.5"
       cy="31.508774"
       id="circle2"
       rx="27.5"
       ry="27.508774" />
    <ellipse
       style="opacity:0.1;stroke-width:0.982302"
       cx="31.5"
       cy="32.491226"
       id="circle3"
       rx="21.607134"
       ry="21.614027" />
    <ellipse
       style="fill:#00dede;stroke-width:0.982302;fill-opacity:1"
       cx="31.5"
       cy="31.508774"
       id="circle4"
       rx="21.607134"
       ry="21.614027" />
    <path
       style="opacity:0.2;fill:#ffffff;stroke-width:0.982302"
       d="m 46.231148,35.205745 c 0,4.602709 -1.15991,8.088168 -3.47963,10.456286 -2.318839,2.35298 -5.7917,3.53094 -10.415623,3.53094 -3.253841,0 -6.063746,-0.70835 -8.428749,-2.124069 -2.349282,-1.42947 -4.126963,-3.411088 -5.332049,-5.94287 -1.205095,-2.547509 -1.807144,-5.503719 -1.807144,-8.870597 0,-3.187679 0.631989,-6.025308 1.897304,-8.512888 1.265308,-2.487571 3.088055,-4.431461 5.468077,-5.831659 2.380718,-1.414739 5.136608,-2.121121 8.270619,-2.121121 3.449587,0 6.273927,0.87043 8.473244,2.613231 2.213745,1.74288 4.006161,4.261898 4.864548,7.211228 h -5.892849 c -0.556882,-1.370521 -1.683393,-2.675229 -2.993574,-3.56926 -1.311162,-0.894038 -2.82464,-1.343019 -4.54143,-1.343019 -2.771705,0 -5.151727,1.097209 -7.140072,3.286808 -1.988354,2.174761 -2.982577,4.922989 -2.982577,8.24477 l 1.89e-4,4.9e-4 c 0,2.234399 0.399173,4.260227 1.197528,6.077469 0.813409,1.802319 1.988346,3.247219 3.524905,4.334599 1.551495,1.08738 3.336536,1.634809 5.355139,1.634809 1.581637,0 2.982569,-0.197379 4.20268,-0.58466 1.235246,-0.402189 2.244493,-1.04268 3.027753,-1.921589 0.798485,-0.89403 1.28661,-2.1221 1.331785,-3.388489 h -5.401785 v -4.912279 h 10.803571"
       id="path4" />
    <path
       style="fill:#008080;stroke-width:0.982302"
       d="m 46.231148,34.223294 c 0,4.602709 -1.15991,8.088168 -3.47963,10.456278 -2.318839,2.35298 -5.7917,3.530949 -10.415623,3.530949 -3.253841,0 -6.063746,-0.70835 -8.428749,-2.12407 -2.349282,-1.429479 -4.126963,-3.411089 -5.332049,-5.942878 -1.205095,-2.547509 -1.807144,-5.503719 -1.807144,-8.870598 0,-3.187671 0.631989,-6.0253 1.897304,-8.512879 1.265308,-2.48758 3.088055,-4.431468 5.468077,-5.831659 2.380718,-1.41474 5.136608,-2.121128 8.270619,-2.121128 3.449587,0 6.273927,0.870428 8.473244,2.613238 2.213745,1.742871 4.006161,4.26189 4.864548,7.211228 h -5.892849 c -0.556882,-1.370529 -1.683393,-2.675229 -2.993574,-3.569267 -1.311162,-0.894032 -2.82464,-1.34302 -4.54143,-1.34302 -2.771705,0 -5.151727,1.09721 -7.140072,3.286809 -1.988354,2.174768 -2.982577,4.922989 -2.982577,8.244768 l 1.89e-4,4.94e-4 c 0,2.2344 0.399173,4.260225 1.197528,6.077475 0.813409,1.80231 1.988346,3.247209 3.524905,4.334598 1.551495,1.08738 3.336536,1.634801 5.355139,1.634801 1.581637,0 2.982569,-0.197371 4.20268,-0.58466 1.235246,-0.402189 2.244493,-1.04268 3.027753,-1.92158 0.798485,-0.89404 1.28661,-2.122109 1.331785,-3.388491 h -5.401785 v -4.912287 h 10.803571"
       id="path5" />
    <path
       style="opacity:0.2;fill:#ffffff;stroke-width:0.982302"
       d="M 31.499991,9.8947358 A 21.607141,21.614035 0 0 0 9.8928557,31.508765 21.607141,21.614035 0 0 0 9.9134798,32.084485 21.607141,21.614035 0 0 1 31.499991,10.877189 21.607141,21.614035 0 0 1 53.086508,31.915505 21.607141,21.614035 0 0 0 53.107126,31.508765 21.607141,21.614035 0 0 0 31.499991,9.8947358 Z"
       id="path6" />
    <path
       style="opacity:0.1;fill:#ffffff;stroke-width:0.982302"
       d="M 31.499991,4 A 27.499991,27.508765 0 0 0 4,31.508765 27.499991,27.508765 0 0 0 4.0211163,32.084485 27.499991,27.508765 0 0 1 31.499991,4.9824558 27.499991,27.508765 0 0 1 58.979359,31.915505 27.499991,27.508765 0 0 0 58.999982,31.508765 27.499991,27.508765 0 0 0 31.499991,4 Z"
       id="path7" />
  </g>
</svg>
