<?xml version="1.0" encoding="UTF-8" standalone="no"?>
<svg
   width="62"
   height="62"
   version="1.1"
   id="svg8"
   sodipodi:docname="gtimelog.svg"
   inkscape:version="1.4 (unknown)"
   xmlns:inkscape="http://www.inkscape.org/namespaces/inkscape"
   xmlns:sodipodi="http://sodipodi.sourceforge.net/DTD/sodipodi-0.dtd"
   xmlns:xlink="http://www.w3.org/1999/xlink"
   xmlns="http://www.w3.org/2000/svg"
   xmlns:svg="http://www.w3.org/2000/svg">
  <defs
     id="defs8">
    <linearGradient
       id="linearGradient8"
       inkscape:collect="always">
      <stop
         style="stop-color:#d7cec5;stop-opacity:1;"
         offset="0"
         id="stop8" />
      <stop
         style="stop-color:#ac9986;stop-opacity:1;"
         offset="1"
         id="stop9" />
    </linearGradient>
    <linearGradient
       id="paint188_linear_890_11"
       x1="385"
       y1="782.52899"
       x2="381"
       y2="782.52899"
       gradientUnits="userSpaceOnUse"
       gradientTransform="translate(-350,-704.54334)">
      <stop
         offset="0.25254199"
         stop-color="#71706E"
         id="stop1118"
         style="stop-color:#a7a6a4;stop-opacity:1;" />
      <stop
         offset="1"
         stop-color="#B9AA99"
         id="stop1119"
         style="stop-color:#d6cdc2;stop-opacity:1;" />
    </linearGradient>
    <linearGradient
       id="paint189_linear_890_11"
       x1="392.53299"
       y1="795.03198"
       x2="389.30399"
       y2="798.26001"
       gradientUnits="userSpaceOnUse"
       gradientTransform="translate(-350,-704.54334)">
      <stop
         offset="0.25254199"
         stop-color="#71706E"
         id="stop1120"
         style="stop-color:#a7a7a5;stop-opacity:1;" />
      <stop
         offset="1"
         stop-color="#B9AA99"
         id="stop1121"
         style="stop-color:#d7cec5;stop-opacity:1;" />
    </linearGradient>
    <linearGradient
       id="paint190_linear_890_11"
       x1="365"
       y1="778"
       x2="375.836"
       y2="795.15601"
       gradientUnits="userSpaceOnUse"
       gradientTransform="translate(-350,-704.54334)">
      <stop
         stop-color="#F15700"
         id="stop1122" />
      <stop
         offset="1"
         stop-color="#FF0000"
         id="stop1123" />
    </linearGradient>
    <linearGradient
       id="paint191_linear_890_11"
       x1="380"
       y1="786"
       x2="386"
       y2="792"
       gradientUnits="userSpaceOnUse"
       gradientTransform="translate(-350,-704.54334)">
      <stop
         stop-color="white"
         id="stop1124" />
      <stop
         offset="0.705"
         stop-color="#EAEFEF"
         id="stop1125" />
    </linearGradient>
    <linearGradient
       id="paint192_linear_890_11"
       x1="382"
       y1="788"
       x2="384"
       y2="790"
       gradientUnits="userSpaceOnUse"
       gradientTransform="translate(-350,-704.54334)">
      <stop
         stop-color="#F15700"
         id="stop1126" />
      <stop
         offset="1"
         stop-color="#FF0000"
         id="stop1127" />
    </linearGradient>
    <linearGradient
       inkscape:collect="always"
       xlink:href="#linearGradient2"
       id="linearGradient19"
       x1="18.5"
       y1="30.479174"
       x2="18.5"
       y2="26.479174"
       gradientUnits="userSpaceOnUse"
       gradientTransform="matrix(0.53807478,0,0,0.53551915,13.502044,32.784424)" />
    <linearGradient
       id="linearGradient2"
       inkscape:collect="always">
      <stop
         style="stop-color:#b7c6cd;stop-opacity:1;"
         offset="0"
         id="stop11" />
      <stop
         style="stop-color:#f0f2f5;stop-opacity:1;"
         offset="1"
         id="stop12" />
    </linearGradient>
    <linearGradient
       inkscape:collect="always"
       xlink:href="#linearGradient2"
       id="linearGradient17"
       x1="27"
       y1="38.479176"
       x2="27"
       y2="34.479176"
       gradientUnits="userSpaceOnUse"
       gradientTransform="matrix(0.53807478,0,0,0.53551915,13.502044,32.784424)" />
    <linearGradient
       inkscape:collect="always"
       xlink:href="#linearGradient8"
       id="linearGradient9"
       x1="38.478001"
       y1="92.978661"
       x2="42.243984"
       y2="88.674767"
       gradientUnits="userSpaceOnUse" />
    <linearGradient
       inkscape:collect="always"
       xlink:href="#linearGradient8"
       id="linearGradient13"
       x1="31"
       y1="77.456665"
       x2="35"
       y2="77.456665"
       gradientUnits="userSpaceOnUse" />
  </defs>
  <sodipodi:namedview
     id="namedview8"
     pagecolor="#ffffff"
     bordercolor="#000000"
     borderopacity="0.25"
     inkscape:showpageshadow="2"
     inkscape:pageopacity="0.0"
     inkscape:pagecheckerboard="0"
     inkscape:deskcolor="#d1d1d1"
     inkscape:zoom="8.5405241"
     inkscape:cx="32.375062"
     inkscape:cy="28.276953"
     inkscape:window-width="1920"
     inkscape:window-height="996"
     inkscape:window-x="0"
     inkscape:window-y="0"
     inkscape:window-maximized="1"
     inkscape:current-layer="svg8" />
  <g
     id="g13"
     transform="translate(1.25,1)">
    <path
       style="opacity:0.2;fill-rule:evenodd;stroke-width:0.920226"
       d="M 56.5,29.540988 C 56.5,44.245017 44.522993,56.163939 29.75,56.163939 14.975786,56.163939 3,44.243816 3,29.540988 3,14.836944 14.97701,2.9180337 29.75,2.9180337 c 14.774216,0 26.75,11.9201293 26.75,26.6229543"
       id="path1" />
    <path
       style="fill:#2d3c53;fill-opacity:1;fill-rule:evenodd;stroke-width:0.920226"
       d="M 56.5,28.62295 C 56.5,43.326996 44.522993,55.2459 29.75,55.2459 14.975786,55.2459 3,43.325778 3,28.62295 3,13.918906 14.97701,2.0000002 29.75,2.0000002 c 14.774216,0 26.75,11.9201248 26.75,26.6229498"
       id="path2" />
    <ellipse
       style="opacity:0.2;stroke-width:0.920226"
       cx="29.750004"
       cy="24.032778"
       id="circle2"
       rx="15.68105"
       ry="15.606573" />
    <ellipse
       style="fill:#ffffff;stroke-width:0.920226"
       cx="29.750004"
       cy="23.114759"
       id="circle3"
       rx="15.68105"
       ry="15.606573" />
    <path
       style="fill:#2d3c53;fill-opacity:1;stroke:#516c95;stroke-width:5.52128;stroke-linecap:round;stroke-linejoin:round;stroke-opacity:1"
       d="m 16.375001,39.639347 c 0,0 4.012493,5.324592 13.374999,5.324592 9.362506,0 13.090294,-5.324592 13.090294,-5.324592"
       id="path5" />
    <path
       style="opacity:0.2;stroke-width:0.920226"
       d="m 43.586209,39.907188 c -0.131513,0.0674 -0.265503,0.123355 -0.397249,0.189791 -2.493105,2.301368 -6.884797,5.142577 -13.43896,5.142577 -6.75278,0 -11.313773,-2.991048 -13.836209,-5.303767 V 52.675406 C 15.913791,55.625238 18.382167,58 21.448274,58 h 16.603452 c 3.066107,0 5.534483,-2.374762 5.534483,-5.324594 z"
       id="path6" />
    <path
       style="fill:#ff944c;stroke-width:0.920226;fill-opacity:1"
       d="m 43.586209,38.989149 c -0.131513,0.0674 -0.265503,0.123371 -0.397249,0.189791 -2.493105,2.301369 -6.884797,5.142602 -13.43896,5.142602 -6.75278,0 -11.313773,-2.991072 -13.836209,-5.303791 v 12.739634 c 0,2.949815 2.468376,5.324577 5.534483,5.324577 h 16.603452 c 3.066107,0 5.534483,-2.374762 5.534483,-5.324577 z"
       id="path7" />
    <path
       style="opacity:0.1;fill:#ffffff;fill-rule:evenodd;stroke-width:0.920226"
       d="M 29.75,2 C 14.97701,2 3,13.918906 3,28.62295 3,28.724661 3.010587,28.82389 3.016209,28.924178 3.3467402,14.506105 15.184888,2.9180335 29.75,2.9180335 c 14.566319,0 26.403291,11.5892055 26.73379,26.0061445 0.0058,-0.100288 0.01619,-0.199508 0.01619,-0.301228 C 56.5,13.920125 44.524216,2 29.75,2 Z"
       id="path8" />
    <g
       id="g8"
       transform="matrix(0.57650868,0,0,0.57377053,10.379258,-25.343981)">
      <path
         d="m 31,70.574662 c 0,-1.17 0.895,-2.118 2,-2.118 1.105,0 2,0.948 2,2.118 v 13.764 c 0,1.17 -0.895,2.118 -2,2.118 -1.105,0 -2,-0.948 -2,-2.118 z"
         id="path186"
         style="fill:url(#linearGradient13)"
         sodipodi:nodetypes="sssssss" />
      <path
         d="m 31.63,83.086662 c -0.84,0.841 -0.84,2.203 0,3.044 l 13.696,13.696 c 0.841,0.839998 2.203,0.839998 3.044,0 0.84,-0.841 0.84,-2.203 0,-3.044 l -13.696,-13.696 c -0.841,-0.84 -2.203,-0.84 -3.044,0 z"
         id="path187"
         style="fill:url(#linearGradient9)"
         sodipodi:nodetypes="ccccccc" />
      <path
         d="m 15.138,73.978662 c 0.284,-0.499 0.914,-0.67 1.406,-0.382 l 16.941,9.913 c 0.492,0.288 0.661,0.926 0.377,1.425 -0.284,0.499 -0.914,0.67 -1.406,0.382 l -16.941,-9.913 c -0.492,-0.288 -0.661,-0.926 -0.377,-1.425 z"
         id="path188"
         style="fill:#c83771;fill-opacity:1" />
      <path
         d="m 36,84.456662 c 0,1.657 -1.343,3 -3,3 -1.657,0 -3,-1.343 -3,-3 0,-1.657 1.343,-3 3,-3 1.657,0 3,1.343 3,3 z"
         id="path189"
         style="fill:#2d3c53;fill-opacity:1" />
      <path
         d="m 34,84.456662 c 0,0.552 -0.448,1 -1,1 -0.552,0 -1,-0.448 -1,-1 0,-0.552 0.448,-1 1,-1 0.552,0 1,0.448 1,1 z"
         id="path190"
         style="fill:#c83771;fill-opacity:1" />
    </g>
    <path
       d="m 19.42087,48.035563 c 0,-0.591758 0.481576,-1.071048 1.07616,-1.071048 h 5.918824 c 0.594567,0 1.07614,0.47929 1.07614,1.071048 0,0.591743 -0.481573,1.071033 -1.07614,1.071033 H 20.49703 c -0.594584,0 -1.07616,-0.47929 -1.07616,-1.071033 z"
       id="path527"
       style="fill:url(#linearGradient19);stroke-width:0.536801" />
    <path
       d="m 19.42087,52.319705 c 0,-0.591743 0.481576,-1.071033 1.07616,-1.071033 h 15.066092 c 0.594569,0 1.076141,0.47929 1.076141,1.071033 0,0.591758 -0.481572,1.071048 -1.076141,1.071048 H 20.49703 c -0.594584,0 -1.07616,-0.47929 -1.07616,-1.071048 z"
       id="path528"
       style="fill:url(#linearGradient17);stroke-width:0.536801" />
  </g>
</svg>
