<?xml version="1.0" encoding="UTF-8" standalone="no"?>
<svg
   width="62"
   height="62"
   version="1.1"
   id="svg7"
   sodipodi:docname="guitar.svg"
   inkscape:version="1.4 (unknown)"
   xmlns:inkscape="http://www.inkscape.org/namespaces/inkscape"
   xmlns:sodipodi="http://sodipodi.sourceforge.net/DTD/sodipodi-0.dtd"
   xmlns="http://www.w3.org/2000/svg"
   xmlns:svg="http://www.w3.org/2000/svg">
  <defs
     id="defs7" />
  <sodipodi:namedview
     id="namedview7"
     pagecolor="#ffffff"
     bordercolor="#000000"
     borderopacity="0.25"
     inkscape:showpageshadow="2"
     inkscape:pageopacity="0.0"
     inkscape:pagecheckerboard="0"
     inkscape:deskcolor="#d1d1d1"
     inkscape:zoom="5"
     inkscape:cx="38"
     inkscape:cy="60.3"
     inkscape:window-width="1920"
     inkscape:window-height="996"
     inkscape:window-x="0"
     inkscape:window-y="0"
     inkscape:window-maximized="1"
     inkscape:current-layer="svg7" />
  <g
     id="g7"
     transform="translate(-0.49999993,-0.99996653)">
    <path
       style="opacity:0.2;stroke-width:0.982303"
       d="m 51.810901,4.9823896 -9.353615,9.3459874 c -3.224324,-2.99199 -4.951791,-3.89554 -8.475453,-3.332345 -2.977493,0.475196 -4.809874,2.575444 -5.814118,5.567434 -1.004419,2.991991 -0.844207,3.606489 -2.34176,4.803289 -2.466564,1.971194 -7.365554,1.058198 -11.399976,2.114198 -4.5807559,1.196793 -8.6695308,5.312852 -9.920255,10.20564 -1.6208837,6.247983 0.7047758,11.388329 6.25454,17.284311 5.179788,5.508783 10.958072,9.046597 16.06738,9.028997 4.756944,0 10.061375,-2.746511 13.250286,-7.744897 2.114197,-3.30879 1.090827,-11.651372 2.782185,-13.816165 2.448943,-3.132792 7.410636,-2.200252 8.696951,-4.752246 1.162631,-2.305596 0.600602,-4.767192 -1.460918,-5.770392 -1.268339,-0.615996 -2.61973,-0.757486 -3.465586,-1.10948 -0.6517,-0.264004 -1.144851,-1.004382 -1.074203,-1.901975 L 59,11.459306 C 58.848347,9.5380969 58.176929,8.2110899 57.133565,6.8912124 55.841762,5.6234878 54.010252,5.1940502 52.482281,4.9823896 Z"
       id="path1" />
    <path
       style="fill:#2a7fff;stroke-width:0.982303"
       d="m 51.810901,3.9999667 -9.353615,9.3459943 c -3.224324,-2.99199 -4.951791,-3.8955494 -8.475453,-3.332354 -2.977493,0.475204 -4.809874,2.575444 -5.814118,5.567439 -1.004419,2.991995 -0.844207,3.606483 -2.34176,4.803284 -2.466564,1.971193 -7.365554,1.058204 -11.399976,2.114202 -4.5807559,1.196797 -8.6695308,5.312855 -9.920255,10.20564 -1.6208837,6.247982 0.7047758,11.388325 6.25454,17.28431 5.179788,5.508784 10.958072,9.046597 16.06738,9.028997 4.756944,0 10.061375,-2.746511 13.250286,-7.744896 2.114197,-3.308793 1.090827,-11.651371 2.782185,-13.816167 2.448943,-3.132789 7.410636,-2.200252 8.696951,-4.752244 1.162631,-2.305593 0.600602,-4.767195 -1.460918,-5.77039 -1.268339,-0.615996 -2.61973,-0.75749 -3.465586,-1.109485 -0.6517,-0.264003 -1.144851,-1.004378 -1.074203,-1.901975 L 59,10.476881 C 58.848347,8.5556742 58.176929,7.2286673 57.133565,5.9087898 55.841762,4.6410652 54.010252,4.2116273 52.482281,3.9999667 Z"
       id="path2" />
    <path
       style="opacity:0.2;stroke-width:0.982303"
       d="m 55.902029,5.9975309 -35.265063,35.2762961 2.083213,2.083879 8.779819,-8.782614 v 13.635409 h 2.94643 V 31.627727 L 57.95839,8.1082755 C 57.715624,7.693307 57.447867,7.2893425 57.133544,6.8917193 56.762004,6.5271047 56.342798,6.2382199 55.902029,5.9975309 Z"
       id="path3" />
    <path
       style="fill:#f2f2f2;stroke-width:0.982303;fill-opacity:1"
       d="m 55.902029,5.0150755 -35.265063,35.2762965 2.083213,2.08388 8.779819,-8.782615 v 13.635408 h 2.94643 V 30.645268 L 57.95839,7.1258198 C 57.715624,6.7108512 57.447867,6.306887 57.133544,5.9092635 56.762004,5.5446487 56.342798,5.2557645 55.902029,5.0150755 Z"
       id="path4" />
    <path
       style="opacity:0.2;stroke-width:0.982303"
       d="m 32.973216,26.596477 a 4.4196429,4.4210501 0 0 0 -4.419647,4.421049 4.4196429,4.4210501 0 0 0 4.419647,4.421052 4.4196429,4.4210501 0 0 0 4.419642,-4.421052 4.4196429,4.4210501 0 0 0 -4.419642,-4.421049 z M 22.169644,37.40349 a 4.4196429,4.4210501 0 0 0 -4.419641,4.421048 4.4196429,4.4210501 0 0 0 4.419641,4.421051 4.4196429,4.4210501 0 0 0 4.419641,-4.421051 4.4196429,4.4210501 0 0 0 -4.419641,-4.421048 z m 10.803572,5.894733 a 4.4196429,4.4210501 0 0 0 -4.419647,4.42105 4.4196429,4.4210501 0 0 0 4.419647,4.421049 4.4196429,4.4210501 0 0 0 4.419642,-4.421049 4.4196429,4.4210501 0 0 0 -4.419642,-4.42105 z"
       id="path5" />
    <ellipse
       style="fill:#f2f2f2;stroke-width:0.982303;fill-opacity:1"
       cx="22.169649"
       cy="40.842094"
       id="circle5"
       rx="4.4196439"
       ry="4.421051" />
    <ellipse
       style="fill:#f2f2f2;stroke-width:0.982303;fill-opacity:1"
       cx="32.973217"
       cy="46.736809"
       id="circle6"
       rx="4.4196439"
       ry="4.421051" />
    <ellipse
       style="fill:#f2f2f2;stroke-width:0.982303;fill-opacity:1"
       cx="32.973217"
       cy="30.035069"
       id="circle7"
       rx="4.4196439"
       ry="4.421051" />
    <path
       style="opacity:0.2;fill:#ffffff;stroke-width:0.982303"
       d="m 51.810407,3.999999 -9.353375,9.346758 c -3.224326,-2.991991 -4.951158,-3.8962533 -8.474821,-3.333056 -2.977491,0.475204 -4.809967,2.574622 -5.814208,5.566611 -1.004421,2.991991 -0.844625,3.608022 -2.342179,4.804822 -2.466563,1.971194 -7.365733,1.056666 -11.400146,2.11266 -4.58076,1.196797 -8.6685369,5.313625 -9.9192605,10.20641 -0.3806022,1.4671 -0.5363133,2.871599 -0.4910714,4.240679 0.041374,-1.05812 0.2009269,-2.139809 0.4910714,-3.258223 1.2507236,-4.892788 5.3385005,-9.00961 9.9192605,-10.206407 4.034413,-1.055999 8.933583,-0.141474 11.400146,-2.112668 1.497554,-1.196796 1.337758,-1.812825 2.342179,-4.804822 1.004241,-2.99199 2.836717,-5.091408 5.814208,-5.566603 3.523663,-0.563199 5.250495,0.341065 8.474821,3.333056 l 9.353375,-9.3467607 h 0.671386 c 1.527973,0.2116607 3.359948,0.6415394 4.651751,1.909264 0.877633,1.1102231 1.48804,2.2298491 1.75136,3.6995607 L 59,10.476144 C 58.848347,8.5549392 58.176908,7.2291411 57.133544,5.9092635 55.841741,4.6415388 54.009766,4.2116606 52.481793,3.999999 Z m -6.123047,20.77356 -0.130441,0.130483 c -0.07061,0.897597 0.422519,1.63951 1.07422,1.903509 0.845856,0.351999 2.196014,0.493106 3.464354,1.109103 1.209202,0.588434 1.887956,1.683119 2.019915,2.949283 0.192512,-1.670272 -0.506072,-3.195056 -2.019915,-3.93174 C 48.827153,26.3182 47.476995,26.177093 46.631139,25.825098 46.205358,25.652616 45.864772,25.26372 45.68736,24.773559 Z"
       id="path7" />
  </g>
</svg>
