<?xml version="1.0" encoding="UTF-8" standalone="no"?>
<svg
   width="62"
   height="62"
   version="1.1"
   id="svg29"
   sodipodi:docname="hakuneko-desktop.svg"
   inkscape:version="1.4 (unknown)"
   xmlns:inkscape="http://www.inkscape.org/namespaces/inkscape"
   xmlns:sodipodi="http://sodipodi.sourceforge.net/DTD/sodipodi-0.dtd"
   xmlns:xlink="http://www.w3.org/1999/xlink"
   xmlns="http://www.w3.org/2000/svg"
   xmlns:svg="http://www.w3.org/2000/svg">
  <defs
     id="defs29">
    <linearGradient
       id="linearGradient29"
       inkscape:collect="always">
      <stop
         style="stop-color:#2d3d53;stop-opacity:1;"
         offset="0"
         id="stop29" />
      <stop
         style="stop-color:#ffcaab;stop-opacity:1;"
         offset="1"
         id="stop30" />
    </linearGradient>
    <linearGradient
       inkscape:collect="always"
       xlink:href="#linearGradient29"
       id="linearGradient30"
       x1="30.782633"
       y1="60"
       x2="30.193521"
       y2="5"
       gradientUnits="userSpaceOnUse"
       gradientTransform="matrix(0.98214286,0,0,0.98245614,-0.42857152,-0.92982455)" />
  </defs>
  <sodipodi:namedview
     id="namedview29"
     pagecolor="#ffffff"
     bordercolor="#000000"
     borderopacity="0.25"
     inkscape:showpageshadow="2"
     inkscape:pageopacity="0.0"
     inkscape:pagecheckerboard="0"
     inkscape:deskcolor="#d1d1d1"
     inkscape:zoom="7.0710678"
     inkscape:cx="20.364675"
     inkscape:cy="25.385133"
     inkscape:window-width="1920"
     inkscape:window-height="996"
     inkscape:window-x="0"
     inkscape:window-y="0"
     inkscape:window-maximized="1"
     inkscape:current-layer="svg29" />
  <rect
     style="opacity:0.2;stroke-width:0.9823"
     width="55"
     height="55.017544"
     x="3.5"
     y="3.9824562"
     ry="13.754386"
     id="rect1" />
  <rect
     style="fill:url(#linearGradient30);stroke-width:0.9823"
     width="55"
     height="55.017544"
     x="3.5"
     y="3"
     ry="13.754386"
     id="rect2" />
  <path
     style="opacity:0.1;fill:#ffffff;stroke-width:0.9823"
     d="M 17.25,3 C 9.6324999,3 3.4999999,9.1344561 3.4999999,16.754386 v 0.982456 c 0,-7.61993 6.1325,-13.7543858 13.7500001,-13.7543858 h 27.5 c 7.6175,0 13.75,6.1344558 13.75,13.7543858 V 16.754386 C 58.5,9.1344561 52.3675,3 44.75,3 Z"
     id="path28" />
  <g
     id="g1"
     transform="translate(11,5.5)">
    <path
       style="opacity:0.2"
       d="m 3,35 c 0,0 2,3 9,6 7.283,3.121 13,6 23,6 3,0 4,-4 4,-4 L 35,30 20,19 4,13 2,19 1,29 Z"
       id="path2" />
    <path
       style="fill:#ffffff"
       d="m 3,34 c 0,0 2,3 9,6 7.283,3.121 13,6 23,6 3,0 4,-4 4,-4 L 35,29 20,18 4,12 2,18 1,28 Z"
       id="path3" />
    <path
       style="fill:#54116e"
       d="M 15.803,17.273 A 11,13 0 0 0 11,28 a 11,13 0 0 0 0.035,0.842 l 20.244,6.133 A 11,13 0 0 0 33,28 11,13 0 0 0 32.986,27.535 L 24,21 Z"
       id="path4" />
    <path
       style="opacity:0.1"
       d="M 3,36 C 3,36 2,30 2,26 2,20 4,16 4,16 c 0,0 8.293,1.453 18,7 7,4 13,9 13,9 l 4,12 v -7 l 4,3 C 43,40 40,32 38,30 32,24 29,23 21,18 11.827,12.267 -3,5 -3,5 l 4,7 -2,-1 1,3 v 12 c 0,4 3,10 3,10 z"
       id="path5" />
    <path
       style="fill:#2d3d53;fill-opacity:1"
       d="M 3,35 C 3,35 2,29 2,25 2,19 4,15 4,15 c 0,0 8.293,1.453 18,7 7,4 13,9 13,9 l 4,12 v -7 l 4,3 C 43,39 40,31 38,29 32,23 29,22 21,17 11.827,11.267 -3,4 -3,4 l 4,7 -2,-1 1,3 v 12 c 0,4 3,10 3,10 z"
       id="path6" />
    <path
       style="fill:#6b5ca7"
       d="m 17,28 a 15,10 0 0 0 -5.965,0.838 11,13 0 0 0 0.363,2.574 l 17.426,6.764 A 11,13 0 0 0 31.279,34.975 15,10 0 0 0 17,28 Z"
       id="path7" />
    <path
       style="fill:#86bdcd"
       d="M 15.5,31 A 13.5,8.5 0 0 0 11.398,31.412 11,13 0 0 0 22,41 11,13 0 0 0 28.826,38.176 13.5,8.5 0 0 0 15.5,31 Z"
       id="path8" />
    <path
       style="fill:#b8d8e2"
       d="m 22,36 c 0,0 6,-3 6,-7 0,0 0,-3 -3,-3 -2,0 -3,3 -3,3 0,0 -1,-3 -3,-3 -3,0 -3,3 -3,3 0,4 6,7 6,7 z"
       id="path9" />
    <ellipse
       style="fill:#ffffff"
       cx="13"
       cy="25"
       rx="7"
       ry="4"
       id="ellipse9" />
  </g>
</svg>
