<?xml version="1.0" encoding="UTF-8" standalone="no"?>
<svg
   height="62"
   width="62"
   version="1.1"
   id="svg61"
   sodipodi:docname="hex-editor.svg"
   inkscape:version="1.4 (unknown)"
   xmlns:inkscape="http://www.inkscape.org/namespaces/inkscape"
   xmlns:sodipodi="http://sodipodi.sourceforge.net/DTD/sodipodi-0.dtd"
   xmlns:xlink="http://www.w3.org/1999/xlink"
   xmlns="http://www.w3.org/2000/svg"
   xmlns:svg="http://www.w3.org/2000/svg">
  <defs
     id="defs61">
    <linearGradient
       id="linearGradient61"
       inkscape:collect="always">
      <stop
         style="stop-color:#232f41;stop-opacity:1;"
         offset="0"
         id="stop61" />
      <stop
         style="stop-color:#2d3d53;stop-opacity:1;"
         offset="1"
         id="stop62" />
    </linearGradient>
    <linearGradient
       inkscape:collect="always"
       xlink:href="#linearGradient61"
       id="linearGradient62"
       x1="406.20645"
       y1="542.16498"
       x2="406.40604"
       y2="507.03659"
       gradientUnits="userSpaceOnUse"
       gradientTransform="matrix(1.25,0,0,1.2596851,-479.88804,-629.83176)" />
  </defs>
  <sodipodi:namedview
     id="namedview61"
     pagecolor="#ffffff"
     bordercolor="#000000"
     borderopacity="0.25"
     inkscape:showpageshadow="2"
     inkscape:pageopacity="0.0"
     inkscape:pagecheckerboard="0"
     inkscape:deskcolor="#d1d1d1"
     inkscape:zoom="11.313709"
     inkscape:cx="27.621359"
     inkscape:cy="30.007844"
     inkscape:window-width="1920"
     inkscape:window-height="996"
     inkscape:window-x="0"
     inkscape:window-y="0"
     inkscape:window-maximized="1"
     inkscape:current-layer="svg61" />
  <linearGradient
     id="a"
     gradientTransform="matrix(1.0909091,0,0,1.0652838,-37.003895,-35.003639)"
     gradientUnits="userSpaceOnUse"
     x1="409.57144"
     x2="409.57144"
     y1="542.79797"
     y2="507.798">
    <stop
       offset="0"
       stop-color="#2a2c2f"
       id="stop1" />
    <stop
       offset="1"
       stop-color="#424649"
       id="stop2" />
  </linearGradient>
  <rect
     fill-opacity="0.666667"
     height="45.625347"
     ry="2.1470752"
     width="60"
     x="0.99998337"
     y="8.8746614"
     id="rect2"
     style="fill:#3f5473;fill-opacity:1;stroke-width:1.25483" />
  <path
     d="m 6.8811725,22.228064 q 0.6875,0 1.04375,0.579455 0.3625,0.573157 0.3625,1.656486 0,1.089627 -0.3625,1.669083 -0.35625,0.573156 -1.04375,0.573156 -0.6875,0 -1.05,-0.573156 -0.35625,-0.579456 -0.35625,-1.669083 0,-1.083329 0.35625,-1.656486 0.3625,-0.579455 1.05,-0.579455 z m 0,0.428293 q -0.8625,0 -0.8625,1.807648 0,1.820245 0.8625,1.820245 0.8625,0 0.8625,-1.820245 0,-1.807648 -0.8625,-1.807648 z m 0,1.39825 q 0.175,0 0.29375,0.11967 0.11875,0.11967 0.11875,0.289728 0,0.176356 -0.11875,0.296026 -0.11875,0.11967 -0.29375,0.11967 -0.175,0 -0.29375,-0.11967 -0.1125,-0.11967 -0.1125,-0.296026 0,-0.170058 0.1125,-0.289728 0.11875,-0.11967 0.29375,-0.11967 z"
     id="path2"
     style="fill-opacity:0.666667;stroke-width:1.25483;fill:#55d400" />
  <path
     d="M 10.322485,24.885999 9.253735,23.32399 h 0.6125 l 0.76875,1.234491 0.775,-1.234491 h 0.59375 l -1.0625,1.536816 1.2125,1.776156 h -0.6375 l -0.90625,-1.423445 -0.9125,1.423445 h -0.59375 z"
     id="path3"
     style="fill-opacity:0.666667;stroke-width:1.25483;fill:#55d400" />
  <path
     d="m 18.99261,25.578826 v 1.058136 h -0.50625 v -1.058136 h -1.7875 v -0.377905 l 1.26875,-2.972857 0.43125,0.188952 -1.15,2.746114 h 1.24375 l 0.04375,-1.234491 h 0.45625 v 1.234491 h 0.55625 v 0.415696 z"
     id="path4"
     style="fill-opacity:0.666667;stroke-width:1.25483;fill:#55d400" />
  <path
     d="m 22.23391,22.228064 q 0.40625,0 0.6875,0.107073 0.2875,0.100775 0.55625,0.314921 l -0.3,0.352712 q -0.3875,-0.32122 -0.90625,-0.32122 -0.5875,0 -0.95625,0.428293 -0.3625,0.421995 -0.3625,1.354162 0,0.91957 0.35625,1.354161 0.3625,0.428293 0.95625,0.428293 0.325,0 0.55625,-0.09448 0.2375,-0.100775 0.44375,-0.270833 l 0.275,0.359011 q -0.2125,0.207848 -0.53125,0.340115 -0.31875,0.125968 -0.75,0.125968 -0.53125,0 -0.95625,-0.258235 -0.41875,-0.264534 -0.6625,-0.768408 -0.24375,-0.503874 -0.24375,-1.215596 0,-0.705424 0.24375,-1.209298 0.25,-0.510172 0.66875,-0.768408 0.41875,-0.258235 0.925,-0.258235 z"
     id="path5"
     style="fill-opacity:0.666667;stroke-width:1.25483;fill:#55d400" />
  <path
     d="m 29.547785,23.815267 q 0.34375,0 0.61875,0.151162 0.275,0.151162 0.4375,0.459785 0.1625,0.302325 0.1625,0.749513 0,0.466083 -0.18125,0.818795 -0.175,0.346414 -0.4875,0.529068 -0.30625,0.182654 -0.68125,0.182654 -0.75,0 -1.0875,-0.547963 -0.3375,-0.547963 -0.3375,-1.568308 0,-0.71802 0.1875,-1.247088 0.19375,-0.535366 0.55,-0.825094 0.35625,-0.289727 0.85625,-0.289727 0.46875,0 0.85,0.258235 l -0.2,0.352712 q -0.30625,-0.182654 -0.65625,-0.182654 -0.49375,0 -0.775,0.472382 -0.28125,0.466083 -0.29375,1.272281 0.2,-0.308622 0.45625,-0.447188 0.25625,-0.138565 0.58125,-0.138565 z m -0.13125,2.468983 q 0.4,0 0.60625,-0.283429 0.2125,-0.289728 0.2125,-0.806199 0,-0.510172 -0.2,-0.730617 -0.19375,-0.220445 -0.5625,-0.220445 -0.3,0 -0.54375,0.163759 -0.2375,0.163759 -0.4125,0.453487 0.0125,0.743214 0.225,1.083329 0.2125,0.340115 0.675,0.340115 z"
     id="path6"
     style="fill-opacity:0.666667;stroke-width:1.25483;fill:#55d400" />
  <path
     d="m 34.470335,26.636962 h -2.48125 v -0.428293 h 1.0625 v -3.338166 l -0.9875,0.598351 -0.225,-0.371608 1.275,-0.793601 h 0.45625 v 3.905024 h 0.9 z"
     id="path7"
     style="fill-opacity:0.666667;stroke-width:1.25483;fill:#55d400" />
  <path
     d="m 40.41546,22.228064 q 0.4,0 0.6875,0.15746 0.29375,0.157461 0.45,0.434592 0.15625,0.27713 0.15625,0.623544 0,0.396801 -0.1875,0.774706 -0.18125,0.377906 -0.5875,0.837691 -0.40625,0.453486 -1.15,1.133716 h 2.025 l -0.0625,0.447189 h -2.55625 v -0.428293 q 0.85,-0.818796 1.25625,-1.272282 0.40625,-0.459785 0.5625,-0.787304 0.15625,-0.327518 0.15625,-0.692826 0,-0.365309 -0.20625,-0.573157 -0.2,-0.214147 -0.5625,-0.214147 -0.30625,0 -0.5125,0.107074 -0.20625,0.100775 -0.41875,0.352712 l -0.3625,-0.277131 q 0.2625,-0.32122 0.575,-0.472382 0.3125,-0.151162 0.7375,-0.151162 z"
     id="path8"
     style="fill-opacity:0.666667;stroke-width:1.25483;fill:#55d400" />
  <path
     d="m 44.35676,22.228064 q 0.6875,0 1.04375,0.579455 0.3625,0.573157 0.3625,1.656486 0,1.089627 -0.3625,1.669083 -0.35625,0.573156 -1.04375,0.573156 -0.6875,0 -1.05,-0.573156 -0.35625,-0.579456 -0.35625,-1.669083 0,-1.083329 0.35625,-1.656486 0.3625,-0.579455 1.05,-0.579455 z m 0,0.428293 q -0.8625,0 -0.8625,1.807648 0,1.820245 0.8625,1.820245 0.8625,0 0.8625,-1.820245 0,-1.807648 -0.8625,-1.807648 z m 0,1.39825 q 0.175,0 0.29375,0.11967 0.11875,0.11967 0.11875,0.289728 0,0.176356 -0.11875,0.296026 -0.11875,0.11967 -0.29375,0.11967 -0.175,0 -0.29375,-0.11967 -0.1125,-0.11967 -0.1125,-0.296026 0,-0.170058 0.1125,-0.289728 0.11875,-0.11967 0.29375,-0.11967 z"
     id="path9"
     style="fill-opacity:0.666667;stroke-width:1.25483;fill:#55d400" />
  <path
     d="m 52.720635,25.578826 v 1.058136 h -0.50625 v -1.058136 h -1.7875 v -0.377905 l 1.26875,-2.972857 0.43125,0.188952 -1.15,2.746114 h 1.24375 l 0.04375,-1.234491 h 0.45625 v 1.234491 h 0.55625 v 0.415696 z"
     id="path10"
     style="fill-opacity:0.666667;stroke-width:1.25483;fill:#55d400" />
  <path
     d="m 55.405685,22.228064 q 0.39375,0 0.69375,0.151162 0.3,0.144864 0.4625,0.396801 0.1625,0.245638 0.1625,0.541664 0,0.377906 -0.24375,0.661335 -0.24375,0.277131 -0.6,0.346413 0.4125,0.03149 0.69375,0.308623 0.2875,0.277131 0.2875,0.755811 0,0.371607 -0.1875,0.673932 -0.1875,0.296026 -0.53125,0.472382 -0.3375,0.170057 -0.775,0.170057 -0.38125,0 -0.7375,-0.138565 -0.35,-0.144864 -0.58125,-0.434591 l 0.35,-0.289728 q 0.175,0.214146 0.43125,0.327518 0.25625,0.107073 0.525,0.107073 0.45,0 0.70625,-0.23934 0.25625,-0.23934 0.25625,-0.648738 0,-0.825093 -0.89375,-0.825093 h -0.3625 l 0.0625,-0.415697 h 0.25625 q 0.3375,0 0.575,-0.195251 0.24375,-0.195251 0.24375,-0.566858 0,-0.346413 -0.23125,-0.541665 -0.23125,-0.195251 -0.5875,-0.195251 -0.26875,0 -0.48125,0.100775 -0.20625,0.09448 -0.43125,0.302324 l -0.28125,-0.321219 q 0.51875,-0.503874 1.21875,-0.503874 z"
     id="path11"
     style="fill-opacity:0.666667;stroke-width:1.25483;fill:#55d400" />
  <path
     d="m 7.0624225,31.688299 q 0.34375,0 0.61875,0.151162 0.275,0.151162 0.4375,0.459785 0.1625,0.302324 0.1625,0.749513 0,0.466083 -0.18125,0.818795 -0.175,0.346413 -0.4875,0.529068 -0.30625,0.182654 -0.68125,0.182654 -0.75,0 -1.0875,-0.547963 -0.3375,-0.547963 -0.3375,-1.568308 0,-0.71802 0.1875,-1.247088 0.19375,-0.535366 0.55,-0.825094 0.35625,-0.289727 0.85625,-0.289727 0.46875,0 0.85,0.258235 l -0.2,0.352712 q -0.30625,-0.182654 -0.65625,-0.182654 -0.49375,0 -0.775,0.472381 -0.28125,0.466084 -0.29375,1.272282 0.2,-0.308622 0.45625,-0.447188 0.25625,-0.138565 0.58125,-0.138565 z m -0.13125,2.468983 q 0.4,0 0.60625,-0.28343 0.2125,-0.289727 0.2125,-0.806198 0,-0.510172 -0.2,-0.730617 -0.19375,-0.220445 -0.5625,-0.220445 -0.3,0 -0.54375,0.163759 -0.2375,0.163759 -0.4125,0.453486 0.0125,0.743215 0.225,1.08333 0.2125,0.340115 0.675,0.340115 z"
     id="path12"
     style="fill-opacity:0.666667;stroke-width:1.25483;fill:#55d400" />
  <path
     d="M 11.984985,34.509993 H 9.503735 V 34.0817 h 1.0625 v -3.338165 l -0.9875,0.59835 -0.225,-0.371607 1.275,-0.793601 h 0.45625 V 34.0817 h 0.9 z"
     id="path13"
     style="fill-opacity:0.666667;stroke-width:1.25483;fill:#55d400" />
  <path
     d="m 18.88011,30.611268 h -2.01875 v -0.434591 h 2.54375 v 0.3968 l -1.71875,3.993202 -0.48125,-0.144864 z"
     id="path14"
     style="fill-opacity:0.666667;stroke-width:1.25483;fill:#55d400" />
  <path
     d="m 21.87141,30.101096 q 0.6875,0 1.04375,0.579455 0.3625,0.573156 0.3625,1.656486 0,1.089627 -0.3625,1.669082 -0.35625,0.573157 -1.04375,0.573157 -0.6875,0 -1.05,-0.573157 -0.35625,-0.579455 -0.35625,-1.669082 0,-1.08333 0.35625,-1.656486 0.3625,-0.579455 1.05,-0.579455 z m 0,0.428293 q -0.8625,0 -0.8625,1.807648 0,1.820245 0.8625,1.820245 0.8625,0 0.8625,-1.820245 0,-1.807648 -0.8625,-1.807648 z m 0,1.39825 q 0.175,0 0.29375,0.11967 0.11875,0.11967 0.11875,0.289728 0,0.176356 -0.11875,0.296026 -0.11875,0.11967 -0.29375,0.11967 -0.175,0 -0.29375,-0.11967 -0.1125,-0.11967 -0.1125,-0.296026 0,-0.170058 0.1125,-0.289728 0.11875,-0.11967 0.29375,-0.11967 z"
     id="path15"
     style="fill-opacity:0.666667;stroke-width:1.25483;fill:#55d400" />
  <path
     d="m 29.547785,31.688299 q 0.34375,0 0.61875,0.151162 0.275,0.151162 0.4375,0.459785 0.1625,0.302324 0.1625,0.749513 0,0.466083 -0.18125,0.818795 -0.175,0.346413 -0.4875,0.529068 -0.30625,0.182654 -0.68125,0.182654 -0.75,0 -1.0875,-0.547963 -0.3375,-0.547963 -0.3375,-1.568308 0,-0.71802 0.1875,-1.247088 0.19375,-0.535366 0.55,-0.825094 0.35625,-0.289727 0.85625,-0.289727 0.46875,0 0.85,0.258235 l -0.2,0.352712 q -0.30625,-0.182654 -0.65625,-0.182654 -0.49375,0 -0.775,0.472381 -0.28125,0.466084 -0.29375,1.272282 0.2,-0.308622 0.45625,-0.447188 0.25625,-0.138565 0.58125,-0.138565 z m -0.13125,2.468983 q 0.4,0 0.60625,-0.28343 0.2125,-0.289727 0.2125,-0.806198 0,-0.510172 -0.2,-0.730617 -0.19375,-0.220445 -0.5625,-0.220445 -0.3,0 -0.54375,0.163759 -0.2375,0.163759 -0.4125,0.453486 0.0125,0.743215 0.225,1.08333 0.2125,0.340115 0.675,0.340115 z"
     id="path16"
     style="fill-opacity:0.666667;stroke-width:1.25483;fill:#55d400" />
  <path
     d="m 33.045335,30.107394 q 0.7,0 1.05,0.44089 0.35,0.44089 0.35,1.234491 0,0.91957 -0.23125,1.461235 -0.23125,0.535366 -0.7125,0.843989 -0.48125,0.308623 -1.34375,0.554261 l -0.11875,-0.3968 q 0.91875,-0.251937 1.3875,-0.68023 0.46875,-0.428293 0.475,-1.184104 -0.15625,0.233041 -0.425,0.384204 -0.26875,0.151162 -0.6125,0.151162 -0.35,0 -0.625,-0.163759 -0.275,-0.170058 -0.43125,-0.484979 -0.15,-0.314921 -0.15,-0.730617 0,-0.453487 0.18125,-0.774707 0.1875,-0.321219 0.5,-0.484979 0.3125,-0.170057 0.70625,-0.170057 z m -0.08125,2.393402 q 0.3,0 0.525,-0.151163 0.23125,-0.15746 0.425,-0.447188 0.0063,-0.749512 -0.2,-1.058135 -0.20625,-0.308623 -0.66875,-0.308623 -0.41875,0 -0.6375,0.258235 -0.2125,0.258236 -0.2125,0.76211 0,0.47868 0.2,0.711722 0.2,0.233042 0.56875,0.233042 z"
     id="path17"
     style="fill-opacity:0.666667;stroke-width:1.25483;fill:#55d400" />
  <path
     d="m 41.36546,30.611268 h -2.01875 v -0.434591 h 2.54375 v 0.3968 l -1.71875,3.993202 -0.48125,-0.144864 z"
     id="path18"
     style="fill-opacity:0.666667;stroke-width:1.25483;fill:#55d400" />
  <path
     d="m 45.22551,33.451858 v 1.058135 h -0.50625 v -1.058135 h -1.7875 v -0.377906 l 1.26875,-2.972856 0.43125,0.188952 -1.15,2.746114 h 1.24375 l 0.04375,-1.234492 h 0.45625 v 1.234492 h 0.55625 v 0.415696 z"
     id="path19"
     style="fill-opacity:0.666667;stroke-width:1.25483;fill:#55d400" />
  <path
     d="m 52.033135,31.688299 q 0.34375,0 0.61875,0.151162 0.275,0.151162 0.4375,0.459785 0.1625,0.302324 0.1625,0.749513 0,0.466083 -0.18125,0.818795 -0.175,0.346413 -0.4875,0.529068 -0.30625,0.182654 -0.68125,0.182654 -0.75,0 -1.0875,-0.547963 -0.3375,-0.547963 -0.3375,-1.568308 0,-0.71802 0.1875,-1.247088 0.19375,-0.535366 0.55,-0.825094 0.35625,-0.289727 0.85625,-0.289727 0.46875,0 0.85,0.258235 l -0.2,0.352712 q -0.30625,-0.182654 -0.65625,-0.182654 -0.49375,0 -0.775,0.472381 -0.28125,0.466084 -0.29375,1.272282 0.2,-0.308622 0.45625,-0.447188 0.25625,-0.138565 0.58125,-0.138565 z m -0.13125,2.468983 q 0.4,0 0.60625,-0.28343 0.2125,-0.289727 0.2125,-0.806198 0,-0.510172 -0.2,-0.730617 -0.19375,-0.220445 -0.5625,-0.220445 -0.3,0 -0.54375,0.163759 -0.2375,0.163759 -0.4125,0.453486 0.0125,0.743215 0.225,1.08333 0.2125,0.340115 0.675,0.340115 z"
     id="path20"
     style="fill-opacity:0.666667;stroke-width:1.25483;fill:#55d400" />
  <path
     d="m 56.955685,34.509993 h -2.48125 V 34.0817 h 1.0625 v -3.338165 l -0.9875,0.59835 -0.225,-0.371607 1.275,-0.793601 h 0.45625 V 34.0817 h 0.9 z"
     id="path21"
     style="fill-opacity:0.666667;stroke-width:1.25483;fill:#55d400" />
  <path
     d="m 7.0624225,39.561331 q 0.34375,0 0.61875,0.151162 0.275,0.151162 0.4375,0.459785 0.1625,0.302324 0.1625,0.749513 0,0.466083 -0.18125,0.818795 -0.175,0.346413 -0.4875,0.529068 -0.30625,0.182654 -0.68125,0.182654 -0.75,0 -1.0875,-0.547963 -0.3375,-0.547963 -0.3375,-1.568308 0,-0.71802 0.1875,-1.247088 0.19375,-0.535366 0.55,-0.825094 0.35625,-0.289728 0.85625,-0.289728 0.46875,0 0.85,0.258236 l -0.2,0.352712 q -0.30625,-0.182655 -0.65625,-0.182655 -0.49375,0 -0.775,0.472382 -0.28125,0.466084 -0.29375,1.272282 0.2,-0.308623 0.45625,-0.447188 0.25625,-0.138565 0.58125,-0.138565 z m -0.13125,2.468982 q 0.4,0 0.60625,-0.283429 0.2125,-0.289727 0.2125,-0.806198 0,-0.510173 -0.2,-0.730618 -0.19375,-0.220444 -0.5625,-0.220444 -0.3,0 -0.54375,0.163759 -0.2375,0.163759 -0.4125,0.453486 0.0125,0.743215 0.225,1.083329 0.2125,0.340115 0.675,0.340115 z"
     id="path22"
     style="fill-opacity:0.666667;stroke-width:1.25483;fill:#55d400" />
  <path
     d="m 10.559985,37.980426 q 0.7,0 1.05,0.44089 0.35,0.440889 0.35,1.234491 0,0.91957 -0.23125,1.461235 -0.23125,0.535366 -0.7125,0.843989 -0.48125,0.308623 -1.34375,0.554261 l -0.11875,-0.396801 q 0.91875,-0.251937 1.3875,-0.68023 0.46875,-0.428292 0.475,-1.184104 -0.15625,0.233042 -0.425,0.384204 -0.26875,0.151163 -0.6125,0.151163 -0.35,0 -0.625,-0.163759 -0.275,-0.170058 -0.43125,-0.484979 -0.15,-0.314921 -0.15,-0.730618 0,-0.453486 0.18125,-0.774706 0.1875,-0.32122 0.5,-0.484979 0.3125,-0.170057 0.70625,-0.170057 z m -0.08125,2.393402 q 0.3,0 0.525,-0.151163 0.23125,-0.15746 0.425,-0.447188 0.0062,-0.749512 -0.2,-1.058135 -0.20625,-0.308623 -0.66875,-0.308623 -0.41875,0 -0.6375,0.258235 -0.2125,0.258236 -0.2125,0.76211 0,0.47868 0.2,0.711722 0.2,0.233042 0.56875,0.233042 z"
     id="path23"
     style="fill-opacity:0.666667;stroke-width:1.25483;fill:#55d400" />
  <path
     d="m 18.30511,39.561331 q 0.34375,0 0.61875,0.151162 0.275,0.151162 0.4375,0.459785 0.1625,0.302324 0.1625,0.749513 0,0.466083 -0.18125,0.818795 -0.175,0.346413 -0.4875,0.529068 -0.30625,0.182654 -0.68125,0.182654 -0.75,0 -1.0875,-0.547963 -0.3375,-0.547963 -0.3375,-1.568308 0,-0.71802 0.1875,-1.247088 0.19375,-0.535366 0.55,-0.825094 0.35625,-0.289728 0.85625,-0.289728 0.46875,0 0.85,0.258236 l -0.2,0.352712 q -0.30625,-0.182655 -0.65625,-0.182655 -0.49375,0 -0.775,0.472382 -0.28125,0.466084 -0.29375,1.272282 0.2,-0.308623 0.45625,-0.447188 0.25625,-0.138565 0.58125,-0.138565 z m -0.13125,2.468982 q 0.4,0 0.60625,-0.283429 0.2125,-0.289727 0.2125,-0.806198 0,-0.510173 -0.2,-0.730618 -0.19375,-0.220444 -0.5625,-0.220444 -0.3,0 -0.54375,0.163759 -0.2375,0.163759 -0.4125,0.453486 0.0125,0.743215 0.225,1.083329 0.2125,0.340115 0.675,0.340115 z"
     id="path24"
     style="fill-opacity:0.666667;stroke-width:1.25483;fill:#55d400" />
  <path
     d="m 22.91516,39.958131 v 0.447189 h -1.59375 v 1.543114 h 1.95625 v 0.434591 h -2.49375 v -4.333316 h 2.4375 l -0.0625,0.440889 h -1.8375 v 1.467533 z"
     id="path25"
     style="fill-opacity:0.666667;stroke-width:1.25483;fill:#55d400" />
  <path
     d="m 29.547785,39.561331 q 0.34375,0 0.61875,0.151162 0.275,0.151162 0.4375,0.459785 0.1625,0.302324 0.1625,0.749513 0,0.466083 -0.18125,0.818795 -0.175,0.346413 -0.4875,0.529068 -0.30625,0.182654 -0.68125,0.182654 -0.75,0 -1.0875,-0.547963 -0.3375,-0.547963 -0.3375,-1.568308 0,-0.71802 0.1875,-1.247088 0.19375,-0.535366 0.55,-0.825094 0.35625,-0.289728 0.85625,-0.289728 0.46875,0 0.85,0.258236 l -0.2,0.352712 q -0.30625,-0.182655 -0.65625,-0.182655 -0.49375,0 -0.775,0.472382 -0.28125,0.466084 -0.29375,1.272282 0.2,-0.308623 0.45625,-0.447188 0.25625,-0.138565 0.58125,-0.138565 z m -0.13125,2.468982 q 0.4,0 0.60625,-0.283429 0.2125,-0.289727 0.2125,-0.806198 0,-0.510173 -0.2,-0.730618 -0.19375,-0.220444 -0.5625,-0.220444 -0.3,0 -0.54375,0.163759 -0.2375,0.163759 -0.4125,0.453486 0.0125,0.743215 0.225,1.083329 0.2125,0.340115 0.675,0.340115 z"
     id="path26"
     style="fill-opacity:0.666667;stroke-width:1.25483;fill:#55d400" />
  <path
     d="m 32.501585,38.465405 v 1.373056 q 0.1875,-0.107073 0.3625,-0.144863 0.18125,-0.04409 0.38125,-0.04409 0.5375,0 0.85625,0.35901 0.31875,0.35901 0.31875,1.00145 0,0.428292 -0.18125,0.755811 -0.175,0.327518 -0.50625,0.510172 -0.325,0.176356 -0.7625,0.176356 -0.71875,0 -1.24375,-0.516471 l 0.31875,-0.314921 q 0.2,0.207848 0.425,0.308623 0.225,0.09448 0.50625,0.09448 0.43125,0 0.6625,-0.258235 0.2375,-0.264534 0.2375,-0.768408 0,-0.497576 -0.2125,-0.711722 -0.20625,-0.220445 -0.5625,-0.220445 -0.18125,0 -0.325,0.03779 -0.14375,0.03149 -0.35,0.107073 h -0.41875 v -2.160359 h 2.275 l -0.08125,0.415696 z"
     id="path27"
     style="fill-opacity:0.666667;stroke-width:1.25483;fill:#55d400" />
  <path
     d="m 40.41546,37.974127 q 0.4,0 0.6875,0.157461 0.29375,0.157461 0.45,0.434591 0.15625,0.277131 0.15625,0.623545 0,0.3968 -0.1875,0.774706 -0.18125,0.377905 -0.5875,0.83769 -0.40625,0.453487 -1.15,1.133717 h 2.025 l -0.0625,0.447188 h -2.55625 v -0.428293 q 0.85,-0.818795 1.25625,-1.272282 0.40625,-0.459785 0.5625,-0.787303 0.15625,-0.327518 0.15625,-0.692827 0,-0.365308 -0.20625,-0.573156 -0.2,-0.214147 -0.5625,-0.214147 -0.30625,0 -0.5125,0.107073 -0.20625,0.100775 -0.41875,0.352712 l -0.3625,-0.27713 q 0.2625,-0.32122 0.575,-0.472382 0.3125,-0.151163 0.7375,-0.151163 z"
     id="path28"
     style="fill-opacity:0.666667;stroke-width:1.25483;fill:#55d400" />
  <path
     d="m 44.35676,37.974127 q 0.6875,0 1.04375,0.579456 0.3625,0.573156 0.3625,1.656485 0,1.089628 -0.3625,1.669083 -0.35625,0.573157 -1.04375,0.573157 -0.6875,0 -1.05,-0.573157 -0.35625,-0.579455 -0.35625,-1.669083 0,-1.083329 0.35625,-1.656485 0.3625,-0.579456 1.05,-0.579456 z m 0,0.428293 q -0.8625,0 -0.8625,1.807648 0,1.820245 0.8625,1.820245 0.8625,0 0.8625,-1.820245 0,-1.807648 -0.8625,-1.807648 z m 0,1.398251 q 0.175,0 0.29375,0.11967 0.11875,0.11967 0.11875,0.289727 0,0.176356 -0.11875,0.296026 -0.11875,0.119671 -0.29375,0.119671 -0.175,0 -0.29375,-0.119671 -0.1125,-0.11967 -0.1125,-0.296026 0,-0.170057 0.1125,-0.289727 0.11875,-0.11967 0.29375,-0.11967 z"
     id="path29"
     style="fill-opacity:0.666667;stroke-width:1.25483;fill:#55d400" />
  <rect
     height="45.625347"
     ry="2.1470752"
     width="60"
     x="0.99998337"
     y="7.5000114"
     id="rect30"
     style="fill:url(#linearGradient62);stroke-width:1.25483" />
  <path
     d="m 6.8811725,20.853414 q 0.6875,0 1.04375,0.579455 0.3625,0.573157 0.3625,1.656486 0,1.089627 -0.3625,1.669083 -0.35625,0.573156 -1.04375,0.573156 -0.6875,0 -1.05,-0.573156 -0.35625,-0.579456 -0.35625,-1.669083 0,-1.083329 0.35625,-1.656486 0.3625,-0.579455 1.05,-0.579455 z m 0,0.428293 q -0.8625,0 -0.8625,1.807648 0,1.820245 0.8625,1.820245 0.8625,0 0.8625,-1.820245 0,-1.807648 -0.8625,-1.807648 z m 0,1.39825 q 0.175,0 0.29375,0.11967 0.11875,0.11967 0.11875,0.289728 0,0.176356 -0.11875,0.296026 -0.11875,0.11967 -0.29375,0.11967 -0.175,0 -0.29375,-0.11967 -0.1125,-0.11967 -0.1125,-0.296026 0,-0.170058 0.1125,-0.289728 0.11875,-0.11967 0.29375,-0.11967 z"
     id="path30"
     style="fill:#55d400;stroke-width:1.25483" />
  <path
     d="M 10.322485,23.511349 9.253735,21.94934 h 0.6125 l 0.76875,1.234491 0.775,-1.234491 h 0.59375 l -1.0625,1.536816 1.2125,1.776156 h -0.6375 l -0.90625,-1.423445 -0.9125,1.423445 h -0.59375 z"
     id="path31"
     style="fill:#55d400;stroke-width:1.25483" />
  <path
     d="m 18.99261,24.204176 v 1.058136 h -0.50625 v -1.058136 h -1.7875 v -0.377905 l 1.26875,-2.972857 0.43125,0.188952 -1.15,2.746114 h 1.24375 l 0.04375,-1.234491 h 0.45625 v 1.234491 h 0.55625 v 0.415696 z"
     id="path32"
     style="fill:#55d400;stroke-width:1.25483" />
  <path
     d="m 22.23391,20.853414 q 0.40625,0 0.6875,0.107073 0.2875,0.100775 0.55625,0.314921 l -0.3,0.352712 q -0.3875,-0.32122 -0.90625,-0.32122 -0.5875,0 -0.95625,0.428293 -0.3625,0.421995 -0.3625,1.354162 0,0.91957 0.35625,1.354161 0.3625,0.428293 0.95625,0.428293 0.325,0 0.55625,-0.09448 0.2375,-0.100775 0.44375,-0.270833 l 0.275,0.359011 q -0.2125,0.207848 -0.53125,0.340115 -0.31875,0.125968 -0.75,0.125968 -0.53125,0 -0.95625,-0.258235 -0.41875,-0.264534 -0.6625,-0.768408 -0.24375,-0.503874 -0.24375,-1.215596 0,-0.705424 0.24375,-1.209298 0.25,-0.510172 0.66875,-0.768408 0.41875,-0.258235 0.925,-0.258235 z"
     id="path33"
     style="fill:#55d400;stroke-width:1.25483" />
  <path
     d="m 29.547785,22.440617 q 0.34375,0 0.61875,0.151162 0.275,0.151162 0.4375,0.459785 0.1625,0.302325 0.1625,0.749513 0,0.466083 -0.18125,0.818795 -0.175,0.346414 -0.4875,0.529068 -0.30625,0.182654 -0.68125,0.182654 -0.75,0 -1.0875,-0.547963 -0.3375,-0.547963 -0.3375,-1.568308 0,-0.71802 0.1875,-1.247088 0.19375,-0.535366 0.55,-0.825094 0.35625,-0.289727 0.85625,-0.289727 0.46875,0 0.85,0.258235 l -0.2,0.352712 q -0.30625,-0.182654 -0.65625,-0.182654 -0.49375,0 -0.775,0.472382 -0.28125,0.466083 -0.29375,1.272281 0.2,-0.308622 0.45625,-0.447188 0.25625,-0.138565 0.58125,-0.138565 z m -0.13125,2.468983 q 0.4,0 0.60625,-0.283429 0.2125,-0.289728 0.2125,-0.806199 0,-0.510172 -0.2,-0.730617 -0.19375,-0.220445 -0.5625,-0.220445 -0.3,0 -0.54375,0.163759 -0.2375,0.163759 -0.4125,0.453487 0.0125,0.743214 0.225,1.083329 0.2125,0.340115 0.675,0.340115 z"
     id="path34"
     style="fill:#55d400;stroke-width:1.25483" />
  <path
     d="m 34.470335,25.262312 h -2.48125 v -0.428293 h 1.0625 v -3.338166 l -0.9875,0.598351 -0.225,-0.371608 1.275,-0.793601 h 0.45625 v 3.905024 h 0.9 z"
     id="path35"
     style="fill:#55d400;stroke-width:1.25483" />
  <path
     d="m 40.41546,20.853414 q 0.4,0 0.6875,0.15746 0.29375,0.157461 0.45,0.434592 0.15625,0.27713 0.15625,0.623544 0,0.396801 -0.1875,0.774706 -0.18125,0.377906 -0.5875,0.837691 -0.40625,0.453486 -1.15,1.133716 h 2.025 l -0.0625,0.447189 h -2.55625 v -0.428293 q 0.85,-0.818796 1.25625,-1.272282 0.40625,-0.459785 0.5625,-0.787304 0.15625,-0.327518 0.15625,-0.692826 0,-0.365309 -0.20625,-0.573157 -0.2,-0.214147 -0.5625,-0.214147 -0.30625,0 -0.5125,0.107074 -0.20625,0.100775 -0.41875,0.352712 l -0.3625,-0.277131 q 0.2625,-0.32122 0.575,-0.472382 0.3125,-0.151162 0.7375,-0.151162 z"
     id="path36"
     style="fill:#55d400;stroke-width:1.25483" />
  <path
     d="m 44.35676,20.853414 q 0.6875,0 1.04375,0.579455 0.3625,0.573157 0.3625,1.656486 0,1.089627 -0.3625,1.669083 -0.35625,0.573156 -1.04375,0.573156 -0.6875,0 -1.05,-0.573156 -0.35625,-0.579456 -0.35625,-1.669083 0,-1.083329 0.35625,-1.656486 0.3625,-0.579455 1.05,-0.579455 z m 0,0.428293 q -0.8625,0 -0.8625,1.807648 0,1.820245 0.8625,1.820245 0.8625,0 0.8625,-1.820245 0,-1.807648 -0.8625,-1.807648 z m 0,1.39825 q 0.175,0 0.29375,0.11967 0.11875,0.11967 0.11875,0.289728 0,0.176356 -0.11875,0.296026 -0.11875,0.11967 -0.29375,0.11967 -0.175,0 -0.29375,-0.11967 -0.1125,-0.11967 -0.1125,-0.296026 0,-0.170058 0.1125,-0.289728 0.11875,-0.11967 0.29375,-0.11967 z"
     id="path37"
     style="fill:#55d400;stroke-width:1.25483" />
  <path
     d="m 52.720635,24.204176 v 1.058136 h -0.50625 v -1.058136 h -1.7875 v -0.377905 l 1.26875,-2.972857 0.43125,0.188952 -1.15,2.746114 h 1.24375 l 0.04375,-1.234491 h 0.45625 v 1.234491 h 0.55625 v 0.415696 z"
     id="path38"
     sodipodi:nodetypes="cccccccccccccccc"
     style="fill:#55d400;stroke-width:1.25483" />
  <path
     d="m 55.405685,20.853414 q 0.39375,0 0.69375,0.151162 0.3,0.144864 0.4625,0.396801 0.1625,0.245638 0.1625,0.541664 0,0.377906 -0.24375,0.661335 -0.24375,0.277131 -0.6,0.346413 0.4125,0.03149 0.69375,0.308623 0.2875,0.277131 0.2875,0.755811 0,0.371607 -0.1875,0.673932 -0.1875,0.296026 -0.53125,0.472382 -0.3375,0.170057 -0.775,0.170057 -0.38125,0 -0.7375,-0.138565 -0.35,-0.144864 -0.58125,-0.434591 l 0.35,-0.289728 q 0.175,0.214146 0.43125,0.327518 0.25625,0.107073 0.525,0.107073 0.45,0 0.70625,-0.23934 0.25625,-0.23934 0.25625,-0.648738 0,-0.825093 -0.89375,-0.825093 h -0.3625 l 0.0625,-0.415697 h 0.25625 q 0.3375,0 0.575,-0.195251 0.24375,-0.195251 0.24375,-0.566858 0,-0.346413 -0.23125,-0.541665 -0.23125,-0.195251 -0.5875,-0.195251 -0.26875,0 -0.48125,0.100775 -0.20625,0.09448 -0.43125,0.302324 l -0.28125,-0.321219 q 0.51875,-0.503874 1.21875,-0.503874 z"
     id="path39"
     style="fill:#55d400;stroke-width:1.25483" />
  <path
     d="m 7.0624225,30.313649 q 0.34375,0 0.61875,0.151162 0.275,0.151162 0.4375,0.459785 0.1625,0.302324 0.1625,0.749513 0,0.466083 -0.18125,0.818795 -0.175,0.346413 -0.4875,0.529068 -0.30625,0.182654 -0.68125,0.182654 -0.75,0 -1.0875,-0.547963 -0.3375,-0.547963 -0.3375,-1.568308 0,-0.71802 0.1875,-1.247088 0.19375,-0.535366 0.55,-0.825094 0.35625,-0.289727 0.85625,-0.289727 0.46875,0 0.85,0.258235 l -0.2,0.352712 q -0.30625,-0.182654 -0.65625,-0.182654 -0.49375,0 -0.775,0.472381 -0.28125,0.466084 -0.29375,1.272282 0.2,-0.308622 0.45625,-0.447188 0.25625,-0.138565 0.58125,-0.138565 z m -0.13125,2.468983 q 0.4,0 0.60625,-0.28343 0.2125,-0.289727 0.2125,-0.806198 0,-0.510172 -0.2,-0.730617 -0.19375,-0.220445 -0.5625,-0.220445 -0.3,0 -0.54375,0.163759 -0.2375,0.163759 -0.4125,0.453486 0.0125,0.743215 0.225,1.08333 0.2125,0.340115 0.675,0.340115 z"
     id="path40"
     style="fill:#55d400;stroke-width:1.25483" />
  <path
     d="M 11.984985,33.135343 H 9.503735 V 32.70705 h 1.0625 v -3.338165 l -0.9875,0.59835 -0.225,-0.371607 1.275,-0.793601 h 0.45625 v 3.905023 h 0.9 z"
     id="path41"
     style="fill:#55d400;stroke-width:1.25483" />
  <path
     d="m 18.88011,29.236618 h -2.01875 v -0.434591 h 2.54375 v 0.3968 l -1.71875,3.993202 -0.48125,-0.144864 z"
     id="path42"
     style="fill:#55d400;stroke-width:1.25483" />
  <path
     d="m 21.87141,28.726446 q 0.6875,0 1.04375,0.579455 0.3625,0.573156 0.3625,1.656486 0,1.089627 -0.3625,1.669082 -0.35625,0.573157 -1.04375,0.573157 -0.6875,0 -1.05,-0.573157 -0.35625,-0.579455 -0.35625,-1.669082 0,-1.08333 0.35625,-1.656486 0.3625,-0.579455 1.05,-0.579455 z m 0,0.428293 q -0.8625,0 -0.8625,1.807648 0,1.820245 0.8625,1.820245 0.8625,0 0.8625,-1.820245 0,-1.807648 -0.8625,-1.807648 z m 0,1.39825 q 0.175,0 0.29375,0.11967 0.11875,0.11967 0.11875,0.289728 0,0.176356 -0.11875,0.296026 -0.11875,0.11967 -0.29375,0.11967 -0.175,0 -0.29375,-0.11967 -0.1125,-0.11967 -0.1125,-0.296026 0,-0.170058 0.1125,-0.289728 0.11875,-0.11967 0.29375,-0.11967 z"
     id="path43"
     style="fill:#55d400;stroke-width:1.25483" />
  <path
     d="m 29.547785,30.313649 q 0.34375,0 0.61875,0.151162 0.275,0.151162 0.4375,0.459785 0.1625,0.302324 0.1625,0.749513 0,0.466083 -0.18125,0.818795 -0.175,0.346413 -0.4875,0.529068 -0.30625,0.182654 -0.68125,0.182654 -0.75,0 -1.0875,-0.547963 -0.3375,-0.547963 -0.3375,-1.568308 0,-0.71802 0.1875,-1.247088 0.19375,-0.535366 0.55,-0.825094 0.35625,-0.289727 0.85625,-0.289727 0.46875,0 0.85,0.258235 l -0.2,0.352712 q -0.30625,-0.182654 -0.65625,-0.182654 -0.49375,0 -0.775,0.472381 -0.28125,0.466084 -0.29375,1.272282 0.2,-0.308622 0.45625,-0.447188 0.25625,-0.138565 0.58125,-0.138565 z m -0.13125,2.468983 q 0.4,0 0.60625,-0.28343 0.2125,-0.289727 0.2125,-0.806198 0,-0.510172 -0.2,-0.730617 -0.19375,-0.220445 -0.5625,-0.220445 -0.3,0 -0.54375,0.163759 -0.2375,0.163759 -0.4125,0.453486 0.0125,0.743215 0.225,1.08333 0.2125,0.340115 0.675,0.340115 z"
     id="path44"
     style="fill:#55d400;stroke-width:1.25483" />
  <path
     d="m 33.045335,28.732744 q 0.7,0 1.05,0.44089 0.35,0.44089 0.35,1.234491 0,0.91957 -0.23125,1.461235 -0.23125,0.535366 -0.7125,0.843989 -0.48125,0.308623 -1.34375,0.554261 l -0.11875,-0.3968 q 0.91875,-0.251937 1.3875,-0.68023 0.46875,-0.428293 0.475,-1.184104 -0.15625,0.233041 -0.425,0.384204 -0.26875,0.151162 -0.6125,0.151162 -0.35,0 -0.625,-0.163759 -0.275,-0.170058 -0.43125,-0.484979 -0.15,-0.314921 -0.15,-0.730617 0,-0.453487 0.18125,-0.774707 0.1875,-0.321219 0.5,-0.484979 0.3125,-0.170057 0.70625,-0.170057 z m -0.08125,2.393402 q 0.3,0 0.525,-0.151163 0.23125,-0.15746 0.425,-0.447188 0.0063,-0.749512 -0.2,-1.058135 -0.20625,-0.308623 -0.66875,-0.308623 -0.41875,0 -0.6375,0.258235 -0.2125,0.258236 -0.2125,0.76211 0,0.47868 0.2,0.711722 0.2,0.233042 0.56875,0.233042 z"
     id="path45"
     style="fill:#55d400;stroke-width:1.25483" />
  <path
     d="m 41.36546,29.236618 h -2.01875 v -0.434591 h 2.54375 v 0.3968 l -1.71875,3.993202 -0.48125,-0.144864 z"
     id="path46"
     style="fill:#55d400;stroke-width:1.25483" />
  <path
     d="m 45.22551,32.077208 v 1.058135 h -0.50625 v -1.058135 h -1.7875 v -0.377906 l 1.26875,-2.972856 0.43125,0.188952 -1.15,2.746114 h 1.24375 l 0.04375,-1.234492 h 0.45625 v 1.234492 h 0.55625 v 0.415696 z"
     id="path47"
     style="fill:#55d400;stroke-width:1.25483" />
  <path
     d="m 52.033135,30.313649 q 0.34375,0 0.61875,0.151162 0.275,0.151162 0.4375,0.459785 0.1625,0.302324 0.1625,0.749513 0,0.466083 -0.18125,0.818795 -0.175,0.346413 -0.4875,0.529068 -0.30625,0.182654 -0.68125,0.182654 -0.75,0 -1.0875,-0.547963 -0.3375,-0.547963 -0.3375,-1.568308 0,-0.71802 0.1875,-1.247088 0.19375,-0.535366 0.55,-0.825094 0.35625,-0.289727 0.85625,-0.289727 0.46875,0 0.85,0.258235 l -0.2,0.352712 q -0.30625,-0.182654 -0.65625,-0.182654 -0.49375,0 -0.775,0.472381 -0.28125,0.466084 -0.29375,1.272282 0.2,-0.308622 0.45625,-0.447188 0.25625,-0.138565 0.58125,-0.138565 z m -0.13125,2.468983 q 0.4,0 0.60625,-0.28343 0.2125,-0.289727 0.2125,-0.806198 0,-0.510172 -0.2,-0.730617 -0.19375,-0.220445 -0.5625,-0.220445 -0.3,0 -0.54375,0.163759 -0.2375,0.163759 -0.4125,0.453486 0.0125,0.743215 0.225,1.08333 0.2125,0.340115 0.675,0.340115 z"
     id="path48"
     style="fill:#55d400;stroke-width:1.25483" />
  <path
     d="m 56.955685,33.135343 h -2.48125 V 32.70705 h 1.0625 v -3.338165 l -0.9875,0.59835 -0.225,-0.371607 1.275,-0.793601 h 0.45625 v 3.905023 h 0.9 z"
     id="path49"
     style="fill:#55d400;stroke-width:1.25483" />
  <path
     d="m 7.0624225,38.186681 q 0.34375,0 0.61875,0.151162 0.275,0.151162 0.4375,0.459785 0.1625,0.302324 0.1625,0.749513 0,0.466083 -0.18125,0.818795 -0.175,0.346413 -0.4875,0.529068 -0.30625,0.182654 -0.68125,0.182654 -0.75,0 -1.0875,-0.547963 -0.3375,-0.547963 -0.3375,-1.568308 0,-0.71802 0.1875,-1.247088 0.19375,-0.535366 0.55,-0.825094 0.35625,-0.289728 0.85625,-0.289728 0.46875,0 0.85,0.258236 l -0.2,0.352712 q -0.30625,-0.182655 -0.65625,-0.182655 -0.49375,0 -0.775,0.472382 -0.28125,0.466084 -0.29375,1.272282 0.2,-0.308623 0.45625,-0.447188 0.25625,-0.138565 0.58125,-0.138565 z m -0.13125,2.468982 q 0.4,0 0.60625,-0.283429 0.2125,-0.289727 0.2125,-0.806198 0,-0.510173 -0.2,-0.730618 -0.19375,-0.220444 -0.5625,-0.220444 -0.3,0 -0.54375,0.163759 -0.2375,0.163759 -0.4125,0.453486 0.0125,0.743215 0.225,1.083329 0.2125,0.340115 0.675,0.340115 z"
     id="path50"
     style="fill:#55d400;stroke-width:1.25483" />
  <path
     d="m 10.559985,36.605776 q 0.7,0 1.05,0.44089 0.35,0.440889 0.35,1.234491 0,0.91957 -0.23125,1.461235 -0.23125,0.535366 -0.7125,0.843989 -0.48125,0.308623 -1.34375,0.554261 l -0.11875,-0.396801 q 0.91875,-0.251937 1.3875,-0.68023 0.46875,-0.428292 0.475,-1.184104 -0.15625,0.233042 -0.425,0.384204 -0.26875,0.151163 -0.6125,0.151163 -0.35,0 -0.625,-0.163759 -0.275,-0.170058 -0.43125,-0.484979 -0.15,-0.314921 -0.15,-0.730618 0,-0.453486 0.18125,-0.774706 0.1875,-0.32122 0.5,-0.484979 0.3125,-0.170057 0.70625,-0.170057 z m -0.08125,2.393402 q 0.3,0 0.525,-0.151163 0.23125,-0.15746 0.425,-0.447188 0.0062,-0.749512 -0.2,-1.058135 -0.20625,-0.308623 -0.66875,-0.308623 -0.41875,0 -0.6375,0.258235 -0.2125,0.258236 -0.2125,0.76211 0,0.47868 0.2,0.711722 0.2,0.233042 0.56875,0.233042 z"
     id="path51"
     style="fill:#55d400;stroke-width:1.25483" />
  <path
     d="m 18.30511,38.186681 q 0.34375,0 0.61875,0.151162 0.275,0.151162 0.4375,0.459785 0.1625,0.302324 0.1625,0.749513 0,0.466083 -0.18125,0.818795 -0.175,0.346413 -0.4875,0.529068 -0.30625,0.182654 -0.68125,0.182654 -0.75,0 -1.0875,-0.547963 -0.3375,-0.547963 -0.3375,-1.568308 0,-0.71802 0.1875,-1.247088 0.19375,-0.535366 0.55,-0.825094 0.35625,-0.289728 0.85625,-0.289728 0.46875,0 0.85,0.258236 l -0.2,0.352712 q -0.30625,-0.182655 -0.65625,-0.182655 -0.49375,0 -0.775,0.472382 -0.28125,0.466084 -0.29375,1.272282 0.2,-0.308623 0.45625,-0.447188 0.25625,-0.138565 0.58125,-0.138565 z m -0.13125,2.468982 q 0.4,0 0.60625,-0.283429 0.2125,-0.289727 0.2125,-0.806198 0,-0.510173 -0.2,-0.730618 -0.19375,-0.220444 -0.5625,-0.220444 -0.3,0 -0.54375,0.163759 -0.2375,0.163759 -0.4125,0.453486 0.0125,0.743215 0.225,1.083329 0.2125,0.340115 0.675,0.340115 z"
     id="path52"
     style="fill:#55d400;stroke-width:1.25483" />
  <path
     d="m 22.91516,38.583481 v 0.447189 h -1.59375 v 1.543114 h 1.95625 v 0.434591 h -2.49375 v -4.333316 h 2.4375 l -0.0625,0.440889 h -1.8375 v 1.467533 z"
     id="path53"
     style="fill:#55d400;stroke-width:1.25483" />
  <path
     d="m 29.547785,38.186681 q 0.34375,0 0.61875,0.151162 0.275,0.151162 0.4375,0.459785 0.1625,0.302324 0.1625,0.749513 0,0.466083 -0.18125,0.818795 -0.175,0.346413 -0.4875,0.529068 -0.30625,0.182654 -0.68125,0.182654 -0.75,0 -1.0875,-0.547963 -0.3375,-0.547963 -0.3375,-1.568308 0,-0.71802 0.1875,-1.247088 0.19375,-0.535366 0.55,-0.825094 0.35625,-0.289728 0.85625,-0.289728 0.46875,0 0.85,0.258236 l -0.2,0.352712 q -0.30625,-0.182655 -0.65625,-0.182655 -0.49375,0 -0.775,0.472382 -0.28125,0.466084 -0.29375,1.272282 0.2,-0.308623 0.45625,-0.447188 0.25625,-0.138565 0.58125,-0.138565 z m -0.13125,2.468982 q 0.4,0 0.60625,-0.283429 0.2125,-0.289727 0.2125,-0.806198 0,-0.510173 -0.2,-0.730618 -0.19375,-0.220444 -0.5625,-0.220444 -0.3,0 -0.54375,0.163759 -0.2375,0.163759 -0.4125,0.453486 0.0125,0.743215 0.225,1.083329 0.2125,0.340115 0.675,0.340115 z"
     id="path54"
     style="fill:#55d400;stroke-width:1.25483" />
  <path
     d="m 32.501585,37.090755 v 1.373056 q 0.1875,-0.107073 0.3625,-0.144863 0.18125,-0.04409 0.38125,-0.04409 0.5375,0 0.85625,0.35901 0.31875,0.35901 0.31875,1.00145 0,0.428292 -0.18125,0.755811 -0.175,0.327518 -0.50625,0.510172 -0.325,0.176356 -0.7625,0.176356 -0.71875,0 -1.24375,-0.516471 l 0.31875,-0.314921 q 0.2,0.207848 0.425,0.308623 0.225,0.09448 0.50625,0.09448 0.43125,0 0.6625,-0.258235 0.2375,-0.264534 0.2375,-0.768408 0,-0.497576 -0.2125,-0.711722 -0.20625,-0.220445 -0.5625,-0.220445 -0.18125,0 -0.325,0.03779 -0.14375,0.03149 -0.35,0.107073 h -0.41875 v -2.160359 h 2.275 l -0.08125,0.415696 z"
     id="path55"
     style="fill:#55d400;stroke-width:1.25483" />
  <path
     d="m 40.41546,36.599477 q 0.4,0 0.6875,0.157461 0.29375,0.157461 0.45,0.434591 0.15625,0.277131 0.15625,0.623545 0,0.3968 -0.1875,0.774706 -0.18125,0.377905 -0.5875,0.83769 -0.40625,0.453487 -1.15,1.133717 h 2.025 l -0.0625,0.447188 h -2.55625 v -0.428293 q 0.85,-0.818795 1.25625,-1.272282 0.40625,-0.459785 0.5625,-0.787303 0.15625,-0.327518 0.15625,-0.692827 0,-0.365308 -0.20625,-0.573156 -0.2,-0.214147 -0.5625,-0.214147 -0.30625,0 -0.5125,0.107073 -0.20625,0.100775 -0.41875,0.352712 l -0.3625,-0.27713 q 0.2625,-0.32122 0.575,-0.472382 0.3125,-0.151163 0.7375,-0.151163 z"
     id="path56"
     style="fill:#55d400;stroke-width:1.25483" />
  <path
     d="m 44.35676,36.599477 q 0.6875,0 1.04375,0.579456 0.3625,0.573156 0.3625,1.656485 0,1.089628 -0.3625,1.669083 -0.35625,0.573157 -1.04375,0.573157 -0.6875,0 -1.05,-0.573157 -0.35625,-0.579455 -0.35625,-1.669083 0,-1.083329 0.35625,-1.656485 0.3625,-0.579456 1.05,-0.579456 z m 0,0.428293 q -0.8625,0 -0.8625,1.807648 0,1.820245 0.8625,1.820245 0.8625,0 0.8625,-1.820245 0,-1.807648 -0.8625,-1.807648 z m 0,1.398251 q 0.175,0 0.29375,0.11967 0.11875,0.11967 0.11875,0.289727 0,0.176356 -0.11875,0.296026 -0.11875,0.119671 -0.29375,0.119671 -0.175,0 -0.29375,-0.119671 -0.1125,-0.11967 -0.1125,-0.296026 0,-0.170057 0.1125,-0.289727 0.11875,-0.11967 0.29375,-0.11967 z"
     id="path57"
     style="fill:#55d400;stroke-width:1.25483" />
  <ellipse
     cx="17.86241"
     cy="12.310303"
     id="circle58"
     style="fill:#55d400;stroke-width:1.36891"
     rx="2.4292173"
     ry="2.4480388" />
  <ellipse
     cx="11.894587"
     cy="12.362264"
     id="circle59"
     style="fill:#55d400;stroke-width:1.36891"
     rx="2.4292173"
     ry="2.4480388" />
  <ellipse
     cx="6.0283036"
     cy="12.42022"
     id="circle60"
     style="fill:#55d400;stroke-width:1.36891"
     rx="2.4292173"
     ry="2.4480388" />
</svg>
