<?xml version="1.0" encoding="UTF-8" standalone="no"?>
<svg
   width="62"
   height="62"
   version="1.1"
   id="svg29"
   sodipodi:docname="hidemy.name.svg"
   inkscape:version="1.4 (unknown)"
   xmlns:inkscape="http://www.inkscape.org/namespaces/inkscape"
   xmlns:sodipodi="http://sodipodi.sourceforge.net/DTD/sodipodi-0.dtd"
   xmlns:xlink="http://www.w3.org/1999/xlink"
   xmlns="http://www.w3.org/2000/svg"
   xmlns:svg="http://www.w3.org/2000/svg">
  <defs
     id="defs29">
    <linearGradient
       id="linearGradient29"
       inkscape:collect="always">
      <stop
         style="stop-color:#2d3d53;stop-opacity:1;"
         offset="0"
         id="stop29" />
      <stop
         style="stop-color:#354864;stop-opacity:1;"
         offset="1"
         id="stop30" />
    </linearGradient>
    <linearGradient
       inkscape:collect="always"
       xlink:href="#linearGradient29"
       id="linearGradient30"
       x1="30.782633"
       y1="60"
       x2="30.193521"
       y2="5"
       gradientUnits="userSpaceOnUse"
       gradientTransform="matrix(0.98214286,0,0,0.98245614,-0.42857152,-0.92982455)" />
  </defs>
  <sodipodi:namedview
     id="namedview29"
     pagecolor="#ffffff"
     bordercolor="#000000"
     borderopacity="0.25"
     inkscape:showpageshadow="2"
     inkscape:pageopacity="0.0"
     inkscape:pagecheckerboard="0"
     inkscape:deskcolor="#d1d1d1"
     inkscape:zoom="7.0710678"
     inkscape:cx="20.364675"
     inkscape:cy="25.385133"
     inkscape:window-width="1920"
     inkscape:window-height="996"
     inkscape:window-x="0"
     inkscape:window-y="0"
     inkscape:window-maximized="1"
     inkscape:current-layer="svg29" />
  <rect
     style="opacity:0.2;stroke-width:0.9823"
     width="55"
     height="55.017544"
     x="3.5"
     y="3.9824562"
     ry="13.754386"
     id="rect1" />
  <rect
     style="fill:url(#linearGradient30);stroke-width:0.9823"
     width="55"
     height="55.017544"
     x="3.5"
     y="3"
     ry="13.754386"
     id="rect2" />
  <path
     style="opacity:0.1;fill:#ffffff;stroke-width:0.9823"
     d="M 17.25,3 C 9.6324999,3 3.4999999,9.1344561 3.4999999,16.754386 v 0.982456 c 0,-7.61993 6.1325,-13.7543858 13.7500001,-13.7543858 h 27.5 c 7.6175,0 13.75,6.1344558 13.75,13.7543858 V 16.754386 C 58.5,9.1344561 52.3675,3 44.75,3 Z"
     id="path28" />
  <g
     id="g1"
     transform="matrix(1.125,0,0,1.1128071,-1.0459406,-3.0157505)">
    <path
       style="opacity:0.1"
       d="m 17.354816,12.23948 c -1.07135,2.265426 -1.74713,4.666291 -1.804696,7.269646 H 13.518779 V 22.8385 c 0,2.893202 -0.105788,2.694778 0.625004,2.361994 2.709793,-1.234654 6.373368,1.170634 6.373374,4.343776 0,1.563304 -0.376114,2.318488 -2.106786,4.247422 -2.97061,3.310936 -3.075342,3.962054 -1.218754,7.445356 1.792484,3.363058 4.461786,5.904998 8.458382,8.049528 l 2.786476,1.492196 2.875018,-1.453134 c 4.054016,-2.04646 8.807186,-7.36088 10.153704,-10.708398 l -0.708338,-2.234388 c 0.0194,0.06104 -0.254114,-0.508424 -0.632816,-1.059902 -0.0425,-0.06188 -0.10836,-0.13392 -0.15364,-0.19792 -0.522976,0.48246 -1.135288,1.54521 -1.890638,3.106788 -1.71675,3.549124 -4.193384,6.153942 -7.403688,7.791712 l -2.190126,0.997402 V 21.158804 c 4.049702,1.127958 8.330274,1.095504 12.377678,1.947928 l 0.39323,2.015638 c 0.442692,0.02512 1.301363,0.10882 1.738775,0.330732 0.19886,0.0928 0.379656,0.206464 0.557294,0.322916 v -6.266892 h -1.931299 c -0.05756,-2.603355 -0.733344,-5.00422 -1.804696,-7.269646 l -7.23981,5.541699 0.500002,0.760422 -4.591172,-1.036465 -4.891515,1.036465 0.500004,-0.760422 z m 23.917673,14.17196 c -0.695274,-0.063 -1.26788,0.316412 -1.820326,0.638024 -2.013874,1.496904 -1.928352,3.046352 0.312504,5.63545 1.05652,1.220722 2.075484,2.703402 2.263034,3.29429 l 0.341146,1.072922 0.875006,-1.080736 c 2.12451,-2.623652 1.39745,-8.13282 -1.231778,-9.330784 -0.262798,-0.13774 -0.507828,-0.208166 -0.739586,-0.229166 z m -25.047024,0.0573 c -0.414262,-0.04568 -0.825449,0.03482 -1.273446,0.17186 -2.577161,1.174242 -3.314917,6.212476 -1.348965,9.216202 l 0.765628,1.166672 0.726567,-1.408862 c 0.400253,-0.77509 1.469728,-2.238462 2.377618,-3.25262 1.970482,-2.201108 1.983678,-3.867172 0.03906,-5.31253 -0.455194,-0.363136 -0.872202,-0.535052 -1.286464,-0.580728 z"
       id="path2" />
    <path
       style="fill:#f2f2f2;fill-opacity:1"
       d="m 17.354816,11.239126 c -1.07135,2.265426 -1.74713,4.666291 -1.804696,7.269646 h -2.031341 v 3.329374 c 0,2.893202 -0.105788,2.694778 0.625004,2.361994 2.709793,-1.234654 6.373368,1.170634 6.373374,4.343776 0,1.563304 -0.376114,2.318488 -2.106786,4.247422 -2.97061,3.310936 -3.075342,3.962054 -1.218754,7.445356 1.792484,3.363058 4.461786,5.904998 8.458382,8.049528 l 2.786476,1.492196 2.875018,-1.453134 c 4.054016,-2.04646 8.807186,-7.36088 10.153704,-10.708398 l -0.708338,-2.234388 c 0.0194,0.06104 -0.254114,-0.508424 -0.632816,-1.059902 -0.0425,-0.06188 -0.10836,-0.13392 -0.15364,-0.19792 -0.522976,0.48246 -1.135288,1.54521 -1.890638,3.106788 -1.71675,3.549124 -4.193384,6.153942 -7.403688,7.791712 l -2.190126,0.997402 V 20.15845 c 4.049702,1.127958 8.330274,1.095504 12.377678,1.947928 l 0.39323,2.015638 c 0.442692,0.02512 1.301363,0.10882 1.738775,0.330732 0.19886,0.0928 0.379656,0.206464 0.557294,0.322916 v -6.266892 h -1.931299 c -0.05756,-2.603355 -0.733344,-5.00422 -1.804696,-7.269646 l -7.23981,5.541699 0.500002,0.760422 -4.591172,-1.036465 -4.891515,1.036465 0.500004,-0.760422 z m 23.917673,14.17196 c -0.695274,-0.063 -1.26788,0.316412 -1.820326,0.638024 -2.013874,1.496904 -1.928352,3.046352 0.312504,5.63545 1.05652,1.220722 2.075484,2.703402 2.263034,3.29429 l 0.341146,1.072922 0.875006,-1.080736 c 2.12451,-2.623652 1.39745,-8.13282 -1.231778,-9.330784 -0.262798,-0.13774 -0.507828,-0.208166 -0.739586,-0.229166 z m -25.047024,0.0573 c -0.414262,-0.04568 -0.825449,0.03482 -1.273446,0.17186 -2.577161,1.174242 -3.314917,6.212476 -1.348965,9.216202 l 0.765628,1.166672 0.726567,-1.408862 c 0.400253,-0.77509 1.469728,-2.238462 2.377618,-3.25262 1.970482,-2.201108 1.983678,-3.867172 0.03906,-5.31253 -0.455194,-0.363136 -0.872202,-0.535052 -1.286464,-0.580728 z"
       id="path3" />
  </g>
</svg>
