<?xml version="1.0" encoding="UTF-8" standalone="no"?>
<svg
   width="62"
   height="62"
   version="1.1"
   id="svg9"
   sodipodi:docname="kopete.svg"
   inkscape:version="1.4 (unknown)"
   xmlns:inkscape="http://www.inkscape.org/namespaces/inkscape"
   xmlns:sodipodi="http://sodipodi.sourceforge.net/DTD/sodipodi-0.dtd"
   xmlns:xlink="http://www.w3.org/1999/xlink"
   xmlns="http://www.w3.org/2000/svg"
   xmlns:svg="http://www.w3.org/2000/svg">
  <defs
     id="defs9">
    <linearGradient
       id="linearGradient11"
       inkscape:collect="always">
      <stop
         style="stop-color:#b1d7fc;stop-opacity:1;"
         offset="0"
         id="stop11" />
      <stop
         style="stop-color:#e9f4fe;stop-opacity:1;"
         offset="1"
         id="stop12" />
    </linearGradient>
    <linearGradient
       id="linearGradient9"
       inkscape:collect="always">
      <stop
         style="stop-color:#2f74c8;stop-opacity:1;"
         offset="0"
         id="stop9" />
      <stop
         style="stop-color:#5a93d8;stop-opacity:1;"
         offset="1"
         id="stop10" />
    </linearGradient>
    <linearGradient
       inkscape:collect="always"
       xlink:href="#linearGradient9"
       id="linearGradient10"
       x1="353.18683"
       y1="548.62384"
       x2="353.94061"
       y2="505.14484"
       gradientUnits="userSpaceOnUse"
       gradientTransform="matrix(1.177637,0,0,1.1800365,-387.48736,-591.33934)" />
    <linearGradient
       inkscape:collect="always"
       xlink:href="#linearGradient11"
       id="linearGradient12"
       x1="365.37393"
       y1="548.62384"
       x2="368.52997"
       y2="525.96381"
       gradientUnits="userSpaceOnUse"
       gradientTransform="matrix(1.177637,0,0,1.1800365,-387.48736,-591.33934)" />
  </defs>
  <sodipodi:namedview
     id="namedview9"
     pagecolor="#ffffff"
     bordercolor="#000000"
     borderopacity="0.25"
     inkscape:showpageshadow="2"
     inkscape:pageopacity="0.0"
     inkscape:pagecheckerboard="0"
     inkscape:deskcolor="#d1d1d1"
     inkscape:zoom="7.7916667"
     inkscape:cx="26.695187"
     inkscape:cy="40.363636"
     inkscape:window-width="1920"
     inkscape:window-height="996"
     inkscape:window-x="0"
     inkscape:window-y="0"
     inkscape:window-maximized="1"
     inkscape:current-layer="svg9" />
  <linearGradient
     id="a"
     x1="355.73465"
     x2="355.6907"
     y1="546.99841"
     y2="505.32748"
     gradientUnits="userSpaceOnUse">
    <stop
       stop-color="#2f74c8"
       offset="0"
       id="stop1" />
    <stop
       stop-color="#4aa2e4"
       offset="1"
       id="stop2" />
  </linearGradient>
  <linearGradient
     id="b"
     x1="373.44516"
     x2="373.44516"
     y1="546.79541"
     y2="507.86609"
     gradientTransform="matrix(-0.56777405,0,0,0.61822428,579.27321,212.13023)"
     gradientUnits="userSpaceOnUse">
    <stop
       stop-color="#b1d7fc"
       offset="0"
       id="stop3" />
    <stop
       stop-color="#f4fcff"
       offset="1"
       id="stop4" />
  </linearGradient>
  <path
     d="M 51.446166,11.665518 C 45.977502,7.2058892 38.716263,4.7499972 31.000174,4.7499972 c -7.716231,0 -14.977482,2.4560572 -20.446016,6.9155208 -5.5162284,4.498347 -8.554155,10.493451 -8.554155,16.881154 0,6.096659 2.7691663,11.834704 7.8172722,16.255782 -0.091031,0.205149 -0.1632676,0.420978 -0.2093839,0.647887 L 7.949166,53.626023 c -0.1972306,0.971642 0.067832,1.551029 0.3246392,1.866181 0.2969294,0.364006 0.7370359,0.5646 1.2393688,0.5646 0.3792815,0 0.786909,-0.112103 1.211659,-0.333372 l 9.647826,-5.022365 c 3.340262,1.077338 6.93123,1.642257 10.627315,1.642257 7.716266,0 14.977317,-2.45601 20.446039,-6.915486 5.516063,-4.498205 8.55399,-10.493321 8.55399,-16.881012 0,-6.387857 -3.037785,-12.382961 -8.553849,-16.881308 z"
     id="path4"
     style="fill:url(#linearGradient10);stroke-width:1.17884" />
  <path
     d="m 34.875,33.082166 c 2.734344,-2.427949 6.364963,-3.765001 10.222984,-3.765001 3.858104,0 7.488735,1.337135 10.222996,3.765001 2.758097,2.449012 4.277072,5.712911 4.277072,9.190561 0,3.319195 -1.384595,6.443106 -3.908648,8.850085 0.04569,0.111749 0.08173,0.229198 0.104692,0.352725 l 0.829351,4.451062 c 0.09857,0.528999 -0.0338,0.844434 -0.162373,1.016011 -0.148547,0.198164 -0.368529,0.307388 -0.619684,0.307388 -0.189647,0 -0.393449,-0.06101 -0.605824,-0.181513 l -4.823919,-2.734286 c -1.670124,0.586525 -3.465597,0.894066 -5.313651,0.894066 -3.858104,0 -7.488652,-1.337111 -10.222984,-3.764977 -2.758026,-2.448942 -4.277001,-5.712852 -4.277001,-9.190478 0,-3.477733 1.518892,-6.741632 4.276918,-9.190644 z"
     id="path6"
     style="fill:url(#linearGradient12);stroke-width:1.17884" />
  <ellipse
     cx="39.055832"
     cy="42.240723"
     opacity="0.837"
     id="circle6"
     style="fill:#2a7fff;fill-opacity:0.85;stroke-width:1.17884"
     rx="2.6344812"
     ry="2.6398492" />
  <ellipse
     cx="45.062397"
     cy="42.240723"
     opacity="0.837"
     id="circle7"
     style="fill:#2a7fff;fill-opacity:0.85;stroke-width:1.17884"
     rx="2.6344812"
     ry="2.6398492" />
  <ellipse
     cx="51.374405"
     cy="42.240723"
     opacity="0.837"
     id="circle8"
     style="fill:#2a7fff;fill-opacity:0.85;stroke-width:1.17884"
     rx="2.6344812"
     ry="2.6398492" />
</svg>
