<?xml version="1.0" encoding="UTF-8" standalone="no"?>
<svg
   width="62"
   height="62"
   version="1.1"
   id="svg29"
   sodipodi:docname="hivelytracker.svg"
   inkscape:version="1.4 (unknown)"
   xmlns:inkscape="http://www.inkscape.org/namespaces/inkscape"
   xmlns:sodipodi="http://sodipodi.sourceforge.net/DTD/sodipodi-0.dtd"
   xmlns:xlink="http://www.w3.org/1999/xlink"
   xmlns="http://www.w3.org/2000/svg"
   xmlns:svg="http://www.w3.org/2000/svg">
  <defs
     id="defs29">
    <linearGradient
       id="linearGradient29"
       inkscape:collect="always">
      <stop
         style="stop-color:#2d3d53;stop-opacity:1;"
         offset="0"
         id="stop29" />
      <stop
         style="stop-color:#354864;stop-opacity:1;"
         offset="1"
         id="stop30" />
    </linearGradient>
    <linearGradient
       inkscape:collect="always"
       xlink:href="#linearGradient29"
       id="linearGradient30"
       x1="30.782633"
       y1="60"
       x2="30.193521"
       y2="5"
       gradientUnits="userSpaceOnUse"
       gradientTransform="matrix(0.98214286,0,0,0.98245614,-0.42857152,-0.92982455)" />
  </defs>
  <sodipodi:namedview
     id="namedview29"
     pagecolor="#ffffff"
     bordercolor="#000000"
     borderopacity="0.25"
     inkscape:showpageshadow="2"
     inkscape:pageopacity="0.0"
     inkscape:pagecheckerboard="0"
     inkscape:deskcolor="#d1d1d1"
     inkscape:zoom="7.0710678"
     inkscape:cx="20.364675"
     inkscape:cy="48.012551"
     inkscape:window-width="1920"
     inkscape:window-height="996"
     inkscape:window-x="0"
     inkscape:window-y="0"
     inkscape:window-maximized="1"
     inkscape:current-layer="svg29" />
  <rect
     style="opacity:0.2;stroke-width:0.9823"
     width="55"
     height="55.017544"
     x="3.5"
     y="3.9824562"
     ry="13.754386"
     id="rect1" />
  <rect
     style="fill:url(#linearGradient30);stroke-width:0.9823"
     width="55"
     height="55.017544"
     x="3.5"
     y="3"
     ry="13.754386"
     id="rect2" />
  <path
     style="opacity:0.1;fill:#ffffff;stroke-width:0.9823"
     d="M 17.25,3 C 9.6324999,3 3.4999999,9.1344561 3.4999999,16.754386 v 0.982456 c 0,-7.61993 6.1325,-13.7543858 13.7500001,-13.7543858 h 27.5 c 7.6175,0 13.75,6.1344558 13.75,13.7543858 V 16.754386 C 58.5,9.1344561 52.3675,3 44.75,3 Z"
     id="path28" />
  <path
     d="M 13.357147,17.000005 C 12.605283,17.000005 12,17.624403 12,18.40001 v 25.199979 c 0,0.77558 0.605283,1.40002 1.357147,1.40002 h 4.071423 c 0.75186,0 1.357147,-0.62444 1.357147,-1.40002 V 32.399998 h 5.428566 v 11.199991 c 0,0.77558 0.605287,1.40002 1.357147,1.40002 h 4.071423 C 30.394717,45.000009 31,44.375569 31,43.599989 V 18.40001 c 0,-0.775607 -0.605283,-1.400005 -1.357147,-1.400005 H 25.57143 c -0.75186,0 -1.357147,0.624398 -1.357147,1.400005 v 8.399994 h -5.428566 v -8.399993 c 0,-0.775607 -0.605287,-1.400005 -1.357147,-1.400005 z m 21.714283,0 c -0.75186,0 -1.357147,0.624398 -1.357147,1.400005 v 25.199979 c 0,0.77558 0.605287,1.40002 1.357147,1.40002 H 48.642853 C 49.394717,45.000009 50,44.375569 50,43.599989 v -6.999995 c 0,-0.775596 -0.605283,-1.400005 -1.357147,-1.400005 H 40.5 v -2.799991 h 8.142853 C 49.394717,32.399998 50,31.775597 50,31 v -2.799999 c 0,-0.775599 -0.605283,-1.399997 -1.357147,-1.399997 H 40.5 v -8.399993 c 0,-0.775607 -0.605283,-1.400005 -1.357147,-1.400005 z"
     fill-rule="nonzero"
     id="path3-3"
     style="stroke-width:1.37842;fill:#e9f9fc;fill-opacity:1" />
</svg>
