<?xml version="1.0" encoding="UTF-8" standalone="no"?>
<svg
   width="62"
   height="62"
   version="1.1"
   id="svg8"
   sodipodi:docname="hubstaff-color.svg"
   inkscape:version="1.4 (unknown)"
   xmlns:inkscape="http://www.inkscape.org/namespaces/inkscape"
   xmlns:sodipodi="http://sodipodi.sourceforge.net/DTD/sodipodi-0.dtd"
   xmlns="http://www.w3.org/2000/svg"
   xmlns:svg="http://www.w3.org/2000/svg">
  <defs
     id="defs8" />
  <sodipodi:namedview
     id="namedview8"
     pagecolor="#ffffff"
     bordercolor="#000000"
     borderopacity="0.25"
     inkscape:showpageshadow="2"
     inkscape:pageopacity="0.0"
     inkscape:pagecheckerboard="0"
     inkscape:deskcolor="#d1d1d1"
     inkscape:zoom="10"
     inkscape:cx="27.95"
     inkscape:cy="37.95"
     inkscape:window-width="1920"
     inkscape:window-height="996"
     inkscape:window-x="0"
     inkscape:window-y="0"
     inkscape:window-maximized="1"
     inkscape:current-layer="svg8" />
  <g
     id="g8"
     transform="matrix(0.98214285,0,0,0.98245614,-0.4285711,-0.92982447)">
    <path
       style="opacity:0.2"
       d="M 4.363444,42.65065 C 4.163549,42.444132 3.9999998,38.698848 3.9999998,34.327798 v -7.947364 l 2.56088,-1.13631 c 4.3730632,-1.9404 6.2916742,-5.07564 5.6576132,-9.717117 -0.153308,-1.122192 -0.119915,-2.298225 0.07433,-2.613409 0.454259,-0.737464 12.89216,-7.9136116 13.73022,-7.9136116 0.348674,0 0.844196,0.2734858 1.101162,0.607747 1.64843,2.144239 3.33204,10.2392496 2.762788,13.2837496 -0.256162,1.369949 -0.653062,1.736845 -2.844104,2.629083 -3.087204,1.257166 -5.677788,3.818178 -7.074633,6.993874 -0.837293,1.903552 -1.007373,3.084888 -0.871942,6.056212 l 0.168246,3.69137 -1.619857,1.097152 C 14.152154,41.724704 5.5344618,43.860428 4.363511,42.65065 Z"
       id="path1" />
    <path
       style="opacity:0.2"
       d="M 59.636556,42.65065 C 59.836456,42.444132 60,38.698848 60,34.327798 v -7.947364 l -2.56088,-1.13631 c -4.373064,-1.9404 -6.153794,-5.07564 -5.519734,-9.717117 0.1533,-1.122192 0.11992,-2.298225 -0.07432,-2.613409 C 51.3908,12.176134 38.81502,4.9999864 37.97696,4.9999864 c -0.348676,0 -0.844194,0.2734858 -1.10116,0.607747 -1.64843,2.144239 -3.33204,10.2392496 -2.762788,13.2837496 0.256158,1.369949 0.65306,1.736845 2.844104,2.629083 3.087202,1.257166 5.677786,3.818178 7.07463,6.993874 0.837294,1.903552 1.007374,3.084888 0.871942,6.056212 l -0.16824,3.69137 1.619858,1.097152 c 3.49255,2.36553 12.110244,4.501254 13.281192,3.291476 z"
       id="path2" />
    <path
       style="opacity:0.2"
       d="m 17.273671,57.509472 c -7.253104,-4.317752 -7.559294,-4.584054 -7.162861,-6.23032 0.39291,-1.63166 6.321181,-7.437794 9.224332,-9.034268 L 21.598928,41 l 2.062134,1.702308 c 2.596936,2.143798 4.983514,3.039436 8.175368,3.068064 3.203594,0.02874 5.251982,-0.707332 8.238554,-2.960424 l 2.395718,-1.807348 2.26904,1.234828 c 1.247978,0.679156 3.890178,2.878334 5.871566,4.887062 4.975094,5.043732 4.964228,5.076276 -3.35418,10.055744 -2.315082,1.385828 -4.46579,2.61159 -5.806686,3.321396 -1.479338,0.964222 -1.65628,0.284776 -2.49663,-0.729932 C 37.717236,58.507926 35.429388,56.999986 32,56.999986 c -3.738722,0 -5.993842,1.82439 -7.054764,3.10204 -0.759248,1.373536 -1.218474,0.88194 -2.255952,0.414988 -1.32111,-0.65611 -3.322025,-1.761238 -5.415613,-3.007542 z"
       id="path3" />
    <path
       style="fill:#ffb380"
       d="m 17.273671,56.509486 c -7.253104,-4.317752 -7.559294,-4.584054 -7.162861,-6.23032 0.39291,-1.63166 6.321181,-7.437794 9.224332,-9.034268 l 2.263786,-1.244884 2.062134,1.702308 c 2.596936,2.143798 4.983514,3.039436 8.175368,3.068064 3.203594,0.02874 5.251982,-0.707332 8.238554,-2.960424 l 2.395718,-1.807348 2.26904,1.234828 c 1.247978,0.679156 3.890178,2.878334 5.871566,4.887062 4.975094,5.043732 4.964228,5.076276 -3.35418,10.055744 -2.315082,1.385828 -4.46579,2.61159 -5.806686,3.321396 -1.479338,0.964222 -1.65628,0.284776 -2.49663,-0.729932 C 37.717236,57.50794 35.429388,56 32,56 c -3.738722,0 -5.993842,1.82439 -7.054764,3.10204 -0.759248,1.373536 -1.218474,0.88194 -2.255952,0.414988 -1.32111,-0.65611 -3.322025,-1.761238 -5.415613,-3.007542 z"
       id="path4" />
    <path
       style="fill:#aa87de"
       d="M 4.363444,41.650664 C 4.163549,41.444146 3.9999998,37.698862 3.9999998,33.327812 v -7.947364 l 2.56088,-1.13631 c 4.3730632,-1.9404 6.2916742,-5.075641 5.6576132,-9.717117 -0.153308,-1.122192 -0.119915,-2.298225 0.07433,-2.613409 C 12.747085,11.176147 25.184986,4 26.023046,4 c 0.348674,0 0.844196,0.2734858 1.101162,0.607747 1.64843,2.144239 3.33204,10.239249 2.762788,13.28375 -0.256162,1.369948 -0.653062,1.736845 -2.844104,2.629083 -3.087204,1.257166 -5.677788,3.818178 -7.074633,6.993874 -0.837293,1.903552 -1.007373,3.084888 -0.871942,6.056212 l 0.168246,3.69137 -1.619857,1.097152 c -3.492552,2.36553 -12.1102442,4.501254 -13.281195,3.291476 z"
       id="path5" />
    <path
       style="fill:#66beff;fill-opacity:1"
       d="M 59.636556,41.650664 C 59.836456,41.444146 60,37.698862 60,33.327812 v -7.947364 l -2.56088,-1.13631 c -4.373064,-1.9404 -6.153794,-5.075641 -5.519734,-9.717117 0.15331,-1.122192 0.119916,-2.298225 -0.07433,-2.613409 C 51.390792,11.176147 38.815012,4 37.976952,4 c -0.348676,0 -0.844194,0.2734858 -1.10116,0.607747 -1.64843,2.144239 -3.33204,10.239249 -2.762788,13.28375 0.256158,1.369948 0.65306,1.736845 2.844104,2.629083 3.087202,1.257166 5.677786,3.818178 7.07463,6.993874 0.837294,1.903552 1.007374,3.084888 0.871942,6.056212 l -0.16824,3.69137 1.619858,1.097152 c 3.49255,2.36553 12.110244,4.501254 13.281192,3.291476 z"
       id="path6" />
    <circle
       style="opacity:0.2"
       cx="32"
       cy="33"
       r="14"
       id="circle6" />
    <circle
       style="fill:#f2f2f2;fill-opacity:1"
       cx="32"
       cy="32"
       r="14"
       id="circle7" />
    <path
       style="opacity:0.2;fill:#ffffff"
       d="m 26.023438,4 c -0.838061,0 -13.276207,7.176597 -13.730469,7.914062 -0.1475,0.239335 -0.199707,0.975051 -0.150391,1.806641 0.02287,-0.369045 0.0687,-0.674084 0.150391,-0.806641 C 12.747231,12.176597 25.185377,5 26.023438,5 26.372111,5 26.868034,5.2731607 27.125,5.6074219 28.506577,7.4045442 29.894546,13.35271 29.978516,17.033203 30.174951,13.544858 28.637811,6.5752507 27.125,4.6074219 26.868034,4.2731607 26.372111,4 26.023438,4 Z M 12.318359,16.685547 c -0.16753,3.474497 -2.10177,5.936348 -5.7578121,7.558594 L 4,25.380859 v 1 l 2.5605469,-1.136718 c 3.9973261,-1.77368 5.9370911,-4.550411 5.7578121,-8.558594 z m 6.75586,15.744141 c -0.01938,0.614084 -0.0171,1.294017 0.02148,2.140624 l 0.123047,2.720704 0.04492,-0.0293 -0.167969,-3.691407 c -0.01999,-0.438635 -0.01597,-0.771924 -0.02148,-1.140624 z"
       id="path7" />
    <path
       style="opacity:0.2;fill:#ffffff"
       d="M 37.976562,4 C 37.627887,4 37.131966,4.2731607 36.875,4.6074219 35.362189,6.5752507 33.825049,13.544858 34.021484,17.033203 34.105454,13.35271 35.493423,7.4045442 36.875,5.6074219 37.131966,5.2731607 37.627887,5 37.976562,5 c 0.83806,0 13.414877,7.176597 13.869141,7.914062 0.08231,0.133556 0.127811,0.441354 0.150391,0.814454 0.0501,-0.834701 -0.0024,-1.57439 -0.150391,-1.814454 C 51.391439,11.176597 38.814622,4 37.976562,4 Z M 51.8125,16.773438 c -0.16802,3.960762 1.658966,6.710042 5.626953,8.470703 L 60,26.380859 v -1 L 57.439453,24.244141 C 53.814094,22.635509 51.975726,20.201858 51.8125,16.773438 Z m -6.886719,15.65625 c -0.0055,0.3687 -0.0015,0.701989 -0.02148,1.140624 l -0.167969,3.691407 0.04492,0.0293 0.123047,-2.720704 c 0.03859,-0.846607 0.04087,-1.52654 0.02148,-2.140624 z"
       id="path8" />
  </g>
</svg>
