<?xml version="1.0" encoding="UTF-8" standalone="no"?>
<svg
   width="62"
   height="62"
   version="1.1"
   id="svg3"
   sodipodi:docname="hubstaff-black.svg"
   inkscape:version="1.4 (unknown)"
   xmlns:inkscape="http://www.inkscape.org/namespaces/inkscape"
   xmlns:sodipodi="http://sodipodi.sourceforge.net/DTD/sodipodi-0.dtd"
   xmlns="http://www.w3.org/2000/svg"
   xmlns:svg="http://www.w3.org/2000/svg">
  <defs
     id="defs3" />
  <sodipodi:namedview
     id="namedview3"
     pagecolor="#ffffff"
     bordercolor="#000000"
     borderopacity="0.25"
     inkscape:showpageshadow="2"
     inkscape:pageopacity="0.0"
     inkscape:pagecheckerboard="0"
     inkscape:deskcolor="#d1d1d1"
     inkscape:zoom="7.0710678"
     inkscape:cx="15.061374"
     inkscape:cy="37.405949"
     inkscape:window-width="1920"
     inkscape:window-height="996"
     inkscape:window-x="0"
     inkscape:window-y="0"
     inkscape:window-maximized="1"
     inkscape:current-layer="svg3" />
  <g
     id="g3"
     transform="matrix(0.98214286,0,0,0.98245554,-0.42857152,-0.92982203)">
    <path
       style="opacity:0.2"
       d="m 26.023438,5 c -0.83806,0 -13.27621,7.176599 -13.730469,7.914062 -0.194245,0.315184 -0.227527,1.49109 -0.07422,2.613282 0.634061,4.641477 -1.28514,7.776397 -5.6582031,9.716797 L 4,26.380859 v 7.947266 c 0,4.37105 0.1633862,8.115748 0.3632812,8.322266 1.1709508,1.209778 9.7887008,-0.925486 13.2812498,-3.291016 l 1.619141,-1.097656 -0.167969,-3.691407 c -0.135431,-2.971324 0.03575,-4.153088 0.873047,-6.05664 1.396845,-3.175696 3.987015,-5.735022 7.074219,-6.992188 2.191042,-0.892238 2.587588,-1.26091 2.84375,-2.630859 C 30.455971,15.846125 28.77343,7.7516609 27.125,5.6074219 26.868034,5.2731607 26.372111,5 26.023438,5 Z M 37.976562,5 C 37.627887,5 37.131966,5.2731607 36.875,5.6074219 35.22657,7.7516609 33.544029,15.846125 34.113281,18.890625 c 0.256158,1.369949 0.652706,1.738621 2.84375,2.630859 3.087202,1.257166 5.677375,3.816492 7.074219,6.992188 0.837294,1.903552 1.008479,3.085316 0.873047,6.05664 l -0.167969,3.691407 1.619141,1.097656 c 3.49255,2.36553 12.110302,4.500794 13.28125,3.291016 C 59.836619,42.443873 60,38.699175 60,34.328125 v -7.947266 l -2.560547,-1.136718 c -4.373064,-1.9404 -6.153591,-5.07532 -5.519531,-9.716797 0.1533,-1.122192 0.120021,-2.298098 -0.07422,-2.613282 C 51.391437,12.176598 38.814622,5 37.976562,5 Z m -16.376953,36 -2.263671,1.244141 c -2.903151,1.596474 -8.8317,7.403496 -9.22461,9.035156 -0.3964329,1.646266 -0.09099,1.912717 7.16211,6.230469 2.093588,1.246304 4.094905,2.351702 5.416015,3.007812 1.037478,0.466952 1.496612,0.957521 2.255859,-0.416016 C 26.006234,58.823912 28.261278,57 32,57 c 3.429388,0 5.716549,1.507712 6.953125,2.771484 0.84035,1.014708 1.018709,1.694691 2.498047,0.730469 1.340896,-0.709806 3.491559,-1.936437 5.80664,-3.322265 8.318408,-4.979469 8.32861,-5.010956 3.353516,-10.054688 -1.981388,-2.008728 -4.623116,-4.207563 -5.871094,-4.886719 l -2.269531,-1.236328 -2.396484,1.808594 c -2.986572,2.253092 -5.034687,2.987724 -8.238281,2.958984 -3.191854,-0.02863 -5.578846,-0.922608 -8.175782,-3.066406 z"
       id="path1" />
    <path
       style="fill:#2d3f53;fill-opacity:1"
       d="m 26.023438,4 c -0.838061,0 -13.276207,7.176597 -13.730469,7.914062 -0.194245,0.315185 -0.227527,1.49109 -0.07422,2.613282 0.634061,4.641476 -1.28514,7.776397 -5.6582031,9.716797 L 4,25.380859 v 7.947266 c 0,4.37105 0.1633862,8.115748 0.3632812,8.322266 1.1709508,1.209778 9.7886978,-0.925486 13.2812498,-3.291016 l 1.619141,-1.097656 -0.167969,-3.691407 c -0.135431,-2.971324 0.03575,-4.153088 0.873047,-6.05664 1.396845,-3.175696 3.987015,-5.735022 7.074219,-6.992188 2.191042,-0.892238 2.587588,-1.260911 2.84375,-2.630859 C 30.455971,14.846124 28.77343,6.7516609 27.125,4.6074219 26.868034,4.2731607 26.372111,4 26.023438,4 Z M 37.976562,4 C 37.627887,4 37.131966,4.2731607 36.875,4.6074219 35.22657,6.7516609 33.544029,14.846124 34.113281,17.890625 c 0.256158,1.369948 0.652706,1.738621 2.84375,2.630859 3.087202,1.257166 5.677375,3.816492 7.074219,6.992188 0.837294,1.903552 1.008479,3.085316 0.873047,6.05664 l -0.167969,3.691407 1.619141,1.097656 c 3.49255,2.36553 12.110302,4.500794 13.28125,3.291016 C 59.836619,41.443873 60,37.699175 60,33.328125 v -7.947266 l -2.560547,-1.136718 c -4.373064,-1.9404 -6.153591,-5.075321 -5.519531,-9.716797 0.15331,-1.122192 0.120027,-2.298097 -0.07422,-2.613282 C 51.391439,11.176597 38.814622,4 37.976562,4 Z m -16.376953,36 -2.263671,1.244141 c -2.903151,1.596474 -8.8317,7.403496 -9.22461,9.035156 -0.3964329,1.646266 -0.09099,1.912717 7.16211,6.230469 2.093588,1.246304 4.094905,2.351702 5.416015,3.007812 1.037478,0.466952 1.496612,0.957521 2.255859,-0.416016 C 26.006234,57.823912 28.261278,56 32,56 c 3.429388,0 5.716549,1.507712 6.953125,2.771484 0.84035,1.014708 1.018709,1.694691 2.498047,0.730469 1.340896,-0.709806 3.491559,-1.936437 5.80664,-3.322265 C 55.57622,51.20022 55.586422,51.168732 50.611328,46.125 48.62994,44.116272 45.988212,41.917437 44.740234,41.238281 l -2.269531,-1.236328 -2.396484,1.808594 c -2.986572,2.253092 -5.034687,2.987724 -8.238281,2.958984 -3.191854,-0.02863 -5.578846,-0.922608 -8.175782,-3.066406 z"
       id="path2" />
    <circle
       style="opacity:0.2"
       cx="32"
       cy="33"
       r="14"
       id="circle2" />
    <circle
       style="fill:#f2f2f2;fill-opacity:1"
       cx="32"
       cy="32"
       r="14"
       id="circle3" />
    <path
       style="opacity:0.1;fill:#ffffff"
       d="m 26.023438,4 c -0.838061,0 -13.276207,7.176597 -13.730469,7.914062 -0.1475,0.239336 -0.199707,0.975051 -0.150391,1.806641 0.02287,-0.369045 0.0687,-0.674084 0.150391,-0.806641 C 12.747231,12.176597 25.185377,5 26.023438,5 26.372111,5 26.868034,5.2731607 27.125,5.6074219 28.506577,7.4045442 29.894546,13.35271 29.978516,17.033203 30.174951,13.544858 28.637811,6.5752507 27.125,4.6074219 26.868034,4.2731607 26.372111,4 26.023438,4 Z M 37.976562,4 C 37.627887,4 37.131966,4.2731607 36.875,4.6074219 35.362189,6.5752507 33.825049,13.544858 34.021484,17.033203 34.105454,13.35271 35.493423,7.4045442 36.875,5.6074219 37.131966,5.2731607 37.627887,5 37.976562,5 c 0.83806,0 13.414877,7.176597 13.869141,7.914062 0.08231,0.133557 0.127811,0.441354 0.150391,0.814454 0.0501,-0.834701 -0.0024,-1.574389 -0.150391,-1.814454 C 51.391439,11.176597 38.814622,4 37.976562,4 Z M 12.318359,16.685547 c -0.16753,3.474497 -2.10177,5.936348 -5.7578121,7.558594 L 4,25.380859 v 1 l 2.5605469,-1.136718 c 3.9973261,-1.77368 5.9370911,-4.550411 5.7578121,-8.558594 z m 39.494141,0.08789 c -0.16802,3.960762 1.658966,6.710042 5.626953,8.470703 L 60,26.380859 v -1 L 57.439453,24.244141 C 53.814094,22.635509 51.975726,20.201858 51.8125,16.773437 Z m -32.738281,15.65625 c -0.01938,0.614083 -0.0171,1.294018 0.02148,2.140624 l 0.123047,2.720704 0.04492,-0.0293 -0.167969,-3.691407 c -0.01999,-0.438634 -0.01597,-0.771924 -0.02148,-1.140624 z m 25.851562,0 c -0.0055,0.3687 -0.0015,0.70199 -0.02148,1.140624 l -0.167969,3.691407 0.04492,0.0293 0.123047,-2.720704 c 0.03859,-0.846606 0.04087,-1.526541 0.02148,-2.140624 z"
       id="path3" />
  </g>
</svg>
