<?xml version="1.0" encoding="UTF-8" standalone="no"?>
<svg
   width="64"
   height="64"
   version="1"
   id="svg8"
   sodipodi:docname="i-nex.svg"
   inkscape:version="1.4 (unknown)"
   xmlns:inkscape="http://www.inkscape.org/namespaces/inkscape"
   xmlns:sodipodi="http://sodipodi.sourceforge.net/DTD/sodipodi-0.dtd"
   xmlns="http://www.w3.org/2000/svg"
   xmlns:svg="http://www.w3.org/2000/svg">
  <defs
     id="defs8" />
  <sodipodi:namedview
     id="namedview8"
     pagecolor="#ffffff"
     bordercolor="#000000"
     borderopacity="0.25"
     inkscape:showpageshadow="2"
     inkscape:pageopacity="0.0"
     inkscape:pagecheckerboard="0"
     inkscape:deskcolor="#d1d1d1"
     showgrid="false"
     inkscape:zoom="7.0710678"
     inkscape:cx="27.294322"
     inkscape:cy="38.395898"
     inkscape:window-width="1920"
     inkscape:window-height="996"
     inkscape:window-x="0"
     inkscape:window-y="0"
     inkscape:window-maximized="1"
     inkscape:current-layer="svg8">
    <inkscape:grid
       id="grid8"
       units="px"
       originx="0"
       originy="0"
       spacingx="1"
       spacingy="1"
       empcolor="#0099e5"
       empopacity="0.30196078"
       color="#0099e5"
       opacity="0.14901961"
       empspacing="5"
       enabled="true"
       visible="false" />
  </sodipodi:namedview>
  <path
     style="opacity:0.2;stroke-width:0.9823"
     d="m 21.000767,4.9824561 c -9.141,0 -16.5007671,7.3621149 -16.5007671,16.5060309 V 32.491228 43.49397 C 4.4999999,52.637885 11.859767,60 21.000767,60 H 42.999233 C 52.140233,60 59.5,52.637885 59.5,43.49397 V 32.491228 21.488487 C 59.5,12.344571 52.140233,4.9824561 42.999233,4.9824561 Z"
     id="path1" />
  <path
     style="fill:#00d455;fill-opacity:1;stroke-width:0.9823"
     d="m 21,4 h 22 c 9.141,0 16.5,7.361347 16.5,16.505263 V 31.508772 H 4.4999999 V 20.505263 C 4.4999999,11.361347 11.859,4 21,4 Z"
     id="path2" />
  <path
     style="fill:#00d455;fill-opacity:1;stroke-width:0.9823"
     d="m 21,59.017544 h 22 c 9.141,0 16.5,-7.361348 16.5,-16.505263 V 31.508772 H 4.4999999 V 42.512281 C 4.4999999,51.656196 11.859,59.017544 21,59.017544 Z"
     id="path3" />
  <g
     id="g1"
     transform="matrix(1.1570248,0,0,1.1566558,-5.0247936,-4.8358047)">
    <path
       style="fill:#2d3f53;fill-opacity:1;stroke-width:0.9823"
       d="m 21.974286,9.8947368 h 20.137857 c 6.078615,0 11.495,5.5045702 11.495,11.5851232 l 0,19.884913 c 0,6.080554 -5.589242,11.758034 -11.667857,11.758034 H 22.060714 c -6.078615,0 -11.667857,-5.591024 -11.667857,-11.671578 l 0,-19.971369 c 0,-6.080553 5.502814,-11.5851232 11.581429,-11.5851232 z"
       id="path5"
       sodipodi:nodetypes="sssssssss" />
  </g>
  <path
     style="opacity:0.2;fill:#ffffff;stroke-width:0.9823"
     d="m 21.000767,4 c -9.141,0 -16.5007671,7.362115 -16.5007671,16.50603 v 0.982457 c 0,-9.143916 7.3597671,-16.5060309 16.5007671,-16.5060309 h 21.998466 c 9.141,0 16.500767,7.3621149 16.500767,16.5060309 V 20.50603 C 59.5,11.362115 52.140233,4 42.999233,4 Z"
     id="path8" />
  <path
     d="M 6.9,32 32,56.608998 H 20.21 C 13.193673,56.608998 6.9,49.826074 6.9,42.947 Z"
     fill="#ffb923"
     fill-rule="nonzero"
     id="path6"
     style="stroke-width:2.02075"
     sodipodi:nodetypes="ccssc" />
  <text
     xml:space="preserve"
     style="font-size:16.5797px;font-family:'Blush Asliring';-inkscape-font-specification:'Blush Asliring';text-align:start;writing-mode:lr-tb;direction:ltr;text-anchor:start;fill:#ffffff;stroke:#ffffff;stroke-width:0.496611;stroke-linecap:round;stroke-linejoin:round;paint-order:fill markers stroke;fill-opacity:1;stroke-opacity:1"
     x="12.586461"
     y="33.685616"
     id="text1"><tspan
       sodipodi:role="line"
       id="tspan1"
       x="12.586461"
       y="33.685616"
       style="stroke-width:0.496611;fill:#ffffff;fill-opacity:1;stroke:#ffffff;stroke-opacity:1">I-Nex</tspan></text>
</svg>
