<?xml version="1.0" encoding="UTF-8" standalone="no"?>
<svg
   width="62"
   height="62"
   version="1"
   id="svg11"
   sodipodi:docname="ice-store.svg"
   inkscape:version="1.4 (unknown)"
   xmlns:inkscape="http://www.inkscape.org/namespaces/inkscape"
   xmlns:sodipodi="http://sodipodi.sourceforge.net/DTD/sodipodi-0.dtd"
   xmlns="http://www.w3.org/2000/svg"
   xmlns:svg="http://www.w3.org/2000/svg">
  <defs
     id="defs11" />
  <sodipodi:namedview
     id="namedview11"
     pagecolor="#ffffff"
     bordercolor="#000000"
     borderopacity="0.25"
     inkscape:showpageshadow="2"
     inkscape:pageopacity="0.0"
     inkscape:pagecheckerboard="0"
     inkscape:deskcolor="#d1d1d1"
     inkscape:zoom="7.0710678"
     inkscape:cx="30.900566"
     inkscape:cy="42.77996"
     inkscape:window-width="1920"
     inkscape:window-height="996"
     inkscape:window-x="0"
     inkscape:window-y="0"
     inkscape:window-maximized="1"
     inkscape:current-layer="svg11" />
  <g
     id="g11"
     transform="translate(-0.49992175,-1)">
    <path
       style="opacity:0.2;stroke-width:0.981226"
       d="m 31.645362,4.9824516 v 0.0038 A 6.2191006,6.3297736 0 0 0 28.391461,5.8267414 L 10.093072,16.58001 a 6.2191006,6.3297736 0 0 0 -3.0816348,4.973667 c -0.0016,-0.02188 -0.00633,-0.04332 -0.0077,-0.0652 -4.812e-4,0.0082 -0.00335,0.0149 -0.00379,0.02304 0.0025,0.02388 0.00495,0.04908 0.0077,0.07292 1.4e-4,0.0013 -1.418e-4,0.0026 0,0.004 a 6.2191006,6.3297736 0 0 0 -0.0077,0.06901 6.2191006,6.3297736 0 0 0 0.00379,0.02304 c -8.66e-4,0.0155 -0.00319,0.0305 -0.00379,0.04608 v 21.391394 c -3.158e-4,2.235341 1.1851411,4.29751 3.1084228,5.415007 l 18.283084,10.630419 c 0.955209,0.555245 2.042345,0.833033 3.108429,0.836613 1.073096,0 2.146939,-0.277722 3.108434,-0.836621 L 52.891398,48.532797 c 1.923289,-1.117488 3.108746,-3.1835 3.108432,-5.418843 V 21.72638 c -2.46e-4,-0.0066 2.99e-4,-0.0128 0,-0.0193 a 6.2191006,6.3297736 0 0 0 -0.0039,-0.02297 c -0.0018,-0.03228 -0.0018,-0.06368 -0.004,-0.09596 -4.04e-4,0.0054 -0.0034,0.01 -0.004,0.0153 A 6.2191006,6.3297736 0 0 0 52.906712,16.580013 L 34.608324,5.8267476 a 6.2191006,6.3297736 0 0 0 -2.962962,-0.844296 z"
       id="path1" />
    <path
       style="fill:#0f7b9f;stroke-width:0.981226"
       d="m 31.642447,4.687723 v 0.00266 A 6.0636227,6.0989573 0 0 0 28.467304,5.502315 L 10.626896,15.864002 a 6.0636227,6.0989573 0 0 0 -3.0144432,4.890119 6.0636227,6.0989573 0 0 0 0.00277,0.02616 c -4.682e-4,0.0082 -0.00222,0.0157 -0.00277,0.0236 0.00263,0.0245 0.00503,0.04888 0.00794,0.07334 -0.00276,0.0454 -0.00613,0.09078 -0.00794,0.136188 v 20.854364 c -3.074e-4,2.179456 1.154787,4.193444 3.0299922,5.282998 L 28.4699,57.512472 c 0.931333,0.541368 1.990557,0.813716 3.029989,0.817202 1.04627,0 2.092538,-0.272277 3.029995,-0.817202 L 52.357337,47.150779 c 1.875208,-1.089554 3.030302,-3.103542 3.029993,-5.282998 V 21.013425 c -0.0018,-0.04546 -0.0052,-0.09084 -0.008,-0.136188 a 6.0636227,6.0989573 0 0 0 0.008,-0.07334 6.0636227,6.0989573 0 0 0 -3.014439,-4.939882 L 34.532474,5.5023056 A 6.0636227,6.0989573 0 0 0 31.642447,4.687723 Z m 23.64898,16.839072 c -0.01118,0.06062 -0.02334,0.120629 -0.03625,0.180732 a 6.0636227,6.0989573 0 0 0 0.03625,-0.180732 z m -0.178848,0.715051 c -0.01316,0.0417 -0.02242,0.08444 -0.03625,0.125738 a 6.0636227,6.0989573 0 0 0 0.03625,-0.125738 z m -0.624664,1.382957 c -0.03027,0.0491 -0.06432,0.0958 -0.09591,0.144064 a 6.0636227,6.0989573 0 0 0 0.09591,-0.144064 z m -0.399159,0.568376 c -0.04423,0.05638 -0.09117,0.11019 -0.137376,0.165012 a 6.0636227,6.0989573 0 0 0 0.137376,-0.165012 z m -0.44063,0.50027 c -0.06019,0.06146 -0.121126,0.121747 -0.184028,0.180737 a 6.0636227,6.0989573 0 0 0 0.184028,-0.180737 z m -0.520985,0.471463 c -0.06441,0.05212 -0.127693,0.104968 -0.194392,0.154541 a 6.0636227,6.0989573 0 0 0 0.194392,-0.154541 z M 33.874113,36.380488 c -0.02434,0.0104 -0.04812,0.02138 -0.07258,0.0314 a 6.0636227,6.0989573 0 0 0 0.07258,-0.0314 z m -1.544801,0.426932 c -0.02682,0.0036 -0.0534,0.0072 -0.0804,0.0104 a 6.0636227,6.0989573 0 0 0 0.0804,-0.0104 z"
       id="path2" />
    <path
       style="fill:#009999;stroke-width:0.981226;fill-opacity:1"
       d="m 55.991854,20.604619 c -0.154898,2.057551 -1.308653,3.905894 -3.083756,4.940282 L 34.610233,36.172284 c -0.946161,0.547316 -2.018872,0.83453 -3.110344,0.832786 v 22.012333 c 1.073097,0 2.146194,-0.279257 3.107689,-0.838156 L 52.892143,47.551864 c 1.92329,-1.117494 3.108002,-3.18312 3.107688,-5.418464 V 20.744309 c -0.0018,-0.04664 -0.0052,-0.0931 -0.0082,-0.139682 z M 31.499889,59.017403 Z"
       id="path3" />
    <path
       style="fill:#5599ff;stroke-width:0.981226"
       d="m 7.0026113,20.505219 c -4.802e-4,0.0082 -0.00226,0.0161 -0.00269,0.02422 0.00263,0.02508 0.00511,0.05016 0.00802,0.07524 -0.00282,0.0466 -0.00623,0.09304 -0.00802,0.139684 v 21.389076 c -3.157e-4,2.235344 1.1843966,4.300972 3.1076877,5.418466 l 18.284565,10.62737 c 0.955209,0.555255 2.04159,0.834585 3.107674,0.83816 V 37.005077 c -0.0054,6e-6 -0.01057,6e-6 -0.01586,0 -0.16774,-0.0013 -0.335357,-0.0096 -0.502441,-0.02422 -0.04615,-0.003 -0.09219,-0.0068 -0.138236,-0.0108 -0.170245,-0.0189 -0.339643,-0.04492 -0.507756,-0.0779 -0.03109,-0.0052 -0.06208,-0.0104 -0.09301,-0.0161 -0.151095,-0.03196 -0.300954,-0.06966 -0.449267,-0.112827 -0.06049,-0.0161 -0.120776,-0.0331 -0.180774,-0.05106 -0.11552,-0.0387 -0.229874,-0.08085 -0.342932,-0.126262 -0.0858,-0.0312 -0.170873,-0.06439 -0.255207,-0.0994 -0.09415,-0.0433 -0.18724,-0.089 -0.279133,-0.13701 -0.116995,-0.05546 -0.232259,-0.114592 -0.345598,-0.177294 L 10.091686,25.544901 C 9.9133635,25.439908 9.7403521,25.326047 9.5732974,25.203728 h -0.00269 c -0.00804,-0.0062 -0.01597,-0.0126 -0.023924,-0.0189 C 9.3943589,25.073434 9.2471081,24.95512 9.1054247,24.830256 9.0320173,24.763037 8.9602181,24.694069 8.890093,24.623403 8.8129031,24.55102 8.7375563,24.476665 8.664128,24.400436 8.5844399,24.311351 8.5073146,24.219977 8.4328458,24.126421 8.3755945,24.059559 8.3197543,23.991491 8.2653665,23.922254 8.1914589,23.822341 8.1205363,23.720195 8.0526932,23.616005 8.005254,23.547986 7.9591645,23.479034 7.9144565,23.409156 7.8470311,23.295698 7.7831978,23.18013 7.7230514,23.062611 7.6864186,22.996981 7.6509683,22.930725 7.6167158,22.863819 7.5605422,22.742859 7.5082322,22.620112 7.4598692,22.495783 c -0.030504,-0.0693 -0.05975,-0.139159 -0.087728,-0.209542 -0.02943,-0.08804 -0.056906,-0.176706 -0.082412,-0.265953 -0.039806,-0.117086 -0.076152,-0.235344 -0.1089904,-0.354604 -0.010408,-0.0518 -0.020149,-0.103747 -0.02924,-0.155817 -0.03563,-0.149272 -0.065777,-0.299812 -0.090392,-0.451317 -0.027658,-0.183433 -0.047172,-0.368079 -0.058497,-0.553331 z"
       id="path4" />
    <path
       style="fill:#0066ff;stroke-width:0.981226"
       d="m 31.646216,4.0000004 v 0.00276 A 6.2191006,6.3297736 0 0 0 28.389845,4.8454109 L 10.09138,15.59925 a 6.2191006,6.3297736 0 0 0 -3.0914269,5.075183 6.2191006,6.3297736 0 0 0 3.0914269,5.126828 l 18.298465,10.753843 a 6.2191006,6.3297736 0 0 0 6.220094,0 L 52.908405,25.801261 A 6.2191006,6.3297736 0 0 0 55.999831,20.726083 6.2191006,6.3297736 0 0 0 52.908405,15.59925 L 34.609939,4.8454109 A 6.2191006,6.3297736 0 0 0 31.646216,4.0000004 Z"
       id="path5" />
    <path
       style="opacity:0.1;stroke-width:0.981226"
       d="m 7.0535925,21.194637 a 6.2191006,6.3297736 0 0 0 -0.053594,0.462443 6.2191006,6.3297736 0 0 0 3.0931205,5.127183 l 18.29839,10.753261 a 6.2191006,6.3297736 0 0 0 6.216861,0 L 52.906759,26.784263 a 6.2191006,6.3297736 0 0 0 3.093119,-5.077291 6.2191006,6.3297736 0 0 0 -0.05355,-0.468202 6.2191006,6.3297736 0 0 1 -3.039526,4.563038 L 34.60837,36.555072 a 6.2191006,6.3297736 0 0 1 -6.216861,0 L 10.093119,25.801808 A 6.2191006,6.3297736 0 0 1 7.0535925,21.194637 Z"
       id="path6" />
    <path
       style="opacity:0.1;fill:#ffffff;stroke-width:0.981226"
       d="M 31.645362,4 V 4.0038 A 6.2191006,6.3297736 0 0 0 28.391461,4.8442897 L 10.093072,15.597555 a 6.2191006,6.3297736 0 0 0 -3.0931189,5.077287 6.2191006,6.3297736 0 0 0 0.14164,1.001647 6.2191006,6.3297736 0 0 1 2.9514789,-4.114027 L 28.391461,6.8092005 A 6.2191006,6.3297736 0 0 1 31.645362,5.968742 v -0.00381 a 6.2191006,6.3297736 0 0 1 2.962962,0.8442962 L 52.906712,17.562465 a 6.2191006,6.3297736 0 0 1 2.951477,4.125537 6.2191006,6.3297736 0 0 0 0.141642,-0.963265 6.2191006,6.3297736 0 0 0 -3.093119,-5.127179 L 34.608324,4.844296 A 6.2191006,6.3297736 0 0 0 31.645362,4 Z"
       id="path7" />
    <path
       style="opacity:0.2;stroke-width:0.981226"
       d="m 36.690865,13.889563 -9.43822,6.357165 -6.532677,-4.399934 v 12.714334 h 18.874517 l -6.534589,-4.401857 9.438215,-6.357166 z m -19.89089,19.856308 v 7.62745 l -4.827253,-3.079767 6.605413,12.077277 6.605413,-3.177626 -4.46358,-3.081681 V 36.48408 Z m 29.399926,0 -3.91999,2.738209 v 7.627444 l -4.446355,3.081681 6.605413,3.177626 6.605413,-12.077277 -4.844481,3.079767 z"
       id="path8" />
    <path
       style="fill:#f3f3f3;stroke-width:0.981226;fill-opacity:1"
       d="m 42.497687,16.819927 c 0,0 -9.437015,6.357565 -9.437015,6.357565 0,0 6.533316,4.401395 6.533316,4.401395 0,0 -18.874018,2e-6 -18.874018,2e-6 0,0 -2e-6,-12.715135 -2e-6,-12.715135 0,0 6.533316,4.401394 6.533316,4.401394 0,0 9.437013,-6.357565 9.437013,-6.357565 0,0 5.80739,3.912344 5.80739,3.912344"
       id="path9" />
    <path
       style="fill:#f1f1f1;stroke-width:0.981226;fill-opacity:1"
       d="m 16.799975,32.76341 v 7.628464 l -4.82649,-3.080295 6.60538,12.077779 6.605377,-3.179147 -4.464274,-3.080293 V 35.501449 L 16.799975,32.76341"
       id="path10" />
    <path
       style="fill:#f2f2f2;stroke-width:0.981226;fill-opacity:1"
       d="m 46.199901,32.76341 v 7.628464 l 4.845177,-3.080295 -6.605377,12.077779 -6.605378,-3.179147 4.445588,-3.080293 v -7.628469 l 3.91999,-2.738039"
       id="path11" />
  </g>
</svg>
