<?xml version="1.0" encoding="UTF-8" standalone="no"?>
<svg
   width="62"
   height="62"
   version="1.1"
   id="svg5"
   sodipodi:docname="icecat.svg"
   inkscape:version="1.4 (unknown)"
   xmlns:inkscape="http://www.inkscape.org/namespaces/inkscape"
   xmlns:sodipodi="http://sodipodi.sourceforge.net/DTD/sodipodi-0.dtd"
   xmlns:xlink="http://www.w3.org/1999/xlink"
   xmlns="http://www.w3.org/2000/svg"
   xmlns:svg="http://www.w3.org/2000/svg">
  <defs
     id="defs5">
    <linearGradient
       id="linearGradient4217">
      <stop
         style="stop-color:#000000;stop-opacity:1;"
         offset="0"
         id="stop2" />
      <stop
         style="stop-color:#000000;stop-opacity:0;"
         offset="1"
         id="stop4" />
    </linearGradient>
    <linearGradient
       id="linearGradient4161">
      <stop
         style="stop-color:#334545;stop-opacity:1;"
         offset="0"
         id="stop7" />
      <stop
         style="stop-color:#4d6868;stop-opacity:1"
         offset="1"
         id="stop9" />
    </linearGradient>
    <linearGradient
       id="a-1-2"
       y1="510.79999"
       y2="527.14001"
       gradientUnits="userSpaceOnUse"
       x2="0">
      <stop
         stop-color="#7cbaf8"
         id="stop2-2-7" />
      <stop
         offset="1"
         stop-color="#f4fcff"
         id="stop4-70-0" />
    </linearGradient>
    <linearGradient
       id="c"
       y1="503.79999"
       x1="400.57001"
       y2="519.79999"
       x2="416.57001"
       gradientUnits="userSpaceOnUse">
      <stop
         stop-color="#292c2f"
         id="stop12" />
      <stop
         offset="1"
         stop-opacity="0"
         id="stop14" />
    </linearGradient>
    <linearGradient
       id="b"
       y1="542.79999"
       x1="408.57001"
       y2="521.79999"
       x2="387.57001"
       gradientUnits="userSpaceOnUse"
       gradientTransform="translate(-384.57,-499.8)">
      <stop
         stop-color="#197cf1"
         id="stop7-8" />
      <stop
         offset="1"
         stop-color="#20bcfa"
         id="stop9-7" />
    </linearGradient>
    <linearGradient
       xlink:href="#linearGradient1389"
       id="linearGradient4503-5-6"
       y1="37"
       y2="4"
       x2="0"
       gradientUnits="userSpaceOnUse"
       gradientTransform="matrix(1.0218446,0,0,0.99999999,21.748946,8.2587777)" />
    <linearGradient
       id="linearGradient1389">
      <stop
         style="stop-color:#ffaaaa;stop-opacity:1"
         id="stop1385"
         offset="0" />
      <stop
         offset="1"
         style="stop-color:#ff5555;stop-opacity:1"
         id="stop1387" />
    </linearGradient>
    <linearGradient
       id="paint543_linear_890_11"
       x1="978.5"
       y1="298"
       x2="978.5"
       y2="304"
       gradientUnits="userSpaceOnUse"
       gradientTransform="matrix(0.75000004,0,0,0.75000004,-717.38333,-173.49123)">
      <stop
         offset="0.189495"
         stop-color="#EFF2F6"
         id="stop1829" />
      <stop
         offset="0.850463"
         stop-color="#B7C6CD"
         id="stop1830" />
    </linearGradient>
    <linearGradient
       id="linearGradient4144">
      <stop
         style="stop-color:#c83771;stop-opacity:1"
         offset="0"
         id="stop1141" />
      <stop
         style="stop-color:#de87aa;stop-opacity:1"
         offset="1"
         id="stop1143" />
    </linearGradient>
    <linearGradient
       id="c-0"
       gradientUnits="userSpaceOnUse"
       x1="10"
       x2="24"
       y1="10"
       y2="24"
       gradientTransform="translate(59.728813,26.237288)">
      <stop
         offset="0"
         stop-color="#292c2f"
         id="stop12-2" />
      <stop
         offset="1"
         stop-opacity="0"
         id="stop14-3" />
    </linearGradient>
    <linearGradient
       id="d"
       gradientUnits="userSpaceOnUse"
       x1="24"
       x2="24"
       y1="25"
       y2="7"
       gradientTransform="translate(59.728813,26.237288)">
      <stop
         offset="0"
         stop-color="#bb9d71"
         id="stop2-7" />
      <stop
         offset="1"
         stop-color="#f9f2e7"
         id="stop4-5" />
    </linearGradient>
    <linearGradient
       id="_lgradient_4"
       x1="0.5714286"
       y1="0.9115513"
       x2="0.41931218"
       y2="0.26851299"
       gradientTransform="matrix(14.32,0,0,18.834666,8,75.532)"
       gradientUnits="userSpaceOnUse">
      <stop
         offset="0%"
         stop-opacity="1"
         style="stop-color:#c6afe9;stop-opacity:1"
         id="stop1" />
      <stop
         offset="97.82608695652173%"
         stop-opacity="1"
         style="stop-color:rgb(255,187,36)"
         id="stop2-3" />
    </linearGradient>
    <linearGradient
       id="_lgradient_5"
       x1="-0.014458464"
       y1="0.009839246"
       x2="1.0164566"
       y2="1.072293"
       gradientTransform="matrix(7.3746665,12.276,-16.145333,9.6986664,29.954666,68.084)"
       gradientUnits="userSpaceOnUse">
      <stop
         offset="0%"
         stop-opacity="1"
         style="stop-color:rgb(249,212,35)"
         id="stop3" />
      <stop
         offset="51.56237565086822%"
         stop-opacity="1"
         style="stop-color:rgb(255,78,80)"
         id="stop4-6" />
      <stop
         offset="99.1304347826087%"
         stop-opacity="1"
         style="stop-color:rgb(138,35,135)"
         id="stop5" />
    </linearGradient>
    <linearGradient
       id="_lgradient_6"
       x1="0.42168996"
       y1="0.24417809"
       x2="0.91260743"
       y2="0.96379721"
       gradientTransform="matrix(-6.7373332,12.636,-16.62,-8.8613331,47.375999,82.886666)"
       gradientUnits="userSpaceOnUse">
      <stop
         offset="0%"
         stop-opacity="1"
         style="stop-color:rgb(255,95,109)"
         id="stop6" />
      <stop
         offset="98.26086956521739%"
         stop-opacity="1"
         style="stop-color:rgb(255,195,113)"
         id="stop7-7" />
    </linearGradient>
    <linearGradient
       id="_lgradient_7"
       x1="0.5714286"
       y1="0.9115513"
       x2="0.41931218"
       y2="0.26851299"
       gradientTransform="matrix(-14.32,0,0,-18.834666,42.893332,106.468)"
       gradientUnits="userSpaceOnUse">
      <stop
         offset="0%"
         stop-opacity="1"
         style="stop-color:rgb(247,242,6)"
         id="stop8-5" />
      <stop
         offset="97.82608695652173%"
         stop-opacity="1"
         style="stop-color:#aa87de;stop-opacity:1"
         id="stop9-3" />
    </linearGradient>
    <linearGradient
       id="_lgradient_8"
       x1="-0.014458464"
       y1="0.009839246"
       x2="1.0164566"
       y2="1.072293"
       gradientTransform="matrix(-7.3746665,-12.276,16.145333,-9.6986664,20.938666,113.916)"
       gradientUnits="userSpaceOnUse">
      <stop
         offset="0%"
         stop-opacity="1"
         style="stop-color:rgb(249,212,35)"
         id="stop10-5" />
      <stop
         offset="51.56237565086822%"
         stop-opacity="1"
         style="stop-color:rgb(255,78,80)"
         id="stop11" />
      <stop
         offset="99.1304347826087%"
         stop-opacity="1"
         style="stop-color:rgb(138,35,135)"
         id="stop12-6" />
    </linearGradient>
    <linearGradient
       id="_lgradient_9"
       x1="0.42168996"
       y1="0.24417809"
       x2="0.91260743"
       y2="0.96379721"
       gradientTransform="matrix(6.7373332,-12.636,16.62,8.8613331,3.5173334,99.113332)"
       gradientUnits="userSpaceOnUse">
      <stop
         offset="0%"
         stop-opacity="1"
         style="stop-color:rgb(255,95,109)"
         id="stop13" />
      <stop
         offset="98.26086956521739%"
         stop-opacity="1"
         style="stop-color:rgb(255,195,113)"
         id="stop14-2" />
    </linearGradient>
    <linearGradient
       gradientTransform="matrix(0.20344518,0,0,0.20344518,-5.1440158,74.345279)"
       gradientUnits="userSpaceOnUse"
       y2="175.62"
       x2="114.723"
       y1="175.62"
       x1="64.844002"
       id="b-3"
       xlink:href="#a" />
    <linearGradient
       id="a">
      <stop
         offset="0"
         stop-color="#d4e3eb"
         stop-opacity=".498"
         id="stop1-6" />
      <stop
         offset="1"
         stop-color="#d4e3eb"
         stop-opacity="0"
         id="stop2-75" />
    </linearGradient>
  </defs>
  <sodipodi:namedview
     id="namedview5"
     pagecolor="#ffffff"
     bordercolor="#000000"
     borderopacity="0.25"
     inkscape:showpageshadow="2"
     inkscape:pageopacity="0.0"
     inkscape:pagecheckerboard="0"
     inkscape:deskcolor="#d1d1d1"
     inkscape:zoom="8.2643105"
     inkscape:cx="28.435524"
     inkscape:cy="37.45019"
     inkscape:window-width="1920"
     inkscape:window-height="996"
     inkscape:window-x="0"
     inkscape:window-y="0"
     inkscape:window-maximized="1"
     inkscape:current-layer="svg5" />
  <g
     id="g3"
     transform="matrix(1.0160917,0,0,0.99998444,3.0000312,-73.998373)">
    <ellipse
       ry="22.859707"
       rx="23.591089"
       cy="108.86285"
       cx="24.663548"
       stroke="#000000"
       stroke-width="2.14489"
       id="ellipse2"
       style="stroke:#2d3d53;stroke-opacity:1;fill:#0055d4;fill-opacity:1" />
    <path
       d="m 1.9680187,103.05176 1.3575898,-1.8749 c 1.210498,0.13183 2.018583,0.7999 2.7155855,1.61638 l 0.5171582,0.71104 0.5818526,-0.12915 0.8406357,0.71103 -0.064703,-0.51718 0.4526653,0.64654 0.4524617,0.32336 0.3234783,-0.12937 1.2928902,0.71125 0.840443,-1.09924 -0.193884,-0.19387 0.840433,-0.064 0.323476,-1.22826 -0.775939,0.64638 -0.905335,-0.0638 -0.06448,-0.45274 h -0.258581 l -0.3879724,-0.90639 -0.3234774,0.12936 -0.129188,0.5818 -0.3232747,-0.0643 0.1293916,-1.16409 -0.7759399,-0.25876 -0.2583756,-0.32329 0.4524625,-0.25857 v -0.25858 L 8.1747212,99.883796 8.6273865,99.172541 8.6918737,98.073327 8.0455283,98.13812 8.562686,97.232985 8.6273883,95.93989 8.3039114,95.810444 8.3688128,95.552066 8.6271885,95.357984 V 93.93542 C 9.0798549,92.72777 9.532521,92.746693 9.9849828,92.319047 v -1.357539 c -3.2119977,2.23464 -6.3131125,5.478777 -8.0169655,12.090272 z"
       fill="#8ac2ff"
       id="path2-3"
       style="stroke-width:0.203435" />
    <path
       d="m 15.674728,102.66388 0.581853,0.9054 0.06451,1.03412 1.616371,-0.064 c 2.298525,1.78135 1.354129,2.14416 1.034514,2.77992 l 2.262923,0.19422 0.06482,-0.45273 h 0.969809 l -0.129392,-0.58189 0.258588,-0.3233 v -0.77581 l 0.387964,-0.25831 -0.06481,-0.25887 -0.840425,-0.064 -0.193889,-0.96975 0.905136,-0.77591 0.258571,-1.29298 0.06481,-0.64657 9.180875,1.29314 0.581847,0.58194 -0.193886,1.16372 0.711044,0.51726 v 1.09891 c 0,0 -1.163707,0.12935 -1.422283,0 -0.258583,-0.12917 -0.646549,0.19423 -0.646549,0.19423 l 1.874949,0.25831 c 0.518989,1.04314 0.878681,1.28972 1.228401,1.48729 v 3.42651 l -3.620509,4.91384 -1.357796,0.19397 -0.96982,0.45251 -1.745561,-0.19394 c -0.956597,-0.39659 -0.781429,-0.91872 -0.194082,-1.48716 0.60626,-0.42732 0.05653,-1.0202 -0.517161,-1.61617 0.448395,-0.31044 0.303133,-0.81863 0.258375,-1.29307 l -2.327417,-1.68099 -0.517157,1.48693 h -0.581847 v 0.77586 l 0.32328,0.064 v 1.03461 l -0.775945,-0.64671 -0.51716,-0.064 v 0.51719 l -0.38797,0.12918 -1.810263,-1.03433 -0.129395,-0.97 H 19.03675 l -0.387974,-0.64642 0.452669,-0.51708 -0.581854,-0.77588 -0.51736,0.58189 -0.517162,0.064 -0.194082,-0.6465 0.129391,-0.45272 h 0.452666 l 0.193878,-0.51704 -0.38797,-0.84058 0.581855,-0.25849 -0.06446,-1.61652 -1.034517,-0.64671 -0.775944,-0.19371 1.55168,0.96976 -0.193884,0.77575 -0.387972,-0.0638 c -0.258168,-0.4313 -0.0478,-0.8622 -1.422282,-1.29314 l 0.12919,-0.71124 -0.581856,-0.51721 z"
       fill="#5ea9fe"
       id="path3"
       style="stroke-width:0.203435" />
    <path
       d="M 2.8731464,99.237211 C 2.5844578,86.910469 9.9375751,79.174467 22.010829,77.125372 30.844007,76.754278 35.376157,80.839263 39.9201,82.814918 l 1.292898,-2.650898 c 0.03567,0.167641 0.545228,0.07665 0.733821,0.244137 l 1.141332,1.501634 1.357592,0.129393 2.650891,1.87495 7.887566,-0.517166 c 0.0051,0.764956 0.0882,1.684324 -0.06458,2.133531 -0.988744,0.829042 -2.333517,1.895091 -2.515601,2.461687 -0.165199,0.514109 -0.383701,0.841858 -0.781846,1.029434 -0.02998,1.09494 0.231319,1.7537 -0.452461,2.521699 l -0.646531,4.461153 c -1.021095,0.634335 -2.025707,1.584226 -2.715592,2.715379 l -0.193886,0.969822 c 0.184117,0.333667 -0.419085,0.287686 -0.955376,0.938277 -0.437401,0.53038 -0.911436,0.58451 -1.824899,0.35484 l -1.616161,-0.12921 -0.258584,-0.58186 -2.06903,-0.19408 -0.452463,-0.0649 -1.422486,-1.357596 C 36.964186,98.27696 37.321646,96.346673 36.493212,94.840562 l -1.681068,-2.069033 c -1.311817,0.469564 -2.081853,1.532765 -3.555814,3.749908 -0.180251,2.153465 -0.755593,2.604096 -0.323475,6.595053 0.117179,0.57536 0.189391,1.17365 0.334664,1.75555 0.294385,1.18045 0.682152,2.39736 0.764545,3.28724 0.683171,1.03557 1.557781,2.03323 1.42249,3.23285 0.951309,1.17153 0.826395,2.16348 0.775732,3.16794 0.963115,0.83565 1.151097,1.59963 1.09922,2.26268 -0.274651,0.65625 -0.142414,1.61745 -1.034521,1.81066 l -1.551674,-0.19416 -0.32348,-0.45252 -1.2282,-0.19404 -0.646549,-1.1636 c 0.02104,-1.20699 -0.976941,-2.41366 -2.327411,-3.62087 -0.217687,-0.47443 -1.143364,-1.13567 -0.743999,-1.43109 0.419911,-0.31076 0.06639,-1.58189 -0.689066,-2.1614 -0.557849,-0.42838 -0.758853,-1.23444 -1.476603,-1.90283 0.302517,0.42598 -1.149465,-2.84344 -1.034526,-3.36237 0.188396,-0.84705 -0.722225,-3.51176 -1.163708,-3.55591 V 95.293141 C 22.319597,91.507026 21.153239,86.283574 13.57857,89.104343 12.044184,89.675618 8.1380423,91.130042 2.8730851,99.237129 Z"
       fill="#f1f6f8"
       stroke="#000000"
       id="path4-5"
       style="stroke-width:0.203435" />
    <path
       d="m 24.587867,105.20233 c 3.706364,-4.13779 6.587959,-9.704242 10.095355,-12.770157 0.873592,1.483728 1.38139,1.519943 1.997424,2.606131 0.779602,1.374272 0.202835,2.85027 1.300017,3.086061 0.999928,0.345653 1.482705,1.246716 2.482434,1.757781 l 2.689945,0.269564 c 0.09406,-0.11395 -0.160722,0.38043 0.08951,0.48621 0.638006,0.26978 2.453554,0.52979 2.692802,0.33162 L 48.907485,95.382535 44.834104,85.153315 36.75225,81.456716 9.3380164,86.434611 3.6484693,91.932719 2.6786466,99.73484 c 1.5726331,-2.678764 3.886618,-6.432534 6.465489,-7.937416 11.5715494,-8.489968 13.8151424,1.086397 13.6424194,1.921951 l 1.357795,8.372025 z"
       fill="#d0e0e9"
       id="path5-6"
       style="stroke-width:0.203435" />
    <path
       d="m 33.777885,126.84454 0.581856,-0.77604 v -0.96982 c 0,0 1.874951,-1.93951 2.069036,-1.74548 0.193888,0.19385 1.874751,-0.064 1.874751,-0.064 l 0.06481,-0.58189 0.969828,-0.064 1.163704,-1.16373 h 0.387964 l -0.1292,-0.5819 0.517156,-0.45272 -0.06478,-0.71123 0.646545,-1.03459 0.129395,-0.9696 0.646547,-0.64636 0.646549,0.45235 1.357595,-0.19386 0.194086,1.81016 -0.581856,1.16377 -0.194081,1.42248 -0.387978,0.12937 -0.06448,0.90528 -1.163709,0.71102 0.193878,0.38786 c -1.539879,2.40425 -4.736607,3.15146 -8.857595,2.97413 z"
       fill="#056eff"
       id="path6"
       style="stroke-width:0.203435" />
    <path
       d="m 37.527786,126.65034 c 4.613931,-4.77121 3.814604,-5.94807 3.814604,-5.94807 l -0.581853,0.12936 0.06445,0.64669 -0.387769,0.19372 -1.163703,0.90545 -0.90533,0.2583 -0.258581,0.5819 -2.004339,0.064 -1.810257,1.55196 -0.0648,1.09901 -0.517156,0.71125 c 1.637731,0.30155 2.667776,-0.005 3.814599,-0.19424 z"
       fill="#00c5ff"
       id="path7-2"
       style="stroke-width:0.203435" />
    <path
       d="m 13.329416,106.28423 c 5.191513,11.11087 8.115223,16.83379 21.008152,20.62498 6.799139,0.36987 10.444878,-5.06496 12.501706,-9.6336 0.572488,2.40154 0.400376,4.94685 0,7.37081 -2.343689,3.74144 -4.853802,6.78969 -9.924057,7.11187 -5.780486,0.8194 -12.333861,0.14345 -20.750184,-5.94817 -9.7655719,-9.53042 -7.6814796,-14.60755 -8.1197006,-19.13789 1.3811895,-3.75382 3.2172836,-3.16927 5.2840836,-0.388 z"
       stroke="#000000"
       stroke-width="1.9336"
       id="path8"
       style="stroke:#2d3d53;stroke-opacity:1"
       fill="#aad4ff" />
    <path
       d="m 8.8100835,113.94872 c 3.3031365,-0.18226 7.0977935,1.26068 9.3857395,2.06638 -1.468878,-1.98163 -2.921271,-5.175 -4.578536,-8.68759 -0.638814,-1.51578 -1.630611,-3.34679 -3.7478656,-3.18408 -1.2959451,0.92561 -2.1378015,3.21577 -1.7081251,5.91059 0.2048692,1.25451 0.1680458,2.95359 0.6487872,3.8947 z"
       fill="#f2f2f2"
       stroke="url(#b)"
       id="path9-9"
       style="stroke:url(#b-3);stroke-width:0.203435" />
    <path
       d="m 8.1747236,109.96978 c 1.6424131,0.42729 2.7365404,-1.338 3.8792924,-2.90931 l 0.12939,2.52123 -3.9439868,2.2629 z"
       fill="#002655"
       id="path10"
       style="stroke-width:0.203435" />
    <path
       d="m 9.403126,116.62922 4.978304,-2.71541 -0.581853,-1.48734 c -1.401737,1.07444 -2.261296,2.5707 -5.1076957,2.52161 z"
       fill="#00244f"
       id="path11"
       style="stroke-width:0.203435" />
    <path
       d="m 10.437643,118.5041 c 1.88065,-0.56999 3.651435,-1.36262 5.172392,-2.65097 l 0.646546,1.09923 c -1.875561,0.92636 -3.425402,2.17783 -4.784418,3.62076 z"
       fill="#002045"
       id="path12-1"
       style="stroke-width:0.203435" />
    <path
       d="m 13.023843,122.38328 c 1.709947,-1.11676 3.880714,-2.00345 4.978301,-3.42662 l 1.099214,1.03436 c -0.862406,1.9308 -2.636653,3.13222 -4.331959,4.39642 z"
       fill="#002655"
       id="path13"
       style="stroke-width:0.203435" />
    <path
       d="m 16.321079,125.80993 c 6.347485,-3.21691 5.271463,-3.92426 5.23708,-3.94368 l -0.0648,0.19386 c 0.334053,0.98067 -0.12776,2.83089 -2.715384,5.30169 -0.9212,-0.41501 -1.869456,-0.8031 -2.457002,-1.55187 z"
       fill="#002a5d"
       id="path14-2"
       style="stroke-width:0.203435" />
    <path
       d="m 21.234886,128.71956 c 2.376036,-3.6935 2.82545,-4.5616 2.844774,-4.59063 0.0882,0.91133 -0.09541,1.98178 0.452663,2.58624 l 0.517159,0.12937 c -0.270583,1.12056 -0.812559,2.24126 -0.77594,3.36182 -2.043807,-0.49543 -2.269224,-0.99138 -3.038656,-1.4868 z"
       fill="#00346f"
       id="path15"
       style="stroke-width:0.203435" />
    <path
       d="m 26.536461,130.91761 c 1.589925,-0.70274 0.905331,-4.91347 0.905331,-4.91347 l 2.521499,2.90912 c -0.254306,1.39113 -0.233149,2.546 0.711045,2.90958 -1.358203,-0.17579 -2.62404,0.20398 -4.137875,-0.90523 z"
       fill="#003e84"
       id="path16"
       style="stroke-width:0.203435" />
    <path
       d="m 33.001952,127.81431 c 4.259326,1.27149 2.830731,2.54302 4.137865,3.81456 -1.124032,0.23537 -2.214903,0.48725 -4.008477,0.3881 1.323211,-0.98067 0.762513,-2.54067 -0.129388,-4.20266 z"
       fill="#004fa5"
       id="path17"
       style="stroke-width:0.203435" />
    <path
       d="m 40.695837,127.55578 c 0.732811,1.11465 1.465415,1.61858 2.198224,1.87501 -0.966364,0.93677 -2.097521,1.37924 -3.232739,1.81017 0.356032,-0.72418 0.06106,-1.93703 -0.258581,-3.16813 -0.240068,-0.45722 0.954361,-0.41538 1.293096,-0.51705 z"
       fill="#005cc1"
       id="path18"
       style="stroke-width:0.203435" />
    <path
       d="m 38.104759,90.484389 c -0.26448,-1.552897 -0.204665,-3.367013 1.492071,-6.772282 0.24108,-0.483987 0.331616,-0.438221 0.3365,-0.999721 l 1.371622,-2.560161 0.822939,0.274252 c 0.246985,0.688252 0.545223,1.170822 0.914273,1.371614 0.557854,0.192054 1.082338,0.350744 1.280081,0.182911 l 2.743058,1.920106 7.863353,-0.457338 0.09142,2.19456 -2.194766,1.737417 -0.845723,1.394213 -0.38858,0.205679 -0.04572,1.623086 -0.205687,0.708604 -0.205683,0.182894 -0.663027,4.411709 c -1.151076,1.078262 -2.741821,1.596232 -2.88016,3.908802 l -0.731387,0.502896 -0.571677,0.61704 -0.754175,0.13734 c -0.261825,-1.707722 -0.733014,-1.450973 -0.558257,-2.247666 0.146483,-0.668928 1.138286,-1.768347 1.361866,-2.16242 l 1.03554,-0.0457 0.583886,-0.412993 -2.423033,-0.503118 -0.548692,1.051609 -2.834394,-3.314526 0.09142,3.268753 -1.600293,-0.251462 c -0.644695,-0.922226 -2.516595,-1.60173 -2.925927,-2.743056 -0.387765,-0.734443 -0.0996,-1.604581 0.731586,-2.582945 l 1.371427,0.960065 1.462982,0.06845 1.645866,-0.777164 -0.0457,-1.600091 -1.11996,-3.748883 -0.754372,-1.82877 c -0.900453,2.124167 -0.485424,4.812293 -2.903168,6.286249 z"
       fill="#6db5ff"
       id="path19"
       style="stroke-width:0.203435" />
    <path
       d="M 2.9022389,95.238904 5.553943,90.027251 8.8456856,88.015587 19.817684,87.74134 c 1.966708,0.26875 2.32945,1.454227 2.62404,2.678559 1.777704,0.154616 1.91462,0.924458 1.764883,1.801708 l -1.280079,1.82877 0.365595,6.583283 1.005831,1.64582 0.274451,-4.297528 c -0.06829,-2.764816 0.642073,-3.194087 1.280076,-3.840231 6.708808,-0.02084 6.726911,-5.245625 7.040423,-10.240613 0.227045,-0.274445 0.39997,-0.548683 1.097176,-0.822935 l 4.663171,-0.822935 C 17.899401,73.673302 5.7512847,80.84313 2.9022389,95.238904 Z"
       fill="#5babfe"
       id="path20"
       style="stroke-width:0.203435" />
    <path
       d="m 7.4634789,84.560676 1.4224896,0.323278 0.7112438,-0.517357 0.6465487,1.487178 0.71104,0.258579 -0.06449,-0.581855 -1.3577891,-2.715581 c 1.1600441,0.524078 2.1294591,1.617993 2.7800761,2.004336 -0.201409,-0.87664 -0.140988,-1.622273 0,-2.32741 l 0.38797,-0.387975 0.646548,1.874953 c 0.976737,1.065447 1.26726,1.945341 1.745559,2.844774 0.575342,0.0367 0.857927,-0.02597 1.099215,-0.323476 -0.431096,0.13346 -0.718152,-0.215652 -0.969817,-1.099012 l -0.06473,-1.487183 -0.581853,-0.258377 -0.129395,-2.262921 0.646544,0.129198 1.422491,4.20256 c 1.38424,0.996477 2.065379,1.289843 2.78008,1.61637 0,0 0.517359,0.19409 0.775939,0.19409 0.258376,0 0,-0.452668 0,-0.452668 -1.238177,-0.327547 -2.212876,-1.709346 -3.297444,-2.650892 -0.734842,-1.791125 -0.233963,-2.019594 -0.323274,-3.038658 l 0.84043,1.487194 c 0.689674,0.982231 1.379355,1.858063 2.069029,2.327407 l -0.06475,-0.905339 c -1.810704,-2.519464 -0.889912,-2.610806 -1.293138,-3.879091 l 0.646546,0.129199 0.129391,1.875151 c 1.085182,1.088429 2.961547,1.725213 2.973971,3.426627 0.377786,-0.305984 1.427367,0.823956 1.810457,2.909265 l -0.06474,-2.262716 c -1.163714,-1.008483 -2.327427,-2.871422 -3.49133,-4.719926 -0.508212,-0.929756 -0.360713,-1.695723 -0.193889,-2.456816 0.551539,0.250242 1.342742,0.340371 1.422289,0.905343 l 2.327414,4.784213 c 1.599897,1.14621 1.78788,2.433206 1.68107,3.750108 1.085789,0.931979 1.076231,2.302189 1.357794,3.555813 l -0.193883,-2.650888 -2.457005,-8.792909 1.099211,0.06487 0.387968,1.099216 1.03452,0.646535 0.646546,2.586199 0.387768,4.784421 0.194087,0.193883 -0.06476,2.715382 0.581854,-2.780072 -0.323277,-0.581856 -0.129389,-4.913817 C 27.213908,84.04365 27.315024,83.397098 27.247471,82.750558 l 0.387979,-1.487195 0.517154,0.06488 0.129392,2.327407 0.387968,1.293294 v -2.327627 l 1.48698,-0.969831 -0.387969,4.073182 c 0.277702,-0.900865 0.635354,-2.526188 0.905333,-3.9438 l 1.163703,0.387772 c -0.02691,3.203445 -0.50617,5.598607 -0.840638,8.340435 1.076838,-1.362883 0.866267,-4.648111 1.293104,-6.982649 l 2.004339,-2.19821 0.452663,0.387963 -1.357795,3.620512 -0.905327,3.750094 0.194082,0.06446 1.74556,-4.20236 v -0.775977 l 0.646753,-1.874955 1.422285,0.905328 2.262921,-0.840638 C 32.35539,77.997751 19.337347,72.107196 7.4634697,84.560677 Z"
       fill="#004ca0"
       id="path21"
       style="stroke-width:0.203435" />
    <path
       d="m 40.756257,88.152909 0.365799,-2.834601 1.051409,-2.605922 0.0457,-0.685618 1.234292,0.411363 3.611767,2.057246 5.120305,0.04571 c -1.467439,0.575341 -3.279123,1.249561 -4.434489,1.600093 l -1.462969,-0.04571 c -1.156791,-0.986098 -2.300963,-1.934348 -3.337517,-2.560152 -1.255261,1.314665 -1.781574,2.941819 -2.194362,4.617395 z"
       fill="#003a7b"
       id="path22"
       style="stroke-width:0.203435" />
    <path
       d="m 43.133518,94.278845 c 1.897732,1.908317 1.793373,2.189273 1.782988,2.194564 -0.0479,-0.375356 -0.03395,-0.676251 0.0457,-1.280077 -0.711231,-0.711242 -1.225537,-0.635564 -1.82876,-0.914487 z m 2.240338,5.806135 0.548494,-0.411375 1.005828,0.137129 c -0.243933,0.392236 -0.487658,0.658346 -0.731596,0.685596 -0.152577,0.0155 -0.290716,-0.007 -0.914273,-0.22847 z"
       fill="#001c41"
       id="path23"
       style="stroke-width:0.203435" />
    <g
       fill="#9fceff"
       id="g25"
       transform="matrix(0.20344514,0,0,0.20344514,0.96177914,77.000045)">
      <path
         d="m 209.865,106.651 c -8.104,-0.159 -7.945,0 -7.945,0 -1.263,-0.22 -3.722,0.757 -6.673,2.225 -2.005,2.77 -4.602,4.355 -6.992,6.356 l 6.674,-7.31 c 1.776,-1.137 3.59,-2.235 6.197,-2.542 3.583,-0.106 6.109,-0.212 8.898,-0.318 z m -5.72,-2.383 c -3.236,0.015 -6.235,-0.681 -9.852,0.477 -5.949,1.738 -8.204,3.626 -11.123,4.608 l 8.899,-5.72 c 4.64,-1.262 8.606,-0.502 12.87,-0.636 z"
         id="path24" />
      <path
         d="m 210.689,109.384 c -0.995,-0.443 -11.584,1.135 -11.268,2.644 -5.11,1.19 -8.083,5.775 -11.96,8.924 l 5.72,-7.106 c 3.96,-3.503 6.791,-3.778 9.88,-4.792 3.679,-0.459 6.407,-0.465 9.188,-0.496 z"
         id="path25" />
    </g>
  </g>
</svg>
