<?xml version="1.0" encoding="UTF-8" standalone="no"?>
<svg
   clip-rule="evenodd"
   fill-rule="evenodd"
   stroke-linejoin="round"
   stroke-miterlimit="2"
   viewBox="0 0 62 62"
   version="1.1"
   id="svg8"
   sodipodi:docname="ico_72_cloud_station.svg"
   width="62"
   height="62"
   inkscape:version="1.4 (unknown)"
   xmlns:inkscape="http://www.inkscape.org/namespaces/inkscape"
   xmlns:sodipodi="http://sodipodi.sourceforge.net/DTD/sodipodi-0.dtd"
   xmlns:xlink="http://www.w3.org/1999/xlink"
   xmlns="http://www.w3.org/2000/svg"
   xmlns:svg="http://www.w3.org/2000/svg">
  <defs
     id="defs8">
    <linearGradient
       id="linearGradient12"
       inkscape:collect="always">
      <stop
         style="stop-color:#a6ff3d;stop-opacity:1;"
         offset="0"
         id="stop12" />
      <stop
         style="stop-color:#67bf00;stop-opacity:1;"
         offset="1"
         id="stop13" />
    </linearGradient>
    <linearGradient
       id="linearGradient10"
       inkscape:collect="always">
      <stop
         style="stop-color:#00caff;stop-opacity:1;"
         offset="0"
         id="stop10" />
      <stop
         style="stop-color:#2a7fff;stop-opacity:1"
         offset="1"
         id="stop11" />
    </linearGradient>
    <linearGradient
       id="linearGradient8"
       inkscape:collect="always">
      <stop
         style="stop-color:#b4c3cb;stop-opacity:1;"
         offset="0"
         id="stop8" />
      <stop
         style="stop-color:#dfe7ec;stop-opacity:1;"
         offset="1"
         id="stop9" />
    </linearGradient>
    <linearGradient
       inkscape:collect="always"
       xlink:href="#linearGradient8"
       id="linearGradient9"
       x1="30.332001"
       y1="58.332001"
       x2="30.332001"
       y2="2.332"
       gradientUnits="userSpaceOnUse" />
    <linearGradient
       inkscape:collect="always"
       xlink:href="#linearGradient10"
       id="linearGradient11"
       x1="29.668509"
       y1="34.057716"
       x2="50.304207"
       y2="14.311275"
       gradientUnits="userSpaceOnUse" />
    <linearGradient
       inkscape:collect="always"
       xlink:href="#linearGradient12"
       id="linearGradient13"
       x1="8.4102468"
       y1="40.764057"
       x2="36.012318"
       y2="15.798085"
       gradientUnits="userSpaceOnUse" />
  </defs>
  <sodipodi:namedview
     id="namedview8"
     pagecolor="#ffffff"
     bordercolor="#000000"
     borderopacity="0.25"
     inkscape:showpageshadow="2"
     inkscape:pageopacity="0.0"
     inkscape:pagecheckerboard="0"
     inkscape:deskcolor="#d1d1d1"
     inkscape:zoom="8.0520833"
     inkscape:cx="21.857697"
     inkscape:cy="23.285899"
     inkscape:window-width="1920"
     inkscape:window-height="996"
     inkscape:window-x="0"
     inkscape:window-y="0"
     inkscape:window-maximized="1"
     inkscape:current-layer="svg8" />
  <linearGradient
     id="a"
     x2="1"
     gradientTransform="matrix(0,-43.53155,43.53155,0,1192.407,51.589413)"
     gradientUnits="userSpaceOnUse">
    <stop
       stop-color="#baccc7"
       offset="0"
       id="stop1" />
    <stop
       stop-color="#fff"
       offset="1"
       id="stop2" />
  </linearGradient>
  <linearGradient
     id="b"
     x2="1"
     gradientTransform="matrix(19.179166,-12.227066,12.227066,19.179166,18.165217,30.331975)"
     gradientUnits="userSpaceOnUse">
    <stop
       stop-color="#0079c1"
       offset="0"
       id="stop3" />
    <stop
       stop-color="#00caff"
       offset="1"
       id="stop4" />
  </linearGradient>
  <linearGradient
     id="c"
     x2="1"
     gradientTransform="matrix(15.362744,-29.989005,29.989005,15.362744,21.235092,45.42574)"
     gradientUnits="userSpaceOnUse">
    <stop
       stop-color="#72ba1a"
       offset="0"
       id="stop5" />
    <stop
       stop-color="#a6ff3d"
       offset="1"
       id="stop6" />
  </linearGradient>
  <g
     id="g8"
     transform="translate(0.668,0.668)">
    <path
       d="M 50.284003,58.332 H 10.379997 C 5.9373166,58.332 2.332,54.726683 2.332,50.284003 V 10.379997 C 2.332,5.9373166 5.9373166,2.332 10.379997,2.332 h 39.904006 c 4.44268,0 8.047997,3.6053166 8.047997,8.047997 v 39.904006 c 0,4.44268 -3.605317,8.047997 -8.047997,8.047997 z"
       style="fill:url(#linearGradient9)"
       id="path1" />
    <path
       d="m 15.94722,7.9052255 c 0.314335,-0.078584 0.6397,-0.1199446 0.970581,-0.1199446 h 21.407915 c 1.431055,0 2.754573,0.7637807 3.4701,2.0032008 L 52.499774,28.328774 c 0.715527,1.23942 0.715527,2.766981 0,4.006401 L 41.795816,50.875466 c -0.715527,1.23942 -2.039045,2.003201 -3.4701,2.003201 H 16.917801 c -0.330881,0 -0.656246,-0.04136 -0.970581,-0.119945 -0.573525,-0.366725 -1.709545,-0.930599 -1.159457,-1.883257 l 3.4701,-6.009603 H 36.012316 L 44.404251,30.331974 36.012316,15.798085 H 18.453633 l -3.1599,-5.221006 C 14.743646,9.6244212 14.594749,8.455313 15.94722,7.9052255 Z"
       id="path7"
       style="fill:url(#linearGradient11)" />
    <path
       d="M 15.94722,7.9052255 C 15.223421,8.4015451 15.137944,8.8358246 15.688031,9.7884823 L 26.391989,28.328774 c 0.715527,1.23942 0.715527,2.766981 0,4.006401 L 15.688031,50.875466 c -0.550087,0.952658 -0.340531,1.327655 0.259189,1.883257 -1.040891,-0.25919 -1.949432,-0.930599 -2.49952,-1.883257 0,0 -1.932889,-3.348778 -2.91312,-5.047293 -0.344666,-0.596963 -0.348802,-1.330412 -0.01103,-1.93151 1.830867,-3.249515 7.641941,-13.564689 7.641941,-13.564689 0,0 -5.811074,-10.315174 -7.641941,-13.564688 -0.337773,-0.601098 -0.333637,-1.334548 0.01104,-1.93151 0.980231,-1.698516 2.91312,-5.0472937 2.91312,-5.0472937 0.550087,-0.9526577 1.458628,-1.6240677 2.499519,-1.8832568 z"
       id="path8"
       style="fill:url(#linearGradient13)" />
  </g>
</svg>
