<?xml version="1.0" encoding="UTF-8" standalone="no"?>
<svg
   width="62"
   height="62"
   version="1.1"
   id="svg5"
   sodipodi:docname="icon_gentoo_small.svg"
   inkscape:version="1.4 (unknown)"
   xmlns:inkscape="http://www.inkscape.org/namespaces/inkscape"
   xmlns:sodipodi="http://sodipodi.sourceforge.net/DTD/sodipodi-0.dtd"
   xmlns="http://www.w3.org/2000/svg"
   xmlns:svg="http://www.w3.org/2000/svg">
  <defs
     id="defs5" />
  <sodipodi:namedview
     id="namedview5"
     pagecolor="#ffffff"
     bordercolor="#000000"
     borderopacity="0.25"
     inkscape:showpageshadow="2"
     inkscape:pageopacity="0.0"
     inkscape:pagecheckerboard="0"
     inkscape:deskcolor="#d1d1d1"
     inkscape:zoom="6.0390625"
     inkscape:cx="23.182406"
     inkscape:cy="49.428202"
     inkscape:window-width="1920"
     inkscape:window-height="996"
     inkscape:window-x="0"
     inkscape:window-y="0"
     inkscape:window-maximized="1"
     inkscape:current-layer="svg5" />
  <g
     id="g5"
     transform="matrix(0.98214286,0,0,0.98245614,-0.42857152,-0.92982455)">
    <circle
       style="opacity:0.2"
       cx="32"
       cy="33"
       r="28"
       id="circle1" />
    <circle
       style="fill:#233143;fill-opacity:1"
       cx="32"
       cy="32"
       r="28"
       id="circle2" />
    <path
       style="opacity:0.2"
       d="m 32,13.628906 c -11.045694,0 -20,8.954306 -20,20 0.01678,6.840034 3.512925,13.096506 9.105468,16.726562 1.731084,1.116506 3.097286,1.831312 4.984376,1.742188 4.695424,-0.394078 6.334624,-2.677816 7.585938,-5.015624 4.295952,-8.026042 1.742102,-12.805288 1.73828,-11.828126 C 35.40147,38.4741 29.287682,44.955342 24.140624,45 20.72029,45.029676 17.903082,41.668816 18,34.617188 18.100429,27.309642 22.351318,19.903998 33,13.65625 32.666396,13.63859 32.334072,13.62984 32,13.62891 Z M 34.765624,19 c -2.671258,-0.06495 -6.154802,2.614568 -8.492186,6.53125 -2.851852,4.778568 -3.047036,9.757998 -0.4375,11.121094 2.610236,1.361916 7.03866,-1.409002 9.890624,-6.1875 2.851854,-4.77857 3.047038,-9.754094 0.4375,-11.117188 C 35.751312,19.132008 35.281048,19.012774 34.765624,19 Z m 11.781252,0.910156 C 47.02097,30.903118 44.737858,43.292258 38.828124,52.371094 46.717092,49.505878 51.977286,42.022042 52,33.628906 51.998,28.528832 50.046616,23.619948 46.546876,19.910156 Z"
       id="path2" />
    <path
       style="fill:#7acc33;fill-opacity:1"
       d="m 32,12.628906 c -11.045694,0 -20,8.954306 -20,20 0.01678,6.840034 3.512925,13.096506 9.105468,16.726562 1.731084,1.116506 3.097286,1.831312 4.984376,1.742188 4.695424,-0.394078 6.334624,-2.677816 7.585938,-5.015624 4.295952,-8.026042 1.742102,-12.805288 1.73828,-11.828126 C 35.40147,37.4741 29.287682,43.955342 24.140624,44 20.72029,44.029676 17.903082,40.668816 18,33.617188 18.100429,26.309642 22.351318,18.903997 33,12.65625 32.666396,12.63859 32.334072,12.62984 32,12.62891 Z M 34.765624,18 c -2.671258,-0.06495 -6.154802,2.614568 -8.492186,6.53125 -2.851852,4.778568 -3.047036,9.757998 -0.4375,11.121094 2.610236,1.361916 7.03866,-1.409002 9.890624,-6.1875 2.851854,-4.77857 3.047038,-9.754094 0.4375,-11.117188 C 35.751312,18.132008 35.281048,18.012775 34.765624,18 Z m 11.781252,0.910156 C 47.02097,29.903118 44.737858,42.292258 38.828124,51.371094 46.717092,48.505878 51.977286,41.022042 52,32.628906 51.998,27.528832 50.046616,22.619948 46.546876,18.910156 Z"
       id="path3" />
    <path
       style="opacity:0.1;fill:#ffffff"
       d="M 32,4 A 28,28 0 0 0 4,32 28,28 0 0 0 4.0332031,32.482422 28,28 0 0 1 32,5 28,28 0 0 1 59.982422,32.242188 28,28 0 0 0 60,32 28,28 0 0 0 32,4 Z"
       id="path4" />
    <path
       style="opacity:0.2;fill:#ffffff"
       d="m 32,12.628906 c -11.045694,0 -20,8.954306 -20,20 3.47e-4,0.141404 0.01036,0.280989 0.01367,0.421875 C 12.314703,22.473525 20.824224,13.957698 31.398438,13.644531 31.918708,13.312993 32.445331,12.981683 33,12.65625 32.666396,12.63859 32.334072,12.629836 32,12.628906 Z M 34.765625,18 c -2.671258,-0.06495 -6.154804,2.614568 -8.492187,6.53125 -1.629923,2.731101 -2.387214,5.524135 -2.253907,7.673828 0.112985,-1.980138 0.866691,-4.349408 2.253907,-6.673828 2.337383,-3.916682 5.820929,-6.5962 8.492187,-6.53125 0.515424,0.01278 0.985687,0.132008 1.398437,0.347656 1.11804,0.584009 1.716414,1.834677 1.816407,3.445313 C 38.09976,20.70332 37.504253,19.047706 36.164062,18.347656 35.751312,18.132008 35.281049,18.012775 34.765625,18 Z m 11.78125,0.910156 c 0.01472,0.341261 0.01797,0.687439 0.02734,1.03125 3.372717,3.590066 5.294811,8.296605 5.414062,13.210938 0.005,-0.174466 0.01125,-0.348145 0.01172,-0.523438 -0.002,-5.100074 -1.953385,-10.008958 -5.453125,-13.71875 z m 0.05273,2.929688 c -0.01573,10.217542 -2.381117,21.250292 -7.771484,29.53125 0.274788,-0.0998 0.546154,-0.205555 0.814453,-0.316406 4.980073,-8.392214 7.091941,-19.251064 6.957031,-29.214844 z m -11.125,12.289062 c -0.03744,-0.0075 -0.06019,0.03339 -0.06055,0.125 C 35.40147,37.4741 29.287683,43.955342 24.140625,44 c -3.286197,0.02851 -6.007786,-3.082687 -6.130859,-9.580078 -0.0016,0.06572 -0.0089,0.131556 -0.0098,0.197266 -0.09692,7.051627 2.720291,10.412488 6.140625,10.382812 5.147058,-0.04466 11.260847,-6.5259 11.273437,-9.746094 0.0019,-0.488581 0.642195,0.461188 0.744141,2.53711 0.07894,-2.305219 -0.491904,-3.623657 -0.683594,-3.66211 z"
       id="path5" />
  </g>
</svg>
