<?xml version="1.0" encoding="UTF-8" standalone="no"?>
<svg
   width="62"
   height="62"
   version="1.1"
   id="svg4"
   sodipodi:docname="iconoclasts.svg"
   inkscape:version="1.4 (unknown)"
   xmlns:inkscape="http://www.inkscape.org/namespaces/inkscape"
   xmlns:sodipodi="http://sodipodi.sourceforge.net/DTD/sodipodi-0.dtd"
   xmlns:xlink="http://www.w3.org/1999/xlink"
   xmlns="http://www.w3.org/2000/svg"
   xmlns:svg="http://www.w3.org/2000/svg">
  <defs
     id="defs4">
    <linearGradient
       id="linearGradient4"
       inkscape:collect="always">
      <stop
         style="stop-color:#7137c8;stop-opacity:1"
         offset="0"
         id="stop4" />
      <stop
         style="stop-color:#c6afe9;stop-opacity:1"
         offset="1"
         id="stop5" />
    </linearGradient>
    <linearGradient
       inkscape:collect="always"
       xlink:href="#linearGradient4"
       id="linearGradient5"
       x1="32"
       y1="61"
       x2="32"
       y2="5"
       gradientUnits="userSpaceOnUse" />
  </defs>
  <sodipodi:namedview
     id="namedview4"
     pagecolor="#ffffff"
     bordercolor="#000000"
     borderopacity="0.25"
     inkscape:showpageshadow="2"
     inkscape:pageopacity="0.0"
     inkscape:pagecheckerboard="0"
     inkscape:deskcolor="#d1d1d1"
     inkscape:zoom="6.0390625"
     inkscape:cx="29.474774"
     inkscape:cy="51.084088"
     inkscape:window-width="1920"
     inkscape:window-height="996"
     inkscape:window-x="0"
     inkscape:window-y="0"
     inkscape:window-maximized="1"
     inkscape:current-layer="svg4" />
  <g
     id="g4"
     transform="matrix(0.98214286,0,0,0.98244804,-0.42857152,-0.92933042)">
    <circle
       style="opacity:0.2"
       cx="32"
       cy="33"
       r="28"
       id="circle1" />
    <circle
       style="fill:url(#linearGradient5)"
       cx="32"
       cy="32"
       r="28"
       id="circle2" />
    <path
       style="opacity:0.1;fill:#ffffff"
       d="M 32,4 A 28,28 0 0 0 4,32 28,28 0 0 0 4.006,32.50977 28,28 0 0 1 32,4.99977 a 28,28 0 0 1 27.994,27.49 28,28 0 0 0 0.006,-0.49024 28,28 0 0 0 -28,-28 z"
       id="path2" />
    <path
       style="opacity:0.2"
       d="m 34,15 -6,6 v 8 L 16.596,40.408 c -2.15,2.218 -2.124,5.751 0.06,7.936 2.209,2.211 5.792,2.213 8.002,0.002 L 36,37 h 8 l 6,-6 V 21 L 40,31 34,25 44,15 Z M 20.951,42 a 2,2 0 0 1 0.049,0 2,2 0 0 1 2,2 2,2 0 0 1 -2,2 2,2 0 0 1 -2,-2 2,2 0 0 1 1.951,-2 z"
       id="path3" />
    <path
       style="fill:#233143;fill-opacity:1"
       d="m 34,14 -6,6 v 8 L 16.596,39.408 c -2.15,2.218 -2.124,5.751 0.06,7.936 2.209,2.211 5.792,2.213 8.002,0.002 L 36,36 h 8 l 6,-6 V 20 L 40,30 34,24 44,14 Z M 20.951,41 a 2,2 0 0 1 0.049,0 2,2 0 0 1 2,2 2,2 0 0 1 -2,2 2,2 0 0 1 -2,-2 2,2 0 0 1 1.951,-2 z"
       id="path4" />
  </g>
</svg>
