<?xml version="1.0" encoding="UTF-8" standalone="no"?>
<svg
   width="62"
   height="62"
   version="1"
   id="svg8"
   sodipodi:docname="icon-requests.svg"
   inkscape:version="1.4 (unknown)"
   xmlns:inkscape="http://www.inkscape.org/namespaces/inkscape"
   xmlns:sodipodi="http://sodipodi.sourceforge.net/DTD/sodipodi-0.dtd"
   xmlns:xlink="http://www.w3.org/1999/xlink"
   xmlns="http://www.w3.org/2000/svg"
   xmlns:svg="http://www.w3.org/2000/svg">
  <defs
     id="defs8">
    <linearGradient
       id="linearGradient1"
       inkscape:collect="always">
      <stop
         style="stop-color:#233143;stop-opacity:1;"
         offset="0"
         id="stop1" />
      <stop
         style="stop-color:#466286;stop-opacity:1;"
         offset="1"
         id="stop2" />
    </linearGradient>
    <linearGradient
       inkscape:collect="always"
       xlink:href="#linearGradient1"
       id="linearGradient2"
       x1="31.508772"
       y1="59.017544"
       x2="31.508774"
       y2="4.9824562"
       gradientUnits="userSpaceOnUse" />
  </defs>
  <sodipodi:namedview
     id="namedview8"
     pagecolor="#ffffff"
     bordercolor="#000000"
     borderopacity="0.25"
     inkscape:showpageshadow="2"
     inkscape:pageopacity="0.0"
     inkscape:pagecheckerboard="0"
     inkscape:deskcolor="#d1d1d1"
     inkscape:zoom="6.0390625"
     inkscape:cx="29.309185"
     inkscape:cy="48.43467"
     inkscape:window-width="1920"
     inkscape:window-height="996"
     inkscape:window-x="0"
     inkscape:window-y="0"
     inkscape:window-maximized="1"
     inkscape:current-layer="svg8" />
  <g
     id="g8"
     transform="translate(-1.0000006,-1.0000005)">
    <rect
       style="opacity:0.2;stroke-width:0.98246"
       width="55.017544"
       height="55.017544"
       x="4"
       y="4.9824572"
       rx="27.508772"
       ry="27.508772"
       id="rect1" />
    <rect
       style="fill:url(#linearGradient2);stroke-width:0.98246;fill-opacity:1"
       width="55.017544"
       height="55.017544"
       x="4"
       y="4"
       rx="27.508772"
       ry="27.508772"
       id="rect2" />
    <path
       style="opacity:0.1;fill:#ffffff;stroke-width:0.98246"
       d="M 31.508773,4 C 16.268912,4 4,16.268912 4,31.508773 4,31.673536 4.010575,31.835946 4.013432,32.000003 4.2747737,16.989522 16.433674,4.982456 31.508773,4.982456 c 15.075097,0 27.233997,12.007066 27.49534,27.017547 0.0029,-0.164057 0.01347,-0.326467 0.01347,-0.49123 C 59.017545,16.268912 46.748633,4 31.508773,4 Z"
       id="path2" />
    <path
       style="opacity:0.2;stroke-width:0.98246"
       d="m 30.821822,12.842415 v 0.0098 a 5.8951278,5.8951278 0 0 0 -0.197643,0 c -9.048623,0.410895 -16.698643,7.028167 -18.41146,15.922696 -1.712816,8.89453 2.934191,17.877914 11.183115,21.619792 3.093345,1.403205 6.406614,1.939148 9.634596,1.684758 5.379968,-0.42398 10.520477,-3.04516 13.998079,-7.512334 A 5.8951278,5.8951278 0 1 0 37.725878,37.3253 c -2.254398,2.895903 -6.117807,3.849409 -9.459977,2.333334 -3.342172,-1.516078 -5.170674,-5.052229 -4.4767,-8.655976 0.692624,-3.596748 3.692726,-6.195018 7.349231,-6.370615 H 49.192984 V 12.842449 Z"
       id="path3" />
    <path
       style="fill:none;stroke:#ffffff;stroke-width:11.7886;stroke-linecap:round;stroke-linejoin:round"
       d="m 30.892348,17.758557 a 13.764073,13.764073 0 0 0 -12.860175,10.9901 13.764073,13.764073 0 0 0 7.508423,15.15882 13.764073,13.764073 0 0 0 16.535447,-3.570055"
       id="path4" />
    <path
       style="fill:#ffffff;stroke-width:0.98246"
       d="M 30.821053,11.85965 H 49.192984 V 23.649124 H 30.821053 Z"
       id="path5" />
    <path
       style="opacity:0.2;stroke-width:0.98246"
       d="m 45.316778,8.9130852 a 2.9325569,2.9531162 0 0 0 -3.000986,2.9508968 v 13.745232 a 2.9325569,2.9531162 0 0 0 4.398394,2.556802 l 5.910343,-3.435346 5.910344,-3.437268 a 2.9325569,2.9531162 0 0 0 0,-5.113609 L 52.624529,12.742525 46.714186,9.3071794 A 2.9325569,2.9531162 0 0 0 45.316778,8.9130852 Z"
       id="path6" />
    <path
       style="fill:#00cc5e;stroke-width:0.98246;fill-opacity:1"
       d="m 45.316778,7.930629 a 2.9325569,2.9531162 0 0 0 -3.000986,2.9509 v 13.745227 a 2.9325569,2.9531162 0 0 0 4.398394,2.556804 l 5.910343,-3.435346 5.910344,-3.437267 a 2.9325569,2.9531162 0 0 0 0,-5.113609 L 52.624529,11.76007 46.714186,8.3247234 A 2.9325569,2.9531162 0 0 0 45.316778,7.930629 Z"
       id="path7" />
    <path
       style="opacity:0.2;fill:#ffffff;stroke-width:0.98246"
       d="M 45.316888,7.9298246 A 2.9325569,2.9531162 0 0 0 42.315792,10.88103 v 0.982456 a 2.9325569,2.9531162 0 0 1 3.001096,-2.9512051 2.9325569,2.9531162 0 0 1 1.396928,0.395285 l 5.91009,3.4347611 5.910086,3.436676 a 2.9325569,2.9531162 0 0 1 1.423794,2.066611 2.9325569,2.9531162 0 0 0 -1.423794,-3.04907 L 52.623906,11.759868 46.713816,8.3251098 A 2.9325569,2.9531162 0 0 0 45.316888,7.9298246 Z"
       id="path8" />
  </g>
</svg>
