<?xml version="1.0" encoding="UTF-8" standalone="no"?>
<svg
   width="62"
   height="62"
   version="1"
   id="svg11"
   sodipodi:docname="idjc.svg"
   inkscape:version="1.4 (unknown)"
   xmlns:inkscape="http://www.inkscape.org/namespaces/inkscape"
   xmlns:sodipodi="http://sodipodi.sourceforge.net/DTD/sodipodi-0.dtd"
   xmlns="http://www.w3.org/2000/svg"
   xmlns:svg="http://www.w3.org/2000/svg">
  <defs
     id="defs11" />
  <sodipodi:namedview
     id="namedview11"
     pagecolor="#ffffff"
     bordercolor="#000000"
     borderopacity="0.25"
     inkscape:showpageshadow="2"
     inkscape:pageopacity="0.0"
     inkscape:pagecheckerboard="0"
     inkscape:deskcolor="#d1d1d1"
     inkscape:zoom="6.0390625"
     inkscape:cx="70.54075"
     inkscape:cy="13.329884"
     inkscape:window-width="1920"
     inkscape:window-height="996"
     inkscape:window-x="0"
     inkscape:window-y="0"
     inkscape:window-maximized="1"
     inkscape:current-layer="svg11" />
  <g
     id="g11"
     transform="matrix(1.0011696,0,0,1,2.2476605,2.5)">
    <path
       style="opacity:0.2;stroke-width:0.890628"
       d="M 55.401875,28.346818 A 26.71875,26.71875 0 0 1 28.71875,54.328125 26.71875,26.71875 0 0 1 2.035625,28.653182 26.71875,26.71875 0 0 0 2,29.390625 26.71875,26.71875 0 0 0 28.71875,56.109375 26.71875,26.71875 0 0 0 55.4375,29.390625 26.71875,26.71875 0 0 0 55.401875,28.346818 Z"
       id="path1" />
    <path
       style="fill:#2d3d53;stroke-width:0.890628;fill-opacity:1"
       d="M 55.4375,28.5 A 26.71875,26.71875 0 0 1 28.71875,55.21875 26.71875,26.71875 0 0 1 2,28.5 26.71875,26.71875 0 0 1 28.71875,1.78125 26.71875,26.71875 0 0 1 55.4375,28.5 Z"
       id="path2" />
    <path
       style="opacity:0.1;fill:#ffffff;stroke-width:0.890628"
       d="M 28.717011,1.78125 A 26.71875,26.71875 0 0 0 2,28.5 26.71875,26.71875 0 0 0 2.0156547,28.955739 26.71875,26.71875 0 0 1 28.717011,2.671875 h 0.002 A 26.71875,26.71875 0 0 1 55.414893,28.955739 26.71875,26.71875 0 0 0 55.435761,28.5 26.71875,26.71875 0 0 0 28.71875,1.78125 Z"
       id="path3" />
    <path
       style="opacity:0.15;fill:#ffffff;stroke-width:0.890628"
       d="M 13.909616,6.2910182 C 6.7391932,11.072784 2.0297464,19.230375 2.0297464,28.531696 H 23.404752 c 0,-2.165466 1.294964,-4.019032 3.146746,-4.858344 L 13.905875,6.2926214 Z"
       id="path4" />
    <path
       style="opacity:0.15;fill:#ffffff;stroke-width:0.890628"
       d="m 43.528068,50.708625 c 7.1706,-4.781755 11.879868,-12.939361 11.879868,-22.240693 h -21.375 c 0,2.165466 -1.294968,4.019032 -3.146761,4.85837 L 43.528068,50.70917 Z"
       id="path5" />
    <path
       style="opacity:0.2;stroke-width:0.890628"
       d="M 39.40609,0.89103346 V 11.578381 H 50.093457 L 39.40609,29.390625 V 18.703274 H 28.71875 Z"
       id="path6" />
    <rect
       style="fill:#f3f3f3;stroke-width:0.890628;fill-opacity:1"
       width="21.374989"
       height="21.374989"
       x="18.031231"
       y="17.8125"
       ry="10.687498"
       id="rect6" />
    <rect
       style="fill:#2d3d53;stroke-width:0.890628;fill-opacity:1"
       width="7.1250048"
       height="7.1250048"
       x="25.156261"
       y="-32.062462"
       ry="3.5625024"
       transform="scale(1,-1)"
       id="rect7" />
    <path
       style="fill:#ffcc00;stroke-width:0.890628"
       d="M 39.40609,4.085563e-4 V 10.687767 H 50.093457 L 39.40609,28.5 V 17.81266 H 28.71875 Z"
       id="path7" />
    <path
       style="opacity:0.2;stroke-width:0.890628"
       d="m 18.03125,29.390625 -10.6875,17.8125 h 10.6875 V 57 h 0.534023 L 28.71875,40.078125 h -10.6875 z"
       id="path8" />
    <path
       style="fill:#ff9955;stroke-width:0.890628"
       d="M 18.031091,57 V 46.31266 H 7.34375 L 18.031091,28.5004 v 10.687367 h 10.687366 z"
       id="path9" />
    <path
       style="opacity:0.2;fill:#f2f2f2;stroke-width:0.890628;fill-opacity:1"
       d="m 39.40625,0 -10.6875,17.8125 h 0.534023 L 39.40625,0.890625 Z m 0,10.6875 v 0.890625 H 49.559727 L 50.09375,10.6875 Z"
       id="path10" />
    <path
       style="opacity:0.2;fill:#ffffff;stroke-width:0.890628"
       d="M 18.03125,28.5 7.34375,46.3125 H 7.8777768 L 18.03125,29.390625 Z m 0,10.6875 v 0.890625 H 28.184727 L 28.71875,39.1875 Z"
       id="path11" />
  </g>
</svg>
