<?xml version="1.0" encoding="UTF-8" standalone="no"?>
<svg
   clip-rule="evenodd"
   fill-rule="evenodd"
   stroke-linejoin="round"
   stroke-miterlimit="2"
   viewBox="0 0 62 62"
   version="1.1"
   id="svg11"
   sodipodi:docname="im.bernard.Nostalgia.svg"
   width="62"
   height="62"
   inkscape:version="1.4 (unknown)"
   xmlns:inkscape="http://www.inkscape.org/namespaces/inkscape"
   xmlns:sodipodi="http://sodipodi.sourceforge.net/DTD/sodipodi-0.dtd"
   xmlns:xlink="http://www.w3.org/1999/xlink"
   xmlns="http://www.w3.org/2000/svg"
   xmlns:svg="http://www.w3.org/2000/svg">
  <defs
     id="defs11">
    <linearGradient
       id="linearGradient11"
       inkscape:collect="always">
      <stop
         style="stop-color:#b4c3cb;stop-opacity:1;"
         offset="0"
         id="stop11" />
      <stop
         style="stop-color:#dfe7ec;stop-opacity:1;"
         offset="1"
         id="stop12" />
    </linearGradient>
    <linearGradient
       inkscape:collect="always"
       xlink:href="#linearGradient11"
       id="linearGradient12"
       x1="30.332001"
       y1="58.332001"
       x2="28.825615"
       y2="2.332"
       gradientUnits="userSpaceOnUse" />
    <linearGradient
       inkscape:collect="always"
       xlink:href="#linearGradient11"
       id="linearGradient14"
       x1="44.546509"
       y1="51.509033"
       x2="49.715424"
       y2="51.509033"
       gradientUnits="userSpaceOnUse" />
    <linearGradient
       inkscape:collect="always"
       xlink:href="#linearGradient11"
       id="linearGradient16"
       x1="10.948577"
       y1="51.509033"
       x2="17.409718"
       y2="51.509033"
       gradientUnits="userSpaceOnUse" />
  </defs>
  <sodipodi:namedview
     id="namedview11"
     pagecolor="#ffffff"
     bordercolor="#000000"
     borderopacity="0.25"
     inkscape:showpageshadow="2"
     inkscape:pageopacity="0.0"
     inkscape:pagecheckerboard="0"
     inkscape:deskcolor="#d1d1d1"
     inkscape:zoom="5.6936827"
     inkscape:cx="23.007956"
     inkscape:cy="52.250892"
     inkscape:window-width="1920"
     inkscape:window-height="996"
     inkscape:window-x="0"
     inkscape:window-y="0"
     inkscape:window-maximized="1"
     inkscape:current-layer="svg11" />
  <linearGradient
     id="a">
    <stop
       stop-color="#dfdfdf"
       offset="0"
       id="stop1" />
    <stop
       stop-color="#ffffff"
       offset="1"
       id="stop2" />
  </linearGradient>
  <linearGradient
     id="b"
     x2="1"
     gradientTransform="matrix(0,-43.53155,43.53155,0,1192.407,51.589413)"
     gradientUnits="userSpaceOnUse"
     xlink:href="#a" />
  <linearGradient
     id="c"
     x2="1"
     gradientTransform="matrix(0,-64.61141,7.7533692,0,45.838739,54.093364)"
     gradientUnits="userSpaceOnUse"
     xlink:href="#a" />
  <linearGradient
     id="d"
     x2="1"
     gradientTransform="matrix(64.61141,0,0,7.7533692,-47.201691,54.093364)"
     gradientUnits="userSpaceOnUse"
     xlink:href="#a" />
  <g
     id="g11"
     transform="translate(0.668,0.668)">
    <path
       d="M 50.284003,58.332 H 10.379997 C 5.9373166,58.332 2.332,54.726683 2.332,50.284003 V 10.379997 C 2.332,5.9373166 5.9373166,2.332 10.379997,2.332 h 39.904006 c 4.44268,0 8.047997,3.6053166 8.047997,8.047997 v 39.904006 c 0,4.44268 -3.605317,8.047997 -8.047997,8.047997 z"
       id="path2"
       style="fill:url(#linearGradient12)" />
    <path
       d="m 52.924025,38.064693 c 0,2.08178 -1.690234,3.772014 -3.773306,3.772014 H 11.513281 c -2.0830717,0 -3.7733061,-1.690234 -3.7733061,-3.772014 v -27.09544 c 0,-2.0817795 1.6902344,-3.7720139 3.7733061,-3.7720139 h 37.637438 c 2.083072,0 3.773306,1.6902344 3.773306,3.7720139 z"
       id="path3"
       style="stroke-width:1.29223;fill:#354b66;fill-opacity:1" />
    <g
       fill-rule="nonzero"
       id="g8"
       transform="matrix(1.2922282,0,0,1.2922282,-0.68147609,-0.68147609)">
      <path
         d="m 9.524,29.99 c 0,0.322 0.304,0.582 0.683,0.582 h 7.761 V 8.428 h -7.761 c -0.379,0 -0.683,0.26 -0.683,0.582 z"
         id="path4"
         style="fill:#33b4ff;fill-opacity:1" />
      <path
         d="m 17.968,30.572 h 4.826 V 8.428 h -4.826 z"
         id="path5"
         style="fill:#0066ff" />
      <path
         d="m 22.794,30.572 h 4.825 V 8.428 h -4.825 z"
         id="path6"
         style="fill:#8d5fd3" />
      <path
         d="m 27.619,30.572 h 6.032 V 8.428 h -6.032 z"
         id="path7"
         style="fill:#3594fd;fill-opacity:1" />
      <path
         d="m 33.651,30.572 h 4.136 c 0.382,0 0.689,-0.26 0.689,-0.582 V 9.01 c 0,-0.322 -0.307,-0.582 -0.689,-0.582 h -4.136 z"
         id="path8"
         style="fill:#55ddff" />
    </g>
    <path
       d="m 58.332,47.724099 v 2.559904 c 0,4.44268 -3.605317,8.047997 -8.047997,8.047997 H 10.379997 C 5.9373166,58.332 2.332,54.726683 2.332,50.284003 v -2.559904 z"
       id="path9"
       style="stroke-width:1.29223;fill:#52739e;fill-opacity:1" />
    <path
       d="m 44.54651,51.509035 c 0,-1.42662 1.157836,-2.584456 2.584456,-2.584456 1.42662,0 2.584457,1.157836 2.584457,2.584456 0,1.42662 -1.157837,2.584457 -2.584457,2.584457 -1.42662,0 -2.584456,-1.157837 -2.584456,-2.584457 z"
       id="path10"
       style="fill:url(#linearGradient14)" />
    <path
       d="m 13.533034,51.16401 c 0,-0.523352 -0.423851,-0.947203 -0.947203,-0.947203 h -0.69005 c -0.523353,0 -0.947204,0.423851 -0.947204,0.947203 v 0.69005 c 0,0.52206 0.423851,0.947203 0.947204,0.947203 h 0.69005 c 0.523352,0 0.947203,-0.425143 0.947203,-0.947203 z m 3.876684,0 c 0,-0.523352 -0.423851,-0.947203 -0.947203,-0.947203 h -0.69005 c -0.523352,0 -0.947203,0.423851 -0.947203,0.947203 v 0.69005 c 0,0.52206 0.423851,0.947203 0.947203,0.947203 h 0.69005 c 0.523352,0 0.947203,-0.425143 0.947203,-0.947203 z"
       id="path11"
       style="fill:url(#linearGradient16)" />
  </g>
</svg>
