<?xml version="1.0" encoding="UTF-8" standalone="no"?>
<svg
   width="62"
   height="62"
   version="1.1"
   id="svg7"
   sodipodi:docname="im.fluffychat.Fluffychat.svg"
   inkscape:version="1.4 (unknown)"
   xmlns:inkscape="http://www.inkscape.org/namespaces/inkscape"
   xmlns:sodipodi="http://sodipodi.sourceforge.net/DTD/sodipodi-0.dtd"
   xmlns="http://www.w3.org/2000/svg"
   xmlns:svg="http://www.w3.org/2000/svg">
  <defs
     id="defs7" />
  <sodipodi:namedview
     id="namedview7"
     pagecolor="#ffffff"
     bordercolor="#000000"
     borderopacity="0.25"
     inkscape:showpageshadow="2"
     inkscape:pageopacity="0.0"
     inkscape:pagecheckerboard="0"
     inkscape:deskcolor="#d1d1d1"
     inkscape:zoom="6.0390625"
     inkscape:cx="30.799483"
     inkscape:cy="24.589909"
     inkscape:window-width="1920"
     inkscape:window-height="996"
     inkscape:window-x="0"
     inkscape:window-y="0"
     inkscape:window-maximized="1"
     inkscape:current-layer="svg7" />
  <g
     id="g7"
     transform="translate(-0.499999,-1.0000001)">
    <path
       style="opacity:0.2;stroke-width:0.982303"
       class="st2"
       d="m 55.599056,34.061005 c 0.596352,-0.117479 1.113194,-0.391583 1.510767,-0.783167 1.590274,-2.075382 0.318057,-4.62066 -1.789061,-4.933921 -0.318057,0 -0.596358,-0.313267 -0.596358,-0.58737 0,-0.117482 0,-0.195797 0,-0.195797 0.318056,-0.313259 0.596358,-0.704842 0.99392,-1.292212 C 58.93864,22.039459 60.409646,6.4545201 57.229093,5.2406183 53.33291,3.9483997 45.421277,7.7075805 42.002176,12.054137 41.803392,11.936655 41.60461,11.662553 41.60461,11.349284 c 0.11927,-1.174741 -0.516839,-2.1536942 -1.391495,-2.66275 -1.789061,-0.900637 -3.498607,0 -4.214233,1.2922214 -0.198787,0.3132596 -0.516844,0.5090566 -0.795143,0.3915746 -0.318056,0 -0.596349,-0.31326 -0.596349,-0.5873682 C 34.408606,8.8040083 33.812249,8.0208455 32.897835,7.6292646 30.989503,6.846102 29.001657,7.9425296 28.683601,9.7046451 28.564329,10.017913 28.365544,10.292015 28.087245,10.292015 27.769191,10.409489 27.490896,10.174543 27.29211,9.9004359 26.695755,8.9997988 25.701827,8.4124272 24.707907,8.4124272 c -1.590279,0 -3.02153,1.2922179 -3.101045,2.8585418 v 0.117472 0.117482 c 0,0.31326 -0.198784,0.587371 -0.397569,0.704843 H 21.090021 C 17.790199,7.9816875 9.7592937,4.1050323 5.7835985,5.3972509 2.5632859,6.4936787 4.0740494,22.078618 7.3738765,26.307694 c 0.596354,0.783158 1.1131945,1.370531 1.5107639,1.762112 -0.1192707,0.31327 -0.3975694,0.587372 -0.7156247,0.587372 -0.5168405,0 -0.9939238,0.195795 -1.3914931,0.509054 -2.1071182,1.95791 -0.9144098,4.738135 1.1927079,5.24719 0.3180559,0.117481 0.5963546,0.391584 0.5963546,0.704853 0,0.313259 -0.1987846,0.704843 -0.5168406,0.783157 -0.3975693,0.195797 -0.7951385,0.391584 -1.1131943,0.783167 -1.590278,2.271169 0,4.816448 2.1866321,4.816448 0.3180556,0 0.5963543,0.195789 0.715625,0.509056 0.11927,0.313263 0.11927,0.587373 -0.1987847,0.78316 -0.596354,0.587372 -0.9144099,1.370537 -0.7951386,2.153698 0.1192702,1.096432 0.7951386,2.075381 1.908335,2.545278 0.596357,0.313266 1.192704,0.313266 1.78906,0.195794 0.318057,-0.117477 0.596357,0 0.795143,0.313262 0.198786,0.195796 0.198786,0.587371 0.119271,0.783166 -0.318057,0.58737 -0.397571,1.292213 -0.198785,1.957903 0.318057,1.096433 1.113189,1.879592 2.186632,2.153701 0.993917,0.195786 1.709545,-0.117479 2.186631,-0.313267 0.198785,-0.117473 -1.311983,3.563389 -2.385417,6.030355 -0.318057,0.783158 0.516842,1.683798 1.391489,1.292214 3.299832,-1.488009 8.826045,-4.033288 8.826045,-3.837494 0.198782,2.075382 2.5842,3.563387 4.890103,2.075382 0.516842,-0.31327 0.795142,-0.90064 0.914412,-1.370538 0.119272,-0.313266 0.397573,-0.587372 0.795141,-0.587372 0.397567,0 0.715621,0.195788 0.795133,0.587372 0.119274,0.509054 0.318059,0.90064 0.71563,1.174742 2.305903,1.76212 4.890106,0.313268 5.08889,-1.879586 0,-0.313269 0.198787,-0.58737 0.516843,-0.704849 0.31805,-0.117474 0.596347,0 0.795134,0.195793 0.596355,0.58737 1.311984,0.978956 2.107118,0.978956 v 0 c 0.993925,0 1.987848,-0.509058 2.584201,-1.488012 0.397571,-0.58737 0.516843,-1.174745 0.397571,-1.95791 0,-0.313265 0.119272,-0.58737 0.318058,-0.783161 0.198785,-0.19579 0.596356,-0.19579 0.795142,0 0.596348,0.313266 1.311975,0.509056 1.987846,0.313266 1.11319,-0.195789 1.987844,-1.096428 2.305903,-2.075382 0.198784,-0.704845 0.119272,-1.370533 -0.198785,-2.075382 -0.119274,-0.313259 -0.119274,-0.58737 0.11927,-0.783159 0.238542,-0.195794 0.516838,-0.313267 0.795136,-0.313267 0.715627,0.117473 1.311982,0.117473 1.908338,-0.195789 0.914405,-0.391583 1.51076,-1.174747 1.709547,-2.153696 0.198786,-0.978954 -0.119272,-1.879593 -0.795142,-2.54528 -0.198785,-0.195794 -0.318055,-0.509054 -0.198785,-0.783165 0.119271,-0.274103 0.39757,-0.509056 0.715627,-0.509056 0.715628,0 1.510762,-0.195788 1.987845,-0.783159 1.709551,-1.762119 0.914416,-4.150763 -0.993923,-4.933928 -0.318051,-0.117475 -0.516836,-0.391576 -0.516836,-0.783159 0,-0.352426 0.278299,-0.626529 0.596351,-0.626529 z"
       id="path1" />
    <path
       style="fill:#6f5eba;stroke-width:0.982303;fill-opacity:1"
       class="st2"
       d="m 55.599056,33.078546 c 0.596352,-0.117472 1.113194,-0.391584 1.510767,-0.783159 1.590274,-2.075382 0.318057,-4.62066 -1.789061,-4.933929 -0.318057,0 -0.596358,-0.313259 -0.596358,-0.58737 0,-0.117474 0,-0.195789 0,-0.195789 0.318056,-0.313267 0.596358,-0.704851 0.99392,-1.292221 C 58.93864,21.057 60.409646,5.4720642 57.229093,4.2581624 53.33291,2.9659438 45.421277,6.7251246 42.002176,11.071677 41.803392,10.954205 41.60461,10.680093 41.60461,10.366834 41.72388,9.1920866 41.087771,8.2131334 40.213115,7.7040781 c -1.789061,-0.900637 -3.498607,0 -4.214233,1.2922179 -0.198787,0.3132651 -0.516844,0.5090556 -0.795143,0.3915815 -0.318056,0 -0.596349,-0.3132652 -0.596349,-0.5873718 C 34.408606,7.8215524 33.812249,7.0383896 32.897835,6.6468087 30.989503,5.8636461 29.001657,6.9600737 28.683601,8.722189 28.564329,9.0354542 28.365544,9.3095611 28.087245,9.3095611 27.769191,9.4270359 27.490896,9.1920866 27.29211,8.9179799 26.695755,8.0173429 25.701827,7.4299713 24.707907,7.4299713 c -1.590279,0 -3.02153,1.2922177 -3.101045,2.8585467 v 0.117473 0.117473 c 0,0.313268 -0.198784,0.58737 -0.397569,0.704842 H 21.090021 C 17.790199,6.9992312 9.7592937,3.1225764 5.7835985,4.414795 2.5632859,5.5112228 4.0740494,21.096158 7.3738765,25.325234 c 0.596354,0.783167 1.1131945,1.370538 1.5107639,1.762121 -0.1192707,0.313261 -0.3975694,0.587372 -0.7156247,0.587372 -0.5168405,0 -0.9939238,0.195787 -1.3914931,0.509054 -2.1071182,1.957903 -0.9144098,4.738134 1.1927079,5.24719 0.3180559,0.117473 0.5963546,0.391578 0.5963546,0.704845 0,0.313267 -0.1987846,0.704844 -0.5168406,0.783165 -0.3975693,0.195789 -0.7951385,0.391575 -1.1131943,0.783159 -1.590278,2.27117 0,4.816448 2.1866321,4.816448 0.3180556,0 0.5963543,0.195797 0.715625,0.509056 0.11927,0.313269 0.11927,0.587373 -0.1987847,0.783167 -0.596354,0.58737 -0.9144099,1.37053 -0.7951386,2.153696 0.1192702,1.096426 0.7951386,2.075382 1.908335,2.54528 0.596357,0.31326 1.192704,0.31326 1.78906,0.195787 0.318057,-0.117473 0.596357,0 0.795143,0.313269 0.198786,0.195789 0.198786,0.58737 0.119271,0.783159 -0.318057,0.587371 -0.397571,1.292221 -0.198785,1.957907 0.318057,1.096428 1.113189,1.879591 2.186632,2.153697 0.993917,0.195788 1.709545,-0.117473 2.186631,-0.313266 0.198785,-0.117474 -1.311983,3.563388 -2.385417,6.030353 -0.318057,0.783162 0.516842,1.683799 1.391489,1.292217 3.299832,-1.488003 8.826045,-4.033283 8.826045,-3.837496 0.198782,2.075381 2.5842,3.563391 4.890103,2.075381 0.516842,-0.313266 0.795142,-0.900638 0.914412,-1.370535 0.119272,-0.313263 0.397573,-0.587373 0.795141,-0.587373 0.397567,0 0.715621,0.195794 0.795133,0.587373 0.119274,0.509054 0.318059,0.900638 0.71563,1.174747 2.305903,1.762112 4.890106,0.313262 5.08889,-1.879593 0,-0.313266 0.198787,-0.587371 0.516843,-0.704843 0.31805,-0.117477 0.596347,0 0.795134,0.195787 0.596355,0.58737 1.311984,0.978955 2.107118,0.978955 v 0 c 0.993925,0 1.987848,-0.509058 2.584201,-1.488011 0.397571,-0.587371 0.516843,-1.174741 0.397571,-1.957908 0,-0.313261 0.119272,-0.587371 0.318058,-0.783159 0.198785,-0.195791 0.596356,-0.195791 0.795142,0 0.596348,0.313265 1.311975,0.509056 1.987846,0.313265 1.11319,-0.195792 1.987844,-1.09643 2.305903,-2.075379 0.198784,-0.704851 0.119272,-1.370536 -0.198785,-2.07538 -0.119274,-0.313267 -0.119274,-0.587376 0.11927,-0.783167 0.238542,-0.195787 0.516838,-0.313264 0.795136,-0.313264 0.715627,0.117477 1.311982,0.117477 1.908338,-0.195792 0.914405,-0.391583 1.51076,-1.174743 1.709547,-2.153696 0.198786,-0.978954 -0.119272,-1.879592 -0.795142,-2.54528 -0.198785,-0.195787 -0.318055,-0.509054 -0.198785,-0.783157 0.119271,-0.274111 0.39757,-0.509056 0.715627,-0.509056 0.715628,0 1.510762,-0.195797 1.987845,-0.783167 1.709551,-1.762113 0.914416,-4.150764 -0.993923,-4.933921 -0.318051,-0.117479 -0.516836,-0.391583 -0.516836,-0.783167 0,-0.352417 0.278299,-0.626528 0.596351,-0.626528 z"
       id="path2" />
    <path
       style="opacity:0.2;stroke-width:0.982303"
       d="m 53.160857,9.9368429 c -1.822532,-0.1445474 -4.43968,0.9488291 -6.387768,2.4906821 0.437328,0.195787 0.634074,0.507941 0.713588,1.016997 0.198783,0.587369 0.198783,1.174139 0,1.761508 -0.119268,0.313271 7.12e-4,0.587109 0.199497,0.782895 0.198786,0.195796 0.51586,0.313202 0.79416,0.195729 0.397566,-0.195797 0.795575,-0.195729 1.193144,-0.195729 0.914411,0 1.709384,0.395021 2.30574,1.178179 0.397564,0.509056 0.71776,1.171804 0.598489,1.876646 0,0.58737 -0.199872,1.095895 -0.517923,1.56579 -0.198785,0.195792 -0.198785,0.590945 0,0.786732 0.119272,0.117472 0.200206,0.310856 0.398993,0.310856 0.397571,-0.117472 0.79453,-0.391312 1.112582,-0.782896 C 55.360423,18.45727 55.678851,10.666212 53.889792,10.07884 53.666154,10.00541 53.421218,9.9574955 53.160857,9.9368429 Z M 9.8583291,10.002092 c -0.2668063,0.01745 -0.5168112,0.06089 -0.7404439,0.134319 -1.7890629,0.58737 -1.4720252,8.378437 0.3567943,10.845392 0.3975692,0.587374 0.8765205,0.861151 1.5921485,0.978624 l 0.318427,-0.310856 c 0.198786,-0.313268 0.119271,-0.590944 0,-0.786732 -0.516842,-0.70485 -0.637199,-1.484934 -0.517927,-2.268094 0.198785,-1.096425 1.113361,-1.95866 2.186804,-2.271929 0.596351,-0.195788 1.191448,-0.119816 1.787802,0.115127 0.318057,0.117483 0.599211,6.9e-5 0.797995,-0.195718 0.198787,-0.195788 0.314929,-0.508793 0.195657,-0.782895 -0.198786,-0.58737 -0.198786,-1.17414 0,-1.761517 0.119272,-0.391577 0.320195,-0.780483 0.598494,-1.093743 -1.9133,-1.541857 -4.708108,-2.7240436 -6.5757509,-2.601981 z m 9.8559589,20.524227 c -2.169688,0 -3.928577,1.759441 -3.928577,3.929821 0,2.17038 1.758889,3.929824 3.928577,3.929824 2.169687,0 3.928567,-1.759444 3.928567,-3.929824 0,-2.17038 -1.75888,-3.929821 -3.928567,-3.929821 z m 23.57143,0 c -2.169696,0 -3.928576,1.759441 -3.928576,3.929821 0,2.17038 1.75888,3.929824 3.928576,3.929824 2.169687,0 3.928568,-1.759444 3.928568,-3.929824 0,-2.17038 -1.758881,-3.929821 -3.928568,-3.929821 z M 31.499999,32.49123 c -1.964284,0.01679 -3.928568,0.61127 -3.928568,1.730808 0,2.239081 1.689704,4.163926 3.928568,4.163926 2.112131,0 3.928576,-1.790499 3.928576,-4.163926 0,-1.18671 -1.964291,-1.7476 -3.928576,-1.730808 z"
       id="path3" />
    <path
       style="fill:#f2f2f2;stroke-width:0.982303;fill-opacity:1"
       class="st3"
       d="m 47.487945,12.462971 c 0.198785,0.587372 0.198785,1.174743 0,1.762113 -0.119272,0.313269 0,0.587372 0.198785,0.783158 0.198786,0.195797 0.516842,0.31327 0.795141,0.195797 0.397573,-0.195797 0.795138,-0.195797 1.192708,-0.195797 0.91441,0 1.709549,0.391584 2.305902,1.174752 0.39757,0.509055 0.715626,1.174741 0.596354,1.879584 0,0.58737 -0.198784,1.096428 -0.51684,1.566324 -0.198784,0.195797 -0.198784,0.587372 0,0.78317 0.119272,0.11747 0.198784,0.313258 0.397571,0.313258 0.39757,-0.117472 0.795141,-0.391575 1.113198,-0.783158 1.789059,-2.466964 2.107118,-10.2594316 0.31805,-10.8468029 -1.789062,-0.5873721 -4.8901,0.5873713 -7.116493,2.3494919 0.437326,0.195787 0.636109,0.509056 0.715624,1.01811 z"
       id="path4" />
    <path
       style="fill:#f2f2f2;stroke-width:0.982303;fill-opacity:1"
       class="st3"
       d="m 11.066242,20.97881 c 0.119271,-0.117478 0.198786,-0.195798 0.318056,-0.31327 0.198778,-0.313259 0.11927,-0.58737 0,-0.783159 -0.516842,-0.704851 -0.636113,-1.488008 -0.516842,-2.271176 0.198786,-1.096427 1.113189,-1.9579 2.186632,-2.271169 0.596356,-0.195788 1.192703,-0.117471 1.789061,0.117473 0.318057,0.117473 0.596356,0 0.795141,-0.195787 0.198786,-0.195797 0.318057,-0.509056 0.198786,-0.783168 -0.198786,-0.58737 -0.198786,-1.174741 0,-1.762112 0.119271,-0.391584 0.318051,-0.783167 0.596347,-1.096427 C 14.246791,9.8578979 10.907213,8.5656796 9.1181479,9.1530511 7.3290852,9.7404234 7.6471412,17.532891 9.4759607,19.999856 c 0.3975692,0.58737 0.8746523,0.861476 1.5902813,0.978954 z"
       id="path5" />
    <ellipse
       style="fill:#f2f2f2;stroke-width:0.982303;fill-opacity:1"
       class="st3"
       cx="19.714283"
       cy="33.473686"
       id="circle5"
       rx="3.9285707"
       ry="3.9298239" />
    <path
       style="fill:#e5e5e5;stroke-width:0.982303;fill-opacity:1"
       class="st3"
       d="m 35.428575,33.238826 c 0,2.373427 -1.816443,4.164684 -3.928574,4.164684 -2.238864,0 -3.92857,-1.925608 -3.92857,-4.164684 0,-2.239078 7.857144,-2.373422 7.857144,0 z"
       id="path6" />
    <ellipse
       style="fill:#f2f2f2;stroke-width:0.982303;fill-opacity:1"
       class="st3"
       cx="43.285717"
       cy="33.473686"
       id="circle6"
       rx="3.9285707"
       ry="3.9298239" />
    <path
       style="opacity:0.1;fill:#ffffff;stroke-width:0.982303"
       d="m 55.597029,4.0019191 c -4.171218,-0.08673 -10.60291,3.2658453 -13.594621,7.0690769 -0.198785,-0.117472 -0.397081,-0.390958 -0.397081,-0.704217 0.11927,-1.1747467 -0.517992,-2.1543241 -1.392643,-2.6633798 -1.789063,-0.900637 -3.498765,0.00111 -4.214392,1.2933113 -0.198787,0.3132651 -0.515859,0.5089215 -0.794152,0.3914474 -0.318058,0 -0.596581,-0.3130644 -0.596581,-0.5871711 C 34.408775,7.8220336 33.812815,7.0376891 32.898401,6.6461074 30.990069,5.8629448 29.002065,6.9601975 28.684009,8.7223135 28.564739,9.0355787 28.365737,9.3094848 28.087438,9.3094848 27.76938,9.426959 27.490152,9.192144 27.291365,8.9180373 26.695009,8.0174003 25.701408,7.4309214 24.707488,7.4309214 c -1.590282,0 -3.020375,1.2908571 -3.09989,2.8571796 v 0.11705 0.118974 c 0,0.313259 -0.200215,0.586745 -0.398994,0.704217 H 21.08967 C 17.78984,6.999267 9.7596655,3.1222554 5.7839702,4.414474 4.4881771,4.8556553 3.968869,7.6545033 4.0134276,11.103619 4.0751221,8.1178686 4.6134662,5.795454 5.7839702,5.39693 9.7596655,4.1047114 17.78984,7.9817229 21.08967,12.210802 h 0.118934 c 0.198779,-0.117472 0.398994,-0.390958 0.398994,-0.704227 v -0.118964 -0.11705 c 0.07953,-1.5663266 1.509608,-2.8571836 3.09989,-2.8571836 0.99392,0 1.987521,0.5864788 2.583877,1.4871155 0.198787,0.2741081 0.478015,0.5089261 0.796073,0.3914441 0.278299,0 0.477301,-0.273898 0.596571,-0.5871674 0.318056,-1.7621158 2.30606,-2.8593688 4.214392,-2.0762062 0.914414,0.3915817 1.510374,1.1759268 1.709158,2.1548795 0,0.2741071 0.278523,0.5871721 0.596581,0.5871721 0.278293,0.117472 0.595365,-0.07818 0.794152,-0.3914472 0.715627,-1.2922195 2.425329,-2.1939496 4.214392,-1.2933126 0.874651,0.5090557 1.511913,1.4886328 1.392643,2.6633738 0,0.313269 0.198296,0.586755 0.397081,0.704227 3.419096,-4.3465548 11.330872,-8.1041717 15.22705,-6.8119541 1.159079,0.4423776 1.695004,2.8016945 1.759033,5.8160621 C 59.027878,7.5834653 58.511429,4.7483279 57.229458,4.2590459 56.742435,4.0975192 56.192921,4.0143082 55.597029,4.0019191 Z M 55.000456,27.24123 c -0.09084,0.108825 -0.182572,0.228199 -0.276231,0.320451 v 0.19572 c 0,0.274111 0.278524,0.587175 0.596576,0.587175 1.282701,0.190696 2.250749,1.209188 2.457275,2.444622 0.272533,-1.64218 -0.845575,-3.187471 -2.457275,-3.427081 -0.118101,0 -0.225423,-0.05258 -0.320345,-0.120887 z M 8.4464984,27.598135 c -0.086962,0.04518 -0.1801504,0.07673 -0.2781461,0.07673 -0.5168399,0 -0.9931601,0.195238 -1.3907294,0.508498 -0.9421836,0.875467 -1.2210287,1.914101 -1.0569546,2.841835 0.1100893,-0.638384 0.4382395,-1.284476 1.0569546,-1.859377 0.3975693,-0.313266 0.8738895,-0.508498 1.3907294,-0.508498 0.3180559,0 0.596236,-0.273906 0.7155064,-0.587167 C 8.756184,27.944416 8.5974573,27.764268 8.4464984,27.598129 Z M 55.180772,34.24123 c -0.109334,0.112579 -0.178401,0.27088 -0.178401,0.44709 0,0.391582 0.199872,0.665419 0.517927,0.782895 1.006156,0.412917 1.686987,1.274366 1.870292,2.252746 0.23049,-1.354845 -0.535569,-2.687441 -1.870292,-3.235199 -0.139933,-0.05171 -0.252542,-0.138547 -0.339526,-0.247532 z M 8.3716866,34.680646 C 8.2864666,34.793015 8.1813751,34.886092 8.0494212,34.918583 7.651852,35.11438 7.2548928,35.309898 6.9368376,35.701478 6.3657833,36.517038 6.2107331,37.36738 6.340262,38.123082 6.417886,37.648826 6.6034432,37.16008 6.9368376,36.683937 7.2548928,36.292354 7.651852,36.096831 8.0494212,35.901043 c 0.3180556,-0.07831 0.5179266,-0.469633 0.5179266,-0.782895 0,-0.162626 -0.07904,-0.312417 -0.1956612,-0.437502 z M 53.974191,41.45614 c -0.06687,0.07332 -0.126782,0.152095 -0.164965,0.23986 -0.11927,0.274103 7.08e-4,0.589023 0.199493,0.784809 0.435961,0.429396 0.702465,0.961817 0.797994,1.544685 0.191393,-0.972102 -0.126203,-1.865467 -0.797994,-2.527136 -0.01275,-0.01255 -0.0225,-0.02878 -0.03455,-0.04223 z M 9.689523,41.766996 c -0.018848,0.01411 -0.028111,0.03068 -0.049875,0.04412 -0.5963543,0.58737 -0.9134256,1.369798 -0.7941544,2.152965 0.00782,0.07145 0.023972,0.140702 0.036447,0.211074 0.102978,-0.507834 0.3599794,-0.989845 0.757708,-1.381579 0.3180566,-0.195792 0.3187712,-0.469631 0.1994976,-0.782894 -0.035605,-0.09351 -0.088843,-0.173199 -0.1496232,-0.243696 z m 40.670692,5.958062 c -0.200019,0.192961 -0.200782,0.450856 -0.08821,0.746436 0.124137,0.275099 0.200275,0.543845 0.249377,0.811673 0.09395,-0.523707 0.03723,-1.033472 -0.161137,-1.558109 z m -37.001083,0.308933 c -0.19294,0.460839 -0.247402,0.970901 -0.149626,1.475604 0.04943,-0.252213 0.124919,-0.499035 0.247454,-0.725331 0.07582,-0.186718 0.07446,-0.547054 -0.09781,-0.750273 z m 4.271936,4.54962 c -0.106694,0.04377 -0.229628,0.09158 -0.360632,0.140072 -0.475722,1.249939 -1.321978,3.293732 -2.023751,4.906527 -0.116438,0.28671 -0.07658,0.587592 0.06138,0.836622 1.068789,-2.463782 2.518136,-5.998548 2.322996,-5.883221 z m 27.434783,0.49698 c -4.2e-5,0.0042 -0.002,0.0075 -0.002,0.01152 3.12e-4,0.0021 -3.03e-4,0.0038 0,0.0059 9.83e-4,-0.0057 9.85e-4,-0.01169 0.002,-0.01728 z"
       id="path7" />
  </g>
</svg>
