<?xml version="1.0" encoding="UTF-8" standalone="no"?>
<svg
   width="62"
   height="62"
   version="1"
   id="svg7"
   sodipodi:docname="imhex.svg"
   inkscape:version="1.4 (unknown)"
   xmlns:inkscape="http://www.inkscape.org/namespaces/inkscape"
   xmlns:sodipodi="http://sodipodi.sourceforge.net/DTD/sodipodi-0.dtd"
   xmlns="http://www.w3.org/2000/svg"
   xmlns:svg="http://www.w3.org/2000/svg">
  <defs
     id="defs7" />
  <sodipodi:namedview
     id="namedview7"
     pagecolor="#ffffff"
     bordercolor="#000000"
     borderopacity="0.25"
     inkscape:showpageshadow="2"
     inkscape:pageopacity="0.0"
     inkscape:pagecheckerboard="0"
     inkscape:deskcolor="#d1d1d1"
     inkscape:zoom="4.270262"
     inkscape:cx="28.920942"
     inkscape:cy="37.936782"
     inkscape:window-width="1920"
     inkscape:window-height="996"
     inkscape:window-x="0"
     inkscape:window-y="0"
     inkscape:window-maximized="1"
     inkscape:current-layer="svg7" />
  <g
     id="g7"
     transform="translate(-1,-1)">
    <rect
       style="opacity:0.2"
       width="55"
       height="10"
       x="5"
       y="-60"
       rx="1.41"
       transform="rotate(90)"
       id="rect1" />
    <rect
       style="fill:#8d5fd3"
       width="55"
       height="10"
       x="4"
       y="-60"
       rx="1.41"
       transform="rotate(90)"
       id="rect2" />
    <rect
       style="fill:#8d5fd3"
       width="55"
       height="10"
       x="4"
       y="-14"
       rx="1.41"
       transform="rotate(90)"
       id="rect3" />
    <rect
       style="fill:#8d5fd3"
       width="55"
       height="10"
       x="4"
       y="-33"
       rx="1.41"
       transform="rotate(90)"
       id="rect4" />
    <path
       style="opacity:0.2"
       d="M 5.3808594,5 C 4.6158118,5 4,5.6158118 4,6.3808594 V 13.619141 C 4,14.384188 4.6158118,15 5.3808594,15 H 31.619141 C 32.384188,15 33,14.384188 33,13.619141 V 6.3808594 C 33,5.6158118 32.384188,5 31.619141,5 Z M 40.400391,5 C 39.624791,5 39,5.6247906 39,6.4003906 V 13.599609 C 39,14.375209 39.624791,15 40.400391,15 H 58.599609 C 59.375209,15 60,14.375209 60,13.599609 V 6.4003906 C 60,5.6247906 59.375209,5 58.599609,5 Z M 5.3808594,50 C 4.6158118,50 4,50.615812 4,51.380859 v 7.238282 C 4,59.384188 4.6158118,60 5.3808594,60 H 31.619141 C 32.384188,60 33,59.384188 33,58.619141 V 51.380859 C 33,50.615812 32.384188,50 31.619141,50 Z"
       id="path4" />
    <rect
       style="fill:#aa87de"
       width="29"
       height="10"
       x="4"
       y="4"
       rx="1.381"
       id="rect5" />
    <rect
       style="fill:#aa87de"
       width="21"
       height="10"
       x="39"
       y="4"
       rx="1.4"
       id="rect6" />
    <rect
       style="fill:#aa87de"
       width="29"
       height="10"
       x="4"
       y="49"
       rx="1.381"
       id="rect7" />
    <path
       style="opacity:0.1;fill:#ffffff"
       d="M 5.3808594,4 C 4.6158118,4 4,4.6158118 4,5.3808594 v 1 C 4,5.6158118 4.6158118,5 5.3808594,5 H 31.619141 C 32.384188,5 33,5.6158118 33,6.3808594 v -1 C 33,4.6158118 32.384188,4 31.619141,4 Z M 40.400391,4 C 39.624791,4 39,4.6247906 39,5.4003906 v 1 C 39,5.6247906 39.624791,5 40.400391,5 H 58.599609 C 59.375209,5 60,5.6247906 60,6.4003906 v -1 C 60,4.6247906 59.375209,4 58.599609,4 Z M 5.3808594,49 C 4.6158118,49 4,49.615812 4,50.380859 v 1 C 4,50.615812 4.6158118,50 5.3808594,50 H 31.619141 C 32.384188,50 33,50.615812 33,51.380859 v -1 C 33,49.615812 32.384188,49 31.619141,49 Z"
       id="path7" />
  </g>
</svg>
