<?xml version="1.0" encoding="UTF-8" standalone="no"?>
<svg
   width="62"
   height="62"
   version="1.1"
   id="svg7"
   sodipodi:docname="imlogview.svg"
   inkscape:version="1.4 (unknown)"
   xmlns:inkscape="http://www.inkscape.org/namespaces/inkscape"
   xmlns:sodipodi="http://sodipodi.sourceforge.net/DTD/sodipodi-0.dtd"
   xmlns:xlink="http://www.w3.org/1999/xlink"
   xmlns="http://www.w3.org/2000/svg"
   xmlns:svg="http://www.w3.org/2000/svg">
  <defs
     id="defs7">
    <linearGradient
       id="linearGradient9"
       inkscape:collect="always">
      <stop
         style="stop-color:#37c871;stop-opacity:1"
         offset="0"
         id="stop9" />
      <stop
         style="stop-color:#2affd5;stop-opacity:1"
         offset="1"
         id="stop10" />
    </linearGradient>
    <linearGradient
       id="linearGradient7"
       inkscape:collect="always">
      <stop
         style="stop-color:#8d5fd3;stop-opacity:1"
         offset="0"
         id="stop7" />
      <stop
         style="stop-color:#37abc8;stop-opacity:1"
         offset="1"
         id="stop8" />
    </linearGradient>
    <linearGradient
       inkscape:collect="always"
       xlink:href="#linearGradient7"
       id="linearGradient8"
       x1="352.8624"
       y1="545.37482"
       x2="353.7388"
       y2="507.78357"
       gradientUnits="userSpaceOnUse" />
    <linearGradient
       inkscape:collect="always"
       xlink:href="#linearGradient9"
       id="linearGradient10"
       x1="369.03976"
       y1="548.62384"
       x2="369.20639"
       y2="528.24902"
       gradientUnits="userSpaceOnUse" />
  </defs>
  <sodipodi:namedview
     id="namedview7"
     pagecolor="#ffffff"
     bordercolor="#000000"
     borderopacity="0.25"
     inkscape:showpageshadow="2"
     inkscape:pageopacity="0.0"
     inkscape:pagecheckerboard="0"
     inkscape:deskcolor="#d1d1d1"
     inkscape:zoom="5.6936827"
     inkscape:cx="23.886122"
     inkscape:cy="37.673332"
     inkscape:window-width="1920"
     inkscape:window-height="996"
     inkscape:window-x="0"
     inkscape:window-y="0"
     inkscape:window-maximized="1"
     inkscape:current-layer="svg7" />
  <linearGradient
     id="a"
     x1="355.73465"
     x2="355.6907"
     y1="546.99841"
     y2="505.32748"
     gradientUnits="userSpaceOnUse">
    <stop
       stop-color="#197cf1"
       offset="0"
       id="stop1" />
    <stop
       stop-color="#20bcfa"
       offset="1"
       id="stop2" />
  </linearGradient>
  <linearGradient
     id="b"
     x1="373.44516"
     x2="373.44516"
     y1="546.79541"
     y2="507.86609"
     gradientTransform="matrix(-0.56777405,0,0,0.61822428,579.27321,212.13023)"
     gradientUnits="userSpaceOnUse">
    <stop
       stop-color="#4fc604"
       offset="0"
       id="stop3" />
    <stop
       stop-color="#83ee07"
       offset="1"
       id="stop4" />
  </linearGradient>
  <g
     transform="matrix(1.177637,0,0,1.2137518,-387.48736,-609.12045)"
     id="g7">
    <path
       d="m 372.72396,511.00526 c -4.64376,-3.77923 -10.8097,-5.86043 -17.36188,-5.86043 -6.5523,0 -12.71825,2.08134 -17.3619,5.86043 -4.68415,3.81204 -7.26383,8.89248 -7.26383,14.30562 0,5.1665 2.35146,10.0291 6.6381,13.77566 -0.0773,0.17385 -0.13864,0.35675 -0.1778,0.54904 l -1.40852,6.92833 c -0.16748,0.8234 0.0576,1.31439 0.27567,1.58146 0.25214,0.30847 0.62586,0.47846 1.05242,0.47846 0.32207,0 0.66821,-0.095 1.02889,-0.28251 l 8.19253,-4.25611 c 2.83641,0.91297 5.88571,1.3917 9.02427,1.3917 6.55233,0 12.71811,-2.0813 17.36192,-5.8604 4.68401,-3.81192 7.26369,-8.89237 7.26369,-14.3055 0,-5.41327 -2.57956,-10.49371 -7.26357,-14.30575 z"
       id="path4"
       style="fill:url(#linearGradient8)" />
    <g
       transform="matrix(0.03536953,0,0,0.0353695,344.51283,515.40409)"
       opacity="0.7425"
       stroke-width="31.9109"
       id="g6">
      <path
         d="M 587.572,186.881 C 555.306,111.656 500.476,56.947 424.623,24.596 386.711,8.427 346.992,0.168 305.497,0.168 264.009,0.168 224.583,8.349 186.713,24.596 111.488,56.861 56.415,111.535 24.092,186.881 7.895,224.629 0,264.176 0,305.664 c 0,41.496 7.895,81.371 24.092,119.127 32.323,75.346 87.403,130.348 162.621,162.621 37.877,16.247 77.295,24.42 118.784,24.42 41.489,0 81.214,-8.259 119.12,-24.42 C 500.47,555.06 555.3,500.009 587.573,424.791 603.819,386.914 612,347.16 612,305.664 c 0,-41.488 -8.174,-80.907 -24.428,-118.783 z"
         fill="#ffffff"
         stroke="#ffffff"
         id="path5" />
      <path
         d="M 324.906,302.988 V 129.659 c 0,-10.372 -9.037,-18.738 -19.41,-18.738 -9.701,0 -18.403,8.366 -18.403,18.738 v 176.005 c 0,0.336 0.671,1.678 0.671,2.678 -0.671,6.024 1.007,11.043 5.019,15.062 L 392.836,423.45 c 6.695,6.695 19.073,6.695 25.763,0 7.694,-7.695 7.188,-18.86 0,-26.099 z"
         fill="#1da1f6"
         stroke="#1da0f6"
         id="path6" />
    </g>
    <path
       d="m 358.65242,529.1544 c 2.32189,-2.05752 5.40486,-3.19058 8.68093,-3.19058 3.27614,0 6.35912,1.13313 8.68094,3.19058 2.34206,2.07537 3.63191,4.8413 3.63191,7.78837 0,2.81279 -1.17574,5.46009 -3.31906,7.49984 0.0388,0.0947 0.0694,0.19423 0.0889,0.29891 l 0.70425,3.77197 c 0.0837,0.44829 -0.0287,0.7156 -0.13788,0.861 -0.12614,0.16793 -0.31294,0.26049 -0.52621,0.26049 -0.16104,0 -0.3341,-0.0517 -0.51444,-0.15382 l -4.09627,-2.31712 c -1.4182,0.49704 -2.94284,0.75766 -4.51213,0.75766 -3.27614,0 -6.35905,-1.13311 -8.68093,-3.19056 -2.342,-2.07531 -3.63185,-4.84125 -3.63185,-7.7883 0,-2.94714 1.28978,-5.71307 3.63178,-7.78844 z"
       id="path7"
       style="fill:url(#linearGradient10)" />
  </g>
</svg>
