<?xml version="1.0" encoding="UTF-8" standalone="no"?>
<!-- Created with Inkscape (http://www.inkscape.org/) -->

<svg
   width="62"
   height="62"
   viewBox="0 0 62 62"
   version="1.1"
   id="svg1"
   inkscape:version="1.4 (unknown)"
   sodipodi:docname="hwinfo.svg"
   xmlns:inkscape="http://www.inkscape.org/namespaces/inkscape"
   xmlns:sodipodi="http://sodipodi.sourceforge.net/DTD/sodipodi-0.dtd"
   xmlns:xlink="http://www.w3.org/1999/xlink"
   xmlns="http://www.w3.org/2000/svg"
   xmlns:svg="http://www.w3.org/2000/svg">
  <sodipodi:namedview
     id="namedview1"
     pagecolor="#ffffff"
     bordercolor="#000000"
     borderopacity="0.25"
     inkscape:showpageshadow="2"
     inkscape:pageopacity="0.0"
     inkscape:pagecheckerboard="0"
     inkscape:deskcolor="#d1d1d1"
     inkscape:document-units="px"
     inkscape:zoom="7.5994534"
     inkscape:cx="33.16028"
     inkscape:cy="31.252248"
     inkscape:window-width="1920"
     inkscape:window-height="996"
     inkscape:window-x="0"
     inkscape:window-y="0"
     inkscape:window-maximized="1"
     inkscape:current-layer="layer1"
     showgrid="false">
    <inkscape:grid
       id="grid7"
       units="px"
       originx="0"
       originy="0"
       spacingx="1"
       spacingy="1"
       empcolor="#0099e5"
       empopacity="0.30196078"
       color="#0099e5"
       opacity="0.14901961"
       empspacing="5"
       enabled="true"
       visible="false" />
  </sodipodi:namedview>
  <defs
     id="defs1">
    <linearGradient
       id="linearGradient3"
       inkscape:collect="always">
      <stop
         style="stop-color:#b7c6cd;stop-opacity:1;"
         offset="0"
         id="stop3" />
      <stop
         style="stop-color:#e1e8ea;stop-opacity:1;"
         offset="1"
         id="stop4" />
    </linearGradient>
    <linearGradient
       id="linearGradient1"
       inkscape:collect="always">
      <stop
         style="stop-color:#ff7e07;stop-opacity:1;"
         offset="0"
         id="stop1" />
      <stop
         style="stop-color:#ffd42a;stop-opacity:1"
         offset="1"
         id="stop2" />
    </linearGradient>
    <radialGradient
       id="paint664_radial_890_11"
       cx="0"
       cy="0"
       r="1"
       gradientUnits="userSpaceOnUse"
       gradientTransform="matrix(-16.000099,-9.999913,9.999913,-16.000099,583,171)">
      <stop
         offset="0.42141"
         stop-color="#B7C6CD"
         id="stop2071" />
      <stop
         offset="1"
         stop-color="#EFF2F6"
         id="stop2072" />
    </radialGradient>
    <linearGradient
       id="paint665_linear_890_11"
       x1="605"
       y1="180"
       x2="601.466"
       y2="162.72301"
       gradientUnits="userSpaceOnUse">
      <stop
         stop-color="#5200FF"
         id="stop2073" />
      <stop
         offset="1"
         stop-color="#0085FF"
         id="stop2074" />
    </linearGradient>
    <linearGradient
       id="paint666_linear_890_11"
       x1="567"
       y1="181"
       x2="562.11798"
       y2="174.183"
       gradientUnits="userSpaceOnUse">
      <stop
         stop-color="#5200FF"
         id="stop2075" />
      <stop
         offset="0.670391"
         stop-color="#0085FF"
         id="stop2076" />
    </linearGradient>
    <linearGradient
       id="paint667_linear_890_11"
       x1="605"
       y1="180"
       x2="597.32001"
       y2="174.24001"
       gradientUnits="userSpaceOnUse">
      <stop
         stop-color="#5200FF"
         id="stop2077" />
      <stop
         offset="1"
         stop-color="#0085FF"
         id="stop2078" />
    </linearGradient>
    <linearGradient
       id="paint668_linear_890_11"
       x1="567"
       y1="180"
       x2="561.23999"
       y2="172.32001"
       gradientUnits="userSpaceOnUse">
      <stop
         stop-color="#5200FF"
         id="stop2079" />
      <stop
         offset="1"
         stop-color="#0085FF"
         id="stop2080" />
    </linearGradient>
    <linearGradient
       id="paint669_linear_890_11"
       x1="607"
       y1="179"
       x2="602.50598"
       y2="171.80901"
       gradientUnits="userSpaceOnUse">
      <stop
         stop-color="#5200FF"
         id="stop2081" />
      <stop
         offset="1"
         stop-color="#0085FF"
         id="stop2082" />
    </linearGradient>
    <linearGradient
       id="paint670_linear_890_11"
       x1="607"
       y1="217"
       x2="568.82599"
       y2="170.01601"
       gradientUnits="userSpaceOnUse">
      <stop
         stop-color="#5200FF"
         id="stop2083" />
      <stop
         offset="1"
         stop-color="#0085FF"
         id="stop2084" />
    </linearGradient>
    <radialGradient
       id="paint671_radial_890_11"
       cx="0"
       cy="0"
       r="1"
       gradientUnits="userSpaceOnUse"
       gradientTransform="matrix(0,20,-16,0,583,187)">
      <stop
         offset="0.869716"
         stop-color="#EFF2F6"
         id="stop2085" />
      <stop
         offset="1"
         stop-color="#B7C6CD"
         id="stop2086" />
    </radialGradient>
    <linearGradient
       id="paint65_linear_890_11"
       x1="83"
       y1="975"
       x2="83"
       y2="1017"
       gradientUnits="userSpaceOnUse"
       gradientTransform="matrix(1.3181819,0,0,1.3333333,-78.409088,-1297)">
      <stop
         stop-color="#EFF2F6"
         id="stop872"
         offset="0"
         style="stop-color:#dae2ec;stop-opacity:1;" />
      <stop
         offset="1"
         stop-color="#B7C6CD"
         id="stop873"
         style="stop-color:#92a8b3;stop-opacity:1;" />
    </linearGradient>
    <linearGradient
       id="paint553_linear_890_11"
       x1="759"
       y1="261"
       x2="795.98602"
       y2="307.71899"
       gradientUnits="userSpaceOnUse"
       gradientTransform="translate(-752,-258)">
      <stop
         stop-color="#EFF2F6"
         id="stop1849" />
      <stop
         offset="1"
         stop-color="#B7C6CD"
         id="stop1850" />
    </linearGradient>
    <linearGradient
       id="paint554_linear_890_11"
       x1="807"
       y1="317"
       x2="795.164"
       y2="285.43799"
       gradientUnits="userSpaceOnUse"
       gradientTransform="translate(-752,-258)">
      <stop
         stop-color="#FF7E07"
         id="stop1851" />
      <stop
         offset="1"
         stop-color="#FFE607"
         id="stop1852" />
    </linearGradient>
    <linearGradient
       id="paint555_linear_890_11"
       x1="792"
       y1="281"
       x2="792"
       y2="275"
       gradientUnits="userSpaceOnUse"
       gradientTransform="translate(-752,-258)">
      <stop
         offset="0.155999"
         stop-color="#71706E"
         id="stop1853" />
      <stop
         offset="0.796276"
         stop-color="#B9AA99"
         id="stop1854" />
    </linearGradient>
    <linearGradient
       id="paint556_linear_890_11"
       x1="791.5"
       y1="287"
       x2="791.5"
       y2="281"
       gradientUnits="userSpaceOnUse"
       gradientTransform="translate(-752,-258)">
      <stop
         offset="0.155999"
         stop-color="#71706E"
         id="stop1855" />
      <stop
         offset="0.796276"
         stop-color="#B9AA99"
         id="stop1856" />
    </linearGradient>
    <linearGradient
       id="paint557_linear_890_11"
       x1="765"
       y1="271"
       x2="786.90002"
       y2="290.91"
       gradientUnits="userSpaceOnUse"
       gradientTransform="translate(-752,-258)">
      <stop
         stop-color="white"
         id="stop1857" />
      <stop
         offset="0.705"
         stop-color="#EAEFEF"
         id="stop1858" />
    </linearGradient>
    <linearGradient
       id="paint558_linear_890_11"
       x1="781"
       y1="289"
       x2="778.59998"
       y2="281.79999"
       gradientUnits="userSpaceOnUse"
       gradientTransform="translate(-752,-258)">
      <stop
         stop-color="#2E2E41"
         id="stop1859" />
      <stop
         offset="1"
         stop-color="#566C80"
         id="stop1860" />
    </linearGradient>
    <linearGradient
       id="paint559_linear_890_11"
       x1="779"
       y1="283"
       x2="771"
       y2="275"
       gradientUnits="userSpaceOnUse"
       gradientTransform="translate(-752,-258)">
      <stop
         stop-color="#2E2E41"
         id="stop1861" />
      <stop
         offset="1"
         stop-color="#566C80"
         id="stop1862" />
    </linearGradient>
    <linearGradient
       id="paint560_linear_890_11"
       x1="801"
       y1="311"
       x2="797.612"
       y2="295.75299"
       gradientUnits="userSpaceOnUse">
      <stop
         stop-color="#2E2E41"
         id="stop1863" />
      <stop
         offset="1"
         stop-color="#566C80"
         id="stop1864" />
    </linearGradient>
    <linearGradient
       inkscape:collect="always"
       xlink:href="#linearGradient1"
       id="linearGradient2"
       x1="55"
       y1="59"
       x2="19.865894"
       y2="34.735744"
       gradientUnits="userSpaceOnUse" />
    <linearGradient
       inkscape:collect="always"
       xlink:href="#linearGradient3"
       id="linearGradient4"
       x1="52.398003"
       y1="41"
       x2="7"
       y2="3"
       gradientUnits="userSpaceOnUse" />
  </defs>
  <g
     inkscape:label="Layer 1"
     inkscape:groupmode="layer"
     id="layer1">
    <path
       fill-rule="evenodd"
       clip-rule="evenodd"
       d="M 13,3 C 9.686,3 7,5.686 7,9 V 41 H 55 V 9 C 55,5.686 52.314,3 49,3 Z m 18,0.1390588 v 0 0 z"
       id="path540"
       sodipodi:nodetypes="ssccssscscsc"
       style="fill:url(#linearGradient4)" />
    <path
       d="m 7,41 h 48 v 12 c 0,3.314 -2.686,6 -6,6 H 13 C 9.686,59 7,56.314 7,53 Z"
       id="path541"
       style="fill:url(#linearGradient2)" />
    <g
       id="g1"
       transform="translate(-1.1842957,4)">
      <path
         style="opacity:0.2"
         d="M 30.783114,7.3225528 24.783898,24.368705 c -0.04566,0.16648 -0.0096,0.341294 0.05326,0.439104 0.07988,0.09784 0.15216,0.21435 0.365204,0.235162 l 4.207436,-0.0208 c 0.14264,0 0.268196,0.06866 0.321456,0.214346 0.03424,0.12696 0.04372,0.253892 0,0.43078 l -3.64632,14.725398 c -0.02664,0.11656 -0.06278,0.378754 0.18638,0.555642 0.16168,0.10612 0.483134,0.04786 0.679048,-0.16648 L 40.685414,22.200545 c 0.08942,-0.15608 0.09892,-0.428698 0.04372,-0.555644 -0.05324,-0.12696 -0.1693,-0.303834 -0.435578,-0.332968 L 33.88349,21.049719 c -0.1864,-0.03954 -0.249176,-0.13734 -0.302436,-0.214348 -0.07038,-0.11862 -0.0894,-0.283026 -0.0172,-0.459916 L 38.813646,7.5452418 c 0.07038,-0.164402 0.07038,-0.280942 0.02664,-0.37043 -0.03614,-0.077 -0.15214,-0.174808 -0.355684,-0.174808 H 31.32701 c -0.09892,0 -0.437484,0.03954 -0.544002,0.322565 z"
         id="path3" />
      <path
         style="fill:#c83771"
         d="M 30.783114,6.3225528 24.783898,23.368705 c -0.04566,0.16648 -0.0096,0.341294 0.05326,0.439104 0.07988,0.09784 0.15216,0.21435 0.365204,0.235162 l 4.207436,-0.0208 c 0.14264,0 0.268196,0.06866 0.321456,0.214346 0.03424,0.12696 0.04372,0.253892 0,0.43078 l -3.64632,14.725398 c -0.02664,0.11656 -0.06278,0.378754 0.18638,0.555642 0.16168,0.10612 0.483134,0.04786 0.679048,-0.16648 L 40.685414,21.200545 c 0.08942,-0.15608 0.09892,-0.428698 0.04372,-0.555644 -0.05324,-0.12696 -0.1693,-0.303834 -0.435578,-0.332968 L 33.88349,20.049719 c -0.1864,-0.03954 -0.249176,-0.13734 -0.302436,-0.214348 -0.07038,-0.11862 -0.0894,-0.283026 -0.0172,-0.459916 L 38.813646,6.5452418 c 0.07038,-0.164402 0.07038,-0.280942 0.02664,-0.37043 -0.03614,-0.077 -0.15214,-0.174808 -0.355684,-0.174808 H 31.32701 c -0.09892,0 -0.437484,0.03954 -0.544002,0.322565 z"
         id="path4" />
    </g>
  </g>
</svg>
