<?xml version="1.0" encoding="UTF-8" standalone="no"?>
<svg
   width="64"
   height="64"
   version="1.1"
   id="svg8"
   sodipodi:docname="incredipede.svg"
   inkscape:version="1.4 (unknown)"
   xmlns:inkscape="http://www.inkscape.org/namespaces/inkscape"
   xmlns:sodipodi="http://sodipodi.sourceforge.net/DTD/sodipodi-0.dtd"
   xmlns:xlink="http://www.w3.org/1999/xlink"
   xmlns="http://www.w3.org/2000/svg"
   xmlns:svg="http://www.w3.org/2000/svg">
  <defs
     id="defs8">
    <linearGradient
       id="linearGradient8"
       inkscape:collect="always">
      <stop
         style="stop-color:#00aa88;stop-opacity:1"
         offset="0"
         id="stop8" />
      <stop
         style="stop-color:#37c871;stop-opacity:1"
         offset="1"
         id="stop9" />
    </linearGradient>
    <linearGradient
       inkscape:collect="always"
       xlink:href="#linearGradient8"
       id="linearGradient9"
       x1="32"
       y1="60"
       x2="32"
       y2="5"
       gradientUnits="userSpaceOnUse" />
  </defs>
  <sodipodi:namedview
     id="namedview8"
     pagecolor="#ffffff"
     bordercolor="#000000"
     borderopacity="0.25"
     inkscape:showpageshadow="2"
     inkscape:pageopacity="0.0"
     inkscape:pagecheckerboard="0"
     inkscape:deskcolor="#d1d1d1"
     inkscape:zoom="8.5405241"
     inkscape:cx="29.038031"
     inkscape:cy="36.238994"
     inkscape:window-width="1920"
     inkscape:window-height="996"
     inkscape:window-x="0"
     inkscape:window-y="0"
     inkscape:window-maximized="1"
     inkscape:current-layer="svg8" />
  <circle
     cx="32"
     cy="33"
     r="28"
     style="opacity:.2"
     id="circle1" />
  <circle
     cx="32"
     cy="32"
     style="fill:url(#linearGradient9)"
     id="circle2"
     r="28" />
  <path
     d="m32.999961 20c-5.933322 0-10.790827 3.951291-14.214817 7.638672s-5.521473 7.36914-5.521473 7.36914c-0.368462 0.64449-0.349662 1.44004 0.04883 2.066407-2e-6 0 7.559278 11.925781 21.687456 11.925781 4.298466 0 7.664184-1.658652 10.019511-3.869141 2.141723-2.010018 3.43558-4.393695 4.322258-6.5 0.827001-0.428302 1.700466-0.869326 2.531245-1.589843 1.055189-0.915144 2.126948-2.236584 2.126948-4.041016 0-1.829242-1.338181-3.211287-2.544917-3.841797-0.873473-0.456383-1.695034-0.569924-2.503901-0.724609-2.281549-3.610915-7.103663-8.433594-15.95114-8.433594z"
     style="opacity:.1"
     id="path2" />
  <path
     d="M 32,4 A 28,28 0 0 0 4,32 28,28 0 0 0 4.0215,32.586 28,28 0 0 1 32,5 28,28 0 0 1 59.979,32.414 28,28 0 0 0 60,32 28,28 0 0 0 32,4 Z"
     style="fill:#ffffff;opacity:.1"
     id="path3" />
  <path
     d="m 33,19 c -5.933333,0 -10.790847,3.951291 -14.214844,7.638672 -3.423996,3.687381 -5.521484,7.36914 -5.521484,7.36914 -0.368463,0.64449 -0.349663,1.44004 0.04883,2.066407 C 13.3125,36.074219 20.871795,48 35,48 c 4.298475,0 7.664199,-1.658652 10.019531,-3.869141 2.141727,-2.010018 3.435587,-4.393695 4.322266,-6.5 0.827003,-0.428302 1.70047,-0.869326 2.53125,-1.589843 C 52.928238,35.125872 54,33.804432 54,32 54,30.170758 52.661816,28.788713 51.455078,28.158203 50.581603,27.70182 49.76004,27.588279 48.951172,27.433594 46.669618,23.822679 41.847495,19 33,19 Z"
     style="fill:#233143;fill-opacity:1"
     id="path4" />
  <path
     d="m46 29s6 0 6 3-6 5-6 5z"
     style="fill:#eeaea1;fill-opacity:1"
     id="path5" />
  <path
     d="m 15,35 c 0,0 2,-3.5 5.25,-7 1.625,-1.75 3.5625,-3.5 5.71875,-4.8125 C 29,25 33,26 33,26 l 15,5 1,1 C 49,32 47,46 35,46 22,46 15,35 15,35 Z"
     style="fill:#f8eddb;fill-opacity:1"
     id="path6" />
  <path
     d="M 33 21 C 29.851201 21 26.902771 22.388998 24.337891 24.291016 A 13 13 0 0 0 23 30 A 13 13 0 0 0 36 43 A 13 13 0 0 0 48.882812 31.642578 C 48.312403 29.937023 44.770662 21 33 21 z "
     style="fill:#233143;fill-opacity:1"
     id="path7" />
  <path
     d="m32 38s4 1 6 1c3.5 0 8-4 8-4s-3 6-8 6c-3 0-6-3-6-3z"
     style="fill:#58c0da;fill-opacity:1"
     id="path8" />
  <circle
     cx="31"
     cy="28"
     r="4"
     style="fill:#e5e5e5;fill-opacity:1"
     id="circle8" />
</svg>
