<?xml version="1.0" encoding="UTF-8" standalone="no"?>
<svg
   width="62"
   height="62"
   version="1.1"
   id="svg4"
   sodipodi:docname="internxt-drive.svg"
   inkscape:version="1.4 (unknown)"
   xmlns:inkscape="http://www.inkscape.org/namespaces/inkscape"
   xmlns:sodipodi="http://sodipodi.sourceforge.net/DTD/sodipodi-0.dtd"
   xmlns:xlink="http://www.w3.org/1999/xlink"
   xmlns="http://www.w3.org/2000/svg"
   xmlns:svg="http://www.w3.org/2000/svg">
  <defs
     id="defs4">
    <linearGradient
       id="linearGradient4"
       inkscape:collect="always">
      <stop
         style="stop-color:#0d2b5e;stop-opacity:1;"
         offset="0"
         id="stop4" />
      <stop
         style="stop-color:#233143;stop-opacity:1;"
         offset="1"
         id="stop5" />
    </linearGradient>
    <linearGradient
       inkscape:collect="always"
       xlink:href="#linearGradient4"
       id="linearGradient5"
       x1="32"
       y1="5"
       x2="31.422415"
       y2="61"
       gradientUnits="userSpaceOnUse" />
  </defs>
  <sodipodi:namedview
     id="namedview4"
     pagecolor="#ffffff"
     bordercolor="#000000"
     borderopacity="0.25"
     inkscape:showpageshadow="2"
     inkscape:pageopacity="0.0"
     inkscape:pagecheckerboard="0"
     inkscape:deskcolor="#d1d1d1"
     inkscape:zoom="12.078125"
     inkscape:cx="32"
     inkscape:cy="32"
     inkscape:window-width="1920"
     inkscape:window-height="996"
     inkscape:window-x="0"
     inkscape:window-y="0"
     inkscape:window-maximized="1"
     inkscape:current-layer="svg4" />
  <g
     id="g4"
     transform="matrix(0.98214286,0,0,0.98245614,-0.42857152,-0.92982455)">
    <rect
       style="opacity:0.2"
       width="56"
       height="56"
       x="4"
       y="5"
       rx="11.2"
       id="rect1" />
    <rect
       style="fill:url(#linearGradient5)"
       width="56"
       height="56"
       x="4"
       y="4"
       rx="11.2"
       id="rect2" />
    <g
       style="font-size:40px;line-height:1.25;opacity:0.2"
       transform="matrix(1.1681659,0,0,1.1904762,55.221624,3.3954795)"
       id="g2">
      <path
         d="m -6.5387042,39.147797 h -6.9199998 l -6.64,-10.8 -6.64,10.8 h -6.48 l 9.48,-14.72 -8.88,-13.84 h 6.68 l 6.16,10.28 6.04,-10.28 h 6.5199998 l -8.9599998,14.16 z"
         id="path2" />
    </g>
    <g
       style="font-size:40px;line-height:1.25;fill:#ffffff"
       transform="matrix(1.1681659,0,0,1.1904762,55.221624,2.3954795)"
       id="g3">
      <path
         style="fill:#ffffff"
         d="m -6.5387042,39.147797 h -6.9199998 l -6.64,-10.8 -6.64,10.8 h -6.48 l 9.48,-14.72 -8.88,-13.84 h 6.68 l 6.16,10.28 6.04,-10.28 h 6.5199998 l -8.9599998,14.16 z"
         id="path3" />
    </g>
    <path
       style="opacity:0.1;fill:#ffffff"
       d="M 15.199219,4 C 8.9944189,4 4,8.9944189 4,15.199219 v 1 C 4,9.9944189 8.9944189,5 15.199219,5 H 48.800781 C 55.005581,5 60,9.9944189 60,16.199219 v -1 C 60,8.9944189 55.005581,4 48.800781,4 Z"
       id="path4" />
  </g>
</svg>
