<?xml version="1.0" encoding="UTF-8" standalone="no"?>
<svg
   width="62"
   height="62"
   version="1.1"
   id="svg29"
   sodipodi:docname="io.github.lainsce.Emulsion.svg"
   inkscape:version="1.4 (unknown)"
   xmlns:inkscape="http://www.inkscape.org/namespaces/inkscape"
   xmlns:sodipodi="http://sodipodi.sourceforge.net/DTD/sodipodi-0.dtd"
   xmlns:xlink="http://www.w3.org/1999/xlink"
   xmlns="http://www.w3.org/2000/svg"
   xmlns:svg="http://www.w3.org/2000/svg">
  <defs
     id="defs29">
    <linearGradient
       id="linearGradient29"
       inkscape:collect="always">
      <stop
         style="stop-color:#2d3d53;stop-opacity:1;"
         offset="0"
         id="stop29" />
      <stop
         style="stop-color:#354864;stop-opacity:1;"
         offset="1"
         id="stop30" />
    </linearGradient>
    <linearGradient
       inkscape:collect="always"
       xlink:href="#linearGradient29"
       id="linearGradient30"
       x1="30.782633"
       y1="60"
       x2="30.193521"
       y2="5"
       gradientUnits="userSpaceOnUse"
       gradientTransform="matrix(0.98214286,0,0,0.98245614,-0.42857152,-0.92982455)" />
  </defs>
  <sodipodi:namedview
     id="namedview29"
     pagecolor="#ffffff"
     bordercolor="#000000"
     borderopacity="0.25"
     inkscape:showpageshadow="2"
     inkscape:pageopacity="0.0"
     inkscape:pagecheckerboard="0"
     inkscape:deskcolor="#d1d1d1"
     inkscape:zoom="7.0710678"
     inkscape:cx="25.243712"
     inkscape:cy="47.871129"
     inkscape:window-width="1920"
     inkscape:window-height="996"
     inkscape:window-x="0"
     inkscape:window-y="0"
     inkscape:window-maximized="1"
     inkscape:current-layer="svg29" />
  <rect
     style="opacity:0.2;stroke-width:0.9823"
     width="55"
     height="55.017544"
     x="3.5"
     y="3.9824562"
     ry="13.754386"
     id="rect1" />
  <rect
     style="fill:url(#linearGradient30);stroke-width:0.9823"
     width="55"
     height="55.017544"
     x="3.5"
     y="3"
     ry="13.754386"
     id="rect2" />
  <path
     style="opacity:0.1;fill:#ffffff;stroke-width:0.9823"
     d="M 17.25,3 C 9.6324999,3 3.4999999,9.1344561 3.4999999,16.754386 v 0.982456 c 0,-7.61993 6.1325,-13.7543858 13.7500001,-13.7543858 h 27.5 c 7.6175,0 13.75,6.1344558 13.75,13.7543858 V 16.754386 C 58.5,9.1344561 52.3675,3 44.75,3 Z"
     id="path28" />
  <g
     id="g1"
     transform="rotate(90,53.495614,59.004386)">
    <path
       style="opacity:1;fill:#7a93b9;fill-opacity:1"
       d="m 23,78 v 6 h 17 c 1.662,0 3,-1.338 3,-3 0,-1.662 -1.338,-3 -3,-3 z m 6,16 v 6 h 11 c 1.662,0 3,-1.338 3,-3 0,-1.662 -1.338,-3 -3,-3 z"
       id="path3" />
    <path
       style="fill:#c83771"
       d="M 36,62 H 10 c -1.662,0 -3,1.338 -3,3 0,1.662 1.338,3 3,3 h 26 z"
       id="path4" />
    <path
       style="fill:#5fb962;fill-opacity:1"
       d="M 30,94 H 10 c -1.662,0 -3,1.338 -3,3 0,1.662 1.338,3 3,3 h 20 z"
       id="path5" />
    <path
       style="fill:#9c75d9;fill-opacity:1"
       d="M 21,78 H 10 c -1.662,0 -3,1.338 -3,3 0,1.662 1.338,3 3,3 h 11 z"
       id="path6" />
    <rect
       style="fill:#2ad4ff"
       width="6"
       height="6"
       x="23"
       y="62"
       id="rect6" />
    <rect
       style="fill:#8d5fd3"
       width="6"
       height="6"
       x="29"
       y="62"
       id="rect7" />
    <rect
       style="fill:#fed967;fill-opacity:1"
       width="6"
       height="6"
       x="11"
       y="62"
       id="rect8" />
    <rect
       style="fill:#00d4aa"
       width="6"
       height="6"
       x="17"
       y="62"
       id="rect9" />
    <path
       style="fill:#f2f2f2;fill-opacity:1"
       d="m 43,65 c 0,-3.314 -2.686,-6 -6,-6 -3.314,0 -6,2.686 -6,6 0,3.314 2.686,6 6,6 3.314,0 6,-2.686 6,-6 z"
       id="path12" />
    <path
       style="fill:#f2f2f2;fill-opacity:1"
       d="m 35,97 c 0,-3.314 -2.686,-6 -6,-6 -3.314,0 -6,2.686 -6,6 0,3.314 2.686,6 6,6 3.314,0 6,-2.686 6,-6 z"
       id="path13" />
    <path
       style="fill:#f2f2f2;fill-opacity:1"
       d="m 29,81 c 0,-3.314 -2.686,-6 -6,-6 -3.314,0 -6,2.686 -6,6 0,3.314 2.686,6 6,6 3.314,0 6,-2.686 6,-6 z"
       id="path14" />
  </g>
</svg>
