<?xml version="1.0" encoding="UTF-8" standalone="no"?>
<svg
   width="62"
   height="62"
   version="1.1"
   id="svg29"
   sodipodi:docname="io.github.realmazharhussain.GdmSettings.svg"
   inkscape:version="1.4 (unknown)"
   xmlns:inkscape="http://www.inkscape.org/namespaces/inkscape"
   xmlns:sodipodi="http://sodipodi.sourceforge.net/DTD/sodipodi-0.dtd"
   xmlns:xlink="http://www.w3.org/1999/xlink"
   xmlns="http://www.w3.org/2000/svg"
   xmlns:svg="http://www.w3.org/2000/svg">
  <defs
     id="defs29">
    <linearGradient
       id="linearGradient2"
       inkscape:collect="always">
      <stop
         style="stop-color:#eef2f6;stop-opacity:1;"
         offset="0"
         id="stop3" />
      <stop
         style="stop-color:#bcc9dc;stop-opacity:1;"
         offset="1"
         id="stop4" />
    </linearGradient>
    <linearGradient
       id="linearGradient29"
       inkscape:collect="always">
      <stop
         style="stop-color:#bcc9dc;stop-opacity:1;"
         offset="0"
         id="stop29" />
      <stop
         style="stop-color:#bcc9dc;stop-opacity:1;"
         offset="0.23660715"
         id="stop1" />
      <stop
         style="stop-color:#2e3f57;stop-opacity:1;"
         offset="0.23660715"
         id="stop2" />
      <stop
         style="stop-color:#354864;stop-opacity:1;"
         offset="1"
         id="stop30" />
    </linearGradient>
    <linearGradient
       inkscape:collect="always"
       xlink:href="#linearGradient29"
       id="linearGradient30"
       x1="30.981817"
       y1="59.982143"
       x2="30.981817"
       y2="4"
       gradientUnits="userSpaceOnUse"
       gradientTransform="matrix(0.98214286,0,0,0.98245614,-0.42857152,-0.92982455)" />
    <linearGradient
       id="paint4_linear_328_677"
       x1="42"
       y1="42"
       x2="39.176498"
       y2="30.7059"
       gradientUnits="userSpaceOnUse"
       gradientTransform="translate(-3e-7,-5)">
      <stop
         stop-color="#2E2E41"
         id="stop13"
         offset="0"
         style="stop-color:#2e2e42;stop-opacity:1;" />
      <stop
         offset="1"
         stop-color="#566C80"
         id="stop14" />
    </linearGradient>
    <linearGradient
       id="paint5_linear_328_677"
       x1="36"
       y1="32"
       x2="24"
       y2="20"
       gradientUnits="userSpaceOnUse"
       gradientTransform="translate(-3e-7,-5)">
      <stop
         stop-color="#2E2E41"
         id="stop15" />
      <stop
         offset="1"
         stop-color="#566C80"
         id="stop16" />
    </linearGradient>
    <linearGradient
       inkscape:collect="always"
       xlink:href="#linearGradient2"
       id="linearGradient4"
       x1="30"
       y1="15"
       x2="30"
       y2="23"
       gradientUnits="userSpaceOnUse" />
    <linearGradient
       inkscape:collect="always"
       xlink:href="#linearGradient2"
       id="linearGradient6"
       x1="29"
       y1="30"
       x2="29"
       y2="37"
       gradientUnits="userSpaceOnUse" />
  </defs>
  <sodipodi:namedview
     id="namedview29"
     pagecolor="#ffffff"
     bordercolor="#000000"
     borderopacity="0.25"
     inkscape:showpageshadow="2"
     inkscape:pageopacity="0.0"
     inkscape:pagecheckerboard="0"
     inkscape:deskcolor="#d1d1d1"
     inkscape:zoom="10"
     inkscape:cx="28.85"
     inkscape:cy="39.65"
     inkscape:window-width="1920"
     inkscape:window-height="996"
     inkscape:window-x="0"
     inkscape:window-y="0"
     inkscape:window-maximized="1"
     inkscape:current-layer="svg29"
     showgrid="false">
    <inkscape:grid
       id="grid1"
       units="px"
       originx="0"
       originy="0"
       spacingx="1"
       spacingy="1"
       empcolor="#0099e5"
       empopacity="0.30196078"
       color="#0099e5"
       opacity="0.14901961"
       empspacing="5"
       enabled="true"
       visible="false" />
  </sodipodi:namedview>
  <rect
     style="opacity:0.2;stroke-width:0.9823"
     width="55"
     height="55.017544"
     x="3.5"
     y="3.9824562"
     ry="13.754386"
     id="rect1" />
  <rect
     style="fill:url(#linearGradient30);stroke-width:0.9823"
     width="55"
     height="55.017544"
     x="3.5"
     y="3"
     ry="13.754386"
     id="rect2" />
  <path
     style="opacity:0.1;fill:#ffffff;stroke-width:0.9823"
     d="M 17.25,3 C 9.6324999,3 3.4999999,9.1344561 3.4999999,16.754386 v 0.982456 c 0,-7.61993 6.1325,-13.7543858 13.7500001,-13.7543858 h 27.5 c 7.6175,0 13.75,6.1344558 13.75,13.7543858 V 16.754386 C 58.5,9.1344561 52.3675,3 44.75,3 Z"
     id="path28" />
  <text
     xml:space="preserve"
     style="font-size:21.3333px;font-family:'Blush Asliring';-inkscape-font-specification:'Blush Asliring';text-align:start;writing-mode:lr-tb;direction:ltr;text-anchor:start;fill:#9bb0ca;stroke:#000000;stroke-width:0;stroke-linecap:round;stroke-linejoin:round;paint-order:fill markers stroke"
     x="-29.274221"
     y="35.638184"
     id="text1"><tspan
       sodipodi:role="line"
       id="tspan1" /></text>
  <path
     d="M 18.6108,32.6935 C 19.5209,31.5993 20.6681,31 21.8528,31 h 16.2944 c 1.1847,0 2.3319,0.5993 3.242,1.6935 C 42.6021,34.1518 41.8874,37 40.3086,37 H 19.6914 c -1.5788,0 -2.2935,-2.8482 -1.0806,-4.3065 z"
     id="path5"
     style="fill:url(#linearGradient6)" />
  <circle
     cx="30"
     cy="21"
     r="6"
     id="circle5"
     style="fill:url(#linearGradient4)" />
  <circle
     cx="51"
     cy="51"
     r="11"
     id="circle5-3"
     style="fill:#0a75f5;fill-opacity:1" />
  <path
     d="m 49.238286,44 -0.16334,1.84334 c -0.59034,0.21816 -1.13866,0.53316 -1.62166,0.93332 l -1.68,-0.79332 -1.77334,3.03332 1.54,1.05 c -0.0536,0.308 -0.0816,0.62068 -0.0816,0.93334 -0.003,0.31266 0.0198,0.62534 0.07,0.93334 l -1.528349,1.05 1.761668,3.03332 1.691672,-0.79332 c 0.483,0.40016 1.031328,0.71516 1.62166,0.93332 L 49.226606,58 h 3.535 l 0.16334,-1.84334 c 0.59034,-0.21816 1.13866,-0.53316 1.62166,-0.93332 l 1.68,0.79332 1.77334,-3.03332 -1.54,-1.05 c 0.0584,-0.308 0.0886,-0.62068 0.0934,-0.93334 0,-0.31266 -0.028,-0.62534 -0.0816,-0.93334 l 1.528308,-1.05 -1.761665,-3.03332 -1.691667,0.79332 c -0.48424,-0.3955 -1.032576,-0.707 -1.62174,-0.92166 L 52.761606,44 Z m 1.76166,3.4545 c 1.96816,0 3.58634,1.60066 3.58634,3.5455 0,1.94484 -1.61818,3.5455 -3.58634,3.5455 -1.96816,0 -3.58634,-1.60066 -3.58634,-3.5455 0,-1.94484 1.61818,-3.5455 3.58634,-3.5455 z"
     fill-rule="nonzero"
     id="path6"
     style="fill:#f2f2f2;fill-opacity:1;stroke-width:1.1666" />
</svg>
