<?xml version="1.0" encoding="UTF-8" standalone="no"?>
<svg
   width="62"
   height="62"
   version="1.1"
   id="svg107"
   sodipodi:docname="io.github.tfuxu.Halftone.svg"
   inkscape:version="1.4 (unknown)"
   xmlns:inkscape="http://www.inkscape.org/namespaces/inkscape"
   xmlns:sodipodi="http://sodipodi.sourceforge.net/DTD/sodipodi-0.dtd"
   xmlns="http://www.w3.org/2000/svg"
   xmlns:svg="http://www.w3.org/2000/svg">
  <defs
     id="defs107" />
  <sodipodi:namedview
     id="namedview107"
     pagecolor="#ffffff"
     bordercolor="#000000"
     borderopacity="0.25"
     inkscape:showpageshadow="2"
     inkscape:pageopacity="0.0"
     inkscape:pagecheckerboard="0"
     inkscape:deskcolor="#d1d1d1"
     inkscape:zoom="12.078125"
     inkscape:cx="32"
     inkscape:cy="32.248383"
     inkscape:window-width="1920"
     inkscape:window-height="996"
     inkscape:window-x="0"
     inkscape:window-y="0"
     inkscape:window-maximized="1"
     inkscape:current-layer="svg107" />
  <g
     id="g107"
     transform="matrix(0.98214286,0,0,0.98245614,-0.42857152,-0.92982455)">
    <rect
       x="4"
       y="5"
       width="56"
       height="56"
       rx="4"
       ry="4"
       style="opacity:0.2"
       id="rect1" />
    <rect
       x="4"
       y="4"
       width="56"
       height="56"
       rx="4"
       ry="4"
       style="fill:#f2f2f2;fill-opacity:1"
       id="rect2" />
    <rect
       x="8"
       y="8"
       width="48"
       height="44"
       style="fill:#fecc34;fill-opacity:1"
       id="rect3" />
    <rect
       x="8"
       y="30"
       width="48"
       height="22"
       style="fill:#ef8110;fill-opacity:1"
       id="rect4" />
    <rect
       x="8"
       y="8"
       width="48"
       height="1"
       style="opacity:0.1"
       id="rect5" />
    <rect
       x="54"
       y="28"
       width="2"
       height="2"
       style="fill:#e97e10"
       id="rect6" />
    <rect
       x="50"
       y="28"
       width="2"
       height="2"
       style="fill:#e97e10"
       id="rect7" />
    <rect
       x="46"
       y="28"
       width="2"
       height="2"
       style="fill:#e97e10"
       id="rect8" />
    <rect
       x="42"
       y="28"
       width="2"
       height="2"
       style="fill:#e97e10"
       id="rect9" />
    <rect
       x="38"
       y="28"
       width="2"
       height="2"
       style="fill:#e97e10"
       id="rect10" />
    <rect
       x="34"
       y="28"
       width="2"
       height="2"
       style="fill:#e97e10"
       id="rect11" />
    <rect
       x="30"
       y="28"
       width="2"
       height="2"
       style="fill:#e97e10"
       id="rect12" />
    <rect
       x="26"
       y="28"
       width="2"
       height="2"
       style="fill:#e97e10"
       id="rect13" />
    <rect
       x="22"
       y="28"
       width="2"
       height="2"
       style="fill:#e97e10"
       id="rect14" />
    <rect
       x="18"
       y="28"
       width="2"
       height="2"
       style="fill:#e97e10"
       id="rect15" />
    <rect
       x="14"
       y="28"
       width="2"
       height="2"
       style="fill:#e97e10"
       id="rect16" />
    <rect
       x="10"
       y="28"
       width="2"
       height="2"
       style="fill:#e97e10"
       id="rect17" />
    <rect
       x="8"
       y="26"
       width="2"
       height="2"
       style="fill:#e97e10"
       id="rect18" />
    <rect
       x="16"
       y="26"
       width="2"
       height="2"
       style="fill:#e97e10"
       id="rect19" />
    <rect
       x="24"
       y="26"
       width="2"
       height="2"
       style="fill:#e97e10"
       id="rect20" />
    <rect
       x="32"
       y="26"
       width="2"
       height="2"
       style="fill:#e97e10"
       id="rect21" />
    <rect
       x="40"
       y="26"
       width="2"
       height="2"
       style="fill:#e97e10"
       id="rect22" />
    <rect
       x="48"
       y="26"
       width="2"
       height="2"
       style="fill:#e97e10"
       id="rect23" />
    <rect
       x="54"
       y="24"
       width="2"
       height="2"
       style="fill:#e97e10"
       id="rect24" />
    <rect
       x="50"
       y="24"
       width="2"
       height="2"
       style="fill:#e97e10"
       id="rect25" />
    <rect
       x="46"
       y="24"
       width="2"
       height="2"
       style="fill:#e97e10"
       id="rect26" />
    <rect
       x="42"
       y="24"
       width="2"
       height="2"
       style="fill:#e97e10"
       id="rect27" />
    <rect
       x="38"
       y="24"
       width="2"
       height="2"
       style="fill:#e97e10"
       id="rect28" />
    <rect
       x="34"
       y="24"
       width="2"
       height="2"
       style="fill:#e97e10"
       id="rect29" />
    <rect
       x="30"
       y="24"
       width="2"
       height="2"
       style="fill:#e97e10"
       id="rect30" />
    <rect
       x="26"
       y="24"
       width="2"
       height="2"
       style="fill:#e97e10"
       id="rect31" />
    <rect
       x="22"
       y="24"
       width="2"
       height="2"
       style="fill:#e97e10"
       id="rect32" />
    <rect
       x="18"
       y="24"
       width="2"
       height="2"
       style="fill:#e97e10"
       id="rect33" />
    <rect
       x="14"
       y="24"
       width="2"
       height="2"
       style="fill:#e97e10"
       id="rect34" />
    <rect
       x="10"
       y="24"
       width="2"
       height="2"
       style="fill:#e97e10"
       id="rect35" />
    <rect
       x="12"
       y="26"
       width="2"
       height="2"
       style="fill:#e97e10"
       id="rect36" />
    <rect
       x="28"
       y="26"
       width="2"
       height="2"
       style="fill:#e97e10"
       id="rect37" />
    <rect
       x="44"
       y="26"
       width="2"
       height="2"
       style="fill:#e97e10"
       id="rect38" />
    <rect
       x="52"
       y="22"
       width="2"
       height="2"
       style="fill:#e97e10"
       id="rect39" />
    <rect
       x="44"
       y="22"
       width="2"
       height="2"
       style="fill:#e97e10"
       id="rect40" />
    <rect
       x="36"
       y="22"
       width="2"
       height="2"
       style="fill:#e97e10"
       id="rect41" />
    <rect
       x="28"
       y="22"
       width="2"
       height="2"
       style="fill:#e97e10"
       id="rect42" />
    <rect
       x="20"
       y="22"
       width="2"
       height="2"
       style="fill:#e97e10"
       id="rect43" />
    <rect
       x="12"
       y="22"
       width="2"
       height="2"
       style="fill:#e97e10"
       id="rect44" />
    <rect
       x="10"
       y="30"
       width="2"
       height="2"
       style="fill:#fecd38"
       id="rect45" />
    <rect
       x="14"
       y="30"
       width="2"
       height="2"
       style="fill:#fecd38"
       id="rect46" />
    <rect
       x="18"
       y="30"
       width="2"
       height="2"
       style="fill:#fecd38"
       id="rect47" />
    <rect
       x="22"
       y="30"
       width="2"
       height="2"
       style="fill:#fecd38"
       id="rect48" />
    <rect
       x="26"
       y="30"
       width="2"
       height="2"
       style="fill:#fecd38"
       id="rect49" />
    <rect
       x="30"
       y="30"
       width="2"
       height="2"
       style="fill:#fecd38"
       id="rect50" />
    <rect
       x="34"
       y="30"
       width="2"
       height="2"
       style="fill:#fecd38"
       id="rect51" />
    <rect
       x="38"
       y="30"
       width="2"
       height="2"
       style="fill:#fecd38"
       id="rect52" />
    <rect
       x="42"
       y="30"
       width="2"
       height="2"
       style="fill:#fecd38"
       id="rect53" />
    <rect
       x="46"
       y="30"
       width="2"
       height="2"
       style="fill:#fecd38"
       id="rect54" />
    <rect
       x="50"
       y="30"
       width="2"
       height="2"
       style="fill:#fecd38"
       id="rect55" />
    <rect
       x="54"
       y="30"
       width="2"
       height="2"
       style="fill:#fecd38"
       id="rect56" />
    <rect
       x="52"
       y="32"
       width="2"
       height="2"
       style="fill:#fecd38"
       id="rect57" />
    <rect
       x="48"
       y="32"
       width="2"
       height="2"
       style="fill:#fecd38"
       id="rect58" />
    <rect
       x="40"
       y="32"
       width="2"
       height="2"
       style="fill:#fecd38"
       id="rect59" />
    <rect
       x="36"
       y="32"
       width="2"
       height="2"
       style="fill:#fecd38"
       id="rect60" />
    <rect
       x="32"
       y="32"
       width="2"
       height="2"
       style="fill:#fecd38"
       id="rect61" />
    <rect
       x="24"
       y="32"
       width="2"
       height="2"
       style="fill:#fecd38"
       id="rect62" />
    <rect
       x="20"
       y="32"
       width="2"
       height="2"
       style="fill:#fecd38"
       id="rect63" />
    <rect
       x="16"
       y="32"
       width="2"
       height="2"
       style="fill:#fecd38"
       id="rect64" />
    <rect
       x="8"
       y="32"
       width="2"
       height="2"
       style="fill:#fecd38"
       id="rect65" />
    <rect
       x="10"
       y="34"
       width="2"
       height="2"
       style="fill:#fecd38"
       id="rect66" />
    <rect
       x="14"
       y="34"
       width="2"
       height="2"
       style="fill:#fecd38"
       id="rect67" />
    <rect
       x="18"
       y="34"
       width="2"
       height="2"
       style="fill:#fecd38"
       id="rect68" />
    <rect
       x="22"
       y="34"
       width="2"
       height="2"
       style="fill:#fecd38"
       id="rect69" />
    <rect
       x="26"
       y="34"
       width="2"
       height="2"
       style="fill:#fecd38"
       id="rect70" />
    <rect
       x="30"
       y="34"
       width="2"
       height="2"
       style="fill:#fecd38"
       id="rect71" />
    <rect
       x="34"
       y="34"
       width="2"
       height="2"
       style="fill:#fecd38"
       id="rect72" />
    <rect
       x="38"
       y="34"
       width="2"
       height="2"
       style="fill:#fecd38"
       id="rect73" />
    <rect
       x="42"
       y="34"
       width="2"
       height="2"
       style="fill:#fecd38"
       id="rect74" />
    <rect
       x="46"
       y="34"
       width="2"
       height="2"
       style="fill:#fecd38"
       id="rect75" />
    <rect
       x="50"
       y="34"
       width="2"
       height="2"
       style="fill:#fecd38"
       id="rect76" />
    <rect
       x="54"
       y="34"
       width="2"
       height="2"
       style="fill:#fecd38"
       id="rect77" />
    <rect
       x="52"
       y="36"
       width="2"
       height="2"
       style="fill:#fecd38"
       id="rect78" />
    <rect
       x="44"
       y="36"
       width="2"
       height="2"
       style="fill:#fecd38"
       id="rect79" />
    <rect
       x="36"
       y="36"
       width="2"
       height="2"
       style="fill:#fecd38"
       id="rect80" />
    <rect
       x="28"
       y="36"
       width="2"
       height="2"
       style="fill:#fecd38"
       id="rect81" />
    <rect
       x="20"
       y="36"
       width="2"
       height="2"
       style="fill:#fecd38"
       id="rect82" />
    <rect
       x="12"
       y="36"
       width="2"
       height="2"
       style="fill:#fecd38"
       id="rect83" />
    <rect
       x="8"
       y="38"
       width="2"
       height="2"
       style="fill:#fecd38"
       id="rect84" />
    <rect
       x="16"
       y="38"
       width="2"
       height="2"
       style="fill:#fecd38"
       id="rect85" />
    <rect
       x="24"
       y="38"
       width="2"
       height="2"
       style="fill:#fecd38"
       id="rect86" />
    <rect
       x="32"
       y="38"
       width="2"
       height="2"
       style="fill:#fecd38"
       id="rect87" />
    <rect
       x="40"
       y="38"
       width="2"
       height="2"
       style="fill:#fecd38"
       id="rect88" />
    <rect
       x="48"
       y="38"
       width="2"
       height="2"
       style="fill:#fecd38"
       id="rect89" />
    <rect
       x="48"
       y="20"
       width="2"
       height="2"
       style="fill:#e97e10"
       id="rect90" />
    <rect
       x="40"
       y="20"
       width="2"
       height="2"
       style="fill:#e97e10"
       id="rect91" />
    <rect
       x="32"
       y="20"
       width="2"
       height="2"
       style="fill:#e97e10"
       id="rect92" />
    <rect
       x="24"
       y="20"
       width="2"
       height="2"
       style="fill:#e97e10"
       id="rect93" />
    <rect
       x="16"
       y="20"
       width="2"
       height="2"
       style="fill:#e97e10"
       id="rect94" />
    <rect
       x="8"
       y="20"
       width="2"
       height="2"
       style="fill:#e97e10"
       id="rect95" />
    <rect
       x="12"
       y="18"
       width="2"
       height="2"
       style="fill:#e97e10"
       id="rect96" />
    <rect
       x="20"
       y="18"
       width="2"
       height="2"
       style="fill:#e97e10"
       id="rect97" />
    <rect
       x="28"
       y="18"
       width="2"
       height="2"
       style="fill:#e97e10"
       id="rect98" />
    <rect
       x="36"
       y="18"
       width="2"
       height="2"
       style="fill:#e97e10"
       id="rect99" />
    <rect
       x="44"
       y="18"
       width="2"
       height="2"
       style="fill:#e97e10"
       id="rect100" />
    <rect
       x="52"
       y="18"
       width="2"
       height="2"
       style="fill:#e97e10"
       id="rect101" />
    <rect
       x="52"
       y="40"
       width="2"
       height="2"
       style="fill:#fecd38"
       id="rect102" />
    <rect
       x="44"
       y="40"
       width="2"
       height="2"
       style="fill:#fecd38"
       id="rect103" />
    <rect
       x="36"
       y="40"
       width="2"
       height="2"
       style="fill:#fecd38"
       id="rect104" />
    <rect
       x="28"
       y="40"
       width="2"
       height="2"
       style="fill:#fecd38"
       id="rect105" />
    <rect
       x="20"
       y="40"
       width="2"
       height="2"
       style="fill:#fecd38"
       id="rect106" />
    <rect
       x="12"
       y="40"
       width="2"
       height="2"
       style="fill:#fecd38"
       id="rect107" />
  </g>
</svg>
