<?xml version="1.0" encoding="UTF-8" standalone="no"?>
<svg
   width="62"
   height="62"
   version="1.1"
   id="svg4"
   sodipodi:docname="io.github.quodlibet.ExFalso.svg"
   inkscape:version="1.4 (unknown)"
   xmlns:inkscape="http://www.inkscape.org/namespaces/inkscape"
   xmlns:sodipodi="http://sodipodi.sourceforge.net/DTD/sodipodi-0.dtd"
   xmlns="http://www.w3.org/2000/svg"
   xmlns:svg="http://www.w3.org/2000/svg">
  <defs
     id="defs4" />
  <sodipodi:namedview
     id="namedview4"
     pagecolor="#ffffff"
     bordercolor="#000000"
     borderopacity="0.25"
     inkscape:showpageshadow="2"
     inkscape:pageopacity="0.0"
     inkscape:pagecheckerboard="0"
     inkscape:deskcolor="#d1d1d1"
     inkscape:zoom="12.078125"
     inkscape:cx="41.438551"
     inkscape:cy="36.553687"
     inkscape:window-width="1920"
     inkscape:window-height="996"
     inkscape:window-x="0"
     inkscape:window-y="0"
     inkscape:window-maximized="1"
     inkscape:current-layer="svg4" />
  <ellipse
     style="opacity:0.2;stroke-width:0.9823"
     cx="31"
     cy="31.491228"
     id="circle1"
     rx="27.5"
     ry="27.508772" />
  <ellipse
     style="fill:#2d3d53;fill-opacity:1;stroke-width:0.9823"
     cx="31"
     cy="30.508772"
     id="circle2"
     rx="27.5"
     ry="27.508772" />
  <path
     style="opacity:0.1;fill:#ffffff;stroke-width:0.9823"
     d="M 31,3 A 27.5,27.508772 0 0 0 3.4999999,30.508772 27.5,27.508772 0 0 0 3.521116,31.084491 27.5,27.508772 0 0 1 31,3.9824562 27.5,27.508772 0 0 1 58.479375,30.915509 27.5,27.508772 0 0 0 58.5,30.508772 27.5,27.508772 0 0 0 31,3 Z"
     id="path2" />
  <g
     id="g7"
     transform="matrix(1.0263169,0,0,1.0256458,-1.8421203,-62.35527)">
    <path
       style="opacity:0.2"
       d="m 44.123388,73 c -1.590982,2.316994 -3.078316,3.17181 -4.738315,3.854866 -1.659998,0.683002 -3.505231,1.178976 -5.681032,2.752223 -1.023325,0.739919 -1.539438,1.546489 -1.756254,2.381039 -0.216816,0.834549 -0.139938,1.691812 -0.01926,2.546098 0.222826,1.576809 0.394115,3.14165 -0.489225,4.726385 -1.461828,-1.085994 -1.962277,-2.585141 -2.399389,-4.113279 -0.236707,-0.827476 -0.501869,-1.633832 -1.038912,-2.306836 -0.537043,-0.673002 -1.338226,-1.194668 -2.575291,-1.454517 -2.626702,-0.551774 -4.517059,-0.268094 -6.315923,-0.219688 -1.795917,0.04788 -3.512128,-0.127124 -5.900908,-1.589203 -0.004,-0.0024 -0.0072,0.0024 -0.01099,0 L 13,79.879224 c 2.315743,1.591384 3.185198,3.078032 3.875305,4.737397 0.690106,1.659313 1.192798,3.499004 2.764934,5.674983 0.74047,1.024821 1.544374,1.537075 2.377404,1.75421 0.833029,0.217027 1.682082,0.141492 2.534063,0.02128 1.57292,-0.221814 3.152433,-0.384587 4.738318,0.50853 -1.085991,1.462069 -2.59375,1.957459 -4.125415,2.392102 -0.829391,0.235113 -1.642423,0.502677 -2.316936,1.039344 -0.674513,0.536136 -1.194136,1.33861 -1.453927,2.576206 -0.551574,2.627754 -0.265668,4.518874 -0.217124,6.318414 0.04858,1.79958 -0.131195,3.51559 -1.599594,5.91142 l 0.302332,0.18671 h 0.0082 c 0.0016,-0.003 -0.0016,-0.003 0,-0.0107 1.586363,-2.30396 3.079199,-3.16059 4.738315,-3.84657 1.663093,-0.68757 3.505767,-1.19041 5.681034,-2.76323 1.024458,-0.74082 1.539275,-1.54771 1.756255,-2.38109 0.216974,-0.83338 0.139432,-1.68272 0.01926,-2.53509 -0.221469,-1.570107 -0.366341,-3.146119 0.519454,-4.729099 1.442007,1.08807 1.943686,2.588654 2.380154,4.116046 0.23705,0.829549 0.512523,1.643623 1.049906,2.317793 0.537377,0.67417 1.328602,1.19493 2.564296,1.45452 2.627357,0.55188 4.510749,0.26862 6.304928,0.21703 1.794182,-0.0532 3.505444,0.12287 5.900909,1.59197 l 0.197889,-0.30214 c -0.0054,-0.004 -0.0054,-0.005 -0.01099,-0.0107 -2.303577,-1.5874 -3.161213,-3.08075 -3.842324,-4.737454 -0.68274,-1.660589 -1.181287,-3.498364 -2.753938,-5.674982 -0.739584,-1.023599 -1.544334,-1.546648 -2.377405,-1.765167 -0.833068,-0.218626 -1.681507,-0.139896 -2.534063,-0.02128 -1.570297,0.218624 -3.135834,0.36863 -4.716328,-0.508527 1.087162,-1.442604 2.580848,-1.941876 4.103425,-2.381093 0.827058,-0.238307 1.633779,-0.519699 2.305943,-1.058548 0.672165,-0.538635 1.194466,-1.332012 1.453926,-2.568066 0.551719,-2.628336 0.257601,-4.512495 0.206136,-6.307343 -0.05138,-1.791871 0.129268,-3.501931 1.591347,-5.892171 0.0024,-0.004 -0.0024,-0.0053 0,-0.01072 l -0.151165,-0.09628 z"
       id="path2-6" />
    <path
       style="fill:#2a7fff"
       d="m 44.123388,72 c -1.590982,2.316994 -3.078316,3.17181 -4.738315,3.854866 -1.659998,0.683002 -3.505231,1.178976 -5.681032,2.752223 -1.023325,0.739919 -1.539438,1.546489 -1.756254,2.381039 -0.216816,0.834549 -0.139938,1.691812 -0.01926,2.546098 0.222826,1.576809 0.394115,3.14165 -0.489225,4.726385 -1.461828,-1.085994 -1.962277,-2.585141 -2.399389,-4.113279 -0.236707,-0.827476 -0.501869,-1.633832 -1.038912,-2.306836 -0.537043,-0.673002 -1.338226,-1.194668 -2.575291,-1.454517 -2.626702,-0.551774 -4.517059,-0.268094 -6.315923,-0.219688 -1.795917,0.04788 -3.512128,-0.127124 -5.900908,-1.589203 -0.004,-0.0024 -0.0072,0.0024 -0.01099,0 L 13,78.879224 c 2.315743,1.591384 3.185198,3.078032 3.875305,4.737397 0.690106,1.659313 1.192798,3.499004 2.764934,5.674983 0.74047,1.024821 1.544374,1.537075 2.377404,1.75421 0.833029,0.217027 1.682082,0.141492 2.534063,0.02128 1.57292,-0.221814 3.152433,-0.384587 4.738318,0.50853 -1.085991,1.462069 -2.59375,1.957459 -4.125415,2.392102 -0.829391,0.235113 -1.642423,0.502677 -2.316936,1.039344 -0.674513,0.536136 -1.194136,1.33861 -1.453927,2.576206 -0.551574,2.627754 -0.265668,4.518874 -0.217124,6.318414 0.04858,1.79958 -0.131195,3.51559 -1.599594,5.91142 l 0.302332,0.18671 h 0.0082 c 0.0016,-0.003 -0.0016,-0.003 0,-0.0107 1.586363,-2.30396 3.079199,-3.16059 4.738315,-3.84657 1.663093,-0.68757 3.505767,-1.19041 5.681034,-2.76323 1.024458,-0.74082 1.539275,-1.54771 1.756255,-2.38109 0.216974,-0.83338 0.139432,-1.682721 0.01926,-2.53509 -0.221469,-1.570107 -0.366341,-3.146119 0.519454,-4.729099 1.442007,1.08807 1.943686,2.588654 2.380154,4.116046 0.23705,0.829549 0.512523,1.643619 1.049906,2.317793 0.537377,0.67417 1.328602,1.19493 2.564296,1.45452 2.627357,0.55188 4.510749,0.26862 6.304928,0.21703 1.794182,-0.0532 3.505444,0.12287 5.900909,1.59197 l 0.197889,-0.30214 c -0.0054,-0.004 -0.0054,-0.005 -0.01099,-0.0107 -2.303577,-1.5874 -3.161213,-3.08075 -3.842324,-4.737454 -0.68274,-1.660589 -1.181287,-3.498364 -2.753938,-5.674982 -0.739584,-1.023599 -1.544334,-1.546648 -2.377405,-1.765167 -0.833068,-0.218626 -1.681507,-0.139896 -2.534063,-0.02128 -1.570297,0.218624 -3.135834,0.36863 -4.716328,-0.508527 1.087162,-1.442604 2.580848,-1.941876 4.103425,-2.381093 0.827058,-0.238307 1.633779,-0.519699 2.305943,-1.058548 0.672165,-0.538635 1.194466,-1.332012 1.453926,-2.568066 0.551719,-2.628336 0.257601,-4.512495 0.206136,-6.307343 -0.05138,-1.791871 0.129268,-3.501931 1.591347,-5.892171 0.0024,-0.004 -0.0024,-0.0053 0,-0.01072 l -0.151165,-0.09628 z"
       id="path3-7" />
  </g>
</svg>
