<?xml version="1.0" encoding="UTF-8" standalone="no"?>
<svg
   width="62"
   height="62"
   version="1.1"
   id="svg4"
   sodipodi:docname="io.github.purplehorrorrus.Meridius.svg"
   inkscape:version="1.4 (unknown)"
   xmlns:inkscape="http://www.inkscape.org/namespaces/inkscape"
   xmlns:sodipodi="http://sodipodi.sourceforge.net/DTD/sodipodi-0.dtd"
   xmlns="http://www.w3.org/2000/svg"
   xmlns:svg="http://www.w3.org/2000/svg">
  <defs
     id="defs4" />
  <sodipodi:namedview
     id="namedview4"
     pagecolor="#ffffff"
     bordercolor="#000000"
     borderopacity="0.25"
     inkscape:showpageshadow="2"
     inkscape:pageopacity="0.0"
     inkscape:pagecheckerboard="0"
     inkscape:deskcolor="#d1d1d1"
     inkscape:zoom="12.078125"
     inkscape:cx="32"
     inkscape:cy="32"
     inkscape:window-width="1920"
     inkscape:window-height="996"
     inkscape:window-x="0"
     inkscape:window-y="0"
     inkscape:window-maximized="1"
     inkscape:current-layer="svg4" />
  <g
     id="g4"
     transform="matrix(0.98214286,0,0,0.98245614,-0.42857152,-0.92982455)">
    <circle
       style="opacity:0.2"
       cx="32"
       cy="33"
       r="28"
       id="circle1" />
    <circle
       style="fill:#2d3d53;fill-opacity:1"
       cx="32"
       cy="32"
       r="28"
       id="circle2" />
    <path
       style="opacity:0.1;fill:#ffffff"
       d="M 32,4 A 28,28 0 0 0 4,32 28,28 0 0 0 4.0215,32.586 28,28 0 0 1 32,5 28,28 0 0 1 59.979,32.414 28,28 0 0 0 60,32 28,28 0 0 0 32,4 Z"
       id="path2" />
    <path
       style="opacity:0.2"
       d="m 45.230468,15.304964 c -0.06648,0.0043 -0.13482,0.01206 -0.203124,0.02344 L 24.972656,18.672151 C 23.879732,18.854305 23,19.892276 23,21.000276 v 18.34375 a 6,6 0 0 0 -2,-0.34375 6,6 0 0 0 -6,6 6,6 0 0 0 6,6 6,6 0 0 0 6,-6 V 26.332308 l 16,-2.66797 v 11.679688 a 6,6 0 0 0 -2,-0.34375 6,6 0 0 0 -6,6 6,6 0 0 0 6,6 6,6 0 0 0 6,-6 v -24 c 0,-1.03875 -0.772324,-1.759458 -1.769532,-1.695312 z"
       id="path3" />
    <path
       style="fill:#c6afe9"
       d="m 45.230468,14.304964 c -0.06648,0.0043 -0.13482,0.01206 -0.203124,0.02344 L 24.972656,17.672151 C 23.879732,17.854305 23,18.892276 23,20.000276 v 18.34375 a 6,6 0 0 0 -2,-0.34375 6,6 0 0 0 -6,6 6,6 0 0 0 6,6 6,6 0 0 0 6,-6 V 25.332308 l 16,-2.66797 v 11.679688 a 6,6 0 0 0 -2,-0.34375 6,6 0 0 0 -6,6 6,6 0 0 0 6,6 6,6 0 0 0 6,-6 v -24 c 0,-1.03875 -0.772324,-1.759458 -1.769532,-1.695312 z"
       id="path4" />
  </g>
</svg>
