<?xml version="1.0" encoding="UTF-8" standalone="no"?>
<svg
   width="62"
   height="62"
   version="1.1"
   id="svg29"
   sodipodi:docname="io.gitlab.hamadmarri.gamma.svg"
   inkscape:version="1.4 (unknown)"
   xmlns:inkscape="http://www.inkscape.org/namespaces/inkscape"
   xmlns:sodipodi="http://sodipodi.sourceforge.net/DTD/sodipodi-0.dtd"
   xmlns:xlink="http://www.w3.org/1999/xlink"
   xmlns="http://www.w3.org/2000/svg"
   xmlns:svg="http://www.w3.org/2000/svg">
  <defs
     id="defs29">
    <linearGradient
       id="linearGradient29"
       inkscape:collect="always">
      <stop
         style="stop-color:#2d3d53;stop-opacity:1;"
         offset="0"
         id="stop29" />
      <stop
         style="stop-color:#30425c;stop-opacity:1;"
         offset="0.59051764"
         id="stop2" />
      <stop
         style="stop-color:#466286;stop-opacity:1;"
         offset="0.59308892"
         id="stop1" />
      <stop
         style="stop-color:#466286;stop-opacity:1;"
         offset="1"
         id="stop30" />
    </linearGradient>
    <linearGradient
       inkscape:collect="always"
       xlink:href="#linearGradient29"
       id="linearGradient30"
       x1="60"
       y1="33"
       x2="4"
       y2="33"
       gradientUnits="userSpaceOnUse"
       gradientTransform="matrix(0.98214286,0,0,0.98245614,-0.42857152,-0.92982455)" />
  </defs>
  <sodipodi:namedview
     id="namedview29"
     pagecolor="#ffffff"
     bordercolor="#000000"
     borderopacity="0.25"
     inkscape:showpageshadow="2"
     inkscape:pageopacity="0.0"
     inkscape:pagecheckerboard="0"
     inkscape:deskcolor="#d1d1d1"
     inkscape:zoom="7.0710678"
     inkscape:cx="25.173001"
     inkscape:cy="36.698842"
     inkscape:window-width="1920"
     inkscape:window-height="996"
     inkscape:window-x="0"
     inkscape:window-y="0"
     inkscape:window-maximized="1"
     inkscape:current-layer="svg29" />
  <rect
     style="opacity:0.2;stroke-width:0.9823"
     width="55"
     height="55.017544"
     x="3.5"
     y="3.9824562"
     ry="13.754386"
     id="rect1" />
  <rect
     style="fill:url(#linearGradient30);stroke-width:0.9823"
     width="55"
     height="55.017544"
     x="3.5"
     y="3"
     ry="13.754386"
     id="rect2" />
  <path
     style="opacity:0.1;fill:#ffffff;stroke-width:0.9823"
     d="M 17.25,3 C 9.6324999,3 3.4999999,9.1344561 3.4999999,16.754386 v 0.982456 c 0,-7.61993 6.1325,-13.7543858 13.7500001,-13.7543858 h 27.5 c 7.6175,0 13.75,6.1344558 13.75,13.7543858 V 16.754386 C 58.5,9.1344561 52.3675,3 44.75,3 Z"
     id="path28" />
  <g
     id="g2"
     transform="matrix(1.0434783,0,0,1.030303,4.9130425,-6.10606)">
    <path
       style="opacity:0.2"
       d="M 2,28 V 46 H 7 V 33 h 6 V 28 H 7 Z"
       id="path3" />
    <path
       style="fill:#ef9d43;fill-opacity:1"
       d="M 2,27 V 45 H 7 V 32 h 6 V 27 H 7 Z"
       id="path4" />
    <rect
       style="opacity:0.2"
       width="14"
       height="5"
       x="21"
       y="21"
       rx="2.5"
       id="rect4" />
    <rect
       style="opacity:0.2"
       width="18"
       height="5"
       x="21"
       y="30"
       rx="2.5"
       id="rect5" />
    <rect
       style="opacity:0.2"
       width="18"
       height="5"
       x="21"
       y="48"
       rx="2.5"
       id="rect6" />
    <rect
       style="opacity:0.2"
       width="18"
       height="5"
       x="30"
       y="39"
       rx="2.5"
       id="rect7" />
    <rect
       style="opacity:0.2"
       width="9"
       height="5"
       x="38"
       y="21"
       rx="2.5"
       id="rect8" />
    <rect
       style="fill:#f2f2f2;fill-opacity:1"
       width="14"
       height="5"
       x="21"
       y="20"
       rx="2.5"
       id="rect9" />
    <rect
       style="fill:#fed867;fill-opacity:1"
       width="18"
       height="5"
       x="21"
       y="29"
       rx="2.5"
       id="rect10" />
    <rect
       style="fill:#fed867;fill-opacity:1"
       width="18"
       height="5"
       x="21"
       y="47"
       rx="2.5"
       id="rect12" />
    <rect
       style="fill:#f2f2f2;fill-opacity:1"
       width="18"
       height="5"
       x="30"
       y="38"
       rx="2.5"
       id="rect13" />
    <rect
       style="fill:#c83771"
       width="9"
       height="5"
       x="38"
       y="20"
       rx="2.5"
       id="rect14" />
  </g>
</svg>
