<?xml version="1.0" encoding="UTF-8" standalone="no"?>
<svg
   width="62"
   height="62"
   version="1.1"
   id="svg29"
   sodipodi:docname="io.github.leonardschardijn.Chirurgien.svg"
   inkscape:version="1.4 (unknown)"
   xmlns:inkscape="http://www.inkscape.org/namespaces/inkscape"
   xmlns:sodipodi="http://sodipodi.sourceforge.net/DTD/sodipodi-0.dtd"
   xmlns:xlink="http://www.w3.org/1999/xlink"
   xmlns="http://www.w3.org/2000/svg"
   xmlns:svg="http://www.w3.org/2000/svg">
  <defs
     id="defs29">
    <linearGradient
       id="linearGradient29"
       inkscape:collect="always">
      <stop
         style="stop-color:#2d3d53;stop-opacity:1;"
         offset="0"
         id="stop29" />
      <stop
         style="stop-color:#354864;stop-opacity:1;"
         offset="1"
         id="stop30" />
    </linearGradient>
    <linearGradient
       inkscape:collect="always"
       xlink:href="#linearGradient29"
       id="linearGradient30"
       x1="30.782633"
       y1="60"
       x2="30.193521"
       y2="5"
       gradientUnits="userSpaceOnUse"
       gradientTransform="matrix(0.98214286,0,0,0.98245614,-0.42857152,-0.92982455)" />
  </defs>
  <sodipodi:namedview
     id="namedview29"
     pagecolor="#ffffff"
     bordercolor="#000000"
     borderopacity="0.25"
     inkscape:showpageshadow="2"
     inkscape:pageopacity="0.0"
     inkscape:pagecheckerboard="0"
     inkscape:deskcolor="#d1d1d1"
     inkscape:zoom="7.0710678"
     inkscape:cx="25.173001"
     inkscape:cy="47.871129"
     inkscape:window-width="1920"
     inkscape:window-height="996"
     inkscape:window-x="0"
     inkscape:window-y="0"
     inkscape:window-maximized="1"
     inkscape:current-layer="svg29" />
  <rect
     style="opacity:0.2;stroke-width:0.9823"
     width="55"
     height="55.017544"
     x="3.5"
     y="3.9824562"
     ry="13.754386"
     id="rect1" />
  <rect
     style="fill:url(#linearGradient30);stroke-width:0.9823"
     width="55"
     height="55.017544"
     x="3.5"
     y="3"
     ry="13.754386"
     id="rect2" />
  <path
     style="opacity:0.1;fill:#ffffff;stroke-width:0.9823"
     d="M 17.25,3 C 9.6324999,3 3.4999999,9.1344561 3.4999999,16.754386 v 0.982456 c 0,-7.61993 6.1325,-13.7543858 13.7500001,-13.7543858 h 27.5 c 7.6175,0 13.75,6.1344558 13.75,13.7543858 V 16.754386 C 58.5,9.1344561 52.3675,3 44.75,3 Z"
     id="path28" />
  <g
     id="g1"
     transform="translate(-1.292454,-1.567226)">
    <path
       style="opacity:0.1;stroke-width:0.918355"
       d="m 20.761771,11.286215 -1.004943,1.075677 -3.043535,9.569948 c -0.139998,0.162855 -0.254718,0.35668 -0.323013,0.580867 l -0.821897,2.692783 -0.186632,0.609547 h 0.0036 l -0.08253,0.261748 -0.183044,0.613137 -0.07895,0.250993 -0.183046,0.605966 -6.9915079,22.944209 c -0.2351144,0.771747 0.1286789,1.555208 0.8147049,1.756941 l 0.2440567,0.07168 C 9.6110755,52.52145 10.35169,52.062393 10.58679,51.290656 l 0.150738,-0.498396 c 0.318349,-0.0896 0.619301,-0.288379 0.839845,-0.59162 l 0.405562,-0.55936 c 0.450376,0.22032 1.038357,0.174237 1.514594,-0.172109 l 0.211751,-0.154173 0.07177,0.168529 c 0.197294,0.464445 0.6698,0.735479 1.191572,0.749395 -0.01519,0.124763 -0.0166,0.25159 0.01076,0.38007 l 0.05382,0.247407 c 0.148933,0.698766 0.902764,1.132451 1.694043,0.971696 l 28.36443,-5.762061 0.692689,0.236657 c 3.229503,-0.309255 7.547328,-1.804771 11.004088,-4.575224 l -1.424854,-0.369309 -9.873536,1.878843 c -0.209987,-0.04543 -0.43772,-0.05388 -0.667568,-0.0074 l -2.759996,0.559355 -0.624495,0.129079 -1.152093,0.233058 -0.624497,0.125496 -19.506593,3.96208 17.34956,-7.167594 0.57425,-0.236656 4.299708,-1.774868 0.721404,0.100404 c 3.111506,-0.917837 7.065374,-3.209484 9.930957,-6.586733 l -1.471521,-0.08965 -9.338758,3.721847 c -0.213003,-0.0039 -0.434867,0.02958 -0.649623,0.118317 l -2.767172,1.143805 -0.4271,0.175691 -0.251236,0.10398 -0.592195,0.247401 -0.244055,0.0968 -0.585019,0.243827 -18.315025,7.569183 13.516437,-9.831694 0.384032,-0.276091 1.220283,-0.88564 0.362495,-0.268921 3.021997,-2.19438 0.728583,-0.07171 c 2.808704,-1.622219 6.112632,-4.775784 8.10412,-8.730922 l -1.449983,0.254577 -8.201026,5.812248 c -0.209089,0.04602 -0.417661,0.131537 -0.606554,0.268918 l -2.279059,1.656543 v -0.0037 l -0.513237,0.376489 -0.222521,0.161349 -0.516828,0.376489 -0.215345,0.15777 v -0.0037 l -0.51324,0.376488 -15.257133,11.09383 9.008566,-12.384645 0.362493,-0.498395 0.165093,-0.225891 0.06821,-0.09322 0.606557,-0.835445 0.22611,-0.311946 2.19651,-3.01907 0.674743,-0.29402 c 2.17174,-2.407821 4.339122,-6.424049 5.013922,-10.799774 l -1.299244,0.688433 -6.011692,8.053241 c -0.184098,0.108059 -0.354762,0.252742 -0.491706,0.441029 l -1.658145,2.276851 -0.373266,0.516329 -0.161504,0.222303 -0.373266,0.516326 -0.157924,0.21155 -0.37326,0.516325 -10.408302,14.310102 4.655021,-15.281796 0.03586,-0.114738 0.215338,-0.702778 0.05025,-0.16853 1.087488,-3.571249 0.538363,-0.494813 c 1.264872,-2.984478 2.003116,-7.490811 1.209517,-11.846599 z"
       id="path2" />
    <path
       style="fill:#ffffff;stroke-width:0.918355"
       d="m 51.564637,31.568973 1.469981,0.09058 c -2.865582,3.377248 -6.818182,5.668661 -9.929688,6.586504 l -0.795846,-0.111384 -3.210432,1.318212 c -0.630165,0.201335 -1.550397,-0.732519 -2.457177,0.230409 l 0.06885,-2.191739 z"
       id="path4" />
    <rect
       style="fill:#7b909e;stroke-width:0.918358;fill-opacity:1"
       width="2.8330956"
       height="32.183838"
       x="48.606525"
       y="-25.882858"
       rx="1.2898571"
       ry="1.4570135"
       transform="matrix(0.39098035,0.92039902,-0.92421191,0.38188002,0,0)"
       id="rect4" />
    <path
       style="fill:#2d3d53;stroke-width:0.918355;fill-opacity:1"
       d="m 38.97147,36.485488 -0.589738,0.244648 -0.02934,3.078811 0.572954,-0.238841 z m -0.843121,0.349983 -0.589742,0.244651 -0.02983,3.076346 0.573434,-0.236372 z m -0.834212,0.343145 -0.587273,0.244173 -0.02983,3.076343 0.573434,-0.23637 z"
       id="path5" />
    <path
       style="fill:#ffffff;stroke-width:0.918355"
       d="m 55.366611,40.444064 1.425829,0.368518 c -3.456759,2.770451 -7.773735,4.268181 -11.003239,4.577424 l -0.760068,-0.260695 -3.402923,0.683478 c -0.657006,0.07781 -1.382437,-1.014001 -2.456137,-0.241165 l 0.485261,-2.138549 z"
       id="path6" />
    <rect
       style="fill:#7b909e;stroke-width:0.918357;fill-opacity:1"
       width="2.8327954"
       height="32.187149"
       x="50.39373"
       y="-36.483181"
       rx="1.2897205"
       ry="1.4571636"
       transform="matrix(0.2084539,0.97803219,-0.97998085,0.19909177,0,0)"
       id="rect6" />
    <path
       style="fill:#2d3d53;stroke-width:0.918355;fill-opacity:1"
       d="m 42.066844,42.875468 -0.625576,0.128016 -0.61552,3.016916 0.607985,-0.125498 z m -0.894394,0.183215 -0.625573,0.128013 -0.615527,3.014414 0.607988,-0.122981 z m -0.88435,0.178207 -0.623059,0.128009 -0.615525,3.014415 0.607986,-0.122981 z"
       id="path7" />
    <path
       style="fill:#ffffff;stroke-width:0.918355"
       d="m 44.280388,22.987435 1.450158,-0.256855 c -1.991488,3.955137 -5.294858,7.109861 -8.103561,8.732081 l -0.799768,0.07848 -2.810742,2.034607 c -0.565207,0.343567 -1.679229,-0.348257 -2.334282,0.800487 l -0.448326,-2.146586 z"
       id="path8" />
    <rect
       style="fill:#7b909e;stroke-width:0.918359;fill-opacity:1"
       width="2.833652"
       height="32.177589"
       x="44.374027"
       y="-12.602449"
       rx="1.2901106"
       ry="1.4567308"
       transform="matrix(0.59630009,0.80276161,-0.80874381,0.58816107,0,0)"
       id="rect8" />
    <path
       style="fill:#2d3d53;stroke-width:0.918355;fill-opacity:1"
       d="m 33.195258,30.721173 -0.515738,0.376178 0.69527,2.999583 0.500778,-0.366596 z m -0.737265,0.53802 -0.515728,0.376176 0.694216,2.997299 0.501824,-0.364303 z m -0.73021,0.529278 -0.513443,0.375136 0.694215,2.997295 0.501826,-0.364302 z"
       id="path9" />
    <path
       style="fill:#ffffff;stroke-width:0.918355"
       d="m 32.978813,15.486189 1.300391,-0.690733 c -0.674795,4.375724 -2.84451,8.393789 -5.01626,10.801643 l -0.736656,0.320838 -2.046509,2.800805 c -0.431754,0.500826 -1.704943,0.18557 -1.97384,1.480064 L 23.4174,28.294652 Z"
       id="path10" />
    <rect
       style="fill:#7b909e;stroke-width:0.918359;fill-opacity:1"
       width="2.8344979"
       height="32.167984"
       x="35.51371"
       y="2.7217507"
       rx="1.2904958"
       ry="1.456296"
       transform="matrix(0.81462702,0.57998519,-0.58817917,0.80873065,0,0)"
       id="rect10" />
    <path
       style="fill:#2d3d53;stroke-width:0.918355;fill-opacity:1"
       d="m 24.818137,26.255837 -0.374626,0.516621 1.586541,2.639642 0.363356,-0.502908 z m -0.535462,0.738781 -0.374622,0.516624 1.584838,2.637788 0.365058,-0.501049 z m -0.531449,0.728297 -0.372778,0.514929 1.584846,2.637788 0.365054,-0.501048 z"
       id="path11" />
    <path
       style="fill:#ffffff;stroke-width:0.918355"
       d="m 19.758211,11.444585 1.003043,-1.077359 c 0.793601,4.355786 0.05736,8.861605 -1.207503,11.846286 l -0.591264,0.543722 -1.017967,3.315169 c -0.244224,0.614287 -1.550632,0.732007 -1.381323,2.043215 l -1.651651,-1.444221 z"
       id="path12" />
    <rect
       style="fill:#7b909e;stroke-width:0.918357;fill-opacity:1"
       width="2.8352039"
       height="32.159851"
       x="21.971243"
       y="14.643263"
       rx="1.2908171"
       ry="1.4559278"
       transform="matrix(0.95938103,0.28211351,-0.29141432,0.95659693,0,0)"
       id="rect12" />
    <path
       style="fill:#2d3d53;stroke-width:0.918355;fill-opacity:1"
       d="m 15.568465,24.287209 -0.185065,0.610562 2.362885,1.976746 0.1789,-0.593922 z m -0.264401,0.873038 -0.185065,0.610565 2.36068,1.975546 0.181115,-0.592721 z m -0.264035,0.861816 -0.183871,0.608359 2.36068,1.975548 0.181114,-0.592723 z"
       id="path13" />
  </g>
</svg>
