<?xml version="1.0" encoding="UTF-8" standalone="no"?>
<svg
   width="62"
   height="62"
   version="1.1"
   id="svg8"
   sodipodi:docname="io.github.parnassius.SysDVR-Qt.svg"
   inkscape:version="1.4 (unknown)"
   xmlns:inkscape="http://www.inkscape.org/namespaces/inkscape"
   xmlns:sodipodi="http://sodipodi.sourceforge.net/DTD/sodipodi-0.dtd"
   xmlns="http://www.w3.org/2000/svg"
   xmlns:svg="http://www.w3.org/2000/svg">
  <defs
     id="defs8" />
  <sodipodi:namedview
     id="namedview8"
     pagecolor="#ffffff"
     bordercolor="#000000"
     borderopacity="0.25"
     inkscape:showpageshadow="2"
     inkscape:pageopacity="0.0"
     inkscape:pagecheckerboard="0"
     inkscape:deskcolor="#d1d1d1"
     inkscape:zoom="12.078125"
     inkscape:cx="31.958603"
     inkscape:cy="32"
     inkscape:window-width="1920"
     inkscape:window-height="996"
     inkscape:window-x="0"
     inkscape:window-y="0"
     inkscape:window-maximized="1"
     inkscape:current-layer="svg8" />
  <g
     id="g8"
     transform="matrix(0.98245614,0,0,1,-0.92982455,-1.4999995)">
    <path
       style="opacity:0.2"
       d="M 11.5,14 C 11.5,14 4,13.999608 4,21.599609 V 44.400391 C 4,44.400391 4,52 11.5,52 H 19 46 53.5 C 61,52 61,44.400391 61,44.400391 V 21.599609 C 61,13.999608 53.5,14 53.5,14 H 46 19 Z"
       id="path1" />
    <path
       style="fill:#00aad4"
       d="m 19,12.999999 h -7.5 c 0,0 -7.5,0 -7.5,7.600001 v 22.8 c 0,0 0,7.600001 7.5,7.600001 H 19 Z"
       id="path2" />
    <ellipse
       style="fill:#2d3d53;fill-opacity:1"
       cx="11.5"
       cy="23.607"
       rx="3.5"
       ry="3.3929999"
       id="ellipse2" />
    <rect
       style="fill:#2d3d53;fill-opacity:1"
       width="27"
       height="38"
       x="19"
       y="13"
       id="rect2" />
    <path
       style="fill:#c83771"
       d="m 46,12.999999 h 7.5 c 0,0 7.5,0 7.5,7.600001 v 22.8 c 0,0 0,7.600001 -7.5,7.600001 H 46 Z"
       id="path5" />
    <circle
       style="fill:#2d3d53;fill-opacity:1"
       cx="53.5"
       cy="34.5"
       r="3.5"
       id="circle5" />
    <path
       style="opacity:0.2;fill:#ffffff"
       d="m 11.5,13 c 0,0 -7.5,-3.92e-4 -7.5,7.599609 v 1 C 4,13.999608 11.5,14 11.5,14 H 19 v -1 z"
       id="path6" />
    <path
       style="opacity:0.1;fill:#ffffff"
       d="m 19,13 v 1 h 27 v -1 z"
       id="path7" />
    <path
       style="opacity:0.2;fill:#ffffff"
       d="m 46,13 v 1 h 7.5 c 0,0 7.5,-3.92e-4 7.5,7.599609 v -1 C 61,12.999608 53.5,13 53.5,13 Z"
       id="path8" />
    <path
       id="path4-5"
       style="fill:#f1f1f1;fill-opacity:1;stroke-width:1.00001"
       d="m 22.5,26.728331 v 4.00043 c 8.837089,0 15.999566,7.162482 15.999566,15.999568 H 42.5 c 0,-11.050108 -8.953893,-19.999998 -20,-19.999998 z m 0,7.999783 v 3.301704 a 8.7970174,8.7970146 0 0 1 8.724391,8.698513 h 3.275823 c 0,-6.627066 -5.373147,-12.000217 -12.000214,-12.000217 z" />
    <circle
       id="path1205"
       cx="24.1"
       cy="45"
       style="fill:#f2f2f2;fill-opacity:1;stroke-width:2.44711"
       r="4" />
  </g>
</svg>
