<?xml version="1.0" encoding="UTF-8" standalone="no"?>
<svg
   width="62"
   height="62"
   version="1.1"
   id="svg4"
   sodipodi:docname="io.gitlab.caveman250.headlines.svg"
   inkscape:version="1.4 (unknown)"
   xmlns:inkscape="http://www.inkscape.org/namespaces/inkscape"
   xmlns:sodipodi="http://sodipodi.sourceforge.net/DTD/sodipodi-0.dtd"
   xmlns="http://www.w3.org/2000/svg"
   xmlns:svg="http://www.w3.org/2000/svg">
  <defs
     id="defs4" />
  <sodipodi:namedview
     id="namedview4"
     pagecolor="#ffffff"
     bordercolor="#000000"
     borderopacity="0.25"
     inkscape:showpageshadow="2"
     inkscape:pageopacity="0.0"
     inkscape:pagecheckerboard="0"
     inkscape:deskcolor="#d1d1d1"
     inkscape:zoom="7.0710678"
     inkscape:cx="33.163308"
     inkscape:cy="36.981685"
     inkscape:window-width="1920"
     inkscape:window-height="996"
     inkscape:window-x="0"
     inkscape:window-y="0"
     inkscape:window-maximized="1"
     inkscape:current-layer="svg4" />
  <g
     id="g4"
     transform="matrix(0.98214286,0,0,0.98245614,-0.42857152,-0.92982455)">
    <circle
       style="opacity:0.2"
       cx="32"
       cy="33"
       r="28"
       id="circle1" />
    <circle
       style="fill:#2d76ec;fill-opacity:1"
       cx="32"
       cy="32"
       r="28"
       id="circle2" />
    <path
       style="opacity:0.2"
       d="m 33.046875,14 c -4.121387,0.01608 -8.99805,0.561125 -13.974609,1.617188 -2.488066,0.527981 -2.903525,0.657397 -2.865235,0.878906 0.03814,0.220914 6.686504,19.271802 6.804688,19.503906 h 2.601562 c 0.0062,-0.01353 0.0098,-0.02667 0.0098,-0.04297 0,-0.164562 -0.42173,-2.379751 -2.085938,-12.603515 -0.38815,-2.384558 -0.674014,-4.473221 -0.636718,-4.640625 0.159628,-0.71649 1.384566,-1.439587 2.980468,-1.759766 3.041444,-0.610172 8.265227,-0.471763 12.435547,0.330078 2.294586,0.441181 3.767578,1.039105 3.767578,1.529297 0,0.530024 -1.231468,1.352318 -2.955078,1.691406 -3.934882,0.7741 -10.888029,0.5742 -11.998047,-0.445312 -0.44338,-0.407228 -0.180313,-0.6802 0.316407,-0.328125 0.79205,0.561409 3.049109,0.861328 6.464843,0.861328 2.668848,0 3.986411,-0.248586 5.601563,-0.613281 0.894572,-0.201978 2.020386,-0.898386 2.027344,-1.091797 0.007,-0.209732 -1.027199,-0.630725 -2.369141,-0.964844 -3.926678,-0.977664 -10.554548,-1.200682 -13.503906,-0.457031 -1.297561,0.327166 -2.363279,0.956745 -2.363281,1.398437 0,0.224338 1.351461,1.136636 2.394531,1.722657 1.103074,0.619724 2.415276,1.093832 3.990234,1.441406 1.071728,0.23651 1.505552,0.267578 3.816406,0.267578 2.261784,0 2.782555,-0.03616 3.921875,-0.263672 2.517228,-0.50278 4.790146,-1.243389 6.513672,-2.382812 1.42716,-0.943492 1.345327,-0.829427 1.039063,-1.453126 -0.571788,-1.16446 -2.057612,-2.635927 -3.996094,-3.259765 C 39.000046,14.296958 36.252398,13.987491 33.046875,14 Z m 11.755859,5.884766 c -0.08179,0.01422 -0.280387,0.136081 -0.689453,0.408203 -0.820288,0.545772 -2.535124,1.202297 -3.792969,1.617187 -4.065137,1.340851 -8.853152,1.452723 -12.46875,0.292969 -1.162223,-0.372792 -2.768528,-1.04075 -3.61914,-1.675781 -0.414442,-0.309399 -0.76725,-0.548558 -0.785156,-0.53125 -0.03696,0.03561 2.62065,15.77142 2.699218,15.992187 0.0014,0.0038 0.0055,0.0082 0.0078,0.01172 h 2.146484 c 0.01582,-0.245755 -0.06516,-1.199614 -0.191406,-3.015625 -0.15085,-2.170393 -0.205004,-3.717966 -0.142578,-3.949219 0.12936,-0.479343 0.708813,-0.907523 1.429687,-1.05664 0.380058,-0.07867 1.811522,-0.08741 4.246094,-0.0293 3.447962,0.08226 3.693204,0.100236 3.992188,0.320312 0.17521,0.12891 0.422597,0.369096 0.546875,0.533203 0.22414,0.295969 0.224185,0.438558 -0.02344,3.876954 -0.13734,1.906346 -0.251036,3.141951 -0.25,3.251953 2.03e-4,0.02616 0.0075,0.04855 0.01758,0.06836 h 3.28711 c 0.04239,-0.138154 0.298494,-0.962827 0.583984,-2.496094 0.677138,-3.636648 1.406836,-6.76084 2.253906,-10.074218 0.369614,-1.445746 0.711193,-2.851853 0.757813,-3.126954 0.04697,-0.277166 0.07592,-0.432191 -0.0059,-0.417968 z M 16,37 v 0.708984 C 16,46.706623 23.163444,54 32,54 40.836558,54 48,46.706623 48,37.708984 V 37 Z m 9.5,3 C 26.880712,40 28,41.119288 28,42.5 28,43.880712 26.880712,45 25.5,45 24.119288,45 23,43.880712 23,42.5 23,41.119288 24.119288,40 25.5,40 Z m 13,0 C 39.880712,40 41,41.119288 41,42.5 41,43.880712 39.880712,45 38.5,45 37.119288,45 36,43.880712 36,42.5 36,41.119288 37.119288,40 38.5,40 Z"
       id="path2" />
    <path
       style="fill:#f2f2f2;fill-opacity:1"
       d="m 33.046875,13 c -4.121387,0.01608 -8.99805,0.561125 -13.974609,1.617188 -2.488066,0.527981 -2.903525,0.657397 -2.865235,0.878906 0.03814,0.220914 6.686504,19.271802 6.804688,19.503906 h 2.601562 c 0.0062,-0.01353 0.0098,-0.02667 0.0098,-0.04297 0,-0.164562 -0.42173,-2.379751 -2.085938,-12.603515 -0.38815,-2.384558 -0.674014,-4.473221 -0.636718,-4.640625 0.159628,-0.71649 1.384566,-1.439587 2.980468,-1.759766 3.041444,-0.610172 8.265227,-0.471763 12.435547,0.330078 2.294586,0.441181 3.767578,1.039105 3.767578,1.529297 0,0.530024 -1.231468,1.352318 -2.955078,1.691406 -3.934882,0.7741 -10.888029,0.5742 -11.998047,-0.445312 -0.44338,-0.407228 -0.180313,-0.6802 0.316407,-0.328125 0.79205,0.561409 3.049109,0.861328 6.464843,0.861328 2.668848,0 3.986411,-0.248586 5.601563,-0.613281 0.894572,-0.201978 2.020386,-0.898386 2.027344,-1.091797 0.007,-0.209732 -1.027199,-0.630725 -2.369141,-0.964844 -3.926678,-0.977664 -10.554548,-1.200682 -13.503906,-0.457031 -1.297561,0.327166 -2.363279,0.956745 -2.363281,1.398437 0,0.224338 1.351461,1.136636 2.394531,1.722657 1.103074,0.619724 2.415276,1.093832 3.990234,1.441406 1.071728,0.23651 1.505552,0.267578 3.816406,0.267578 2.261784,0 2.782555,-0.03616 3.921875,-0.263672 2.517228,-0.50278 4.790146,-1.243389 6.513672,-2.382812 1.42716,-0.943492 1.345327,-0.829427 1.039063,-1.453126 -0.571788,-1.16446 -2.057612,-2.635927 -3.996094,-3.259765 C 39.000046,13.296958 36.252398,12.987491 33.046875,13 Z m 11.755859,5.884766 c -0.08179,0.01422 -0.280387,0.136081 -0.689453,0.408203 -0.820288,0.545772 -2.535124,1.202297 -3.792969,1.617187 -4.065137,1.340851 -8.853152,1.452723 -12.46875,0.292969 -1.162223,-0.372792 -2.768528,-1.04075 -3.61914,-1.675781 -0.414442,-0.309399 -0.76725,-0.548558 -0.785156,-0.53125 -0.03696,0.03561 2.62065,15.77142 2.699218,15.992187 0.0014,0.0038 0.0055,0.0082 0.0078,0.01172 h 2.146484 c 0.01582,-0.245755 -0.06516,-1.199614 -0.191406,-3.015625 -0.15085,-2.170393 -0.205004,-3.717966 -0.142578,-3.949219 0.12936,-0.479343 0.708813,-0.907523 1.429687,-1.05664 0.380058,-0.07867 1.811522,-0.08741 4.246094,-0.0293 3.447962,0.08226 3.693204,0.100236 3.992188,0.320312 0.17521,0.12891 0.422597,0.369096 0.546875,0.533203 0.22414,0.295969 0.224185,0.438558 -0.02344,3.876954 -0.13734,1.906346 -0.251036,3.141951 -0.25,3.251953 2.03e-4,0.02616 0.0075,0.04855 0.01758,0.06836 h 3.28711 c 0.04239,-0.138154 0.298494,-0.962827 0.583984,-2.496094 0.677138,-3.636648 1.406836,-6.76084 2.253906,-10.074218 0.369614,-1.445746 0.711193,-2.851853 0.757813,-3.126954 0.04697,-0.277166 0.07592,-0.432191 -0.0059,-0.417968 z M 16,36 v 0.708984 C 16,45.706623 23.163444,53 32,53 40.836558,53 48,45.706623 48,36.708984 V 36 Z m 9.5,3 C 26.880712,39 28,40.119288 28,41.5 28,42.880712 26.880712,44 25.5,44 24.119288,44 23,42.880712 23,41.5 23,40.119288 24.119288,39 25.5,39 Z m 13,0 C 39.880712,39 41,40.119288 41,41.5 41,42.880712 39.880712,44 38.5,44 37.119288,44 36,42.880712 36,41.5 36,40.119288 37.119288,39 38.5,39 Z"
       id="path3" />
    <path
       style="opacity:0.2;fill:#ffffff"
       d="M 32,4 A 28,28 0 0 0 4,32 28,28 0 0 0 4.0351562,32.5 28,28 0 0 1 32,5 28,28 0 0 1 59.982422,32.251953 28,28 0 0 0 60,32 28,28 0 0 0 32,4 Z"
       id="path4" />
  </g>
</svg>
