<?xml version="1.0" encoding="UTF-8" standalone="no"?>
<svg
   width="62"
   height="62"
   version="1.1"
   id="svg29"
   sodipodi:docname="koodo-reader.svg"
   inkscape:version="1.4 (unknown)"
   xmlns:inkscape="http://www.inkscape.org/namespaces/inkscape"
   xmlns:sodipodi="http://sodipodi.sourceforge.net/DTD/sodipodi-0.dtd"
   xmlns:xlink="http://www.w3.org/1999/xlink"
   xmlns="http://www.w3.org/2000/svg"
   xmlns:svg="http://www.w3.org/2000/svg">
  <defs
     id="defs29">
    <linearGradient
       id="linearGradient29"
       inkscape:collect="always">
      <stop
         style="stop-color:#2d3d53;stop-opacity:1;"
         offset="0"
         id="stop29" />
      <stop
         style="stop-color:#354864;stop-opacity:1;"
         offset="1"
         id="stop30" />
    </linearGradient>
    <linearGradient
       inkscape:collect="always"
       xlink:href="#linearGradient29"
       id="linearGradient30"
       x1="30.782633"
       y1="60"
       x2="30.193521"
       y2="5"
       gradientUnits="userSpaceOnUse"
       gradientTransform="matrix(0.98214286,0,0,0.98245614,-0.42857152,-0.92982455)" />
  </defs>
  <sodipodi:namedview
     id="namedview29"
     pagecolor="#ffffff"
     bordercolor="#000000"
     borderopacity="0.25"
     inkscape:showpageshadow="2"
     inkscape:pageopacity="0.0"
     inkscape:pagecheckerboard="0"
     inkscape:deskcolor="#d1d1d1"
     inkscape:zoom="7.0710678"
     inkscape:cx="25.243712"
     inkscape:cy="25.243712"
     inkscape:window-width="1920"
     inkscape:window-height="996"
     inkscape:window-x="0"
     inkscape:window-y="0"
     inkscape:window-maximized="1"
     inkscape:current-layer="svg29" />
  <rect
     style="opacity:0.2;stroke-width:0.9823"
     width="55"
     height="55.017544"
     x="3.5"
     y="3.9824562"
     ry="13.754386"
     id="rect1" />
  <rect
     style="fill:url(#linearGradient30);stroke-width:0.9823"
     width="55"
     height="55.017544"
     x="3.5"
     y="3"
     ry="13.754386"
     id="rect2" />
  <path
     style="fill:#a8b8d1;stroke:#a8b8d1;stroke-width:1.9646;stroke-linecap:round;stroke-linejoin:round;fill-opacity:1;stroke-opacity:1"
     d="M 48.678571,46.22807 H 44.75"
     id="path2" />
  <path
     style="fill:#a8b8d1;stroke:#a8b8d1;stroke-width:1.9646;stroke-linecap:round;stroke-linejoin:round;fill-opacity:1;stroke-opacity:1"
     d="M 40.821429,46.22807 H 36.892857"
     id="path3" />
  <path
     style="fill:#a8b8d1;stroke:#a8b8d1;stroke-width:1.9646;stroke-linecap:round;stroke-linejoin:round;fill-opacity:1;stroke-opacity:1"
     d="M 32.964286,46.22807 H 29.035714"
     id="path4" />
  <path
     style="fill:#a8b8d1;stroke:#a8b8d1;stroke-width:1.9646;stroke-linecap:round;stroke-linejoin:round;fill-opacity:1;stroke-opacity:1"
     d="M 25.107143,46.22807 H 21.178571"
     id="path5" />
  <path
     style="fill:#a8b8d1;stroke:#a8b8d1;stroke-width:1.9646;stroke-linecap:round;stroke-linejoin:round;fill-opacity:1;stroke-opacity:1"
     d="M 17.25,46.22807 H 13.321429"
     id="path6" />
  <path
     style="fill:#a8b8d1;stroke:#a8b8d1;stroke-width:1.9646;stroke-linecap:round;stroke-linejoin:round;fill-opacity:1;stroke-opacity:1"
     d="M 48.678571,36.403509 H 44.75"
     id="path7" />
  <path
     style="fill:#a8b8d1;stroke:#a8b8d1;stroke-width:1.9646;stroke-linecap:round;stroke-linejoin:round;fill-opacity:1;stroke-opacity:1"
     d="M 40.821429,36.403509 H 36.892857"
     id="path8" />
  <path
     style="fill:#a8b8d1;stroke:#a8b8d1;stroke-width:1.9646;stroke-linecap:round;stroke-linejoin:round;fill-opacity:1;stroke-opacity:1"
     d="M 32.964286,36.403509 H 29.035714"
     id="path9" />
  <path
     style="fill:#a8b8d1;stroke:#a8b8d1;stroke-width:1.9646;stroke-linecap:round;stroke-linejoin:round;fill-opacity:1;stroke-opacity:1"
     d="M 25.107143,36.403509 H 21.178571"
     id="path10" />
  <path
     style="fill:#a8b8d1;stroke:#a8b8d1;stroke-width:1.9646;stroke-linecap:round;stroke-linejoin:round;fill-opacity:1;stroke-opacity:1"
     d="M 17.25,36.403509 H 13.321429"
     id="path11" />
  <path
     style="fill:#a8b8d1;stroke:#a8b8d1;stroke-width:1.9646;stroke-linecap:round;stroke-linejoin:round;fill-opacity:1;stroke-opacity:1"
     d="M 17.25,36.403509 H 13.321429"
     id="path12" />
  <path
     style="fill:#a8b8d1;stroke:#a8b8d1;stroke-width:1.9646;stroke-linecap:round;stroke-linejoin:round;fill-opacity:1;stroke-opacity:1"
     d="M 48.678571,25.596491 H 44.75"
     id="path13" />
  <path
     style="fill:#a8b8d1;stroke:#a8b8d1;stroke-width:1.9646;stroke-linecap:round;stroke-linejoin:round;fill-opacity:1;stroke-opacity:1"
     d="M 40.821429,25.596491 H 36.892857"
     id="path14" />
  <path
     style="fill:#a8b8d1;stroke:#a8b8d1;stroke-width:1.9646;stroke-linecap:round;stroke-linejoin:round;fill-opacity:1;stroke-opacity:1"
     d="M 32.964286,25.596491 H 29.035714"
     id="path15" />
  <path
     style="opacity:0.2;stroke-width:0.9823"
     d="m 31.985979,3.981992 v 17.191064 c -0.03093,0.375629 0.110692,0.663086 0.592739,0.376096 l 4.805211,-4.231085 4.80521,4.231085 c 0.482051,0.28699 0.62368,-4.82e-4 0.592739,-0.376096 V 3.981992 H 37.383929 Z M 14.303571,17.736378 a 2.9464286,2.9473684 0 0 0 -2.946428,2.947369 2.9464286,2.9473684 0 0 0 2.946428,2.947368 A 2.9464286,2.9473684 0 0 0 17.25,20.683747 2.9464286,2.9473684 0 0 0 14.303571,17.736378 Z m 0,7.85965 a 2.9464286,2.9473684 0 0 0 -2.946428,2.947368 V 45.24515 A 2.9464286,2.9473684 0 0 0 14.303571,48.192519 2.9464286,2.9473684 0 0 0 17.25,45.24515 v -2.35444 l 6.053989,4.685855 a 2.9464286,2.9473684 0 0 0 4.133825,-0.527686 2.9464286,2.9473684 0 0 0 -0.527518,-4.135143 l -7.661482,-5.931195 7.694092,-6.134595 a 2.9464286,2.9473684 0 0 0 0.468052,-4.140899 2.9464286,2.9473684 0 0 0 -1.973876,-1.091831 2.9464286,2.9473684 0 0 0 -2.165703,0.62363 L 17.25,31.039833 v -2.496437 a 2.9464286,2.9473684 0 0 0 -2.946429,-2.947368 z"
     id="path16" />
  <path
     style="fill:#a8b8d1;stroke:#a8b8d1;stroke-width:1.9646;stroke-linecap:round;stroke-linejoin:round;fill-opacity:1;stroke-opacity:1"
     d="M 25.107143,25.596491 H 21.178571"
     id="path17" />
  <path
     style="fill:#a8b8d1;stroke:#a8b8d1;stroke-width:1.9646;stroke-linecap:round;stroke-linejoin:round;fill-opacity:1;stroke-opacity:1"
     d="M 17.25,25.596491 H 13.321429"
     id="path18" />
  <path
     style="fill:none;stroke:#a8b8d1;stroke-width:1.9646;stroke-linecap:round;stroke-linejoin:round;stroke-opacity:1"
     d="M 48.678571,14.789474 H 44.75"
     id="path19" />
  <path
     style="fill:none;stroke:#a8b8d1;stroke-width:1.9646;stroke-linecap:round;stroke-linejoin:round;stroke-opacity:1"
     d="M 40.821429,14.789474 H 36.892857"
     id="path20" />
  <path
     style="fill:none;stroke:#a8b8d1;stroke-width:1.9646;stroke-linecap:round;stroke-linejoin:round;stroke-opacity:1"
     d="M 32.964286,14.789474 H 29.035714"
     id="path21" />
  <path
     style="fill:none;stroke:#a8b8d1;stroke-width:1.9646;stroke-linecap:round;stroke-linejoin:round;stroke-opacity:1"
     d="M 25.107143,14.789474 H 21.178571"
     id="path22" />
  <path
     style="fill:none;stroke:#a8b8d1;stroke-width:1.9646;stroke-linecap:round;stroke-linejoin:round;stroke-opacity:1"
     d="M 17.25,14.789474 H 13.321429"
     id="path23" />
  <path
     style="fill:#ffc133;stroke-width:0.9823;fill-opacity:1"
     d="m 31.986181,3.000001 v 17.190106 c -0.03093,0.375629 0.110966,0.664765 0.593013,0.377775 l 4.804734,-4.231621 4.804731,4.231621 c 0.48205,0.28699 0.623955,-0.0022 0.593014,-0.377775 V 3.000001 h -5.397745 z"
     id="path24" />
  <path
     style="fill:none;stroke:#f2f2f2;stroke-width:5.8938;stroke-linecap:round;stroke-linejoin:round;stroke-opacity:1"
     d="M 14.303571,27.561404 V 44.263158"
     id="path25" />
  <path
     style="fill:#f2f2f2;stroke:#f2f2f2;stroke-width:5.8938;stroke-linecap:round;stroke-linejoin:round;fill-opacity:1;stroke-opacity:1"
     d="M 25.107143,27.561404 15.263111,35.40946"
     id="path26" />
  <path
     style="fill:#f2f2f2;stroke:#f2f2f2;stroke-width:5.8938;stroke-linecap:round;stroke-linejoin:round;fill-opacity:1;stroke-opacity:1"
     d="M 25.107143,44.263158 15.263111,36.643674"
     id="path27" />
  <path
     style="opacity:0.1;fill:#ffffff;stroke-width:0.9823"
     d="M 17.25,3 C 9.6324999,3 3.4999999,9.1344561 3.4999999,16.754386 v 0.982456 c 0,-7.61993 6.1325,-13.7543858 13.7500001,-13.7543858 h 27.5 c 7.6175,0 13.75,6.1344558 13.75,13.7543858 V 16.754386 C 58.5,9.1344561 52.3675,3 44.75,3 Z"
     id="path28" />
  <ellipse
     style="fill:#ffc133;stroke-width:0.9823;fill-opacity:1"
     cx="14.303572"
     cy="19.701754"
     id="circle28"
     rx="2.9464285"
     ry="2.9473684" />
  <path
     style="opacity:0.2;fill:#ffffff;stroke-width:0.9823"
     d="m 14.303571,16.754386 a 2.9464286,2.9473684 0 0 0 -2.946428,2.947368 2.9464286,2.9473684 0 0 0 0.04603,0.491228 2.9464286,2.9473684 0 0 1 2.900395,-2.45614 2.9464286,2.9473684 0 0 1 2.902309,2.448466 2.9464286,2.9473684 0 0 0 0.04412,-0.483554 2.9464286,2.9473684 0 0 0 -2.946429,-2.947368 z"
     id="path29" />
</svg>
