<?xml version="1.0" encoding="UTF-8" standalone="no"?>
<svg
   width="62"
   height="62"
   version="1.1"
   id="svg29"
   sodipodi:docname="io.missioncenter.MissionCenter.svg"
   inkscape:version="1.4 (unknown)"
   xmlns:inkscape="http://www.inkscape.org/namespaces/inkscape"
   xmlns:sodipodi="http://sodipodi.sourceforge.net/DTD/sodipodi-0.dtd"
   xmlns:xlink="http://www.w3.org/1999/xlink"
   xmlns="http://www.w3.org/2000/svg"
   xmlns:svg="http://www.w3.org/2000/svg">
  <defs
     id="defs29">
    <linearGradient
       id="linearGradient29"
       inkscape:collect="always">
      <stop
         style="stop-color:#2d3d53;stop-opacity:1;"
         offset="0"
         id="stop29" />
      <stop
         style="stop-color:#354864;stop-opacity:1;"
         offset="1"
         id="stop30" />
    </linearGradient>
    <linearGradient
       inkscape:collect="always"
       xlink:href="#linearGradient29"
       id="linearGradient30"
       x1="30.782633"
       y1="60"
       x2="30.193521"
       y2="5"
       gradientUnits="userSpaceOnUse"
       gradientTransform="matrix(0.98214286,0,0,0.98245614,-0.42857152,-0.92982455)" />
  </defs>
  <sodipodi:namedview
     id="namedview29"
     pagecolor="#ffffff"
     bordercolor="#000000"
     borderopacity="0.25"
     inkscape:showpageshadow="2"
     inkscape:pageopacity="0.0"
     inkscape:pagecheckerboard="0"
     inkscape:deskcolor="#d1d1d1"
     inkscape:zoom="7.0710678"
     inkscape:cx="25.102291"
     inkscape:cy="36.698842"
     inkscape:window-width="1920"
     inkscape:window-height="996"
     inkscape:window-x="0"
     inkscape:window-y="0"
     inkscape:window-maximized="1"
     inkscape:current-layer="svg29" />
  <rect
     style="opacity:0.2;stroke-width:0.9823"
     width="55"
     height="55.017544"
     x="3.5"
     y="3.9824562"
     ry="13.754386"
     id="rect1" />
  <rect
     style="fill:url(#linearGradient30);stroke-width:0.9823"
     width="55"
     height="55.017544"
     x="3.5"
     y="3"
     ry="13.754386"
     id="rect2" />
  <path
     style="opacity:0.1;fill:#ffffff;stroke-width:0.9823"
     d="M 17.25,3 C 9.6324999,3 3.4999999,9.1344561 3.4999999,16.754386 v 0.982456 c 0,-7.61993 6.1325,-13.7543858 13.7500001,-13.7543858 h 27.5 c 7.6175,0 13.75,6.1344558 13.75,13.7543858 V 16.754386 C 58.5,9.1344561 52.3675,3 44.75,3 Z"
     id="path28" />
  <g
     id="g1"
     transform="translate(-0.262742,1.8e-4)">
    <path
       d="m 53.262742,12.699745 v 36.600149 c 0,0.66236 -0.535128,1.199926 -1.194482,1.199926 H 27.280334 c -0.659355,0 -1.194483,-0.537566 -1.194483,-1.199926 V 12.699745 c 0,-0.662359 0.535128,-1.199925 1.194483,-1.199925 H 52.06826 c 0.659354,0 1.194482,0.537566 1.194482,1.199925 z"
       fill="#5f5f5f"
       id="path3"
       style="stroke-width:1.19718;fill:#486184;fill-opacity:1" />
    <path
       d="m 26.085851,32.299339 v -2.599038 h 6.452604 l 3.52492,-7.081966 c 0.247255,-0.496767 0.781187,-0.781149 1.329459,-0.706756 0.548265,0.07323 0.989033,0.489568 1.096536,1.033138 l 2.291021,11.52649 1.72364,-3.988556 c 0.20545,-0.47517 0.671297,-0.78235 1.187316,-0.78235 h 9.571395 v 2.599038 h -8.722117 l -3.031598,7.018368 c -0.225761,0.520766 -0.762084,0.835152 -1.324688,0.77515 -0.5626,-0.06122 -1.021279,-0.481167 -1.13237,-1.037934 l -2.36149,-11.88287 -2.194269,4.409729 c -0.219783,0.440374 -0.667717,0.717557 -1.157455,0.717557 z"
       fill="#2196f3"
       id="path4"
       style="stroke-width:1.19718;fill:#57b0f6;fill-opacity:1" />
    <g
       fill="#5f5f5f"
       id="g7"
       transform="matrix(1.194484,0,0,1.1999264,2.595134,2.2015928)">
      <path
         d="m 17.5,8.749 v 5.584 c 0,0.552 -0.448,1 -1,1 H 6.582 c -0.552,0 -1,-0.448 -1,-1 V 8.749 c 0,-0.552 0.448,-1 1,-1 H 16.5 c 0.552,0 1,0.448 1,1 z"
         id="path5"
         style="fill:#486184;fill-opacity:1" />
      <path
         d="m 17.5,20.666 v 5.584 c 0,0.552 -0.448,1 -1,1 H 6.582 c -0.552,0 -1,-0.448 -1,-1 v -5.584 c 0,-0.552 0.448,-1 1,-1 H 16.5 c 0.552,0 1,0.448 1,1 z"
         id="path6"
         style="fill:#57b0f6;fill-opacity:1" />
      <path
         d="m 17.5,32.584 v 5.584 c 0,0.552 -0.448,1 -1,1 H 6.582 c -0.552,0 -1,-0.448 -1,-1 v -5.584 c 0,-0.552 0.448,-1 1,-1 H 16.5 c 0.552,0 1,0.448 1,1 z"
         id="path7"
         style="fill:#57b0f6;fill-opacity:1" />
    </g>
    <path
       d="m 9.262742,21.899583 h 14.235859 v -2.60024 l -2.588445,-2.599045 -1.294821,1.29952 -1.293632,-2.600239 -1.293625,2.600239 -0.647406,-1.29952 -0.647414,1.29952 h -2.588445 l -1.293625,1.299525 -1.293626,-1.299525 -1.29482,1.299525 z"
       fill="#2196f3"
       fill-rule="nonzero"
       id="path8"
       style="stroke-width:1.19718;fill:#57b0f6;fill-opacity:1" />
    <path
       d="m 9.262742,36.200298 h 14.235859 v -2.600239 l -2.588445,-2.600239 -1.294821,1.299519 -1.293632,-2.599038 -1.293625,2.599038 -0.647406,-1.299519 -0.647414,1.299519 h -2.588445 l -1.293625,1.30072 -1.293626,-1.30072 -1.29482,1.30072 z"
       fill="#66bb6a"
       fill-rule="nonzero"
       id="path9"
       style="stroke-width:1.19718;fill:#00ff66" />
    <path
       d="m 9.262742,50.49982 h 14.235859 v -2.60024 l -2.588445,-2.600239 -1.294821,1.30072 -1.293632,-2.60024 -1.293625,2.60024 -0.647406,-1.30072 -0.647414,1.30072 h -2.588445 l -1.293625,1.299519 -1.293626,-1.299519 -1.29482,1.299519 z"
       fill="#ba68c8"
       fill-rule="nonzero"
       id="path10"
       style="stroke-width:1.19718;fill:#8d5fd3" />
  </g>
</svg>
