<?xml version="1.0" encoding="UTF-8" standalone="no"?>
<svg
   width="62"
   height="62"
   version="1.1"
   id="svg29"
   sodipodi:docname="io.sam.Boards.svg"
   inkscape:version="1.4 (unknown)"
   xmlns:inkscape="http://www.inkscape.org/namespaces/inkscape"
   xmlns:sodipodi="http://sodipodi.sourceforge.net/DTD/sodipodi-0.dtd"
   xmlns:xlink="http://www.w3.org/1999/xlink"
   xmlns="http://www.w3.org/2000/svg"
   xmlns:svg="http://www.w3.org/2000/svg">
  <defs
     id="defs29">
    <linearGradient
       id="linearGradient29"
       inkscape:collect="always">
      <stop
         style="stop-color:#483e37;stop-opacity:1"
         offset="0"
         id="stop29" />
      <stop
         style="stop-color:#917c6f;stop-opacity:1"
         offset="1"
         id="stop30" />
    </linearGradient>
    <linearGradient
       inkscape:collect="always"
       xlink:href="#linearGradient29"
       id="linearGradient30"
       x1="30.782633"
       y1="60"
       x2="30.193521"
       y2="5"
       gradientUnits="userSpaceOnUse"
       gradientTransform="matrix(0.98214286,0,0,0.98245614,-0.42857152,-0.92982455)" />
  </defs>
  <sodipodi:namedview
     id="namedview29"
     pagecolor="#ffffff"
     bordercolor="#000000"
     borderopacity="0.25"
     inkscape:showpageshadow="2"
     inkscape:pageopacity="0.0"
     inkscape:pagecheckerboard="0"
     inkscape:deskcolor="#d1d1d1"
     inkscape:zoom="8"
     inkscape:cx="23.5625"
     inkscape:cy="38.6875"
     inkscape:window-width="1920"
     inkscape:window-height="996"
     inkscape:window-x="0"
     inkscape:window-y="0"
     inkscape:window-maximized="1"
     inkscape:current-layer="svg29" />
  <rect
     style="opacity:0.2;stroke-width:0.9823"
     width="55"
     height="55.017544"
     x="3.5"
     y="3.9824562"
     ry="13.754386"
     id="rect1" />
  <rect
     style="fill:url(#linearGradient30);stroke-width:0.9823"
     width="55"
     height="55.017544"
     x="3.5"
     y="3"
     ry="13.754386"
     id="rect2" />
  <path
     style="opacity:0.1;fill:#ffffff;stroke-width:0.9823"
     d="M 17.25,3 C 9.6324999,3 3.4999999,9.1344561 3.4999999,16.754386 v 0.982456 c 0,-7.61993 6.1325,-13.7543858 13.7500001,-13.7543858 h 27.5 c 7.6175,0 13.75,6.1344558 13.75,13.7543858 V 16.754386 C 58.5,9.1344561 52.3675,3 44.75,3 Z"
     id="path28" />
  <path
     style="fill:#c8beb7;fill-opacity:1"
     d="m 31.000001,4.3025274 a 6,6 0 0 0 -6,5.9999996 6,6 0 0 0 6,6 6,6 0 0 0 6,-6 6,6 0 0 0 -6,-5.9999996 z m 0,3 a 3,3 0 0 1 3,2.9999996 3,3 0 0 1 -3,3 3,3 0 0 1 -3,-3 3,3 0 0 1 3,-2.9999996 z"
     id="path7" />
  <path
     style="fill:#c8beb7;fill-opacity:1"
     d="m 21.833985,10.302527 c -1.015667,0 -1.833984,0.890047 -1.833984,1.998047 v 3.003906 1.998047 h 22 V 15.30448 12.300574 c 0,-1.108 -0.818317,-1.998047 -1.833984,-1.998047 h -6.166016 a 3,3 0 0 1 -3,3 3,3 0 0 1 -3,-3 z"
     id="path8" />
  <path
     style="opacity:0.1;fill:#ffffff"
     d="m 31.000001,4.3025274 a 6,6 0 0 0 -6,5.9999996 h -3.166016 c -1.015667,0 -1.833984,0.890046 -1.833984,1.998047 v 1 c 0,-1.108001 0.818317,-1.998047 1.833984,-1.998047 h 3.166016 a 6,6 0 0 1 6,-5.9999996 6,6 0 0 1 6,5.9999996 h 3.166016 c 1.015667,0 1.833984,0.890046 1.833984,1.998047 v -1 c 0,-1.108001 -0.818317,-1.998047 -1.833984,-1.998047 h -3.166016 a 6,6 0 0 0 -6,-5.9999996 z m 2.957031,6.4863276 A 3,3 0 0 1 31.000001,13.302527 3,3 0 0 1 28.04297,10.816199 3,3 0 0 0 28,11.302527 a 3,3 0 0 0 3,3 3,3 0 0 0 3,-3 3,3 0 0 0 -0.04297,-0.513672 z"
     id="path9" />
  <g
     id="g1"
     transform="translate(2,-0.125)">
    <rect
       style="opacity:0.2;stroke-width:0.917789"
       width="33.081066"
       height="44"
       x="-51.302528"
       y="-51"
       rx="1.8378369"
       ry="1.8333333"
       transform="matrix(0,-1,-1,0,0,0)"
       id="rect3" />
    <rect
       style="fill:#f2f2f2;fill-opacity:1;stroke-width:0.917789"
       width="33.081066"
       height="44"
       x="-50.383595"
       y="-51"
       rx="1.8378369"
       ry="1.8333333"
       transform="matrix(0,-1,-1,0,0,0)"
       id="rect4" />
    <path
       style="opacity:0.1;stroke-width:0.917789"
       d="m 10.666666,20.9782 c -0.507835,0 -0.9166649,0.409842 -0.9166649,0.918916 v 25.729723 c 0,0.509084 0.4088299,0.918918 0.9166649,0.918918 h 9.166668 c 0.507835,0 0.916664,-0.409834 0.916664,-0.918918 V 21.897116 c 0,-0.509074 -0.408829,-0.918916 -0.916664,-0.918916 z m 13.750005,0 c -0.507833,0 -0.916672,0.409842 -0.916672,0.918916 v 11.945942 c 0,0.509082 0.408839,0.918923 0.916672,0.918923 h 9.166667 c 0.507829,0 0.916664,-0.409841 0.916664,-0.918923 V 21.897116 c 0,-0.509074 -0.408835,-0.918916 -0.916664,-0.918916 z m 13.749998,0 c -0.507834,0 -0.916666,0.409842 -0.916666,0.918916 v 18.378371 c 0,0.509083 0.408832,0.918923 0.916666,0.918923 h 9.166666 c 0.507835,0 0.916667,-0.40984 0.916667,-0.918923 V 21.897116 c 0,-0.509074 -0.408832,-0.918916 -0.916667,-0.918916 z"
       id="path5" />
    <rect
       style="fill:#8d5fd3;stroke-width:0.917789"
       width="10.999999"
       height="27.567553"
       x="9.750001"
       y="20.05928"
       rx="0.91666663"
       ry="0.91891843"
       id="rect5" />
    <rect
       style="fill:#c83771;stroke-width:0.917789"
       width="10.999999"
       height="13.783775"
       x="23.5"
       y="20.05928"
       rx="0.91666663"
       ry="0.91891843"
       id="rect6" />
    <rect
       style="fill:#5fd38d;stroke-width:0.917789"
       width="10.999999"
       height="20.216206"
       x="37.250011"
       y="20.05928"
       rx="0.91666663"
       ry="0.91891843"
       id="rect7" />
  </g>
</svg>
