<?xml version="1.0" encoding="UTF-8" standalone="no"?>
<svg
   width="62"
   height="62"
   viewBox="0 0 16.404166 16.404167"
   version="1.1"
   id="svg1443"
   inkscape:version="1.4 (unknown)"
   sodipodi:docname="iridium-browser.svg"
   xmlns:inkscape="http://www.inkscape.org/namespaces/inkscape"
   xmlns:sodipodi="http://sodipodi.sourceforge.net/DTD/sodipodi-0.dtd"
   xmlns:xlink="http://www.w3.org/1999/xlink"
   xmlns="http://www.w3.org/2000/svg"
   xmlns:svg="http://www.w3.org/2000/svg"
   xmlns:rdf="http://www.w3.org/1999/02/22-rdf-syntax-ns#"
   xmlns:cc="http://creativecommons.org/ns#"
   xmlns:dc="http://purl.org/dc/elements/1.1/">
  <defs
     id="defs1437">
    <linearGradient
       gradientTransform="matrix(0.4711726,0,0,0.47114666,-53.953909,-18.000765)"
       gradientUnits="userSpaceOnUse"
       y2="70.679932"
       x2="132.21078"
       y1="42.151531"
       x1="132.21078"
       id="linearGradient1632"
       xlink:href="#linearGradient1630"
       inkscape:collect="always" />
    <linearGradient
       id="linearGradient1630"
       inkscape:collect="always">
      <stop
         id="stop1626"
         offset="0"
         style="stop-color:#fafafc;stop-opacity:1" />
      <stop
         id="stop1628"
         offset="1"
         style="stop-color:#e2e6ea;stop-opacity:1" />
    </linearGradient>
    <filter
       color-interpolation-filters="sRGB"
       height="1.1311001"
       width="1.1106"
       y="-0.065563001"
       x="-0.055319"
       id="c-9">
      <feGaussianBlur
         id="feGaussianBlur1093"
         stdDeviation="1.1062912" />
    </filter>
    <linearGradient
       gradientUnits="userSpaceOnUse"
       gradientTransform="matrix(0.13235,0,0,0.13075,-32.379,1.0873)"
       y2="269.48999"
       y1="235.14999"
       x2="657.65002"
       x1="319.20999"
       id="a-12">
      <stop
         id="stop1076"
         offset="0"
         stop-color="#e54c18" />
      <stop
         id="stop1078"
         offset="1"
         stop-color="#fec350" />
    </linearGradient>
    <linearGradient
       xlink:href="#a-7"
       id="c-36"
       x1="8.6850004"
       x2="8.7620001"
       y1="16.868999"
       y2="4.5339999"
       gradientTransform="matrix(1.0634748,0,0,1.0634748,-0.80999368,1.8113865)"
       gradientUnits="userSpaceOnUse" />
    <linearGradient
       id="a-7">
      <stop
         offset="0"
         style="stop-color:#2369ff;stop-opacity:1;"
         id="stop8" />
      <stop
         offset="1"
         style="stop-color:#7fa8ff;stop-opacity:1"
         id="stop10" />
    </linearGradient>
  </defs>
  <sodipodi:namedview
     id="base"
     pagecolor="#ffffff"
     bordercolor="#666666"
     borderopacity="1.0"
     inkscape:pageopacity="0.0"
     inkscape:pageshadow="2"
     inkscape:zoom="7.9195959"
     inkscape:cx="21.528876"
     inkscape:cy="44.131039"
     inkscape:document-units="px"
     inkscape:current-layer="layer1"
     inkscape:document-rotation="0"
     showgrid="false"
     units="px"
     inkscape:window-width="1920"
     inkscape:window-height="996"
     inkscape:window-x="0"
     inkscape:window-y="0"
     inkscape:window-maximized="1"
     inkscape:showpageshadow="2"
     inkscape:pagecheckerboard="0"
     inkscape:deskcolor="#d1d1d1">
    <inkscape:grid
       id="grid1"
       units="px"
       originx="0"
       originy="0"
       spacingx="0.26458332"
       spacingy="0.26458334"
       empcolor="#0099e5"
       empopacity="0.30196078"
       color="#0099e5"
       opacity="0.14901961"
       empspacing="5"
       enabled="true"
       visible="false" />
  </sodipodi:namedview>
  <metadata
     id="metadata1440">
    <rdf:RDF>
      <cc:Work
         rdf:about="">
        <dc:format>image/svg+xml</dc:format>
        <dc:type
           rdf:resource="http://purl.org/dc/dcmitype/StillImage" />
      </cc:Work>
    </rdf:RDF>
  </metadata>
  <g
     inkscape:label="Capa 1"
     inkscape:groupmode="layer"
     id="layer1">
    <g
       style="opacity:0.295"
       transform="matrix(0.47117252,0,0,0.47114656,-31.72741,-18.000762)"
       id="g1702">
      <rect
         ry="6.6098609"
         rx="6.6098609"
         y="40.709618"
         x="69.839508"
         height="29.810888"
         width="29.810888"
         id="rect1634"
         style="fill:none;fill-opacity:1;stroke:#000000;stroke-width:0.1;stroke-linecap:round;stroke-linejoin:round;stroke-miterlimit:4;stroke-dasharray:none;stroke-opacity:0.02" />
      <rect
         style="fill:none;fill-opacity:1;stroke:#000000;stroke-width:0.2;stroke-linecap:round;stroke-linejoin:round;stroke-miterlimit:4;stroke-dasharray:none;stroke-opacity:0.02"
         id="rect1638"
         width="29.810888"
         height="29.810888"
         x="69.839508"
         y="40.709618"
         rx="6.6098609"
         ry="6.6098609" />
      <rect
         ry="6.6098609"
         rx="6.6098609"
         y="40.709618"
         x="69.839508"
         height="29.810888"
         width="29.810888"
         id="rect1640"
         style="fill:none;fill-opacity:1;stroke:#000000;stroke-width:0.3;stroke-linecap:round;stroke-linejoin:round;stroke-miterlimit:4;stroke-dasharray:none;stroke-opacity:0.02" />
      <rect
         style="fill:none;fill-opacity:1;stroke:#000000;stroke-width:0.4;stroke-linecap:round;stroke-linejoin:round;stroke-miterlimit:4;stroke-dasharray:none;stroke-opacity:0.02"
         id="rect1642"
         width="29.810888"
         height="29.810888"
         x="69.839508"
         y="40.709618"
         rx="6.6098609"
         ry="6.6098609" />
      <rect
         ry="6.6098609"
         rx="6.6098609"
         y="40.709618"
         x="69.839508"
         height="29.810888"
         width="29.810888"
         id="rect1644"
         style="fill:none;fill-opacity:1;stroke:#000000;stroke-width:0.5;stroke-linecap:round;stroke-linejoin:round;stroke-miterlimit:4;stroke-dasharray:none;stroke-opacity:0.02" />
      <rect
         style="fill:none;fill-opacity:1;stroke:#000000;stroke-width:0.6;stroke-linecap:round;stroke-linejoin:round;stroke-miterlimit:4;stroke-dasharray:none;stroke-opacity:0.02"
         id="rect1646"
         width="29.810888"
         height="29.810888"
         x="69.839508"
         y="40.709618"
         rx="6.6098609"
         ry="6.6098609" />
      <rect
         ry="6.6098609"
         rx="6.6098609"
         y="40.709618"
         x="69.839508"
         height="29.810888"
         width="29.810888"
         id="rect1648"
         style="fill:none;fill-opacity:1;stroke:#000000;stroke-width:0.7;stroke-linecap:round;stroke-linejoin:round;stroke-miterlimit:4;stroke-dasharray:none;stroke-opacity:0.02" />
      <rect
         style="fill:none;fill-opacity:1;stroke:#000000;stroke-width:0.8;stroke-linecap:round;stroke-linejoin:round;stroke-miterlimit:4;stroke-dasharray:none;stroke-opacity:0.02"
         id="rect1650"
         width="29.810888"
         height="29.810888"
         x="69.839508"
         y="40.709618"
         rx="6.6098609"
         ry="6.6098609" />
      <rect
         ry="6.6098609"
         rx="6.6098609"
         y="40.709618"
         x="69.839508"
         height="29.810888"
         width="29.810888"
         id="rect1652"
         style="fill:none;fill-opacity:1;stroke:#000000;stroke-width:1;stroke-linecap:round;stroke-linejoin:round;stroke-miterlimit:4;stroke-dasharray:none;stroke-opacity:0.02" />
      <rect
         style="fill:none;fill-opacity:1;stroke:#000000;stroke-width:1.2;stroke-linecap:round;stroke-linejoin:round;stroke-miterlimit:4;stroke-dasharray:none;stroke-opacity:0.02"
         id="rect1654"
         width="29.810888"
         height="29.810888"
         x="69.839508"
         y="40.709618"
         rx="6.6098609"
         ry="6.6098609" />
      <rect
         ry="6.6098609"
         rx="6.6098609"
         y="40.709618"
         x="69.839508"
         height="29.810888"
         width="29.810888"
         id="rect1656"
         style="fill:none;fill-opacity:1;stroke:#000000;stroke-width:1.4;stroke-linecap:round;stroke-linejoin:round;stroke-miterlimit:4;stroke-dasharray:none;stroke-opacity:0.02" />
      <rect
         style="fill:none;fill-opacity:1;stroke:#000000;stroke-width:1.6;stroke-linecap:round;stroke-linejoin:round;stroke-miterlimit:4;stroke-dasharray:none;stroke-opacity:0.02"
         id="rect1658"
         width="29.810888"
         height="29.810888"
         x="69.839508"
         y="40.709618"
         rx="6.6098609"
         ry="6.6098609" />
      <rect
         ry="6.6098609"
         rx="6.6098609"
         y="40.709618"
         x="69.839508"
         height="29.810888"
         width="29.810888"
         id="rect1660"
         style="fill:none;fill-opacity:1;stroke:#000000;stroke-width:1.8;stroke-linecap:round;stroke-linejoin:round;stroke-miterlimit:4;stroke-dasharray:none;stroke-opacity:0.02" />
      <rect
         style="fill:none;fill-opacity:1;stroke:#000000;stroke-width:2;stroke-linecap:round;stroke-linejoin:round;stroke-miterlimit:4;stroke-dasharray:none;stroke-opacity:0.02"
         id="rect1662"
         width="29.810888"
         height="29.810888"
         x="69.839508"
         y="40.709618"
         rx="6.6098609"
         ry="6.6098609" />
      <rect
         ry="6.6098609"
         rx="6.6098609"
         y="40.709618"
         x="69.839508"
         height="29.810888"
         width="29.810888"
         id="rect1664"
         style="fill:none;fill-opacity:1;stroke:#000000;stroke-width:2.2;stroke-linecap:round;stroke-linejoin:round;stroke-miterlimit:4;stroke-dasharray:none;stroke-opacity:0.02" />
      <rect
         style="fill:none;fill-opacity:1;stroke:#000000;stroke-width:2.6;stroke-linecap:round;stroke-linejoin:round;stroke-miterlimit:4;stroke-dasharray:none;stroke-opacity:0.02"
         id="rect1666"
         width="29.810888"
         height="29.810888"
         x="69.839508"
         y="40.709618"
         rx="6.6098609"
         ry="6.6098609" />
      <rect
         ry="6.6098609"
         rx="6.6098609"
         y="40.709618"
         x="69.839508"
         height="29.810888"
         width="29.810888"
         id="rect1668"
         style="fill:none;fill-opacity:1;stroke:#000000;stroke-width:3;stroke-linecap:round;stroke-linejoin:round;stroke-miterlimit:4;stroke-dasharray:none;stroke-opacity:0.02" />
      <rect
         style="fill:none;fill-opacity:1;stroke:#000000;stroke-width:3.4;stroke-linecap:round;stroke-linejoin:round;stroke-miterlimit:4;stroke-dasharray:none;stroke-opacity:0.02"
         id="rect1670"
         width="29.810888"
         height="29.810888"
         x="69.839508"
         y="40.709618"
         rx="6.6098609"
         ry="6.6098609" />
      <rect
         ry="6.6098609"
         rx="6.6098609"
         y="40.709618"
         x="69.839508"
         height="29.810888"
         width="29.810888"
         id="rect1672"
         style="fill:none;fill-opacity:1;stroke:#000000;stroke-width:3.8;stroke-linecap:round;stroke-linejoin:round;stroke-miterlimit:4;stroke-dasharray:none;stroke-opacity:0.02" />
      <rect
         style="fill:none;fill-opacity:1;stroke:#000000;stroke-width:4.2;stroke-linecap:round;stroke-linejoin:round;stroke-miterlimit:4;stroke-dasharray:none;stroke-opacity:0.02"
         id="rect1674"
         width="29.810888"
         height="29.810888"
         x="69.839508"
         y="40.709618"
         rx="6.6098609"
         ry="6.6098609" />
      <rect
         ry="6.6098609"
         rx="6.6098609"
         y="40.709618"
         x="69.839508"
         height="29.810888"
         width="29.810888"
         id="rect1676"
         style="fill:none;fill-opacity:1;stroke:#000000;stroke-width:4.6;stroke-linecap:round;stroke-linejoin:round;stroke-miterlimit:4;stroke-dasharray:none;stroke-opacity:0.02" />
      <rect
         style="fill:none;fill-opacity:1;stroke:#000000;stroke-width:5;stroke-linecap:round;stroke-linejoin:round;stroke-miterlimit:4;stroke-dasharray:none;stroke-opacity:0.02"
         id="rect1678"
         width="29.810888"
         height="29.810888"
         x="69.839508"
         y="40.709618"
         rx="6.6098609"
         ry="6.6098609" />
    </g>
    <rect
       ry="3.1142132"
       rx="3.1143851"
       y="1.1794344"
       x="1.1790471"
       height="14.045296"
       width="14.04607"
       id="rect849"
       style="fill:url(#linearGradient1632);fill-opacity:1;stroke-width:1.29783;stroke-linecap:round;stroke-linejoin:round" />
    <g
       fill-rule="nonzero"
       id="g5"
       transform="matrix(0.2856034,0,0,0.28576247,1.347538,1.450993)">
      <path
         d="m 20.976,16.218 c 0.553,0.002 1.105,0.019 1.657,0.052 1.276,0.076 2.546,0.235 3.801,0.477 0.008,0.041 0.016,0.087 0.028,0.13 0.008,0.047 0.017,0.09 0.025,0.137 0.02,0.102 0.037,0.21 0.06,0.318 0.133,0.769 0.229,1.543 0.289,2.321 0.007,0.112 0.018,0.231 0.023,0.345 l 10e-4,-0.001 c 0.047,0.711 0.059,1.423 0.034,2.134 0,0.12 -0.005,0.235 -0.008,0.355 -0.036,0.797 -0.114,1.625 -0.247,2.487 -0.016,0.115 -0.033,0.228 -0.053,0.345 -0.01,0.045 -0.018,0.097 -0.027,0.146 -0.152,0.884 -0.356,1.757 -0.611,2.617 l 0.001,0.003 c -0.009,0.019 -0.014,0.038 -0.018,0.058 -0.034,0.107 -0.068,0.21 -0.1,0.311 -0.31,0.987 -0.687,1.95 -1.129,2.885 -0.637,1.349 -1.403,2.634 -2.288,3.837 -0.1,0.135 -0.203,0.267 -0.3,0.397 -0.017,0.02 -0.033,0.04 -0.049,0.061 l -0.032,0.041 c -0.016,0.02 -0.032,0.041 -0.049,0.061 -0.054,0.071 -0.111,0.139 -0.166,0.21 -0.663,0.821 -1.382,1.595 -2.152,2.317 -0.042,0.041 -0.089,0.084 -0.131,0.125 -0.018,0.018 -0.039,0.034 -0.058,0.052 -3.367,-1.479 -6.315,-3.771 -8.579,-6.67 -0.263,-0.336 -0.517,-0.68 -0.76,-1.031 C 9.424,29.716 8.798,28.635 8.266,27.507 L 8.259,27.498 C 7.841,26.614 7.479,25.705 7.176,24.776 6.687,23.273 6.349,21.725 6.167,20.155 c 1.114,-0.64 2.268,-1.208 3.455,-1.7 0.66,-0.269 1.32,-0.516 2.001,-0.741 0.115,-0.038 0.235,-0.076 0.354,-0.111 0.208,-0.07 0.415,-0.131 0.624,-0.19 0.969,-0.287 1.952,-0.521 2.946,-0.703 0.055,-0.014 0.112,-0.021 0.169,-0.033 0.151,-0.026 0.305,-0.054 0.455,-0.075 1.445,-0.237 2.894,-0.363 4.341,-0.381 0.132,-0.002 0.265,-0.003 0.398,-0.003 z m 13.876,2.435 c -1.731,0.881 -4.339,2.049 -6.508,2.686 0.033,0.625 0.055,1.265 0.029,1.956 -0.001,0.116 -0.004,0.233 -0.008,0.35 v 0.02 c -0.009,0.201 -0.029,0.409 -0.044,0.613 2.854,-0.629 6.166,-1.738 8.261,-2.52 -0.993,-0.788 -1.586,-1.915 -1.73,-3.105 z m 6.376,1.426 c -0.75,1.121 -2.131,1.574 -3.355,1.188 -0.267,-0.081 -0.521,-0.202 -0.752,-0.359 -0.948,-0.626 -1.453,-1.741 -1.299,-2.867 0.058,-0.444 0.217,-0.868 0.465,-1.241 0.905,-1.361 2.747,-1.734 4.11,-0.829 1.361,0.904 1.733,2.743 0.831,4.108 z"
         id="path3"
         style="fill:#2a7fff;fill-opacity:1" />
      <path
         d="m 41.816,21.794 c 0.007,0.414 0.027,0.848 0.012,1.261 -0.037,0.438 -0.043,0.84 -0.104,1.265 -0.057,0.415 -0.112,0.857 -0.206,1.259 l -0.13,0.616 -0.174,0.613 c -0.063,0.205 -0.118,0.411 -0.182,0.611 l -0.22,0.599 c -0.141,0.38 -0.313,0.813 -0.503,1.177 -0.183,0.375 -0.364,0.753 -0.593,1.123 -0.108,0.185 -0.211,0.373 -0.324,0.555 l -0.359,0.533 c -0.225,0.359 -0.509,0.685 -0.764,1.024 -0.066,0.082 -0.137,0.169 -0.203,0.252 l -0.115,0.127 -0.107,0.122 -0.435,0.46 c -0.274,0.315 -0.599,0.601 -0.923,0.891 -0.309,0.305 -0.656,0.562 -1.001,0.824 -0.331,0.278 -0.695,0.51 -1.059,0.741 -0.184,0.113 -0.36,0.243 -0.546,0.347 l -0.576,0.307 c -0.194,0.103 -0.379,0.206 -0.573,0.304 l -0.596,0.26 -0.599,0.264 -0.614,0.211 -0.616,0.208 c -0.21,0.067 -0.425,0.111 -0.633,0.165 l -0.634,0.156 -0.159,0.038 c -0.091,0.022 -0.114,0.019 -0.177,0.032 l -0.315,0.043 -1.268,0.186 -1.325,0.057 c -0.44,0.039 -0.87,-0.014 -1.307,-0.034 -0.441,-0.028 -0.875,-0.041 -1.3,-0.133 -0.409,-0.07 -0.825,-0.125 -1.232,-0.214 0.335,-0.366 0.673,-0.746 1.012,-1.164 l 0.012,-0.014 0.009,-0.015 0.124,-0.159 c 0.004,-0.006 0.001,-0.003 0.006,-0.009 l 0.043,-0.058 c 0.034,-0.042 0.086,-0.104 0.084,-0.101 l 0.029,-0.034 0.029,-0.038 c 0.081,-0.11 0.184,-0.241 0.298,-0.394 l 0.006,-0.006 c 0.47,-0.638 0.925,-1.341 1.366,-2.086 4.137,0.122 8.543,-0.484 11.064,-3.521 0.686,-0.823 2.558,-3.406 2.39,-4.476 -4.281,3.601 -8.911,3.745 -11.435,3.648 0.084,-0.239 0.174,-0.472 0.252,-0.72 0.196,-0.723 0.42,-1.277 0.509,-2.054 2.312,-0.52 4.824,-1.109 6.707,-1.901 0.238,-0.094 0.49,-0.183 0.721,-0.29 l 0.709,-0.327 2.847,-1.316 1.42,-0.657 c 0.231,-0.103 0.455,-0.22 0.683,-0.341 0.233,-0.127 0.468,-0.251 0.703,-0.374 l 0.272,-0.141 z m -4.901,-8.49 0.732,1.368 c -0.075,0.052 -0.152,0.102 -0.231,0.154 -0.225,0.143 -0.45,0.301 -0.683,0.445 -0.236,0.141 -0.476,0.289 -0.718,0.437 -0.16,0.095 -0.319,0.192 -0.486,0.287 -0.338,0.193 -0.685,0.384 -1.039,0.584 -0.264,0.146 -0.534,0.271 -0.807,0.42 -0.274,0.129 -0.55,0.286 -0.833,0.414 -1.125,0.547 -2.324,1.044 -3.568,1.507 -0.352,0.127 -0.713,0.241 -1.073,0.359 -0.062,-0.552 -0.121,-1.716 -0.203,-2.199 L 28.003,17.051 27.998,17.02 c -0.012,-0.052 -0.028,-0.144 -0.05,-0.258 -0.014,-0.084 -0.022,-0.125 -0.023,-0.136 l -0.014,-0.072 -0.014,-0.045 c -0.003,-0.013 -0.009,-0.04 -0.018,-0.083 l -0.015,-0.069 c 0.255,-0.049 0.512,-0.095 0.764,-0.15 1.219,-0.285 2.41,-0.603 3.55,-0.978 0.287,-0.089 0.566,-0.197 0.845,-0.287 0.274,-0.102 0.555,-0.194 0.825,-0.301 0.201,-0.084 0.407,-0.165 0.605,-0.243 0.324,-0.125 0.646,-0.258 0.963,-0.399 0.252,-0.113 0.498,-0.223 0.747,-0.33 0.242,-0.115 0.475,-0.231 0.717,-0.347 z m -21.611,-3 c -0.327,-0.003 -0.655,0.022 -0.978,0.075 -3.046,0.496 -5.198,3.351 -5.477,6.8 0.069,-0.03 0.136,-0.064 0.205,-0.093 h 0.009 c 0.649,-0.265 1.306,-0.509 1.971,-0.732 0.458,-2.063 1.798,-3.665 3.622,-3.964 0.451,-0.074 0.903,-0.06 1.337,0.023 0.175,0.033 0.344,0.078 0.512,0.134 0.717,0.235 1.385,0.661 1.962,1.246 0.109,0.11 0.212,0.222 0.309,0.345 0.172,0.201 0.328,0.427 0.472,0.662 0.416,-0.022 0.832,-0.058 1.247,-0.063 0.344,-0.005 0.693,0.018 1.039,0.026 -0.255,-0.554 -0.54,-1.084 -0.892,-1.548 -0.109,-0.146 -0.223,-0.289 -0.341,-0.428 -0.503,-0.583 -1.075,-1.082 -1.693,-1.47 -0.165,-0.107 -0.335,-0.207 -0.509,-0.298 -0.871,-0.452 -1.822,-0.707 -2.795,-0.715 z m 12.593,6.205 c 0.004,0.015 0.002,0.007 -0.007,-0.025 z m -2.64,-7.692 c -0.903,0.025 -1.819,0.125 -2.734,0.307 -0.906,0.179 -1.794,0.436 -2.656,0.766 0.802,0.528 1.545,1.619 2.196,2.37 0.319,-0.087 0.641,-0.162 0.966,-0.223 3.671,-0.729 7.084,-0.325 9.974,1.569 l 2.743,-1.224 0.075,-0.035 C 32.827,9.961 29.085,8.71 25.257,8.817 Z"
         id="path4"
         style="fill:#2d3d53;fill-opacity:1" />
      <path
         d="m 17.277,22.144 c -1.227,0 -2.222,0.995 -2.222,2.222 10e-4,0.946 0.6,1.787 1.493,2.098 v 2.337 l -0.011,0.018 2.962,-0.009 -0.766,-2.769 c 0.486,-0.421 0.765,-1.032 0.766,-1.675 0,-1.227 -0.994,-2.222 -2.222,-2.222 z"
         fill="#ffffff"
         id="path5" />
    </g>
  </g>
</svg>
