<?xml version="1.0" encoding="UTF-8" standalone="no"?>
<svg
   width="62"
   height="62"
   version="1"
   id="svg4"
   sodipodi:docname="iron_product_logo.svg"
   inkscape:version="1.4 (unknown)"
   xmlns:inkscape="http://www.inkscape.org/namespaces/inkscape"
   xmlns:sodipodi="http://sodipodi.sourceforge.net/DTD/sodipodi-0.dtd"
   xmlns:xlink="http://www.w3.org/1999/xlink"
   xmlns="http://www.w3.org/2000/svg"
   xmlns:svg="http://www.w3.org/2000/svg">
  <defs
     id="defs4">
    <linearGradient
       id="linearGradient4"
       inkscape:collect="always">
      <stop
         style="stop-color:#b5b5b5;stop-opacity:1;"
         offset="0"
         id="stop4" />
      <stop
         style="stop-color:#ececec;stop-opacity:1"
         offset="1"
         id="stop5" />
    </linearGradient>
    <linearGradient
       inkscape:collect="always"
       xlink:href="#linearGradient4"
       id="linearGradient5"
       x1="-59.017548"
       y1="-31.490158"
       x2="-4"
       y2="-31.490158"
       gradientUnits="userSpaceOnUse" />
  </defs>
  <sodipodi:namedview
     id="namedview4"
     pagecolor="#ffffff"
     bordercolor="#000000"
     borderopacity="0.25"
     inkscape:showpageshadow="2"
     inkscape:pageopacity="0.0"
     inkscape:pagecheckerboard="0"
     inkscape:deskcolor="#d1d1d1"
     inkscape:zoom="6.0390625"
     inkscape:cx="37.505821"
     inkscape:cy="40.983182"
     inkscape:window-width="1920"
     inkscape:window-height="996"
     inkscape:window-x="0"
     inkscape:window-y="0"
     inkscape:window-maximized="1"
     inkscape:current-layer="svg4" />
  <g
     id="g4"
     transform="translate(-0.50000039,-1)">
    <rect
       style="opacity:0.2;stroke-width:0.982898"
       width="55.017548"
       height="55.066681"
       x="-60"
       y="-59.023499"
       rx="27.503855"
       ry="27.528416"
       transform="matrix(0,-1,-1,0,0,0)"
       id="rect1" />
    <rect
       style="fill:url(#linearGradient5);stroke-width:0.982898"
       width="55.017548"
       height="55.066681"
       x="-59.017548"
       y="-59.023499"
       rx="27.503855"
       ry="27.528416"
       transform="matrix(0,-1,-1,0,0,0)"
       id="rect2" />
    <path
       style="opacity:0.2;fill:#ffffff;stroke-width:0.982898"
       d="m 31.49424,4.0115128 c -15.250495,0 -27.5275734,12.2661302 -27.5275734,27.5030122 0,0.11079 0.01115,0.218914 0.017283,0.328125 C 4.3275772,16.908714 16.461433,4.9882118 31.49424,4.9882118 c 15.031525,4e-7 27.166601,11.9184452 27.512207,26.8506012 0.0061,-0.107925 0.01535,-0.214812 0.01535,-0.324288 0,-15.236882 -12.277081,-27.5030122 -27.527569,-27.5030122 z"
       id="path2" />
    <path
       style="opacity:0.2;stroke-width:0.982898"
       d="m 28.900574,16.791712 c -4.010591,-0.118189 -7.868661,0.707237 -11.431442,1.545092 -5.248882,1.234374 -13.8867057,5.05947 -13.8867057,5.05947 -2.0841955,0.903822 -2.1172321,3.859528 -0.053763,4.810095 2.9686944,1.517918 7.4692337,2.151023 8.0962967,5.573648 0.924356,5.045315 -4.3807325,9.669158 -7.1919833,14.322316 -1.6834107,2.674349 1.9002506,5.510453 4.0963737,3.241865 0,0 13.6053996,-12.618874 31.3674326,-13.096345 3.307786,-0.08892 7.713049,1.376948 11.152375,2.966782 3.439329,1.589834 5.888535,2.794415 5.888535,2.794415 2.174446,1.419155 4.861689,-1.44281 3.837791,-3.8354 C 55.682001,28.28329 45.138752,18.499551 30.651777,16.904829 l -0.02305,-0.0027 c -0.578732,-0.05818 -1.155217,-0.09364 -1.72816,-0.11054 z"
       id="path3" />
    <path
       style="fill:#5295e0;stroke-width:0.982898;fill-opacity:1"
       d="m 28.900574,15.809637 c -4.010591,-0.11819 -7.868661,0.707237 -11.431442,1.54509 C 12.22025,18.589106 3.5824263,22.4142 3.5824263,22.4142 c -2.0841955,0.903826 -2.1172321,3.859526 -0.053763,4.810098 2.9686944,1.517914 7.4692337,2.151021 8.0962967,5.573647 0.924356,5.045317 -4.3807325,9.669158 -7.1919833,14.322318 -1.6834107,2.674348 1.9002506,5.510449 4.0963737,3.24186 0,0 13.6054006,-12.61887 31.3674336,-13.096342 3.307786,-0.08892 7.713049,1.376949 11.152375,2.966784 3.439329,1.589834 5.888535,2.794413 5.888535,2.794413 2.174446,1.419155 4.861689,-1.442815 3.837791,-3.8354 C 55.682002,27.301218 45.138753,17.517479 30.651778,15.922755 l -0.02305,-0.0027 c -0.578731,-0.05817 -1.155216,-0.09364 -1.728159,-0.110536 z"
       id="path4" />
  </g>
</svg>
