<?xml version="1.0" encoding="UTF-8" standalone="no"?>
<svg
   width="62"
   height="62"
   version="1.1"
   id="svg13"
   sodipodi:docname="irssi.svg"
   inkscape:version="1.4 (unknown)"
   xmlns:inkscape="http://www.inkscape.org/namespaces/inkscape"
   xmlns:sodipodi="http://sodipodi.sourceforge.net/DTD/sodipodi-0.dtd"
   xmlns:xlink="http://www.w3.org/1999/xlink"
   xmlns="http://www.w3.org/2000/svg"
   xmlns:svg="http://www.w3.org/2000/svg">
  <defs
     id="defs13">
    <linearGradient
       id="linearGradient19"
       inkscape:collect="always">
      <stop
         style="stop-color:#90bed5;stop-opacity:1;"
         offset="0"
         id="stop19" />
      <stop
         style="stop-color:#c8dfeb;stop-opacity:1;"
         offset="1"
         id="stop20" />
    </linearGradient>
    <linearGradient
       id="linearGradient17"
       inkscape:collect="always">
      <stop
         style="stop-color:#1c3b4a;stop-opacity:1;"
         offset="0"
         id="stop17" />
      <stop
         style="stop-color:#387898;stop-opacity:1;"
         offset="1"
         id="stop18" />
    </linearGradient>
    <linearGradient
       inkscape:collect="always"
       xlink:href="#c"
       id="linearGradient13"
       gradientUnits="userSpaceOnUse"
       x1="399.57144"
       y1="547.79797"
       x2="399.57144"
       y2="542.79797" />
    <linearGradient
       inkscape:collect="always"
       xlink:href="#c"
       id="linearGradient14"
       gradientUnits="userSpaceOnUse"
       x1="399.57144"
       y1="547.79797"
       x2="399.57144"
       y2="542.79797" />
    <linearGradient
       inkscape:collect="always"
       xlink:href="#c"
       id="linearGradient15"
       gradientUnits="userSpaceOnUse"
       x1="399.57144"
       y1="547.79797"
       x2="399.57144"
       y2="542.79797" />
    <linearGradient
       inkscape:collect="always"
       xlink:href="#c"
       id="linearGradient16"
       gradientUnits="userSpaceOnUse"
       x1="399.57144"
       y1="547.79797"
       x2="399.57144"
       y2="542.79797" />
    <linearGradient
       inkscape:collect="always"
       xlink:href="#linearGradient17"
       id="linearGradient18"
       x1="354.0188"
       y1="548.62384"
       x2="353.44946"
       y2="505.14484"
       gradientUnits="userSpaceOnUse" />
    <linearGradient
       inkscape:collect="always"
       xlink:href="#linearGradient19"
       id="linearGradient20"
       x1="367.33337"
       y1="547.92169"
       x2="367.33334"
       y2="525.96381"
       gradientUnits="userSpaceOnUse" />
  </defs>
  <sodipodi:namedview
     id="namedview13"
     pagecolor="#ffffff"
     bordercolor="#000000"
     borderopacity="0.25"
     inkscape:showpageshadow="2"
     inkscape:pageopacity="0.0"
     inkscape:pagecheckerboard="0"
     inkscape:deskcolor="#d1d1d1"
     inkscape:zoom="8.0520833"
     inkscape:cx="20.80207"
     inkscape:cy="40.921087"
     inkscape:window-width="1920"
     inkscape:window-height="996"
     inkscape:window-x="0"
     inkscape:window-y="0"
     inkscape:window-maximized="1"
     inkscape:current-layer="svg13" />
  <linearGradient
     id="a"
     x1="355.73465"
     x2="355.6907"
     y1="546.99841"
     y2="505.32748"
     gradientUnits="userSpaceOnUse">
    <stop
       stop-color="#2e5378"
       offset="0"
       id="stop1" />
    <stop
       stop-color="#387898"
       offset="1"
       id="stop2" />
  </linearGradient>
  <linearGradient
     id="b"
     x1="373.44516"
     x2="373.44516"
     y1="546.79541"
     y2="507.86609"
     gradientTransform="matrix(-0.56777405,0,0,0.61822428,579.27321,212.13023)"
     gradientUnits="userSpaceOnUse">
    <stop
       stop-color="#b1d7fc"
       offset="0"
       id="stop3" />
    <stop
       stop-color="#f4fcff"
       offset="1"
       id="stop4" />
  </linearGradient>
  <linearGradient
     id="c"
     x1="399.57144"
     x2="399.57144"
     y1="547.79797"
     y2="542.79797"
     gradientUnits="userSpaceOnUse">
    <stop
       stop-color="#0d305a"
       offset="0"
       id="stop5" />
    <stop
       stop-color="#115570"
       offset="1"
       id="stop6" />
  </linearGradient>
  <linearGradient
     id="d"
     x1="354.74133"
     x2="354.74133"
     y1="530.58795"
     y2="519.04474"
     gradientUnits="userSpaceOnUse">
    <stop
       stop-color="#c2d4e7"
       offset="0"
       id="stop7" />
    <stop
       stop-color="#e0e3f7"
       offset="1"
       id="stop8" />
  </linearGradient>
  <g
     transform="matrix(1.2588533,0,0,1.2587056,-416.34855,-632.82863)"
     id="g13">
    <path
       d="m 372.72396,511.00526 c -4.64376,-3.77923 -10.8097,-5.86043 -17.36188,-5.86043 -6.5523,0 -12.71825,2.08134 -17.3619,5.86043 -4.68415,3.81204 -7.26383,8.89248 -7.26383,14.30562 0,5.1665 2.35146,10.0291 6.6381,13.77566 -0.0773,0.17385 -0.13864,0.35675 -0.1778,0.54904 l -1.40852,6.92833 c -0.16748,0.8234 0.0576,1.31439 0.27567,1.58146 0.25214,0.30847 0.62586,0.47846 1.05242,0.47846 0.32207,0 0.66821,-0.095 1.02889,-0.28251 l 8.19253,-4.25611 c 2.83641,0.91297 5.88571,1.3917 9.02427,1.3917 6.55233,0 12.71811,-2.0813 17.36192,-5.8604 4.68401,-3.81192 7.26369,-8.89237 7.26369,-14.3055 0,-5.41327 -2.57956,-10.49371 -7.26357,-14.30575 z"
       id="path8"
       style="fill:url(#linearGradient18)" />
    <path
       d="m 350.80151,516.43664 v 4.6173 h -4.6173 v 2.30865 h 4.6173 v 4.61729 h -4.6173 v 2.30865 h 4.6173 v 4.6173 h 2.30865 v -4.6173 h 4.61729 v 4.6173 h 2.30865 v -4.6173 h 4.6173 v -2.30865 h -4.6173 v -4.61729 h 4.6173 v -2.30865 h -4.6173 v -4.6173 h -2.30865 v 4.6173 h -4.61729 v -4.6173 z m 2.30865,6.92595 h 4.61729 v 4.61729 h -4.61729 z"
       fill="url(#d)"
       id="path9"
       style="fill:#f2f2f2;fill-opacity:1" />
    <path
       d="m 358.65242,529.1544 c 2.32189,-2.05752 5.40486,-3.19058 8.68093,-3.19058 3.27614,0 6.35912,1.13313 8.68094,3.19058 2.34206,2.07537 3.63191,4.8413 3.63191,7.78837 0,2.81279 -1.17574,5.46009 -3.31906,7.49984 0.0388,0.0947 0.0694,0.19423 0.0889,0.29891 l 0.70425,3.77197 c 0.0837,0.44829 -0.0287,0.7156 -0.13788,0.861 -0.12614,0.16793 -0.31294,0.26049 -0.52621,0.26049 -0.16104,0 -0.3341,-0.0517 -0.51444,-0.15382 l -4.09627,-2.31712 c -1.4182,0.49704 -2.94284,0.75766 -4.51213,0.75766 -3.27614,0 -6.35905,-1.13311 -8.68093,-3.19056 -2.342,-2.07531 -3.63185,-4.84125 -3.63185,-7.7883 0,-2.94714 1.28978,-5.71307 3.63178,-7.78844 z"
       id="path10"
       style="fill:url(#linearGradient20)" />
    <g
       transform="matrix(1.0732672,0,0,1.0732672,-59.631031,-48.551177)"
       fill="url(#c)"
       id="g12"
       style="fill:url(#linearGradient16)">
      <circle
         cx="393.03693"
         cy="545.49957"
         r="2.0843749"
         opacity="0.837"
         id="circle10"
         style="fill:url(#linearGradient13)" />
      <circle
         cx="397.78925"
         cy="545.49957"
         r="2.0843749"
         opacity="0.837"
         id="circle11"
         style="fill:url(#linearGradient14)" />
      <circle
         cx="402.78326"
         cy="545.49957"
         r="2.0843749"
         opacity="0.837"
         id="circle12"
         style="fill:url(#linearGradient15)" />
    </g>
  </g>
</svg>
