<?xml version="1.0" encoding="UTF-8" standalone="no"?>
<svg
   width="62"
   height="62"
   version="1.1"
   id="svg29"
   sodipodi:docname="ishiiruka.svg"
   inkscape:version="1.4 (unknown)"
   xmlns:inkscape="http://www.inkscape.org/namespaces/inkscape"
   xmlns:sodipodi="http://sodipodi.sourceforge.net/DTD/sodipodi-0.dtd"
   xmlns:xlink="http://www.w3.org/1999/xlink"
   xmlns="http://www.w3.org/2000/svg"
   xmlns:svg="http://www.w3.org/2000/svg">
  <defs
     id="defs29">
    <linearGradient
       id="linearGradient29"
       inkscape:collect="always">
      <stop
         style="stop-color:#651a35;stop-opacity:1;"
         offset="0"
         id="stop29" />
      <stop
         style="stop-color:#c83771;stop-opacity:1"
         offset="1"
         id="stop30" />
    </linearGradient>
    <linearGradient
       inkscape:collect="always"
       xlink:href="#linearGradient29"
       id="linearGradient30"
       x1="29.918676"
       y1="60"
       x2="30.193521"
       y2="5"
       gradientUnits="userSpaceOnUse"
       gradientTransform="matrix(0.98214286,0,0,0.98245614,-0.42857152,-0.92982455)" />
  </defs>
  <sodipodi:namedview
     id="namedview29"
     pagecolor="#ffffff"
     bordercolor="#000000"
     borderopacity="0.25"
     inkscape:showpageshadow="2"
     inkscape:pageopacity="0.0"
     inkscape:pagecheckerboard="0"
     inkscape:deskcolor="#d1d1d1"
     inkscape:zoom="7.0710678"
     inkscape:cx="25.102291"
     inkscape:cy="36.698842"
     inkscape:window-width="1920"
     inkscape:window-height="996"
     inkscape:window-x="0"
     inkscape:window-y="0"
     inkscape:window-maximized="1"
     inkscape:current-layer="svg29" />
  <rect
     style="opacity:0.2;stroke-width:0.9823"
     width="55"
     height="55.017544"
     x="3.5"
     y="3.9824562"
     ry="13.754386"
     id="rect1" />
  <rect
     style="fill:url(#linearGradient30);stroke-width:0.9823"
     width="55"
     height="55.017544"
     x="3.5"
     y="3"
     ry="13.754386"
     id="rect2" />
  <path
     style="opacity:0.1;fill:#ffffff;stroke-width:0.9823"
     d="M 17.25,3 C 9.6324999,3 3.4999999,9.1344561 3.4999999,16.754386 v 0.982456 c 0,-7.61993 6.1325,-13.7543858 13.7500001,-13.7543858 h 27.5 c 7.6175,0 13.75,6.1344558 13.75,13.7543858 V 16.754386 C 58.5,9.1344561 52.3675,3 44.75,3 Z"
     id="path28" />
  <g
     id="g1"
     transform="matrix(1.0500004,0,0,1.0416159,-1.550012,-1.6955403)">
    <g
       style="opacity:0.2"
       transform="matrix(0.01953088,0,0,0.01953088,11.000043,12.355528)"
       id="g2">
      <path
         transform="matrix(73.143954,0,0,73.143954,-731.43339,-731.19914)"
         d="m 29.142578,16.308594 c -1.631413,0.104656 -3.097072,1.059254 -3.371094,1.193359 -0.878609,-0.251504 -1.880334,-0.774861 -3.052734,-0.97377 -4.05514,-0.687999 -7.486832,0.410168 -9.208984,1.605469 -2.257207,1.566664 -2.194775,3.325625 -2.38086,4.055801 -0.115266,0.452327 -1.1411832,1.288212 -1.128906,1.875 0.02006,0.765933 0.498788,1.012466 0.498788,1.012466 0.430725,-0.034 1.07322,-0.341311 1.622303,-0.567153 0.815036,-0.335243 0.878025,-0.517265 3.105468,-0.84961 1.024774,-0.152904 2.103286,-0.198338 2.90625,-0.205078 0.312467,0.659795 1.08953,2.017443 2.435547,2.667969 0.798715,0.367531 2.001636,0.53178 2.533203,0.636719 l 1.554688,0.230468 v -0.628906 h -0.002 c 0,0 -1.304731,-0.541113 -2.107422,-1.34375 -0.338767,-0.338742 -0.341841,-0.743997 -0.435547,-1.148437 1.236935,0.232862 2.338964,0.409267 4.947266,1.408203 2.402306,0.92004 4.04304,2.256279 4.044922,2.257812 l 0.002,0.002 0.0039,0.0039 v -0.628907 l -0.0059,-0.0039 c -0.02182,-0.02711 -1.704738,-2.113765 -4.535157,-3.509765 -2.33925,-1.15378 -4.260766,-1.724456 -6.921875,-1.853516 -2.763683,-0.134043 -4.600944,0.18741 -4.800781,0.220703 0.236976,-0.470989 0.717016,-1.287019 2.005859,-1.891593 1.909468,-0.895713 4.91179,-1.045527 8.359376,-0.166015 4.870682,1.242563 6.531824,3.568404 8.626953,5.754874 2.228656,2.325847 4.154023,6.233759 4.15625,6.238281 l 0.002,0.0039 0.0039,0.0098 v -0.632813 l -0.01758,-0.04883 c -0.09314,-0.312179 -0.67221,-2.194929 -1.650391,-4 -1.288705,-2.378091 -2.397481,-4.078174 -4.24414,-5.804687 -1.288358,-0.96098 -2.599163,-2.269279 -2.374998,-2.833972 0.579769,-0.762847 2.152395,-1.229261 2.158203,-1.230469 h 0.0039 v -0.002 -0.626953 c 0,0 -0.994124,-0.338068 -2.732422,-0.226562 z m 1.951173,11.218749 c 0,0 0.01562,0.01371 0,0 z"
         id="path2-3" />
    </g>
    <g
       style="fill:#ffffff"
       transform="matrix(0.01953088,0,0,0.01953088,11.000043,11.355528)"
       id="g3">
      <path
         style="fill:#ffffff"
         transform="matrix(73.143954,0,0,73.143954,-731.43339,-731.19914)"
         d="m 29.142578,16.308594 c -1.631413,0.104656 -3.097072,1.059254 -3.371094,1.193359 -0.878609,-0.251504 -1.880334,-0.774861 -3.052734,-0.97377 -4.05514,-0.687999 -7.486832,0.410168 -9.208984,1.605469 -2.257207,1.566664 -2.194775,3.325625 -2.38086,4.055801 -0.115266,0.452327 -1.1411832,1.288212 -1.128906,1.875 0.02006,0.765933 0.498788,1.012466 0.498788,1.012466 0.430725,-0.034 1.07322,-0.341311 1.622303,-0.567153 0.815036,-0.335243 0.878025,-0.517265 3.105468,-0.84961 1.024774,-0.152904 2.103286,-0.198338 2.90625,-0.205078 0.312467,0.659795 1.08953,2.017443 2.435547,2.667969 0.798715,0.367531 2.001636,0.53178 2.533203,0.636719 l 1.554688,0.230468 v -0.628906 h -0.002 c 0,0 -1.304731,-0.541113 -2.107422,-1.34375 -0.338767,-0.338742 -0.341841,-0.743997 -0.435547,-1.148437 1.236935,0.232862 2.338964,0.409267 4.947266,1.408203 2.402306,0.92004 4.04304,2.256279 4.044922,2.257812 l 0.002,0.002 0.0039,0.0039 v -0.628907 l -0.0059,-0.0039 c -0.02182,-0.02711 -1.704738,-2.113765 -4.535157,-3.509765 -2.33925,-1.15378 -4.260766,-1.724456 -6.921875,-1.853516 -2.763683,-0.134043 -4.600944,0.18741 -4.800781,0.220703 0.236976,-0.470989 0.717016,-1.287019 2.005859,-1.891593 1.909468,-0.895713 4.91179,-1.045527 8.359376,-0.166015 4.870682,1.242563 6.531824,3.568404 8.626953,5.754874 2.228656,2.325847 4.154023,6.233759 4.15625,6.238281 l 0.002,0.0039 0.0039,0.0098 v -0.632813 l -0.01758,-0.04883 c -0.09314,-0.312179 -0.67221,-2.194929 -1.650391,-4 -1.288705,-2.378091 -2.397481,-4.078174 -4.24414,-5.804687 -1.288358,-0.96098 -2.599163,-2.269279 -2.374998,-2.833972 0.579769,-0.762847 2.152395,-1.229261 2.158203,-1.230469 h 0.0039 v -0.002 -0.626953 c 0,0 -0.994124,-0.338068 -2.732422,-0.226562 z m 1.951173,11.218749 c 0,0 0.01562,0.01371 0,0 z"
         id="path3-6" />
    </g>
  </g>
</svg>
