<?xml version="1.0" encoding="UTF-8" standalone="no"?>
<svg
   width="62"
   height="62"
   version="1.1"
   id="svg29"
   sodipodi:docname="jamesdsp.svg"
   inkscape:version="1.4 (unknown)"
   xmlns:inkscape="http://www.inkscape.org/namespaces/inkscape"
   xmlns:sodipodi="http://sodipodi.sourceforge.net/DTD/sodipodi-0.dtd"
   xmlns:xlink="http://www.w3.org/1999/xlink"
   xmlns="http://www.w3.org/2000/svg"
   xmlns:svg="http://www.w3.org/2000/svg">
  <defs
     id="defs29">
    <linearGradient
       id="linearGradient29"
       inkscape:collect="always">
      <stop
         style="stop-color:#2d3d53;stop-opacity:1;"
         offset="0"
         id="stop29" />
      <stop
         style="stop-color:#354864;stop-opacity:1;"
         offset="1"
         id="stop30" />
    </linearGradient>
    <linearGradient
       inkscape:collect="always"
       xlink:href="#linearGradient29"
       id="linearGradient30"
       x1="30.782633"
       y1="60"
       x2="30.193521"
       y2="5"
       gradientUnits="userSpaceOnUse"
       gradientTransform="matrix(0.98214286,0,0,0.98245614,-0.42857152,-0.92982455)" />
  </defs>
  <sodipodi:namedview
     id="namedview29"
     pagecolor="#ffffff"
     bordercolor="#000000"
     borderopacity="0.25"
     inkscape:showpageshadow="2"
     inkscape:pageopacity="0.0"
     inkscape:pagecheckerboard="0"
     inkscape:deskcolor="#d1d1d1"
     inkscape:zoom="7.0710678"
     inkscape:cx="25.243712"
     inkscape:cy="47.871129"
     inkscape:window-width="1920"
     inkscape:window-height="996"
     inkscape:window-x="0"
     inkscape:window-y="0"
     inkscape:window-maximized="1"
     inkscape:current-layer="svg29" />
  <rect
     style="opacity:0.2;stroke-width:0.9823"
     width="55"
     height="55.017544"
     x="3.5"
     y="3.9824562"
     ry="13.754386"
     id="rect1" />
  <rect
     style="fill:url(#linearGradient30);stroke-width:0.9823"
     width="55"
     height="55.017544"
     x="3.5"
     y="3"
     ry="13.754386"
     id="rect2" />
  <path
     style="opacity:0.1;fill:#ffffff;stroke-width:0.9823"
     d="M 17.25,3 C 9.6324999,3 3.4999999,9.1344561 3.4999999,16.754386 v 0.982456 c 0,-7.61993 6.1325,-13.7543858 13.7500001,-13.7543858 h 27.5 c 7.6175,0 13.75,6.1344558 13.75,13.7543858 V 16.754386 C 58.5,9.1344561 52.3675,3 44.75,3 Z"
     id="path28" />
  <g
     id="g1"
     transform="matrix(1.0066329,0,0,1,0.43698736,0.491228)">
    <path
       style="fill:#7a93b9;fill-opacity:1"
       d="m 34.5,28.508772 h -6 v 17 c 0,1.662 1.338,3 3,3 1.662,0 3,-1.338 3,-3 z m -16,6 h -6 v 11 c 0,1.662 1.338,3 3,3 1.662,0 3,-1.338 3,-3 z"
       id="path3" />
    <path
       style="fill:#5fb962;fill-opacity:1"
       d="m 18.5,35.508772 v -20 c 0,-1.662 -1.338,-3 -3,-3 -1.662,0 -3,1.338 -3,3 v 20 z"
       id="path5" />
    <path
       style="fill:#9c75d9;fill-opacity:1"
       d="m 34.5,26.508772 v -11 c 0,-1.662 -1.338,-3 -3,-3 -1.662,0 -3,1.338 -3,3 v 11 z"
       id="path6" />
    <path
       style="fill:#f2f2f2;fill-opacity:1"
       d="m 15.5,40.508772 c 3.314,0 6,-2.686 6,-6 0,-3.314 -2.686,-6 -6,-6 -3.314,0 -6,2.686 -6,6 0,3.314 2.686,6 6,6 z"
       id="path13" />
    <path
       style="fill:#f2f2f2;fill-opacity:1"
       d="m 31.5,34.508772 c 3.314,0 6,-2.686 6,-6 0,-3.314 -2.686,-6 -6,-6 -3.314,0 -6,2.686 -6,6 0,3.314 2.686,6 6,6 z"
       id="path14" />
    <path
       style="fill:#7a93b9;fill-opacity:1"
       d="m 42.223254,34.508772 v 11 c 0,1.662 1.338,3 3,3 1.662,0 3,-1.338 3,-3 v -11 z"
       id="path6-6-3" />
    <path
       style="fill:#d35f8d;fill-opacity:1"
       d="M 48.223254,34.709 V 17.508772 c 0,-1.662 -1.338,-3 -3,-3 -1.662,0 -3,1.338 -3,3 V 34.709 Z"
       id="path6-6-6"
       sodipodi:nodetypes="cssscc" />
    <path
       style="fill:#f2f2f2;fill-opacity:1"
       d="m 45.223254,44.709 c 3.314,0 6,-2.686 6,-6 0,-3.314 -2.686,-6 -6,-6 -3.314,0 -6,2.686 -6,6 0,3.314 2.686,6 6,6 z"
       id="path14-7-2" />
  </g>
</svg>
