<?xml version="1.0" encoding="UTF-8" standalone="no"?>
<svg
   width="62"
   height="62"
   version="1.1"
   id="svg29"
   sodipodi:docname="jamulus.svg"
   inkscape:version="1.4 (unknown)"
   xmlns:inkscape="http://www.inkscape.org/namespaces/inkscape"
   xmlns:sodipodi="http://sodipodi.sourceforge.net/DTD/sodipodi-0.dtd"
   xmlns:xlink="http://www.w3.org/1999/xlink"
   xmlns="http://www.w3.org/2000/svg"
   xmlns:svg="http://www.w3.org/2000/svg">
  <defs
     id="defs29">
    <linearGradient
       inkscape:collect="always"
       xlink:href="#linearGradient2790"
       id="linearGradient30"
       x1="34.670433"
       y1="5"
       x2="35.233265"
       y2="60"
       gradientUnits="userSpaceOnUse"
       gradientTransform="matrix(0.98214286,0,0,0.98245614,-0.42857152,-0.92982455)" />
    <linearGradient
       inkscape:collect="always"
       xlink:href="#linearGradient2790"
       id="linearGradient2792"
       x1="6.6812415"
       y1="8.0921726"
       x2="6.6812415"
       y2="24.878344"
       gradientUnits="userSpaceOnUse"
       gradientTransform="matrix(1.6962156,0,0,1.6962156,0.46247115,2.5573853)" />
    <linearGradient
       inkscape:collect="always"
       id="linearGradient2790">
      <stop
         style="stop-color:#0ba3ff;stop-opacity:1;"
         offset="0"
         id="stop2786" />
      <stop
         style="stop-color:#0567ff;stop-opacity:1"
         offset="1"
         id="stop2788" />
    </linearGradient>
  </defs>
  <sodipodi:namedview
     id="namedview29"
     pagecolor="#ffffff"
     bordercolor="#000000"
     borderopacity="0.25"
     inkscape:showpageshadow="2"
     inkscape:pageopacity="0.0"
     inkscape:pagecheckerboard="0"
     inkscape:deskcolor="#d1d1d1"
     inkscape:zoom="7.0710678"
     inkscape:cx="27.647875"
     inkscape:cy="35.001786"
     inkscape:window-width="1920"
     inkscape:window-height="996"
     inkscape:window-x="0"
     inkscape:window-y="0"
     inkscape:window-maximized="1"
     inkscape:current-layer="svg29" />
  <rect
     style="opacity:0.2;stroke-width:0.9823"
     width="55"
     height="55.017544"
     x="3.5"
     y="3.9824562"
     ry="13.754386"
     id="rect1" />
  <rect
     style="fill:url(#linearGradient30);stroke-width:0.9823"
     width="55"
     height="55.017544"
     x="3.5"
     y="3"
     ry="13.754386"
     id="rect2" />
  <path
     style="opacity:0.1;fill:#ffffff;stroke-width:0.9823"
     d="M 17.25,3 C 9.6324999,3 3.4999999,9.1344561 3.4999999,16.754386 v 0.982456 c 0,-7.61993 6.1325,-13.7543858 13.7500001,-13.7543858 h 27.5 c 7.6175,0 13.75,6.1344558 13.75,13.7543858 V 16.754386 C 58.5,9.1344561 52.3675,3 44.75,3 Z"
     id="path28" />
  <g
     id="g3"
     transform="translate(2.2403013,-0.47155913)">
    <path
       style="fill:#f8fcfe;fill-opacity:1;stroke-width:0.678553"
       d="m 37.328413,49.931113 c -2.610318,-0.407396 -4.923906,-1.851191 -6.318768,-3.943058 -0.596384,-0.894462 -0.424725,-0.858416 -1.543466,-0.323824 -1.129143,0.539642 -2.266186,0.921659 -3.431576,1.152954 -1.138643,0.226153 -3.097475,0.279586 -4.309472,0.11763 C 15.672977,46.12627 10.983744,41.60107 9.9024917,35.525802 9.7111602,34.450778 9.7121183,32.093656 9.904408,31.035248 10.942815,25.316725 15.18261,20.947025 20.796475,19.809463 c 0.469958,-0.09523 0.880723,-0.216063 0.912816,-0.268522 0.03212,-0.05241 0.204642,-0.35486 0.38343,-0.67202 0.506474,-0.898429 1.12531,-1.716456 1.954625,-2.583765 1.26268,-1.320465 2.375933,-2.142844 3.919311,-2.895259 3.313483,-1.615364 6.923672,-1.847135 10.444273,-0.670467 2.008581,0.671301 3.778079,1.772495 5.311659,3.305489 1.137358,1.136932 1.877351,2.165011 2.608963,3.624626 2.177602,4.344478 1.845239,9.620453 -0.860896,13.665903 -0.289383,0.432586 -0.526136,0.809316 -0.526136,0.83713 0,0.02795 0.196112,0.264634 0.435812,0.526104 0.787495,0.859074 1.523923,2.10482 1.903127,3.219318 0.344232,1.011668 0.443997,1.671906 0.443997,2.938373 0,0.867577 -0.03611,1.354762 -0.13392,1.804525 -0.404645,1.861741 -1.20449,3.333697 -2.533076,4.661773 -1.323082,1.322614 -2.807521,2.129419 -4.64831,2.526526 -0.657955,0.141908 -2.448107,0.201102 -3.08351,0.101916 z"
       id="path4" />
    <path
       style="fill:url(#linearGradient2792);fill-opacity:1;stroke-width:0.678553"
       d="m 34.368408,14.016052 c -7.611203,0.52978 -9.286872,4.409409 -11.81802,7.477539 -5.764403,0.93644 -10.485642,5.522517 -10.755097,11.044019 0.650291,4.198395 4.446037,7.362292 8.490109,8.263467 3.525359,0.806451 7.354093,0.15721 10.479423,-1.646072 0,0 1.70782,2.141537 3.261653,3.314632 3.353358,2.471574 8.804548,1.611918 10.91546,-2.051619 0.958755,-1.200548 0.227594,-2.708999 -0.577836,-3.769238 -0.63766,-0.854895 -1.443478,-1.563447 -2.202723,-2.308714 1.836209,-2.308 3.435938,-4.972129 3.538652,-7.986458 0.260387,-3.931001 -1.680885,-7.865682 -4.914354,-10.154721 -1.857089,-1.335257 -4.128167,-2.079922 -6.417267,-2.182835 z m -3.357084,4.753968 c 0.280284,-0.02421 0.568812,0.07244 0.801831,0.335323 0.585438,0.62289 -0.06729,1.331107 -0.257104,1.96944 -0.598879,1.488887 -1.315152,2.936326 -1.840906,4.450475 0.529194,0.09982 1.478152,-0.495845 2.151033,-0.645428 1.794112,-0.633947 3.575245,-1.306301 5.387487,-1.891256 0.844427,0.01923 1.303323,0.936518 0.792555,1.577155 -1.276928,2.543958 -2.828756,4.955868 -4.075411,7.513339 l 1.801119,1.105321 -5.443133,3.224522 -0.22398,-6.210498 1.978729,0.869415 c 0.866713,-1.364107 1.619018,-2.811702 2.422706,-4.217221 0.147432,-0.334216 0.866557,-1.207809 0.0226,-0.82303 -2.238604,0.727944 -4.410359,1.643599 -6.674402,2.298129 -0.695825,0.141397 -1.396877,-0.642598 -1.029779,-1.265695 1.018292,-2.472597 2.052435,-4.941296 3.176832,-7.371535 0.102959,-0.502614 0.54278,-0.878211 1.0099,-0.918456 z"
       id="path8" />
  </g>
</svg>
