<?xml version="1.0" encoding="UTF-8" standalone="no"?>
<svg
   width="62"
   height="62"
   version="1"
   id="svg3"
   sodipodi:docname="jblue.svg"
   inkscape:version="1.4 (unknown)"
   xmlns:inkscape="http://www.inkscape.org/namespaces/inkscape"
   xmlns:sodipodi="http://sodipodi.sourceforge.net/DTD/sodipodi-0.dtd"
   xmlns:xlink="http://www.w3.org/1999/xlink"
   xmlns="http://www.w3.org/2000/svg"
   xmlns:svg="http://www.w3.org/2000/svg">
  <defs
     id="defs3">
    <linearGradient
       id="linearGradient3"
       inkscape:collect="always">
      <stop
         style="stop-color:#0c75a1;stop-opacity:1;"
         offset="0"
         id="stop3" />
      <stop
         style="stop-color:#31b5ef;stop-opacity:1;"
         offset="1"
         id="stop4" />
    </linearGradient>
    <linearGradient
       inkscape:collect="always"
       xlink:href="#linearGradient3"
       id="linearGradient4"
       x1="33.694923"
       y1="60.814903"
       x2="34.73653"
       y2="5.000001"
       gradientUnits="userSpaceOnUse" />
  </defs>
  <sodipodi:namedview
     id="namedview3"
     pagecolor="#ffffff"
     bordercolor="#000000"
     borderopacity="0.25"
     inkscape:showpageshadow="2"
     inkscape:pageopacity="0.0"
     inkscape:pagecheckerboard="0"
     inkscape:deskcolor="#d1d1d1"
     inkscape:zoom="5"
     inkscape:cx="22.5"
     inkscape:cy="34.5"
     inkscape:window-width="1920"
     inkscape:window-height="996"
     inkscape:window-x="0"
     inkscape:window-y="0"
     inkscape:window-maximized="1"
     inkscape:current-layer="svg3" />
  <g
     id="g3"
     transform="matrix(0.98245613,0,0,0.98245613,0.05263193,-0.92982444)">
    <path
       style="opacity:0.2"
       d="m 27,5.0000009 v 7.9980511 h 3.640285 c 1.607594,0 2.724767,0.249527 3.041017,0.565899 C 34.100973,13.983792 34,19.631667 34,32.699054 c 0,21.878353 0.812698,21.314804 -6.040536,21.300947 -5.857225,-0.01176 -7.022565,-1.518874 -4.161007,-4.687526 2.966427,-3.284798 2.928062,-6.650427 -0.109312,-9.502755 -1.744078,-1.637814 -3.896352,-2.663705 -6.149978,-2.809719 -2.860124,-0.185311 -6.443131,0.962584 -9.002511,3.154179 -1.9895129,1.703621 -3.2992227,3.822354 -3.504907,6.110162 -0.2776751,3.088548 1.2778024,6.485231 4.2044892,9.584694 4.9632838,5.432477 9.0459858,4.957072 18.8871828,5.13958 7.595791,0.135142 16.929871,-0.808349 20.995926,-9.647648 1.006028,-2.179968 0.754033,-2.860107 0.885415,-19.232417 0.153853,-19.172183 0.226005,-19.1105 4.213891,-19.1105 0.966213,0 1.470745,0.03094 2.000108,0 H 58 V 5.0000009 H 57.738167 42.473064 Z"
       id="path1" />
    <path
       style="fill:url(#linearGradient4)"
       d="m 27,4.0000003 v 7.9980507 h 3.640285 c 1.607594,0 2.724767,0.249527 3.041017,0.565899 C 34.100973,12.983791 34,18.631666 34,31.699053 34,53.577406 34.812698,53.013857 27.959464,53 22.102239,52.98824 20.936899,51.481126 23.798457,48.312474 26.764884,45.027676 26.726519,41.662047 23.689145,38.809719 21.945067,37.171905 19.792793,36.146014 17.539167,36 14.679043,35.814689 11.096036,36.962584 8.536656,39.154179 6.5471431,40.8578 5.2374333,42.976533 5.031749,45.264341 c -0.2776751,3.088548 1.2778024,6.485231 4.2044892,9.584694 4.9632838,5.432477 9.0459858,4.957072 18.8871828,5.13958 7.595791,0.135142 16.929871,-0.808349 20.995926,-9.647648 1.006028,-2.179968 0.754033,-2.860107 0.885415,-19.232417 0.153853,-19.172183 0.226005,-19.1105 4.213891,-19.1105 0.966213,0 1.470745,0.03094 2.000108,0 H 58 V 4.0000003 H 57.738167 42.473064 Z"
       id="path2" />
    <path
       style="opacity:0.2;fill:#ffffff"
       d="M 27,4 V 5 H 42.472656 57.738281 58 V 4 H 57.738281 42.472656 Z M 16.435547,35.992188 c -2.636861,0.125533 -5.65898,1.244463 -7.8984376,3.162109 C 6.5475965,40.857918 5.2369343,42.975864 5.03125,45.263672 4.993128,45.687694 4.997558,46.118663 5.02734,46.552734 5.03243,46.456944 5.02269,46.358897 5.03125,46.263672 5.2369343,43.975864 6.5475965,41.857918 8.5371094,40.154297 11.096489,37.962702 14.678939,36.814689 17.539062,37 c 2.253627,0.146014 4.406313,1.172733 6.150391,2.810547 1.391295,1.306533 2.145094,2.720716 2.277344,4.185547 0.187331,-1.820745 -0.571265,-3.583408 -2.277344,-5.185547 C 21.945375,37.172733 19.792689,36.146014 17.539062,36 17.181547,35.97684 16.812241,35.97425 16.435547,35.9922 Z m 17.583984,8.267578 C 33.926857,53.330548 33.09891,53.010393 27.958984,53 24.606336,52.9933 22.797425,52.494325 22.394531,51.476562 21.889167,53.170338 23.649555,53.991348 27.958984,54 c 5.299652,0.01072 6.008543,0.223843 6.060547,-9.740234 z"
       id="path3" />
  </g>
</svg>
