<?xml version="1.0" encoding="UTF-8" standalone="no"?>
<svg
   width="62"
   height="62"
   viewBox="0 0 62 62"
   fill="none"
   version="1.1"
   id="svg9"
   sodipodi:docname="jclicreports.svg"
   inkscape:version="1.4 (unknown)"
   xmlns:inkscape="http://www.inkscape.org/namespaces/inkscape"
   xmlns:sodipodi="http://sodipodi.sourceforge.net/DTD/sodipodi-0.dtd"
   xmlns:xlink="http://www.w3.org/1999/xlink"
   xmlns="http://www.w3.org/2000/svg"
   xmlns:svg="http://www.w3.org/2000/svg">
  <sodipodi:namedview
     id="namedview9"
     pagecolor="#ffffff"
     bordercolor="#000000"
     borderopacity="0.25"
     inkscape:showpageshadow="2"
     inkscape:pageopacity="0.0"
     inkscape:pagecheckerboard="0"
     inkscape:deskcolor="#d1d1d1"
     inkscape:zoom="6.0390625"
     inkscape:cx="32.86934"
     inkscape:cy="45.785252"
     inkscape:window-width="1920"
     inkscape:window-height="996"
     inkscape:window-x="0"
     inkscape:window-y="0"
     inkscape:window-maximized="1"
     inkscape:current-layer="svg9" />
  <g
     id="g9">
    <path
       d="M 48.9998,2 C 46.7908,2 45,3.25364 45,4.80002 V 55.2002 C 45,56.7462 46.7908,58 48.9998,58 h 7.9998 C 59.2088,58 61,56.7462 61,55.2002 V 4.80002 C 61,3.25364 59.2088,2 56.9996,2 Z"
       id="path1"
       style="fill:url(#linearGradient17)" />
    <path
       opacity="0.4"
       d="M 1,55.2502 V 38.7498 C 1,37.2312 2.56704,36 4.4999,36 h 6.99998 C 13.43292,36 15,37.2312 15,38.7498 V 55.2502 C 15,56.7688 13.43292,58 11.49988,58 H 4.4999 C 2.56704,58 1,56.7688 1,55.2502 Z"
       id="path2"
       style="fill:url(#linearGradient13);opacity:1" />
    <path
       opacity="0.6"
       d="M 23,55.1668 V 26.8332 C 23,25.2684 24.7908,24 27,24 h 8 c 2.2092,0 4,1.2684 4,2.8332 V 55.1668 C 39,56.7314 37.2092,58 35,58 h -8 c -2.2092,0 -4,-1.2686 -4,-2.8332 z"
       id="path3"
       style="fill:url(#linearGradient15);opacity:1" />
  </g>
  <defs
     id="defs9">
    <linearGradient
       id="linearGradient16"
       inkscape:collect="always">
      <stop
         style="stop-color:#8a2387;stop-opacity:1;"
         offset="0"
         id="stop16" />
      <stop
         style="stop-color:#edcf00;stop-opacity:1;"
         offset="0.55772489"
         id="stop18" />
      <stop
         style="stop-color:#fd5900;stop-opacity:1;"
         offset="1"
         id="stop17" />
    </linearGradient>
    <linearGradient
       id="linearGradient12"
       inkscape:collect="always">
      <stop
         style="stop-color:#ffde00;stop-opacity:1;"
         offset="0"
         id="stop12" />
      <stop
         style="stop-color:#fd5900;stop-opacity:1;"
         offset="1"
         id="stop13" />
    </linearGradient>
    <linearGradient
       id="linearGradient9"
       inkscape:collect="always">
      <stop
         style="stop-color:#ffa200;stop-opacity:1;"
         offset="0"
         id="stop10" />
      <stop
         style="stop-color:#ff4000;stop-opacity:1;"
         offset="1"
         id="stop11" />
    </linearGradient>
    <linearGradient
       id="paint0_linear_99_226"
       x1="22.8843"
       y1="2.2755101"
       x2="35.719296"
       y2="25.429657"
       gradientUnits="userSpaceOnUse"
       gradientTransform="matrix(2,0,0,2,-1,-2)">
      <stop
         stop-color="#F9D423"
         id="stop3" />
      <stop
         offset="0.515624"
         stop-color="#FF4E50"
         id="stop4" />
      <stop
         offset="0.991304"
         stop-color="#8A2387"
         id="stop5" />
    </linearGradient>
    <linearGradient
       id="paint1_linear_99_226"
       x1="4.49999"
       y1="30"
       x2="4.49999"
       y2="19"
       gradientUnits="userSpaceOnUse"
       gradientTransform="matrix(2,0,0,2,-1,-2)">
      <stop
         stop-color="#02AA93"
         id="stop6" />
      <stop
         offset="1"
         stop-color="#67FF80"
         id="stop7" />
    </linearGradient>
    <linearGradient
       id="paint2_linear_99_226"
       x1="15.9999"
       y1="30"
       x2="15.9999"
       y2="13"
       gradientUnits="userSpaceOnUse"
       gradientTransform="matrix(2,0,0,2,-1,-2)">
      <stop
         stop-color="#FD5900"
         id="stop8" />
      <stop
         offset="1"
         stop-color="#FFDE00"
         id="stop9" />
    </linearGradient>
    <linearGradient
       inkscape:collect="always"
       xlink:href="#linearGradient9"
       id="linearGradient11"
       x1="14.638977"
       y1="7.7238035"
       x2="32.875023"
       y2="28.919146"
       gradientUnits="userSpaceOnUse" />
    <linearGradient
       inkscape:collect="always"
       xlink:href="#linearGradient12"
       id="linearGradient13"
       x1="15"
       y1="58"
       x2="7.9998899"
       y2="36"
       gradientUnits="userSpaceOnUse" />
    <linearGradient
       inkscape:collect="always"
       xlink:href="#linearGradient12"
       id="linearGradient15"
       x1="31"
       y1="24"
       x2="37.306561"
       y2="57.481781"
       gradientUnits="userSpaceOnUse" />
    <linearGradient
       inkscape:collect="always"
       xlink:href="#linearGradient16"
       id="linearGradient17"
       x1="70.500648"
       y1="45.399738"
       x2="43.840881"
       y2="-4.9547219"
       gradientUnits="userSpaceOnUse" />
  </defs>
  <path
     d="m 12.91569,2.0002839 c -0.635208,0.014208 -1.187341,0.4398526 -1.36221,1.0506834 L 5.7534948,23.351017 c -0.2201454,0.769485 0.2248043,1.571816 0.9940477,1.792681 l 20.2999945,5.800008 c 0.769479,0.22011 1.571811,-0.22475 1.792662,-0.99404 l 5.8,-20.300049 C 34.860334,8.8801295 34.415403,8.0777985 33.64617,7.8569376 L 13.346175,2.0569238 C 13.20642,2.0165558 13.061286,1.9974448 12.91569,2.0002738 Z"
     style="fill:url(#linearGradient11);stroke-width:3.625"
     id="path3-3" />
</svg>
