<?xml version="1.0" encoding="UTF-8" standalone="no"?>
<svg
   width="62"
   height="62"
   version="1.1"
   id="svg6"
   sodipodi:docname="jclicauthor.svg"
   inkscape:version="1.4 (unknown)"
   xmlns:inkscape="http://www.inkscape.org/namespaces/inkscape"
   xmlns:sodipodi="http://sodipodi.sourceforge.net/DTD/sodipodi-0.dtd"
   xmlns:xlink="http://www.w3.org/1999/xlink"
   xmlns="http://www.w3.org/2000/svg"
   xmlns:svg="http://www.w3.org/2000/svg">
  <defs
     id="defs6">
    <linearGradient
       id="linearGradient6"
       inkscape:collect="always">
      <stop
         style="stop-color:#ffa200;stop-opacity:1;"
         offset="0"
         id="stop6" />
      <stop
         style="stop-color:#ff4000;stop-opacity:1;"
         offset="1"
         id="stop7" />
    </linearGradient>
    <linearGradient
       inkscape:collect="always"
       xlink:href="#linearGradient6"
       id="linearGradient7"
       x1="21.409563"
       y1="12.371865"
       x2="42.847347"
       y2="34.081501"
       gradientUnits="userSpaceOnUse" />
    <linearGradient
       inkscape:collect="always"
       xlink:href="#linearGradient6"
       id="linearGradient9"
       x1="47.301422"
       y1="43.75679"
       x2="63"
       y2="58.90815"
       gradientUnits="userSpaceOnUse" />
  </defs>
  <sodipodi:namedview
     id="namedview6"
     pagecolor="#ffffff"
     bordercolor="#000000"
     borderopacity="0.25"
     inkscape:showpageshadow="2"
     inkscape:pageopacity="0.0"
     inkscape:pagecheckerboard="0"
     inkscape:deskcolor="#d1d1d1"
     inkscape:zoom="12.078125"
     inkscape:cx="32"
     inkscape:cy="32"
     inkscape:window-width="1920"
     inkscape:window-height="996"
     inkscape:window-x="0"
     inkscape:window-y="0"
     inkscape:window-maximized="1"
     inkscape:current-layer="svg6" />
  <g
     id="g6"
     transform="translate(-1,-0.50000007)">
    <path
       d="m 60,8 v 44 c 0,4 -4,4 -4,4 H 4 Z M 50,29.742 31.036,46 H 50 Z"
       style="fill:url(#linearGradient9)"
       id="path2" />
    <path
       d="m 23.969763,7.0002653 c -0.613326,0.013533 -1.146431,0.4246888 -1.315275,1.0144558 l -5.60013,19.6000449 c -0.212539,0.742952 0.217033,1.517619 0.959791,1.730864 l 19.60046,5.600013 c 0.742969,0.212534 1.517651,-0.217021 1.730902,-0.959769 L 44.945643,14.38583 C 45.15818,13.642878 44.728618,12.868212 43.985854,12.654964 L 24.385391,7.0549529 c -0.134963,-0.03898 -0.275135,-0.057423 -0.415628,-0.054688 z"
       style="fill:url(#linearGradient7)"
       id="path5" />
  </g>
</svg>
