<?xml version="1.0" encoding="UTF-8" standalone="no"?>
<svg
   width="62"
   height="62"
   viewBox="0 0 62 62"
   fill="none"
   version="1.1"
   id="svg5"
   sodipodi:docname="jclic.svg"
   inkscape:version="1.4 (unknown)"
   xmlns:inkscape="http://www.inkscape.org/namespaces/inkscape"
   xmlns:sodipodi="http://sodipodi.sourceforge.net/DTD/sodipodi-0.dtd"
   xmlns:xlink="http://www.w3.org/1999/xlink"
   xmlns="http://www.w3.org/2000/svg"
   xmlns:svg="http://www.w3.org/2000/svg">
  <sodipodi:namedview
     id="namedview5"
     pagecolor="#ffffff"
     bordercolor="#000000"
     borderopacity="0.25"
     inkscape:showpageshadow="2"
     inkscape:pageopacity="0.0"
     inkscape:pagecheckerboard="0"
     inkscape:deskcolor="#d1d1d1"
     inkscape:zoom="12.078125"
     inkscape:cx="31.172057"
     inkscape:cy="33.241915"
     inkscape:window-width="1920"
     inkscape:window-height="996"
     inkscape:window-x="0"
     inkscape:window-y="0"
     inkscape:window-maximized="1"
     inkscape:current-layer="svg5" />
  <g
     id="g5"
     transform="matrix(0.97310407,0,0,0.96552097,-0.13939199,0.10343722)">
    <path
       d="m 36.7615,14.6416 c 0,0 12.3898,3.3164 18.4673,4.942 0.8642,0.232 1.598,0.8005 2.0359,1.5806 0.438,0.7787 0.5438,1.7025 0.2929,2.5609 -1.9692,6.7184 -6.2949,21.4763 -6.2949,21.4763 C 45.4622,59.7533 33.493,63.2321 23.7105,59.7533 3.40883,53.9325 10.6594,29.1935 10.6594,29.1935 c 0,0 11.3863,3.2642 17.1041,4.9043 0.8469,0.2422 1.7576,0.1392 2.5276,-0.29 0.77,-0.4278 1.3399,-1.1441 1.5806,-1.9925 1.6329,-5.7352 4.8898,-17.1737 4.8898,-17.1737 z"
       id="path1"
       style="fill:url(#linearGradient9)" />
    <path
       opacity="0.5"
       d="m 13.5291,3.00029 c -0.6366,0.0145 -1.1877,0.44229 -1.3632,1.05424 L 6.36548,24.4272 c -0.22042,0.7729 0.22477,1.5777 0.99478,1.7996 l 20.30164,5.8208 c 0.7686,0.2204 1.5719,-0.2262 1.7923,-0.9977 L 35.2547,10.6772 C 35.4751,9.9043 35.0299,9.09948 34.2599,8.87761 L 13.9583,3.05684 C 13.8191,3.01624 13.6741,2.99739 13.5291,3.00029 Z"
       id="path2"
       style="fill:url(#linearGradient7);opacity:1" />
  </g>
  <defs
     id="defs5">
    <linearGradient
       id="linearGradient5"
       inkscape:collect="always">
      <stop
         style="stop-color:#ffa200;stop-opacity:1;"
         offset="0"
         id="stop6" />
      <stop
         style="stop-color:#ff4000;stop-opacity:1;"
         offset="1"
         id="stop7" />
    </linearGradient>
    <linearGradient
       id="paint0_linear_343_511"
       x1="57.691101"
       y1="60.999802"
       x2="19.1663"
       y2="20.419701"
       gradientUnits="userSpaceOnUse">
      <stop
         stop-color="#FF4000"
         id="stop2" />
      <stop
         offset="0.905415"
         stop-color="#FFA200"
         id="stop3" />
    </linearGradient>
    <linearGradient
       id="paint1_linear_343_511"
       x1="35.3111"
       y1="32.103901"
       x2="11.0931"
       y2="7.7002602"
       gradientUnits="userSpaceOnUse">
      <stop
         stop-color="#FF4000"
         id="stop4" />
      <stop
         offset="0.905415"
         stop-color="#FFA200"
         id="stop5" />
    </linearGradient>
    <linearGradient
       inkscape:collect="always"
       xlink:href="#linearGradient5"
       id="linearGradient7"
       x1="14.477018"
       y1="5.4610562"
       x2="35.311089"
       y2="30.15732"
       gradientUnits="userSpaceOnUse" />
    <linearGradient
       inkscape:collect="always"
       xlink:href="#linearGradient5"
       id="linearGradient9"
       x1="29.454201"
       y1="31.0499"
       x2="51.73526"
       y2="55.742626"
       gradientUnits="userSpaceOnUse" />
  </defs>
</svg>
