<?xml version="1.0" encoding="UTF-8" standalone="no"?>
<svg
   width="62"
   height="62"
   version="1.1"
   id="svg29"
   sodipodi:docname="jd-gui.svg"
   inkscape:version="1.4 (unknown)"
   xmlns:inkscape="http://www.inkscape.org/namespaces/inkscape"
   xmlns:sodipodi="http://sodipodi.sourceforge.net/DTD/sodipodi-0.dtd"
   xmlns:xlink="http://www.w3.org/1999/xlink"
   xmlns="http://www.w3.org/2000/svg"
   xmlns:svg="http://www.w3.org/2000/svg">
  <defs
     id="defs29">
    <linearGradient
       id="linearGradient29"
       inkscape:collect="always">
      <stop
         style="stop-color:#2d3d53;stop-opacity:1;"
         offset="0"
         id="stop29" />
      <stop
         style="stop-color:#ffb380;stop-opacity:1"
         offset="1"
         id="stop30" />
    </linearGradient>
    <linearGradient
       inkscape:collect="always"
       xlink:href="#linearGradient29"
       id="linearGradient30"
       x1="30.782633"
       y1="60"
       x2="30.193521"
       y2="5"
       gradientUnits="userSpaceOnUse"
       gradientTransform="matrix(0.98214286,0,0,0.98245614,-0.42857152,-0.92982455)" />
    <linearGradient
       id="b"
       x2="1"
       gradientTransform="matrix(-0.64808099,48.735048,-48.437395,-0.65206352,-1162.5798,-10.083148)"
       gradientUnits="userSpaceOnUse">
      <stop
         stop-color="#fff"
         offset="0"
         id="stop3" />
      <stop
         stop-color="#ececec"
         offset="1"
         id="stop4" />
    </linearGradient>
  </defs>
  <sodipodi:namedview
     id="namedview29"
     pagecolor="#ffffff"
     bordercolor="#000000"
     borderopacity="0.25"
     inkscape:showpageshadow="2"
     inkscape:pageopacity="0.0"
     inkscape:pagecheckerboard="0"
     inkscape:deskcolor="#d1d1d1"
     inkscape:zoom="10"
     inkscape:cx="28.4"
     inkscape:cy="31.35"
     inkscape:window-width="1920"
     inkscape:window-height="996"
     inkscape:window-x="0"
     inkscape:window-y="0"
     inkscape:window-maximized="1"
     inkscape:current-layer="svg29" />
  <rect
     style="opacity:0.2;stroke-width:0.9823"
     width="55"
     height="55.017544"
     x="3.5"
     y="3.9824562"
     ry="13.754386"
     id="rect1" />
  <rect
     style="fill:url(#linearGradient30);stroke-width:0.9823"
     width="55"
     height="55.017544"
     x="3.5"
     y="3"
     ry="13.754386"
     id="rect2" />
  <path
     style="opacity:0.1;fill:#ffffff;stroke-width:0.9823"
     d="M 17.25,3 C 9.6324999,3 3.4999999,9.1344561 3.4999999,16.754386 v 0.982456 c 0,-7.61993 6.1325,-13.7543858 13.7500001,-13.7543858 h 27.5 c 7.6175,0 13.75,6.1344558 13.75,13.7543858 V 16.754386 C 58.5,9.1344561 52.3675,3 44.75,3 Z"
     id="path28" />
  <path
     d="M 28.868766,30.853633 C 24.90128,27.291842 21.990313,24.156109 23.9442,21.238064 26.810123,16.954649 34.751715,14.87825 32.996636,8 c 0,0 4.350593,4.32958 -4.125216,10.987516 -6.79496,5.341406 -1.549615,8.387419 -0.0025,11.866117 z m 0,0 h 0.38972 c -0.275715,-0.620019 -0.678696,-1.226853 -1.100238,-1.834975 0.351282,-0.0048 0.509034,-0.02892 0.710518,-0.02892 0.47191,0 0.49577,0.01321 1.630469,0.07111 0.216075,0.695217 0.0928,1.332391 -0.144485,1.857447 -0.752932,-0.03659 -0.623021,-0.06462 -1.485984,-0.06462 z m -2.615395,-1.81256 c 0.604477,0.593642 1.256672,1.145045 1.931386,1.81256 -5.318236,0.04901 -7.881935,0.788875 -8.850915,1.329751 0.96898,0.540863 4.23126,1.329745 9.534924,1.329745 5.303676,0 8.565939,-0.788882 9.534942,-1.329745 -0.754247,-0.420847 -2.362193,-0.985429 -5.767627,-1.218948 0.528916,-0.486779 1.035288,-1.069847 1.311018,-1.75715 2.87651,0.271771 5.555517,0.882546 6.349552,2.290115 0.589879,-0.262532 1.185076,-0.41026 1.743146,-0.41026 0.689305,0 1.304371,0.213697 1.778938,0.617371 1.475372,1.253236 1.166517,3.945698 -0.705205,6.129012 -1.460799,1.705662 -4.024502,1.889055 -5.059779,1.889055 -0.07559,0 -0.125906,-6.05e-4 -0.17896,-0.0018 -0.397658,0.497261 -0.839075,0.955054 -1.30834,1.381127 2.233608,0.593733 3.929022,1.543472 3.929022,3.017063 0,3.064452 -7.303974,3.881031 -11.61875,3.881031 -4.316112,0 -11.617438,-0.816579 -11.617438,-3.881036 0,-1.473591 1.692766,-2.42333 3.927701,-3.017063 C 18.778395,38.914812 17.25,35.731593 17.25,32.183005 c 0.0018,-2.481429 5.579387,-3.020954 9.003371,-3.142327 z m 15.786426,3.910073 c -0.420209,0 -1.00613,0.191266 -1.618535,0.597601 -0.168357,1.513105 -0.613753,2.94045 -1.284495,4.229343 0.847034,-0.120033 1.91811,-0.415539 2.551743,-1.154316 1.214255,-1.416819 1.485989,-3.016996 0.915988,-3.501121 -0.133887,-0.112161 -0.324771,-0.171507 -0.564701,-0.171507 z m -6.971259,9.709216 c 0.03979,0.1162 0.06756,0.238802 0.06756,0.372002 0,1.700418 -3.40544,2.057981 -6.259423,2.057981 -2.856636,0 -6.260746,-0.357563 -6.260746,-2.057981 0,-0.131929 0.02777,-0.254531 0.06757,-0.370618 -2.276049,0.476223 -3.447866,1.131864 -3.553902,1.477445 0.178948,0.539568 3.33914,1.997211 9.747037,1.997211 6.405218,0 9.5694,-1.457643 9.748365,-2.038075 -0.105993,-0.321929 -1.279196,-0.966997 -3.556552,-1.437965 z m -4.313461,-14.74193 c -6.844004,-7.847847 7.48692,-11.409666 7.48692,-11.409666 -9.130646,5.268846 -7.444505,6.797779 -5.245361,9.872819 2.355574,3.297978 -2.771789,5.932384 -2.771789,5.932384 0,0 2.5491,-2.081664 0.53023,-4.395537 z"
     id="path4"
     style="fill:#f2f2f2;fill-opacity:1;stroke-width:0.804403" />
</svg>
