<?xml version="1.0" encoding="UTF-8" standalone="no"?>
<svg
   width="62"
   height="62"
   version="1"
   id="svg7"
   sodipodi:docname="jdeveloper.svg"
   inkscape:version="1.4 (unknown)"
   xmlns:inkscape="http://www.inkscape.org/namespaces/inkscape"
   xmlns:sodipodi="http://sodipodi.sourceforge.net/DTD/sodipodi-0.dtd"
   xmlns="http://www.w3.org/2000/svg"
   xmlns:svg="http://www.w3.org/2000/svg">
  <defs
     id="defs7" />
  <sodipodi:namedview
     id="namedview7"
     pagecolor="#ffffff"
     bordercolor="#000000"
     borderopacity="0.25"
     inkscape:showpageshadow="2"
     inkscape:pageopacity="0.0"
     inkscape:pagecheckerboard="0"
     inkscape:deskcolor="#d1d1d1"
     inkscape:zoom="12.078125"
     inkscape:cx="32"
     inkscape:cy="32"
     inkscape:window-width="1920"
     inkscape:window-height="996"
     inkscape:window-x="0"
     inkscape:window-y="0"
     inkscape:window-maximized="1"
     inkscape:current-layer="svg7" />
  <g
     id="g7"
     transform="matrix(0.98214286,0,0,0.98245614,-0.42857152,-0.92982455)">
    <path
       style="fill:#f2f2f2;fill-opacity:1"
       d="m 54.512195,32.228659 c 0,15.463973 -5.066515,26.551829 -20.530488,26.551829 C 24.247786,58.780488 14,53 8.6748226,47.495304 6.9767682,44.944314 5.6860444,42.098887 4.895536,39.051908 4.3110283,36.798949 5,34.435797 5,32 5,16.536027 16.993344,7.8109756 32.457317,7.8109756 c 15.463973,0 22.054878,8.9537104 22.054878,24.4176834 z"
       id="path1" />
    <path
       style="fill:#b380ff"
       d="M 31.099609,19.099609 C 18.341832,19.099609 8,29.441442 8,42.199219 c 0.00797,1.73984 0.2245449,3.471808 0.6210938,5.164062 0.00113,0.0078 0.00466,0.01937 0.00586,0.02734 A 28,28 0 0 0 22.576172,58.330078 c 0.354452,0.0054 0.722388,0.04328 1.126953,0.166016 2.260682,-0.04002 4.552441,-0.190867 6.697266,-0.195313 -1.114625,-3.436055 -5.497857,-9.428809 -5.59961,-15.40039 1.624704,-10.077395 6.91248,-18.681656 16.019531,-21.626953 -3.043592,-1.4229 -6.36094,-2.164756 -9.720703,-2.173829 z"
       id="path2" />
    <path
       style="fill:#8b8ba7;fill-opacity:1"
       d="M 33.935,27.657813 C 28.518121,31.60381 24.510101,37.898257 24.5,44.6 24.506613,50.035524 23,58 31.748623,59.134672 32.151536,59.186929 33.706728,58.728052 34,59 39.018408,58.803802 42.296568,58.253193 46.290234,55.769922 37.262462,55.442044 30.110221,48.03372 30.1,39 c 0.0078,-4.20237 0.990071,-8.249233 3.835,-11.342187 z"
       id="path3" />
    <path
       style="fill:#00ccff"
       d="M 36.099609,21 C 23.341832,21 13,31.341832 13,44.099609 c 0.0086,3.678013 0.899931,7.291139 2.582031,10.546875 a 28,28 0 0 0 14.910157,5.277344 c -0.227612,-0.630046 -0.5451,-1.33387 -0.917969,-2.099609 C 26.625331,54.122462 25.013719,49.533515 25,44.800781 25.0097,38.850936 29.207637,31.832505 33.634766,27.857422 38.431199,23.418739 44.388672,22.564453 44.388672,22.564453 41.745435,21.538903 38.934813,21.008323 36.099609,21 Z"
       id="path4" />
    <path
       style="opacity:0.2"
       d="M 32,5 A 28,28 0 0 0 4,33 28,28 0 0 0 5.0722656,40.650391 21,21 0 0 1 5,39 21,21 0 0 1 26,18 21,21 0 0 1 47,39 21,21 0 0 1 26,60 21,21 0 0 1 24.386719,59.917969 28,28 0 0 0 32,61 28,28 0 0 0 60,33 28,28 0 0 0 32,5 Z"
       id="path5" />
    <path
       style="fill:#c83771"
       d="M 32,4 A 28,28 0 0 0 4,32 28,28 0 0 0 5.0722656,39.650391 21,21 0 0 1 5,38 21,21 0 0 1 26,17 21,21 0 0 1 47,38 21,21 0 0 1 26,59 21,21 0 0 1 24.386719,58.917969 28,28 0 0 0 32,60 28,28 0 0 0 60,32 28,28 0 0 0 32,4 Z"
       id="path6" />
    <path
       style="opacity:0.2;fill:#ffffff"
       d="M 32,4 A 28,28 0 0 0 4,32 28,28 0 0 0 4.0214844,32.410156 28,28 0 0 1 32,5 28,28 0 0 1 59.978516,32.585938 28,28 0 0 0 60,32 28,28 0 0 0 32,4 Z M 46.978516,38.414062 A 21,21 0 0 1 26,59 21,21 0 0 1 24.386719,58.917969 28,28 0 0 0 28.869141,59.779297 21,21 0 0 0 47,39 21,21 0 0 0 46.978516,38.414062 Z M 5.0234375,38.535156 A 21,21 0 0 0 5,39 a 21,21 0 0 0 0.019531,0.431641 28,28 0 0 0 0.052734,0.21875 21,21 0 0 1 -0.048827,-1.115235 z"
       id="path7" />
  </g>
</svg>
