<?xml version="1.0" encoding="UTF-8" standalone="no"?>
<svg
   width="62"
   height="62"
   version="1.1"
   id="svg4"
   sodipodi:docname="JForex.svg"
   inkscape:version="1.4 (unknown)"
   xmlns:inkscape="http://www.inkscape.org/namespaces/inkscape"
   xmlns:sodipodi="http://sodipodi.sourceforge.net/DTD/sodipodi-0.dtd"
   xmlns="http://www.w3.org/2000/svg"
   xmlns:svg="http://www.w3.org/2000/svg">
  <defs
     id="defs4" />
  <sodipodi:namedview
     id="namedview4"
     pagecolor="#ffffff"
     bordercolor="#000000"
     borderopacity="0.25"
     inkscape:showpageshadow="2"
     inkscape:pageopacity="0.0"
     inkscape:pagecheckerboard="0"
     inkscape:deskcolor="#d1d1d1"
     inkscape:zoom="12.078125"
     inkscape:cx="32"
     inkscape:cy="32"
     inkscape:window-width="1920"
     inkscape:window-height="996"
     inkscape:window-x="0"
     inkscape:window-y="0"
     inkscape:window-maximized="1"
     inkscape:current-layer="svg4" />
  <g
     id="g4"
     transform="matrix(0.98214286,0,0,0.98245614,-0.42857152,-0.92982455)">
    <circle
       style="opacity:0.2"
       cx="32"
       cy="33"
       r="28"
       id="circle1" />
    <circle
       style="fill:#782144"
       cx="32"
       cy="32"
       r="28"
       id="circle2" />
    <path
       style="opacity:0.2"
       d="M 42.296876,6.9882812 C 37.682176,11.881765 34.834092,17.10856 33.457032,23.054688 31.67539,30.747786 31.957472,39.201304 32.125,51 h 10 C 42.03422,44.606208 42.02148,39.41049 42.1875,35 H 50 V 25 h -6.671876 c 1.170914,-4.828728 3.122778,-8.385949 7.617188,-12.570312 A 28,28 0 0 0 42.296876,6.9882812 Z M 30,12.945312 20,13.054688 C 20.175014,28.871858 19.687944,36.719724 18.285156,41.015624 17.042931,44.81982 14.976168,46.892916 10.589844,51 a 28,28 0 0 0 7.742187,6.425782 C 22.63458,53.33456 25.96018,49.733832 27.792968,44.121094 29.985518,37.406624 30.177002,28.942074 30,12.945312 Z"
       id="path2" />
    <path
       style="fill:#f2f2f2;fill-opacity:1"
       d="M 42.296876,5.9882812 C 37.682176,10.881765 34.834092,16.10856 33.457032,22.054688 31.67539,29.747786 31.957472,38.201304 32.125,50 h 10 C 42.03422,43.606208 42.02148,38.41049 42.1875,34 H 50 V 24 h -6.671876 c 1.170914,-4.828729 3.122778,-8.385949 7.617188,-12.570312 A 28,28 0 0 0 42.296876,5.9882812 Z M 30,11.945312 20,12.054688 C 20.175014,27.871858 19.687944,35.719724 18.285156,40.015624 17.042931,43.81982 14.976168,45.892916 10.589844,50 a 28,28 0 0 0 7.742187,6.425782 C 22.63458,52.33456 25.96018,48.733832 27.792968,43.121094 29.985518,36.406624 30.177002,27.942074 30,11.945312 Z"
       id="path3" />
    <path
       style="opacity:0.1;fill:#ffffff"
       d="M 32,4 A 28,28 0 0 0 4,32 28,28 0 0 0 4.0175781,32.492188 28,28 0 0 1 32,5 28,28 0 0 1 59.974609,32.492188 28,28 0 0 0 60,32 28,28 0 0 0 32,4 Z"
       id="path4" />
  </g>
</svg>
