<?xml version="1.0" encoding="UTF-8" standalone="no"?>
<svg
   width="62"
   height="62"
   viewBox="0 0 62 62"
   version="1.1"
   id="svg40"
   sodipodi:docname="jprofiler.svg"
   inkscape:version="1.4 (unknown)"
   xmlns:inkscape="http://www.inkscape.org/namespaces/inkscape"
   xmlns:sodipodi="http://sodipodi.sourceforge.net/DTD/sodipodi-0.dtd"
   xmlns:xlink="http://www.w3.org/1999/xlink"
   xmlns="http://www.w3.org/2000/svg"
   xmlns:svg="http://www.w3.org/2000/svg">
  <sodipodi:namedview
     id="namedview42"
     pagecolor="#ffffff"
     bordercolor="#666666"
     borderopacity="1.0"
     inkscape:showpageshadow="2"
     inkscape:pageopacity="0.0"
     inkscape:pagecheckerboard="0"
     inkscape:deskcolor="#d1d1d1"
     showgrid="false"
     inkscape:zoom="6.9532167"
     inkscape:cx="26.822118"
     inkscape:cy="43.648862"
     inkscape:window-width="1920"
     inkscape:window-height="996"
     inkscape:window-x="0"
     inkscape:window-y="0"
     inkscape:window-maximized="1"
     inkscape:current-layer="svg40" />
  <defs
     id="defs22">
    <linearGradient
       id="linearGradient24"
       inkscape:collect="always">
      <stop
         style="stop-color:#e9afc6;stop-opacity:1"
         offset="0"
         id="stop23" />
      <stop
         style="stop-color:#c83771;stop-opacity:1"
         offset="1"
         id="stop24" />
    </linearGradient>
    <linearGradient
       id="linearGradient23"
       inkscape:collect="always">
      <stop
         style="stop-color:#5599ff;stop-opacity:1"
         offset="0"
         id="stop20" />
      <stop
         style="stop-color:#0055d4;stop-opacity:1"
         offset="1"
         id="stop21" />
    </linearGradient>
    <linearGradient
       id="linearGradient12"
       inkscape:collect="always">
      <stop
         style="stop-color:#566c80;stop-opacity:1;"
         offset="0"
         id="stop13" />
      <stop
         style="stop-color:#29343d;stop-opacity:1;"
         offset="1"
         id="stop15" />
    </linearGradient>
    <linearGradient
       id="linearGradient3"
       inkscape:collect="always">
      <stop
         style="stop-color:#b4c3cb;stop-opacity:1;"
         offset="0"
         id="stop10" />
      <stop
         style="stop-color:#f0f3f4;stop-opacity:1;"
         offset="1"
         id="stop11" />
    </linearGradient>
    <linearGradient
       id="a"
       y1="542.79999"
       y2="503.79999"
       x2="0"
       gradientUnits="userSpaceOnUse"
       gradientTransform="translate(-384.57,504.56)">
      <stop
         stop-color="#f39c12"
         id="stop2" />
      <stop
         offset="1"
         stop-color="#f5ab35"
         id="stop4" />
    </linearGradient>
    <linearGradient
       id="b"
       y1="505.79999"
       y2="541.79999"
       x2="0"
       gradientUnits="userSpaceOnUse"
       gradientTransform="translate(-384.57,504.56)">
      <stop
         stop-color="#fffcde"
         id="stop7" />
      <stop
         offset="1"
         stop-color="#fafac5"
         id="stop9" />
    </linearGradient>
    <radialGradient
       cx="24"
       cy="1028.36"
       id="c"
       r="16"
       gradientUnits="userSpaceOnUse"
       gradientTransform="matrix(1.23105,0.00334,-0.00334,1.23128,-2.11,-237.92)">
      <stop
         stop-color="#f47750"
         id="stop12" />
      <stop
         offset="1"
         stop-color="#fdbc4b"
         id="stop14" />
    </radialGradient>
    <linearGradient
       id="d"
       y1="23.23"
       x1="23.701"
       y2="37.955002"
       x2="37.995998"
       gradientUnits="userSpaceOnUse">
      <stop
         id="stop17" />
      <stop
         offset="1"
         stop-opacity="0"
         id="stop19" />
    </linearGradient>
    <linearGradient
       id="a-3"
       gradientUnits="userSpaceOnUse"
       x1="4"
       x2="4"
       y1="3"
       y2="45"
       gradientTransform="matrix(0.7,0,0,0.7,-46.472111,-64.726388)">
      <stop
         offset="0"
         stop-color="#f10000"
         id="stop9919" />
      <stop
         offset="1"
         stop-color="#b20000"
         id="stop9921" />
    </linearGradient>
    <linearGradient
       id="b-6"
       x1="7.9000001"
       x2="56.169998"
       y1="19.867001"
       y2="19.867001"
       gradientUnits="userSpaceOnUse">
      <stop
         offset="0"
         stop-color="#fff"
         stop-opacity=".454"
         id="stop7-7" />
      <stop
         offset="1"
         stop-color="#fff"
         stop-opacity=".276"
         id="stop8" />
    </linearGradient>
    <linearGradient
       id="c-5"
       x1="528.77002"
       x2="537.94"
       y1="1036.3"
       y2="92.612"
       gradientTransform="matrix(0.06351,0,0,0.06350999,-1.6240005,-1.2040005)"
       gradientUnits="userSpaceOnUse">
      <stop
         offset="0"
         stop-color="#351f1f"
         id="stop1" />
      <stop
         offset="1"
         stop-color="#352b1f"
         stop-opacity="0"
         id="stop2-3" />
    </linearGradient>
    <filter
       id="d-5"
       width="1.1238046"
       height="1.050741"
       x="-0.061902313"
       y="-0.025370513"
       color-interpolation-filters="sRGB">
      <feGaussianBlur
         stdDeviation=".301"
         id="feGaussianBlur11" />
    </filter>
    <linearGradient
       id="e"
       x1="33.569"
       x2="38.583"
       y1="19.695"
       y2="21.627001"
       gradientUnits="userSpaceOnUse">
      <stop
         offset="0"
         stop-color="#f4f4f4"
         id="stop5" />
      <stop
         offset="1"
         stop-color="#bfbfbf"
         id="stop6" />
    </linearGradient>
    <filter
       id="f"
       width="1.1199796"
       height="1.1199803"
       x="-0.05998981"
       y="-0.059990131"
       color-interpolation-filters="sRGB">
      <feGaussianBlur
         stdDeviation=".304"
         id="feGaussianBlur10" />
    </filter>
    <linearGradient
       id="g"
       x1="31.926001"
       x2="31.618"
       y1="26.908001"
       y2="39.216"
       gradientUnits="userSpaceOnUse">
      <stop
         offset="0"
         stop-color="#fff"
         id="stop3" />
      <stop
         offset="1"
         stop-color="#d0d0d0"
         id="stop4-6" />
    </linearGradient>
    <linearGradient
       id="paint114_linear_890_11"
       x1="255"
       y1="861"
       x2="278"
       y2="919"
       gradientUnits="userSpaceOnUse">
      <stop
         stop-color="#EFF2F6"
         id="stop970" />
      <stop
         offset="1"
         stop-color="#B7C6CD"
         id="stop971" />
    </linearGradient>
    <linearGradient
       id="paint115_linear_890_11"
       x1="283"
       y1="899"
       x2="283"
       y2="903"
       gradientUnits="userSpaceOnUse">
      <stop
         stop-color="white"
         id="stop972" />
      <stop
         offset="0.705"
         stop-color="#E6E6E6"
         id="stop973" />
    </linearGradient>
    <linearGradient
       id="paint116_linear_890_11"
       x1="305.082"
       y1="889"
       x2="287.522"
       y2="853.74701"
       gradientUnits="userSpaceOnUse">
      <stop
         offset="0.342196"
         stop-color="#2E2E41"
         id="stop974" />
      <stop
         offset="0.81453198"
         stop-color="#566C80"
         id="stop975"
         style="stop-color:#566c80;stop-opacity:1;" />
    </linearGradient>
    <linearGradient
       id="paint117_linear_890_11"
       x1="264.38901"
       y1="886.04797"
       x2="264.90601"
       y2="884.11603"
       gradientUnits="userSpaceOnUse"
       gradientTransform="matrix(1,0,0,0.91363636,-252,-781.22272)">
      <stop
         offset="0.338659"
         stop-color="#EFF2F6"
         id="stop976" />
      <stop
         offset="1"
         stop-color="#B7C6CD"
         id="stop977" />
    </linearGradient>
    <linearGradient
       id="paint118_linear_890_11"
       x1="266.04599"
       y1="881.36603"
       x2="267.04599"
       y2="879.63397"
       gradientUnits="userSpaceOnUse"
       gradientTransform="matrix(1,0,0,0.91363636,-252,-781.22272)">
      <stop
         offset="0.338659"
         stop-color="#EFF2F6"
         id="stop978" />
      <stop
         offset="1"
         stop-color="#B7C6CD"
         id="stop979" />
    </linearGradient>
    <linearGradient
       id="paint119_linear_890_11"
       x1="268.858"
       y1="877.27197"
       x2="270.272"
       y2="875.85797"
       gradientUnits="userSpaceOnUse"
       gradientTransform="matrix(1,0,0,0.91363636,-252,-781.22272)">
      <stop
         offset="0.338659"
         stop-color="#EFF2F6"
         id="stop980" />
      <stop
         offset="1"
         stop-color="#B7C6CD"
         id="stop981" />
    </linearGradient>
    <linearGradient
       id="paint120_linear_890_11"
       x1="272.634"
       y1="874.04602"
       x2="274.366"
       y2="873.04602"
       gradientUnits="userSpaceOnUse"
       gradientTransform="matrix(1,0,0,0.91363636,-252,-781.22272)">
      <stop
         offset="0.338659"
         stop-color="#EFF2F6"
         id="stop982" />
      <stop
         offset="1"
         stop-color="#B7C6CD"
         id="stop983" />
    </linearGradient>
    <linearGradient
       id="paint121_linear_890_11"
       x1="284"
       y1="876.72699"
       x2="282"
       y2="876.72699"
       gradientUnits="userSpaceOnUse">
      <stop
         stop-color="#FF7E07"
         id="stop984" />
      <stop
         offset="1"
         stop-color="#FFE607"
         id="stop985" />
    </linearGradient>
    <linearGradient
       id="paint123_linear_890_11"
       x1="277.117"
       y1="871.90601"
       x2="279.048"
       y2="871.38898"
       gradientUnits="userSpaceOnUse"
       gradientTransform="matrix(1,0,0,0.91363636,-252,-781.22272)">
      <stop
         offset="0.338659"
         stop-color="#EFF2F6"
         id="stop988" />
      <stop
         offset="1"
         stop-color="#B7C6CD"
         id="stop989" />
    </linearGradient>
    <linearGradient
       id="paint124_linear_890_11"
       x1="286.952"
       y1="871.38898"
       x2="288.883"
       y2="871.90601"
       gradientUnits="userSpaceOnUse"
       gradientTransform="matrix(1,0,0,0.91363636,-252,-781.22272)">
      <stop
         offset="0.338659"
         stop-color="#EFF2F6"
         id="stop990" />
      <stop
         offset="1"
         stop-color="#B7C6CD"
         id="stop991" />
    </linearGradient>
    <linearGradient
       id="paint125_linear_890_11"
       x1="291.634"
       y1="873.04498"
       x2="293.366"
       y2="874.04498"
       gradientUnits="userSpaceOnUse"
       gradientTransform="matrix(1,0,0,0.91363636,-252,-781.22272)">
      <stop
         offset="0.338659"
         stop-color="#EFF2F6"
         id="stop992" />
      <stop
         offset="1"
         stop-color="#B7C6CD"
         id="stop993" />
    </linearGradient>
    <linearGradient
       id="paint126_linear_890_11"
       x1="295.728"
       y1="875.85797"
       x2="297.142"
       y2="877.27197"
       gradientUnits="userSpaceOnUse"
       gradientTransform="matrix(1,0,0,0.91363636,-252,-781.22272)">
      <stop
         offset="0.338659"
         stop-color="#EFF2F6"
         id="stop994" />
      <stop
         offset="1"
         stop-color="#B7C6CD"
         id="stop995" />
    </linearGradient>
    <linearGradient
       id="paint127_linear_890_11"
       x1="298.95401"
       y1="879.63397"
       x2="299.95401"
       y2="881.36603"
       gradientUnits="userSpaceOnUse"
       gradientTransform="matrix(1,0,0,0.91363636,-252,-781.22272)">
      <stop
         offset="0.338659"
         stop-color="#EFF2F6"
         id="stop996" />
      <stop
         offset="1"
         stop-color="#B7C6CD"
         id="stop997" />
    </linearGradient>
    <linearGradient
       id="paint128_linear_890_11"
       x1="301.09399"
       y1="884.117"
       x2="301.61099"
       y2="886.04797"
       gradientUnits="userSpaceOnUse"
       gradientTransform="matrix(1,0,0,0.91363636,-252,-781.22272)">
      <stop
         offset="0.338659"
         stop-color="#EFF2F6"
         id="stop998" />
      <stop
         offset="1"
         stop-color="#B7C6CD"
         id="stop999" />
    </linearGradient>
    <linearGradient
       inkscape:collect="always"
       xlink:href="#linearGradient3"
       id="linearGradient11"
       x1="288.86441"
       y1="917"
       x2="269"
       y2="861"
       gradientUnits="userSpaceOnUse"
       gradientTransform="matrix(1,0,0,0.82142856,-252,-703.55909)" />
    <linearGradient
       inkscape:collect="always"
       xlink:href="#linearGradient23"
       id="linearGradient15"
       x1="281.03351"
       y1="852.37286"
       x2="305.0004"
       y2="878"
       gradientUnits="userSpaceOnUse"
       gradientTransform="matrix(1,0,0,0.91363636,-252,-781.22272)" />
    <linearGradient
       inkscape:collect="always"
       xlink:href="#linearGradient24"
       id="linearGradient18"
       x1="282"
       y1="880"
       x2="284"
       y2="880"
       gradientUnits="userSpaceOnUse"
       gradientTransform="matrix(1,0,0,0.91363636,-252,-781.22272)" />
    <linearGradient
       inkscape:collect="always"
       xlink:href="#linearGradient24"
       id="linearGradient21"
       x1="282"
       y1="871"
       x2="284"
       y2="871"
       gradientUnits="userSpaceOnUse"
       gradientTransform="matrix(1,0,0,0.91363636,-252,-781.22272)" />
    <linearGradient
       inkscape:collect="always"
       xlink:href="#linearGradient12"
       id="linearGradient22"
       x1="283"
       y1="899"
       x2="283"
       y2="903"
       gradientUnits="userSpaceOnUse"
       gradientTransform="translate(-252,-858)" />
  </defs>
  <g
     id="g23"
     transform="translate(0,4.30909)">
    <path
       d="M 3,26.690909 C 3,13.988339 15.536,3.69091 31,3.69091 c 15.464,0 28,10.297429 28,22.999999 v 18.07143 c 0,2.722213 -2.686,4.928571 -6,4.928571 H 9 c -3.314,0 -6,-2.206358 -6,-4.928571 z"
       id="path112"
       style="fill:url(#linearGradient11);stroke-width:0.906327" />
    <path
       d="m 25,43 c 0,-1.105 0.895,-2 2,-2 h 8 c 1.105,0 2,0.895 2,2 0,1.105 -0.895,2 -2,2 h -8 c -1.105,0 -2,-0.895 -2,-2 z"
       id="path113"
       style="fill:url(#linearGradient22)" />
    <path
       d="m 51.075,31 c 1.109,0 2.017,-0.820445 1.918,-1.826359 C 51.979,18.929036 42.52,10.9 31,10.9 19.48,10.9 10.021,18.929036 9.007,29.173641 8.908,30.179555 9.816,31 10.925,31 Z"
       id="path114"
       style="fill:url(#linearGradient15);stroke-width:0.955843" />
    <path
       d="m 14.579,27.893636 c -0.143,0.487882 -0.691,0.776591 -1.224,0.645941 l -1.932,-0.47235 c -0.534,-0.13065 -0.85,-0.632236 -0.707,-1.119204 0.143,-0.487882 0.691,-0.776591 1.224,-0.645941 l 1.932,0.47235 c 0.534,0.13065 0.85,0.632236 0.707,1.119204 z"
       id="path115"
       style="fill:url(#paint117_linear_890_11);stroke-width:0.955843" />
    <path
       d="m 16.278,24.147727 c -0.277,0.436718 -0.888,0.586555 -1.366,0.334391 l -1.733,-0.913636 c -0.478,-0.252164 -0.642,-0.811309 -0.366,-1.248027 0.277,-0.436719 0.888,-0.586555 1.366,-0.334391 l 1.733,0.913636 c 0.478,0.252164 0.642,0.811309 0.366,1.248027 z"
       id="path116"
       style="fill:url(#paint118_linear_890_11);stroke-width:0.955843" />
    <path
       d="m 18.979,20.930814 c -0.39,0.357231 -1.024,0.357231 -1.414,0 l -1.414,-1.291882 c -0.391,-0.357232 -0.391,-0.935564 0,-1.291882 0.39,-0.357232 1.023,-0.357232 1.414,0 l 1.414,1.291882 c 0.391,0.356318 0.391,0.935563 0,1.291882 z"
       id="path117"
       style="fill:url(#paint119_linear_890_11);stroke-width:0.955843" />
    <path
       d="m 22.5,18.463082 c -0.478,0.252163 -1.09,0.102327 -1.366,-0.334391 l -1,-1.583332 c -0.276,-0.436718 -0.112,-0.99495 0.366,-1.248027 0.478,-0.252164 1.09,-0.102327 1.366,0.334391 l 1,1.583332 c 0.276,0.436718 0.112,0.99495 -0.366,1.248027 z"
       id="path118"
       style="fill:url(#paint120_linear_890_11);stroke-width:0.955843" />
    <path
       d="m 30,15.468182 c 0,0.504327 0.448,0.913636 1,0.913636 0.552,0 1,-0.409309 1,-0.913636 v -1.827273 c 0,-0.504327 -0.448,-0.913636 -1,-0.913636 -0.552,0 -1,0.409309 -1,0.913636 z"
       id="path119"
       style="fill:url(#linearGradient21);stroke-width:0.955843" />
    <path
       d="m 31,18.209091 c -0.552,0 -1,0.409309 -1,0.913636 v 7.309091 c 0,0.504327 0.448,0.913637 1,0.913637 0.552,0 1,-0.40931 1,-0.913637 V 19.122727 C 32,18.6184 31.552,18.209091 31,18.209091 Z"
       id="path120"
       style="fill:url(#linearGradient18);stroke-width:0.955843" />
    <path
       d="m 26.6,16.910814 c -0.533,0.13065 -1.082,-0.158059 -1.225,-0.645941 l -0.517,-1.765146 c -0.143,-0.486968 0.173,-0.988554 0.707,-1.118291 0.533,-0.13065 1.082,0.158059 1.225,0.645941 l 0.517,1.764232 c 0.143,0.487882 -0.173,0.988555 -0.707,1.119205 z"
       id="path121"
       style="fill:url(#paint123_linear_890_11);stroke-width:0.955843" />
    <path
       d="m 35.4,16.910814 c -0.534,-0.13065 -0.85,-0.631323 -0.707,-1.118291 l 0.517,-1.765146 c 0.143,-0.487882 0.692,-0.776591 1.225,-0.645941 0.534,0.13065 0.85,0.631323 0.707,1.118291 l -0.517,1.765146 c -0.143,0.487882 -0.692,0.776591 -1.225,0.645941 z"
       id="path122"
       style="fill:url(#paint124_linear_890_11);stroke-width:0.955843" />
    <path
       d="m 39.5,18.463082 c -0.478,-0.253077 -0.642,-0.811309 -0.366,-1.248027 l 1,-1.583332 c 0.276,-0.436718 0.888,-0.586555 1.366,-0.334391 0.478,0.253077 0.642,0.811309 0.366,1.248027 l -1,1.583332 c -0.276,0.436718 -0.888,0.586554 -1.366,0.334391 z"
       id="path123"
       style="fill:url(#paint125_linear_890_11);stroke-width:0.955843" />
    <path
       d="m 43.021,20.930814 c -0.391,-0.356319 -0.391,-0.93465 0,-1.291882 l 1.414,-1.291882 c 0.391,-0.357232 1.024,-0.357232 1.414,0 0.391,0.356318 0.391,0.93465 0,1.291882 l -1.414,1.291882 c -0.391,0.357231 -1.024,0.357231 -1.414,0 z"
       id="path124"
       style="fill:url(#paint126_linear_890_11);stroke-width:0.955843" />
    <path
       d="M 45.722,24.147727 C 45.446,23.711009 45.61,23.151864 46.088,22.8997 l 1.732,-0.913636 c 0.479,-0.252164 1.09,-0.102328 1.367,0.334391 0.276,0.436718 0.112,0.995863 -0.367,1.248027 l -1.732,0.913636 c -0.478,0.252164 -1.089,0.102327 -1.366,-0.334391 z"
       id="path125"
       style="fill:url(#paint127_linear_890_11);stroke-width:0.955843" />
    <path
       d="m 47.421,27.893636 c -0.143,-0.486968 0.173,-0.988554 0.707,-1.119204 l 1.932,-0.47235 c 0.533,-0.13065 1.082,0.158059 1.225,0.645941 0.142,0.486968 -0.174,0.988554 -0.708,1.119204 l -1.931,0.47235 c -0.534,0.13065 -1.082,-0.158059 -1.225,-0.645941 z"
       id="path126"
       style="fill:url(#paint128_linear_890_11);stroke-width:0.955843" />
  </g>
</svg>
