<?xml version="1.0" encoding="UTF-8" standalone="no"?>
<svg
   width="62"
   height="62"
   version="1"
   id="svg10"
   sodipodi:docname="junior_install_icon.svg"
   inkscape:version="1.4 (unknown)"
   xmlns:inkscape="http://www.inkscape.org/namespaces/inkscape"
   xmlns:sodipodi="http://sodipodi.sourceforge.net/DTD/sodipodi-0.dtd"
   xmlns="http://www.w3.org/2000/svg"
   xmlns:svg="http://www.w3.org/2000/svg">
  <defs
     id="defs10" />
  <sodipodi:namedview
     id="namedview10"
     pagecolor="#ffffff"
     bordercolor="#000000"
     borderopacity="0.25"
     inkscape:showpageshadow="2"
     inkscape:pageopacity="0.0"
     inkscape:pagecheckerboard="0"
     inkscape:deskcolor="#d1d1d1"
     inkscape:zoom="8.5405241"
     inkscape:cx="32.08234"
     inkscape:cy="37.292793"
     inkscape:window-width="1920"
     inkscape:window-height="996"
     inkscape:window-x="0"
     inkscape:window-y="0"
     inkscape:window-maximized="1"
     inkscape:current-layer="svg10" />
  <g
     id="g10"
     transform="translate(-1.5,-1)">
    <rect
       style="opacity:0.2"
       width="55"
       height="55"
       x="5"
       y="5"
       rx="16.5"
       ry="16.5"
       id="rect1" />
    <path
       style="fill:#233143;fill-opacity:1"
       d="m 21.5,4 h 22 C 52.641,4 60,11.359 60,20.5 v 22 c 0,2.073295 -0.378576,4.054916 -1.070656,5.87979 -2.359246,6.220862 -8.202816,9.374604 -15.270476,9.349269 L 21.5,57.649625 C 14.380713,57.624103 8.3422687,54.536146 6.0195398,48.243178 5.3599573,46.456171 5,44.521668 5,42.5 v -22 C 5,11.359 12.359,4 21.5,4 Z"
       id="path1" />
    <path
       style="opacity:0.2"
       d="m 46.425781,11.000125 c -1.692907,3.3515 -3.49917,7.31246 -5.255859,10.630859 -0.542819,-3.259495 -0.99753,-6.932145 -3.751953,-9.140625 C 36.101422,11.46822 34.415314,11.080402 32.777344,11.013797 27.082841,10.768724 21.993598,14.289501 18.507812,18.509891 15.107375,22.90271 12.97083,28.421324 13,34.007937 c 0.124905,3.553245 1.462986,7.575723 4.941406,9.140626 2.875525,1.296779 6.149172,0.833473 9.169922,0.419921 4.592124,-1.034463 8.189999,-4.368502 11.052734,-7.939453 0.547273,-0.888442 0.652775,-0.489336 0.605469,0.353516 0.143172,1.931494 -0.01657,4.067979 1.126953,5.728516 1.615886,1.936965 4.666392,1.189596 6.265625,-0.38086 1.852913,-1.891109 3.109767,-4.362516 3.783203,-6.90625 -1.688743,-0.315693 -1.889811,2.590417 -3.287109,3.320313 -1.308365,1.384346 -4.469755,1.902384 -5.068359,-0.427735 -0.539507,-1.969582 -0.32605,-4.034039 -0.357422,-6.052734 C 44.65344,24.824115 48.104971,17.452333 51.5,11.000125 Z m -14.335937,2.349609 c 3.3435,-0.148127 5.737593,2.932923 6.359375,5.941407 0.482379,1.979128 0.513482,4.023564 0.666015,6.044922 -2.523605,4.664647 -4.997408,9.473674 -8.710937,13.322265 -1.915924,1.796003 -4.551493,3.588319 -7.304688,2.925781 -2.628417,-0.646882 -4.003163,-3.418489 -3.986328,-5.953125 -0.05838,-3.144066 1.035234,-6.167099 1.820313,-9.173828 1.363168,-4.693386 3.499065,-9.588917 7.849609,-12.242187 0.989359,-0.614571 2.152709,-0.878886 3.306641,-0.865235 z M 28.5,22.000125 a 4.5,4.5 0 0 0 -4.5,4.5 4.5,4.5 0 0 0 4.5,4.5 4.5,4.5 0 0 0 4.5,-4.5 4.5,4.5 0 0 0 -4.5,-4.5 z"
       id="path2" />
    <path
       style="fill:#c83771"
       d="m 32.777195,10.013515 c -5.694503,-0.2450728 -10.783782,3.276509 -14.269568,7.496899 -3.400438,4.392819 -5.536502,9.910698 -5.507332,15.497311 0.124905,3.553245 1.462845,7.576256 4.941265,9.141158 2.875525,1.296779 6.149165,0.83282 9.169915,0.419268 4.592124,-1.034463 8.190398,-4.367683 11.053134,-7.938634 0.547273,-0.888442 0.652267,-0.489052 0.604961,0.3538 0.143172,1.931494 -0.01598,4.067673 1.127539,5.728209 1.615886,1.936965 4.665088,1.189505 6.264321,-0.380951 1.852913,-1.891109 3.110835,-4.363213 3.784272,-6.906947 -1.688744,-0.315693 -1.890046,2.590361 -3.287344,3.320257 -1.308365,1.384346 -4.470466,1.902244 -5.06907,-0.427875 -0.539507,-1.969582 -0.326092,-4.032881 -0.357464,-6.051576 3.421018,-6.439682 6.873148,-13.812231 10.268177,-20.2644391 H 46.424975 C 44.732068,13.351495 42.926721,17.312057 41.170032,20.630456 40.627213,17.370961 40.171546,13.698955 37.417123,11.490475 36.100576,10.468336 34.415165,10.080078 32.777195,10.013473 Z m -0.687762,2.335422 c 3.3435,-0.148127 5.737386,2.933982 6.359168,5.942466 0.482379,1.979128 0.513693,4.024127 0.666226,6.045485 -2.523605,4.664648 -4.996449,9.47189 -8.709978,13.320481 -1.915924,1.796003 -4.551552,3.589986 -7.304747,2.927448 -2.628417,-0.646882 -4.003758,-3.4197 -3.986923,-5.954336 -0.05838,-3.144066 1.03578,-6.166173 1.820859,-9.172902 1.363168,-4.693386 3.499481,-9.589222 7.850025,-12.242492 0.989359,-0.614571 2.151438,-0.879801 3.30537,-0.86615 z"
       id="path3" />
    <circle
       style="fill:#c83771"
       cx="28.5"
       cy="25.5"
       r="4.5"
       id="circle3" />
    <path
       style="fill:#00c97d"
       d="M 5.9506835,48 C 7.6028571,52.695474 11.304527,56.397143 16,58.049317 V 48 Z"
       id="path4" />
    <path
       style="fill:#00b37a"
       d="M 16,48 V 58.049317 C 17.721134,58.654923 19.566677,59 21.5,59 H 27 V 48 Z"
       id="path5" />
    <rect
       style="fill:#009e77"
       width="11"
       height="11"
       x="27"
       y="48"
       id="rect5" />
    <path
       style="fill:#008974"
       d="m 38,48 v 11 h 5.5 c 1.933323,0 3.778866,-0.345077 5.5,-0.950683 V 48 Z"
       id="path6" />
    <path
       style="fill:#006b6f"
       d="M 49,48 V 58.049317 C 53.695474,56.397143 57.397143,52.695474 59.049317,48 Z"
       id="path7" />
    <path
       style="opacity:0.1;fill:#ffffff"
       d="M 21.5,4 C 12.359,4 5,11.359 5,20.5 v 1 C 5,12.359 12.359,5 21.5,5 h 22 C 52.641,5 60,12.359 60,21.5 v -1 C 60,11.359 52.641,4 43.5,4 Z"
       id="path8" />
    <path
       style="opacity:0.1;fill:#ffffff"
       d="m 5.9511719,48 c 0.119268,0.338959 0.2523514,0.6718 0.3925781,1 h 52.3125 c 0.140227,-0.3282 0.27331,-0.661041 0.392578,-1 z"
       id="path9" />
    <path
       style="opacity:0.2;fill:#ffffff"
       d="m 46.425781,10 c -1.692907,3.3515 -3.49917,7.31246 -5.255859,10.630859 -0.542819,-3.259495 -0.99753,-6.932145 -3.751953,-9.140625 C 36.101422,10.468095 34.415314,10.080277 32.777344,10.013672 27.082841,9.768599 21.993598,13.289376 18.507812,17.509766 15.107375,21.902585 12.97083,27.4212 13,33.007812 c 0.004,0.115057 0.02072,0.233668 0.02734,0.34961 0.132598,-5.36266 2.212315,-10.625726 5.480468,-14.847656 3.485786,-4.22039 8.575029,-7.741167 14.269532,-7.496094 1.63797,0.06661 3.324078,0.454423 4.640625,1.476562 2.754423,2.20848 3.209134,5.88113 3.751953,9.140625 C 42.926611,18.31246 44.732874,14.3515 46.425781,11 h 4.560547 C 51.157017,10.671729 51.329585,10.323871 51.5,10 Z M 28.5,21 A 4.5,4.5 0 0 0 24,25.5 4.5,4.5 0 0 0 24.0332,26.011719 4.5,4.5 0 0 1 28.5,22 4.5,4.5 0 0 1 32.966797,25.988281 4.5,4.5 0 0 0 33,25.5 4.5,4.5 0 0 0 28.5,21 Z m 10.554688,3.449219 c -2.502591,4.629353 -4.966738,9.391355 -8.650391,13.208984 -1.915924,1.796003 -4.551493,3.588319 -7.304688,2.925781 -2.529183,-0.622459 -3.884029,-3.211141 -3.96875,-5.664062 -0.0082,0.236685 -0.022,0.47291 -0.01758,0.710937 -0.01684,2.534636 1.357911,5.306243 3.986328,5.953125 2.753195,0.662538 5.388764,-1.129778 7.304688,-2.925781 3.713529,-3.848591 6.187332,-8.657618 8.710937,-13.322265 -0.02225,-0.29488 -0.04169,-0.591132 -0.06055,-0.886719 z m 2.169921,8.919922 c -0.0122,1.330467 0.01225,2.658635 0.365235,3.947265 0.598604,2.330119 3.759994,1.812081 5.068359,0.427735 1.313349,-0.686044 1.569676,-3.29492 2.998047,-3.34375 0.105971,-0.323762 0.202429,-0.649326 0.289062,-0.976563 -1.688743,-0.315693 -1.889811,2.590417 -3.287109,3.320313 -1.308365,1.384346 -4.469755,1.902384 -5.068359,-0.427735 -0.264364,-0.965114 -0.345062,-1.953137 -0.365235,-2.947265 z"
       id="path10" />
  </g>
</svg>
