<?xml version="1.0" encoding="UTF-8" standalone="no"?>
<svg
   width="62"
   height="62"
   version="1.1"
   id="svg29"
   sodipodi:docname="k4dirstat.svg"
   inkscape:version="1.4 (unknown)"
   xmlns:inkscape="http://www.inkscape.org/namespaces/inkscape"
   xmlns:sodipodi="http://sodipodi.sourceforge.net/DTD/sodipodi-0.dtd"
   xmlns:xlink="http://www.w3.org/1999/xlink"
   xmlns="http://www.w3.org/2000/svg"
   xmlns:svg="http://www.w3.org/2000/svg">
  <defs
     id="defs29">
    <linearGradient
       id="linearGradient29"
       inkscape:collect="always">
      <stop
         style="stop-color:#008080;stop-opacity:1"
         offset="0"
         id="stop29" />
      <stop
         style="stop-color:#2ca05a;stop-opacity:1"
         offset="1"
         id="stop30" />
    </linearGradient>
    <linearGradient
       inkscape:collect="always"
       xlink:href="#linearGradient29"
       id="linearGradient30"
       x1="30.782633"
       y1="60"
       x2="30.193521"
       y2="5"
       gradientUnits="userSpaceOnUse"
       gradientTransform="matrix(0.98214286,0,0,0.98245614,-0.42857152,-0.92982455)" />
  </defs>
  <sodipodi:namedview
     id="namedview29"
     pagecolor="#ffffff"
     bordercolor="#000000"
     borderopacity="0.25"
     inkscape:showpageshadow="2"
     inkscape:pageopacity="0.0"
     inkscape:pagecheckerboard="0"
     inkscape:deskcolor="#d1d1d1"
     inkscape:zoom="7.0710678"
     inkscape:cx="25.385133"
     inkscape:cy="47.871129"
     inkscape:window-width="1920"
     inkscape:window-height="996"
     inkscape:window-x="0"
     inkscape:window-y="0"
     inkscape:window-maximized="1"
     inkscape:current-layer="svg29" />
  <g
     id="g1">
    <rect
       style="opacity:0.2;stroke-width:0.9823"
       width="55"
       height="55.017544"
       x="3.5"
       y="3.9824562"
       ry="13.754386"
       id="rect1" />
    <rect
       style="fill:url(#linearGradient30);stroke-width:0.9823"
       width="55"
       height="55.017544"
       x="3.5"
       y="3"
       ry="13.754386"
       id="rect2" />
    <path
       style="opacity:0.1;fill:#ffffff;stroke-width:0.9823"
       d="M 17.25,3 C 9.6324999,3 3.4999999,9.1344561 3.4999999,16.754386 v 0.982456 c 0,-7.61993 6.1325,-13.7543858 13.7500001,-13.7543858 h 27.5 c 7.6175,0 13.75,6.1344558 13.75,13.7543858 V 16.754386 C 58.5,9.1344561 52.3675,3 44.75,3 Z"
       id="path28" />
    <g
       transform="matrix(1.7500001,0,0,1.7500001,-25.890753,-22.774525)"
       id="g4">
      <rect
         x="21.509001"
         y="19.009001"
         width="12"
         height="6"
         ry="1"
         id="rect2-3"
         style="fill:#2ad4ff;fill-opacity:1" />
      <rect
         x="28.509001"
         y="28.009001"
         width="12"
         height="6"
         ry="1"
         id="rect3"
         style="fill:#bc5fd3" />
      <rect
         x="35.508999"
         y="37.008999"
         width="8"
         height="6"
         ry="1"
         id="rect4"
         style="fill:#ffdd55" />
      <path
         d="m 23.509,26.009 v 4.5 a 0.5,0.5 0 0 0 0.5,0.5 h 3.5 v -1 h -3 v -4 z m 7,9 v 4.5 a 0.5,0.5 0 0 0 0.5,0.5 h 3.5 v -1 h -3 v -4 z"
         id="path4-6"
         style="fill:#f2f2f2;fill-opacity:1" />
    </g>
  </g>
</svg>
