<?xml version="1.0" encoding="UTF-8" standalone="no"?>
<svg
   width="62"
   height="62"
   version="1.1"
   id="svg29"
   sodipodi:docname="KakaoTalk.svg"
   inkscape:version="1.4 (unknown)"
   xmlns:inkscape="http://www.inkscape.org/namespaces/inkscape"
   xmlns:sodipodi="http://sodipodi.sourceforge.net/DTD/sodipodi-0.dtd"
   xmlns:xlink="http://www.w3.org/1999/xlink"
   xmlns="http://www.w3.org/2000/svg"
   xmlns:svg="http://www.w3.org/2000/svg">
  <defs
     id="defs29">
    <linearGradient
       id="linearGradient29"
       inkscape:collect="always">
      <stop
         style="stop-color:#cca100;stop-opacity:1;"
         offset="0"
         id="stop29" />
      <stop
         style="stop-color:#ffd900;stop-opacity:1;"
         offset="1"
         id="stop30" />
    </linearGradient>
    <linearGradient
       inkscape:collect="always"
       xlink:href="#linearGradient29"
       id="linearGradient30"
       x1="30.782633"
       y1="60"
       x2="30.193521"
       y2="5"
       gradientUnits="userSpaceOnUse"
       gradientTransform="matrix(0.98214286,0,0,0.98245614,-0.42857152,-0.92982455)" />
    <linearGradient
       gradientUnits="userSpaceOnUse"
       y2="402.60901"
       x2="778.90601"
       y1="811.70398"
       x1="1067.8199"
       id="paint0_linear"
       gradientTransform="matrix(0.26458333,0,0,0.26458333,-122.61547,3.6285728)">
      <stop
         id="stop24"
         stop-color="#CD3E70" />
      <stop
         id="stop26"
         stop-color="#A534C3"
         offset="1" />
    </linearGradient>
    <linearGradient
       gradientUnits="userSpaceOnUse"
       y2="-68.400299"
       x2="906.40399"
       y1="336.22699"
       x1="1168.3199"
       id="paint1_linear"
       gradientTransform="matrix(0.26458333,0,0,0.26458333,-122.61547,3.6285728)">
      <stop
         id="stop29-3"
         stop-color="#FBD249" />
      <stop
         id="stop31"
         stop-color="#F5A623"
         offset="1" />
    </linearGradient>
    <linearGradient
       gradientUnits="userSpaceOnUse"
       y2="61"
       x2="570"
       y1="956"
       x1="570"
       id="paint2_linear"
       gradientTransform="matrix(0.26458333,0,0,0.26458333,-122.61547,3.6285728)">
      <stop
         id="stop34"
         stop-color="#963CD7" />
      <stop
         id="stop36"
         stop-color="#0482D7"
         offset="1" />
    </linearGradient>
    <linearGradient
       gradientUnits="userSpaceOnUse"
       y2="748.77002"
       x2="102.289"
       y1="691.65997"
       x1="290.65601"
       id="paint3_linear"
       gradientTransform="matrix(0.26458333,0,0,0.26458333,-122.61547,3.6285728)">
      <stop
         id="stop39"
         stop-color="#1FBE84" />
      <stop
         id="stop41"
         stop-color="#0082D5"
         offset="1" />
    </linearGradient>
  </defs>
  <sodipodi:namedview
     id="namedview29"
     pagecolor="#ffffff"
     bordercolor="#000000"
     borderopacity="0.25"
     inkscape:showpageshadow="2"
     inkscape:pageopacity="0.0"
     inkscape:pagecheckerboard="0"
     inkscape:deskcolor="#d1d1d1"
     inkscape:zoom="7.0710678"
     inkscape:cx="36.698842"
     inkscape:cy="44.194174"
     inkscape:window-width="1920"
     inkscape:window-height="996"
     inkscape:window-x="0"
     inkscape:window-y="0"
     inkscape:window-maximized="1"
     inkscape:current-layer="svg29" />
  <rect
     style="opacity:0.2;stroke-width:0.9823"
     width="55"
     height="55.017544"
     x="3.5"
     y="3.9824562"
     ry="13.754386"
     id="rect1" />
  <rect
     style="fill:url(#linearGradient30);stroke-width:0.9823"
     width="55"
     height="55.017544"
     x="3.5"
     y="3"
     ry="13.754386"
     id="rect2" />
  <path
     style="opacity:0.1;fill:#ffffff;stroke-width:0.9823"
     d="M 17.25,3 C 9.6324999,3 3.4999999,9.1344561 3.4999999,16.754386 v 0.982456 c 0,-7.61993 6.1325,-13.7543858 13.7500001,-13.7543858 h 27.5 c 7.6175,0 13.75,6.1344558 13.75,13.7543858 V 16.754386 C 58.5,9.1344561 52.3675,3 44.75,3 Z"
     id="path28" />
  <g
     id="g1"
     transform="translate(2.6368049,-69.843294)">
    <path
       style="fill:#2d3d53;fill-opacity:1"
       d="m 28.363195,80.334524 a 22,18 0 0 0 -21.9999997,18 22,18 0 0 0 7.8007807,13.730466 l -2.800781,10.26953 9.833984,-7.02343 a 22,18 0 0 0 7.166016,1.02343 22,18 0 0 0 22,-17.999996 22,18 0 0 0 -22,-18 z"
       id="path3" />
    <path
       style="opacity:0.2"
       d="m 11.363195,93.335125 c -0.554,0 -1,0.446 -1,1 0,0.554 0.446,1 1,1 h 2 v 8.999995 c 0,0.554 0.446,1 1,1 0.554,0 1,-0.446 1,-1 v -8.999995 h 2 c 0.554,0 1,-0.446 1,-1 0,-0.554 -0.446,-1 -1,-1 z m 11.464844,0 c -0.0066,2.53e-4 -0.01299,0.0016 -0.01953,0.002 -0.0013,7.6e-5 -0.0026,-8.1e-5 -0.0039,0 -0.0071,4.36e-4 -0.01433,0.0014 -0.02148,0.002 -0.0223,0.0019 -0.04443,0.0045 -0.06641,0.0078 -0.004,5.94e-4 -0.0078,0.0013 -0.01172,0.002 -0.02802,0.0046 -0.05467,0.01062 -0.08203,0.01758 -0.0059,0.0015 -0.01167,0.0023 -0.01758,0.0039 -0.01611,0.0043 -0.03115,0.01057 -0.04688,0.01563 -0.007,0.0023 -0.01455,0.0034 -0.02148,0.0059 -0.02892,0.01 -0.05656,0.02088 -0.08398,0.0332 -0.02882,0.01295 -0.05692,0.02759 -0.08398,0.04297 -0.260515,0.147937 -0.439097,0.404052 -0.490234,0.69336 l -3.480469,10.005855 c -0.143387,0.53513 0.171908,1.08123 0.707032,1.22461 0.535122,0.14339 1.081224,-0.1719 1.224609,-0.70703 l 0.681626,-2.34978 h 3.710937 l 0.681641,2.34961 c 0.143385,0.53513 0.689486,0.85042 1.224609,0.70704 0.535124,-0.14339 0.850418,-0.68949 0.707031,-1.22461 L 23.851476,94.153484 c -0.05294,-0.285696 -0.228682,-0.53892 -0.486328,-0.685547 -0.02785,-0.01585 -0.05625,-0.02969 -0.08594,-0.04297 -0.0293,-0.0131 -0.05885,-0.02474 -0.08984,-0.03516 -0.02008,-0.0067 -0.0398,-0.01397 -0.06055,-0.01953 -0.0058,-0.0016 -0.01177,-0.0025 -0.01758,-0.0039 -0.01864,-0.0047 -0.03768,-0.0081 -0.05664,-0.01172 -0.013,-0.0025 -0.02593,-0.0058 -0.03906,-0.0078 -0.02228,-0.0034 -0.04422,-0.006 -0.06641,-0.0078 -0.0072,-6.02e-4 -0.01431,-0.0015 -0.02148,-0.002 -0.0013,-7.9e-5 -0.0026,7.4e-5 -0.0039,0 -0.01871,-0.0011 -0.03777,-0.0019 -0.05664,-0.002 -0.01293,-4e-6 -0.02621,-4.96e-4 -0.03906,0 z m 7.535156,0 c -0.554,0 -1,0.446 -1,1 v 9.999995 c 0,0.554 0.446,1 1,1 h 6 c 0.554,0 1,-0.446 1,-1 0,-0.554 -0.446,-1 -1,-1 h -5 v -8.999995 c 0,-0.554 -0.446,-1 -1,-1 z m 10,0 c -0.554,0 -1,0.446 -1,1 v 9.999995 c 0,0.554 0.446,1 1,1 0.554,0 1,-0.446 1,-1 v -3.3125 l 3.234375,3.85547 c 0.356104,0.42439 0.983815,0.47915 1.408203,0.12305 0.424389,-0.3561 0.479151,-0.98577 0.123047,-1.41016 l -3.765625,-4.306855 3.765625,-4.304469 c 0.364768,-0.416965 0.301342,-1.054052 -0.123047,-1.410156 -0.424388,-0.356104 -1.052099,-0.301342 -1.408203,0.123047 l -3.234375,3.855469 v -3.212891 c 0,-0.554 -0.446,-1 -1,-1 z m -17.496094,3.6 1.275391,3.399995 h -2.550781 z"
       id="path4" />
    <path
       style="fill:#ffd900;fill-opacity:1"
       d="m 11.363195,92.3351 c -0.554,0 -1,0.446 -1,1 0,0.554 0.446,1 1,1 h 2 v 9 c 0,0.554 0.446,1 1,1 0.554,0 1,-0.446 1,-1 v -9 h 2 c 0.554,0 1,-0.446 1,-1 0,-0.554 -0.446,-1 -1,-1 z m 11.464844,0 c -0.0066,2.53e-4 -0.01299,0.0016 -0.01953,0.002 -0.0013,7.6e-5 -0.0026,-8.1e-5 -0.0039,0 -0.0071,4.36e-4 -0.01433,0.0014 -0.02148,0.002 -0.0223,0.0019 -0.04443,0.0045 -0.06641,0.0078 -0.004,5.94e-4 -0.0078,0.0013 -0.01172,0.002 -0.02802,0.0046 -0.05467,0.01062 -0.08203,0.01758 -0.0059,0.0015 -0.01167,0.0023 -0.01758,0.0039 -0.01611,0.0043 -0.03115,0.01057 -0.04688,0.01563 -0.007,0.0023 -0.01455,0.0034 -0.02148,0.0059 -0.02892,0.01 -0.05656,0.02088 -0.08398,0.0332 -0.02882,0.01295 -0.05692,0.02759 -0.08398,0.04297 -0.260515,0.147937 -0.439097,0.404052 -0.490234,0.69336 l -3.480469,10.00586 c -0.143387,0.53512 0.171908,1.08122 0.707032,1.22461 0.535122,0.14338 1.081224,-0.17191 1.224609,-0.70703 l 0.681626,-2.34978 h 3.710937 l 0.681641,2.34961 c 0.143385,0.53512 0.689486,0.85042 1.224609,0.70703 0.535124,-0.14338 0.850418,-0.68949 0.707031,-1.22461 L 23.851476,93.153459 c -0.05294,-0.285696 -0.228682,-0.53892 -0.486328,-0.685547 -0.02785,-0.01585 -0.05625,-0.02969 -0.08594,-0.04297 -0.0293,-0.0131 -0.05885,-0.02474 -0.08984,-0.03516 -0.02008,-0.0067 -0.0398,-0.01397 -0.06055,-0.01953 -0.0058,-0.0016 -0.01177,-0.0025 -0.01758,-0.0039 -0.01864,-0.0047 -0.03768,-0.0081 -0.05664,-0.01172 -0.013,-0.0025 -0.02593,-0.0058 -0.03906,-0.0078 -0.02228,-0.0034 -0.04422,-0.006 -0.06641,-0.0078 -0.0072,-6.02e-4 -0.01431,-0.0015 -0.02148,-0.002 -0.0013,-7.9e-5 -0.0026,7.4e-5 -0.0039,0 -0.01871,-0.0011 -0.03777,-0.0019 -0.05664,-0.002 -0.01293,-4e-6 -0.02621,-4.96e-4 -0.03906,0 z m 7.535156,0 c -0.554,0 -1,0.446 -1,1 v 10 c 0,0.554 0.446,1 1,1 h 6 c 0.554,0 1,-0.446 1,-1 0,-0.554 -0.446,-1 -1,-1 h -5 v -9 c 0,-0.554 -0.446,-1 -1,-1 z m 10,0 c -0.554,0 -1,0.446 -1,1 v 10 c 0,0.554 0.446,1 1,1 0.554,0 1,-0.446 1,-1 v -3.3125 l 3.234375,3.85547 c 0.356104,0.42439 0.983815,0.47915 1.408203,0.12305 0.424389,-0.35611 0.479151,-0.98577 0.123047,-1.41016 L 42.363195,98.2841 46.12882,93.979631 c 0.364768,-0.416965 0.301342,-1.054052 -0.123047,-1.410156 -0.424388,-0.356104 -1.052099,-0.301342 -1.408203,0.123047 l -3.234375,3.855469 V 93.3351 c 0,-0.554 -0.446,-1 -1,-1 z m -17.496094,3.6 1.275391,3.4 h -2.550781 z"
       id="path5" />
  </g>
</svg>
