<?xml version="1.0" encoding="UTF-8" standalone="no"?>
<svg
   width="62"
   height="62"
   version="1"
   id="svg11"
   sodipodi:docname="kakoune.svg"
   inkscape:version="1.4 (unknown)"
   xmlns:inkscape="http://www.inkscape.org/namespaces/inkscape"
   xmlns:sodipodi="http://sodipodi.sourceforge.net/DTD/sodipodi-0.dtd"
   xmlns="http://www.w3.org/2000/svg"
   xmlns:svg="http://www.w3.org/2000/svg">
  <defs
     id="defs11" />
  <sodipodi:namedview
     id="namedview11"
     pagecolor="#ffffff"
     bordercolor="#000000"
     borderopacity="0.25"
     inkscape:showpageshadow="2"
     inkscape:pageopacity="0.0"
     inkscape:pagecheckerboard="0"
     inkscape:deskcolor="#d1d1d1"
     inkscape:zoom="8.5405241"
     inkscape:cx="28.159864"
     inkscape:cy="26.754798"
     inkscape:window-width="1920"
     inkscape:window-height="996"
     inkscape:window-x="0"
     inkscape:window-y="0"
     inkscape:window-maximized="1"
     inkscape:current-layer="svg11" />
  <g
     id="g11"
     transform="matrix(0.94827586,0,0,0.94915254,0.65517248,0.15254228)">
    <path
       style="opacity:0.2"
       d="m 31.994606,3.9998148 c -1.516362,0.002 -3.035317,0.568371 -4.169826,1.7019143 L 4.7019433,28.827264 c -1.1351419,1.135831 -1.7019143,2.653819 -1.7019143,4.17252 0,1.518702 0.5667724,3.036691 1.7019143,4.172522 L 27.82478,60.29784 c 0.951077,0.950267 2.172784,1.495939 3.436197,1.650671 0.0176,0.0028 0.03316,0.0088 0.05124,0.0108 0.0144,0.0017 0.02876,0.0012 0.04316,0.0028 0.164959,0.0176 0.330595,0.02558 0.496279,0.02968 0.04334,0.0011 0.0861,0.0078 0.12946,0.0082 0.0062,2.2e-5 0.0126,-2e-6 0.0188,0 v -0.0028 c 1.51887,8.62e-4 3.039389,-0.564076 4.17522,-1.699217 L 59.297973,37.17244 c 1.135263,-1.135953 1.693944,-2.65366 1.693824,-4.172522 h 0.0082 c 0,-0.04862 -0.007,-0.09706 -0.0082,-0.14564 -0.0018,-0.07578 -0.006,-0.1509 -0.0108,-0.226562 -0.0084,-0.13718 -0.0201,-0.273596 -0.03776,-0.40997 -0.0062,-0.04752 -0.0062,-0.09558 -0.0136,-0.142959 -0.0017,-0.011 -0.0088,-0.019 -0.0108,-0.02966 -0.18846,-1.185369 -0.724847,-2.321028 -1.620998,-3.217723 L 36.17522,5.7017291 C 35.039369,4.5668442 33.51815,4.0004838 32,3.9998148 c -9.8e-4,-1.2e-6 -0.0017,0 -0.0028,0 -9.3e-4,0 -0.0018,-1.8e-6 -0.0028,0 z"
       id="path1" />
    <path
       style="fill:#487355"
       d="m 31.99862,3.0000004 c -1.519046,0 -2.150476,2.5838307 -3.286999,3.7193868 L 5.5304015,28.903351 C 3.2591513,31.175017 4.8738307,33.61716 7.1450807,35.888824 L 28.975987,57.804808 c 0.962977,0.963561 1.054147,3.008571 2.33513,3.155391 1.73902,0.19932 3.555396,-0.35428 4.863499,-1.661589 L 59.297259,36.173206 c 1.366614,-1.367445 1.910584,-3.289825 1.63191,-5.099045 -0.18426,-1.196341 -1.96812,-1.490805 -2.871789,-2.395024 L 34.836367,5.702811 C 33.699844,4.5672549 33.517664,3.0000004 31.99862,3.0000004 Z"
       id="path2" />
    <path
       style="fill:#9eba71"
       d="M 32,3.0000004 V 31.999972 h 28.999971 c 0,-1.518701 -0.566773,-3.036689 -1.701914,-4.172522 L 36.17522,4.7019146 C 35.039369,3.5670297 33.51815,3.0006693 32,3.0000004 Z"
       id="path3" />
    <path
       style="fill:#d9d991"
       d="M 32,3.0000004 V 31.999972 H 3.000029 c 0,-1.518701 0.5667726,-3.036689 1.7019143,-4.172522 L 27.82478,4.7019146 C 28.960631,3.5670297 30.48185,3.0006693 32,3.0000004 Z"
       id="path4" />
    <path
       style="fill:#99aa6b"
       d="M 32,60.999943 V 31.999972 H 3.000029 c 0,1.5187 0.5667726,3.036689 1.7019143,4.172522 L 27.82478,59.298028 c 1.135851,1.134885 2.65707,1.701247 4.17522,1.701915 z"
       id="path5" />
    <path
       style="opacity:0.2;fill:#ffffff"
       d="m 31.996094,3 c -1.516362,0.002 -3.037366,0.5695817 -4.171875,1.703125 l -23.121094,23.125 C 3.5679831,28.963958 3,30.481299 3,32 c 0,0.172005 0.00805,0.344249 0.023437,0.515625 0.1081147,-1.352799 0.665473,-2.672668 1.6796875,-3.6875 L 27.824218,5.703125 C 28.958728,4.5695817 30.479732,4.002 31.996094,4 H 32 c 1.51815,6.69e-4 3.03993,0.5682401 4.175781,1.703125 l 23.121094,23.125 c 0.896151,0.896695 1.432634,2.033381 1.621094,3.21875 0.002,0.01074 0.01002,0.01634 0.01172,0.02734 0.0074,0.04738 0.0055,0.09701 0.01172,0.144531 0.01211,0.09353 0.0196,0.187391 0.02734,0.28125 0.01473,-0.166155 0.02345,-0.333227 0.02344,-0.5 H 61 c 0,-0.04862 -0.0066,-0.09595 -0.0078,-0.144531 -0.0018,-0.07578 -0.0069,-0.150901 -0.01172,-0.226563 -0.0084,-0.13718 -0.0214,-0.273782 -0.03906,-0.410156 -0.0062,-0.04752 -0.0043,-0.09715 -0.01172,-0.144531 -0.0017,-0.011 -0.0097,-0.0166 -0.01172,-0.02734 -0.18846,-1.185369 -0.724943,-2.322055 -1.621094,-3.21875 L 36.175781,4.703125 C 35.03993,3.5682401 33.51815,3.000669 32,3 Z"
       id="path6" />
    <path
       style="opacity:0.1"
       d="m 27.554444,42.534682 8.76214,-9.419552 16.926309,22.884877 H 40.2768 Z"
       id="path7" />
    <path
       style="fill:#1f5489"
       d="m 27.554444,41.534684 8.76214,-9.419552 16.926309,22.884877 H 40.2768 Z"
       id="path8" />
    <path
       style="opacity:0.1"
       d="m 15.000017,14.000049 v 41.999958 h 10.601551 l 0.23047,-6.867181 29.167939,-35.132777 H 42.695301 L 26.386724,32.367218 27.000005,14.000049 Z"
       id="path9" />
    <path
       style="fill:#ed6041"
       d="M 15.000017,13.000051 H 27.000005 L 25.600006,55.000009 H 15.000017 Z"
       id="path10" />
    <path
       style="fill:#ed6041"
       d="M 42.696129,13.000051 H 54.999977 L 24.620171,49.589474 22.264808,36.01014 Z"
       id="path11" />
  </g>
</svg>
