<?xml version="1.0" encoding="UTF-8" standalone="no"?>
<svg
   width="62"
   height="62"
   version="1.1"
   id="svg6"
   sodipodi:docname="kali-menu.svg"
   inkscape:version="1.4 (unknown)"
   xmlns:inkscape="http://www.inkscape.org/namespaces/inkscape"
   xmlns:sodipodi="http://sodipodi.sourceforge.net/DTD/sodipodi-0.dtd"
   xmlns:xlink="http://www.w3.org/1999/xlink"
   xmlns="http://www.w3.org/2000/svg"
   xmlns:svg="http://www.w3.org/2000/svg">
  <defs
     id="defs6">
    <linearGradient
       inkscape:collect="always"
       xlink:href="#linearGradient1"
       id="linearGradient6"
       x1="9"
       y1="30.972664"
       x2="50.992756"
       y2="30.972664"
       gradientUnits="userSpaceOnUse"
       gradientTransform="matrix(1.087889,0,0,1.0859616,-2.2002853,-3.6351476)" />
    <linearGradient
       id="linearGradient1"
       inkscape:collect="always">
      <stop
         style="stop-color:#ffffff;stop-opacity:1;"
         offset="0"
         id="stop5" />
      <stop
         style="stop-color:#ffffff;stop-opacity:1;"
         offset="1"
         id="stop6" />
    </linearGradient>
  </defs>
  <sodipodi:namedview
     id="namedview6"
     pagecolor="#ffffff"
     bordercolor="#000000"
     borderopacity="0.25"
     inkscape:showpageshadow="2"
     inkscape:pageopacity="0.0"
     inkscape:pagecheckerboard="0"
     inkscape:deskcolor="#d1d1d1"
     inkscape:zoom="5"
     inkscape:cx="30"
     inkscape:cy="53.3"
     inkscape:window-width="1920"
     inkscape:window-height="996"
     inkscape:window-x="0"
     inkscape:window-y="0"
     inkscape:window-maximized="1"
     inkscape:current-layer="svg6" />
  <g
     id="g6"
     transform="translate(1.5529232,-3.5)">
    <path
       d="m 18.448849,13 c -2.561198,2.05e-4 -4.839851,1.626508 -5.672914,4.048828 l -10.9982274,32 C 0.43900469,52.944091 3.3323318,56.999386 7.4506215,57 H 40.445305 c 2.561198,-2.05e-4 4.839851,-1.626508 5.672913,-4.048828 l 10.998228,-32 C 58.455149,17.055909 55.561822,13.000614 51.443532,13 Z"
       style="opacity:0.2;stroke-width:0.999919"
       id="path1" />
    <path
       d="m 18.448849,12 c -2.561198,2.05e-4 -4.839851,1.626508 -5.672914,4.048828 l -10.9982274,32 C 0.43900459,51.944091 3.3323317,55.999386 7.4506215,56 H 40.445305 c 2.561198,-2.05e-4 4.839851,-1.626508 5.672913,-4.048828 l 10.998228,-32 C 58.455149,16.055909 55.561822,12.000614 51.443532,12 Z"
       style="fill:#39627a;stroke-width:0.999919;fill-opacity:1"
       id="path2" />
    <path
       d="m 18.448849,12 c -2.561198,2.05e-4 -4.839851,1.626508 -5.672914,4.048828 l -10.9982274,32 C 1.4981915,48.862144 1.4129123,49.679845 1.475022,50.46875 1.518124,49.998343 1.6150667,49.522069 1.7777076,49.048828 l 10.9982274,-32 C 13.608998,14.626508 15.887651,13.000205 18.448849,13 h 32.994683 c 3.258406,4.86e-4 5.740244,2.541808 5.975599,5.53125 C 57.730807,15.129719 55.061485,12.000539 51.443532,12 Z"
       style="opacity:0.2;fill:#ffffff;stroke-width:0.999919"
       id="path3" />
  </g>
  <path
     style="fill:#cfd7dc;fill-opacity:1;fill-rule:nonzero;stroke:url(#linearGradient6);stroke-width:1.4804;stroke-dasharray:none"
     d="m 8.8864917,13.74303 c -0.433283,0.004 -0.8665755,0.02042 -1.2957771,0.07342 4.7621024,0.0857 9.5323764,0.473329 14.1922834,1.473026 0.903364,0.118327 1.774036,0.391716 2.648786,0.612062 0.425117,0.10199 0.821614,0.289708 1.24673,0.395792 0.703077,0.17954 1.393886,0.4162 2.088785,0.620221 0.429201,0.187697 0.891108,0.269309 1.312129,0.465166 0.633587,0.265228 1.254908,0.567177 1.868054,0.877287 0.08176,0.05307 0.204385,0.07751 0.228912,0.187695 0.159415,0.669187 0.245255,1.354692 0.437371,2.015714 0.36789,1.23228 0.829791,2.448243 1.491988,3.562187 -0.703073,0.334599 -1.308042,0.836486 -1.835351,1.39958 -0.75621,0.828323 -1.344832,1.828021 -1.598261,2.925646 -0.306571,1.122104 -0.241174,2.656334 0.02454,3.778444 0.286132,1.007861 0.801172,1.738245 1.50016,2.521688 1.402062,1.591351 3.584861,2.51761 5.71043,2.272782 2.562955,-0.208103 5.232181,0.204013 7.484469,1.489341 1.181329,0.681429 2.297253,1.517913 3.139306,2.599218 1.148628,1.301639 2.011117,2.93788 2.669227,4.533322 0.09401,0.240737 0.183943,0.489636 0.31475,0.714058 0,-0.297866 -0.110364,-0.579411 -0.212557,-0.856876 -0.306576,-0.816078 -0.649939,-1.721932 -1.083223,-2.480889 -0.51096,-0.909915 -1.070968,-1.803534 -1.778123,-2.574717 -1.034177,-1.240447 -2.293169,-2.301343 -3.732022,-3.0399 1.095492,0.142817 2.166455,0.461089 3.208803,0.824237 1.11592,0.395799 2.186886,0.926248 3.151563,1.619914 0.948336,0.767123 1.786302,1.689293 2.403535,2.750193 0.318837,0.510047 0.523221,1.187398 0.801178,1.721931 -0.245264,-1.236356 -0.866581,-2.476803 -1.643235,-3.460176 -0.457813,-0.595738 -1.042346,-1.073149 -1.614617,-1.550547 -1.324394,-1.040502 -2.861346,-1.779052 -4.451439,-2.309513 -2.922661,-0.958879 -6.012913,-1.326124 -9.078644,-1.326124 -0.74395,0.0074 -1.487902,-0.09383 -2.18689,-0.350911 -1.606438,-0.579421 -2.877693,-1.78722 -3.274198,-3.447942 -0.506864,-1.803527 0.05725,-4.194641 1.385716,-5.508532 1.079135,-1.101706 2.652875,-1.73009 4.202088,-1.579112 1.594184,0.11425 3.114781,0.673268 4.602685,1.215954 1.2222,0.477409 2.448495,0.946657 3.625734,1.521991 0.0327,0.338674 0.06131,0.689585 0.183941,1.00786 0.167597,0.330512 0.527306,0.489649 0.846141,0.636544 0.60906,0.273383 1.185416,0.514127 1.704549,0.938489 0.384235,0.30603 0.703073,0.685506 1.066872,1.016018 0.122628,-0.195858 0.143067,-0.244824 0.179857,-0.314191 0.02045,-0.01633 0.004,0.004 0.02861,-0.0245 0.277965,-0.28971 0.69081,-0.346833 1.042348,-0.522293 -0.915634,-0.228499 -1.814907,-0.559016 -2.41579,-1.309805 -0.09401,-0.114251 0.302479,-0.0079 0.220732,-0.191782 -0.05725,-0.15505 -0.110365,-0.244822 -0.188037,-0.379476 -0.335184,-0.489648 -0.674459,-0.975215 -0.972853,-1.485263 -0.343361,-0.0079 -0.690814,-0.0122 -1.034177,-0.02041 -0.43738,-0.510052 -0.915633,-0.975216 -1.361181,-1.477103 0.03677,0.273384 0.08993,0.550854 0.08993,0.828322 -0.298396,-0.167295 -0.592706,-0.346838 -0.858402,-0.563093 -0.286132,-0.261149 -0.555916,-0.546776 -0.837964,-0.812003 0.03677,0.199938 0.07354,0.403958 0.106242,0.607982 -0.580442,-0.236669 -1.132274,-0.587577 -1.541042,-1.069067 -0.0079,0.118334 -0.01223,0.236666 -0.01635,0.359079 -0.367889,-0.142824 -0.723515,-0.297882 -1.087316,-0.44069 -0.919715,-0.342752 -1.827175,-0.738556 -2.800031,-0.914011 -1.066873,-0.05307 -2.199153,0.08977 -3.208794,-0.346838 -0.698994,-0.269298 -1.271262,-0.820147 -1.60236,-1.485249 -0.613147,-1.134353 -0.527307,-2.484968 -0.351539,-3.717247 -0.776654,-0.514126 -1.614615,-0.922166 -2.481195,-1.269002 -0.400593,-0.14281 -0.780742,-0.350908 -1.201764,-0.444761 -1.520601,-0.501878 -3.077989,-0.885438 -4.651732,-1.179226 -0.686725,-0.150973 -1.385707,-0.220343 -2.068344,-0.371314 -0.654018,-0.126497 -1.320309,-0.191779 -1.978416,-0.27339 -3.143394,-0.359073 -6.311313,-0.493727 -9.47106,-0.469243 -0.4332863,0.004 -0.8665803,-0.004 -1.2998673,0 z m 22.0528113,4.945438 c -5.767652,-0.04901 -11.551664,0.212185 -17.249833,1.134352 -1.491985,0.248903 -2.992151,0.477404 -4.4514353,0.881363 4.8806373,-0.685504 9.7980663,-1.150669 14.7277593,-1.25676 2.403537,-0.01632 4.807062,0.05716 7.198337,0.297871 -0.0777,-0.350916 -0.159418,-0.701831 -0.224828,-1.056826 z m 0.376066,1.558715 c -3.245583,0.301949 -6.425767,1.073145 -9.516023,2.093238 -2.133747,0.730394 -4.22662,1.583199 -6.245912,2.591057 -0.715336,0.359072 -1.442938,0.709989 -2.121482,1.138434 0.768476,-0.330515 1.512423,-0.701835 2.289075,-1.007864 5.048238,-2.072843 10.398951,-3.525463 15.868214,-3.802927 -0.102174,-0.334594 -0.20438,-0.673265 -0.273872,-1.011938 z m 6.429856,1.060904 c 0.572269,0.257066 1.177241,0.440681 1.745421,0.709987 1.737246,0.754876 3.405003,1.701524 4.872467,2.905241 0.531389,0.440686 1.025998,0.922166 1.455199,1.460785 0.114452,0.126491 0.298394,0.02856 0.44555,0.05307 -0.163504,-0.301951 -0.461902,-0.49373 -0.694897,-0.734471 -1.169064,-1.150671 -2.517982,-2.117729 -3.973182,-2.87668 -1.226297,-0.636542 -2.505725,-1.191475 -3.850558,-1.517905 z m 0,0"
     id="path3658-7" />
</svg>
