<?xml version="1.0" encoding="UTF-8" standalone="no"?>
<svg
   width="62"
   height="62"
   version="1"
   id="svg14"
   sodipodi:docname="kbackup.svg"
   inkscape:version="1.4 (unknown)"
   xmlns:inkscape="http://www.inkscape.org/namespaces/inkscape"
   xmlns:sodipodi="http://sodipodi.sourceforge.net/DTD/sodipodi-0.dtd"
   xmlns:xlink="http://www.w3.org/1999/xlink"
   xmlns="http://www.w3.org/2000/svg"
   xmlns:svg="http://www.w3.org/2000/svg">
  <defs
     id="defs14">
    <linearGradient
       id="linearGradient20"
       x1="974.5"
       y1="274"
       x2="974.5"
       y2="280"
       gradientUnits="userSpaceOnUse"
       gradientTransform="translate(-1059.3475,-261)">
      <stop
         offset="0.189495"
         stop-color="#EFF2F6"
         id="stop19"
         style="stop-color:#a4b4c1;stop-opacity:1;" />
      <stop
         offset="0.85046297"
         stop-color="#B7C6CD"
         id="stop20"
         style="stop-color:#33414c;stop-opacity:1;" />
    </linearGradient>
    <linearGradient
       id="paint540_linear_890_11"
       x1="974.5"
       y1="274"
       x2="974.5"
       y2="280"
       gradientUnits="userSpaceOnUse"
       gradientTransform="translate(-1059.3475,-261)">
      <stop
         offset="0.189495"
         stop-color="#EFF2F6"
         id="stop1823" />
      <stop
         offset="0.850463"
         stop-color="#B7C6CD"
         id="stop1824" />
    </linearGradient>
    <linearGradient
       id="paint541_linear_890_11"
       x1="983"
       y1="282"
       x2="983"
       y2="288"
       gradientUnits="userSpaceOnUse"
       gradientTransform="translate(-1054.2563,-252)">
      <stop
         offset="0.189495"
         stop-color="#EFF2F6"
         id="stop1825" />
      <stop
         offset="0.850463"
         stop-color="#B7C6CD"
         id="stop1826" />
    </linearGradient>
    <linearGradient
       id="paint542_linear_890_11"
       x1="983"
       y1="290"
       x2="983"
       y2="296"
       gradientUnits="userSpaceOnUse"
       gradientTransform="translate(-1054.2563,-252)">
      <stop
         offset="0.189495"
         stop-color="#EFF2F6"
         id="stop1827" />
      <stop
         offset="0.850463"
         stop-color="#B7C6CD"
         id="stop1828" />
    </linearGradient>
    <linearGradient
       id="paint543_linear_890_11"
       x1="978.5"
       y1="298"
       x2="978.5"
       y2="304"
       gradientUnits="userSpaceOnUse"
       gradientTransform="translate(-1049.7563,-237)">
      <stop
         offset="0.189495"
         stop-color="#EFF2F6"
         id="stop1829" />
      <stop
         offset="0.850463"
         stop-color="#B7C6CD"
         id="stop1830" />
    </linearGradient>
    <linearGradient
       inkscape:collect="always"
       xlink:href="#linearGradient7"
       id="linearGradient8"
       x1="961.23718"
       y1="662.32611"
       x2="1004.3851"
       y2="713.74146"
       gradientUnits="userSpaceOnUse" />
    <linearGradient
       id="linearGradient7"
       inkscape:collect="always">
      <stop
         style="stop-color:#cfcfcf;stop-opacity:1;"
         offset="0"
         id="stop7" />
      <stop
         style="stop-color:#b3b3b3;stop-opacity:1;"
         offset="0.7855261"
         id="stop9" />
      <stop
         style="stop-color:#b3b3b3;stop-opacity:1;"
         offset="1"
         id="stop8" />
    </linearGradient>
    <linearGradient
       inkscape:collect="always"
       xlink:href="#linearGradient1"
       id="linearGradient6"
       x1="1003.7363"
       y1="714.38977"
       x2="992.89984"
       y2="705.29626"
       gradientUnits="userSpaceOnUse" />
    <linearGradient
       id="linearGradient1"
       inkscape:collect="always">
      <stop
         style="stop-color:#607b90;stop-opacity:1;"
         offset="0"
         id="stop5" />
      <stop
         style="stop-color:#33414c;stop-opacity:1;"
         offset="1"
         id="stop6" />
    </linearGradient>
    <linearGradient
       id="paint220_linear_890_11"
       x1="997"
       y1="707"
       x2="989.84973"
       y2="699.18939"
       gradientUnits="userSpaceOnUse">
      <stop
         stop-color="#71706E"
         id="stop1182" />
      <stop
         offset="1"
         stop-color="#B9AA99"
         id="stop1183" />
    </linearGradient>
    <linearGradient
       inkscape:collect="always"
       xlink:href="#linearGradient20"
       id="linearGradient14"
       gradientUnits="userSpaceOnUse"
       gradientTransform="matrix(0.858245,0,0,0.85596247,-821.67537,-209.91722)"
       x1="974.5"
       y1="274"
       x2="974.5"
       y2="280" />
    <linearGradient
       inkscape:collect="always"
       xlink:href="#linearGradient20"
       id="linearGradient17"
       gradientUnits="userSpaceOnUse"
       gradientTransform="matrix(0.858245,0,0,0.85596247,-821.67537,-199.64567)"
       x1="974.5"
       y1="274"
       x2="974.5"
       y2="280" />
    <linearGradient
       inkscape:collect="always"
       xlink:href="#linearGradient7"
       id="linearGradient19"
       x1="30.521919"
       y1="27"
       x2="50.688511"
       y2="27"
       gradientUnits="userSpaceOnUse"
       gradientTransform="matrix(1.1443267,0,0,1.1412833,-0.906988,-0.77705838)" />
  </defs>
  <sodipodi:namedview
     id="namedview14"
     pagecolor="#ffffff"
     bordercolor="#000000"
     borderopacity="0.25"
     inkscape:showpageshadow="2"
     inkscape:pageopacity="0.0"
     inkscape:pagecheckerboard="0"
     inkscape:deskcolor="#d1d1d1"
     inkscape:zoom="10"
     inkscape:cx="26.35"
     inkscape:cy="33.25"
     inkscape:window-width="1920"
     inkscape:window-height="996"
     inkscape:window-x="0"
     inkscape:window-y="0"
     inkscape:window-maximized="1"
     inkscape:current-layer="svg14" />
  <g
     id="g20"
     transform="matrix(0.99983629,0,0,1,-2.7832319,-2.5000007)">
    <g
       id="g2272"
       transform="matrix(-0.71520419,0,0,-0.71330209,726.49488,516.9376)">
      <path
         d="m 959,667 c 0,-3.314 2.686,-6 6,-6 h 36 c 3.31,0 6,2.686 6,6 v 40 c 0,5.523 -4.48,10 -10,10 h -32 c -3.314,0 -6,-2.686 -6,-6 z"
         id="path214"
         style="fill:url(#linearGradient8)" />
      <path
         d="m 1007,697 v 11.429 c 0,4.733 -3.84,8.571 -8.571,8.571 H 987 v -5.714 c 0,-7.89 6.396,-14.286 14.29,-14.286 z"
         id="path215"
         style="fill:url(#linearGradient6)" />
      <path
         d="M 995.571,697 H 1007 l -20,20 v -11.429 c 0,-4.733 3.838,-8.571 8.571,-8.571 z"
         id="path216"
         style="fill:url(#paint220_linear_890_11)" />
    </g>
    <path
       d="m 8.2476256,27.184384 c 0,-0.945839 0.7681294,-1.711926 1.7164902,-1.711926 h 9.4406952 c 0.94836,0 1.716491,0.766087 1.716491,1.711926 0,0.945838 -0.768131,1.711925 -1.716491,1.711925 H 9.9641158 c -0.9483608,0 -1.7164902,-0.766087 -1.7164902,-1.711925 z"
       id="path527-2"
       style="fill:url(#linearGradient14);stroke-width:0.857103" />
    <path
       d="m 8.2476256,37.455934 c 0,-0.945839 0.7681294,-1.711925 1.7164902,-1.711925 h 9.4406952 c 0.94836,0 1.716491,0.766086 1.716491,1.711925 0,0.945838 -0.768131,1.711925 -1.716491,1.711925 H 9.9641158 c -0.9483608,0 -1.7164902,-0.766087 -1.7164902,-1.711925 z"
       id="path527-6"
       style="fill:url(#linearGradient17);stroke-width:0.857103" />
    <rect
       style="opacity:0.2;stroke-width:1.04885"
       width="37.754856"
       height="37.76263"
       x="-61.5"
       y="-61.293266"
       rx="1.8877438"
       ry="1.8881326"
       transform="matrix(0,-1,-1,0,0,0)"
       id="rect1-8" />
    <rect
       style="fill:#33414c;fill-opacity:1;stroke-width:1.04885"
       width="37.754856"
       height="37.76263"
       x="-60.451221"
       y="-61.293266"
       rx="1.8877438"
       ry="1.8881326"
       transform="matrix(0,-1,-1,0,0,0)"
       id="rect7-7" />
    <path
       style="opacity:0.1;fill:#ffffff;stroke-width:1.04885"
       d="m 25.419379,22.69637 c -1.045914,0 -1.888882,0.842752 -1.888882,1.88856 v 1.048742 c 0,-1.045812 0.842968,-1.888556 1.888882,-1.888556 H 59.4042 c 1.045927,0 1.888883,0.842744 1.888883,1.888556 V 24.58493 c 0,-1.045808 -0.842956,-1.88856 -1.888883,-1.88856 z"
       id="path8-9" />
    <path
       style="opacity:0.2;stroke-width:1.04885"
       d="m 34.286516,23.745043 c -0.164486,0.288799 -0.266457,0.61792 -0.266457,0.977062 v 11.747173 c 0,1.085038 0.857913,1.958215 1.923911,1.958215 h 19.229529 c 1.065815,0 1.923727,-0.873177 1.923727,-1.958215 V 24.722105 c 0,-0.359142 -0.101158,-0.688263 -0.266261,-0.977062 z m 13.370153,3.146232 h 5.244701 c 0.581672,0 1.048992,0.415586 1.048992,0.932002 v 6.525978 c 0,0.515981 -0.46732,0.931999 -1.048992,0.931999 h -5.244701 c -0.581468,0 -1.049016,-0.416018 -1.049016,-0.931999 v -6.525978 c 0,-0.516416 0.467548,-0.932002 1.049016,-0.932002 z"
       id="path9-2" />
    <path
       style="fill:url(#linearGradient19);stroke-width:1.04885"
       d="m 34.286516,22.69637 c -0.164486,0.288803 -0.266457,0.617922 -0.266457,0.977053 v 11.74719 c 0,1.085022 0.857913,1.958201 1.923911,1.958201 h 19.229529 c 1.065815,0 1.923727,-0.873179 1.923727,-1.958201 v -11.74719 c 0,-0.359131 -0.101043,-0.68825 -0.266261,-0.977053 z m 13.370153,3.146241 h 5.244701 c 0.581672,0 1.048992,0.415587 1.048992,0.931986 v 6.52599 c 0,0.515978 -0.46732,0.931986 -1.048992,0.931986 h -5.244701 c -0.581468,0 -1.049016,-0.416008 -1.049016,-0.931986 v -6.52599 c 0,-0.516399 0.467548,-0.931986 1.049016,-0.931986 z"
       id="path10-0" />
    <path
       style="fill:#f2f2f2;fill-opacity:1;stroke-width:1.04885"
       d="m 29.562037,39.476311 c -1.016962,0 -1.835672,0.884035 -1.835672,1.982003 V 53.110228 H 57.097226 V 41.458314 c 0,-1.097968 -0.819417,-1.982003 -1.835694,-1.982003 z m -1.299315,17.248193 c 0.248927,0.268931 0.570218,0.462075 0.929171,0.540814 -0.358953,-0.07883 -0.680244,-0.271883 -0.929171,-0.540814 z m 28.298765,0 c -0.24952,0.268931 -0.571121,0.462075 -0.929491,0.540814 0.359719,-0.07883 0.679971,-0.271883 0.929491,-0.540814 z"
       id="path11-2" />
    <path
       style="opacity:0.2;stroke-width:1.04885"
       d="m 57.097226,54.158909 v 2.214226 c 0,1.096509 -0.819417,1.980527 -1.835694,1.980527 H 29.562037 c -1.016962,0 -1.835672,-0.884018 -1.835672,-1.980527 v -2.214679 z"
       id="path12-3" />
    <path
       style="fill:#aa87de;stroke-width:1.04885"
       d="m 57.097226,53.110228 v 2.214242 c 0,1.096492 -0.819417,1.980525 -1.835694,1.980525 H 29.562037 c -1.016962,0 -1.835672,-0.884033 -1.835672,-1.980525 v -2.214686 z"
       id="path13-7" />
  </g>
</svg>
