<?xml version="1.0" encoding="UTF-8" standalone="no"?>
<svg
   clip-rule="evenodd"
   fill-rule="evenodd"
   stroke-linejoin="round"
   stroke-miterlimit="2"
   viewBox="0 0 62 62"
   version="1.1"
   id="svg16"
   sodipodi:docname="kcmdevices.svg"
   inkscape:version="1.4 (unknown)"
   width="62"
   height="62"
   xmlns:inkscape="http://www.inkscape.org/namespaces/inkscape"
   xmlns:sodipodi="http://sodipodi.sourceforge.net/DTD/sodipodi-0.dtd"
   xmlns:xlink="http://www.w3.org/1999/xlink"
   xmlns="http://www.w3.org/2000/svg"
   xmlns:svg="http://www.w3.org/2000/svg">
  <defs
     id="defs16">
    <linearGradient
       id="linearGradient21"
       inkscape:collect="always">
      <stop
         style="stop-color:#b3b3b3;stop-opacity:1;"
         offset="0"
         id="stop21" />
      <stop
         style="stop-color:#e5e5e5;stop-opacity:1;"
         offset="1"
         id="stop22" />
    </linearGradient>
    <linearGradient
       id="linearGradient18"
       inkscape:collect="always">
      <stop
         style="stop-color:#ff8080;stop-opacity:1"
         offset="0"
         id="stop19" />
      <stop
         style="stop-color:#ff0000;stop-opacity:1"
         offset="1"
         id="stop20" />
    </linearGradient>
    <linearGradient
       id="linearGradient16"
       inkscape:collect="always">
      <stop
         style="stop-color:#2d3d53;stop-opacity:1;"
         offset="0"
         id="stop16" />
      <stop
         style="stop-color:#5a79a5;stop-opacity:1;"
         offset="0.48300156"
         id="stop18" />
      <stop
         style="stop-color:#2d3d53;stop-opacity:1;"
         offset="1"
         id="stop17" />
    </linearGradient>
    <linearGradient
       inkscape:collect="always"
       xlink:href="#linearGradient16"
       id="linearGradient17"
       x1="1.307"
       y1="41.703999"
       x2="46.695999"
       y2="41.703999"
       gradientUnits="userSpaceOnUse" />
    <linearGradient
       inkscape:collect="always"
       xlink:href="#linearGradient18"
       id="linearGradient20"
       x1="14.649"
       y1="43.665001"
       x2="33.493999"
       y2="43.665001"
       gradientUnits="userSpaceOnUse" />
    <linearGradient
       inkscape:collect="always"
       xlink:href="#linearGradient21"
       id="linearGradient22"
       x1="24.001499"
       y1="40.055"
       x2="24.001499"
       y2="1.314"
       gradientUnits="userSpaceOnUse" />
  </defs>
  <sodipodi:namedview
     id="namedview16"
     pagecolor="#ffffff"
     bordercolor="#000000"
     borderopacity="0.25"
     inkscape:showpageshadow="2"
     inkscape:pageopacity="0.0"
     inkscape:pagecheckerboard="0"
     inkscape:deskcolor="#d1d1d1"
     inkscape:zoom="9.4280904"
     inkscape:cx="22.91026"
     inkscape:cy="30.600046"
     inkscape:window-width="1920"
     inkscape:window-height="996"
     inkscape:window-x="0"
     inkscape:window-y="0"
     inkscape:window-maximized="1"
     inkscape:current-layer="svg16" />
  <linearGradient
     id="a"
     x2="1"
     gradientTransform="matrix(44.2944,-0.186744,0.186744,44.2944,8.71926,1669.51)"
     gradientUnits="userSpaceOnUse">
    <stop
       stop-color="#1a1a1a"
       offset="0"
       id="stop1" />
    <stop
       stop-color="#2c2c2e"
       offset=".11"
       id="stop2" />
    <stop
       stop-color="#2a2b2d"
       offset=".51"
       id="stop3" />
    <stop
       stop-color="#2b2b2d"
       offset=".75"
       id="stop4" />
    <stop
       stop-color="#323232"
       offset=".9"
       id="stop5" />
    <stop
       stop-color="#171717"
       offset="1"
       id="stop6" />
  </linearGradient>
  <linearGradient
     id="b"
     x2="1"
     gradientTransform="matrix(-0.00154162,-38.7406,38.7406,-0.00154162,74.9066,40.0528)"
     gradientUnits="userSpaceOnUse">
    <stop
       stop-color="#bbbec4"
       offset="0"
       id="stop7" />
    <stop
       stop-color="#dcdee1"
       offset="1"
       id="stop8" />
  </linearGradient>
  <linearGradient
     id="c"
     x1="14.6558"
     x2="33.486599"
     y1="853.91302"
     y2="853.91302"
     gradientUnits="userSpaceOnUse">
    <stop
       stop-color="#197cf1"
       offset="0"
       id="stop9" />
    <stop
       stop-color="#20bcfa"
       offset="1"
       id="stop10"
       style="stop-color:#1fbcfa;stop-opacity:1;" />
  </linearGradient>
  <linearGradient
     id="d"
     x2="1"
     gradientTransform="matrix(0,-3.48937,3.48937,0,183.229,44.9756)"
     gradientUnits="userSpaceOnUse">
    <stop
       stop-color="#040404"
       stop-opacity=".45"
       offset="0"
       id="stop11" />
    <stop
       stop-color="#121212"
       stop-opacity=".41"
       offset="1"
       id="stop12" />
  </linearGradient>
  <g
     id="g1"
     transform="matrix(1.2337791,0,0,1.2342414,1.3893016,1.3782064)">
    <g
       transform="translate(-0.0015)"
       id="g15">
      <path
         d="M 42.349,46.686 H 5.654 C 3.744,46.686 2.027,45.505 1.909,43.6 1.814,42.054 1.308,36.733 1.307,36.722 h 45.389 c -10e-4,0.011 -0.507,5.332 -0.602,6.878 -0.118,1.905 -1.835,3.086 -3.745,3.086 z"
         fill-rule="nonzero"
         id="path12"
         style="fill:url(#linearGradient17)" />
      <path
         d="M 44.067,4.555 C 43.915,2.723 42.385,1.314 40.547,1.314 H 7.456 c -1.838,0 -3.368,1.409 -3.52,3.241 -0.587,7.112 -1.988,24.061 -2.617,31.677 -0.081,0.984 0.253,1.957 0.921,2.683 0.669,0.727 1.611,1.14 2.598,1.14 h 38.327 c 0.987,0 1.929,-0.413 2.598,-1.14 0.668,-0.726 1.002,-1.699 0.921,-2.683 -0.629,-7.616 -2.03,-24.565 -2.617,-31.677 z"
         id="path13"
         style="fill:url(#linearGradient22)" />
      <path
         d="m 33.494,43.661 c 0,-0.166 -0.066,-0.326 -0.184,-0.444 C 33.192,43.1 33.032,43.033 32.866,43.033 H 15.277 c -0.167,0 -0.327,0.067 -0.444,0.184 -0.118,0.118 -0.184,0.278 -0.184,0.444 v 0.008 c 0,0.167 0.066,0.327 0.184,0.444 0.117,0.118 0.277,0.184 0.444,0.184 h 17.589 c 0.166,0 0.326,-0.066 0.444,-0.184 0.118,-0.117 0.184,-0.277 0.184,-0.444 z"
         id="path14"
         style="fill:url(#linearGradient20)" />
      <circle
         cx="37.571999"
         cy="43.448002"
         r="1.745"
         id="circle14"
         style="fill:#121821;fill-opacity:1" />
      <path
         d="m 38.349,43.104 c -0.061,-0.122 -0.147,-0.224 -0.257,-0.306 -0.032,-0.025 -0.068,-0.034 -0.108,-0.029 -0.04,0.005 -0.072,0.024 -0.096,0.057 -0.024,0.032 -0.033,0.067 -0.027,0.107 0.005,0.04 0.024,0.072 0.056,0.096 0.074,0.056 0.131,0.125 0.172,0.206 0.04,0.081 0.061,0.167 0.061,0.259 0,0.079 -0.016,0.154 -0.046,0.225 -0.031,0.072 -0.072,0.134 -0.125,0.186 -0.052,0.052 -0.114,0.094 -0.185,0.124 -0.072,0.031 -0.147,0.046 -0.226,0.046 -0.079,0 -0.154,-0.015 -0.225,-0.046 -0.072,-0.03 -0.134,-0.072 -0.186,-0.124 -0.052,-0.052 -0.094,-0.114 -0.124,-0.186 -0.031,-0.071 -0.046,-0.146 -0.046,-0.225 0,-0.092 0.02,-0.178 0.06,-0.259 0.041,-0.081 0.098,-0.15 0.172,-0.206 0.032,-0.024 0.051,-0.056 0.057,-0.096 0.005,-0.039 -0.004,-0.075 -0.028,-0.107 -0.024,-0.033 -0.055,-0.052 -0.095,-0.057 -0.04,-0.005 -0.076,0.004 -0.109,0.029 -0.11,0.082 -0.196,0.184 -0.257,0.306 -0.061,0.122 -0.091,0.252 -0.091,0.39 0,0.118 0.023,0.231 0.069,0.338 0.046,0.108 0.108,0.201 0.186,0.279 0.078,0.078 0.171,0.14 0.279,0.186 0.107,0.046 0.22,0.069 0.338,0.069 0.118,0 0.231,-0.023 0.339,-0.069 0.107,-0.046 0.2,-0.108 0.278,-0.186 0.078,-0.078 0.14,-0.171 0.186,-0.279 0.046,-0.107 0.069,-0.22 0.069,-0.338 0,-0.138 -0.03,-0.268 -0.091,-0.39 z m -0.781,0.39 c 0.039,0 0.074,-0.015 0.102,-0.043 0.029,-0.029 0.044,-0.063 0.044,-0.103 v -0.727 c 0,-0.039 -0.015,-0.073 -0.044,-0.102 -0.028,-0.029 -0.063,-0.043 -0.102,-0.043 -0.039,0 -0.073,0.014 -0.102,0.043 -0.029,0.029 -0.043,0.063 -0.043,0.102 v 0.727 c 0,0.04 0.014,0.074 0.043,0.103 0.029,0.028 0.063,0.043 0.102,0.043 z"
         fill-rule="nonzero"
         id="path15"
         style="fill:#f1f3f3;fill-opacity:1" />
    </g>
    <path
       d="m 24,8.259717 c -5.937638,0 -10.82382,4.886182 -10.82382,10.82382 0,5.937638 4.886182,10.82382 10.82382,10.82382 5.937638,0 10.82382,-4.886182 10.82382,-10.82382 0,-5.937638 -4.886182,-10.82382 -10.82382,-10.82382 z m 0,6.95817 c 2.120696,0 3.86565,1.744954 3.86565,3.86565 0,2.120696 -1.744954,3.86565 -3.86565,3.86565 -2.120696,0 -3.86565,-1.744954 -3.86565,-3.86565 0,-2.120696 1.744954,-3.86565 3.86565,-3.86565 z"
       fill-opacity=".31"
       fill-rule="nonzero"
       id="path16"
       style="fill:#5a79a5;fill-opacity:1;stroke-width:0.77313" />
  </g>
</svg>
