<?xml version="1.0" encoding="UTF-8" standalone="no"?>
<svg
   width="62"
   height="62"
   version="1"
   id="svg6"
   sodipodi:docname="kcmdf.svg"
   inkscape:version="1.4 (unknown)"
   xmlns:inkscape="http://www.inkscape.org/namespaces/inkscape"
   xmlns:sodipodi="http://sodipodi.sourceforge.net/DTD/sodipodi-0.dtd"
   xmlns="http://www.w3.org/2000/svg"
   xmlns:svg="http://www.w3.org/2000/svg">
  <defs
     id="defs6" />
  <sodipodi:namedview
     id="namedview6"
     pagecolor="#ffffff"
     bordercolor="#000000"
     borderopacity="0.25"
     inkscape:showpageshadow="2"
     inkscape:pageopacity="0.0"
     inkscape:pagecheckerboard="0"
     inkscape:deskcolor="#d1d1d1"
     inkscape:zoom="12.078125"
     inkscape:cx="32"
     inkscape:cy="32"
     inkscape:window-width="1920"
     inkscape:window-height="996"
     inkscape:window-x="0"
     inkscape:window-y="0"
     inkscape:window-maximized="1"
     inkscape:current-layer="svg6" />
  <g
     id="g6"
     transform="translate(-0.5,-1)">
    <rect
       style="opacity:0.2;stroke-width:0.982302"
       width="27.5"
       height="27.508774"
       x="4"
       y="32.491226"
       rx="4.5266967"
       ry="5.0940332"
       id="rect1" />
    <rect
       style="opacity:0.2;stroke-width:0.982302"
       width="27.5"
       height="27.508774"
       x="31.5"
       y="32.491226"
       rx="4.5266967"
       ry="5.0940332"
       id="rect2" />
    <rect
       style="fill:#ff9955;stroke-width:0.982302"
       width="27.5"
       height="27.508774"
       x="4"
       y="31.508774"
       rx="4.5266967"
       ry="5.0940332"
       id="rect3" />
    <rect
       style="fill:#37c871;stroke-width:0.982302"
       width="27.5"
       height="27.508774"
       x="31.5"
       y="31.508774"
       rx="4.5266967"
       ry="5.0940332"
       id="rect4" />
    <rect
       style="opacity:0.2;stroke-width:0.964601"
       width="27.5"
       height="26.526318"
       x="17.75"
       y="4.9824567"
       rx="4.5266967"
       ry="4.9121037"
       id="rect5" />
    <rect
       style="fill:#00ccff;stroke-width:0.982302"
       width="27.5"
       height="27.508774"
       x="17.75"
       y="4"
       rx="4.5266967"
       ry="5.0940332"
       id="rect6" />
    <path
       style="opacity:0.2;fill:#ffffff;stroke-width:0.982302"
       d="M 22.27706,4 C 19.769247,4 17.75,6.2704599 17.75,9.0926528 v 0.9824592 c 0,-2.8221966 2.019247,-5.0926562 4.52706,-5.0926562 h 18.445863 c 2.507822,0 4.527069,2.2704597 4.527069,5.0926562 V 9.0926528 C 45.249992,6.2704599 43.230745,4 40.722923,4 Z"
       id="path6" />
  </g>
</svg>
