<?xml version="1.0" encoding="UTF-8" standalone="no"?>
<svg
   clip-rule="evenodd"
   fill-rule="evenodd"
   stroke-linejoin="round"
   stroke-miterlimit="2"
   viewBox="0 0 62 62"
   version="1.1"
   id="svg5"
   sodipodi:docname="kcmmemory.svg"
   width="62"
   height="62"
   inkscape:version="1.4 (unknown)"
   xmlns:inkscape="http://www.inkscape.org/namespaces/inkscape"
   xmlns:sodipodi="http://sodipodi.sourceforge.net/DTD/sodipodi-0.dtd"
   xmlns:xlink="http://www.w3.org/1999/xlink"
   xmlns="http://www.w3.org/2000/svg"
   xmlns:svg="http://www.w3.org/2000/svg">
  <defs
     id="defs5">
    <linearGradient
       id="linearGradient5"
       inkscape:collect="always">
      <stop
         style="stop-color:#a4b4c1;stop-opacity:1;"
         offset="0"
         id="stop5" />
      <stop
         style="stop-color:#e4ebec;stop-opacity:1;"
         offset="1"
         id="stop6" />
    </linearGradient>
    <linearGradient
       inkscape:collect="always"
       xlink:href="#linearGradient5"
       id="linearGradient6"
       x1="32.733604"
       y1="62"
       x2="32.733604"
       y2="6"
       gradientUnits="userSpaceOnUse" />
  </defs>
  <sodipodi:namedview
     id="namedview5"
     pagecolor="#ffffff"
     bordercolor="#000000"
     borderopacity="0.25"
     inkscape:showpageshadow="2"
     inkscape:pageopacity="0.0"
     inkscape:pagecheckerboard="0"
     inkscape:deskcolor="#d1d1d1"
     inkscape:zoom="8.0520833"
     inkscape:cx="28.129366"
     inkscape:cy="45.888745"
     inkscape:window-width="1920"
     inkscape:window-height="996"
     inkscape:window-x="0"
     inkscape:window-y="0"
     inkscape:window-maximized="1"
     inkscape:current-layer="svg5" />
  <linearGradient
     id="a"
     x2="1"
     gradientTransform="matrix(0,-33.6872,33.6872,0,923.28,40.4502)"
     gradientUnits="userSpaceOnUse">
    <stop
       stop-color="#2e2e2e"
       offset="0"
       id="stop1" />
    <stop
       stop-color="#505050"
       offset="1"
       id="stop2" />
  </linearGradient>
  <g
     id="g5"
     transform="translate(-1.733613,-3)">
    <path
       d="m 56.733622,38.666667 v 3.111111 h -48 v -3.111111 z m 0,-6.222223 v 3.111112 h -48 v -3.111112 z m 0,-6.222222 v 3.111111 h -48 v -3.111111 z m 0,-6.222222 v 3.111111 h -48 V 20 Z m 0,24.888889 V 48 h -48 v -3.111111 z m 0,6.222222 v 3.111111 h -48 v -3.111111 z m 0,-37.333333 v 3.111111 h -48 v -3.111111 z"
       fill="#8e8e8e"
       id="path3"
       style="stroke-width:1.52753;fill:#9cafc9;fill-opacity:1" />
    <path
       d="m 48.56064,6 c 2.544413,0 4.610013,2.044 4.610013,4.562444 V 57.437556 C 53.170653,59.956 51.105053,62 48.56064,62 H 16.906567 c -2.544413,0 -4.610013,-2.044 -4.610013,-4.562444 V 10.562444 C 12.296554,8.044 14.362154,6 16.906567,6 Z"
       fill="#adadad"
       id="path4"
       style="stroke-width:1.50691;fill:url(#linearGradient6)" />
    <path
       d="m 43.738182,13.777778 v 14 h -3.144161 v -14 z m 0,17.111111 v 6.222222 h -3.144161 v -6.222222 z m 0,9.333333 v 14 h -3.144161 v -14 z M 34.305694,13.777778 V 30.888889 H 31.161532 V 13.777778 Z m 0,20.222222 V 51.111111 H 31.161532 V 34 Z M 24.873204,13.777778 V 20 h -3.144161 v -6.222222 z m 0,9.333333 v 6.222222 h -3.144161 v -6.222222 z m 0,9.333333 V 44.888889 H 21.729043 V 32.444444 Z"
       fill="#363636"
       id="path5"
       style="stroke-width:1.5638;fill:#2d3d53;fill-opacity:1" />
  </g>
</svg>
