<?xml version="1.0" encoding="UTF-8" standalone="no"?>
<svg
   width="62"
   height="62"
   version="1.1"
   id="svg5"
   sodipodi:docname="kdiskmark.svg"
   inkscape:version="1.4 (unknown)"
   xmlns:inkscape="http://www.inkscape.org/namespaces/inkscape"
   xmlns:sodipodi="http://sodipodi.sourceforge.net/DTD/sodipodi-0.dtd"
   xmlns="http://www.w3.org/2000/svg"
   xmlns:svg="http://www.w3.org/2000/svg">
  <defs
     id="defs5" />
  <sodipodi:namedview
     id="namedview5"
     pagecolor="#ffffff"
     bordercolor="#000000"
     borderopacity="0.25"
     inkscape:showpageshadow="2"
     inkscape:pageopacity="0.0"
     inkscape:pagecheckerboard="0"
     inkscape:deskcolor="#d1d1d1"
     inkscape:zoom="10"
     inkscape:cx="28.45"
     inkscape:cy="36.25"
     inkscape:window-width="1920"
     inkscape:window-height="996"
     inkscape:window-x="0"
     inkscape:window-y="0"
     inkscape:window-maximized="1"
     inkscape:current-layer="svg5" />
  <g
     id="g5"
     transform="translate(-1,-1)">
    <path
       style="opacity:0.2"
       d="M 32,13 C 16.536027,13 4,25.336027 4,40.8 4.0095834,44.656571 4.8157523,48.469582 6.3679687,52 H 57.632032 C 59.184248,48.469582 59.990417,44.65657 60,40.8 60,25.336027 47.463973,13 32,13 Z"
       id="path1" />
    <path
       style="fill:#aa87de"
       d="M 32,12 C 16.536027,12 4,24.336027 4,39.8 4.0095834,43.656571 4.8157523,47.469582 6.3679687,51 H 57.632032 C 59.184248,47.469582 59.990417,43.65657 60,39.8 60,24.336027 47.463973,12 32,12 Z"
       id="path2" />
    <path
       style="opacity:0.2"
       d="m 31.884766,19 c -11.87977,0.0622 -21.588654,9.586505 -21.878907,21.462891 a 1.5,1.5 0 0 0 1.462891,1.535156 1.5,1.5 0 0 0 1.537109,-1.462891 C 13.257269,30.248132 21.610436,22.053878 31.900391,22 c 10.289955,-0.05388 18.728771,8.05211 19.08789,18.335938 a 1.5,1.5 0 0 0 1.550781,1.447265 1.5,1.5 0 0 0 1.447266,-1.550781 C 53.571724,28.359727 43.764535,18.937797 31.884766,19 Z m 12.824218,12.003906 c -0.09137,-0.007 -0.18305,-0.0052 -0.27539,0.0059 C 44.06595,31.053226 43.729519,31.239985 43.5,31.527344 L 34.685547,42.609375 C 33.85764,42.266367 32.94983,42 32,42 c -3.849441,0 -7,3.192715 -7,7 h 3 c 0,-2.310613 1.663803,-4 4,-4 2.336198,0 4,1.689387 4,4 h 3 c 0,-1.872175 -0.763962,-3.574631 -1.996094,-4.824219 l 8.695313,-10.935547 c 0.478644,-0.60046 0.374593,-1.469839 -0.232422,-1.943359 -0.219253,-0.170695 -0.483687,-0.271881 -0.757813,-0.292969 z"
       id="path3" />
    <path
       style="fill:#f2f2f2;fill-opacity:1"
       d="m 31.884766,18 c -11.87977,0.0622 -21.588654,9.586505 -21.878907,21.462891 a 1.5,1.5 0 0 0 1.462891,1.535156 1.5,1.5 0 0 0 1.537109,-1.462891 C 13.257269,29.248132 21.610436,21.053878 31.900391,21 c 10.289955,-0.05388 18.728771,8.05211 19.08789,18.335938 a 1.5,1.5 0 0 0 1.550781,1.447265 1.5,1.5 0 0 0 1.447266,-1.550781 C 53.571724,27.359727 43.764535,17.937797 31.884766,18 Z m 12.824218,12.003906 c -0.09137,-0.007 -0.18305,-0.0052 -0.27539,0.0059 C 44.06595,30.053226 43.729519,30.239985 43.5,30.527344 L 34.685547,41.609375 C 33.85764,41.266367 32.94983,41 32,41 c -3.849441,0 -7,3.192715 -7,7 h 3 c 0,-2.310613 1.663803,-4 4,-4 2.336198,0 4,1.689387 4,4 h 3 c 0,-1.872175 -0.763962,-3.574631 -1.996094,-4.824219 l 8.695313,-10.935547 c 0.478644,-0.60046 0.374593,-1.469839 -0.232422,-1.943359 -0.219253,-0.170695 -0.483687,-0.271881 -0.757813,-0.292969 z"
       id="path4" />
    <path
       style="opacity:0.2;fill:#ffffff"
       d="M 32,12 C 16.536027,12 4,24.336808 4,39.800781 c 3.939e-4,0.158518 0.01059,0.316256 0.013672,0.47461 C 4.2947738,25.059191 16.712172,13 32,13 47.287828,13 59.705226,25.059191 59.986328,40.275391 59.98941,40.117037 59.999606,39.959299 60,39.800781 60,24.336808 47.463973,12 32,12 Z"
       id="path5" />
  </g>
</svg>
