<?xml version="1.0" encoding="UTF-8" standalone="no"?>
<svg
   clip-rule="evenodd"
   fill-rule="evenodd"
   stroke-linejoin="round"
   stroke-miterlimit="2"
   viewBox="0 0 62 62"
   version="1.1"
   id="svg6"
   sodipodi:docname="kdocker.svg"
   width="62"
   height="62"
   inkscape:version="1.4 (unknown)"
   xmlns:inkscape="http://www.inkscape.org/namespaces/inkscape"
   xmlns:sodipodi="http://sodipodi.sourceforge.net/DTD/sodipodi-0.dtd"
   xmlns:xlink="http://www.w3.org/1999/xlink"
   xmlns="http://www.w3.org/2000/svg"
   xmlns:svg="http://www.w3.org/2000/svg">
  <defs
     id="defs6">
    <linearGradient
       inkscape:collect="always"
       xlink:href="#linearGradient8"
       id="linearGradient10"
       x1="31.5"
       y1="59.017544"
       x2="31.5"
       y2="4.9824562"
       gradientUnits="userSpaceOnUse"
       gradientTransform="translate(-0.5,-1)" />
    <linearGradient
       id="linearGradient8"
       inkscape:collect="always">
      <stop
         style="stop-color:#4f9fe3;stop-opacity:1;"
         offset="0"
         id="stop8" />
      <stop
         style="stop-color:#4f9fe3;stop-opacity:1;"
         offset="0.27792206"
         id="stop6" />
      <stop
         style="stop-color:#4763ad;stop-opacity:1;"
         offset="0.27792206"
         id="stop7" />
      <stop
         style="stop-color:#4763ad;stop-opacity:1;"
         offset="1"
         id="stop10" />
    </linearGradient>
  </defs>
  <sodipodi:namedview
     id="namedview6"
     pagecolor="#ffffff"
     bordercolor="#000000"
     borderopacity="0.25"
     inkscape:showpageshadow="2"
     inkscape:pageopacity="0.0"
     inkscape:pagecheckerboard="0"
     inkscape:deskcolor="#d1d1d1"
     inkscape:zoom="4.0260417"
     inkscape:cx="80.227684"
     inkscape:cy="28.688228"
     inkscape:window-width="1920"
     inkscape:window-height="996"
     inkscape:window-x="0"
     inkscape:window-y="0"
     inkscape:window-maximized="1"
     inkscape:current-layer="svg6" />
  <linearGradient
     id="a"
     x2="1"
     gradientTransform="matrix(0,-32.502,32.502,0,104.78125,4.0345175)"
     gradientUnits="userSpaceOnUse">
    <stop
       stop-color="#3b4f85"
       offset="0"
       id="stop1" />
    <stop
       stop-color="#4763ad"
       offset="1"
       id="stop2" />
  </linearGradient>
  <rect
     style="opacity:0.2;stroke-width:0.9823"
     width="55"
     height="55.017544"
     x="3.5"
     y="3.9824562"
     rx="8.25"
     ry="8.2526312"
     id="rect1" />
  <rect
     style="fill:url(#linearGradient10);stroke-width:0.9823"
     width="55"
     height="55.017544"
     x="3.5"
     y="3"
     rx="8.25"
     ry="8.2526312"
     id="rect2" />
  <path
     style="opacity:0.1;fill:#ffffff;stroke-width:0.9823"
     d="M 11.748466,3 C 7.1779652,3 3.5,6.6791384 3.5,11.251097 v 0.982456 c 0,-4.5719585 3.6779652,-8.2510969 8.248466,-8.2510969 h 38.503068 c 4.5705,0 8.248466,3.6791384 8.248466,8.2510969 V 11.251097 C 58.5,6.6791384 54.822034,3 50.251534,3 Z"
     id="path4-3" />
  <ellipse
     style="opacity:0.2"
     cx="31"
     cy="51.5"
     id="circle2-5"
     rx="2.9999998"
     ry="3" />
  <ellipse
     style="opacity:0.2"
     cx="38.999001"
     cy="51.5"
     id="circle3-3"
     rx="2.9999998"
     ry="3" />
  <ellipse
     style="opacity:0.2"
     cx="47"
     cy="51.5"
     id="circle4-5"
     rx="2.9999998"
     ry="3" />
  <ellipse
     style="fill:#f2f2f2;fill-opacity:1"
     cx="31"
     cy="50.5"
     id="circle5-6"
     rx="2.9999998"
     ry="3" />
  <ellipse
     style="fill:#f2f2f2;fill-opacity:1"
     cx="38.999001"
     cy="50.5"
     id="circle6-2"
     rx="2.9999998"
     ry="3" />
  <ellipse
     style="fill:#f2f2f2;fill-opacity:1"
     cx="47"
     cy="50.5"
     id="circle7-9"
     rx="2.9999998"
     ry="3" />
  <rect
     style="opacity:0.2"
     width="23"
     height="17"
     x="10"
     y="12"
     rx="2.875"
     ry="2.8329999"
     id="rect8-1" />
  <rect
     style="fill:#f2f2f2;fill-opacity:1"
     width="23"
     height="17"
     x="10"
     y="11"
     rx="2.875"
     ry="2.8329999"
     id="rect9-2" />
  <path
     style="opacity:0.2"
     d="m 29.4,17.8 c 0,0 7.000002,4.4 7.000002,14.2 H 30.8 l 8.400002,11 8.4,-11 h -5.6 C 42.000002,19.4 29.4,17.8 29.4,17.8 Z"
     id="path9-7" />
  <path
     style="fill:#37c871;fill-opacity:1"
     d="m 29.4,16.8 c 0,0 7.000002,4.4 7.000002,14.2 H 30.8 l 8.400002,11 8.4,-11 h -5.6 C 42.000002,18.4 29.4,16.8 29.4,16.8 Z"
     id="path10-0" />
</svg>
