<?xml version="1.0" encoding="UTF-8" standalone="no"?>
<svg
   height="62"
   width="62"
   version="1.1"
   id="svg5"
   sodipodi:docname="keduca.svg"
   inkscape:version="1.4 (unknown)"
   xmlns:inkscape="http://www.inkscape.org/namespaces/inkscape"
   xmlns:sodipodi="http://sodipodi.sourceforge.net/DTD/sodipodi-0.dtd"
   xmlns="http://www.w3.org/2000/svg"
   xmlns:svg="http://www.w3.org/2000/svg">
  <defs
     id="defs5" />
  <sodipodi:namedview
     id="namedview5"
     pagecolor="#ffffff"
     bordercolor="#000000"
     borderopacity="0.25"
     inkscape:showpageshadow="2"
     inkscape:pageopacity="0.0"
     inkscape:pagecheckerboard="0"
     inkscape:deskcolor="#d1d1d1"
     inkscape:zoom="7.0710678"
     inkscape:cx="20.435386"
     inkscape:cy="41.931432"
     inkscape:window-width="1920"
     inkscape:window-height="996"
     inkscape:window-x="0"
     inkscape:window-y="0"
     inkscape:window-maximized="1"
     inkscape:current-layer="svg5" />
  <g
     id="g5"
     transform="matrix(0.98214286,0,0,0.98245614,-1.2060996,-0.92982456)">
    <circle
       cx="32"
       cy="33"
       r="28"
       style="opacity:0.2"
       id="circle1" />
    <path
       style="fill:#37c871"
       d="M 32,4 A 28,28 0 0 0 4,32 28,28 0 0 0 32,60 28,28 0 0 0 34,59.927734 V 4.101562 A 28,28 0 0 0 32,4 Z"
       id="path1" />
    <path
       style="fill:#c83771"
       d="M 32,4 V 60 A 28,28 0 0 0 60,32 28,28 0 0 0 32,4 Z"
       id="path2" />
    <path
       d="M 32,4 A 28,28 0 0 0 4,32 28,28 0 0 0 4.0215,32.586 28,28 0 0 1 32,5 28,28 0 0 1 59.979,32.414 28,28 0 0 0 60,32 28,28 0 0 0 32,4 Z"
       style="opacity:0.2;fill:#ffffff"
       id="path3" />
    <path
       style="opacity:0.2"
       d="m 31.999352,13 c -6.409,0 -11.900391,5.591 -11.900391,12 h 5.800781 c 0,-3.19 2.90961,-6.199219 6.09961,-6.199219 3.19,0 6.100906,2.610781 6.100906,5.800781 0,1.595 -0.637937,3.041938 -1.710937,4.085938 l -3.597656,3.65625 c -2.088001,2.117 -3.69075,5.017031 -3.690751,8.207031 V 42 h 5.898438 v -1 h -0.05859 c 0.19426,-3.614822 1.735908,-5.264641 3.651688,-7.207031 L 41.201821,31.125 c 1.653,-1.653 2.699218,-3.971438 2.699218,-6.523438 C 43.901039,18.192563 38.408352,13 31.999352,13 Z m -3,34 v 6 h 6 v -6 z"
       id="path4" />
    <path
       style="fill:#f2f2f2;fill-opacity:1"
       d="m 31.999352,12 c -6.409,0 -11.900391,5.591 -11.900391,12 h 5.800781 c 0,-3.19 2.90961,-6.199219 6.09961,-6.199219 3.19,0 6.100906,2.610781 6.100906,5.800781 0,1.595 -0.637937,3.041938 -1.710937,4.085938 l -3.597656,3.65625 c -2.088001,2.117 -3.69075,5.017031 -3.690751,8.207031 V 41 h 5.898438 v -1 h -0.05859 c 0.19426,-3.614822 1.735908,-5.264641 3.651688,-7.207031 L 41.201821,30.125 c 1.653,-1.653 2.699218,-3.971438 2.699218,-6.523438 C 43.901039,17.192563 38.408352,12 31.999352,12 Z m -3,34 v 6 h 6 v -6 z"
       id="path5" />
  </g>
</svg>
