<?xml version="1.0" encoding="UTF-8" standalone="no"?>
<svg
   width="62"
   height="62"
   version="1"
   id="svg5"
   sodipodi:docname="keeweb.svg"
   inkscape:version="1.4 (unknown)"
   xmlns:inkscape="http://www.inkscape.org/namespaces/inkscape"
   xmlns:sodipodi="http://sodipodi.sourceforge.net/DTD/sodipodi-0.dtd"
   xmlns="http://www.w3.org/2000/svg"
   xmlns:svg="http://www.w3.org/2000/svg">
  <defs
     id="defs5" />
  <sodipodi:namedview
     id="namedview5"
     pagecolor="#ffffff"
     bordercolor="#000000"
     borderopacity="0.25"
     inkscape:showpageshadow="2"
     inkscape:pageopacity="0.0"
     inkscape:pagecheckerboard="0"
     inkscape:deskcolor="#d1d1d1"
     inkscape:zoom="7.0710678"
     inkscape:cx="30.334881"
     inkscape:cy="43.628488"
     inkscape:window-width="1920"
     inkscape:window-height="996"
     inkscape:window-x="0"
     inkscape:window-y="0"
     inkscape:window-maximized="1"
     inkscape:current-layer="svg5" />
  <g
     id="g6"
     transform="translate(-0.5,-1.0000002)">
    <rect
       style="opacity:0.2;stroke-width:0.982302"
       width="55"
       height="55.017544"
       x="4"
       y="4.9824567"
       rx="27.5"
       ry="27.508772"
       id="rect1" />
    <rect
       style="fill:#5f8dd3;stroke-width:0.982302;fill-opacity:1"
       width="55"
       height="55.017544"
       x="4"
       y="4"
       rx="27.5"
       ry="27.508772"
       id="rect2" />
    <path
       style="opacity:0.2;stroke-width:0.982302"
       d="m 28.377088,18.837086 a 7.8583934,9.8229935 44.958379 0 0 -7.289344,3.33498 7.8583934,9.8229935 44.958379 0 0 -1.38881,12.505203 7.8583934,9.8229935 44.958379 0 0 10.993479,-0.118965 l 10.70957,10.712986 c 1.058041,1.058378 2.52799,1.289742 3.297469,0.520015 0.769486,-0.769732 0.538199,-2.240142 -0.519841,-3.298519 l -2.257778,-2.258498 1.390731,-1.389252 0.867047,0.86924 c 0.288551,0.288648 0.829506,0.210248 1.214249,-0.174619 0.384745,-0.384858 0.46312,-0.925985 0.174561,-1.214637 l -3.124825,-3.127736 c -0.28856,-0.288651 -0.831427,-0.210251 -1.216172,0.174617 -0.384739,0.384858 -0.461197,0.925985 -0.172638,1.214638 l 0.867047,0.869242 -1.388809,1.389255 -7.057234,-7.059485 a 7.8583934,9.8229935 44.958379 0 0 0.113178,-11.002738 7.8583934,9.8229935 44.958379 0 0 -5.21188,-1.945727 z m 0.406667,2.88021 a 3.9285709,3.929824 0 0 1 2.721994,1.149393 3.9285709,3.929824 0 0 1 0,5.557018 3.9285709,3.929824 0 0 1 -3.028917,1.139805 3.9285709,3.929824 0 0 1 -1.139433,3.029875 3.9285709,3.929824 0 0 1 -5.555245,0 3.9285709,3.929824 0 0 1 0,-5.558933 3.9285709,3.929824 0 0 1 3.028914,-1.137883 3.9285709,3.929824 0 0 1 1.13752,-3.029882 3.9285709,3.929824 0 0 1 2.835167,-1.149393 z"
       id="path2" />
    <g
       transform="matrix(0.69447971,0.69470122,-0.69447971,0.69470122,32.893993,-11.4616)"
       id="g5">
      <path
         style="fill:#f2f2f2;fill-opacity:1"
         d="m 23,22 a 8.0000004,10 0 0 0 -8,10 8.0000004,10 0 0 0 8,10 8.0000004,10 0 0 0 8,-10 8.0000004,10 0 0 0 -8,-10 z m 0,3 a 4,4 0 0 1 4,4 4,4 0 0 1 -1.361328,3 A 4,4 0 0 1 27,35 4,4 0 0 1 23,39 4,4 0 0 1 19,35 4,4 0 0 1 20.361328,32 4,4 0 0 1 19,29 4,4 0 0 1 23,25 Z"
         id="path3" />
      <rect
         style="fill:#f2f2f2;fill-opacity:1"
         width="22"
         height="4"
         x="27"
         y="30"
         rx="2.75"
         ry="2"
         id="rect3" />
      <rect
         style="fill:#f2f2f2;fill-opacity:1"
         width="6"
         height="2"
         x="39"
         y="26"
         rx="0.75"
         ry="1"
         id="rect4" />
      <rect
         style="fill:#f2f2f2;fill-opacity:1"
         width="7"
         height="2"
         x="27"
         y="-43"
         rx="0.875"
         ry="1"
         transform="rotate(90)"
         id="rect5" />
    </g>
    <path
       style="opacity:0.2;fill:#ffffff;stroke-width:0.982302"
       d="M 31.499992,4 C 16.264996,4 4,16.268908 4,31.508764 4,31.620224 4.011076,31.728947 4.017263,31.838812 4.3625296,16.903757 16.483744,4.9824558 31.499992,4.9824558 c 15.016248,0 27.137466,11.9213012 27.48273,26.8563562 0.0063,-0.109865 0.01727,-0.218588 0.01727,-0.330048 C 58.999985,16.268908 46.734988,4 31.499992,4 Z"
       id="path5" />
  </g>
</svg>
