<?xml version="1.0" encoding="UTF-8" standalone="no"?>
<svg
   height="62"
   width="62"
   version="1.1"
   id="svg9"
   sodipodi:docname="kiki-the-nano-bot.svg"
   inkscape:version="1.4 (unknown)"
   xmlns:inkscape="http://www.inkscape.org/namespaces/inkscape"
   xmlns:sodipodi="http://sodipodi.sourceforge.net/DTD/sodipodi-0.dtd"
   xmlns="http://www.w3.org/2000/svg"
   xmlns:svg="http://www.w3.org/2000/svg">
  <defs
     id="defs9" />
  <sodipodi:namedview
     id="namedview9"
     pagecolor="#ffffff"
     bordercolor="#000000"
     borderopacity="0.25"
     inkscape:showpageshadow="2"
     inkscape:pageopacity="0.0"
     inkscape:pagecheckerboard="0"
     inkscape:deskcolor="#d1d1d1"
     inkscape:zoom="6.0390625"
     inkscape:cx="35.187581"
     inkscape:cy="32.538163"
     inkscape:window-width="1920"
     inkscape:window-height="996"
     inkscape:window-x="0"
     inkscape:window-y="0"
     inkscape:window-maximized="1"
     inkscape:current-layer="svg9" />
  <g
     id="g9"
     transform="translate(-0.5,-1)">
    <path
       style="opacity:0.2;stroke-width:0.982303"
       d="m 41.321428,4.982456 c -9.763601,0 -17.678572,12.316101 -17.678572,27.508774 C 23.642856,47.683903 31.557827,60 41.321428,60 51.085039,60 59,47.683903 59,32.49123 59,17.298557 51.085039,4.982456 41.321428,4.982456 Z m 0,9.824564 c 4.910714,0 9.821428,7.85965 9.821428,17.68421 0,9.82456 -3.928567,17.68421 -9.821428,17.68421 -5.892851,0 -9.821428,-7.85965 -9.821428,-17.68421 0,-9.82456 4.910714,-17.68421 9.821428,-17.68421 z"
       id="path1" />
    <path
       style="fill:#5454c4;stroke-width:0.982303;fill-opacity:1"
       d="m 41.321428,4 c -9.763601,0 -17.678572,12.316097 -17.678572,27.50877 0,15.192673 7.914971,27.50877 17.678572,27.50877 C 51.085039,59.01754 59,46.701443 59,31.50877 59,16.316097 51.085039,4 41.321428,4 Z m 0,9.82456 c 4.910714,0 9.821428,7.85965 9.821428,17.68421 0,9.82456 -3.928567,17.68421 -9.821428,17.68421 -5.892851,0 -9.821428,-7.85965 -9.821428,-17.68421 0,-9.82456 4.910714,-17.68421 9.821428,-17.68421 z"
       id="path2" />
    <path
       style="opacity:0.1;fill:#ffffff;stroke-width:0.982303"
       d="m 41.321428,4 c -9.763601,0 -17.678572,12.316097 -17.678572,27.50877 0,0.165806 0.01351,0.326124 0.01533,0.49123 0.170158,-14.963654 8.006178,-27.017544 17.66322,-27.017544 9.657052,0 17.493072,12.05389 17.663232,27.017544 0.0019,-0.165106 0.01532,-0.325424 0.01532,-0.49123 C 59,16.316097 51.085039,4 41.321428,4 Z m -9.808,28.046055 c -0.0023,0.149484 -0.01347,0.294742 -0.01347,0.445175 0,9.82456 3.928577,17.68421 9.821428,17.68421 5.892861,0 9.821434,-7.85965 9.821434,-17.68421 0,-0.150433 -0.01114,-0.295691 -0.01347,-0.445175 -0.141855,9.569755 -4.024038,17.146925 -9.808008,17.146925 -5.783961,0 -9.666143,-7.57717 -9.808,-17.146925 z"
       id="path3" />
    <path
       style="opacity:0.2;stroke-width:0.982303"
       d="m 31.5,50.17544 c 11.785721,0 23.571433,-17.68421 23.571433,-17.68421 0,0 -11.785712,-17.68421 -23.571433,-17.68421 -17.678572,0 -17.678572,17.68421 -17.678572,17.68421 0,0 0,17.68421 17.678572,17.68421 z"
       id="path4" />
    <path
       style="fill:#ff9955;stroke-width:0.982303"
       d="m 31.5,49.19298 c 11.785721,0 23.571433,-17.68421 23.571433,-17.68421 0,0 -11.785712,-17.68421 -23.571433,-17.68421 -17.678572,0 -17.678572,17.68421 -17.678572,17.68421 0,0 0,17.68421 17.678572,17.68421 z"
       id="path5" />
    <path
       style="opacity:0.2;fill:#ffffff;stroke-width:0.982303"
       d="m 31.5,13.82456 c -17.678572,0 -17.678572,17.68421 -17.678572,17.68421 0,0 0.01374,0.278912 0.02303,0.49123 0.106118,-2.414942 1.40564,-17.19298 17.655549,-17.19298 10.834072,0 21.55102,14.779714 23.229986,17.19298 0.147471,-0.211971 0.341447,-0.49123 0.341447,-0.49123 0,0 -11.785712,-17.68421 -23.571433,-17.68421 z"
       id="path6" />
    <path
       style="opacity:0.2;stroke-width:0.982303"
       d="M 21.678572,4.982456 A 17.678572,27.50877 0 0 0 4,32.49123 17.678572,27.50877 0 0 0 21.678572,60 17.678572,27.50877 0 0 0 39.357144,32.49123 17.678572,27.50877 0 0 0 21.678572,4.982456 Z m 0,9.824565 A 9.8214289,17.68421 0 0 1 31.5,32.49123 9.8214289,17.68421 0 0 1 21.678572,50.17544 9.8214289,17.68421 0 0 1 11.857144,32.49123 9.8214289,17.68421 0 0 1 21.678572,14.807021 Z"
       id="path7" />
    <path
       style="fill:#5353c5;stroke-width:0.982303;fill-opacity:1"
       d="M 21.678572,4 A 17.678572,27.50877 0 0 0 4,31.50877 17.678572,27.50877 0 0 0 21.678572,59.01754 17.678572,27.50877 0 0 0 39.357144,31.50877 17.678572,27.50877 0 0 0 21.678572,4 Z m 0,9.824561 A 9.8214289,17.68421 0 0 1 31.5,31.50877 9.8214289,17.68421 0 0 1 21.678572,49.19298 9.8214289,17.68421 0 0 1 11.857144,31.50877 9.8214289,17.68421 0 0 1 21.678572,13.824561 Z"
       id="path8" />
    <path
       style="opacity:0.2;fill:#ffffff;stroke-width:0.982303"
       d="M 21.678572,4 A 17.678572,27.50877 0 0 0 4,31.50877 17.678572,27.50877 0 0 0 4.0134276,31.915572 17.678572,27.50877 0 0 1 21.678572,4.982456 17.678572,27.50877 0 0 1 39.343717,32.084428 17.678572,27.50877 0 0 0 39.357144,31.50877 17.678572,27.50877 0 0 0 21.678572,4 Z m 9.809923,27.915572 A 9.8214289,17.68421 0 0 1 21.678572,49.19298 9.8214289,17.68421 0 0 1 11.86865,32.084428 a 9.8214289,17.68421 0 0 0 -0.01152,0.406802 9.8214289,17.68421 0 0 0 9.821428,17.68421 9.8214289,17.68421 0 0 0 9.821428,-17.68421 9.8214289,17.68421 0 0 0 -0.01151,-0.575658 z"
       id="path9" />
  </g>
</svg>
