<?xml version="1.0" encoding="UTF-8" standalone="no"?>
<svg
   width="62"
   height="62"
   version="1"
   id="svg9"
   sodipodi:docname="killing-floor.svg"
   inkscape:version="1.4 (unknown)"
   xmlns:inkscape="http://www.inkscape.org/namespaces/inkscape"
   xmlns:sodipodi="http://sodipodi.sourceforge.net/DTD/sodipodi-0.dtd"
   xmlns:xlink="http://www.w3.org/1999/xlink"
   xmlns="http://www.w3.org/2000/svg"
   xmlns:svg="http://www.w3.org/2000/svg">
  <defs
     id="defs9">
    <linearGradient
       id="linearGradient9"
       inkscape:collect="always">
      <stop
         style="stop-color:#2d3d53;stop-opacity:1;"
         offset="0"
         id="stop9" />
      <stop
         style="stop-color:#486184;stop-opacity:1;"
         offset="1"
         id="stop10" />
    </linearGradient>
    <linearGradient
       inkscape:collect="always"
       xlink:href="#linearGradient9"
       id="linearGradient10"
       x1="32"
       y1="60"
       x2="32"
       y2="5"
       gradientUnits="userSpaceOnUse" />
  </defs>
  <sodipodi:namedview
     id="namedview9"
     pagecolor="#ffffff"
     bordercolor="#000000"
     borderopacity="0.25"
     inkscape:showpageshadow="2"
     inkscape:pageopacity="0.0"
     inkscape:pagecheckerboard="0"
     inkscape:deskcolor="#d1d1d1"
     inkscape:zoom="6.0390625"
     inkscape:cx="49.59379"
     inkscape:cy="32.041397"
     inkscape:window-width="1920"
     inkscape:window-height="996"
     inkscape:window-x="0"
     inkscape:window-y="0"
     inkscape:window-maximized="1"
     inkscape:current-layer="svg9" />
  <g
     id="g9"
     transform="matrix(0.98214286,0,0,0.98245614,-0.42857152,-0.92982455)">
    <path
       style="opacity:0.2"
       d="M 60,33 A 28,28 0 0 1 32,61 28,28 0 0 1 4,33 28,28 0 0 1 32,5 28,28 0 0 1 60,33 Z"
       id="path1" />
    <path
       style="fill:url(#linearGradient10)"
       d="M 60,32 A 28,28 0 0 1 32,60 28,28 0 0 1 4,32 28,28 0 0 1 32,4 28,28 0 0 1 60,32 Z"
       id="path2" />
    <path
       style="opacity:0.2"
       d="m 32,17 c -3.214706,-5.54e-4 -6.355034,0.967271 -9.011718,2.777344 0.504096,1.269182 1.284752,2.38836 2.246094,3.328124 C 27.226248,21.738648 29.584274,21.004828 32,21 c 2.420642,5.3e-4 4.784536,0.733118 6.78125,2.101562 0.952206,-0.935194 1.728986,-2.04527 2.230468,-3.304686 C 38.357262,17.979887 35.21676,17.005202 32,17 Z M 16.597656,31.699218 c -0.183002,7.4e-5 -0.362525,0.0174 -0.542968,0.02734 C 16.019551,32.150146 16.001308,32.574962 16,33 c 0.0059,5.891336 3.248909,11.3028 8.441406,14.085938 0.779654,-1.075626 1.35512,-2.307766 1.640626,-3.65625 C 22.326032,41.300426 20.003436,37.317554 20,33 c 0.0044,-0.218994 0.0148,-0.437826 0.03126,-0.65625 -1.082169,-0.411416 -2.239726,-0.643472 -3.433604,-0.644532 z m 30.800782,0 c -1.187624,0.002 -2.343722,0.227962 -3.421876,0.63672 0.014,0.221096 0.02176,0.442534 0.02344,0.664062 -0.0056,4.31697 -2.329646,8.298214 -6.085938,10.425782 0.285762,1.354238 0.868516,2.58885 1.652344,3.667968 C 44.75835,44.307202 47.998488,38.892462 48,33 c -0.004,-0.425142 -0.02476,-0.849958 -0.0625,-1.273438 -0.17982,-0.0098 -0.356696,-0.02734 -0.539062,-0.02734 z"
       id="path3" />
    <path
       style="fill:#ffd633;fill-opacity:1"
       d="m 32,16 c -3.214706,-5.54e-4 -6.355034,0.967271 -9.011718,2.777344 0.504096,1.269182 1.284752,2.38836 2.246094,3.328124 C 27.226248,20.738648 29.584274,20.004828 32,20 c 2.420642,5.3e-4 4.784536,0.733118 6.78125,2.101562 0.952206,-0.935194 1.728986,-2.04527 2.230468,-3.304687 C 38.357262,16.979887 35.21676,16.005202 32,16 Z M 16.597656,30.699218 c -0.183002,7.4e-5 -0.362525,0.0174 -0.542968,0.02734 C 16.019551,31.150146 16.001308,31.574962 16,32 c 0.0059,5.891336 3.248909,11.3028 8.441406,14.085938 0.779654,-1.075626 1.35512,-2.307766 1.640626,-3.65625 C 22.326032,40.300426 20.003436,36.317554 20,32 c 0.0044,-0.218994 0.0148,-0.437826 0.03126,-0.65625 -1.082169,-0.411416 -2.239726,-0.643472 -3.433604,-0.644532 z m 30.800782,0 c -1.187624,0.002 -2.343722,0.227962 -3.421876,0.63672 0.014,0.221096 0.02176,0.442534 0.02344,0.664062 -0.0056,4.31697 -2.329646,8.298214 -6.085938,10.425782 0.285762,1.354238 0.868516,2.58885 1.652344,3.667968 C 44.75835,43.307202 47.998488,37.892462 48,32 c -0.004,-0.425142 -0.02476,-0.849958 -0.0625,-1.273438 -0.17982,-0.0098 -0.356696,-0.02734 -0.539062,-0.02734 z"
       id="path4" />
    <path
       style="opacity:0.2"
       d="M 31.19336,5.0300782 A 28,28 0 0 0 23.001172,6.5230468 15.4,15.4 0 0 0 16.6,19 15.4,15.4 0 0 0 17.704687,24.71211 15.4,15.4 0 0 0 4.3171874,37.003124 28,28 0 0 0 5.4082032,41.659766 11.2,11.2 0 0 1 5.4,41.4 11.2,11.2 0 0 1 16.6,30.2 11.2,11.2 0 0 1 26.148436,35.56211 L 28.0625,34.457422 A 4.2,4.2 0 0 1 27.8,33 4.2,4.2 0 0 1 31.3,28.857422 v -1.49297 A 11.2,11.2 0 0 1 20.8,16.2 11.2,11.2 0 0 1 31.19336,5.0300782 Z m 1.935938,0.027344 A 11.2,11.2 0 0 1 43.2,16.2 11.2,11.2 0 0 1 32.7,27.37539 v 1.490234 A 4.2,4.2 0 0 1 36.2,33 4.2,4.2 0 0 1 36.0168,34.225 l 1.966016,1.134766 A 11.2,11.2 0 0 1 47.4,30.2 11.2,11.2 0 0 1 58.6,41.4 11.2,11.2 0 0 1 58.5836,41.73086 28,28 0 0 0 59.688288,36.932032 15.4,15.4 0 0 0 46.292584,24.701172 15.4,15.4 0 0 0 47.4,19 15.4,15.4 0 0 0 40.963282,6.5011718 28,28 0 0 0 33.129298,5.0574222 Z M 35.385156,35.477344 A 4.2,4.2 0 0 1 32,37.2 4.2,4.2 0 0 1 28.7625,35.671484 L 26.799218,36.80625 A 11.2,11.2 0 0 1 27.8,41.4 11.2,11.2 0 0 1 16.6,52.6 11.2,11.2 0 0 1 10.283594,50.65039 28,28 0 0 0 13.936718,54.391016 15.4,15.4 0 0 0 19.4,55.4 15.4,15.4 0 0 0 32.005468,48.832032 15.4,15.4 0 0 0 44.6,55.4 15.4,15.4 0 0 0 50.016798,54.39375 28,28 0 0 0 53.727344,50.628516 11.2,11.2 0 0 1 47.4,52.6 11.2,11.2 0 0 1 36.2,41.4 11.2,11.2 0 0 1 37.301952,36.584766 Z"
       id="path5" />
    <path
       style="fill:#ffb380"
       d="M 31.19336,4.0300782 A 28,28 0 0 0 23.001172,5.5230468 15.4,15.4 0 0 0 16.6,18 15.4,15.4 0 0 0 17.704687,23.71211 15.4,15.4 0 0 0 4.3171874,36.003124 28,28 0 0 0 5.4082032,40.659766 11.2,11.2 0 0 1 5.4,40.4 11.2,11.2 0 0 1 16.6,29.2 11.2,11.2 0 0 1 26.148436,34.56211 L 28.0625,33.457422 A 4.2,4.2 0 0 1 27.8,32 4.2,4.2 0 0 1 31.3,27.857422 v -1.49297 A 11.2,11.2 0 0 1 20.8,15.2 11.2,11.2 0 0 1 31.19336,4.0300782 Z m 1.935938,0.027344 A 11.2,11.2 0 0 1 43.2,15.2 11.2,11.2 0 0 1 32.7,26.37539 v 1.490234 A 4.2,4.2 0 0 1 36.2,32 4.2,4.2 0 0 1 36.0168,33.225 l 1.966016,1.134766 A 11.2,11.2 0 0 1 47.4,29.2 11.2,11.2 0 0 1 58.6,40.4 11.2,11.2 0 0 1 58.5836,40.73086 28,28 0 0 0 59.688288,35.932032 15.4,15.4 0 0 0 46.292584,23.701172 15.4,15.4 0 0 0 47.4,18 15.4,15.4 0 0 0 40.963282,5.5011718 28,28 0 0 0 33.129298,4.0574222 Z M 35.385156,34.477344 A 4.2,4.2 0 0 1 32,36.2 4.2,4.2 0 0 1 28.7625,34.671484 L 26.799218,35.80625 A 11.2,11.2 0 0 1 27.8,40.4 11.2,11.2 0 0 1 16.6,51.6 11.2,11.2 0 0 1 10.283594,49.65039 28,28 0 0 0 13.936718,53.391016 15.4,15.4 0 0 0 19.4,54.4 15.4,15.4 0 0 0 32.005468,47.832032 15.4,15.4 0 0 0 44.6,54.4 15.4,15.4 0 0 0 50.016798,53.39375 28,28 0 0 0 53.727344,49.628516 11.2,11.2 0 0 1 47.4,51.6 11.2,11.2 0 0 1 36.2,40.4 11.2,11.2 0 0 1 37.301952,35.584766 Z"
       id="path6" />
    <path
       style="opacity:0.2;fill:#ffffff"
       d="m 32,16 c -3.214706,-5.54e-4 -6.355035,0.967271 -9.011719,2.777344 0.105794,0.266361 0.230105,0.522514 0.359375,0.77539 C 25.927208,17.893708 28.927041,16.99947 32,17 c 3.07482,0.005 6.074778,0.904789 8.652344,2.570312 0.12944,-0.252282 0.253525,-0.507607 0.359375,-0.773437 C 38.357263,16.979887 35.21676,16.005202 32,16 Z M 16.597656,30.699219 c -0.183002,7.4e-5 -0.362526,0.0174 -0.542968,0.02734 C 16.01955,31.150151 16.001308,31.574962 16,32 c 1.84e-4,0.18345 0.01311,0.364421 0.01953,0.546875 0.0086,-0.273613 0.01252,-0.54745 0.03516,-0.820313 0.180442,-0.0099 0.359966,-0.02727 0.542968,-0.02734 1.186873,0.0011 2.337366,0.231764 3.414063,0.638672 C 20.00845,32.225067 20.00009,32.113312 20,32 c 0.0044,-0.218994 0.01479,-0.437826 0.03125,-0.65625 -1.082169,-0.411416 -2.239716,-0.643471 -3.433594,-0.644531 z m 30.800782,0 c -1.187624,0.002 -2.343722,0.22796 -3.421876,0.636719 0.014,0.221095 0.02176,0.442534 0.02344,0.664062 -1.44e-4,0.111335 -0.0085,0.221169 -0.01172,0.332031 1.074863,-0.406 2.226768,-0.630819 3.410157,-0.632812 0.182366,0 0.359242,0.01754 0.539062,0.02734 0.02564,0.287741 0.03294,0.576577 0.04297,0.865235 C 47.987799,32.394761 47.999949,32.198198 48,32 c -0.004,-0.425142 -0.02476,-0.849958 -0.0625,-1.273438 -0.17982,-0.0098 -0.356696,-0.02734 -0.539062,-0.02734 z m -3.416016,1.810547 c -0.180369,4.118225 -2.460795,7.872686 -6.06836,9.916015 0.06189,0.293297 0.143646,0.577665 0.232422,0.859375 C 41.764129,41.126601 43.994518,37.225989 44,33 43.9988,32.836457 43.9904,32.673109 43.98242,32.509766 Z m -23.962891,0.07422 C 20.011905,32.722614 20.002789,32.861178 20,33 c 0.0034,4.22622 2.232814,8.126791 5.849609,10.287109 0.08834,-0.281147 0.170492,-0.564915 0.232422,-0.857421 -3.585638,-2.032685 -5.86012,-5.755948 -6.0625,-9.845704 z"
       id="path7" />
    <path
       style="opacity:0.2;fill:#ffffff"
       d="M 31.193359,4.0292969 A 28,28 0 0 0 23.001953,5.5234375 15.4,15.4 0 0 0 16.599609,18 15.4,15.4 0 0 0 16.617188,18.330078 15.4,15.4 0 0 1 23.001953,6.5234375 28,28 0 0 1 26.128906,5.671875 11.2,11.2 0 0 1 31.193359,4.0292969 Z m 1.935547,0.027344 a 11.2,11.2 0 0 1 4.720703,1.609375 28,28 0 0 1 3.113282,0.8359375 A 15.4,15.4 0 0 1 47.376953,18.556641 15.4,15.4 0 0 0 47.400391,18 15.4,15.4 0 0 0 40.962891,5.5019531 28,28 0 0 0 33.128906,4.0566409 Z M 43.179688,15.617188 A 11.2,11.2 0 0 1 32.699219,26.375 v 1 a 11.2,11.2 0 0 0 10.5,-11.175781 11.2,11.2 0 0 0 -0.01953,-0.582031 z m -22.355469,0.08398 a 11.2,11.2 0 0 0 -0.02344,0.498047 11.2,11.2 0 0 0 10.5,11.166015 v -1 A 11.2,11.2 0 0 1 20.824219,15.701172 Z m 25.796875,8.046875 A 15.4,15.4 0 0 1 46.292969,24.701172 15.4,15.4 0 0 1 59.582031,36.521484 28,28 0 0 0 59.6875,35.931641 15.4,15.4 0 0 0 46.621094,23.748047 Z m -29.251953,0.01953 A 15.4,15.4 0 0 0 4.3164062,36.003906 28,28 0 0 0 4.4238281,36.542969 15.4,15.4 0 0 1 17.705078,24.712891 15.4,15.4 0 0 1 17.369141,23.767578 Z m 10.464843,8.71875 A 4.2,4.2 0 0 0 27.800781,33 a 4.2,4.2 0 0 0 0.04297,0.582031 l 0.21875,-0.125 a 4.2,4.2 0 0 1 -0.228516,-0.970703 z m 8.332032,0.01758 a 4.2,4.2 0 0 1 -0.148438,0.720703 l 0.166016,0.0957 A 4.2,4.2 0 0 0 36.199219,33 a 4.2,4.2 0 0 0 -0.0332,-0.496094 z m -0.78125,1.972656 A 4.2,4.2 0 0 1 32,36.199219 4.2,4.2 0 0 1 28.761719,34.671875 l -1.962891,1.134766 a 11.2,11.2 0 0 1 0.322266,0.814453 l 1.640625,-0.949219 A 4.2,4.2 0 0 0 32,37.199219 4.2,4.2 0 0 0 35.384766,35.476562 l 1.582031,0.914063 a 11.2,11.2 0 0 1 0.335937,-0.806641 z m -7.607422,6.402344 a 11.2,11.2 0 0 1 -11.177735,10.720703 11.2,11.2 0 0 1 -6.316406,-1.949218 28,28 0 0 0 1.769531,1.976562 11.2,11.2 0 0 0 4.546875,0.972656 11.2,11.2 0 0 0 11.201172,-11.199218 11.2,11.2 0 0 0 -0.02344,-0.521485 z m 8.443359,0.115235 a 11.2,11.2 0 0 0 -0.02148,0.40625 11.2,11.2 0 0 0 11.201172,11.199218 11.2,11.2 0 0 0 4.511718,-0.964843 28,28 0 0 0 1.814453,-2.00586 11.2,11.2 0 0 1 -6.326171,1.970703 11.2,11.2 0 0 1 -11.179688,-10.605468 z"
       id="path8" />
    <path
       style="opacity:0.1;fill:#ffffff"
       d="M 32,4 A 28,28 0 0 0 4,32 28,28 0 0 0 4.0175781,32.492188 28,28 0 0 1 32,5 28,28 0 0 1 59.974609,32.492188 28,28 0 0 0 60,32 28,28 0 0 0 32,4 Z"
       id="path9" />
  </g>
</svg>
