<?xml version="1.0" encoding="UTF-8" standalone="no"?>
<svg
   width="62"
   height="62"
   version="1.1"
   id="svg1"
   sodipodi:docname="kindd.svg"
   inkscape:version="1.4 (unknown)"
   xmlns:inkscape="http://www.inkscape.org/namespaces/inkscape"
   xmlns:sodipodi="http://sodipodi.sourceforge.net/DTD/sodipodi-0.dtd"
   xmlns:xlink="http://www.w3.org/1999/xlink"
   xmlns="http://www.w3.org/2000/svg"
   xmlns:svg="http://www.w3.org/2000/svg">
  <defs
     id="defs1">
    <linearGradient
       id="linearGradient1"
       inkscape:collect="always">
      <stop
         style="stop-color:#b3b3b3;stop-opacity:1"
         offset="0"
         id="stop1" />
      <stop
         style="stop-color:#ececec;stop-opacity:1"
         offset="1"
         id="stop2" />
    </linearGradient>
    <linearGradient
       inkscape:collect="always"
       xlink:href="#linearGradient1"
       id="linearGradient2"
       x1="32"
       y1="58"
       x2="32"
       y2="6"
       gradientUnits="userSpaceOnUse"
       gradientTransform="matrix(1.0769236,0,0,1.0769236,-3.4615425,-3.4615425)" />
  </defs>
  <sodipodi:namedview
     id="namedview1"
     pagecolor="#ffffff"
     bordercolor="#000000"
     borderopacity="0.25"
     inkscape:showpageshadow="2"
     inkscape:pageopacity="0.0"
     inkscape:pagecheckerboard="0"
     inkscape:deskcolor="#d1d1d1"
     inkscape:zoom="6.0546875"
     inkscape:cx="39.473548"
     inkscape:cy="38.565161"
     inkscape:window-width="1920"
     inkscape:window-height="996"
     inkscape:window-x="0"
     inkscape:window-y="0"
     inkscape:window-maximized="1"
     inkscape:current-layer="svg1" />
  <rect
     width="56"
     height="56"
     x="3"
     y="3"
     fill-rule="evenodd"
     rx="8.6153917"
     ry="8.6153917"
     style="fill:url(#linearGradient2);stroke-width:1.07683;paint-order:stroke fill markers"
     id="rect1" />
  <g
     id="g3"
     transform="translate(3.3773,1.5000002)">
    <g
       id="g1"
       transform="matrix(0.71093744,0,0,0.7074128,-0.6040935,-33.074848)">
      <path
         d="m 66.165161,83.074462 c -3.796601,1.41673 -4.998937,5.396028 -4.988,8.9364 0.028,9.063598 -5.174627,16.938788 -13.340423,19.769268 -2.813256,0.97515 -5.941311,0.2039 -8.458651,1.73587 -2.81914,2.22838 -4.2886,5.02807 -5.189926,8.49161 -1.713633,2.27298 -5.629066,0.37395 -7.754716,-0.3763 -2.416517,-1.28485 -4.369862,-2.92453 -5.268284,-5.55685 0.587051,-2.89869 4.711835,-2.52548 6.5056,-4.62542 1.820619,-1.31324 3.47005,-3.03748 4.8944,-4.77458 -7.219757,-0.83755 -14.926548,-3.87646 -18.851243,-10.278676 -2.97517,-4.761669 -3.548757,-10.721322 -3.548757,-16.321322 5.530232,3.505814 12.624025,3.074655 18.735522,1.843656 3.903996,-0.820224 8.115243,-1.480454 11.873412,0.308687 2.285284,0.906267 3.509462,1.902228 5.391066,3.347657 1.598577,-3.433837 5.189829,-6.535842 9.446,-6.392 2.364689,-0.02874 4.130895,1.246624 5.976227,2.411052 1.398002,0.708893 3.026507,1.733178 4.577773,1.480948 z"
         style="opacity:0.2"
         id="path1-5" />
      <path
         d="m 66.165161,82.074164 c -3.796601,1.41673 -4.998937,5.396028 -4.988,8.9364 0.028,9.063596 -5.174627,16.938786 -13.340423,19.769266 -2.813256,0.97515 -5.941311,0.2039 -8.458651,1.73587 -2.81914,2.22838 -4.2886,5.02807 -5.189926,8.49161 -1.713633,2.27298 -5.629066,0.37395 -7.754716,-0.3763 -2.416517,-1.28485 -4.369862,-2.92452 -5.268284,-5.55685 0.587051,-2.89869 4.711835,-2.52548 6.5056,-4.62542 1.820619,-1.31324 3.47005,-3.03748 4.8944,-4.77458 -7.219757,-0.83755 -14.926548,-3.87646 -18.851243,-10.278674 -2.97517,-4.761669 -3.548757,-10.721322 -3.548757,-16.321322 5.530232,3.505814 12.624025,3.074655 18.735522,1.843656 3.903996,-0.820224 8.115243,-1.480454 11.873412,0.308687 2.285284,0.906267 3.509462,1.902228 5.391066,3.347657 1.598577,-3.433837 5.189829,-6.535842 9.446,-6.392 2.364689,-0.02874 4.130895,1.246624 5.976227,2.411052 1.398002,0.708893 3.026507,1.733178 4.577773,1.480948 z"
         style="fill:#22a1f7;fill-opacity:1"
         id="path2" />
      <circle
         cx="54.665161"
         cy="84.574165"
         r="1.5"
         style="opacity:0.1"
         id="circle2" />
      <circle
         cx="54.665161"
         cy="83.574165"
         r="1.5"
         style="fill:#2d3d53;fill-opacity:1"
         id="circle3" />
      <path
         d="m 10.299145,83.279632 c 0.0675,0.967531 0.178423,1.929181 0.314454,2.8875 l 7.921875,0.787891 c 1.87365,0.352237 2.346161,-2.488458 0.459374,-2.761718 l -8.599999,-0.9 c -0.03173,-0.0057 -0.06365,-0.01025 -0.0957,-0.01372 z m 9.504298,6.991999 c -0.07871,-0.0011 -0.157372,0.0043 -0.235157,0.01641 l -7.726953,1.131829 c 0.319367,0.917407 0.71186,1.801584 1.156641,2.663282 l 6.964062,-1.022456 c 1.728033,-0.21898 1.583125,-2.76738 -0.158593,-2.789063 z m 3,3.791869 c -0.2674,-0.0036 -0.530236,0.06947 -0.757423,0.210546 l -6.064843,4.039181 c 0.674355,0.707125 1.398031,1.362965 2.171093,1.960543 l 5.332032,-3.598942 C 24.71281,95.962726 24.22325,94.085099 22.803443,94.0635 Z m 4.934375,3.996906 c -0.363718,0.01084 -0.70893,0.162849 -0.9625,0.423829 l -4.507814,4.307895 c 0.90937,0.43853 1.851603,0.81156 2.808204,1.15118 l 3.679296,-3.47939 c 0.915743,-0.89014 0.25934,-2.441158 -1.017186,-2.403514 z m 6,2.000004 c -0.363718,0.0108 -0.70893,0.16285 -0.9625,0.42383 l -4,4.20008 c -0.08275,0.0801 -0.155306,0.1701 -0.216016,0.26797 1.098682,0.25558 2.197354,0.46368 3.294922,0.6125 l 2.90078,-3.10087 c 0.915743,-0.89014 0.25934,-2.44116 -1.017186,-2.40351 z"
         style="opacity:0.2"
         id="path3" />
      <path
         d="m 55.610473,78.181586 c -4.25617,-0.143842 -7.846735,2.958741 -9.445312,6.392578 -1.881604,-1.445429 -3.105341,-2.441389 -5.390625,-3.347656 -3.758169,-1.789141 -7.969051,-1.128818 -11.873047,-0.308594 -6.111497,1.230999 -13.206096,1.662064 -18.736328,-1.84375 0,0.33383 0.01116,0.671757 0.01563,1.007812 5.52808,3.495651 12.614669,3.065837 18.720703,1.835938 3.903996,-0.820224 8.114878,-1.480547 11.873047,0.308594 2.285284,0.906267 3.509021,1.902227 5.390625,3.347656 1.598577,-3.433837 5.189142,-6.53642 9.445312,-6.392578 2.364689,-0.02874 4.131231,1.247681 5.976563,2.412109 0.917235,0.465108 1.934123,1.05867 2.962891,1.345703 0.478545,-0.343403 1.010708,-0.639652 1.615229,-0.865234 -1.551266,0.25223 -3.180123,-0.771576 -4.578125,-1.480469 -1.845332,-1.164428 -3.611874,-2.440849 -5.976563,-2.412109 z M 31.79602,106.57026 c -1.240756,1.42263 -2.619749,2.79315 -4.125,3.8789 -1.793765,2.09994 -5.918808,1.72631 -6.505859,4.625 0.05223,0.15303 0.120447,0.29107 0.179688,0.4375 0.982563,-2.29147 4.659002,-2.11076 6.326171,-4.0625 1.820619,-1.31323 3.470182,-3.03829 4.894532,-4.77539 -0.255471,-0.0296 -0.513031,-0.0683 -0.769532,-0.10351 z"
         style="opacity:0.2;fill:#ffffff"
         id="path4" />
    </g>
    <g
       id="g2"
       transform="matrix(0.99531243,0,0,0.99286243,-1.1925326,0.05639895)">
      <path
         d="m 48.2617,11.99114 c 0.822,2.108 -0.22,4.485 -2.329,5.308 -0.191,-0.489 -0.281,-0.993 -0.281,-1.488 0,-1.64 0.99,-3.188 2.61,-3.82 z m -4.856,1.812 c -1.712,1.479 -4.3,1.292 -5.781,-0.42 0.775,-0.67 1.729,-0.998 2.679,-0.998 1.149,0 2.292,0.481 3.102,1.418 z m -2.497,-8.824 c 1.71,1.484 1.893,4.073 0.408,5.782 -0.933,-0.811 -1.411,-1.951 -1.411,-3.097 0,-0.953 0.33,-1.909 1.003,-2.685 z"
         id="path3-2"
         style="fill:#37c871;fill-rule:nonzero" />
      <path
         d="m 47.1227,25.66314 c -0.011,0 -0.022,-10e-4 -0.033,-10e-4 -0.276,-0.019 -0.485,-0.257 -0.467,-0.533 0.466,-7.074 -3.589,-13.722 -10.091,-16.542 -0.254,-0.11 -0.371,-0.405 -0.261,-0.659 0.11,-0.254 0.406,-0.37 0.659,-0.26 6.89,2.988 11.187,10.031 10.693,17.527 -0.018,0.264 -0.238,0.468 -0.5,0.468 z"
         id="path4-9"
         style="fill:#917c6f;fill-rule:nonzero" />
    </g>
  </g>
</svg>
