<?xml version="1.0" encoding="UTF-8" standalone="no"?>
<svg
   width="62"
   height="62"
   version="1"
   id="svg6"
   sodipodi:docname="KittehPlayer.svg"
   inkscape:version="1.4 (unknown)"
   xmlns:inkscape="http://www.inkscape.org/namespaces/inkscape"
   xmlns:sodipodi="http://sodipodi.sourceforge.net/DTD/sodipodi-0.dtd"
   xmlns="http://www.w3.org/2000/svg"
   xmlns:svg="http://www.w3.org/2000/svg">
  <defs
     id="defs6" />
  <sodipodi:namedview
     id="namedview6"
     pagecolor="#ffffff"
     bordercolor="#000000"
     borderopacity="0.25"
     inkscape:showpageshadow="2"
     inkscape:pageopacity="0.0"
     inkscape:pagecheckerboard="0"
     inkscape:deskcolor="#d1d1d1"
     inkscape:zoom="12.078125"
     inkscape:cx="31.958603"
     inkscape:cy="32"
     inkscape:window-width="1920"
     inkscape:window-height="996"
     inkscape:window-x="0"
     inkscape:window-y="0"
     inkscape:window-maximized="1"
     inkscape:current-layer="svg6" />
  <g
     id="g6"
     transform="translate(-0.5,-0.0507817)">
    <rect
       style="opacity:0.2;stroke-width:0.972295"
       width="45"
       height="44.452713"
       x="9"
       y="14.598069"
       rx="14.0625"
       ry="13.891473"
       id="rect1" />
    <path
       style="fill:#df3d6b;stroke-width:0.972295"
       d="m 21.717386,3.0507812 c 0,0 -6.847822,6.766053 -6.847822,12.1776878 v 4.201414 h 33.260868 v -4.201414 c 0,-5.4116348 -6.847832,-12.1776878 -6.847832,-12.1776878 0,0 -6.847821,6.766053 -6.847821,12.1776878 h -5.869563 c 0,-5.4116348 -6.84783,-12.1776878 -6.84783,-12.1776878 z"
       id="path1" />
    <path
       style="opacity:0.3;stroke-width:0.972295"
       d="m 21.717386,8.4639252 c 0,0 -4.107928,4.0573678 -4.107928,7.3043498 h 8.215861 c 2e-6,-3.246982 -4.107933,-7.3043498 -4.107933,-7.3043498 z m 19.565214,0 c 0,0 -4.107924,4.0573678 -4.107924,7.3043498 h 8.21586 C 45.390538,12.521293 41.2826,8.4639252 41.2826,8.4639252 Z"
       id="path2" />
    <path
       style="opacity:0.1;fill:#c83771;stroke-width:0.972295"
       d="m 21.717386,3.0507812 c 0,0 -6.847822,6.766053 -6.847822,12.1776878 h 0.0726 c 0.712511,-5.217231 6.775203,-11.2113246 6.775203,-11.2113246 0,10e-8 6.062697,5.9940936 6.775223,11.2113246 h 0.0726 c 0,-5.4116348 -6.84783,-12.1776877 -6.84783,-12.1776878 z m 19.565214,0 c 0,0 -6.847821,6.766053 -6.847821,12.1776878 h 0.0726 c 0.712516,-5.217231 6.775206,-11.2113246 6.775206,-11.2113246 0,10e-8 6.062699,5.9940936 6.775224,11.2113246 h 0.0726 c 0,-5.4116348 -6.847828,-12.1776877 -6.847829,-12.1776878 z"
       id="path3" />
    <rect
       style="fill:#c83771;stroke-width:0.972295"
       width="45"
       height="44.452713"
       x="9"
       y="13.6317"
       rx="14.0625"
       ry="13.891473"
       id="rect3" />
    <path
       style="opacity:0.1;isolation:isolate;stroke-width:0.972295"
       d="m 25.263587,20.396244 c -5.746304,0 -10.394023,4.591201 -10.394023,10.267611 v 12.321131 c 0,5.676421 4.647719,10.26761 10.394023,10.26761 h 12.472824 c 5.746299,0 10.394021,-4.591189 10.394021,-10.26761 V 30.663855 c 0,-5.67641 -4.647722,-10.267611 -10.394021,-10.267611 z m 0.233099,1.932727 h 12.006625 c 4.815647,0 8.670602,3.808073 8.670602,8.565149 v 11.860602 c 0,4.757079 -3.854955,8.565151 -8.670602,8.565151 H 25.496686 c -4.815648,0 -8.670601,-3.808072 -8.670601,-8.565151 V 30.89412 c 0,-4.757076 3.854953,-8.565149 8.670601,-8.565149 z M 24.65217,27.160793 V 46.488058 L 41.2826,36.82442 Z"
       id="path4" />
    <path
       style="isolation:isolate;fill:#233143;stroke-width:0.972295;fill-opacity:1"
       d="m 25.263587,19.429883 c -5.746304,0 -10.394023,4.591195 -10.394023,10.267604 v 12.321135 c 0,5.676418 4.647719,10.267609 10.394023,10.267609 h 12.472824 c 5.746299,0 10.394021,-4.591191 10.394021,-10.267609 V 29.697487 c 0,-5.676409 -4.647722,-10.267604 -10.394021,-10.267604 z m 0.233099,1.932728 h 12.006625 c 4.815647,0 8.670602,3.808073 8.670602,8.565149 v 11.860595 c 0,4.75708 -3.854955,8.56515 -8.670602,8.56515 H 25.496686 c -4.815648,0 -8.670601,-3.80807 -8.670601,-8.56515 V 29.92776 c 0,-4.757076 3.854953,-8.565149 8.670601,-8.565149 z M 24.65217,26.194427 V 45.521692 L 41.2826,35.858055 Z"
       id="path5" />
    <path
       style="opacity:0.2;fill:#ffffff;stroke-width:0.972295"
       d="M 23.062499,13.63171 C 15.271878,13.63171 9,19.827299 9,27.523177 v 0.966359 C 9,20.793664 15.271878,14.598065 23.062499,14.598065 h 16.875002 c 7.790618,0 14.062496,6.195599 14.062496,13.891471 v -0.966359 c 0,-7.695878 -6.271878,-13.891467 -14.062496,-13.891467 z"
       id="path6" />
  </g>
</svg>
