<?xml version="1.0" encoding="UTF-8" standalone="no"?>
<svg
   width="62"
   height="62"
   version="1.1"
   id="svg10"
   sodipodi:docname="klatexformula.svg"
   inkscape:version="1.4 (unknown)"
   xmlns:inkscape="http://www.inkscape.org/namespaces/inkscape"
   xmlns:sodipodi="http://sodipodi.sourceforge.net/DTD/sodipodi-0.dtd"
   xmlns:xlink="http://www.w3.org/1999/xlink"
   xmlns="http://www.w3.org/2000/svg"
   xmlns:svg="http://www.w3.org/2000/svg">
  <defs
     id="defs10">
    <linearGradient
       id="linearGradient11"
       inkscape:collect="always">
      <stop
         style="stop-color:#a4b4c1;stop-opacity:1;"
         offset="0"
         id="stop11" />
      <stop
         style="stop-color:#e4ebec;stop-opacity:1;"
         offset="1"
         id="stop12" />
    </linearGradient>
    <linearGradient
       inkscape:collect="always"
       xlink:href="#linearGradient11"
       id="linearGradient12"
       x1="32"
       y1="60"
       x2="32"
       y2="4"
       gradientUnits="userSpaceOnUse"
       gradientTransform="matrix(1,0,0,0.98245614,-1,-0.43859645)" />
    <linearGradient
       id="paint154_linear_890_11"
       x1="778"
       y1="812.29199"
       x2="788"
       y2="812.29199"
       gradientUnits="userSpaceOnUse">
      <stop
         stop-color="#EFF2F6"
         id="stop1050" />
      <stop
         offset="0.600785"
         stop-color="#B7C6CD"
         id="stop1051" />
    </linearGradient>
    <linearGradient
       id="paint155_linear_890_11"
       x1="783"
       y1="813"
       x2="783"
       y2="817"
       gradientUnits="userSpaceOnUse">
      <stop
         stop-color="#EFF2F6"
         id="stop1052" />
      <stop
         offset="0.734138"
         stop-color="#B7C6CD"
         id="stop1053" />
    </linearGradient>
    <radialGradient
       id="paint156_radial_890_11"
       cx="0"
       cy="0"
       r="1"
       gradientUnits="userSpaceOnUse"
       gradientTransform="matrix(6.9999948,6.9999948,-6.9999948,6.9999948,45.000143,44.000006)">
      <stop
         offset="0.600678"
         stop-color="#B7C6CD"
         id="stop1054" />
      <stop
         offset="0.876735"
         stop-color="#EFF2F6"
         id="stop1055" />
    </radialGradient>
    <linearGradient
       id="paint157_linear_890_11"
       x1="803"
       y1="805"
       x2="763"
       y2="765"
       gradientUnits="userSpaceOnUse"
       gradientTransform="matrix(0.29166667,0,0,0.29166667,-183.37486,-184.95833)">
      <stop
         offset="0.314714"
         stop-color="#2E2E41"
         id="stop1056" />
      <stop
         offset="0.711139"
         stop-color="#566C80"
         id="stop1057" />
    </linearGradient>
    <linearGradient
       id="paint158_linear_890_11"
       x1="792"
       y1="794"
       x2="774"
       y2="776"
       gradientUnits="userSpaceOnUse"
       xlink:href="#paint160_linear_890_11"
       gradientTransform="matrix(0.29166667,0,0,0.29166667,-183.37486,-184.95833)">
      <stop
         offset="0.304478"
         stop-color="#2E2E41"
         id="stop1058"
         style="stop-color:#ffcc00;stop-opacity:1" />
      <stop
         offset="1"
         stop-color="#566C80"
         id="stop1059"
         style="stop-color:#ffb380;stop-opacity:1" />
    </linearGradient>
    <linearGradient
       id="paint160_linear_890_11"
       x1="784"
       y1="798"
       x2="782"
       y2="796"
       gradientUnits="userSpaceOnUse">
      <stop
         stop-color="#FF7E07"
         id="stop1062" />
      <stop
         offset="1"
         stop-color="#FFE607"
         id="stop1063" />
    </linearGradient>
    <linearGradient
       id="paint159_linear_890_11"
       x1="788"
       y1="790"
       x2="778"
       y2="780"
       gradientUnits="userSpaceOnUse"
       gradientTransform="matrix(0.29166667,0,0,0.29166667,-183.37486,-184.95833)">
      <stop
         offset="0.39139399"
         stop-color="#5200FF"
         id="stop1060"
         style="stop-color:#854cff;stop-opacity:1;" />
      <stop
         offset="1"
         stop-color="#0085FF"
         id="stop1061"
         style="stop-color:#40a4ff;stop-opacity:1;" />
    </linearGradient>
    <linearGradient
       id="c"
       x1="23.813"
       x2="23.813"
       y1="13.436"
       y2="35.035999"
       gradientTransform="matrix(1.2307,0,0,1.2307,-4.055,41.465)"
       gradientUnits="userSpaceOnUse">
      <stop
         offset="0"
         stop-color="#20adff"
         id="stop3" />
      <stop
         offset="1"
         stop-color="#345da2"
         id="stop4" />
    </linearGradient>
    <filter
       id="c-3"
       width="1.0595472"
       height="1.049413"
       x="-0.029773596"
       y="-0.024706516"
       color-interpolation-filters="sRGB">
      <feGaussianBlur
         stdDeviation="2.056"
         id="feGaussianBlur6" />
    </filter>
    <linearGradient
       id="d"
       x1="69.128998"
       x2="69.128998"
       y1="139.33"
       y2="-18.862"
       gradientUnits="userSpaceOnUse">
      <stop
         offset="0"
         stop-color="#6c523c"
         id="stop3-6" />
      <stop
         offset="1"
         stop-color="#ae7952"
         stop-opacity=".965"
         id="stop4-7" />
    </linearGradient>
    <linearGradient
       id="e"
       x1="78.639"
       x2="78.639"
       y1="143.06"
       y2="-25.268999"
       gradientUnits="userSpaceOnUse">
      <stop
         offset="0"
         stop-color="#291d1a"
         id="stop1" />
      <stop
         offset="1"
         stop-color="#513c34"
         id="stop2" />
    </linearGradient>
    <clipPath
       id="_clip2">
      <path
         d="m 362.691,209.643 h 9.844 v 36.359 H 65.488 v 33.244 H 33.142 V 176.398 h 32.346 v 33.245 H 226.136 V 68.456 h 36.772 z M 258.482,114.224 v 95.419 h 67.436 z"
         id="path44" />
    </clipPath>
    <clipPath
       id="_clip3">
      <path
         d="m 222.648,71.647 v 137.967 h 20.733 V 71.647 Z"
         id="path47" />
    </clipPath>
    <clipPath
       id="_clip4">
      <path
         d="m 246.665,71.675 99.352,137.968 H 366.75 L 267.398,71.675 Z"
         id="path54" />
    </clipPath>
    <clipPath
       id="_clip5">
      <path
         d="m 86.76,328.6 c -0.209,0.14 -0.307,0.397 -0.242,0.64 0.065,0.244 0.279,0.418 0.53,0.434 5.977,0.37 25.279,1.568 25.279,1.568 l -4.458,-16.639 c 0,0 -16.118,10.688 -21.109,13.997 z"
         id="path73" />
    </clipPath>
  </defs>
  <sodipodi:namedview
     id="namedview10"
     pagecolor="#ffffff"
     bordercolor="#000000"
     borderopacity="0.25"
     inkscape:showpageshadow="2"
     inkscape:pageopacity="0.0"
     inkscape:pagecheckerboard="0"
     inkscape:deskcolor="#d1d1d1"
     inkscape:zoom="8"
     inkscape:cx="55.3125"
     inkscape:cy="22.5625"
     inkscape:window-width="1920"
     inkscape:window-height="996"
     inkscape:window-x="0"
     inkscape:window-y="0"
     inkscape:window-maximized="1"
     inkscape:current-layer="svg10"
     showgrid="false">
    <inkscape:grid
       id="grid1"
       units="px"
       originx="0"
       originy="0"
       spacingx="1"
       spacingy="1"
       empcolor="#0099e5"
       empopacity="0.30196078"
       color="#0099e5"
       opacity="0.14901961"
       empspacing="5"
       enabled="true"
       visible="false" />
  </sodipodi:namedview>
  <rect
     style="opacity:0.2;stroke-width:0.991189"
     width="56"
     height="55.017544"
     x="3"
     y="3.9824562"
     rx="16.799999"
     ry="16.505262"
     id="rect1" />
  <rect
     style="fill:url(#linearGradient12);stroke-width:0.991189"
     width="56"
     height="55.017544"
     x="3"
     y="3.4912281"
     rx="16.799999"
     ry="16.505262"
     id="rect2" />
  <path
     style="opacity:0.1;fill:#ffffff;stroke-width:0.991189"
     d="M 19.800781,3 C 10.493582,3 3,10.362116 3,19.50603 v 0.982457 C 3,11.344572 10.493582,3.9824562 19.800781,3.9824562 H 42.199219 C 51.506418,3.9824562 59,11.344572 59,20.488487 V 19.50603 C 59,10.362116 51.506418,3 42.199219,3 Z"
     id="path9" />
  <g
     id="g1"
     transform="translate(-66,-11.06881)">
    <path
       style="opacity:0.1"
       d="m 87.115578,60.809165 c 0.595494,0.414878 1.316356,0.622318 2.162584,0.622318 1.143978,0 2.076396,-1.158798 2.797258,-3.476396 0.297746,-1.11588 1.112636,-4.792562 2.444662,-11.030046 l 2.209596,-10.357676 h -4.137116 c -0.31342,0 -0.470128,-0.19314 -0.470128,-0.5794 0.12538,-0.643776 0.329096,-1.419154 0.611164,-1.419154 h 4.301666 l 0.564152,-2.815448 c 0.18806,-0.88698 0.36043,-1.645205 0.51714,-2.274677 0.1567,-0.643776 0.321254,-1.237483 0.493632,-1.781117 0.18806,-0.543634 0.462294,-1.151645 0.822724,-1.824035 0.548482,-0.958511 1.285018,-1.74535 2.209598,-2.360515 0.94025,-0.62947 1.95103,-0.944205 3.03232,-0.944205 0.70519,0 1.38688,0.1216 2.04505,0.364806 0.67385,0.228899 1.22233,0.5794 1.64545,1.051502 0.42311,0.472103 0.63467,1.030044 0.63467,1.67382 0,0.74392 -0.27424,1.494471 -0.82272,2.05241 -0.53281,0.543634 -1.18315,0.81545 -1.95103,0.81545 -0.51714,0 -0.96376,-0.143062 -1.33986,-0.429183 -0.36043,-0.300431 -0.54065,-0.686697 -0.54065,-1.1588 0,-0.643777 0.23507,-1.301337 0.70519,-1.773439 0.4858,-0.486409 1.08129,-0.76538 1.78649,-0.83691 -0.5955,-0.414879 -1.33203,-0.622318 -2.2096,-0.622318 -0.4858,0 -0.94809,0.207439 -1.38688,0.622318 -0.42311,0.414879 -0.69735,0.85837 -0.82272,1.330472 -0.20372,0.74392 -0.65034,2.761088 -1.33986,6.051503 l -0.58766,2.858366 h 4.95984 c 0.31342,0 0.47013,0.646606 0.47013,1.03289 -0.0156,0.07154 -0.047,0.200284 -0.094,0.386264 -0.047,0.17168 -0.11754,0.314738 -0.21157,0.429184 -0.0784,0.10014 -0.18026,0.14776 -0.30558,0.1502 h -5.14789 l -2.233106,10.314758 c -0.282078,1.55937 -0.611168,3.147352 -0.98727,4.76395 -0.36043,1.60229 -0.877568,3.247498 -1.55142,4.935622 -0.658176,1.702434 -1.504408,3.125896 -2.538686,4.270388 -1.034278,1.144492 -2.256608,1.71674 -3.666992,1.71674 -1.081294,0 -2.05289,-0.286126 -2.91479,-0.85837 C 85.423112,61.152513 85,60.408593 85,59.478693 c 0,-0.74392 0.25857,-1.494483 0.775708,-2.052423 0.53281,-0.543632 1.198824,-0.81545 1.99804,-0.81545 0.532812,0 0.979434,0.14306 1.339866,0.429186 0.360428,0.300428 0.540644,0.686696 0.540644,1.158796 0,0.629474 -0.258572,1.301349 -0.775708,1.816371 -0.501468,0.529328 -1.08913,0.793992 -1.762978,0.793992 z"
       id="path2-3" />
    <path
       style="fill:#2d3d53;fill-opacity:1"
       d="m 87.115578,59.809161 c 0.595494,0.414878 1.316356,0.622318 2.162584,0.622318 1.143978,0 2.076396,-1.158798 2.797258,-3.476396 0.297746,-1.11588 1.112636,-4.792562 2.444662,-11.030046 l 2.209596,-10.357676 h -4.137116 c -0.31342,0 -0.470128,-0.19314 -0.470128,-0.5794 0.12538,-0.643776 0.329096,-1.419154 0.611164,-1.419154 h 4.301666 l 0.564152,-2.815448 c 0.18806,-0.88698 0.36043,-1.645205 0.51714,-2.274677 0.1567,-0.643776 0.321254,-1.237483 0.493632,-1.781117 0.18806,-0.543634 0.462294,-1.151645 0.822724,-1.824035 0.548482,-0.958511 1.285018,-1.74535 2.209598,-2.360515 0.94025,-0.62947 1.95103,-0.944205 3.03232,-0.944205 0.70519,0 1.38688,0.1216 2.04505,0.364806 0.67385,0.228899 1.22233,0.5794 1.64545,1.051502 0.42311,0.472103 0.63467,1.030044 0.63467,1.67382 0,0.74392 -0.27424,1.494471 -0.82272,2.05241 -0.53281,0.543634 -1.18315,0.81545 -1.95103,0.81545 -0.51714,0 -0.96376,-0.143062 -1.33986,-0.429183 -0.36043,-0.300431 -0.54065,-0.686697 -0.54065,-1.1588 0,-0.643777 0.23507,-1.301337 0.70519,-1.773439 0.4858,-0.486409 1.08129,-0.76538 1.78649,-0.83691 -0.5955,-0.414879 -1.33203,-0.622318 -2.2096,-0.622318 -0.4858,0 -0.94809,0.207439 -1.38688,0.622318 -0.42311,0.414879 -0.69735,0.85837 -0.82272,1.330472 -0.20372,0.74392 -0.65034,2.761088 -1.33986,6.051503 l -0.58766,2.858366 h 4.95984 c 0.31342,0 0.47013,0.646606 0.47013,1.03289 -0.0156,0.07154 -0.047,0.200284 -0.094,0.386264 -0.047,0.17168 -0.11754,0.314738 -0.21157,0.429184 -0.0784,0.10014 -0.18026,0.14776 -0.30558,0.1502 h -5.14789 l -2.233106,10.314758 c -0.282078,1.55937 -0.611168,3.147352 -0.98727,4.76395 -0.36043,1.60229 -0.877568,3.247498 -1.55142,4.935622 -0.658176,1.702434 -1.504408,3.125896 -2.538686,4.270388 -1.034278,1.144492 -2.256608,1.71674 -3.666992,1.71674 -1.081294,0 -2.05289,-0.286126 -2.91479,-0.85837 C 85.423112,60.152509 85,59.408589 85,58.478689 c 0,-0.74392 0.25857,-1.494483 0.775708,-2.052423 0.53281,-0.543632 1.198824,-0.81545 1.99804,-0.81545 0.532812,0 0.979434,0.14306 1.339866,0.429186 0.360428,0.300428 0.540644,0.686696 0.540644,1.158796 0,0.629474 -0.258572,1.301349 -0.775708,1.816371 -0.501468,0.529328 -1.08913,0.793992 -1.762978,0.793992 z"
       id="path3-6" />
  </g>
</svg>
