<?xml version="1.0" encoding="UTF-8" standalone="no"?>
<svg
   width="62"
   height="62"
   version="1"
   id="svg13"
   sodipodi:docname="klystrack.svg"
   inkscape:version="1.4 (unknown)"
   xmlns:inkscape="http://www.inkscape.org/namespaces/inkscape"
   xmlns:sodipodi="http://sodipodi.sourceforge.net/DTD/sodipodi-0.dtd"
   xmlns="http://www.w3.org/2000/svg"
   xmlns:svg="http://www.w3.org/2000/svg">
  <defs
     id="defs13" />
  <sodipodi:namedview
     id="namedview13"
     pagecolor="#ffffff"
     bordercolor="#000000"
     borderopacity="0.25"
     inkscape:showpageshadow="2"
     inkscape:pageopacity="0.0"
     inkscape:pagecheckerboard="0"
     inkscape:deskcolor="#d1d1d1"
     inkscape:zoom="8"
     inkscape:cx="54.375"
     inkscape:cy="35.9375"
     inkscape:window-width="1920"
     inkscape:window-height="996"
     inkscape:window-x="0"
     inkscape:window-y="0"
     inkscape:window-maximized="1"
     inkscape:current-layer="svg13"
     showgrid="false">
    <inkscape:grid
       id="grid1"
       units="px"
       originx="0"
       originy="0"
       spacingx="1"
       spacingy="1"
       empcolor="#0099e5"
       empopacity="0.30196078"
       color="#0099e5"
       opacity="0.14901961"
       empspacing="5"
       enabled="true"
       visible="false" />
  </sodipodi:namedview>
  <g
     id="g1"
     transform="matrix(1.0107817,0,0,1,-0.06469011,0)">
    <path
       style="opacity:0.2;stroke-width:0.938872"
       d="m 16.495394,42.333333 c -3.987191,0 -10.4953938,2.312496 -10.4953938,7.781085 v 1.116576 c 0,2.91903 2.3223298,5.269006 5.2070178,5.269006 h 39.05263 c 2.884687,0 5.207017,-2.349976 5.207017,-5.269006 v -2.634503 c 0,0 0,5.070176 -9.11228,5.070176 -10.69156,0 -19.526884,-11.333334 -29.858991,-11.333334 z"
       id="path1" />
    <path
       style="fill:#3e5574;fill-opacity:1;stroke-width:0.938872"
       d="m 54.775374,50.824643 0.691291,-2.081345 V 10.769007 c 0,-2.9190288 -2.32233,-5.2690054 -5.207017,-5.2690054 H 11.207017 C 8.3223298,5.5000016 6,7.8499782 6,10.769007 v 37.920484 l 0.6269395,1.597059 c 1.0649456,2.712832 2.3866815,4.300438 5.2713695,4.300438 h 37.404167 c 2.884687,0 4.553896,-0.995409 5.472898,-3.762345 z"
       id="path2" />
    <path
       style="opacity:0.2;stroke-width:0.938872"
       d="M 30.733333,13.055556 C 21.712684,13.055556 14.4,20.455294 14.4,29.583333 v 0.472223 h 32.666667 v -0.472223 c 0,-9.128039 -7.312682,-16.527777 -16.333334,-16.527777 z"
       id="path3" />
    <path
       style="fill:#ffbb00;fill-opacity:1;stroke-width:0.938872"
       d="M 30.733333,12.111111 C 21.712684,12.111111 14.4,19.510849 14.4,28.638889 v 0.472222 h 32.666667 v -0.472222 c 0,-9.12804 -7.312682,-16.527778 -16.333334,-16.527778 z"
       id="path4" />
    <path
       style="fill:#c83771;stroke-width:0.938872"
       d="m 24.666667,20.611111 h 0.646153 l 7.753847,8.5 h -6.461539 z"
       id="path5" />
    <path
       style="fill:#e4e4e4;stroke-width:0.938872"
       d="m 16.495394,41.388889 c -3.987191,0 -10.4953938,2.312496 -10.4953938,7.781085 v 1.116576 c 0,2.919029 2.3223298,5.269005 5.2070178,5.269005 h 39.05263 c 2.884687,0 5.207017,-2.349976 5.207017,-5.269005 v -2.634503 c 0,0 0,5.070175 -9.11228,5.070175 -10.69156,0 -19.526884,-11.333333 -29.858991,-11.333333 z"
       id="path8" />
    <path
       style="fill:#2d3d53;fill-opacity:1;stroke-width:0.938872"
       d="m 19.066667,41.621311 v 13.934244 h 2.8 V 42.344401 c -0.924798,-0.308648 -1.856749,-0.560361 -2.8,-0.72309 z M 11.6,42.344401 c -1.000155,0.386006 -1.9610047,0.895728 -2.7999998,1.534722 v 11.080621 c 0.7196294,0.378931 1.5358968,0.595811 2.4062498,0.595811 H 11.6 Z m 17.733333,3.587782 v 9.623372 h 2.8 v -8.018554 c -0.933722,-0.544387 -1.868417,-1.06854 -2.8,-1.604818 z M 39.6,51.324001 v 4.231554 h 2.8 v -3.327691 c -0.945629,-0.229413 -1.876045,-0.548507 -2.8,-0.903863 z m 13.066667,0.129124 c -0.725044,0.390486 -1.648881,0.720462 -2.8,0.948133 v 3.154297 h 0.39375 c 0.870353,0 1.686621,-0.21688 2.40625,-0.595811 z"
       id="path9" />
    <path
       style="opacity:0.2;stroke-width:0.938872"
       d="m 16.494532,41.388889 c -3.987192,0 -10.4945318,2.312009 -10.4945318,7.780599 v 0.944444 c 0,-5.468589 6.5073398,-7.780599 10.4945318,-7.780599 10.332106,0 19.167814,11.333334 29.859374,11.333334 9.11228,0 9.112761,-5.070856 9.112761,-5.070856 v -0.944444 c 0,0 -4.81e-4,5.070855 -9.112761,5.070855 -10.69156,0 -19.527268,-11.333333 -29.859374,-11.333333 z"
       id="path10" />
    <path
       style="opacity:0.1;fill:#ffffff;stroke-width:0.938872"
       d="m 11.20625,5.5000001 c -2.8846874,0 -5.2062498,2.3491999 -5.2062498,5.2682289 v 0.944445 c 0,-2.9190296 2.3215624,-5.2682294 5.2062498,-5.2682294 h 39.054167 c 2.884688,0 5.20625,2.3491998 5.20625,5.2682294 v -0.944445 c 0,-2.919029 -2.321562,-5.2682289 -5.20625,-5.2682289 z"
       id="path11" />
    <path
       style="opacity:0.2;fill:#ffffff;stroke-width:0.938872"
       d="M 30.733333,12.111111 C 21.712684,12.111111 14.4,19.510849 14.4,28.638889 v 0.472222 h 0.0237 c 0.24933,-8.907568 7.446557,-16.055555 16.309636,-16.055555 8.863082,0 16.060307,7.147987 16.309635,16.055555 h 0.0237 v -0.472222 c 0,-9.12804 -7.312682,-16.527778 -16.333334,-16.527778 z"
       id="path12" />
    <path
       style="fill:#fff9e5;fill-opacity:1;stroke-width:0.938872"
       d="m 31,22 v 0 l -5,-8 c 3.333333,-1.333333 6.666667,-1.333333 10,0 z"
       id="path5-6"
       sodipodi:nodetypes="ccccc" />
  </g>
</svg>
