<?xml version="1.0" encoding="UTF-8" standalone="no"?>
<svg
   width="62"
   height="62"
   version="1.1"
   id="svg2"
   sodipodi:docname="knights-game.svg"
   inkscape:version="1.4 (unknown)"
   xmlns:inkscape="http://www.inkscape.org/namespaces/inkscape"
   xmlns:sodipodi="http://sodipodi.sourceforge.net/DTD/sodipodi-0.dtd"
   xmlns="http://www.w3.org/2000/svg"
   xmlns:svg="http://www.w3.org/2000/svg">
  <defs
     id="defs2" />
  <sodipodi:namedview
     id="namedview2"
     pagecolor="#ffffff"
     bordercolor="#000000"
     borderopacity="0.25"
     inkscape:showpageshadow="2"
     inkscape:pageopacity="0.0"
     inkscape:pagecheckerboard="0"
     inkscape:deskcolor="#d1d1d1"
     inkscape:zoom="2.8284271"
     inkscape:cx="105.18213"
     inkscape:cy="62.755727"
     inkscape:window-width="1920"
     inkscape:window-height="996"
     inkscape:window-x="0"
     inkscape:window-y="0"
     inkscape:window-maximized="1"
     inkscape:current-layer="svg2" />
  <g
     id="g2"
     transform="matrix(0.98214286,0,0,0.98245614,-0.42857152,-0.92982455)">
    <circle
       style="opacity:0.2"
       cx="32"
       cy="33"
       r="28"
       id="circle1" />
    <circle
       style="fill:#2799f2;fill-opacity:1"
       cx="32"
       cy="32"
       r="28"
       id="circle2" />
    <path
       style="opacity:0.2;fill:#ffffff"
       d="M 32,4 A 28,28 0 0 0 4,32 28,28 0 0 0 4.0214844,32.585938 28,28 0 0 1 32,5 28,28 0 0 1 59.978516,32.414062 28,28 0 0 0 60,32 28,28 0 0 0 32,4 Z"
       id="path2" />
  </g>
  <path
     style="fill:#d8b67e;stroke-width:0.749987"
     d="M 14.94999,9.7 9.7,14.95 l 5.24999,5.25 5.25,-5.25 z m 5.25,5.25 5.25,5.25 L 30.7,14.95 25.44999,9.7 Z M 30.7,14.95 35.95,20.2 41.2,14.95 35.95,9.7 Z m 10.5,0 5.25,5.25 5.25,-5.25 -5.25,-5.25 z m 5.25,5.25 -5.25,5.25 5.25,5.25 5.25,-5.25 z m 0,10.5 -5.25,5.25 5.25,5.25 5.25,-5.25 z m 0,10.5 -5.25,5.25 5.25,5.25 5.25,-5.25 z m -5.25,5.25 -5.25,-5.25 -5.25,5.25 5.25,5.25 z m -10.5,0 -5.25001,-5.25 -5.25,5.25 5.25,5.25 z m -10.50001,0 -5.25,-5.25 L 9.7,46.45 14.94999,51.7 Z m -5.25,-5.25 5.25,-5.25 -5.25,-5.25 L 9.7,35.95 Z m 0,-10.5 5.25,-5.25 -5.25,-5.25 L 9.7,25.45 Z m 5.25,-5.25 5.25,5.25 L 30.7,25.45 25.44999,20.2 Z m 10.50001,0 5.25,5.25 5.25,-5.25 -5.25,-5.25 z m 5.25,5.25 -5.25,5.25 5.25,5.25 5.25,-5.25 z m -5.25,5.25 -5.25001,-5.25 -5.25,5.25 5.25,5.25 z"
     id="path2-7-7" />
  <path
     d="m 27.727846,10.5002 c 0,0 4.47581,3.0702 4.78241,4.8132 0,0 9.4696,-2.9946 17.7898,4.9868 h -4.2 c 0,0 11.0082,6.8796 11.2,11.2 -0.1918,-0.1204 -2.023,-1.0752 -2.8,-1.4 0,0 2.674,6.16 0.6398,12.1674 -3.7996,7.196 -10.8892,13.4848 -21.2646,14.4284 -2.78881,0.2548 0,0.004 -2.80001,0.004 v -8.4 h 2.80001 v -4.2 c 4.487,-0.217 5.5762,-10.9284 -0.3752,-14 0,0 -3.76181,5.2794 -8.17881,5.7918 0,0 -0.5152,4.5248 -5.8534,1.652 -1.4252,-0.7644 -1.9558,-3.29 -0.518,-5.341 l 1.1326,-1.638 c 0,0 3.7478,-9.002 6.4176,-11.6648 0,0 1.4,-4.2 0,-7 0,0 1.5862,1.1788 2.1,2.1 0,0 -0.357,-2.9904 -0.8722,-3.5 z"
     fill="#ffffff"
     id="path1-3-5"
     style="fill:#2d3d53;fill-opacity:1;stroke-width:1.4" />
  <path
     d="m 50.297856,48.3002 c -6.601,0.007 -13.2258,0 -19.82681,0 l -0.0182,1.4042 18.46461,0.007 c 1.127,-1.1214 0.6328,-0.616 1.3804,-1.4112 z m 3.206,-4.214 c -6.601,0.007 -13.6248,0.006 -20.2258,0.006 v 1.4 l 19.278,0.006 c 0.8484,-1.274 0.469,-0.6762 0.9492,-1.4112 z"
     fill-rule="evenodd"
     id="path2-5-3"
     style="fill:#e1e1e1;fill-opacity:1;stroke-width:1.4" />
</svg>
