<?xml version="1.0" encoding="UTF-8" standalone="no"?>
<svg
   width="62"
   height="62"
   version="1.1"
   id="svg9"
   sodipodi:docname="KoboDeluxe.svg"
   inkscape:version="1.4 (unknown)"
   xmlns:inkscape="http://www.inkscape.org/namespaces/inkscape"
   xmlns:sodipodi="http://sodipodi.sourceforge.net/DTD/sodipodi-0.dtd"
   xmlns="http://www.w3.org/2000/svg"
   xmlns:svg="http://www.w3.org/2000/svg">
  <defs
     id="defs9" />
  <sodipodi:namedview
     id="namedview9"
     pagecolor="#ffffff"
     bordercolor="#000000"
     borderopacity="0.25"
     inkscape:showpageshadow="2"
     inkscape:pageopacity="0.0"
     inkscape:pagecheckerboard="0"
     inkscape:deskcolor="#d1d1d1"
     inkscape:zoom="6.0390625"
     inkscape:cx="30.882277"
     inkscape:cy="33.862872"
     inkscape:window-width="1920"
     inkscape:window-height="996"
     inkscape:window-x="0"
     inkscape:window-y="0"
     inkscape:window-maximized="1"
     inkscape:current-layer="svg9" />
  <g
     id="g9"
     transform="matrix(0.99999999,0,0,0.99997842,-0.99999976,-1.4987052)">
    <path
       style="opacity:0.2"
       d="m 32.032246,6.0051038 c -1.870794,-0.080544 -3.634392,0.797426 -4.570744,2.275444 L 4.1757326,45.032192 c -0.9055116,3.555952 1.78671,6.200932 5.813346,8.140482 7.5530094,3.638138 19.8011314,4.794254 21.8068334,4.824982 3.307078,0.07036 13.328492,-1.445434 20.483644,-4.288422 5.442446,-2.162474 9.226574,-5.092808 7.13621,-8.677042 L 36.129994,8.2805478 C 35.27817,6.9359344 33.734166,6.078563 32.032246,6.0051038 Z"
       id="path1" />
    <path
       style="fill:#6e7c91;fill-opacity:1"
       d="m 32.032246,5.0051034 c -1.870794,-0.080544 -3.634392,0.797426 -4.570744,2.275444 L 4.1757326,44.032192 c -0.9055116,3.555952 1.78671,6.200932 5.813346,8.140482 7.5530094,3.638138 19.8011314,4.794254 21.8068334,4.824982 3.307078,0.07036 13.328492,-1.445434 20.483644,-4.288422 5.442446,-2.162474 9.226574,-5.092808 7.13621,-8.677042 L 36.129994,7.2805474 C 35.27817,5.935934 33.734166,5.0785626 32.032246,5.0051034 Z"
       id="path2" />
    <path
       style="opacity:0.2"
       d="M 32.09375,6.0078124 C 30.233562,5.9440826 28.482758,6.8157942 27.550782,8.28125 L 24.074218,13.75 C 24.050272,14.008062 24,14.258194 24,14.523438 V 54.316406 C 24,58.579948 28.585002,60 32,60 c 3.415002,0 8,-1.420052 8,-5.683594 V 14.523438 c 0,-0.132492 -0.0168,-0.260101 -0.02344,-0.390626 L 36.253906,8.28125 C 35.490896,7.081462 34.164232,6.3029986 32.675782,6.0898438 32.480642,6.0642238 32.29353,6.0170318 32.09375,6.0078124 Z"
       id="path3" />
    <path
       style="fill:#373e48;fill-opacity:1"
       d="M 32.03125,5.0039062 C 30.160456,4.9233622 28.39729,5.803232 27.460938,7.28125 L 24,12.742188 V 53.316406 C 24,57.579948 28.585002,59 32,59 c 3.415002,0 8,-1.420052 8,-5.683594 V 13.390625 L 36.128906,7.28125 C 35.277082,5.9366366 33.73317,5.0773654 32.03125,5.0039062 Z"
       id="path4" />
    <rect
       style="opacity:0.2"
       width="6"
       height="34"
       x="12"
       y="24"
       rx="4.5"
       ry="4.25"
       id="rect4" />
    <path
       style="opacity:0.1;fill:#ffffff"
       d="M 32.033203,5.0058594 C 30.162409,4.9253154 28.397289,5.803232 27.460938,7.28125 l -23.2851568,36.75 C 4.0079845,44.690189 3.964415,45.318331 4.0292969,45.916016 4.0556851,45.627004 4.0988703,45.33328 4.1757812,45.03125 l 23.2851568,-36.75 c 0.936351,-1.478018 2.701471,-2.3559346 4.572265,-2.2753906 1.70192,0.073459 3.245832,0.9307772 4.097656,2.2753906 l 23.285157,36.75 c 0.30083,0.515817 0.467044,1.017467 0.537109,1.505859 0.128362,-0.795209 -0.02694,-1.631094 -0.537109,-2.505859 L 36.130859,7.28125 C 35.279035,5.9366366 33.735123,5.0793186 32.033203,5.0058594 Z"
       id="path5" />
    <rect
       style="fill:#c5cbd3;fill-opacity:1"
       width="6"
       height="34"
       x="12"
       y="23"
       rx="4.5"
       ry="4.25"
       id="rect5" />
    <ellipse
       style="opacity:0.2"
       cx="32"
       cy="41.833"
       rx="7"
       ry="8.1669998"
       id="ellipse5" />
    <ellipse
       style="fill:#b380ff"
       cx="32"
       cy="40.833"
       rx="7"
       ry="8.1669998"
       id="ellipse6" />
    <rect
       style="opacity:0.2"
       width="6"
       height="34"
       x="46"
       y="24"
       rx="4.5"
       ry="4.25"
       id="rect6" />
    <rect
       style="fill:#c5cbd3;fill-opacity:1"
       width="6"
       height="34"
       x="46"
       y="23"
       rx="4.5"
       ry="4.25"
       id="rect7" />
    <path
       style="opacity:0.2;fill:#ffffff"
       d="m 32,32.666016 a 7,8.166667 0 0 0 -7,8.167968 7,8.166667 0 0 0 0.01758,0.576172 A 7,8.166667 0 0 1 32,33.666016 7,8.166667 0 0 1 38.982422,41.251953 7,8.166667 0 0 0 39,40.833984 7,8.166667 0 0 0 32,32.666016 Z"
       id="path7" />
    <path
       style="opacity:0.2;fill:#ffffff"
       d="m 15,23 c -1.662,0 -3,1.8955 -3,4.25 v 1 C 12,25.8955 13.338,24 15,24 c 1.662,0 3,1.8955 3,4.25 v -1 C 18,24.8955 16.662,23 15,23 Z"
       id="path8" />
    <path
       style="opacity:0.2;fill:#ffffff"
       d="m 49,23 c -1.662,0 -3,1.8955 -3,4.25 v 1 C 46,25.8955 47.338,24 49,24 c 1.662,0 3,1.8955 3,4.25 v -1 C 52,24.8955 50.662,23 49,23 Z"
       id="path9" />
  </g>
</svg>
