<?xml version="1.0" encoding="UTF-8" standalone="no"?>
<svg
   clip-rule="evenodd"
   fill-rule="evenodd"
   stroke-linejoin="round"
   stroke-miterlimit="2"
   viewBox="0 0 62 62"
   version="1.1"
   id="svg5"
   sodipodi:docname="komorebi.svg"
   width="62"
   height="62"
   inkscape:version="1.4 (unknown)"
   xmlns:inkscape="http://www.inkscape.org/namespaces/inkscape"
   xmlns:sodipodi="http://sodipodi.sourceforge.net/DTD/sodipodi-0.dtd"
   xmlns:xlink="http://www.w3.org/1999/xlink"
   xmlns="http://www.w3.org/2000/svg"
   xmlns:svg="http://www.w3.org/2000/svg">
  <defs
     id="defs5">
    <linearGradient
       inkscape:collect="always"
       xlink:href="#linearGradient8"
       id="linearGradient10"
       x1="31.5"
       y1="45.947548"
       x2="31.5"
       y2="4.9824562"
       gradientUnits="userSpaceOnUse"
       gradientTransform="matrix(0.94545455,0,0,0.87222674,0.71818187,-0.48890657)" />
    <linearGradient
       id="linearGradient8"
       inkscape:collect="always">
      <stop
         style="stop-color:#2d3d53;stop-opacity:1;"
         offset="0"
         id="stop8" />
      <stop
         style="stop-color:#c83771;stop-opacity:1"
         offset="1"
         id="stop10" />
    </linearGradient>
  </defs>
  <sodipodi:namedview
     id="namedview5"
     pagecolor="#ffffff"
     bordercolor="#000000"
     borderopacity="0.25"
     inkscape:showpageshadow="2"
     inkscape:pageopacity="0.0"
     inkscape:pagecheckerboard="0"
     inkscape:deskcolor="#d1d1d1"
     inkscape:zoom="3.3333333"
     inkscape:cx="17.1"
     inkscape:cy="26.25"
     inkscape:window-width="1920"
     inkscape:window-height="996"
     inkscape:window-x="0"
     inkscape:window-y="0"
     inkscape:window-maximized="1"
     inkscape:current-layer="svg5" />
  <linearGradient
     id="a"
     x2="1"
     gradientTransform="matrix(0,-43.3373,43.3373,0,119.581,25.091893)"
     gradientUnits="userSpaceOnUse">
    <stop
       stop-color="#b62680"
       offset="0"
       id="stop1" />
    <stop
       stop-color="#d680b6"
       offset="1"
       id="stop2" />
  </linearGradient>
  <g
     id="g5">
    <path
       d="m 7.2042865,21.244191 37.4020185,-5.806555 5.033439,34.304075 c 0,0 -25.326272,6.986151 -33.276809,9.179032 -0.606202,0.167407 -1.254332,0.06717 -1.785301,-0.277554 -0.530967,-0.344735 -0.89748,-0.900942 -1.009267,-1.534243 C 12.065754,48.64252 7.2042865,21.244191 7.2042865,21.244191 Z"
       fill-rule="nonzero"
       id="path2"
       style="fill:#808080;fill-opacity:1;stroke-width:1.08803" />
    <path
       d="m 6.0714136,20.08332 39.6688444,-3.484813 3.899486,33.143204 c 0,0 -29.084966,5.435382 -37.756712,7.055535 -0.620178,0.116748 -1.258628,-0.03964 -1.760575,-0.42954 C 9.62051,55.977807 9.301285,55.389665 9.2421691,54.747551 8.4790379,46.408884 6.0714136,20.08332 6.0714136,20.08332 Z"
       fill-rule="nonzero"
       id="path3"
       style="fill:#a6a6a6;fill-opacity:1;stroke-width:1.08803" />
    <rect
       style="opacity:0.2;stroke-width:0.892032"
       width="52"
       height="47.987774"
       x="4.5"
       y="3.8569245"
       rx="7.7999997"
       ry="7.1981654"
       id="rect1" />
    <rect
       style="fill:url(#linearGradient10);stroke-width:0.892032"
       width="52"
       height="47.987774"
       x="4.5"
       y="3"
       rx="7.7999997"
       ry="7.1981654"
       id="rect2" />
    <path
       style="opacity:0.1;fill:#ffffff;stroke-width:0.892032"
       d="M 12.29855,3 C 7.977349,3 4.5,6.2090429 4.5,10.196827 v 0.856925 c 0,-3.9877846 3.477349,-7.1968275 7.79855,-7.1968275 h 36.4029 c 4.3212,0 7.79855,3.2090429 7.79855,7.1968275 V 10.196827 C 56.5,6.2090429 53.02265,3 48.70145,3 Z"
       id="path4-6" />
    <circle
       cx="48.049999"
       cy="44.75"
       id="circle4"
       style="fill:#bfbfbf;fill-opacity:1;stroke-width:0.86469"
       r="8.25" />
    <ellipse
       cx="48.049999"
       cy="44.75"
       id="circle5"
       style="fill:#d35f8d;stroke-width:0.86469"
       rx="6.3087726"
       ry="6.3087721" />
  </g>
</svg>
