<?xml version="1.0" encoding="UTF-8" standalone="no"?>
<svg
   width="62"
   height="62"
   version="1"
   id="svg5"
   sodipodi:docname="komodo-edit.svg"
   inkscape:version="1.4 (unknown)"
   xmlns:inkscape="http://www.inkscape.org/namespaces/inkscape"
   xmlns:sodipodi="http://sodipodi.sourceforge.net/DTD/sodipodi-0.dtd"
   xmlns="http://www.w3.org/2000/svg"
   xmlns:svg="http://www.w3.org/2000/svg">
  <defs
     id="defs5" />
  <sodipodi:namedview
     id="namedview5"
     pagecolor="#ffffff"
     bordercolor="#000000"
     borderopacity="0.25"
     inkscape:showpageshadow="2"
     inkscape:pageopacity="0.0"
     inkscape:pagecheckerboard="0"
     inkscape:deskcolor="#d1d1d1"
     inkscape:zoom="7.0710678"
     inkscape:cx="31.183409"
     inkscape:cy="43.487067"
     inkscape:window-width="1920"
     inkscape:window-height="996"
     inkscape:window-x="0"
     inkscape:window-y="0"
     inkscape:window-maximized="1"
     inkscape:current-layer="svg5" />
  <g
     id="g5"
     transform="translate(-1,-1.0010386)">
    <path
       style="opacity:0.2;stroke-width:0.9912"
       d="m 8,42.99135 v 1.964943 a 2.5599998,2.5782009 0 0 0 1.2812002,2.233156 L 30.719,59.655043 a 2.5599998,2.5782009 0 0 0 2.562004,0 L 54.719001,47.189449 a 2.5599998,2.5782009 0 0 0 1.28,-2.23414 V 42.990366 A 2.5599998,2.5782009 0 0 1 54.718,45.224508 l -21.437997,12.46461 a 2.5599998,2.5782009 0 0 1 -2.562006,0 L 9.2819995,45.223524 A 2.5599998,2.5782009 0 0 1 8,42.989385 Z"
       id="path1" />
    <path
       style="fill:#acbcd2;stroke-width:0.9912;fill-opacity:1"
       d="M 32.060002,4.0016881 A 2.5599998,2.5782009 0 0 0 30.72,4.3479114 L 9.2801004,16.813409 a 2.5599998,2.5782009 0 0 0 -1.2800007,2.232174 v 24.933149 a 2.5599998,2.5782009 0 0 0 1.2793999,2.231194 L 30.720998,58.675518 a 2.5599998,2.5782009 0 0 0 2.559005,0 L 54.718,46.207961 A 2.5599998,2.5782009 0 0 0 56,43.977751 V 19.0446 A 2.5599998,2.5782009 0 0 0 54.718,16.814389 L 33.280003,4.3485004 A 2.5599998,2.5782009 0 0 0 32.060999,4.002278 Z"
       id="path2" />
    <path
       style="opacity:0.2;stroke-width:0.9912"
       d="m 23.782,48.068762 c -0.08003,-0.0786 -0.146,-0.367446 -0.146,-0.641556 0,-0.612079 -0.338996,-0.649411 -0.654007,-0.0717 -0.372995,0.683801 -0.67899,0.496148 -0.609988,-0.37432 0.04994,-0.625835 -0.008,-0.784012 -0.263001,-0.719168 -1.459002,0.368425 -1.466998,0.355654 -0.491006,-0.686749 1.043006,-1.115102 1.234004,-1.787113 0.436,-1.540516 -0.269996,0.0825 -1.055003,0.20141 -1.743998,0.264286 -2.123997,0.191581 -4.310999,-1.163244 -4.310999,-2.668392 0,-0.635658 1.129004,-1.525775 2.753001,-2.170277 0.825997,-0.328145 1.526998,-0.73096 1.557998,-0.896013 0.03106,-0.165055 -0.292005,-0.519727 -0.716003,-0.788924 -0.973,-0.615027 -1.517992,-1.47764 -2.093995,-3.314859 -0.663007,-2.114276 -0.516999,-5.769069 0.328001,-8.176127 2.929994,-8.34707 11.447997,-11.808317 19.484002,-7.919696 5.143993,2.4886 8.860996,6.430273 9.671,10.255033 0.218998,1.035525 0.196995,1.257559 -0.194007,2.010135 -0.515,0.98935 -1.665993,2.17912 -2.108996,2.17912 -0.170006,0 -0.578005,-0.312425 -0.906001,-0.695591 C 42.913997,31.112312 39.034,27.345517 37.416998,25.941568 L 36.035995,24.743932 36.189,23.541389 c 0.146998,-1.150475 0.129002,-1.213355 -0.411997,-1.454059 -0.822002,-0.368426 -1.969997,-0.007 -2.066001,0.649412 -0.054,0.371374 0.226995,0.799731 1.084,1.650554 l 1.156997,1.148508 -1.301996,0.003 c -2.363,0.005 -2.820004,0.372356 -1.657001,1.332231 0.862003,0.710322 1.160993,1.335178 1.085998,2.262627 l -0.06505,0.787941 1.031,-0.0521 c 0.792001,-0.0403 1.031,0.0216 1.031,0.267233 0,0.175863 -0.09801,0.319305 -0.218005,0.319305 -0.362998,0 -0.244999,0.605199 0.163004,0.840994 0.297002,0.170951 0.319998,0.26134 0.101994,0.401832 -0.153992,0.100213 -0.217,0.34288 -0.139998,0.539376 0.210999,0.539374 -0.222999,0.442112 -1.913,-0.428359 -1.393997,-0.718187 -1.568993,-0.885209 -2.058991,-1.971821 -0.868005,-1.922696 -1.609001,-2.43653 -1.609001,-1.115104 0,0.327162 -0.205999,1.356792 -0.459006,2.287191 -0.805001,2.963132 -0.899998,2.654637 0.815998,2.655617 1.71901,9.86e-4 2.962006,0.28492 3.372003,0.770261 0.301006,0.355655 0.337005,1.329281 0.09598,2.587829 -0.139994,0.730957 -0.123995,0.754535 0.411006,0.622885 0.520997,-0.128705 0.546993,-0.0973 0.423996,0.507937 -0.127002,0.621907 -0.103999,0.644504 0.659002,0.644504 0.435,0 0.790999,0.0963 0.790999,0.213195 0,0.117895 -0.07898,0.214176 -0.176001,0.214176 -0.09698,0 -0.365997,0.135582 -0.597003,0.301621 -0.412995,0.295724 -0.412995,0.310459 -0.008,0.748645 0.470997,0.510883 0.415996,0.530534 -1.292004,0.452917 -1.288997,-0.058 -1.559999,-0.233827 -1.752996,-1.143597 -0.225005,-1.059104 -0.724001,-1.721288 -1.080003,-1.432443 -0.673998,0.549202 0.632002,2.810852 2.255001,3.906307 2.295,1.547391 4.912,1.909923 7.320999,1.013909 1.637998,-0.609131 4.014998,-2.869797 5.327002,-5.066602 1.462002,-2.447337 1.781996,-2.405092 1.249999,0.168002 -0.884003,4.277679 -3.883003,7.49527 -8.283998,8.887432 -1.412004,0.446044 -2.197003,0.558045 -3.945003,0.560992 -3.643002,0.006 -5.727999,-0.99819 -9.102001,-4.383786 -2.121997,-2.126068 -2.753998,-2.291122 -1.668004,-0.430322 l 0.696002,1.192718 -0.703996,2.106421 c -0.387004,1.158331 -0.730997,2.106415 -0.763001,2.106415 -0.03199,0 -0.123998,-0.06481 -0.203998,-0.143441 z m 0.968002,-11.540107 c -1.893,-3.70981 -2.314004,-5.205131 -2.314004,-8.212477 0,-2.255755 0.04894,-2.550493 0.586002,-3.547705 1.624995,-3.020117 5.099002,-4.784634 9.433999,-4.792494 2.032997,-0.004 4.334,0.347795 5.255003,0.802682 1.133994,0.560009 2.750996,2.015049 4.403998,3.961321 1.934,2.278354 2.091,2.711622 0.675,1.865715 -0.393002,-0.23481 -0.927998,-0.427374 -1.188001,-0.428359 -0.838001,-9.83e-4 -1.148004,-0.239721 -1.293001,-0.993279 -0.102998,-0.541339 -0.407001,-0.937275 -1.137995,-1.484513 -1.653003,-1.236929 -2.282004,-0.680851 -1.14,1.008016 0.962001,1.425564 6.266997,6.43322 6.724999,6.349708 0.667003,-0.121822 1.176,-1.431457 1.067999,-2.744041 -0.183997,-2.221365 -1.778999,-4.529192 -4.273,-6.183669 -2.276002,-1.510061 -6.591995,-3.437671 -8.537005,-3.812972 -6.197995,-1.197634 -12.246999,2.589795 -13.135995,8.223283 -0.533006,3.373805 1.370001,7.835208 4.933,11.565649 0.591998,0.618959 1.112005,1.089563 1.155997,1.046333 0.04495,-0.0432 -0.503,-1.224159 -1.216996,-2.623198 z"
       id="path3" />
    <path
       style="fill:#2d3d53;stroke-width:0.9912;fill-opacity:1"
       d="m 23.782,47.086289 c -0.08003,-0.0786 -0.146,-0.367445 -0.146,-0.641552 0,-0.61208 -0.338996,-0.649415 -0.654007,-0.0717 -0.372995,0.683801 -0.67899,0.496148 -0.609988,-0.374322 0.04994,-0.625833 -0.008,-0.784013 -0.263001,-0.719169 -1.459002,0.368429 -1.466998,0.355655 -0.491006,-0.686746 1.043006,-1.115105 1.234004,-1.787115 0.436,-1.540514 -0.269996,0.0825 -1.055003,0.201406 -1.743998,0.264284 -2.123997,0.191583 -4.310999,-1.163246 -4.310999,-2.668391 0,-0.635659 1.129004,-1.52578 2.753001,-2.170281 0.825997,-0.328145 1.526998,-0.730956 1.557998,-0.896014 0.03106,-0.165053 -0.292005,-0.519727 -0.716003,-0.788922 -0.973,-0.615029 -1.517992,-1.477636 -2.093995,-3.314859 -0.663007,-2.114277 -0.516999,-5.769072 0.328001,-8.176123 2.929994,-8.347077 11.447997,-11.808321 19.484002,-7.9197 5.143993,2.488598 8.860996,6.43027 9.671,10.25503 0.218998,1.035526 0.196995,1.257567 -0.194007,2.01014 -0.515,0.989346 -1.665993,2.179121 -2.108996,2.179121 -0.170006,0 -0.578005,-0.312426 -0.906001,-0.695589 C 42.913997,30.12984 39.034,26.363047 37.416998,24.959095 L 36.035995,23.761462 36.189,22.558916 c 0.146998,-1.150477 0.129002,-1.213351 -0.411997,-1.454058 -0.822002,-0.368429 -1.969997,-0.007 -2.066001,0.649416 -0.054,0.371374 0.226995,0.799732 1.084,1.650547 l 1.156997,1.148512 -1.301996,0.003 c -2.363,0.005 -2.820004,0.372357 -1.657001,1.332231 0.862003,0.71033 1.160993,1.335181 1.085998,2.262635 l -0.06505,0.787942 1.031,-0.0521 c 0.792001,-0.0403 1.031,0.0216 1.031,0.267232 0,0.175862 -0.09801,0.319299 -0.218005,0.319299 -0.362998,0 -0.244999,0.605205 0.163004,0.840998 0.297002,0.170947 0.319998,0.261337 0.101994,0.40183 -0.153992,0.100212 -0.217,0.342884 -0.139998,0.539378 0.210999,0.539377 -0.222999,0.442109 -1.913,-0.428357 -1.394001,-0.71819 -1.568997,-0.885207 -2.058995,-1.97182 -0.868006,-1.922699 -1.609001,-2.436528 -1.609001,-1.115107 0,0.327165 -0.205999,1.356791 -0.459006,2.287195 -0.805001,2.963133 -0.899999,2.654636 0.815998,2.65562 1.71901,9.81e-4 2.962006,0.284916 3.372003,0.770254 0.301006,0.355655 0.337005,1.329286 0.09598,2.58783 -0.139994,0.730961 -0.123995,0.75454 0.411006,0.622889 0.520997,-0.128704 0.546993,-0.0973 0.423996,0.507937 -0.127001,0.621902 -0.103999,0.644501 0.659002,0.644501 0.435,0 0.790999,0.0963 0.790999,0.213194 0,0.117898 -0.07898,0.214181 -0.176001,0.214181 -0.09698,0 -0.365997,0.135581 -0.597003,0.301617 -0.412995,0.295724 -0.412995,0.310463 -0.008,0.748641 0.470997,0.510888 0.415996,0.530539 -1.292004,0.452923 -1.288997,-0.058 -1.559999,-0.233829 -1.752996,-1.143597 -0.225005,-1.059103 -0.724001,-1.721292 -1.080003,-1.432443 -0.673998,0.549203 0.632002,2.810849 2.255001,3.906305 2.295,1.547392 4.912,1.909924 7.320999,1.01391 1.637998,-0.609134 4.014998,-2.869799 5.327002,-5.066603 1.462002,-2.447338 1.781996,-2.405089 1.249999,0.168003 -0.884002,4.277676 -3.883004,7.495272 -8.283998,8.887434 -1.412004,0.44604 -2.197003,0.558042 -3.945003,0.56099 -3.643002,0.006 -5.727999,-0.998192 -9.102001,-4.383786 -2.122008,-2.126066 -2.754009,-2.291125 -1.668015,-0.430322 l 0.696002,1.19272 -0.703996,2.106417 c -0.387004,1.158335 -0.730997,2.10642 -0.763,2.10642 -0.032,0 -0.123999,-0.06482 -0.203999,-0.143442 z m 0.968002,-11.540106 c -1.893,-3.709811 -2.314004,-5.205133 -2.314004,-8.212475 0,-2.255753 0.04894,-2.550495 0.586002,-3.547701 1.624995,-3.020117 5.099002,-4.784634 9.433999,-4.792495 2.032997,-0.004 4.334,0.347796 5.255003,0.802674 1.133994,0.560008 2.750996,2.015051 4.403998,3.961328 1.934,2.278349 2.091,2.711617 0.675,1.865712 -0.393002,-0.234813 -0.927998,-0.427376 -1.188001,-0.428357 -0.838001,-9.83e-4 -1.148004,-0.239724 -1.293001,-0.993278 -0.102998,-0.541345 -0.407001,-0.937281 -1.137995,-1.484514 -1.653003,-1.236935 -2.282004,-0.680857 -1.14,1.008015 0.962001,1.425566 6.266997,6.433222 6.724999,6.349711 0.667003,-0.121829 1.176,-1.43146 1.067999,-2.744041 -0.183997,-2.221369 -1.778999,-4.529193 -4.273,-6.183676 -2.276002,-1.510056 -6.591995,-3.437663 -8.537005,-3.812969 -6.197995,-1.197632 -12.246999,2.589791 -13.135995,8.223283 -0.533006,3.373807 1.370001,7.835207 4.933,11.565651 0.591998,0.618954 1.112005,1.08956 1.155997,1.04633 0.04495,-0.0432 -0.503,-1.224159 -1.216996,-2.623198 z"
       id="path4" />
    <path
       style="opacity:0.2;fill:#ffffff;stroke-width:0.9912"
       d="M 32.057002,4.001983 A 2.5599998,2.5782009 0 0 0 30.719,4.3473214 L 9.2812002,16.816355 A 2.5599998,2.5782009 0 0 0 8,19.043614 v 0.982475 A 2.5599998,2.5782009 0 0 1 9.2812002,17.798824 L 30.719,5.3297926 a 2.5599998,2.5782009 0 0 1 1.338002,-0.3453383 h 0.002 a 2.5599998,2.5782009 0 0 1 1.221995,0.3453383 L 54.716988,17.798824 a 2.5599998,2.5782009 0 0 1 1.281003,2.227265 V 19.043614 A 2.5599998,2.5782009 0 0 0 54.717,16.816355 L 33.281004,4.3473214 A 2.5599998,2.5782009 0 0 0 32.059003,4.001983 Z"
       id="path5" />
  </g>
</svg>
