<?xml version="1.0" encoding="UTF-8" standalone="no"?>
<svg
   width="62"
   height="62"
   version="1.1"
   id="svg4"
   sodipodi:docname="kotatogram.svg"
   inkscape:version="1.4 (unknown)"
   xmlns:inkscape="http://www.inkscape.org/namespaces/inkscape"
   xmlns:sodipodi="http://sodipodi.sourceforge.net/DTD/sodipodi-0.dtd"
   xmlns="http://www.w3.org/2000/svg"
   xmlns:svg="http://www.w3.org/2000/svg">
  <defs
     id="defs4" />
  <sodipodi:namedview
     id="namedview4"
     pagecolor="#ffffff"
     bordercolor="#000000"
     borderopacity="0.25"
     inkscape:showpageshadow="2"
     inkscape:pageopacity="0.0"
     inkscape:pagecheckerboard="0"
     inkscape:deskcolor="#d1d1d1"
     inkscape:zoom="7.0710678"
     inkscape:cx="25.809398"
     inkscape:cy="47.305444"
     inkscape:window-width="1920"
     inkscape:window-height="996"
     inkscape:window-x="0"
     inkscape:window-y="0"
     inkscape:window-maximized="1"
     inkscape:current-layer="svg4" />
  <g
     id="g4"
     transform="matrix(0.98214286,0,0,0.98214286,-0.42857152,-0.91964295)">
    <circle
       cx="32"
       cy="33"
       r="28"
       style="opacity:0.2"
       id="circle1" />
    <circle
       cx="32"
       cy="32"
       r="28"
       style="fill:#8d5fd3"
       id="circle2" />
    <path
       d="M 32,4 A 28,28 0 0 0 4,32 28,28 0 0 0 4.0215,32.586 28,28 0 0 1 32,5 28,28 0 0 1 59.979,32.414 28,28 0 0 0 60,32 28,28 0 0 0 32,4 Z"
       style="opacity:0.1;fill:#ffffff"
       id="path2" />
    <path
       d="m 32,22 c 0,0 -1,1 -2,3 -2.607681,5.215362 -5,11 -11,11 -7,0 -11,-5 -11,-5 0,0 1,13 12,13 8,0 12,-5 12,-5 0,0 4,5 12,5 11,0 12,-13 12,-13 0,0 -4,5 -11,5 -6,0 -8.392319,-5.784638 -11,-11 -1,-2 -2,-3 -2,-3 z"
       style="opacity:0.2"
       id="path3" />
    <path
       d="m 32,21 c 0,0 -1,1 -2,3 -2.607681,5.215362 -5,11 -11,11 -7,0 -11,-5 -11,-5 0,0 1,13 12,13 8,0 12,-5 12,-5 0,0 4,5 12,5 11,0 12,-13 12,-13 0,0 -4,5 -11,5 -6,0 -8.392319,-5.784638 -11,-11 -1,-2 -2,-3 -2,-3 z"
       style="fill:#f5e9fe;fill-opacity:1"
       id="path4" />
  </g>
</svg>
