<?xml version="1.0" encoding="UTF-8" standalone="no"?>
<svg
   width="62"
   height="62"
   version="1"
   id="svg15"
   sodipodi:docname="ktechlab.svg"
   inkscape:version="1.4 (unknown)"
   xmlns:inkscape="http://www.inkscape.org/namespaces/inkscape"
   xmlns:sodipodi="http://sodipodi.sourceforge.net/DTD/sodipodi-0.dtd"
   xmlns="http://www.w3.org/2000/svg"
   xmlns:svg="http://www.w3.org/2000/svg">
  <defs
     id="defs15" />
  <sodipodi:namedview
     id="namedview15"
     pagecolor="#ffffff"
     bordercolor="#000000"
     borderopacity="0.25"
     inkscape:showpageshadow="2"
     inkscape:pageopacity="0.0"
     inkscape:pagecheckerboard="0"
     inkscape:deskcolor="#d1d1d1"
     inkscape:zoom="12.078125"
     inkscape:cx="31.958603"
     inkscape:cy="32"
     inkscape:window-width="1920"
     inkscape:window-height="996"
     inkscape:window-x="0"
     inkscape:window-y="0"
     inkscape:window-maximized="1"
     inkscape:current-layer="svg15" />
  <g
     id="g15"
     transform="matrix(0.98214286,0,0,0.98245614,-0.42857152,-0.92982456)">
    <path
       style="opacity:0.2"
       d="M 5.5,11 C 4.669,11 4,11.593365 4,12.332031 v 5.335938 C 4,18.406635 4.669,19 5.5,19 h 9 C 15.331,19 16,18.406635 16,17.667969 V 12.332031 C 16,11.593365 15.331,11 14.5,11 Z m 44,0 C 48.669,11 48,11.593365 48,12.332031 v 5.335938 C 48,18.406635 48.669,19 49.5,19 h 9 C 59.331,19 60,18.406635 60,17.667969 V 12.332031 C 60,11.593365 59.331,11 58.5,11 Z M 5.5,29 C 4.669,29 4,29.593364 4,30.332032 v 5.335936 C 4,36.406636 4.669,37 5.5,37 h 9 C 15.331,37 16,36.406636 16,35.667968 V 30.332032 C 16,29.593364 15.331,29 14.5,29 Z m 44,0 C 48.669,29 48,29.593364 48,30.332032 v 5.335936 C 48,36.406636 48.669,37 49.5,37 h 9 C 59.331,37 60,36.406636 60,35.667968 V 30.332032 C 60,29.593364 59.331,29 58.5,29 Z m 0,18 C 48.669,47 48,47.593364 48,48.332032 v 5.335936 C 48,54.406636 48.669,55 49.5,55 h 9 C 59.331,55 60,54.406636 60,53.667968 V 48.332032 C 60,47.593364 59.331,47 58.5,47 Z"
       id="path1" />
    <rect
       style="opacity:0.2"
       width="56"
       height="40"
       x="-61"
       y="-52"
       rx="3.1110001"
       ry="2.8570001"
       transform="matrix(0,-1,-1,0,0,0)"
       id="rect1" />
    <rect
       style="fill:#ffcc00"
       width="12"
       height="8"
       x="4"
       y="28"
       rx="1.5"
       ry="1.3329999"
       id="rect2" />
    <rect
       style="fill:#ffcc00"
       width="12"
       height="8"
       x="4"
       y="10"
       rx="1.5"
       ry="1.3329999"
       id="rect3" />
    <rect
       style="fill:#ffcc00"
       width="12"
       height="8"
       x="48"
       y="28"
       rx="1.5"
       ry="1.3329999"
       id="rect4" />
    <rect
       style="fill:#ffcc00"
       width="12"
       height="8"
       x="48"
       y="46"
       rx="1.5"
       ry="1.3329999"
       id="rect5" />
    <rect
       style="fill:#ffcc00"
       width="12"
       height="8"
       x="48"
       y="10"
       rx="1.5"
       ry="1.3329999"
       id="rect6" />
    <path
       style="opacity:0.2;fill:#ffffff"
       d="M 5.5,10 C 4.669,10 4,10.593365 4,11.332031 v 1 C 4,11.593365 4.669,11 5.5,11 h 9 c 0.831,0 1.5,0.593365 1.5,1.332031 v -1 C 16,10.593365 15.331,10 14.5,10 Z m 44,0 C 48.669,10 48,10.593365 48,11.332031 v 1 C 48,11.593365 48.669,11 49.5,11 h 9 c 0.831,0 1.5,0.593365 1.5,1.332031 v -1 C 60,10.593365 59.331,10 58.5,10 Z M 5.5,28 C 4.669,28 4,28.593363 4,29.332031 v 1 C 4,29.593363 4.669,29 5.5,29 h 9 c 0.831,0 1.5,0.593363 1.5,1.332031 v -1 C 16,28.593363 15.331,28 14.5,28 Z m 44,0 C 48.669,28 48,28.593363 48,29.332031 v 1 C 48,29.593363 48.669,29 49.5,29 h 9 c 0.831,0 1.5,0.593363 1.5,1.332031 v -1 C 60,28.593363 59.331,28 58.5,28 Z m 0,18 C 48.669,46 48,46.593363 48,47.332031 v 1 C 48,47.593363 48.669,47 49.5,47 h 9 c 0.831,0 1.5,0.593363 1.5,1.332031 v -1 C 60,46.593363 59.331,46 58.5,46 Z"
       id="path6" />
    <rect
       style="fill:#486084;fill-opacity:1"
       width="56"
       height="40"
       x="-60"
       y="-52"
       rx="3.1110001"
       ry="2.8570001"
       transform="matrix(0,-1,-1,0,0,0)"
       id="rect7" />
    <rect
       style="fill:#57c33c"
       width="12"
       height="12"
       x="20"
       y="26"
       id="rect8" />
    <rect
       style="fill:#ffd735"
       width="12"
       height="12"
       x="32"
       y="26"
       id="rect9" />
    <rect
       style="fill:#ff741b"
       width="12"
       height="12"
       x="20"
       y="14"
       id="rect10" />
    <rect
       style="fill:#7994ff"
       width="12"
       height="12"
       x="32"
       y="14"
       id="rect11" />
    <rect
       style="fill:#dc61b8"
       width="12"
       height="12"
       x="32"
       y="38"
       id="rect12" />
    <rect
       style="opacity:0.2"
       width="24"
       height="1"
       x="20"
       y="26"
       id="rect13" />
    <rect
       style="opacity:0.2"
       width="24"
       height="1"
       x="20"
       y="38"
       id="rect14" />
    <rect
       style="opacity:0.2"
       width="12"
       height="1"
       x="32"
       y="50"
       id="rect15" />
    <path
       style="opacity:0.1;fill:#ffffff"
       d="M 14.855469,4 C 13.272611,4 12,5.3858194 12,7.109375 v 1 C 12,6.3858194 13.272611,5 14.855469,5 H 49.144531 C 50.727387,5 52,6.3858194 52,8.109375 v -1 C 52,5.3858194 50.727387,4 49.144531,4 Z"
       id="path15" />
  </g>
</svg>
