<?xml version="1.0" encoding="UTF-8" standalone="no"?>
<!-- Created with Inkscape (http://www.inkscape.org/) -->

<svg
   version="1.1"
   id="svg15748"
   width="62"
   height="62"
   viewBox="0 0 62 62"
   sodipodi:docname="kturtle.svg"
   inkscape:version="1.4 (unknown)"
   xmlns:inkscape="http://www.inkscape.org/namespaces/inkscape"
   xmlns:sodipodi="http://sodipodi.sourceforge.net/DTD/sodipodi-0.dtd"
   xmlns:xlink="http://www.w3.org/1999/xlink"
   xmlns="http://www.w3.org/2000/svg"
   xmlns:svg="http://www.w3.org/2000/svg"
   xmlns:rdf="http://www.w3.org/1999/02/22-rdf-syntax-ns#"
   xmlns:cc="http://creativecommons.org/ns#"
   xmlns:dc="http://purl.org/dc/elements/1.1/">
  <metadata
     id="metadata15754">
    <rdf:RDF>
      <cc:Work
         rdf:about="">
        <dc:format>image/svg+xml</dc:format>
        <dc:type
           rdf:resource="http://purl.org/dc/dcmitype/StillImage" />
      </cc:Work>
    </rdf:RDF>
  </metadata>
  <defs
     id="defs15752">
    <linearGradient
       inkscape:collect="always"
       id="linearGradient846">
      <stop
         style="stop-color:#136d13;stop-opacity:1;"
         offset="0"
         id="stop842" />
      <stop
         style="stop-color:#4bb47c;stop-opacity:1;"
         offset="1"
         id="stop844" />
    </linearGradient>
    <linearGradient
       inkscape:collect="always"
       xlink:href="#linearGradient846"
       id="linearGradient848"
       x1="15.154365"
       y1="-6.1368275"
       x2="28.357967"
       y2="43.13969"
       gradientUnits="userSpaceOnUse" />
  </defs>
  <sodipodi:namedview
     pagecolor="#ffffff"
     bordercolor="#666666"
     borderopacity="1"
     objecttolerance="10"
     gridtolerance="10"
     guidetolerance="10"
     inkscape:pageopacity="0"
     inkscape:pageshadow="2"
     inkscape:window-width="1920"
     inkscape:window-height="996"
     id="namedview15750"
     showgrid="false"
     inkscape:zoom="9.05042"
     inkscape:cx="21.601207"
     inkscape:cy="31.987466"
     inkscape:window-x="0"
     inkscape:window-y="0"
     inkscape:window-maximized="1"
     inkscape:current-layer="svg15748"
     inkscape:showpageshadow="2"
     inkscape:pagecheckerboard="0"
     inkscape:deskcolor="#d1d1d1">
    <inkscape:grid
       type="xygrid"
       id="grid812"
       originx="0"
       originy="0"
       spacingy="1"
       spacingx="1"
       units="px"
       visible="false" />
  </sodipodi:namedview>
  <g
     id="g1"
     transform="matrix(1.277726,0,0,1.2724896,0.334576,0.4602496)">
    <path
       id="path817"
       d="m 20,4 v 3 h -3 v 8 h 3 v 2 h -1.5 v 3 H 15 V 18 14 H 11 8 v 4 h 3 v 3 h 3 v 2 h -3 v 11 h 3 v 3 h -3 v 3 H 8 v 4 h 3 4 v -4 -2 h 3.5 v 3 h 11 V 38 H 33 v 2 4 h 4 3 v -4 h -3 v -3 h -3 v -3 h 3 V 23 h -3 v -2 h 3 v -3 h 3 v -4 h -3 -4 v 4 2 H 29.5 V 17 H 28 v -2 h 3 V 7 H 28 V 4 Z"
       style="opacity:1;fill:none;fill-opacity:1;stroke:#0a423b;stroke-width:4;stroke-linecap:round;stroke-linejoin:round;stroke-miterlimit:4;stroke-dasharray:none;stroke-dashoffset:0;stroke-opacity:1;paint-order:normal" />
    <path
       style="opacity:1;fill:url(#linearGradient848);fill-opacity:1;stroke:none;stroke-width:4;stroke-linecap:round;stroke-linejoin:round;stroke-miterlimit:4;stroke-dasharray:none;stroke-dashoffset:0;stroke-opacity:1;paint-order:normal"
       d="m 20,4 v 3 h -3 v 8 h 3 v 2 h -1.5 v 3 H 15 V 18 14 H 11 8 v 4 h 3 v 3 h 3 v 2 h -3 v 11 h 3 v 3 h -3 v 3 H 8 v 4 h 3 4 v -4 -2 h 3.5 v 3 h 11 V 38 H 33 v 2 4 h 4 3 v -4 h -3 v -3 h -3 v -3 h 3 V 23 h -3 v -2 h 3 v -3 h 3 v -4 h -3 -4 v 4 2 H 29.5 V 17 H 28 v -2 h 3 V 7 H 28 V 4 Z"
       id="rect816" />
  </g>
</svg>
