<?xml version="1.0" encoding="UTF-8" standalone="no"?>
<svg
   width="62"
   height="62"
   version="1.1"
   id="svg3"
   sodipodi:docname="kuro.svg"
   inkscape:version="1.4 (unknown)"
   xmlns:inkscape="http://www.inkscape.org/namespaces/inkscape"
   xmlns:sodipodi="http://sodipodi.sourceforge.net/DTD/sodipodi-0.dtd"
   xmlns="http://www.w3.org/2000/svg"
   xmlns:svg="http://www.w3.org/2000/svg">
  <defs
     id="defs3" />
  <sodipodi:namedview
     id="namedview3"
     pagecolor="#ffffff"
     bordercolor="#000000"
     borderopacity="0.25"
     inkscape:showpageshadow="2"
     inkscape:pageopacity="0.0"
     inkscape:pagecheckerboard="0"
     inkscape:deskcolor="#d1d1d1"
     inkscape:zoom="7.0710678"
     inkscape:cx="23.97092"
     inkscape:cy="33.021887"
     inkscape:window-width="1920"
     inkscape:window-height="996"
     inkscape:window-x="0"
     inkscape:window-y="0"
     inkscape:window-maximized="1"
     inkscape:current-layer="svg3" />
  <g
     id="g3"
     transform="translate(-1.0008015,-1.499738)">
    <path
       style="opacity:0.2;stroke-width:0.999989"
       d="m 49.827602,9.9999908 c -0.709595,0 -1.421094,0.2705752 -1.964822,0.8124912 L 25.991929,32.609116 16.13657,22.812348 c -1.087457,-1.081328 -2.83828,-1.081328 -3.925738,0 l -8.3944377,8.347564 c -1.0874575,1.08133 -1.0874575,2.820972 0,3.9023 L 24.054451,55.186989 c 0.271863,0.270957 0.5878,0.473888 0.921864,0.609369 0.167038,0.06758 0.336906,0.118539 0.511714,0.152338 0.174798,0.0338 0.353844,0.05078 0.531244,0.05078 0.177398,0 0.356436,-0.017 0.531244,-0.05078 0.174798,-0.0338 0.34468,-0.08476 0.511713,-0.152338 0.334064,-0.135479 0.646094,-0.338412 0.917957,-0.609369 l 8.398346,-8.347563 c 0.06796,-0.06758 0.128038,-0.134619 0.187498,-0.20703 0.0024,-0.0028 0.0056,-0.005 0.0078,-0.0078 L 60.182956,23.093595 c 1.087458,-1.083832 1.087458,-2.830189 0,-3.914019 L 51.788518,10.812482 C 51.24479,10.270566 50.537198,9.9999908 49.827602,9.9999908 Z"
       id="path1" />
    <rect
       style="fill:#005566;stroke-width:0.999989;fill-opacity:1"
       width="17.374805"
       height="34.08062"
       x="4.0900021"
       y="-58.159447"
       ry="2.7679689"
       transform="matrix(-0.70910211,0.70510581,-0.70910211,-0.70510581,0,0)"
       id="rect1" />
    <path
       style="opacity:0.1;fill:#ffffff;stroke-width:0.999989"
       d="m 14.17175,20.999866 c -0.709596,0 -1.417187,0.271827 -1.960915,0.812491 L 3.8163971,30.15992 c -0.6697534,0.665978 -0.9193238,1.579872 -0.7636633,2.437473 0.099738,-0.525577 0.3524214,-1.02856 0.7636633,-1.437484 l 8.3944379,-8.347563 c 0.543728,-0.540664 1.251319,-0.812491 1.960915,-0.812491 0.709595,0 1.421094,0.271827 1.964822,0.812491 l 20.241962,20.124775 c 0.40966,0.407351 0.661861,0.908003 0.76171,1.431625 0.154018,-0.856077 -0.09353,-1.767196 -0.76171,-2.431613 L 16.136572,21.812357 C 15.592844,21.271693 14.881345,20.999866 14.17175,20.999866 Z"
       id="path2" />
    <rect
       style="fill:#009a7c;stroke-width:0.999989"
       width="17.394806"
       height="51.007431"
       x="40.739643"
       y="-29.609623"
       ry="2.7709689"
       transform="matrix(0.70828677,0.70592482,-0.70828677,0.70592482,0,0)"
       id="rect2" />
    <path
       style="opacity:0.2;fill:#ffffff;stroke-width:0.999989"
       d="M 49.827603,9 C 49.118008,9 48.406508,9.2705754 47.86278,9.8124909 L 15.660015,41.905883 c -0.667616,0.665389 -0.915207,1.577997 -0.76171,2.43552 0.09951,-0.524947 0.352044,-1.027231 0.76171,-1.435531 L 47.86278,10.81248 c 0.543728,-0.541916 1.255228,-0.8124912 1.964823,-0.8124912 0.709596,0 1.417187,0.2705752 1.960915,0.8124912 l 8.394438,8.367094 c 0.411147,0.409776 0.663915,0.914379 0.763664,1.44139 0.154848,-0.859258 -0.09449,-1.774436 -0.763664,-2.441378 L 51.788518,9.8124909 C 51.24479,9.2705754 50.537199,9 49.827603,9 Z"
       id="path3" />
  </g>
</svg>
