<?xml version="1.0" encoding="UTF-8" standalone="no"?>
<svg
   width="62"
   height="62"
   version="1.1"
   id="svg6"
   sodipodi:docname="l4d2.svg"
   inkscape:version="1.4 (unknown)"
   xmlns:inkscape="http://www.inkscape.org/namespaces/inkscape"
   xmlns:sodipodi="http://sodipodi.sourceforge.net/DTD/sodipodi-0.dtd"
   xmlns="http://www.w3.org/2000/svg"
   xmlns:svg="http://www.w3.org/2000/svg">
  <defs
     id="defs6" />
  <sodipodi:namedview
     id="namedview6"
     pagecolor="#ffffff"
     bordercolor="#000000"
     borderopacity="0.25"
     inkscape:showpageshadow="2"
     inkscape:pageopacity="0.0"
     inkscape:pagecheckerboard="0"
     inkscape:deskcolor="#d1d1d1"
     inkscape:zoom="12.078125"
     inkscape:cx="32"
     inkscape:cy="32"
     inkscape:window-width="1920"
     inkscape:window-height="996"
     inkscape:window-x="0"
     inkscape:window-y="0"
     inkscape:window-maximized="1"
     inkscape:current-layer="svg6" />
  <g
     id="g6"
     transform="translate(-0.5,-1.0004778)">
    <path
       style="opacity:0.2;stroke-width:0.982307"
       d="m 4.0514622,31.514158 c -0.011436,0.327347 -0.049872,0.648206 -0.049872,0.978495 0,15.239335 12.2644758,27.507825 27.4988258,27.507825 14.684369,0 26.607076,-11.40121 27.44972,-25.873072 L 59,34.082206 v -1.964848 l -0.04988,0.0452 C 58.108672,46.634427 46.185555,58.035633 31.500396,58.035633 16.598975,58.035633 4.57119,46.289005 4.0506765,31.514158 Z"
       id="path1" />
    <path
       style="fill:#89a02c;stroke-width:0.982307"
       d="m 31.288653,4.0063753 h -0.002 C 16.152716,4.1223013 4.0019642,16.340884 4.0019642,31.508305 c 0,15.239332 12.2644718,27.507822 27.4988218,27.507822 14.684376,0 26.60708,-11.400617 27.447755,-25.873073 l 0.05088,-0.04718 V 9.5020422 c 0,-3.0478667 -2.452897,-5.5015646 -5.499767,-5.5015646 H 31.288461 Z"
       id="path2" />
    <ellipse
       style="opacity:0.2;stroke-width:0.982307"
       cx="31.500978"
       cy="32.496399"
       id="circle2"
       rx="19.641884"
       ry="19.648312" />
    <ellipse
       style="fill:#f2f2f2;stroke-width:0.982307;fill-opacity:1"
       cx="31.500978"
       cy="31.513922"
       id="circle3"
       rx="19.641884"
       ry="19.648312" />
    <g
       style="opacity:0.2"
       transform="matrix(1.9642014,0,0,1.9648441,-194.38242,-14.665679)"
       id="g3">
      <path
         d="m 125.17,16.048 h 2.33013 v 0.95215 H 124.0018 V 16.0773 l 0.58594,-0.62256 c 0.6958,-0.739733 1.26824,-1.195067 1.41717,-1.366 0.18311,-0.20996 0.31494,-0.395507 0.39551,-0.55664 0.0806,-0.163573 0.12084,-0.324707 0.12084,-0.4834 0,-0.24414 -0.0745,-0.331993 -0.22338,-0.463827 -0.14649,-0.13428 -0.60519,-0.20142 -0.87618,-0.20142 -0.50316,0.02738 -0.98972,0.218404 -1.40259,0.350307 v -0.906967 c 0.26123,-0.09521 0.51635,-0.167233 0.76538,-0.21606 0.25147,-0.05127 0.49194,-0.07691 0.72143,-0.07691 0.57861,0 1.1326,0.1355 1.46219,0.4065 0.33203,0.268554 0.49805,0.535854 0.49805,1.002167 0,0.214847 -0.0366,0.416263 -0.10987,0.60425 -0.0708,0.187987 -0.19409,0.396727 -0.36987,0.62622 -0.12939,0.166013 -0.48463,0.539547 -1.0657,1.1206 -0.31495,0.31494 -0.56519,0.566403 -0.75074,0.75439 z"
         id="path3" />
    </g>
    <g
       style="fill:#ffffff"
       transform="matrix(1.9642014,0,0,1.9648441,-194.38242,-15.642071)"
       id="g4">
      <path
         d="m 125.17,16.048 h 2.33013 v 0.95215 H 124.0018 V 16.0773 l 0.58594,-0.62256 c 0.6958,-0.739733 1.26824,-1.195067 1.41717,-1.366 0.18311,-0.20996 0.31494,-0.395507 0.39551,-0.55664 0.0806,-0.163573 0.12084,-0.324707 0.12084,-0.4834 0,-0.24414 -0.0745,-0.331993 -0.22338,-0.463827 -0.14649,-0.13428 -0.60519,-0.20142 -0.87618,-0.20142 -0.50316,0.02738 -0.98972,0.218404 -1.40259,0.350307 v -0.906967 c 0.26123,-0.09521 0.51635,-0.167233 0.76538,-0.21606 0.25147,-0.05127 0.49194,-0.07691 0.72143,-0.07691 0.57861,0 1.1326,0.1355 1.46219,0.4065 0.33203,0.268554 0.49805,0.535854 0.49805,1.002167 0,0.214847 -0.0366,0.416263 -0.10987,0.60425 -0.0708,0.187987 -0.19409,0.396727 -0.36987,0.62622 -0.12939,0.166013 -0.48463,0.539547 -1.0657,1.1206 -0.31495,0.31494 -0.56519,0.566403 -0.75074,0.75439 z"
         id="path4"
         style="fill:#f2f2f2;fill-opacity:1" />
    </g>
    <path
       style="opacity:0.2;fill:#ffffff;stroke-width:0.982307"
       d="M 31.285161,4.0057654 C 16.151379,4.1216905 4,16.343309 4,31.510928 4,31.619121 4.00947,31.724709 4.015349,31.831382 4.3637035,16.972536 16.372758,5.1024597 31.285161,4.9882296 h 0.002 0.002 22.205642 c 3.046869,0 5.501533,2.4554689 5.501533,5.5033374 V 9.5091006 c 0,-3.0478668 -2.454664,-5.5033352 -5.501533,-5.5033352 h -22.205648 -0.002 z"
       id="path5" />
    <path
       style="fill:#ff3a33;stroke-width:0.982307;fill-opacity:1"
       d="m 31.55467,17.750292 c -0.161108,0.01623 -0.286915,0.124251 -0.326102,0.316608 -0.02459,0.121238 -0.01364,0.322949 0.02683,0.462453 0.03929,0.135972 0.07095,0.301616 0.07095,0.368427 0,0.0668 0.06045,0.208541 0.132356,0.316609 0.122378,0.182538 0.122862,0.204161 0.02879,0.335809 -0.136554,0.192557 -0.374123,0.327154 -0.64837,0.368424 -0.222523,0.034 -0.22827,0.04127 -0.22827,0.287831 0,0.229496 -0.02506,0.270488 -0.262804,0.437502 -0.14407,0.101972 -0.373888,0.202892 -0.51217,0.224508 -0.193279,0.0301 -0.298907,0.09179 -0.452704,0.270557 -0.236003,0.275086 -0.74812,0.517379 -0.98406,0.466293 -0.0868,-0.0181 -0.233785,-0.107262 -0.326106,-0.197644 -0.200472,-0.196491 -0.450947,-0.218914 -0.550533,-0.04798 -0.109291,0.187848 -0.01364,0.416398 0.285814,0.686965 0.152938,0.137927 0.276232,0.294258 0.276232,0.347309 0,0.151296 -0.239868,0.393083 -0.485315,0.487397 -0.46745,0.179788 -0.558105,0.403682 -0.329942,0.815525 0.06498,0.117298 0.150032,0.324952 0.189909,0.460524 0.09923,0.339145 -0.048,0.754576 -0.345284,0.972872 -0.246907,0.181167 -0.281133,0.397276 -0.08821,0.558395 0.245001,0.204153 0.165398,0.350742 -0.299243,0.548799 -0.67046,0.286085 -0.847167,0.64902 -0.610009,1.253027 0.139381,0.355054 0.125773,0.431767 -0.105498,0.594848 -0.222354,0.156207 -0.344276,0.359132 -0.510258,0.846225 -0.142603,0.418913 -0.237778,0.544704 -0.537105,0.719578 -0.311923,0.181357 -0.744285,0.777651 -0.744284,1.026601 -2e-6,0.177235 0.49153,0.92433 0.876638,1.333619 0.211748,0.22498 0.289185,0.588763 0.178403,0.84047 -0.132627,0.301605 -0.446224,0.623065 -0.711672,0.72917 -0.245985,0.09823 -0.252812,0.0992 -0.535191,-0.04032 -0.157436,-0.0776 -0.432983,-0.294977 -0.611922,-0.481639 -0.4097,-0.427755 -0.556993,-0.444646 -0.782646,-0.0902 -0.119618,0.187644 -0.159218,0.329457 -0.159218,0.575663 0,0.379412 -0.02557,0.395589 -0.684808,0.464366 -0.413572,0.0426 -0.6098,0.125816 -1.028187,0.431747 -0.287541,0.21024 -0.344117,0.211567 -0.583145,0.02684 -0.103044,-0.0798 -0.463473,-0.229745 -0.799908,-0.333883 -0.545492,-0.167806 -0.629875,-0.212685 -0.780726,-0.414479 -0.09296,-0.124577 -0.185022,-0.289829 -0.205255,-0.368423 -0.06798,-0.264673 -0.990945,-1.509128 -1.21233,-1.634885 -0.0539,-0.03045 -0.308709,-0.141429 -0.565881,-0.247536 -0.43787,-0.180768 -0.497423,-0.190656 -0.957213,-0.161184 -0.589209,0.0379 -0.897961,0.18217 -1.260284,0.589094 -0.28704,0.322244 -0.379707,0.535467 -0.466139,1.080329 -0.200172,1.26283 -0.152308,1.432386 0.410507,1.475616 0.397505,0.0303 0.519009,0.116358 0.77114,0.539202 0.08911,0.148744 0.203661,0.291068 0.255126,0.316619 0.09831,0.0481 0.693874,0.272036 1.210416,0.454771 0.353268,0.125161 0.522141,0.259304 0.834434,0.658171 0.123533,0.157977 0.331679,0.395998 0.462295,0.529613 0.130466,0.133412 0.235948,0.288415 0.235948,0.345399 0,0.0568 -0.139276,0.236036 -0.310756,0.399123 -0.350205,0.332854 -0.382254,0.469608 -0.220599,0.967114 0.07418,0.228316 0.143803,0.313624 0.35871,0.441342 0.146591,0.0872 0.387482,0.25999 0.535191,0.383778 0.266941,0.224387 0.268696,0.22626 0.172646,0.397201 -0.05305,0.0955 -0.128781,0.189465 -0.166888,0.211077 -0.03809,0.0216 -0.108782,0.128004 -0.157297,0.234102 -0.08017,0.176647 -0.07581,0.216539 0.04031,0.425996 0.100767,0.181947 0.118341,0.287992 0.08636,0.510417 -0.03259,0.226947 -0.0157,0.313578 0.08245,0.443264 0.06706,0.0892 0.170281,0.28068 0.230191,0.422152 0.168222,0.39828 0.194361,0.415378 1.225766,0.819361 0.188173,0.0737 0.242762,0.139405 0.352954,0.422152 0.07194,0.184695 0.16124,0.442185 0.197578,0.569903 0.105345,0.371364 0.450759,0.59869 0.909252,0.59869 0.26046,0 0.529433,0.09009 0.529433,0.176538 0,0.109639 0.422663,0.602499 0.657962,0.767547 0.124437,0.0884 0.320059,0.172703 0.446954,0.172703 0.189824,0.01396 0.296305,0.08523 0.667547,0.445179 0.242817,0.235393 0.533902,0.54544 0.646447,0.688878 0.112591,0.144024 0.294364,0.303853 0.40475,0.356904 v 0.0098 c 0.208958,0.0963 0.324555,0.09477 1.697655,-0.01923 0.694202,-0.0578 0.817367,-0.114843 0.907329,-0.42215 0.109113,-0.373128 0.02086,-0.566134 -0.333778,-0.727252 -0.29249,-0.133614 -0.302491,-0.134665 -0.577386,-0.03836 -0.257493,0.0825 -0.304411,0.0825 -0.575475,0 -0.162054,-0.0491 -0.398864,-0.101239 -0.52752,-0.120889 -0.305145,-0.0432 -0.296138,-0.12347 0.03072,-0.259044 0.336065,-0.139902 0.429515,-0.139602 0.625348,0.002 0.329108,0.238342 0.518744,0.09003 0.443118,-0.345395 -0.03245,-0.187057 -0.0079,-0.226061 0.343364,-0.544963 0.208169,-0.189021 0.498194,-0.405095 0.644534,-0.477798 0.232641,-0.117895 0.320582,-0.127335 0.70208,-0.09786 0.371023,0.0295 0.46651,0.01767 0.638777,-0.08063 0.223925,-0.127913 0.241116,-0.212012 0.126602,-0.606364 -0.06718,-0.230875 -0.06065,-0.285426 0.04793,-0.470123 0.161972,-0.276852 0.446055,-0.533449 0.590822,-0.533449 0.155626,0 0.55774,0.22224 0.725094,0.401046 0.119998,0.127717 0.188726,0.137697 0.623437,0.157347 0.268724,0.01964 0.518274,0.01803 0.552453,0.01922 0.03429,0 0.276025,-0.01486 0.537105,-0.03456 0.420804,-0.0334 0.520476,-0.02032 0.880479,0.111298 0.223373,0.08151 0.580879,0.188907 0.794154,0.234103 0.447217,0.0961 0.583321,0.190797 0.780724,0.548799 0.169042,0.306716 0.242485,0.372565 0.80375,0.711899 0.633015,0.383154 1.0918,0.414926 1.73026,0.117051 0.163641,-0.0766 0.352328,-0.140077 0.420097,-0.140077 0.196696,0 0.438381,-0.236182 0.525599,-0.516176 0.07612,-0.238537 0.09139,-0.259048 0.303081,-0.259048 0.125636,0 0.27752,-0.04276 0.345283,-0.09978 0.06636,-0.055 0.20306,-0.09978 0.305005,-0.09978 0.245667,0 0.335694,-0.09433 0.335694,-0.351155 0,-0.170944 0.043,-0.246095 0.220599,-0.389532 0.449236,-0.363701 0.483272,-0.37347 0.811418,-0.239859 0.452307,0.184107 0.655021,0.153278 1.469378,-0.230266 0.26144,-0.123589 0.546743,-0.224508 0.634941,-0.224508 0.09603,0 0.327,0.116888 0.573554,0.287831 0.591628,0.41243 0.816353,0.374626 1.007081,-0.16886 0.124867,-0.355841 0.104071,-0.403451 -0.322266,-0.702307 -0.404631,-0.283535 -0.436942,-0.348966 -0.299248,-0.606365 0.141212,-0.263882 0.387712,-0.397686 1.003244,-0.541123 0.512134,-0.119858 0.66159,-0.188391 1.534601,-0.698473 0.429402,-0.251697 0.610407,-0.324291 0.797987,-0.324291 0.906304,0 1.351941,-0.866232 1.452118,-2.822662 0.01488,-0.290413 0.07459,-0.499056 0.249371,-0.861579 0.439145,-0.910326 0.529931,-1.209891 0.623428,-2.068547 0.05857,-0.535625 0.06898,-0.898418 0.03259,-1.045786 -0.0367,-0.149333 -0.02152,-0.598288 0.04606,-1.320187 0.174597,-1.866439 0.138013,-2.231015 -0.289659,-2.807316 -0.121877,-0.164068 -0.189217,-0.342592 -0.218679,-0.585258 -0.04982,-0.413804 -0.193289,-0.779698 -0.542864,-1.383505 -0.286071,-0.494172 -0.434001,-0.690485 -0.903493,-1.195461 -0.449792,-0.483361 -0.46641,-0.52892 -0.454627,-1.13214 0.008,-0.381774 -0.01864,-0.594958 -0.0921,-0.754115 -0.05618,-0.122217 -0.101664,-0.308373 -0.101664,-0.414478 0,-0.134789 -0.0372,-0.210065 -0.126606,-0.253295 -0.177938,-0.0884 -0.969848,-0.103639 -1.060791,-0.02108 -0.04029,0.0367 -0.08779,0.188439 -0.105506,0.3358 -0.02532,0.208476 -0.06567,0.280973 -0.176476,0.328128 -0.208228,0.08722 -0.671359,-0.174359 -0.836356,-0.472043 -0.06846,-0.123391 -0.228031,-0.295348 -0.352958,-0.383771 -0.387247,-0.273315 -0.44476,-0.341465 -0.489152,-0.583343 -0.03619,-0.19727 -0.01346,-0.283024 0.141946,-0.53728 0.219213,-0.358984 0.304628,-0.939811 0.164973,-1.122548 -0.139878,-0.183515 -0.463418,-0.294601 -0.744282,-0.251371 -0.228831,0.0344 -0.261868,0.06462 -0.416259,0.36267 -0.10385,0.200611 -0.260332,0.385267 -0.406669,0.485476 -0.130345,0.0888 -0.328447,0.232026 -0.441198,0.320448 -0.230701,0.180774 -0.485506,0.206436 -0.757707,0.07673 -0.156942,-0.0747 -0.180575,-0.123431 -0.218683,-0.449015 -0.03347,-0.287656 -0.08749,-0.425262 -0.257043,-0.644739 -0.118663,-0.153458 -0.233914,-0.379009 -0.255127,-0.500827 -0.02793,-0.160728 -0.09593,-0.26031 -0.251291,-0.370346 -0.117282,-0.0825 -0.255848,-0.224305 -0.306922,-0.314695 -0.121487,-0.216726 -0.436584,-0.389138 -0.709749,-0.389529 -0.188667,-1.99e-4 -0.272891,0.05175 -0.623427,0.391452 -0.222944,0.215937 -0.457335,0.410127 -0.521764,0.431746 -0.06904,0.0216 -0.278949,-0.02102 -0.510259,-0.105542 -0.440908,-0.163088 -0.61358,-0.175324 -0.834434,-0.06335 -0.128716,0.0707 -0.190922,0.0688 -0.404749,0 -0.332388,-0.109048 -0.495275,-0.0648 -0.659878,0.180376 -0.265686,0.39514 -0.523042,0.380494 -0.615759,-0.03647 -0.05068,-0.228317 -0.240061,-0.336147 -0.598493,-0.337723 -0.140288,0 -0.383834,-0.06143 -0.556296,-0.141993 -0.357647,-0.167018 -0.611832,-0.179573 -1.041605,-0.04988 -0.296407,0.0845 -0.313247,0.08296 -0.395157,-0.01923 -0.07447,-0.0943 -0.07127,-0.132604 0.03259,-0.287831 0.164205,-0.244821 0.150832,-0.379732 -0.05757,-0.585258 C 31.910523,17.80982 31.715747,17.734166 31.55464,17.7504 Z m 5.455498,3.939449 c 0.412845,-0.02572 0.919074,0.02276 1.634349,0.155425 0.270805,0.04912 0.687624,0.121977 0.924594,0.15735 0.236931,0.0354 0.555427,0.08386 0.707835,0.10746 0.393004,0.05952 0.641316,0.197516 0.797988,0.445182 0.121962,0.192628 0.124091,0.219218 0.03645,0.280149 -0.129922,0.08823 -0.121673,0.155295 0.02683,0.241782 0.07093,0.04151 0.122768,0.134231 0.122768,0.218752 0,0.219556 0.110478,0.368423 0.272389,0.368423 0.221095,0 0.312466,0.137671 0.224434,0.3358 -0.04015,0.08883 -0.06532,0.198488 -0.05562,0.243699 0.01244,0.05896 -0.02194,0.07916 -0.103586,0.05945 -0.492727,-0.08823 -0.765632,0.01607 -0.634938,0.243698 0.05446,0.09433 0.03514,0.137134 -0.126607,0.260968 -0.222596,0.171589 -0.247146,0.291667 -0.06138,0.291667 0.07715,0 0.141732,0.04439 0.161136,0.113216 0.04146,0.149389 0.06951,0.146101 0.262795,-0.02684 0.143238,-0.12973 0.1728,-0.136054 0.283901,-0.06335 0.107469,0.07053 0.121013,0.136164 0.105507,0.502744 -0.02218,0.568248 0.0951,1.4161 0.224435,1.627204 0.20011,0.328254 0.256652,0.761031 0.186067,1.439159 -0.03591,0.344568 -0.08222,0.833506 -0.103582,1.086084 -0.03047,0.364227 -0.06957,0.49199 -0.184158,0.621718 -0.159396,0.179063 -0.172732,0.302341 -0.145781,1.387341 0.01472,0.598328 0.02708,0.644738 0.201414,0.871176 0.101139,0.131496 0.238664,0.24898 0.306922,0.26864 0.124038,0.02951 0.1242,0.0309 -0.0059,0.184211 -0.07173,0.08553 -0.130441,0.203967 -0.130441,0.260968 0,0.09045 0.03388,0.09848 0.184152,0.07097 0.1572,-0.02951 0.191065,-0.01456 0.243618,0.115139 0.07664,0.194581 0.231545,0.201941 0.32035,0.02108 0.0576,-0.117929 0.110178,-0.138309 0.366381,-0.140079 0.265495,-0.002 0.305039,0.0144 0.337612,0.13432 0.04517,0.169041 0.179108,0.220716 0.345289,0.138165 0.169914,-0.08493 0.262475,0.0093 0.418177,0.422152 0.15103,0.403337 0.15447,0.635767 0.0078,0.93257 -0.183181,0.370316 -0.676853,0.69821 -1.551863,1.032357 -0.39772,0.151743 -0.560827,0.250401 -0.746198,0.452851 -0.389167,0.424769 -0.496972,0.58794 -0.483402,1.928474 0.02052,2.166269 0.02198,2.13494 -0.115092,2.385159 -0.0693,0.126391 -0.111071,0.276792 -0.182238,0.337723 l 0.002,-0.0098 c -0.102805,0.08651 -0.25201,0.112691 -0.728934,0.13432 -0.33014,0.0118 -0.621635,0.0045 -0.646451,-0.01923 -0.06557,-0.07073 -0.928393,-0.112269 -1.248781,-0.07097 -0.103732,0.0134 -0.122765,-0.01681 -0.122765,-0.197644 -10e-7,-0.213074 -0.200059,-0.490666 -0.255129,-0.353077 -0.111281,0.276558 -0.389402,0.307725 -0.389402,0.04412 -10e-7,-0.202655 -0.203178,-0.1772 -0.289657,0.03645 -0.09285,0.234691 -0.296963,0.246219 -0.2417,0.01923 0.113441,-0.466231 0.116862,-0.53153 0.02303,-0.53153 -0.164286,0 -0.241138,-0.141629 -0.168804,-0.318532 0.09297,-0.228598 0.02191,-0.473447 -0.143868,-0.49507 -0.122931,-0.0163 -0.136051,-0.0553 -0.149623,-0.449015 -0.0099,-0.236854 -0.01553,-0.537991 -0.01533,-0.669687 4.66e-4,-0.287171 -0.160794,-0.26646 -0.460377,-0.487397 -0.134157,-0.09965 -0.216761,-0.211077 -0.216761,-0.291668 0,-0.07053 -0.04016,-0.17893 -0.08821,-0.239862 -0.08556,-0.110067 -0.09045,-0.108713 -0.243615,0.02499 -0.139575,0.121871 -0.190411,0.131317 -0.481482,0.09596 -0.416837,-0.05309 -0.998364,-0.08753 -1.925919,-0.117051 -0.677483,-0.02161 -1.093139,-0.07659 -1.243029,-0.163098 -0.03214,-0.01771 -0.375075,-0.06442 -0.761541,-0.09978 -0.38649,-0.03541 -0.796963,-0.09868 -0.911171,-0.143917 -0.114151,-0.04321 -0.348219,-0.08134 -0.521764,-0.08248 -0.17358,0 -0.574215,-0.0355 -0.890066,-0.07673 -0.635613,-0.08393 -0.834617,-0.495088 -0.96104,-0.857734 -0.03605,-0.103394 -0.149468,-0.240286 -0.253211,-0.303186 -0.180913,-0.110464 -0.189358,-0.130157 -0.168803,-0.458611 0.01342,-0.212477 0.06051,-0.380319 0.122768,-0.445179 0.08553,-0.08803 0.0906,-0.144944 0.03259,-0.376096 -0.06456,-0.257299 -0.06176,-0.277773 0.0806,-0.378019 0.08277,-0.05895 0.149626,-0.140967 0.149626,-0.184212 0,-0.04322 0.06099,-0.108537 0.132359,-0.143915 0.09975,-0.05012 0.122088,-0.100723 0.09593,-0.222594 -0.02387,-0.110659 0.0098,-0.219223 0.113179,-0.36075 0.143866,-0.197736 0.144496,-0.204989 0.03259,-0.299341 -0.111498,-0.09433 -0.109667,-0.109881 0.09783,-0.468206 0.195466,-0.337688 0.207132,-0.385423 0.140034,-0.558394 -0.122528,-0.316062 0.152555,-0.750766 0.86513,-1.36816 0.513629,-0.445005 0.60503,-0.549937 0.728934,-0.865407 0.07775,-0.197739 0.197206,-0.489414 0.266634,-0.646667 0.06946,-0.157836 0.149529,-0.364262 0.17648,-0.458612 0.02703,-0.09473 0.14812,-0.360837 0.270475,-0.591008 0.17876,-0.336508 0.396647,-0.59048 1.11642,-1.291405 0.492415,-0.479606 0.999025,-1.011024 1.124092,-1.182025 0.481503,-0.654147 0.566538,-0.790413 0.631101,-1.007409 0.03662,-0.123052 0.183022,-0.366146 0.324185,-0.543049 0.258806,-0.323141 0.456464,-0.628091 0.625349,-0.96519 0.221829,-0.442653 0.926067,-0.821388 1.918251,-1.0266 0.12098,-0.02515 0.247952,-0.04138 0.385568,-0.04988 z m -1.00708,6.957842 c -0.05294,0.01621 -0.116958,0.04773 -0.193744,0.09788 -0.124661,0.08156 -0.295274,0.192496 -0.379816,0.247531 -0.608154,0.390562 -1.106974,0.94559 -1.108744,1.237673 -6.6e-4,0.11715 -0.248484,0.591528 -0.479563,0.917221 -0.08625,0.121674 -0.17735,0.330761 -0.203332,0.462454 -0.02594,0.13268 -0.08198,0.347976 -0.124687,0.481638 -0.07,0.217786 -0.06773,0.843511 0.04031,0.957521 0.152156,0.159796 0.57668,0.3402 0.943779,0.397201 v 0.002 c 0.156692,0.02361 0.867317,0.04988 1.580632,0.04988 1.527243,0.0082 1.778573,-0.04056 2.008407,-0.385695 0.229649,-0.345747 0.294348,-1.15016 0.232108,-1.352811 -0.06604,-0.214835 -0.227113,-0.397204 -0.352956,-0.397204 -0.185762,2e-6 -0.571244,-0.251756 -0.608084,-0.397206 -0.02013,-0.08043 -0.09062,-0.276422 -0.157299,-0.43367 -0.191072,-0.452672 -0.275479,-0.670917 -0.36255,-0.942163 -0.08071,-0.251597 -0.529638,-0.849791 -0.707828,-0.942172 -0.03165,-0.01671 -0.07373,-0.01621 -0.126607,0 z"
       id="path6" />
  </g>
</svg>
