<?xml version="1.0" encoding="UTF-8" standalone="no"?>
<svg
   width="62"
   height="62"
   version="1"
   id="svg11"
   sodipodi:docname="ladi-system-log.svg"
   inkscape:version="1.4 (unknown)"
   xmlns:inkscape="http://www.inkscape.org/namespaces/inkscape"
   xmlns:sodipodi="http://sodipodi.sourceforge.net/DTD/sodipodi-0.dtd"
   xmlns:xlink="http://www.w3.org/1999/xlink"
   xmlns="http://www.w3.org/2000/svg"
   xmlns:svg="http://www.w3.org/2000/svg">
  <defs
     id="defs11">
    <linearGradient
       id="linearGradient11"
       inkscape:collect="always">
      <stop
         style="stop-color:#3f51b5;stop-opacity:1;"
         offset="0"
         id="stop11" />
      <stop
         style="stop-color:#7e8bd3;stop-opacity:1;"
         offset="1"
         id="stop12" />
    </linearGradient>
    <linearGradient
       inkscape:collect="always"
       xlink:href="#linearGradient11"
       id="linearGradient12"
       x1="30.704769"
       y1="60"
       x2="32"
       y2="5"
       gradientUnits="userSpaceOnUse" />
  </defs>
  <sodipodi:namedview
     id="namedview11"
     pagecolor="#ffffff"
     bordercolor="#000000"
     borderopacity="0.25"
     inkscape:showpageshadow="2"
     inkscape:pageopacity="0.0"
     inkscape:pagecheckerboard="0"
     inkscape:deskcolor="#d1d1d1"
     inkscape:zoom="8.5405241"
     inkscape:cx="40.922547"
     inkscape:cy="29.916197"
     inkscape:window-width="1920"
     inkscape:window-height="996"
     inkscape:window-x="0"
     inkscape:window-y="0"
     inkscape:window-maximized="1"
     inkscape:current-layer="svg11" />
  <g
     id="g11"
     transform="matrix(0.98214286,0,0,0.98245614,-0.42857152,-0.92982455)">
    <rect
       style="opacity:0.2"
       width="56"
       height="56"
       x="4"
       y="5"
       rx="28"
       ry="28"
       id="rect1" />
    <rect
       style="fill:url(#linearGradient12)"
       width="56"
       height="56"
       x="4"
       y="4"
       rx="28"
       ry="28"
       id="rect2" />
    <path
       style="opacity:0.1;fill-rule:evenodd"
       d="m 49.972657,15.007955 c -0.316738,-0.03285 -0.813476,0.04087 -1.730468,0.273437 -1.825314,0.462941 -2.212188,0.604965 -2.191406,1.003907 0.01166,0.223724 0.12929,0.425403 0.449218,0.785156 l -1.335938,1.335937 -0.36328,-0.363281 c -0.200214,-0.200158 -0.522444,-0.200158 -0.722658,0 l -0.523436,0.523438 -0.847656,0.847655 -12.648438,12.648438 c -0.218312,-0.07944 -0.445588,-0.08444 -0.671876,-0.04296 l -0.855468,-0.85547 c -0.220688,-0.220688 -0.575794,-0.217174 -0.796874,0.004 L 15.16797,43.73462 c -0.221081,0.22108 -0.224595,0.576186 -0.0039,0.796874 l 0.675781,0.675782 -2.457031,2.45703 c -0.510366,0.510226 -0.510366,1.333524 0,1.84375 l 3.113281,3.109376 c 0.510366,0.510226 1.329478,0.510226 1.839844,0 l 2.457031,-2.457032 0.675781,0.675782 c 0.220688,0.220688 0.575794,0.217174 0.796874,-0.004 L 34.832039,38.265774 c 0.22108,-0.22108 0.224594,-0.576186 0.004,-0.796874 l -0.847656,-0.847656 c 0.04186,-0.226692 0.03666,-0.457034 -0.04296,-0.675782 l 12.683594,-12.679688 0.851562,-0.847656 -0.004,-0.004 0.488282,-0.484374 c 0.200212,-0.200158 0.200212,-0.522498 0,-0.722656 l -0.363282,-0.363282 1.339844,-1.335938 c 0.349736,0.308628 0.545384,0.421884 0.78125,0.44922 0.383932,0.0445 0.475654,-0.41148 0.964844,-2.230469 0.483192,-1.796563 0.363104,-1.922169 -0.0586,-2.34375 -0.201398,-0.201346 -0.339512,-0.342152 -0.65625,-0.375 z"
       id="path2" />
    <rect
       style="fill:#b6b6b6"
       width="3.3740001"
       height="3.4489999"
       x="18.9"
       y="44.240002"
       transform="matrix(0.7072036,-0.70700995,0.7072036,0.70700995,0,0)"
       id="rect3" />
    <rect
       style="fill:#d9d9d9;fill-opacity:1"
       width="24.525"
       height="5.4990001"
       x="-4.9000001"
       y="43.220001"
       rx="0.51099998"
       ry="0.51099998"
       transform="matrix(0.7072036,-0.70700995,0.7072036,0.70700995,0,0)"
       id="rect4" />
    <rect
       style="fill:#b2b2b2;fill-opacity:1"
       width="24.257999"
       height="7.0050001"
       x="-24.84"
       y="42.459999"
       rx="1.303"
       ry="1.303"
       transform="matrix(0.7072036,-0.70700995,0.7072036,0.70700995,0,0)"
       id="rect5" />
    <rect
       style="fill:#2d3d53;fill-opacity:1"
       width="18.900999"
       height="10.042"
       x="-20.059999"
       y="40.939999"
       rx="0.56400001"
       ry="0.56300002"
       transform="rotate(-44.999998)"
       id="rect6" />
    <path
       style="fill:#d9d9d9;fill-rule:evenodd;fill-opacity:1"
       d="m 50.627269,14.383035 c 0.421698,0.421581 0.543232,0.548002 0.06004,2.344565 -0.48919,1.818989 -0.579282,2.275565 -0.963214,2.231072 -0.410324,-0.04755 -0.416508,-0.0419 -2.024162,-1.649104 -1.621034,-1.620587 -1.629442,-1.637554 -1.649556,-2.023608 -0.02078,-0.398942 0.366234,-0.540149 2.191548,-1.003089 1.833986,-0.46514 1.982546,-0.302521 2.385342,0.10017 z"
       id="path6" />
    <path
       style="fill:#2d3d53;fill-opacity:1"
       d="m 43.554651,17.564912 -0.848006,0.848004 3.923776,3.8535 0.849176,-0.848004 z"
       id="path7" />
    <path
       style="opacity:0.1;fill:#ffffff"
       d="M 32,4 C 16.488,4 4,16.488 4,32 4,32.11345 4.01128,32.224113 4.017578,32.335938 4.3691213,17.134181 16.710728,5 32,5 47.289272,5 59.630879,17.134181 59.982422,32.335938 59.98872,32.224113 60,32.11345 60,32 60,16.488 47.512,4 32,4 Z"
       id="path8" />
  </g>
  <g
     id="g1"
     transform="translate(6.9999886,-45.000015)">
    <ellipse
       style="opacity:0.2;stroke-width:0.967203"
       cx="40.500011"
       cy="92.483879"
       id="circle8"
       rx="14.5"
       ry="14.516136" />
    <ellipse
       style="fill:#c83771;stroke-width:0.967203"
       cx="40.500011"
       cy="91.516151"
       id="circle9"
       rx="14.5"
       ry="14.516136" />
    <path
       style="fill:#ffffff;stroke-width:0.967203"
       d="m 40.556645,82.87828 c -4.836618,0 -8.756645,3.924382 -8.756645,8.766384 0,4.842 3.920027,8.766366 8.756645,8.766366 1.890737,0 3.639903,-0.605509 5.071225,-1.625479 l 3.99883,4.003299 a 14.500004,14.51614 0 0 0 2.069272,-2.06027 l -4.006384,-4.010826 c 1.018847,-1.432911 1.623701,-3.180242 1.623701,-5.07309 0,-4.842002 -3.920028,-8.766384 -8.756644,-8.766384 z m 0,2.922128 c 3.224363,0 5.83776,2.616306 5.83776,5.844256 0,3.227953 -2.613397,5.844264 -5.83776,5.844264 -3.224365,0 -5.83776,-2.616311 -5.83776,-5.844264 0,-3.22795 2.613395,-5.844256 5.83776,-5.844256 z"
       id="path9-3" />
  </g>
</svg>
