<?xml version="1.0" encoding="UTF-8" standalone="no"?>
<svg
   width="62"
   height="62"
   version="1.1"
   id="svg1"
   sodipodi:docname="LanguageTool.svg"
   inkscape:version="1.4 (unknown)"
   xmlns:inkscape="http://www.inkscape.org/namespaces/inkscape"
   xmlns:sodipodi="http://sodipodi.sourceforge.net/DTD/sodipodi-0.dtd"
   xmlns:xlink="http://www.w3.org/1999/xlink"
   xmlns="http://www.w3.org/2000/svg"
   xmlns:svg="http://www.w3.org/2000/svg">
  <defs
     id="defs1">
    <linearGradient
       id="linearGradient1"
       inkscape:collect="always">
      <stop
         style="stop-color:#b3b3b3;stop-opacity:1"
         offset="0"
         id="stop1" />
      <stop
         style="stop-color:#ececec;stop-opacity:1"
         offset="1"
         id="stop2" />
    </linearGradient>
    <linearGradient
       inkscape:collect="always"
       xlink:href="#linearGradient1"
       id="linearGradient2"
       x1="32"
       y1="58"
       x2="32"
       y2="6"
       gradientUnits="userSpaceOnUse"
       gradientTransform="matrix(1.0769236,0,0,1.0769236,-3.4615425,-3.4615425)" />
  </defs>
  <sodipodi:namedview
     id="namedview1"
     pagecolor="#ffffff"
     bordercolor="#000000"
     borderopacity="0.25"
     inkscape:showpageshadow="2"
     inkscape:pageopacity="0.0"
     inkscape:pagecheckerboard="0"
     inkscape:deskcolor="#d1d1d1"
     inkscape:zoom="6.0546875"
     inkscape:cx="37.574194"
     inkscape:cy="43.354839"
     inkscape:window-width="1920"
     inkscape:window-height="996"
     inkscape:window-x="0"
     inkscape:window-y="0"
     inkscape:window-maximized="1"
     inkscape:current-layer="svg1" />
  <rect
     width="56"
     height="56"
     x="3"
     y="3"
     fill-rule="evenodd"
     rx="8.6153917"
     ry="8.6153917"
     style="fill:url(#linearGradient2);stroke-width:1.07683;paint-order:stroke fill markers"
     id="rect1" />
  <g
     id="g1"
     transform="translate(0.998149,-1.214071)">
    <path
       style="opacity:0.1;stroke-width:1.21197"
       d="m 17.353532,39.499421 c -0.186841,0 -0.476741,0.007 -0.810412,0.0333 -0.112021,0.006 -0.225183,0.0221 -0.337877,0.0333 -0.09207,0.009 -0.181438,0.0265 -0.28116,0.0421 -1.224057,0.17526 -2.507023,0.65704 -3.995376,1.8594 -1.206887,0.9298 -2.538145,2.29583 -3.926856,4.31174 l 4.475003,2.41428 c 0.810829,-0.54284 1.618391,-1.65131 2.662795,-2.41428 0.695197,-0.50655 1.646717,-0.83712 2.213883,-0.83712 0.58056,0 0.978449,0.10452 1.349118,0.31526 0.33035,0.18795 0.617739,0.42666 1.282962,1.05303 0.0036,0.003 0.02255,0.0235 0.02607,0.0269 5.59e-4,4.7e-4 0.0018,-5e-4 0.0023,0 0.500123,0.47354 0.879132,0.8195 1.238066,1.10514 0.359318,0.28593 0.698525,0.51417 1.117572,0.75179 1.181908,0.67246 2.496441,1.01981 4.011862,1.01981 0.378478,0 0.74408,-0.0219 1.098674,-0.0644 0.709178,-0.0861 1.372665,-0.26024 1.998871,-0.51454 0.313092,-0.1273 0.616519,-0.27356 0.912002,-0.44121 0.83959,-0.47522 1.354676,-0.90811 2.358016,-1.85692 0.345348,-0.32648 0.590222,-0.54943 0.789137,-0.71386 0.198931,-0.16454 0.353208,-0.26951 0.522171,-0.36535 0.369179,-0.20911 0.766192,-0.31524 1.346757,-0.31524 0.58056,0 0.978448,0.10601 1.349119,0.31524 0.336426,0.19142 0.616738,0.42626 1.308945,1.07921 1.000357,0.94881 1.519911,1.3817 2.358004,1.85692 0.295126,0.16807 0.596624,0.31631 0.909653,0.44346 0.939088,0.38172 1.964449,0.57637 3.099904,0.57637 0.383197,0 0.751871,-0.023 1.110482,-0.0665 0.0076,-8.9e-4 0.01564,-0.003 0.02364,-0.004 1.073646,-0.13207 2.062724,-0.45021 2.93923,-0.94864 0.594976,-0.30014 1.184761,-0.74655 1.750788,-1.2404 a 11.411787,11.454688 0 0 0 0.118154,-0.0978 c 0.09522,-0.0846 0.187756,-0.16836 0.281163,-0.25633 a 11.411787,11.454688 0 0 0 0.288252,-0.26312 c 0.0023,-0.002 0.09102,-0.11116 0.09915,-0.12111 1.585127,-1.59424 2.76673,-3.34973 2.891983,-3.52653 0.0032,-0.003 0.06519,-0.0789 0.06628,-0.0796 l -4.472656,-2.31705 c 0.16822,-0.17194 -0.07932,0.0741 -0.158297,0.14939 -0.571632,0.75903 -2.128197,2.54801 -2.943959,2.9455 a 3.6471282,3.6608392 0 0 1 -1.568854,0.33445 4.6742792,4.6918516 0 0 1 -1.368018,-0.26562 4.7487094,4.7665616 0 0 1 -1.715344,-1.0791 c -1.001844,-0.94882 -1.517553,-1.38033 -2.355646,-1.85697 -1.181957,-0.67076 -2.496489,-1.01966 -4.01191,-1.01966 -0.378857,0 -0.74634,0.022 -1.101037,0.0644 -1.064062,0.12937 -2.023292,0.45257 -2.910874,0.95575 -0.838098,0.47815 -1.353805,0.90811 -2.355652,1.85694 -0.690722,0.65295 -0.974886,0.88941 -1.311309,1.07914 -0.184589,0.10517 -0.377135,0.18432 -0.595413,0.23706 -0.218261,0.0539 -0.461801,0.0774 -0.751345,0.0774 -0.580559,0 -0.979937,-0.103 -1.349119,-0.31547 -0.336425,-0.18959 -0.618227,-0.42603 -1.308948,-1.07903 -1.001846,-0.9488 -1.519912,-1.38028 -2.358,-1.85692 -1.181975,-0.67092 -2.496501,-1.0198 -4.011919,-1.0198 z"
       id="path2" />
    <path
       style="opacity:0.1;stroke-width:1.21197"
       d="m 15.274329,16.428327 v 4.857069 h 2.414711 l 0.0087,10.873846 v 0.0023 l -0.0087,0.0023 0.0087,0.0087 c 0.005,2.363889 1.579966,3.589449 3.910313,3.675989 0.01637,0.004 0.03282,0.006 0.04971,0.006 H 31 V 31 H 22.531979 V 30.9958 20.465847 c 0,-1.058302 -0.421016,-4.039015 -4.29308,-4.039015 z m 14.804858,0 c -1.698181,0 -3.464903,1.097027 -3.837062,2.917091 -0.04377,0.173268 -0.06845,0.354317 -0.06845,0.547843 v 0.05453 c -9.96e-4,0.03626 -0.01146,0.06776 -0.01146,0.104405 v 2.606403 c 0.0323,-0.05653 0.07015,-0.104912 0.104016,-0.158904 h 4.7349 v -1.214271 h 3.629089 v 14.571127 h 4.838832 V 21.285396 h 3.629166 v 1.214267 h 4.704184 c 0.04232,0.0583 0.08815,0.09999 0.129949,0.161275 0.0097,-1.01112 0.01657,-1.769509 0.01657,-2.274388 4e-5,-2.12321 -1.576155,-3.958223 -4.321393,-3.958223 z"
       id="path3" />
    <path
       style="fill:#8d5fd3;stroke-width:1.21197"
       d="m 17.353532,38.285181 c -0.186841,0 -0.476741,0.007 -0.810412,0.0333 -0.112021,0.006 -0.225183,0.0221 -0.337877,0.0333 -0.09207,0.009 -0.181438,0.0265 -0.28116,0.0421 -1.224057,0.17523 -2.507023,0.65702 -3.995376,1.85931 -1.206887,0.92963 -2.538145,2.2957 -3.926856,4.31161 l 4.475003,2.41428 c 0.810829,-0.54284 1.618391,-1.65129 2.662795,-2.41428 0.695197,-0.50655 1.646717,-0.83727 2.213883,-0.83727 0.58056,0 0.978449,0.10465 1.349118,0.31537 0.33035,0.18785 0.617739,0.42669 1.282962,1.05307 0.0036,0.003 0.02255,0.0235 0.02607,0.0269 5.59e-4,5e-4 0.0018,-5e-4 0.0023,0 0.500123,0.47355 0.879132,0.8195 1.238066,1.10516 0.359318,0.28594 0.698525,0.51415 1.117572,0.75178 1.181908,0.67246 2.496441,1.01981 4.011862,1.01981 0.378478,0 0.74408,-0.0219 1.098674,-0.0644 0.709178,-0.0861 1.372665,-0.26052 1.998871,-0.51455 0.313092,-0.12731 0.616519,-0.27356 0.912002,-0.44119 0.83959,-0.47524 1.354676,-0.90812 2.358016,-1.85693 0.345348,-0.32649 0.590222,-0.54944 0.789137,-0.71388 0.198931,-0.16466 0.353208,-0.26972 0.522171,-0.36535 0.369179,-0.20907 0.766192,-0.31536 1.346757,-0.31536 0.58056,0 0.978448,0.10614 1.349119,0.31536 0.336426,0.19137 0.616738,0.42626 1.308945,1.07923 1.000357,0.94881 1.519911,1.38169 2.358004,1.85693 0.295126,0.16797 0.596624,0.31628 0.909653,0.44336 0.939088,0.38165 1.964449,0.57645 3.099904,0.57645 0.383197,0 0.751871,-0.023 1.110482,-0.0664 0.0076,-8.9e-4 0.01564,-0.003 0.02364,-0.004 1.073646,-0.13208 2.062724,-0.45032 2.93923,-0.94865 0.594976,-0.30014 1.184761,-0.74671 1.750788,-1.24041 a 11.411787,11.454688 0 0 0 0.118154,-0.0978 c 0.09522,-0.0855 0.187756,-0.16813 0.281163,-0.25609 a 11.411787,11.454688 0 0 0 0.288252,-0.26314 c 0.0023,-0.002 0.09102,-0.11116 0.09915,-0.1211 1.585127,-1.59424 2.76673,-3.34973 2.891983,-3.52653 0.0032,-0.003 0.06519,-0.0789 0.06628,-0.0796 l -4.472656,-2.317 c 0.16822,-0.17192 -0.07932,0.0741 -0.158297,0.14943 -0.571631,0.75903 -2.128197,2.548 -2.943959,2.94549 a 3.6471282,3.6608392 0 0 1 -1.568854,0.33441 4.6742792,4.6918516 0 0 1 -1.368017,-0.26569 4.7487094,4.7665616 0 0 1 -1.715345,-1.07903 c -1.001844,-0.94879 -1.517553,-1.38028 -2.355646,-1.85691 -1.181957,-0.67079 -2.496489,-1.01967 -4.01191,-1.01967 -0.378857,0 -0.746339,0.022 -1.101037,0.0644 -1.064062,0.12937 -2.023292,0.45256 -2.910874,0.95575 -0.838097,0.47816 -1.353805,0.90812 -2.355652,1.85694 -0.690722,0.65297 -0.974886,0.88933 -1.311309,1.07907 -0.184589,0.10511 -0.377135,0.18433 -0.595413,0.23714 -0.218261,0.0538 -0.461801,0.0774 -0.751345,0.0774 -0.580559,0 -0.979937,-0.103 -1.349119,-0.31546 -0.336425,-0.18966 -0.618227,-0.42604 -1.308948,-1.07902 -1.001846,-0.94878 -1.519912,-1.38028 -2.357999,-1.85692 -1.181976,-0.67105 -2.496502,-1.01982 -4.01192,-1.01982 z"
       id="path4" />
    <path
       style="fill:#2d3d53;stroke-width:1.21197;fill-opacity:1"
       d="m 30.079187,15.214071 c -1.698181,0 -3.464903,1.097026 -3.837062,2.91709 -0.04377,0.173244 -0.06845,0.354318 -0.06845,0.547835 v 0.05454 c -9.96e-4,0.03626 -0.01146,0.06776 -0.01146,0.104405 v 2.606406 c 0.0323,-0.05653 0.07015,-0.1049 0.104016,-0.158901 h 4.734893 v -1.214257 h 3.629151 v 14.571132 h 4.838871 V 20.071134 h 3.629151 v 1.214264 h 4.704196 c 0.04234,0.0583 0.08815,0.100004 0.129938,0.161265 0.0097,-1.011115 0.01657,-1.76949 0.01657,-2.274365 -4.85e-4,-2.123224 -1.576687,-3.958227 -4.321919,-3.958227 z"
       id="path5" />
    <path
       style="fill:#2d3d53;fill-rule:evenodd;stroke-width:1.21197;fill-opacity:1"
       d="m 17.698126,30.948218 v -0.0036 l -0.0083,-10.87314 h -2.415472 v -4.857407 h 2.964123 c 3.872061,0 4.294788,2.980934 4.294788,4.039085 v 10.529339 l -9.96e-4,0.0052 h 8.468764 v 4.854156 H 21.65828 c -0.01689,0 -0.03371,-0.002 -0.0501,-0.006 -2.330353,-0.0868 -3.904561,-1.31243 -3.909838,-3.676329 l -0.0075,-0.0086 z"
       id="path6" />
  </g>
</svg>
