<?xml version="1.0" encoding="UTF-8" standalone="no"?>
<svg
   width="64"
   height="64"
   version="1"
   id="svg7"
   sodipodi:docname="lazarus.svg"
   inkscape:version="1.4 (unknown)"
   xmlns:inkscape="http://www.inkscape.org/namespaces/inkscape"
   xmlns:sodipodi="http://sodipodi.sourceforge.net/DTD/sodipodi-0.dtd"
   xmlns:xlink="http://www.w3.org/1999/xlink"
   xmlns="http://www.w3.org/2000/svg"
   xmlns:svg="http://www.w3.org/2000/svg">
  <defs
     id="defs7">
    <linearGradient
       inkscape:collect="always"
       xlink:href="#linearGradient8"
       id="linearGradient10"
       x1="31.5"
       y1="59.017544"
       x2="31.5"
       y2="4.9824562"
       gradientUnits="userSpaceOnUse"
       gradientTransform="translate(-0.5,-1)" />
    <linearGradient
       id="linearGradient8"
       inkscape:collect="always">
      <stop
         style="stop-color:#497ed0;stop-opacity:1;"
         offset="0"
         id="stop8" />
      <stop
         style="stop-color:#769edc;stop-opacity:1;"
         offset="1"
         id="stop10" />
    </linearGradient>
  </defs>
  <sodipodi:namedview
     id="namedview7"
     pagecolor="#ffffff"
     bordercolor="#000000"
     borderopacity="0.25"
     inkscape:showpageshadow="2"
     inkscape:pageopacity="0.0"
     inkscape:pagecheckerboard="0"
     inkscape:deskcolor="#d1d1d1"
     inkscape:zoom="5"
     inkscape:cx="33.4"
     inkscape:cy="8.3"
     inkscape:window-width="1920"
     inkscape:window-height="996"
     inkscape:window-x="0"
     inkscape:window-y="0"
     inkscape:window-maximized="1"
     inkscape:current-layer="svg7" />
  <g
     id="g1"
     transform="translate(1,1)">
    <rect
       style="opacity:0.2;stroke-width:0.9823"
       width="55"
       height="55.017544"
       x="3.5"
       y="3.9824562"
       rx="8.25"
       ry="8.2526312"
       id="rect1-3" />
    <rect
       style="fill:url(#linearGradient10);stroke-width:0.9823"
       width="55"
       height="55.017544"
       x="3.5"
       y="3"
       rx="8.25"
       ry="8.2526312"
       id="rect2" />
    <path
       style="opacity:0.1;fill:#ffffff;stroke-width:0.9823"
       d="M 11.748466,3 C 7.1779652,3 3.5,6.6791384 3.5,11.251097 v 0.982456 c 0,-4.5719585 3.6779652,-8.2510969 8.248466,-8.2510969 h 38.503068 c 4.5705,0 8.248466,3.6791384 8.248466,8.2510969 V 11.251097 C 58.5,6.6791384 54.822034,3 50.251534,3 Z"
       id="path4" />
  </g>
  <g
     id="g2"
     transform="matrix(1.00003,0,0,1,-67.402442,-0.499955)">
    <path
       style="opacity:0.2"
       d="m 100.76172,17.499924 c -0.21559,0 -0.175,0.840306 0.0508,1.03125 0.2542,0.214963 0.62838,0.965325 0.73828,1.484375 l 0.0859,0.40625 -0.69922,0.148438 c -1.666684,0.352556 -1.989518,1.50174 -0.91406,3.242186 0.37762,0.611132 0.37832,0.628512 0.30469,1.953124 -0.0552,0.99337 -0.0254,1.49674 0.11328,1.972658 0.21532,0.738796 0.81651,1.417712 1.44531,1.632812 0.69545,0.237898 2.58335,0.12566 3.28516,-0.19532 0.76779,-0.35118 1.76831,-1.393492 2.04687,-2.13672 0.32806,-0.87527 0.20302,-2.0823 -0.32031,-3.13671 -0.50311,-1.013662 -1.81494,-2.392584 -2.72656,-2.863281 -0.48199,-0.248866 -0.70967,-0.460871 -0.8711,-0.816406 -0.23048,-0.507624 -2.2955,-2.722656 -2.53906,-2.722656 z m -11.949218,4 c -0.0287,-0.0026 -0.05402,0.0071 -0.07812,0.03125 -0.24949,0.250298 -0.452531,1.565604 -0.429687,2.792968 0.02162,1.161568 -0.0084,1.401876 -0.238281,1.789064 -0.763882,1.28647 -0.893459,3.643188 -0.273438,4.980468 0.548196,1.182372 1.455701,1.904462 2.839844,2.25 0.966242,0.241214 1.618562,0.207344 2.527342,-0.125 2.504328,-0.915824 2.93751,-2.701332 1.140626,-4.714844 -0.728558,-0.816404 -1.066406,-1.482264 -1.066406,-2.085938 0,-0.734754 -0.269584,-1.45351 -0.722656,-1.9375 -0.407864,-0.435704 -0.430808,-0.440224 -1.210938,-0.371092 -0.43735,0.03876 -0.952944,0.1083 -1.144532,0.15624 -0.318066,0.07958 -0.368268,0.03664 -0.597656,-0.472656 -0.13818,-0.306757 -0.25219,-0.822453 -0.253906,-1.148429 -0.0024,-0.503482 -0.291129,-1.126344 -0.492188,-1.144531 z m 25.414058,2.003905 c -0.31511,-0.06238 -0.41248,0.668632 -0.16016,1.199218 0.11646,0.24478 0.1937,0.659534 0.17188,0.921876 l -0.0391,0.476562 -0.67187,0.0118 c -0.52107,0.01 -0.77208,0.0936 -1.13672,0.371094 -0.42677,0.32479 -1.07896,1.425656 -1.08203,1.828124 -6.9e-4,0.08898 -0.39768,0.954396 -0.88281,1.921876 -0.48513,0.967482 -0.92157,1.953092 -0.97266,2.1875 -0.27397,1.257038 0.48621,2.196564 2.30469,2.851562 0.76788,0.276592 1.57083,0.298438 2.4414,0.0664 1.41489,-0.37712 2.32461,-1.09071 2.875,-2.257812 0.29023,-0.615694 0.33009,-0.865472 0.32422,-1.98445 -0.008,-1.45035 -0.28184,-2.365912 -1.02344,-3.410156 -0.23149,-0.325926 -0.51476,-0.961412 -0.6289,-1.410156 -0.23366,-0.918526 -1.21782,-2.713676 -1.51954,-2.773438 z m -32.667964,10 c -0.03254,-0.0076 -0.05656,-0.0034 -0.07422,0.0156 -0.261213,0.280536 0.131848,3.003152 0.527344,3.652344 0.0971,0.15938 0.233998,0.703738 0.308594,1.20703 0.338317,2.28265 1.930645,4.415146 3.738281,5.007812 0.617506,0.20246 1.957783,0.12754 2.824219,-0.15626 0.71658,-0.234704 0.955726,-0.396002 1.496092,-1.003906 1.12143,-1.261598 1.326478,-2.509242 0.57422,-3.51953 -0.19912,-0.267488 -0.808228,-0.76628 -1.351564,-1.10934 -0.543343,-0.342992 -1.490249,-0.976176 -2.101562,-1.40625 -1.790651,-1.25977 -1.979141,-1.376486 -2.472656,-1.523438 -0.626449,-0.18652 -1.264115,0.01236 -1.785156,0.554688 l -0.410154,0.421876 -0.253906,-0.44922 c -0.141363,-0.249046 -0.257564,-0.578574 -0.257813,-0.730468 -4.61e-4,-0.272588 -0.53396,-0.908054 -0.761719,-0.960938 z m 22.847654,1.996094 c -0.78658,0.0038 -1.69472,0.1301 -2.74219,0.382812 -2.960228,0.714184 -4.359396,1.565184 -4.996088,3.035156 -0.275682,0.63644 -0.297602,0.855894 -0.222656,2.07422 0.07622,1.238638 0.05598,1.416964 -0.234376,2.035156 -0.295054,0.628186 -0.635806,0.982474 -2.199218,2.296874 -0.49644,0.417374 -0.541876,0.515234 -0.597658,1.281254 -0.05194,0.71331 -3.4e-5,0.94797 0.359376,1.71093 0.76754,1.62957 2.152492,2.7228 3.886718,3.0625 0.820972,0.16076 1.363746,0.16092 2.773442,0.004 5.47964,-0.61073 11.77849,-2.58538 13.57812,-4.25781 0.94089,-0.87439 1.31594,-1.680578 1.37891,-2.960936 0.12016,-2.444362 -0.98078,-3.909846 -2.94531,-3.917968 -1.53791,-0.0062 -3.08444,-0.900004 -3.71876,-2.148438 -0.46977,-0.924574 -1.42205,-1.84695 -2.3125,-2.23828 -0.55654,-0.244636 -1.22122,-0.36336 -2.00781,-0.359376 z"
       id="path3" />
    <path
       style="fill:#2f3a51;fill-opacity:1"
       d="m 100.76172,16.499955 c -0.21559,0 -0.175,0.840306 0.0508,1.03125 0.2542,0.214963 0.62838,0.965325 0.73828,1.484375 l 0.0859,0.40625 -0.69922,0.148438 c -1.666686,0.352555 -1.98952,1.50174 -0.91406,3.242187 0.37762,0.611132 0.37831,0.628512 0.30469,1.953124 -0.0552,0.99337 -0.0254,1.49674 0.11328,1.972658 0.21532,0.738796 0.81651,1.417712 1.44531,1.632812 0.69545,0.237898 2.58335,0.12566 3.28516,-0.19532 0.76779,-0.35118 1.7683,-1.393492 2.04687,-2.13672 0.32806,-0.87527 0.20302,-2.0823 -0.32031,-3.13671 -0.50311,-1.013663 -1.81494,-2.392584 -2.72656,-2.863282 -0.48199,-0.248866 -0.70967,-0.46087 -0.8711,-0.816406 -0.23048,-0.507623 -2.2955,-2.722656 -2.53906,-2.722656 z m -11.949218,4 c -0.0287,-0.0026 -0.05403,0.0071 -0.07812,0.03125 -0.249491,0.250298 -0.452532,1.565602 -0.429688,2.792968 0.02162,1.161568 -0.0084,1.401876 -0.238281,1.789064 -0.763882,1.28647 -0.893459,3.643188 -0.273438,4.980468 0.548196,1.182372 1.455702,1.904462 2.839845,2.25 0.966242,0.241214 1.618562,0.207344 2.527342,-0.125 2.504328,-0.915824 2.93751,-2.701332 1.140626,-4.714844 -0.728558,-0.816404 -1.066406,-1.482264 -1.066406,-2.085938 0,-0.734754 -0.269584,-1.45351 -0.722656,-1.9375 -0.407864,-0.435704 -0.430808,-0.440224 -1.210938,-0.371092 -0.43735,0.03876 -0.952944,0.1083 -1.144532,0.15624 -0.318066,0.07958 -0.368268,0.03664 -0.597656,-0.472656 -0.13818,-0.306758 -0.25219,-0.822453 -0.253906,-1.148429 -0.0024,-0.503482 -0.291133,-1.126343 -0.492192,-1.144531 z m 25.414058,2.003906 c -0.31511,-0.06238 -0.41248,0.668632 -0.16016,1.199218 0.11646,0.24478 0.1937,0.659534 0.17188,0.921876 l -0.0391,0.476562 -0.67187,0.0118 c -0.52107,0.01 -0.77208,0.0936 -1.13672,0.371094 -0.42677,0.32479 -1.07896,1.425656 -1.08203,1.828124 -6.9e-4,0.08898 -0.39768,0.954396 -0.88281,1.921876 -0.48513,0.967482 -0.92157,1.953092 -0.97266,2.1875 -0.27397,1.257038 0.48621,2.196564 2.30469,2.851562 0.76788,0.276592 1.57083,0.298438 2.4414,0.0664 1.41489,-0.37712 2.32461,-1.09071 2.875,-2.257812 0.29023,-0.615694 0.33009,-0.865472 0.32422,-1.98445 -0.008,-1.45035 -0.28184,-2.365912 -1.02344,-3.410156 -0.23149,-0.325926 -0.51476,-0.961412 -0.6289,-1.410156 -0.23366,-0.918526 -1.21782,-2.713676 -1.51954,-2.773438 z m -32.667964,10 c -0.03254,-0.0076 -0.05656,-0.0034 -0.07422,0.0156 -0.261213,0.280536 0.131848,3.003152 0.527344,3.652344 0.0971,0.15938 0.233998,0.703738 0.308594,1.20703 0.338317,2.28265 1.930645,4.415146 3.738281,5.007812 0.617506,0.20246 1.957783,0.12754 2.824219,-0.15626 0.71658,-0.234704 0.955726,-0.396002 1.496092,-1.003906 1.12143,-1.261598 1.326478,-2.509242 0.57422,-3.51953 -0.19912,-0.267488 -0.808228,-0.76628 -1.351564,-1.10934 -0.543343,-0.342992 -1.490249,-0.976176 -2.101562,-1.40625 -1.790651,-1.25977 -1.979141,-1.376486 -2.472656,-1.523438 -0.626449,-0.18652 -1.264115,0.01236 -1.785156,0.554688 l -0.410156,0.421876 -0.253906,-0.44922 c -0.141363,-0.249046 -0.257564,-0.578574 -0.257813,-0.730468 -4.61e-4,-0.272588 -0.53396,-0.908054 -0.761719,-0.960938 z m 22.847654,1.996094 c -0.78658,0.0038 -1.69472,0.1301 -2.74219,0.382812 -2.960228,0.714184 -4.359396,1.565184 -4.996088,3.035156 -0.275682,0.63644 -0.297602,0.855894 -0.222656,2.07422 0.07622,1.238638 0.05598,1.416964 -0.234376,2.035156 -0.295054,0.628186 -0.635806,0.982474 -2.199218,2.296874 -0.49644,0.417372 -0.541876,0.51523 -0.597658,1.281252 -0.05194,0.71331 -3.4e-5,0.94797 0.359376,1.71094 0.76754,1.62956 2.152492,2.7228 3.886718,3.0625 0.820972,0.16076 1.363746,0.16092 2.773442,0.004 5.47964,-0.61073 11.77849,-2.58539 13.57812,-4.25782 0.94089,-0.874388 1.31594,-1.680576 1.37891,-2.960934 0.12016,-2.444362 -0.98078,-3.909846 -2.94531,-3.917968 -1.53791,-0.0062 -3.08444,-0.900004 -3.71876,-2.148438 -0.46977,-0.924574 -1.42205,-1.84695 -2.3125,-2.23828 -0.55654,-0.24473 -1.22122,-0.363454 -2.00781,-0.35947 z"
       id="path4-3" />
  </g>
</svg>
