<?xml version="1.0" encoding="UTF-8" standalone="no"?>
<svg
   width="64"
   height="64"
   version="1"
   id="svg11"
   sodipodi:docname="lazpaint.svg"
   inkscape:version="1.4 (unknown)"
   xmlns:inkscape="http://www.inkscape.org/namespaces/inkscape"
   xmlns:sodipodi="http://sodipodi.sourceforge.net/DTD/sodipodi-0.dtd"
   xmlns:xlink="http://www.w3.org/1999/xlink"
   xmlns="http://www.w3.org/2000/svg"
   xmlns:svg="http://www.w3.org/2000/svg">
  <defs
     id="defs11">
    <linearGradient
       id="linearGradient26"
       inkscape:collect="always">
      <stop
         style="stop-color:#566c80;stop-opacity:1;"
         offset="0"
         id="stop26" />
      <stop
         style="stop-color:#34424e;stop-opacity:1;"
         offset="1"
         id="stop27" />
    </linearGradient>
    <linearGradient
       id="linearGradient11"
       inkscape:collect="always">
      <stop
         style="stop-color:#c2cbd6;stop-opacity:1;"
         offset="0"
         id="stop24" />
      <stop
         style="stop-color:#86a1ac;stop-opacity:1;"
         offset="1"
         id="stop25" />
    </linearGradient>
    <linearGradient
       id="paint0_linear_132_22"
       x1="4"
       y1="4"
       x2="59.9986"
       y2="60.379799"
       gradientUnits="userSpaceOnUse"
       gradientTransform="translate(-1e-7,60.000044)">
      <stop
         offset="0.186267"
         stop-color="#EFF2F6"
         id="stop8" />
      <stop
         offset="0.774054"
         stop-color="#B7C6CD"
         id="stop9" />
    </linearGradient>
    <linearGradient
       id="paint1_linear_132_22"
       x1="17"
       y1="14"
       x2="26.8361"
       y2="22.196699"
       gradientUnits="userSpaceOnUse"
       gradientTransform="translate(-1e-7,60.000044)">
      <stop
         offset="0.268133"
         stop-color="#F15700"
         id="stop10" />
      <stop
         offset="0.700195"
         stop-color="#FF0000"
         id="stop11" />
    </linearGradient>
    <linearGradient
       id="paint2_linear_132_22"
       x1="32"
       y1="51"
       x2="22"
       y2="41"
       gradientUnits="userSpaceOnUse"
       gradientTransform="translate(-1e-7,60.000044)">
      <stop
         offset="0.29783"
         stop-color="#FF7E07"
         id="stop12" />
      <stop
         offset="0.909465"
         stop-color="#FFE607"
         id="stop13" />
    </linearGradient>
    <linearGradient
       id="paint3_linear_132_22"
       x1="46"
       y1="23"
       x2="36"
       y2="13"
       gradientUnits="userSpaceOnUse"
       gradientTransform="translate(-1e-7,60.000044)">
      <stop
         offset="0.334156"
         stop-color="#089953"
         id="stop14" />
      <stop
         offset="0.842157"
         stop-color="#16D96F"
         id="stop15" />
    </linearGradient>
    <linearGradient
       id="paint4_linear_132_22"
       x1="21"
       y1="40"
       x2="11"
       y2="30"
       gradientUnits="userSpaceOnUse"
       gradientTransform="translate(-1e-7,60.000044)">
      <stop
         offset="0.314502"
         stop-color="#5200FF"
         id="stop16" />
      <stop
         offset="0.885503"
         stop-color="#0085FF"
         id="stop17" />
    </linearGradient>
    <linearGradient
       id="paint5_linear_132_22"
       x1="47.577999"
       y1="43.584301"
       x2="43.584099"
       y2="47.578098"
       gradientUnits="userSpaceOnUse"
       gradientTransform="translate(-1e-7,60.000044)">
      <stop
         stop-color="#2E2E41"
         id="stop18" />
      <stop
         offset="1"
         stop-color="#566C80"
         id="stop19" />
    </linearGradient>
    <linearGradient
       id="paint6_linear_132_22"
       x1="24"
       y1="24"
       x2="38.556301"
       y2="38.5564"
       gradientUnits="userSpaceOnUse"
       gradientTransform="translate(-1e-7,60.000044)">
      <stop
         stop-color="white"
         id="stop20" />
      <stop
         offset="0.705"
         stop-color="#EAEFEF"
         id="stop21" />
    </linearGradient>
    <linearGradient
       id="paint7_linear_132_22"
       x1="32.407001"
       y1="33.527802"
       x2="26.0683"
       y2="27.189199"
       gradientUnits="userSpaceOnUse"
       gradientTransform="translate(-1e-7,60.000044)">
      <stop
         offset="0.388464"
         stop-color="#71706E"
         id="stop22" />
      <stop
         offset="1"
         stop-color="#B9AA99"
         id="stop23" />
    </linearGradient>
    <linearGradient
       inkscape:collect="always"
       xlink:href="#linearGradient11"
       id="linearGradient25"
       x1="11.6543"
       y1="72.818153"
       x2="59.999989"
       y2="116.83829"
       gradientUnits="userSpaceOnUse" />
    <linearGradient
       inkscape:collect="always"
       xlink:href="#linearGradient26"
       id="linearGradient27"
       x1="45.911377"
       y1="110.14751"
       x2="50.151989"
       y2="105.91593"
       gradientUnits="userSpaceOnUse" />
  </defs>
  <sodipodi:namedview
     id="namedview11"
     pagecolor="#ffffff"
     bordercolor="#000000"
     borderopacity="0.25"
     inkscape:showpageshadow="2"
     inkscape:pageopacity="0.0"
     inkscape:pagecheckerboard="0"
     inkscape:deskcolor="#d1d1d1"
     inkscape:zoom="6.0390625"
     inkscape:cx="69.38163"
     inkscape:cy="36.51229"
     inkscape:window-width="1920"
     inkscape:window-height="996"
     inkscape:window-x="0"
     inkscape:window-y="0"
     inkscape:window-maximized="1"
     inkscape:current-layer="svg11" />
  <g
     id="g11"
     transform="translate(5.1745708e-6,-60.000007)">
    <path
       d="m 55.347,92.000044 c 2.7803,0 5.0797,-2.2562 4.5858,-4.9737 -0.8488,-4.6703 -2.8846,-9.0785 -5.9507,-12.7893 -4.1375,-5.00754 -9.8952,-8.43521 -16.2919,-9.69899 -6.3967,-1.26378 -13.0367,-0.28549 -18.7886,2.76819 -5.7519,3.0537 -10.2598401,7.9938 -12.7557201,13.9786 -2.49587,5.9849 -2.82524,12.6441 -0.932,18.843096 1.89325,6.199 5.8919201,11.5542 11.3148201,15.1532 5.4229,3.5989 11.9344,5.2189 18.425,4.584 4.8098,-0.4705 9.3877,-2.1578 13.3128,-4.8641 2.2838,-1.5747 2.2641,-4.785 0.2982,-6.7376 l -7.7805,-7.7279 c -3.1713,-3.149796 -0.9253,-8.535496 3.5595,-8.535496 z"
       id="path1-6"
       style="fill:url(#linearGradient25)" />
    <path
       d="m 27,78.761944 c 0,2.6299 -3.5321,5.2381 -5.8333,5.2381 -2.3012,0 -4.1667,-2.6082 -4.1667,-5.2381 0,-2.6299 1.8655,-4.7619 4.1667,-4.7619 2.3012,0 5.8333,2.132 5.8333,4.7619 z"
       id="path2-7"
       style="fill:url(#paint1_linear_132_22)" />
    <path
       d="m 32,106.35714 c 0,3.3532 -1.7535,4.6429 -4.6875,4.6429 -2.934,0 -5.3125,-0.9326 -5.3125,-4.2857 0,-3.3532 2.066,-5.7143 5,-5.7143 2.934,0 5,2.004 5,5.3571 z"
       id="path3-5"
       style="fill:url(#paint2_linear_132_22)" />
    <path
       d="m 46,77.615444 c 0,2.549 -2.3089,5.3846 -4.7101,5.3846 -2.4013,0 -5.2899,-2.8356 -5.2899,-5.3846 0,-2.549 2.5263,-4.6154 4.9275,-4.6154 2.4013,0 5.0725,2.0664 5.0725,4.6154 z"
       id="path4-3"
       style="fill:url(#paint3_linear_132_22)" />
    <path
       id="path5-5"
       style="fill:url(#paint4_linear_132_22)" />
    <path
       d="m 33,97.236144 4.2361,-4.2361 21.8866,21.886596 c 1.1697,1.1697 1.1697,3.0663 0,4.2361 -1.1698,1.1697 -3.0664,1.1697 -4.2361,0 z"
       id="path6-6"
       style="fill:url(#linearGradient27)" />
    <path
       d="m 34.3137,98.556344 4.2427,-4.2426 -3.5356,-3.5355 -4.2426,4.2426 z"
       id="path7-2"
       style="fill:url(#paint6_linear_132_22)" />
    <path
       d="m 24.5835,87.104944 2.5214,-2.5214 c 0.8333,-0.8334 2.204,-0.765 2.9503,0.1471 l 4.9448,6.0436 -4.2258,4.2258 -6.0436,-4.9448 c -0.9121,-0.7463 -0.9805,-2.117 -0.1471,-2.9503 z"
       id="path8-9"
       style="fill:url(#paint7_linear_132_22)" />
  </g>
</svg>
