<?xml version="1.0" encoding="UTF-8" standalone="no"?>
<svg
   width="62"
   height="62"
   version="1"
   id="svg5"
   sodipodi:docname="lbry.svg"
   inkscape:version="1.4 (unknown)"
   xmlns:inkscape="http://www.inkscape.org/namespaces/inkscape"
   xmlns:sodipodi="http://sodipodi.sourceforge.net/DTD/sodipodi-0.dtd"
   xmlns="http://www.w3.org/2000/svg"
   xmlns:svg="http://www.w3.org/2000/svg">
  <defs
     id="defs5" />
  <sodipodi:namedview
     id="namedview5"
     pagecolor="#ffffff"
     bordercolor="#000000"
     borderopacity="0.25"
     inkscape:showpageshadow="2"
     inkscape:pageopacity="0.0"
     inkscape:pagecheckerboard="0"
     inkscape:deskcolor="#d1d1d1"
     inkscape:zoom="7.0710678"
     inkscape:cx="17.74838"
     inkscape:cy="48.295393"
     inkscape:window-width="1920"
     inkscape:window-height="996"
     inkscape:window-x="0"
     inkscape:window-y="0"
     inkscape:window-maximized="1"
     inkscape:current-layer="svg5" />
  <g
     id="g5"
     transform="matrix(0.96774194,0,0,1.1059762,-0.93548257,-5.8470712)">
    <path
       style="opacity:0.2;stroke-width:1.03331"
       d="m 32.668989,9.0340687 c -1.277074,0.052048 -2.5208,0.4017888 -3.640883,1.0176703 L 6.3068995,22.449533 c -2.6413059,1.442754 -4.3033294,4.237844 -4.3068978,7.248878 a 6.2006153,6.2035578 0 0 0 0,0.008 v 10.33823 c 5.056e-4,3.226436 1.9083666,6.191387 4.8437462,7.52752 L 29.577066,57.910464 a 6.2006153,6.2035578 0 0 0 0.0042,0 c 1.088222,0.49469 2.255387,0.723456 3.418879,0.722868 1.163492,5.88e-4 2.33076,-0.228178 3.418877,-0.722868 a 6.2006153,6.2035578 0 0 1 0.0042,0 L 59.156421,47.57222 c 2.935184,-1.336118 4.843045,-4.301069 4.843548,-7.527504 V 29.706487 a 6.2006153,6.2035578 0 0 0 0,-0.008 c -0.0036,-3.01103 -1.665574,-5.806122 -4.306882,-7.248876 L 36.971849,10.051739 C 35.851768,9.4358575 34.608043,9.0861126 33.330966,9.0340687 a 6.2006153,6.2035578 0 0 0 -0.0323,0 c -0.09996,-0.00358 -0.198853,0.00806 -0.298695,0.00806 -0.09984,-2.36e-5 -0.198731,-0.011677 -0.298698,-0.00806 a 6.2006153,6.2035578 0 0 0 -0.0323,0 z"
       id="path1" />
    <path
       style="fill:#e4e4e4;stroke-width:1.03331"
       d="m 32.668989,8.0007347 c -1.277074,0.052044 -2.5208,0.401789 -3.640883,1.0176698 L 6.3068995,21.416199 c -2.6413059,1.442755 -4.3033294,4.237847 -4.3068978,7.248877 a 6.2006153,6.2035578 0 0 0 0,0.008 v 10.33823 c 5.056e-4,3.226438 1.9083666,6.19139 4.8437462,7.527525 L 29.577066,56.877146 a 6.2006153,6.2035578 0 0 0 0.0042,0 c 1.088222,0.494689 2.255387,0.723455 3.418879,0.722867 1.163492,5.88e-4 2.33076,-0.228178 3.418877,-0.722867 a 6.2006153,6.2035578 0 0 1 0.0042,0 L 59.156449,46.538918 c 2.935184,-1.336118 4.843045,-4.30107 4.843548,-7.527503 V 28.67318 a 6.2006153,6.2035578 0 0 0 0,-0.008 c -0.0036,-3.011029 -1.665574,-5.806123 -4.30688,-7.248876 L 36.971849,9.0184045 C 35.851768,8.4025237 34.608043,8.0527795 33.330966,8.0007347 a 6.2006153,6.2035578 0 0 0 -0.0323,0 c -0.09996,-0.00358 -0.198853,0.00806 -0.298695,0.00808 -0.09984,-2.29e-5 -0.198731,-0.011676 -0.298698,-0.00808 a 6.2006153,6.2035578 0 0 0 -0.0323,0 z"
       id="path2" />
    <path
       style="opacity:0.1;stroke-width:1.03331"
       d="M 32.923286,15.233356 A 2.0668718,2.0668718 0 0 0 32.011047,15.48765 L 9.2777306,27.88764 a 2.0668718,2.0668718 0 0 0 -1.0777338,1.812369 v 10.333325 a 2.0668718,2.0668718 0 0 0 1.2109369,1.88099 L 32.14425,52.247648 a 2.0668718,2.0668718 0 0 0 1.969788,-0.141278 l 18.478894,-11.826812 1.420833,1.969791 1.893097,-4.210024 1.8931,-4.205986 -4.58945,0.464192 -4.589451,0.464195 1.554036,2.159504 L 32.830449,48.021479 12.333327,38.701306 V 30.927092 L 33.040343,19.63309 49.565592,27.895712 32.814299,39.117061 17.334496,31.956388 15.59882,35.710291 32.132142,43.355338 A 2.0668718,2.0668718 0 0 0 34.15037,43.19792 L 54.81702,29.348842 a 2.0668718,2.0668718 0 0 0 -0.226041,-3.56419 L 33.924329,15.451328 a 2.0668718,2.0668718 0 0 0 -1.001043,-0.217972 z"
       id="path3" />
    <path
       style="fill:#2d3d53;stroke-width:1.03331;fill-opacity:1"
       d="m 32.923286,14.200022 a 2.0668718,2.0668718 0 0 0 -0.912239,0.254295 L 9.2777306,26.854309 A 2.0668718,2.0668718 0 0 0 8.1999968,28.666678 V 39.000003 A 2.0668718,2.0668718 0 0 0 9.4109337,40.88099 L 32.14425,51.214318 a 2.0668718,2.0668718 0 0 0 1.969788,-0.141279 l 18.478894,-11.826815 1.420833,1.96979 1.893097,-4.210023 1.8931,-4.205984 -4.58945,0.464192 -4.589451,0.464191 1.554036,2.159507 L 32.830449,46.988146 12.333327,37.667974 V 29.893761 L 33.040343,18.599756 49.565592,26.862381 32.814299,38.083729 17.334496,30.923054 15.59882,34.676958 32.132142,42.322005 A 2.0668718,2.0668718 0 0 0 34.15037,42.164588 L 54.81702,28.315509 A 2.0668718,2.0668718 0 0 0 54.590979,24.75132 L 33.924329,14.417995 a 2.0668718,2.0668718 0 0 0 -1.001043,-0.217973 z"
       id="path4" />
    <path
       style="opacity:0.2;fill:#ffffff;stroke-width:1.03331"
       d="m 32.668989,8.0000224 c -1.277075,0.052044 -2.5208,0.4013059 -3.640883,1.0171866 L 6.306898,21.4172 C 3.6655923,22.859954 2.0035684,25.655643 2,28.666676 a 6.2006153,6.2035578 0 0 0 0,0.008 v 1.025271 c 0.00355,-3.01103 1.6655923,-5.80672 4.306898,-7.249474 L 29.028106,10.050542 c 1.120083,-0.6158811 2.363808,-0.9651423 3.640883,-1.017187 a 6.2006153,6.2035578 0 0 1 0.03229,0 c 0.09996,-0.00359 0.198856,0.00805 0.298698,0.00807 0.09984,-2.08e-5 0.198742,-0.011669 0.298695,-0.00807 a 6.2006153,6.2035578 0 0 1 0.03229,0 c 1.277077,0.052044 2.520801,0.4013059 3.640882,1.017187 l 22.721218,12.39999 c 2.641306,1.442753 4.303385,4.238446 4.306898,7.249475 v -1.025259 a 6.2006153,6.2035578 0 0 0 0,-0.008 c -0.0036,-3.011017 -1.665592,-5.806708 -4.306898,-7.24946 L 36.971849,9.017209 C 35.851768,8.4013283 34.608044,8.0520668 33.330966,8.0000224 a 6.2006153,6.2035578 0 0 0 -0.03229,0 c -0.09995,-0.00358 -0.198853,0.00805 -0.298695,0.00807 -0.09984,-2e-5 -0.198733,-0.011668 -0.2987,-0.00807 a 6.2006153,6.2035578 0 0 0 -0.03229,0 z"
       id="path5" />
  </g>
</svg>
