<?xml version="1.0" encoding="UTF-8" standalone="no"?>
<svg
   width="62"
   height="62"
   version="1.1"
   id="svg9"
   sodipodi:docname="league-of-legends.svg"
   inkscape:version="1.4 (unknown)"
   xmlns:inkscape="http://www.inkscape.org/namespaces/inkscape"
   xmlns:sodipodi="http://sodipodi.sourceforge.net/DTD/sodipodi-0.dtd"
   xmlns="http://www.w3.org/2000/svg"
   xmlns:svg="http://www.w3.org/2000/svg">
  <defs
     id="defs9">
    <linearGradient
       id="_lgradient_33"
       x1="0"
       y1="0.5"
       x2="1"
       y2="0.5"
       gradientTransform="matrix(47.999999,0,0,42.626666,83.525437,31.023237)"
       gradientUnits="userSpaceOnUse">
      <stop
         offset="0%"
         stop-opacity="1"
         style="stop-color:rgb(24,208,173)"
         id="stop1" />
      <stop
         offset="90.44964029999998%"
         stop-opacity="1"
         style="stop-color:rgb(7,195,242)"
         id="stop2" />
    </linearGradient>
    <linearGradient
       id="_lgradient_34"
       x1="0"
       y1="0.5"
       x2="1"
       y2="0.5"
       gradientTransform="matrix(52.266665,0,0,61.333332,86.725437,24.23657)"
       gradientUnits="userSpaceOnUse">
      <stop
         offset="0%"
         stop-opacity="1"
         style="stop-color:rgb(247,242,6)"
         id="stop3" />
      <stop
         offset="97.82608695652173%"
         stop-opacity="1"
         style="stop-color:rgb(255,187,36)"
         id="stop4" />
    </linearGradient>
  </defs>
  <sodipodi:namedview
     id="namedview9"
     pagecolor="#ffffff"
     bordercolor="#000000"
     borderopacity="0.25"
     inkscape:showpageshadow="2"
     inkscape:pageopacity="0.0"
     inkscape:pagecheckerboard="0"
     inkscape:deskcolor="#d1d1d1"
     inkscape:zoom="4.270262"
     inkscape:cx="48.591866"
     inkscape:cy="57.25644"
     inkscape:window-width="1920"
     inkscape:window-height="996"
     inkscape:window-x="0"
     inkscape:window-y="0"
     inkscape:window-maximized="1"
     inkscape:current-layer="svg9" />
  <g
     id="g2"
     transform="matrix(0.99520643,0,0,1.0000907,0.5184341,-0.00303772)">
    <g
       id="g1">
      <g
         id="g9"
         transform="matrix(0.98571195,0,0,0.99596921,-15.856021,51.478058)">
        <path
           style="opacity:0.2;stroke-width:1.30527"
           d="M 47.158209,-44.631508 A 24.99995,24.60257 0 0 0 22.158259,-20.028942 24.99995,24.60257 0 0 0 47.158209,4.573624 24.99995,24.60257 0 0 0 72.158151,-20.028942 24.99995,24.60257 0 0 0 47.158209,-44.631508 Z"
           id="path3" />
        <path
           style="fill:#2d3d53;fill-opacity:1;stroke:#00a7a1;stroke-width:3.005;stroke-dasharray:none;stroke-opacity:1"
           d="m 47.158209,-45.926376 a 24.99995,24.60257 0 0 0 -24.99995,24.60257 24.99995,24.60257 0 0 0 24.99995,24.6025584 24.99995,24.60257 0 0 0 24.999942,-24.6025584 24.99995,24.60257 0 0 0 -24.999942,-24.60257 z"
           id="path4" />
      </g>
      <g
         id="g10"
         transform="translate(11.339768,69.352483)">
        <path
           style="opacity:0.2;stroke-width:0.945902"
           d="m 2.1300614,-63.654213 c -3.0880888,0.0012 -4.6343269,3.686147 -2.451478,5.84229 l 2.7973754,3.560637 v 30.526084 3.146189 l -2.7973754,3.560635 c -2.1828459,2.156153 -0.63660888,5.841097 2.451478,5.842292 H 15.044325 32.932623 c 1.091732,-2.31e-4 2.11961,-0.507944 2.774268,-1.370332 l 4.261959,-6.502114 c 1.711911,-2.256294 0.08152,-5.246067 -2.774276,-5.247088 h -18.4869 v -35.936109 c -1.95e-4,-1.890102 -1.462425,-3.422293 -3.377273,-3.422484 z"
           id="path6" />
        <path
           style="fill:#2d3d53;fill-opacity:1;stroke:#ffcc00;stroke-width:3.52233;stroke-dasharray:none;stroke-opacity:1"
           d="m 2.1300614,-64.591318 c -3.0880888,0.0012 -4.6343269,3.686139 -2.451478,5.84229 l 2.7973754,3.56063 v 30.526084 3.146195 l -2.7973754,3.56063 c -2.1828459,2.156152 -0.63660888,5.841097 2.451478,5.842293 H 15.044325 32.932623 c 1.091732,-2.3e-4 2.11961,-0.50794 2.774268,-1.370328 l 4.261959,-6.502112 c 1.711911,-2.256295 0.08152,-5.246069 -2.774276,-5.24709 h -18.4869 v -35.936107 c -1.95e-4,-1.89011 -1.462425,-3.4223 -3.377273,-3.422485 z"
           id="path8" />
        <path
           style="opacity:0.2;fill:#ffffff;stroke-width:0.945902"
           d="m 2.1292053,-64.591318 c -2.27180366,8.73e-4 -3.7010461,1.994816 -3.4330941,3.907665 0.2243898,-1.57451 1.53422719,-2.969826 3.4330941,-2.97056 H 15.330116 c 1.914844,1.91e-4 3.376955,1.532536 3.377148,3.422647 v -0.937105 c -1.93e-4,-1.890112 -1.462304,-3.422462 -3.377148,-3.422647 z m 16.5780587,39.358592 v 0.937106 h 18.487614 c 1.861412,6.66e-4 3.195363,1.272607 3.429361,2.782043 0.28647,-1.88063 -1.191059,-3.718354 -3.429361,-3.719149 z m -16.2312063,3.717325 -2.79719837,3.559911 c -0.84061293,0.830339 -1.12327983,1.885643 -0.98274813,2.871728 0.096279,-0.687304 0.40574882,-1.364675 0.98274813,-1.934617 l 2.79719837,-3.559916 z"
           id="path9" />
      </g>
    </g>
  </g>
</svg>
