<?xml version="1.0" encoding="UTF-8" standalone="no"?>
<svg
   width="62"
   height="62"
   version="1.1"
   id="svg7"
   sodipodi:docname="libation.svg"
   inkscape:version="1.4 (unknown)"
   xmlns:inkscape="http://www.inkscape.org/namespaces/inkscape"
   xmlns:sodipodi="http://sodipodi.sourceforge.net/DTD/sodipodi-0.dtd"
   xmlns:xlink="http://www.w3.org/1999/xlink"
   xmlns="http://www.w3.org/2000/svg"
   xmlns:svg="http://www.w3.org/2000/svg">
  <defs
     id="defs7">
    <linearGradient
       id="linearGradient7"
       inkscape:collect="always">
      <stop
         style="stop-color:#2e3b52;stop-opacity:1;"
         offset="0"
         id="stop7" />
      <stop
         style="stop-color:#405272;stop-opacity:1;"
         offset="1"
         id="stop8" />
    </linearGradient>
    <linearGradient
       inkscape:collect="always"
       xlink:href="#linearGradient7"
       id="linearGradient8"
       x1="32"
       y1="60"
       x2="32"
       y2="5"
       gradientUnits="userSpaceOnUse" />
  </defs>
  <sodipodi:namedview
     id="namedview7"
     pagecolor="#ffffff"
     bordercolor="#000000"
     borderopacity="0.25"
     inkscape:showpageshadow="2"
     inkscape:pageopacity="0.0"
     inkscape:pagecheckerboard="0"
     inkscape:deskcolor="#d1d1d1"
     inkscape:zoom="7.0710678"
     inkscape:cx="18.314066"
     inkscape:cy="30.334881"
     inkscape:window-width="1920"
     inkscape:window-height="996"
     inkscape:window-x="0"
     inkscape:window-y="0"
     inkscape:window-maximized="1"
     inkscape:current-layer="svg7" />
  <g
     id="g7"
     transform="matrix(0.98214286,0,0,0.98245614,-0.42857152,-0.92982456)">
    <circle
       cx="32"
       cy="33"
       r="28"
       style="opacity:0.2"
       id="circle1" />
    <circle
       cx="32"
       cy="32"
       r="28"
       style="fill:url(#linearGradient8)"
       id="circle2" />
    <path
       d="M 32,4 A 28,28 0 0 0 4,32 28,28 0 0 0 4.0215,32.586 28,28 0 0 1 32,5 28,28 0 0 1 59.979,32.414 28,28 0 0 0 60,32 28,28 0 0 0 32,4 Z"
       style="opacity:0.1;fill:#ffffff"
       id="path2" />
    <path
       d="M 25,51.5 H 38.5 M 21.5,25 c 0,-6 3,-10.5 3,-10.5 h 15 c 0,0 3.044,4.5 3.044,10.5 C 42.544,37.503304 34,37.527008 32,37.5 30,37.472992 21.5,37.504063 21.5,25 Z"
       style="opacity:0.2;fill:none;stroke:#000000;stroke-width:3;stroke-linecap:round;stroke-linejoin:round"
       id="path3" />
    <path
       d="M 25,50.5 H 38.5 M 21.5,24 c 0,-6 3,-10.5 3,-10.5 h 15 c 0,0 3.044,4.5 3.044,10.5 C 42.544,36.503304 34,36.527008 32,36.5 30,36.472992 21.5,36.504063 21.5,24 Z"
       style="fill:none;stroke:#f2f2f2;stroke-width:3;stroke-linecap:round;stroke-linejoin:round;stroke-opacity:1"
       id="path4" />
    <path
       d="M 32,50 V 37"
       style="fill:none;stroke:#e4e4e4;stroke-width:4"
       id="path5" />
    <path
       d="m 25,25 h 14 c 0,9 -5,9 -7,9 -2,0 -7,0 -7,-9 z"
       style="opacity:0.2"
       id="path6" />
    <path
       d="m 25,24 h 14 c 0,9 -5,9 -7,9 -2,0 -7,0 -7,-9 z"
       style="fill:#e4e4e4"
       id="path7" />
  </g>
</svg>
