<?xml version="1.0" encoding="UTF-8" standalone="no"?>
<svg
   width="62"
   height="62"
   version="1"
   id="svg5"
   sodipodi:docname="linphone.svg"
   inkscape:version="1.4 (unknown)"
   xmlns:inkscape="http://www.inkscape.org/namespaces/inkscape"
   xmlns:sodipodi="http://sodipodi.sourceforge.net/DTD/sodipodi-0.dtd"
   xmlns:xlink="http://www.w3.org/1999/xlink"
   xmlns="http://www.w3.org/2000/svg"
   xmlns:svg="http://www.w3.org/2000/svg">
  <defs
     id="defs5">
    <linearGradient
       id="linearGradient5"
       inkscape:collect="always">
      <stop
         style="stop-color:#f57f38;stop-opacity:1;"
         offset="0"
         id="stop5" />
      <stop
         style="stop-color:#aa87de;stop-opacity:1"
         offset="1"
         id="stop6" />
    </linearGradient>
    <linearGradient
       inkscape:collect="always"
       xlink:href="#linearGradient5"
       id="linearGradient6"
       x1="40.200001"
       y1="60"
       x2="40.599998"
       y2="4.9824557"
       gradientUnits="userSpaceOnUse" />
  </defs>
  <sodipodi:namedview
     id="namedview5"
     pagecolor="#ffffff"
     bordercolor="#000000"
     borderopacity="0.25"
     inkscape:showpageshadow="2"
     inkscape:pageopacity="0.0"
     inkscape:pagecheckerboard="0"
     inkscape:deskcolor="#d1d1d1"
     inkscape:zoom="5"
     inkscape:cx="32.4"
     inkscape:cy="56.3"
     inkscape:window-width="1920"
     inkscape:window-height="996"
     inkscape:window-x="0"
     inkscape:window-y="0"
     inkscape:window-maximized="1"
     inkscape:current-layer="svg5" />
  <g
     id="g5"
     transform="translate(-0.5,-1)">
    <path
       style="opacity:0.2;stroke-width:0.982301"
       d="m 31.499935,4.9824558 c -0.767915,0 -1.523346,0.038632 -2.275035,0.09978 -6.798576,0.4836441 -12.261122,3.0013847 -17.175954,7.9095362 -4.0491665,4.043789 -6.5584372,9.033407 -7.5502029,14.257126 -0.09136,0.477398 -0.1636774,0.960836 -0.2301888,1.446821 -0.040207,0.298333 -0.084768,0.594891 -0.115095,0.894191 -0.066669,0.64188 -0.1044471,1.291209 -0.1266043,1.945719 -0.0049,0.164939 -0.013376,0.330055 -0.015341,0.495065 C 4.0075814,32.181994 4,32.337958 4,32.491223 4,47.47682 15.860882,59.57808 30.74031,59.97696 c 0.115562,0.0034 0.233524,0.01 0.349119,0.0116 C 31.228894,59.99146 31.362438,60 31.499935,60 c 0.662177,0 1.317882,-0.03504 1.968122,-0.08064 0.08156,-0.0062 0.16016,-0.0086 0.241697,-0.0153 9.824153,-0.77555 18.143386,-6.676961 22.347535,-15.04002 0,0 0.004,-0.004 0.004,-0.004 0.271952,-0.541417 0.549896,-1.081193 0.786479,-1.642544 1.287347,-2.90807 1.986816,-5.994973 2.113905,-9.22588 0.0056,-0.104372 0.0072,-0.210002 0.0116,-0.314693 0.0086,-0.308642 0.02508,-0.613628 0.02303,-0.924888 C 58.995931,32.663715 59,32.579569 59,32.491148 V 9.1080039 C 59,6.8220253 57.161024,4.9824558 54.875777,4.9824558 H 31.707138 Z"
       id="path1" />
    <path
       style="fill:url(#linearGradient6);stroke-width:0.982301"
       d="M 31.499935,4 C 30.73202,4 29.976589,4.038632 29.2249,4.0997798 22.426324,4.5834239 16.963778,7.1011646 12.048946,12.00932 7.9997795,16.053109 5.4905088,21.042728 4.4987431,26.26644 c -0.09136,0.477398 -0.1636774,0.960843 -0.2301888,1.446823 -0.040207,0.298331 -0.084767,0.594895 -0.115095,0.894189 C 4.0867903,29.24933 4.0490122,29.89866 4.026855,30.553178 4.021955,30.718109 4.013479,30.883225 4.011513,31.048244 4.0075814,31.199536 4,31.355504 4,31.508765 4,46.494361 15.860882,58.59563 30.74031,58.99451 c 0.115562,0.0034 0.233524,0.01 0.349119,0.0116 0.139465,0.0029 0.273009,0.01144 0.410506,0.01144 0.662177,0 1.317882,-0.03504 1.968122,-0.08064 0.08156,-0.0062 0.16016,-0.0086 0.241697,-0.0153 9.824153,-0.77555 18.143386,-6.676963 22.347535,-15.040021 0,0 0.004,-0.004 0.004,-0.004 0.271952,-0.54141 0.549896,-1.081186 0.786479,-1.642546 1.287347,-2.908069 1.986816,-5.994971 2.113905,-9.225872 0.0056,-0.104379 0.0072,-0.210002 0.0116,-0.314692 0.0086,-0.30865 0.02508,-0.613629 0.02303,-0.924896 C 58.995931,31.681263 59,31.597117 59,31.508697 V 8.1255476 C 58.999869,5.8395695 57.160892,4 54.875646,4 h -23.16854 z"
       id="path2" />
    <path
       style="opacity:0.2;stroke-width:0.982301"
       d="m 34.197877,16.774754 c -0.690208,0 -1.262954,0.551389 -1.269533,1.219569 -0.0042,0.671226 0.568857,1.235667 1.263954,1.239117 2.999848,0.02254 5.466396,0.970844 7.455235,2.840965 1.965459,1.85278 2.990029,4.419806 3.016152,7.769627 v 0.003 c 0.0072,0.666368 0.580304,1.21672 1.272321,1.21672 7.4e-5,0 0.0132,-0.0028 0.01396,-0.003 0.693568,-0.0064 1.269561,-0.565699 1.263943,-1.236329 v -0.003 c -0.0157,-1.95488 -0.333933,-3.750619 -0.954644,-5.330241 -0.628568,-1.596326 -1.58321,-3.008556 -2.82857,-4.18345 -2.46124,-2.314622 -5.60409,-3.510344 -9.222296,-3.535881 h -0.0112 z m -12.884899,2.888509 c -0.483996,-0.08224 -1.008287,0.0078 -1.531808,0.259533 h -0.04186 l -0.05861,0.0335 c -0.969967,0.551682 -1.879427,1.291203 -2.731334,2.218741 l -0.06696,0.07256 v 0.06698 c -0.58928,0.734999 -0.978995,1.47491 -1.068567,2.215992 -0.02861,0.125599 -0.02789,0.238832 -0.02789,0.360012 0,0.337164 0.04952,0.679808 0.153471,1.015851 l 0.02789,0.09488 0.05862,0.0335 c 0.336462,1.154656 1.099997,2.951574 2.770621,5.994706 1.112743,2.016972 2.249695,3.701703 3.378955,5.121201 0.594847,0.746039 1.268692,1.522787 2.050711,2.305193 0.0094,0.0096 0.04228,0.04296 0.07813,0.07536 0.0124,0.0124 0.02985,0.03818 0.07254,0.08099 l 0.07812,0.07814 h 0.0058 c 0.02751,0.02754 0.04612,0.0475 0.05022,0.05305 l 0.01396,0.0167 0.01395,0.01411 c 0.782059,0.773706 1.553411,1.451762 2.307439,2.042902 1.416974,1.129547 3.101013,2.275723 5.117147,3.390886 3.045819,1.680689 4.859047,2.440359 6.007169,2.771221 l 0.04184,0.05024 0.06977,0.02513 c 0.325285,0.108461 0.663775,0.15855 0.998878,0.1535 0.135926,0.0074 0.256279,-0.002 0.371091,-0.0279 0.7864,-0.09202 1.565065,-0.464402 2.335339,-1.110732 l 0.0086,-0.0112 0.0086,-0.0056 c 0.012,-0.0118 0.005,-0.0062 0.0112,-0.01416 0.007,-0.0062 0.01,-0.0134 0.0169,-0.01964 0.911779,-0.832344 1.647699,-1.737604 2.201372,-2.706972 l 0.03626,-0.0614 v -0.05861 c 0.508553,-1.059237 0.307114,-2.140552 -0.518963,-2.829966 -0.02019,-0.0173 -0.417156,-0.349224 -0.909598,-0.750712 -0.503606,-0.410466 -1.100865,-0.892962 -1.504109,-1.188921 -0.762968,-0.56454 -1.942205,-1.294782 -2.614459,-1.668902 h -0.0028 c -1.291084,-0.72321 -2.640191,-0.302918 -3.2338,0.46607 l -1.040735,1.303303 c -0.419727,0.52898 -1.258416,0.478527 -1.28069,0.477228 -7.059037,-1.816507 -8.956924,-8.916224 -8.970478,-8.96672 -0.0013,-0.02222 -0.05202,-0.862583 0.477124,-1.289355 l 1.297427,-1.038173 c 0.770645,-0.590351 1.203907,-1.939573 0.477124,-3.234494 -0.379146,-0.669469 -1.112371,-1.857882 -1.668522,-2.61502 h -0.0028 c -0.300533,-0.404928 -0.781781,-1.005734 -1.192317,-1.510073 -0.204284,-0.25207 -0.390895,-0.482728 -0.526429,-0.64737 -0.06878,-0.0823 -0.12375,-0.148727 -0.163034,-0.195297 -0.01962,-0.0233 -0.03599,-0.03966 -0.04745,-0.05303 -0.0058,-0.0068 -0.009,-0.0112 -0.01394,-0.0167 -0.359464,-0.427127 -0.817139,-0.687256 -1.321958,-0.773117 z m 12.960326,2.829958 c -0.680761,-0.04798 -1.292436,0.4622 -1.342075,1.119119 -0.04966,0.657649 0.480721,1.244188 1.160713,1.292131 1.68158,0.118852 2.816385,0.613355 3.66908,1.515398 v 0.003 c 0.870392,0.91878 1.266433,1.968048 1.233255,3.401886 v 0.0056 c -0.01469,0.659821 0.538586,1.219022 1.222097,1.23348 h 0.03066 c 0.673533,0 1.235003,-0.531806 1.249996,-1.183304 0.04609,-1.970991 -0.595748,-3.729601 -1.888953,-5.093105 -1.302331,-1.370213 -3.14286,-2.137828 -5.336963,-2.293824 z"
       id="path3" />
    <path
       style="fill:#2e3b52;stroke-width:0.982301;fill-opacity:1"
       d="m 34.197877,15.792294 c -0.690208,0 -1.262954,0.551397 -1.269533,1.219577 -0.0042,0.671219 0.568857,1.235659 1.263954,1.239117 2.999848,0.02254 5.466396,0.970836 7.455235,2.840966 1.965459,1.852773 2.990029,4.419798 3.016152,7.76962 v 0.003 c 0.0072,0.666367 0.580304,1.21672 1.272321,1.21672 7.4e-5,0 0.0132,-0.0028 0.01396,-0.003 0.693568,-0.0064 1.269561,-0.5657 1.263943,-1.236336 v -0.003 c -0.0157,-1.954884 -0.333933,-3.750626 -0.954644,-5.330247 -0.628568,-1.596323 -1.58321,-3.008558 -2.82857,-4.183452 -2.46124,-2.314614 -5.60409,-3.510334 -9.222296,-3.53588 h -0.0112 z m -12.884899,2.888509 c -0.483996,-0.08224 -1.008287,0.0078 -1.531808,0.259541 h -0.04186 l -0.05861,0.0335 c -0.969967,0.55169 -1.879427,1.291203 -2.731334,2.218743 l -0.06696,0.07256 v 0.06698 c -0.58928,0.734991 -0.978995,1.474903 -1.068567,2.215991 -0.02861,0.125592 -0.02789,0.238826 -0.02789,0.360012 0,0.337164 0.04952,0.679808 0.153471,1.015852 l 0.02789,0.09488 0.05862,0.0335 c 0.336462,1.154664 1.099997,2.951582 2.770621,5.994715 1.112743,2.016963 2.249695,3.701694 3.378955,5.1212 0.594847,0.746032 1.268692,1.522779 2.050711,2.305185 0.0094,0.0096 0.04228,0.04296 0.07813,0.07538 0.0124,0.0124 0.02985,0.03818 0.07254,0.08094 l 0.07812,0.07814 h 0.0058 c 0.02751,0.02754 0.04612,0.04754 0.05022,0.05306 l 0.01396,0.0167 0.01395,0.01416 c 0.782059,0.773698 1.553411,1.451755 2.307439,2.042901 1.416974,1.129548 3.101013,2.275716 5.117147,3.390887 3.045819,1.680682 4.859047,2.440358 6.007169,2.771212 l 0.04184,0.05024 0.06977,0.02514 c 0.325285,0.108468 0.663775,0.158548 0.998878,0.153499 0.135926,0.0074 0.256279,-0.002 0.371091,-0.0279 0.7864,-0.09201 1.565065,-0.4644 2.335339,-1.110723 l 0.0086,-0.0112 0.0086,-0.0056 c 0.012,-0.0118 0.005,-0.0062 0.0112,-0.01411 0.007,-0.0062 0.01,-0.0134 0.0169,-0.01966 0.911779,-0.832351 1.647699,-1.737604 2.201372,-2.706971 l 0.03626,-0.0614 v -0.05859 c 0.508524,-1.059254 0.307084,-2.140568 -0.518993,-2.829984 -0.0202,-0.0173 -0.417156,-0.349223 -0.909598,-0.750711 -0.503646,-0.410474 -1.100905,-0.892963 -1.504148,-1.18893 -0.762966,-0.564539 -1.942206,-1.294781 -2.61446,-1.668901 h -0.0028 c -1.291084,-0.723203 -2.640191,-0.302918 -3.2338,0.466069 l -1.040735,1.303311 c -0.419725,0.528973 -1.258416,0.47852 -1.280689,0.477224 -7.059038,-1.81651 -8.956923,-8.916227 -8.970479,-8.966719 -0.0013,-0.02222 -0.05202,-0.862582 0.477126,-1.289358 l 1.297425,-1.038167 c 0.770645,-0.590357 1.203907,-1.939581 0.477126,-3.234494 -0.379148,-0.669476 -1.112372,-1.85789 -1.668523,-2.615028 h -0.0028 c -0.300583,-0.404925 -0.781829,-1.005731 -1.192367,-1.510067 -0.204284,-0.252072 -0.390892,-0.482728 -0.526429,-0.647371 -0.06878,-0.0823 -0.12375,-0.148724 -0.163031,-0.195291 -0.01965,-0.0233 -0.03601,-0.03966 -0.04746,-0.05307 -0.0058,-0.0068 -0.009,-0.0112 -0.01395,-0.0167 C 22.272493,19.024256 21.814819,18.764127 21.31,18.678272 Z m 12.960326,2.829967 c -0.680761,-0.048 -1.292436,0.462191 -1.342075,1.119111 -0.04966,0.65765 0.480721,1.244196 1.160713,1.292131 1.68158,0.118859 2.816385,0.613363 3.66908,1.515398 v 0.003 c 0.870392,0.918772 1.266433,1.968041 1.233255,3.401885 v 0.0056 c -0.01469,0.659828 0.538586,1.21902 1.222097,1.23348 h 0.03066 c 0.673533,0 1.235003,-0.531806 1.249996,-1.183304 0.04609,-1.970991 -0.595748,-3.729602 -1.888953,-5.093105 -1.302321,-1.370183 -3.14285,-2.137792 -5.336953,-2.293794 z"
       id="path4" />
    <path
       style="opacity:0.2;fill:#ffffff;stroke-width:0.982301"
       d="M 31.499935,4 C 30.73202,4 29.976589,4.038632 29.2249,4.0997808 22.426324,4.5834251 16.963779,7.1011657 12.048946,12.009321 7.99978,16.05311 5.4905089,21.042728 4.4987432,26.26644 c -0.091361,0.477399 -0.1636796,0.960844 -0.230189,1.446824 -0.040207,0.298331 -0.08477,0.594891 -0.1150946,0.894187 -0.066669,0.641878 -0.1044474,1.291209 -0.1266044,1.945727 -0.0049,0.164931 -0.013381,0.330047 -0.015349,0.495066 C 4.0075766,31.199536 4,31.355504 4,31.508765 c 0,0.119173 0.010009,0.235822 0.017263,0.353074 0.00341,-0.108751 0.00637,-0.217537 0.00957,-0.32621 0.022154,-0.65451 0.059937,-1.30384 0.1266041,-1.94572 0.03033,-0.299302 0.074884,-0.595856 0.1150946,-0.89419 0.066512,-0.485984 0.1388335,-0.969422 0.2301921,-1.446821 0.9917809,-5.223719 3.5010524,-10.213336 7.5502182,-14.257125 4.914829,-4.9081518 10.377374,-7.4258924 17.17595,-7.9095367 0.751689,-0.061149 1.50712,-0.099781 2.275035,-0.099781 h 0.207171 23.168539 c 2.285246,0 4.124224,1.8395695 4.124224,4.1255479 V 8.1255476 C 58.999869,5.8395694 57.160891,4 54.875645,4 H 31.707106 Z"
       id="path5" />
  </g>
</svg>
