<?xml version="1.0" encoding="UTF-8" standalone="no"?>
<svg
   width="62"
   height="62"
   version="1.1"
   id="svg6"
   sodipodi:docname="liquidwar.svg"
   inkscape:version="1.4 (unknown)"
   xmlns:inkscape="http://www.inkscape.org/namespaces/inkscape"
   xmlns:sodipodi="http://sodipodi.sourceforge.net/DTD/sodipodi-0.dtd"
   xmlns="http://www.w3.org/2000/svg"
   xmlns:svg="http://www.w3.org/2000/svg">
  <defs
     id="defs6" />
  <sodipodi:namedview
     id="namedview6"
     pagecolor="#ffffff"
     bordercolor="#000000"
     borderopacity="0.25"
     inkscape:showpageshadow="2"
     inkscape:pageopacity="0.0"
     inkscape:pagecheckerboard="0"
     inkscape:deskcolor="#d1d1d1"
     inkscape:zoom="7.0710678"
     inkscape:cx="27.789297"
     inkscape:cy="41.790011"
     inkscape:window-width="1920"
     inkscape:window-height="996"
     inkscape:window-x="0"
     inkscape:window-y="0"
     inkscape:window-maximized="1"
     inkscape:current-layer="svg6" />
  <g
     id="g6"
     transform="matrix(0.98214286,0,0,0.98245614,-0.42857152,-0.92982455)">
    <circle
       style="opacity:0.2"
       cx="32"
       cy="33"
       r="28"
       id="circle1" />
    <path
       style="fill:#cccccc;fill-opacity:1"
       d="M 32,4 A 28,28 0 0 0 10.267578,14.376953 L 10,35 24,37 50,25 56.214844,18.011719 A 28,28 0 0 0 32,4 Z"
       id="path1" />
    <path
       style="fill:#436cbc;fill-opacity:1"
       d="M 10.267578,14.376953 A 28,28 0 0 0 4,32 28,28 0 0 0 6.2851562,43 H 22.199219 l 1.701172,-6.800781 C 23.900391,36.199219 22.2,31 18,31 15.2,31 15.475182,33.265407 13.800781,33.099609 12.487272,32.969546 11,31.919542 11,30.599609 c 0,-2.8 1.310607,-5.660277 2.580078,-8.199218 1.185135,-2.370271 -0.286683,-6.735822 -3.3125,-8.023438 z"
       id="path2" />
    <path
       style="fill:#c83771"
       d="m 29.466797,16.595703 c -1.472342,0.04536 -2.791406,0.60805 -3.90625,1.964844 -2.156841,2.62493 2.956767,5.899331 2.339844,9.240234 -0.847409,4.589082 -4.140672,9.334455 -8.5,11 C 17.177561,39.650045 14.779933,38 12.400391,38 8.2003906,38 8.0996094,43.199219 8.0996094,43.199219 l 19.7011716,8.40039 h 5.59961 L 59.951172,30.638672 A 28,28 0 0 0 56.214844,18.011719 c -1.844926,1.710869 -4.066271,3.407209 -6.015625,3.789062 -2.896412,0.56737 -6.702757,0.264252 -9.378907,-0.980469 -4.13875,-1.925 -8.114363,-4.324401 -11.353515,-4.224609 z"
       id="path3" />
    <path
       style="fill:#fecc34;fill-opacity:1"
       d="m 59.033203,24.748047 c -0.728923,1.617588 -1.830425,3.48384 -3.232422,3.951172 -4.2,1.4 -5.601172,-1.679297 -11.201172,-0.279297 -6.730363,1.68259 -6.685872,13.450765 -14,15.279297 -5.6,1.4 -9.80039,-2.778906 -15.40039,-1.378907 C 12.638174,42.960574 10,47.400391 10,47.400391 v 1.910156 A 28,28 0 0 0 32,60 28,28 0 0 0 60,32 28,28 0 0 0 59.033203,24.748047 Z"
       id="path4" />
    <path
       style="fill:#37c871"
       d="M 6.8007812,34.800781 C 5.9047369,34.737101 4.9639642,36.025278 4.4335938,36.875 A 28,28 0 0 0 32,60 28,28 0 0 0 50.382812,53.074219 C 49.957945,52.327458 49.403346,51.903346 49,51.5 c -0.737864,-0.737864 -1.6,-1.400391 -3,-1.400391 -8.878939,0 -7.000937,3.041016 -22.960938,3.041016 -14.8399995,0 -9.255892,-17.843621 -16.2382808,-18.339844 z"
       id="path5" />
    <path
       style="opacity:0.2;fill:#ffffff"
       d="M 32,4 A 28,28 0 0 0 4,32 28,28 0 0 0 4.0215,32.586 28,28 0 0 1 32,5 28,28 0 0 1 59.979,32.414 28,28 0 0 0 60,32 28,28 0 0 0 32,4 Z"
       id="path6" />
  </g>
</svg>
