<?xml version="1.0" encoding="UTF-8" standalone="no"?>
<svg
   width="62"
   height="62"
   version="1.1"
   id="svg5"
   sodipodi:docname="lite.svg"
   inkscape:version="1.4 (unknown)"
   xmlns:inkscape="http://www.inkscape.org/namespaces/inkscape"
   xmlns:sodipodi="http://sodipodi.sourceforge.net/DTD/sodipodi-0.dtd"
   xmlns:xlink="http://www.w3.org/1999/xlink"
   xmlns="http://www.w3.org/2000/svg"
   xmlns:svg="http://www.w3.org/2000/svg">
  <defs
     id="defs5">
    <linearGradient
       id="linearGradient8"
       inkscape:collect="always">
      <stop
         style="stop-color:#2d3d53;stop-opacity:1;"
         offset="0"
         id="stop8" />
      <stop
         style="stop-color:#354864;stop-opacity:1;"
         offset="1"
         id="stop10" />
    </linearGradient>
    <linearGradient
       id="linearGradient4217">
      <stop
         style="stop-color:#000000;stop-opacity:1;"
         offset="0"
         id="stop2" />
      <stop
         style="stop-color:#000000;stop-opacity:0;"
         offset="1"
         id="stop4" />
    </linearGradient>
    <linearGradient
       id="linearGradient4161">
      <stop
         style="stop-color:#334545;stop-opacity:1;"
         offset="0"
         id="stop7" />
      <stop
         style="stop-color:#4d6868;stop-opacity:1"
         offset="1"
         id="stop9" />
    </linearGradient>
    <linearGradient
       id="a-1-2"
       y1="510.79999"
       y2="527.14001"
       gradientUnits="userSpaceOnUse"
       x2="0">
      <stop
         stop-color="#7cbaf8"
         id="stop2-2-7" />
      <stop
         offset="1"
         stop-color="#f4fcff"
         id="stop4-70-0" />
    </linearGradient>
    <linearGradient
       id="c"
       y1="503.79999"
       x1="400.57001"
       y2="519.79999"
       x2="416.57001"
       gradientUnits="userSpaceOnUse">
      <stop
         stop-color="#292c2f"
         id="stop12" />
      <stop
         offset="1"
         stop-opacity="0"
         id="stop14" />
    </linearGradient>
    <linearGradient
       id="b"
       y1="542.79999"
       x1="408.57001"
       y2="521.79999"
       x2="387.57001"
       gradientUnits="userSpaceOnUse"
       gradientTransform="translate(-384.57,-499.8)">
      <stop
         stop-color="#197cf1"
         id="stop7-8" />
      <stop
         offset="1"
         stop-color="#20bcfa"
         id="stop9-7" />
    </linearGradient>
    <linearGradient
       xlink:href="#linearGradient1389"
       id="linearGradient4503-5-6"
       y1="37"
       y2="4"
       x2="0"
       gradientUnits="userSpaceOnUse"
       gradientTransform="matrix(1.0218446,0,0,0.99999999,21.748946,8.2587777)" />
    <linearGradient
       id="linearGradient1389">
      <stop
         style="stop-color:#ffaaaa;stop-opacity:1"
         id="stop1385"
         offset="0" />
      <stop
         offset="1"
         style="stop-color:#ff5555;stop-opacity:1"
         id="stop1387" />
    </linearGradient>
    <linearGradient
       id="paint543_linear_890_11"
       x1="978.5"
       y1="298"
       x2="978.5"
       y2="304"
       gradientUnits="userSpaceOnUse"
       gradientTransform="matrix(0.75000004,0,0,0.75000004,-717.38333,-173.49123)">
      <stop
         offset="0.189495"
         stop-color="#EFF2F6"
         id="stop1829" />
      <stop
         offset="0.850463"
         stop-color="#B7C6CD"
         id="stop1830" />
    </linearGradient>
    <linearGradient
       inkscape:collect="always"
       xlink:href="#linearGradient8"
       id="linearGradient10"
       x1="31.5"
       y1="59.017544"
       x2="31.5"
       y2="4.9824562"
       gradientUnits="userSpaceOnUse"
       gradientTransform="translate(-0.5,-1)" />
    <linearGradient
       id="linearGradient4144">
      <stop
         style="stop-color:#c83771;stop-opacity:1"
         offset="0"
         id="stop1141" />
      <stop
         style="stop-color:#de87aa;stop-opacity:1"
         offset="1"
         id="stop1143" />
    </linearGradient>
    <linearGradient
       id="c-0"
       gradientUnits="userSpaceOnUse"
       x1="10"
       x2="24"
       y1="10"
       y2="24"
       gradientTransform="translate(59.728813,26.237288)">
      <stop
         offset="0"
         stop-color="#292c2f"
         id="stop12-2" />
      <stop
         offset="1"
         stop-opacity="0"
         id="stop14-3" />
    </linearGradient>
    <linearGradient
       id="d"
       gradientUnits="userSpaceOnUse"
       x1="24"
       x2="24"
       y1="25"
       y2="7"
       gradientTransform="translate(59.728813,26.237288)">
      <stop
         offset="0"
         stop-color="#bb9d71"
         id="stop2-7" />
      <stop
         offset="1"
         stop-color="#f9f2e7"
         id="stop4-5" />
    </linearGradient>
    <filter
       id="c-3"
       width="1.1245312"
       height="1.1156488"
       x="-0.062265594"
       y="-0.057824417"
       color-interpolation-filters="sRGB">
      <feGaussianBlur
         stdDeviation=".665"
         id="feGaussianBlur1" />
    </filter>
  </defs>
  <sodipodi:namedview
     id="namedview5"
     pagecolor="#ffffff"
     bordercolor="#000000"
     borderopacity="0.25"
     inkscape:showpageshadow="2"
     inkscape:pageopacity="0.0"
     inkscape:pagecheckerboard="0"
     inkscape:deskcolor="#d1d1d1"
     inkscape:zoom="8.2643105"
     inkscape:cx="25.349967"
     inkscape:cy="40.354244"
     inkscape:window-width="1920"
     inkscape:window-height="996"
     inkscape:window-x="0"
     inkscape:window-y="0"
     inkscape:window-maximized="1"
     inkscape:current-layer="svg5" />
  <rect
     style="opacity:0.2;stroke-width:0.9823"
     width="55"
     height="55.017544"
     x="3.5"
     y="3.9824562"
     rx="8.25"
     ry="8.2526312"
     id="rect1" />
  <rect
     style="fill:url(#linearGradient10);stroke-width:0.9823"
     width="55"
     height="55.017544"
     x="3.5"
     y="3"
     rx="8.25"
     ry="8.2526312"
     id="rect2" />
  <path
     style="opacity:0.1;fill:#ffffff;stroke-width:0.9823"
     d="M 11.748466,3 C 7.1779652,3 3.5,6.6791384 3.5,11.251097 v 0.982456 c 0,-4.5719585 3.6779652,-8.2510969 8.248466,-8.2510969 h 38.503068 c 4.5705,0 8.248466,3.6791384 8.248466,8.2510969 V 11.251097 C 58.5,6.6791384 54.822034,3 50.251534,3 Z"
     id="path4" />
  <rect
     style="opacity:0.28285714;fill:#ffffff"
     width="8"
     height="4"
     x="8.5"
     y="25"
     id="rect3" />
  <rect
     style="opacity:0.28285714;fill:#ffffff"
     width="8"
     height="4"
     x="8.5"
     y="18"
     id="rect4" />
  <rect
     style="opacity:0.28285714;fill:#ffffff"
     width="8"
     height="4"
     x="8.5"
     y="11"
     id="rect5" />
  <rect
     style="opacity:0.28285714;fill:#ffffff"
     width="8"
     height="4"
     x="8.5"
     y="32"
     id="rect6" />
  <rect
     style="opacity:0.28285714;fill:#ffffff"
     width="8"
     height="4"
     x="8.5"
     y="39"
     id="rect7" />
  <rect
     style="opacity:0.28285714;fill:#ffffff"
     width="8"
     height="4"
     x="8.5"
     y="46"
     id="rect8" />
  <rect
     style="fill:#c83771"
     width="10"
     height="4"
     x="19.5"
     y="11"
     id="rect9" />
  <rect
     style="fill:#ffffff"
     width="11"
     height="4"
     x="29.5"
     y="11"
     id="rect10" />
  <rect
     style="fill:#ffffff"
     width="3"
     height="4"
     x="41.5"
     y="11"
     id="rect11" />
  <rect
     style="opacity:0.56;fill:#ffffff"
     width="6"
     height="4"
     x="19.5"
     y="25"
     id="rect12" />
  <rect
     style="opacity:0.56;fill:#ffffff"
     width="5"
     height="4"
     x="26.5"
     y="25"
     id="rect13" />
  <rect
     style="fill:#ffb380"
     width="7"
     height="4"
     x="45.5"
     y="11"
     id="rect14" />
  <rect
     style="opacity:0.56;fill:#ffffff"
     width="8"
     height="4"
     x="32.5"
     y="25"
     id="rect15" />
  <rect
     style="opacity:0.56;fill:#ffffff"
     width="6"
     height="4"
     x="41.5"
     y="25"
     id="rect16" />
  <rect
     style="fill:#ffffff"
     width="18"
     height="4"
     x="19.5"
     y="32"
     id="rect17" />
  <rect
     style="fill:#aa87de"
     width="13"
     height="4"
     x="37.5"
     y="32"
     id="rect18" />
  <rect
     style="fill:#ffffff"
     width="3"
     height="4"
     x="50.5"
     y="32"
     id="rect19" />
  <rect
     style="fill:#aa87de"
     width="10"
     height="4"
     x="25.5"
     y="39"
     id="rect20" />
  <rect
     style="fill:#ffb380"
     width="6"
     height="4"
     x="36.5"
     y="39"
     id="rect21" />
  <rect
     style="fill:#aa87de"
     width="7"
     height="4"
     x="19.5"
     y="46"
     id="rect22" />
  <rect
     style="fill:#c83771"
     width="7"
     height="4"
     x="27.5"
     y="46"
     id="rect23" />
  <rect
     style="fill:#ffffff"
     width="13"
     height="4"
     x="34.5"
     y="46"
     id="rect24" />
  <path
     style="opacity:0.2"
     d="m 8.5,15 v 1 h 8 v -1 z m 11,0 v 1 h 10 11 v -1 h -11 z m 22,0 v 1 h 3 v -1 z m 4,0 v 1 h 7 v -1 z m -37,7 v 1 h 8 v -1 z m 0,7 v 1 h 8 v -1 z m 11,0 v 1 h 6 v -1 z m 7,0 v 1 h 5 v -1 z m 6,0 v 1 h 8 v -1 z m 9,0 v 1 h 6 v -1 z m -33,7 v 1 h 8 v -1 z m 11,0 v 1 h 18 13 3 v -1 h -3 -13 z m -11,7 v 1 h 8 v -1 z m 17,0 v 1 h 10 v -1 z m 11,0 v 1 h 6 v -1 z m -28,7 v 1 h 8 v -1 z m 11,0 v 1 h 7 v -1 z m 8,0 v 1 h 7 13 v -1 h -13 z"
     id="path24" />
</svg>
