<?xml version="1.0" encoding="UTF-8" standalone="no"?>
<svg
   width="62"
   height="62"
   version="1"
   id="svg8"
   sodipodi:docname="litetweaks.svg"
   inkscape:version="1.4 (unknown)"
   xmlns:inkscape="http://www.inkscape.org/namespaces/inkscape"
   xmlns:sodipodi="http://sodipodi.sourceforge.net/DTD/sodipodi-0.dtd"
   xmlns="http://www.w3.org/2000/svg"
   xmlns:svg="http://www.w3.org/2000/svg">
  <defs
     id="defs8" />
  <sodipodi:namedview
     id="namedview8"
     pagecolor="#ffffff"
     bordercolor="#000000"
     borderopacity="0.25"
     inkscape:showpageshadow="2"
     inkscape:pageopacity="0.0"
     inkscape:pagecheckerboard="0"
     inkscape:deskcolor="#d1d1d1"
     inkscape:zoom="7.0710678"
     inkscape:cx="40.800061"
     inkscape:cy="22.556706"
     inkscape:window-width="1920"
     inkscape:window-height="996"
     inkscape:window-x="0"
     inkscape:window-y="0"
     inkscape:window-maximized="1"
     inkscape:current-layer="svg8" />
  <g
     id="g8"
     transform="matrix(0.98214286,0,0,0.98245614,-0.42857152,-0.92982455)">
    <path
       style="opacity:0.2"
       d="M 29.2,47 40.4,41.4 46,30.2 40.960002,25.16 35.92,26.84 19.12,5 9.0400002,10.04 l -5.04,10.08 21.8400018,16.8 -1.68,5.040002 z"
       id="path1" />
    <path
       style="fill:#a02c5a"
       d="M 29.2,46 40.4,40.4 46,29.2 40.960002,24.16 35.92,25.84 19.12,4 9.0400002,9.04 l -5.04,10.08 21.8400018,16.8 -1.68,5.040002 z"
       id="path2" />
    <path
       style="opacity:0.2"
       d="M 46,29.2 34.8,34.8 29.2,46 40.4,40.4 Z"
       id="path3" />
    <path
       style="opacity:0.2;fill:#f4d7e3"
       d="M 19.121093,4 9.039453,9.0394532 34.8,34.8 46,29.2 40.960548,24.160548 35.921094,25.839452 Z"
       id="path4" />
    <path
       style="opacity:0.2"
       d="M 34.8,39.16 38.16,35.8 53.4,51 h 3.239998 L 60,57.639998 56.639998,61 50,57.639998 V 54.4 Z"
       id="path5" />
    <path
       style="fill:#b3b3b3"
       d="M 34.8,38.16 38.16,34.8 53.4,50 h 3.239998 L 60,56.639998 56.639998,60 50,56.639998 V 53.4 Z"
       id="path6" />
    <path
       style="opacity:0.2;fill:#ffffff"
       d="M 19.119141,4 9.0390625,9.0390625 4,19.119141 4.3613281,19.396484 9.0390625,10.039062 19.119141,5 35.919922,26.839844 40.960938,25.160156 45.666016,29.865234 46,29.199219 40.960938,24.160156 35.919922,25.839844 Z m 6.455078,32.716797 -1.414063,4.244141 0.25,0.25 1.429688,-4.291016 z"
       id="path7" />
    <path
       style="opacity:0.2;fill:#ffffff"
       d="m 38.160156,34.800781 -3.359375,3.359375 0.5,0.5 2.859375,-2.859375 L 53.400391,51 h 3.240234 L 59.664062,56.976562 60,56.640625 56.640625,50 h -3.240234 z"
       id="path8" />
  </g>
</svg>
