<?xml version="1.0" encoding="UTF-8" standalone="no"?>
<svg
   width="62"
   height="62"
   version="1"
   id="svg8"
   sodipodi:docname="lives.svg"
   inkscape:version="1.4 (unknown)"
   xmlns:inkscape="http://www.inkscape.org/namespaces/inkscape"
   xmlns:sodipodi="http://sodipodi.sourceforge.net/DTD/sodipodi-0.dtd"
   xmlns="http://www.w3.org/2000/svg"
   xmlns:svg="http://www.w3.org/2000/svg">
  <defs
     id="defs8" />
  <sodipodi:namedview
     id="namedview8"
     pagecolor="#ffffff"
     bordercolor="#000000"
     borderopacity="0.25"
     inkscape:showpageshadow="2"
     inkscape:pageopacity="0.0"
     inkscape:pagecheckerboard="0"
     inkscape:deskcolor="#d1d1d1"
     inkscape:zoom="7.0710678"
     inkscape:cx="18.950462"
     inkscape:cy="43.204224"
     inkscape:window-width="1920"
     inkscape:window-height="996"
     inkscape:window-x="0"
     inkscape:window-y="0"
     inkscape:window-maximized="1"
     inkscape:current-layer="svg8" />
  <g
     id="g8"
     transform="translate(-0.5087719)">
    <rect
       style="opacity:0.2;stroke-width:0.982459"
       width="55.017544"
       height="55.017544"
       x="4"
       y="3.9824567"
       rx="2.7508757"
       ry="2.7508757"
       id="rect1" />
    <rect
       style="fill:#3f5574;fill-opacity:1;stroke-width:0.982459"
       width="55.017544"
       height="55.017544"
       x="-58.017544"
       y="-59.017544"
       rx="2.7508757"
       ry="2.7508757"
       transform="matrix(0,-1,-1,0,0,0)"
       id="rect2" />
    <path
       style="opacity:0.2;stroke-width:0.982459"
       d="M 7.9298239,7.9122797 V 13.807017 H 13.824557 V 7.9122797 Z m 41.2631451,0 v 5.8947373 h 5.894737 V 7.9122797 Z M 7.9298239,21.666664 v 5.89473 h 5.8947331 v -5.89473 z m 41.2631451,0 v 5.89473 h 5.894737 v -5.89473 z M 7.9298239,35.421042 v 5.894738 h 5.8947331 v -5.894738 z m 41.2631451,0 v 5.894738 h 5.894737 V 35.421042 Z M 7.9298239,49.175428 v 5.894738 h 5.8947331 v -5.894738 z m 41.2631451,0 v 5.894738 h 5.894737 v -5.894738 z"
       id="path2" />
    <path
       style="fill:#ffffff;stroke-width:0.982459"
       d="M 7.9298239,6.9298239 V 12.824557 H 13.824557 V 6.9298239 Z m 41.2631451,0 v 5.8947331 h 5.894737 V 6.9298239 Z M 7.9298239,20.684206 v 5.894737 h 5.8947331 v -5.894737 z m 41.2631451,0 v 5.894737 h 5.894737 V 20.684206 Z M 7.9298239,34.438592 v 5.894729 h 5.8947331 v -5.894729 z m 41.2631451,0 v 5.894729 h 5.894737 V 34.438592 Z M 7.9298239,48.192969 v 5.894737 h 5.8947331 v -5.894737 z m 41.2631451,0 v 5.894737 h 5.894737 v -5.894737 z"
       id="path3" />
    <path
       style="opacity:0.1;fill:#ffffff;stroke-width:0.982459"
       d="M 6.7516623,3 C 5.2276768,3 4,4.2276768 4,5.7516623 V 6.7341181 C 4,5.2101325 5.2276768,3.9824557 6.7516623,3.9824557 H 56.265476 c 1.523981,0 2.75166,1.2276768 2.75166,2.7516624 V 5.7516623 C 59.017136,4.2276768 57.789457,3 56.265476,3 Z"
       id="path4" />
    <rect
       style="opacity:0.2;stroke-width:0.982459"
       width="25.54385"
       height="17.684214"
       x="18.736839"
       y="9.8771935"
       id="rect4" />
    <rect
       style="fill:#ffffff;stroke-width:0.982459"
       width="25.54385"
       height="17.684214"
       x="18.736839"
       y="8.8947334"
       id="rect5" />
    <rect
       style="opacity:0.2;stroke-width:0.982459"
       width="25.54385"
       height="17.684214"
       x="18.736839"
       y="35.421036"
       id="rect6" />
    <rect
       style="fill:#ffffff;stroke-width:0.982459"
       width="25.54385"
       height="17.684214"
       x="18.736839"
       y="34.438583"
       id="rect7" />
  </g>
  <g
     id="g9"
     transform="matrix(0.99951935,0,0,1,-36.177103,0.99999523)">
    <path
       style="opacity:0.2;stroke-width:0.787883"
       d="M 98.191239,47.486307 A 12.606063,12.606063 0 0 1 85.618256,59.42425 12.606063,12.606063 0 0 1 73.045288,47.725826 a 12.606063,12.606063 0 0 0 -0.03307,0.668116 12.606063,12.606063 0 0 0 12.606063,12.606063 12.606063,12.606063 0 0 0 12.606023,-12.606063 12.606063,12.606063 0 0 0 -0.03419,-0.907901 z"
       id="path7" />
    <circle
       style="fill:#c8a96a;stroke-width:0.787883;fill-opacity:1"
       cx="85.618256"
       cy="47.606064"
       r="12.606059"
       id="circle7" />
    <path
       style="fill:#f2f2f2;stroke-width:0.787883;fill-opacity:1"
       d="m 81.738734,41.303036 c -1.33781,0 -2.423505,1.085696 -2.423505,2.423507 0,1.338849 1.085375,2.424306 2.424295,2.424306 0.432571,0 0.830271,-0.134799 1.181825,-0.333337 l 1.909804,1.788476 -1.909019,1.787864 c -0.351585,-0.198522 -0.749251,-0.333334 -1.181823,-0.333334 -1.337812,0 -2.423512,1.085695 -2.423512,2.425094 0,1.337804 1.0857,2.423519 2.423512,2.423519 1.338848,0 2.424308,-1.085389 2.424308,-2.424309 0,-0.222214 -0.03488,-0.431915 -0.09086,-0.636381 l 2.060625,-1.999935 4.333323,4.090977 h 1.454595 v -0.969717 l -7.84855,-7.606024 c 0.05609,-0.20446 0.09086,-0.414155 0.09086,-0.636379 0,-1.339386 -1.085695,-2.425096 -2.425095,-2.425096 z m 0,1.454576 c 0.535549,0 0.969731,0.434151 0.969731,0.969719 0,0.535556 -0.434166,0.969731 -0.969731,0.969731 -0.535565,0 -0.969715,-0.434175 -0.969715,-0.969731 0,-0.535568 0.43415,-0.969719 0.969715,-0.969719 z m 8.727346,-0.48484 -3.818224,3.606116 1.272738,1.242414 4.000061,-3.878731 v -0.969724 z m -8.727346,8.242789 c 0.535549,0 0.969731,0.43415 0.969731,0.969716 0,0.535568 -0.434166,0.969711 -0.969731,0.969711 -0.535565,0 -0.969715,-0.434143 -0.969715,-0.969711 0,-0.535566 0.43415,-0.969716 0.969715,-0.969716 z"
       id="path8" />
  </g>
</svg>
