<?xml version="1.0" encoding="UTF-8" standalone="no"?>
<svg
   width="62"
   height="62"
   version="1"
   id="svg4"
   sodipodi:docname="lookit.svg"
   inkscape:version="1.4 (unknown)"
   xmlns:inkscape="http://www.inkscape.org/namespaces/inkscape"
   xmlns:sodipodi="http://sodipodi.sourceforge.net/DTD/sodipodi-0.dtd"
   xmlns:xlink="http://www.w3.org/1999/xlink"
   xmlns="http://www.w3.org/2000/svg"
   xmlns:svg="http://www.w3.org/2000/svg">
  <defs
     id="defs4">
    <linearGradient
       id="linearGradient4"
       inkscape:collect="always">
      <stop
         style="stop-color:#a4b4c1;stop-opacity:1;"
         offset="0"
         id="stop4" />
      <stop
         style="stop-color:#e4ebec;stop-opacity:1;"
         offset="1"
         id="stop5" />
    </linearGradient>
    <linearGradient
       inkscape:collect="always"
       xlink:href="#linearGradient4"
       id="linearGradient5"
       x1="32.938"
       y1="52"
       x2="40.503952"
       y2="12"
       gradientUnits="userSpaceOnUse" />
  </defs>
  <sodipodi:namedview
     id="namedview4"
     pagecolor="#ffffff"
     bordercolor="#000000"
     borderopacity="0.25"
     inkscape:showpageshadow="2"
     inkscape:pageopacity="0.0"
     inkscape:pagecheckerboard="0"
     inkscape:deskcolor="#d1d1d1"
     inkscape:zoom="7.0710678"
     inkscape:cx="26.657926"
     inkscape:cy="25.526555"
     inkscape:window-width="1920"
     inkscape:window-height="996"
     inkscape:window-x="0"
     inkscape:window-y="0"
     inkscape:window-maximized="1"
     inkscape:current-layer="svg4" />
  <g
     id="g5"
     transform="translate(-1,-1.5)">
    <path
       style="opacity:0.2"
       d="M 2.0508,37.39 C 2.0244,37.742 2,38.094 2,38.454 2,46.486 8.7158,53 17,53 H 48.876 C 56.124,53 62,47.302 62,40.274 62,39.928 61.978,39.586 61.95,39.246 61.434,45.818 55.784,51 48.876,51 H 17 C 9.0418,51 2.5512,44.986 2.0508,37.39 Z"
       id="path1" />
    <path
       style="fill:url(#linearGradient5)"
       d="M 32,12 C 24.234,12 17.6198,16.6106 14.7734,23.136 7.544,24.178 2,30.154 2,37.454 2,45.488 8.7158,52 17,52 H 48.876 C 56.124,52 62,46.302 62,39.272 62,32.74 56.934,27.386 50.398,26.66 48.694,18.3194 41.1,12 32,12 Z"
       id="path2" />
    <path
       style="opacity:0.2;fill:#ffffff"
       d="M 32,12 C 24.234,12 17.619837,16.612119 14.773438,23.136719 7.5440375,24.178719 2,30.153125 2,37.453125 c 0,0.158 0.015266,0.313 0.025391,0.46875 C 2.2888217,30.866791 7.7216393,25.15312 14.773438,24.136719 17.619837,17.612119 24.234,13 32,13 c 9.1,0 16.694437,6.319756 18.398438,14.660156 6.360453,0.706501 11.313876,5.801088 11.576171,12.09375 C 61.983924,39.594082 62,39.435467 62,39.273438 62,32.741437 56.934438,27.386156 50.398438,26.660156 48.694437,18.319756 41.1,12 32,12 Z"
       id="path3" />
    <path
       style="opacity:1;fill:#2d3d53;fill-opacity:1"
       d="M 32,18 A 14,14 0 0 0 18,32 14,14 0 0 0 32,46 14,14 0 0 0 46,32 14,14 0 0 0 32,18 Z m 0,4 A 10,10 0 0 1 42,32 10,10 0 0 1 32,42 10,10 0 0 1 22,32 10,10 0 0 1 32,22 Z"
       id="path4" />
    <circle
       style="opacity:0.6;fill:#2d3d53;fill-opacity:1"
       cx="32"
       cy="32"
       r="6"
       id="circle4" />
  </g>
</svg>
