<?xml version="1.0" encoding="UTF-8" standalone="no"?>
<svg
   height="62"
   width="62"
   version="1.1"
   id="svg12"
   sodipodi:docname="lovely-planet-2.svg"
   inkscape:version="1.4 (unknown)"
   xmlns:inkscape="http://www.inkscape.org/namespaces/inkscape"
   xmlns:sodipodi="http://sodipodi.sourceforge.net/DTD/sodipodi-0.dtd"
   xmlns="http://www.w3.org/2000/svg"
   xmlns:svg="http://www.w3.org/2000/svg">
  <defs
     id="defs12" />
  <sodipodi:namedview
     id="namedview12"
     pagecolor="#ffffff"
     bordercolor="#000000"
     borderopacity="0.25"
     inkscape:showpageshadow="2"
     inkscape:pageopacity="0.0"
     inkscape:pagecheckerboard="0"
     inkscape:deskcolor="#d1d1d1"
     inkscape:zoom="7.0710678"
     inkscape:cx="23.405234"
     inkscape:cy="72.054181"
     inkscape:window-width="1920"
     inkscape:window-height="996"
     inkscape:window-x="0"
     inkscape:window-y="0"
     inkscape:window-maximized="1"
     inkscape:current-layer="svg12" />
  <g
     id="g12"
     transform="matrix(0.98214286,0,0,0.98245614,-0.42857152,-0.92982455)">
    <circle
       cx="32"
       cy="33"
       r="28"
       style="opacity:0.2"
       id="circle1" />
    <circle
       cx="32"
       cy="32"
       r="28"
       style="fill:#8d5ed3;fill-opacity:1"
       id="circle2" />
    <path
       style="opacity:0.2"
       d="M 32,5 A 28,28 0 0 0 4,33 28,28 0 0 0 9.9296875,50.212891 C 14.018852,52.847616 19.626156,55.925231 25,57 c 4.953108,0.990622 13.089689,0.996851 20.046875,0.753906 A 28,28 0 0 0 60,33 28,28 0 0 0 32,5 Z"
       id="path2" />
    <path
       style="fill:#c83771"
       d="M 32,4 A 28,28 0 0 0 4,32 28,28 0 0 0 9.9296875,49.212891 C 14.018852,51.847616 19.626156,54.925231 25,56 c 4.953108,0.990622 13.089689,0.996851 20.046875,0.753906 A 28,28 0 0 0 60,32 28,28 0 0 0 32,4 Z"
       id="path3" />
    <path
       style="opacity:0.2"
       d="M 32,5 A 28,28 0 0 0 4,33 28,28 0 0 0 4.6289062,38.744141 C 7.815112,41.724603 13.904023,46.401149 23,49 c 11.213548,3.203871 23.052677,5.116986 28.869141,3.699219 A 28,28 0 0 0 60,33 28,28 0 0 0 32,5 Z"
       id="path4" />
    <path
       style="fill:#ffd42a"
       d="M 32,4 A 28,28 0 0 0 4,32 28,28 0 0 0 4.6289062,37.744141 C 7.815112,40.724603 13.904023,45.401149 23,48 c 11.213548,3.203871 23.052677,5.116986 28.869141,3.699219 A 28,28 0 0 0 60,32 28,28 0 0 0 32,4 Z"
       id="path5" />
    <path
       style="opacity:0.2"
       d="M 32,5 A 28,28 0 0 0 6.207031,22.171875 C 9.1276859,26.214934 15.691066,32.267235 30,36 c 19.105589,4.984067 27.078248,3.767111 29.261719,3.208984 A 28,28 0 0 0 60,33 28,28 0 0 0 32,5 Z"
       id="path6" />
    <path
       style="fill:#2a7fff"
       d="M 32,4 A 28,28 0 0 0 6.207031,21.171875 C 9.1276859,25.214934 15.691066,31.267235 30,35 c 19.105589,4.984067 27.078248,3.767111 29.261719,3.208984 A 28,28 0 0 0 60,32 28,28 0 0 0 32,4 Z"
       id="path7" />
    <path
       style="opacity:0.2"
       d="M 32,5 A 28,28 0 0 0 14.466797,11.224609 C 18.136237,14.035176 24.158145,17.315858 34,20 c 15.640991,4.265725 22.100607,4.478009 24.576172,4.25 A 28,28 0 0 0 32,5 Z"
       id="path8" />
    <path
       style="fill:#00a8a8;fill-opacity:1"
       d="M 32,4 A 28,28 0 0 0 14.466797,10.224609 C 18.136237,13.035176 24.158145,16.315858 34,19 c 15.640991,4.265725 22.100607,4.478009 24.576172,4.25 A 28,28 0 0 0 32,4 Z"
       id="path9" />
    <path
       style="opacity:0.2"
       d="m 32,5 a 28,28 0 0 0 -4.708984,0.4414062 c 3.04653,1.0508155 18.113496,6.2040698 24.03125,7.3339848 A 28,28 0 0 0 32,5 Z"
       id="path10" />
    <path
       style="fill:#00d455"
       d="m 32,4 a 28,28 0 0 0 -4.708984,0.4414062 c 3.04653,1.0508155 18.113496,6.2040698 24.03125,7.3339848 A 28,28 0 0 0 32,4 Z"
       id="path11" />
    <path
       d="M 32,4 A 28,28 0 0 0 4,32 28,28 0 0 0 4.0215,32.586 28,28 0 0 1 32,5 28,28 0 0 1 59.979,32.414 28,28 0 0 0 60,32 28,28 0 0 0 32,4 Z"
       style="opacity:0.2;fill:#ffffff"
       id="path12" />
  </g>
  <g
     id="g2"
     transform="translate(-13.886239,-29.9992)">
    <g
       id="g1"
       transform="matrix(1.0098466,0,0,1,-0.53552423,0)">
      <circle
         style="opacity:0.2;stroke-width:0.709676"
         cx="65.031425"
         r="10.645181"
         cy="81.354019"
         id="circle12" />
      <circle
         style="fill:#ff5757;stroke-width:0.709676"
         cx="65.031425"
         r="10.645181"
         cy="80.644386"
         id="circle13" />
    </g>
    <path
       fill="#e74c3c"
       d="m 61.687455,74.854019 c -2.230799,0 -4.051215,1.814582 -4.051215,4.062506 0,1.169665 0.488319,2.236768 1.27237,2.979162 l 6.126639,5.958332 6.328095,-5.958332 c 0.784305,-0.742083 1.272896,-1.809168 1.272896,-2.979162 0,-2.247924 -1.820426,-4.062506 -4.051225,-4.062506 -1.470048,0 -2.74295,0.781089 -3.449041,1.962991 -0.707175,-1.181902 -1.980072,-1.962991 -3.450118,-1.962991 z"
       id="path3-3-7"
       style="fill:#f9ebf1;fill-opacity:1;stroke-width:1.07742" />
  </g>
</svg>
