<?xml version="1.0" encoding="UTF-8" standalone="no"?>
<svg
   width="62"
   height="62"
   version="1"
   id="svg8"
   sodipodi:docname="lplayer.svg"
   inkscape:version="1.4 (unknown)"
   xmlns:inkscape="http://www.inkscape.org/namespaces/inkscape"
   xmlns:sodipodi="http://sodipodi.sourceforge.net/DTD/sodipodi-0.dtd"
   xmlns="http://www.w3.org/2000/svg"
   xmlns:svg="http://www.w3.org/2000/svg">
  <defs
     id="defs8" />
  <sodipodi:namedview
     id="namedview8"
     pagecolor="#ffffff"
     bordercolor="#000000"
     borderopacity="0.25"
     inkscape:showpageshadow="2"
     inkscape:pageopacity="0.0"
     inkscape:pagecheckerboard="0"
     inkscape:deskcolor="#d1d1d1"
     inkscape:zoom="10"
     inkscape:cx="35.95"
     inkscape:cy="28.35"
     inkscape:window-width="1920"
     inkscape:window-height="996"
     inkscape:window-x="0"
     inkscape:window-y="0"
     inkscape:window-maximized="1"
     inkscape:current-layer="svg8" />
  <g
     id="g8"
     transform="translate(1.449987,1.5)">
    <path
       style="opacity:0.2;stroke-width:0.918192"
       d="M 57.063278,29.383092 A 27.550013,27.540992 0 0 1 29.550013,56.163943 27.550013,27.540992 0 0 1 2.0367326,29.698894 27.550013,27.540992 0 0 0 2,30.459008 27.550013,27.540992 0 0 0 29.550013,58 27.550013,27.540992 0 0 0 57.1,30.459008 27.550013,27.540992 0 0 0 57.06328,29.383092 Z"
       id="path1" />
    <path
       style="fill:#405272;stroke-width:0.918192;fill-opacity:1"
       d="M 57.1,29.540992 A 27.550013,27.540992 0 0 1 29.550013,57.081958 27.550013,27.540992 0 0 1 2,29.540992 27.550013,27.540992 0 0 1 29.550013,2 27.550013,27.540992 0 0 1 57.1,29.540992 Z"
       id="path2" />
    <path
       style="opacity:0.1;fill:#ffffff;stroke-width:0.918192"
       d="M 29.548215,2 A 27.550013,27.540992 0 0 0 2,29.540992 27.550013,27.540992 0 0 0 2.0161433,30.010765 27.550013,27.540992 0 0 1 29.548215,2.918034 h 0.002 A 27.550013,27.540992 0 0 1 57.0767,30.010765 27.550013,27.540992 0 0 0 57.098235,29.540992 27.550013,27.540992 0 0 0 29.550013,2 Z"
       id="path3" />
    <path
       style="opacity:0.2;fill:#ffffff;stroke-width:0.918192"
       d="M 14.280129,6.6485504 C 6.8866355,11.577458 2.030671,19.9861 2.030671,29.573657 h 22.040006 c 0,-2.232103 1.335245,-4.142707 3.244658,-5.007859 L 14.276276,6.6502042 Z"
       id="path4" />
    <path
       style="opacity:0.2;fill:#ffffff;stroke-width:0.918192"
       d="M 44.820063,52.43305 C 52.213742,47.504142 57.069526,39.0955 57.069526,29.507943 H 35.029515 c 0,2.232103 -1.335245,4.142707 -3.244658,5.007859 L 44.820063,52.4336 Z"
       id="path5" />
    <path
       style="opacity:0.2;stroke-width:0.918192"
       d="m 29.550013,19.44261 c -6.105091,0 -11.020004,4.913333 -11.020004,11.016398 0,6.103092 4.914913,11.016396 11.020004,11.016396 6.105064,0 11.020006,-4.913304 11.020006,-11.016396 0,-6.103065 -4.914942,-11.016398 -11.020006,-11.016398 z"
       id="path6" />
    <path
       style="fill:#f2f2f2;stroke-width:0.918192;fill-opacity:1"
       d="M 29.550013,18.524596 V 40.55739 c 6.105064,0 11.020006,-4.913333 11.020006,-11.016398 0,-6.103092 -4.914942,-11.016396 -11.020006,-11.016396 z"
       id="path7" />
    <path
       style="fill:#c83771;stroke-width:0.918192"
       d="M 29.550013,18.524596 V 40.55739 c -6.105091,0 -11.020004,-4.913333 -11.020004,-11.016398 0,-6.103092 4.914913,-11.016396 11.020004,-11.016396 z"
       id="path8" />
    <rect
       style="fill:#2e3b52;stroke-width:0.918192;fill-opacity:1"
       width="7.346663"
       height="7.3442574"
       x="25.876654"
       y="-33.213146"
       ry="3.6721287"
       transform="scale(1,-1)"
       id="rect8" />
  </g>
</svg>
