<?xml version="1.0" encoding="UTF-8" standalone="no"?>
<svg
   clip-rule="evenodd"
   fill-rule="evenodd"
   stroke-linejoin="round"
   stroke-miterlimit="2"
   viewBox="0 0 62 62"
   version="1.1"
   id="svg3"
   sodipodi:docname="ltris.svg"
   width="62"
   height="62"
   inkscape:version="1.4 (unknown)"
   xmlns:inkscape="http://www.inkscape.org/namespaces/inkscape"
   xmlns:sodipodi="http://sodipodi.sourceforge.net/DTD/sodipodi-0.dtd"
   xmlns="http://www.w3.org/2000/svg"
   xmlns:svg="http://www.w3.org/2000/svg">
  <defs
     id="defs3" />
  <sodipodi:namedview
     id="namedview3"
     pagecolor="#ffffff"
     bordercolor="#000000"
     borderopacity="0.25"
     inkscape:showpageshadow="2"
     inkscape:pageopacity="0.0"
     inkscape:pagecheckerboard="0"
     inkscape:deskcolor="#d1d1d1"
     inkscape:zoom="8"
     inkscape:cx="9"
     inkscape:cy="42.9375"
     inkscape:window-width="1920"
     inkscape:window-height="996"
     inkscape:window-x="0"
     inkscape:window-y="0"
     inkscape:window-maximized="1"
     inkscape:current-layer="svg3" />
  <g
     id="g3"
     transform="translate(0.668,0.668)">
    <path
       d="M 14.844645,58.332 H 10.379997 C 5.9373166,58.332 2.332,54.726683 2.332,50.284003 v -4.464648 c 0,-0.629315 0.5078457,-1.137161 1.1371608,-1.137161 H 14.844645 c 0.629315,0 1.137161,0.507846 1.137161,1.137161 v 11.375484 c 0,0.629315 -0.507846,1.137161 -1.137161,1.137161 z m 2.742109,-13.649806 h 11.374192 c 0.630607,0 1.137161,0.507846 1.137161,1.137161 v 11.375484 c 0,0.629315 -0.506554,1.137161 -1.137161,1.137161 H 17.586754 c -0.630608,0 -1.138453,-0.507846 -1.138453,-1.137161 V 45.819355 c 0,-0.629315 0.507845,-1.137161 1.138453,-1.137161 z m 14.1163,0 h 11.374192 c 0.630608,0 1.138453,0.507846 1.138453,1.137161 v 11.375484 c 0,0.629315 -0.507845,1.137161 -1.138453,1.137161 H 31.703054 c -0.630607,0 -1.137161,-0.507846 -1.137161,-1.137161 V 45.819355 c 0,-0.629315 0.506554,-1.137161 1.137161,-1.137161 z M 3.4691608,30.565893 H 14.844645 c 0.629315,0 1.137161,0.506554 1.137161,1.137161 v 11.374192 c 0,0.630608 -0.507846,1.138453 -1.137161,1.138453 H 3.4691608 C 2.8398457,44.215699 2.332,43.707854 2.332,43.077246 V 31.703054 c 0,-0.630607 0.5078457,-1.137161 1.1371608,-1.137161 z"
       id="path1"
       style="stroke-width:1.29223;fill:#ffd42a" />
    <path
       d="m 17.586754,30.565893 h 11.374192 c 0.630607,0 1.137161,0.506554 1.137161,1.137161 v 11.374192 c 0,0.630608 -0.506554,1.138453 -1.137161,1.138453 H 17.586754 c -0.630608,0 -1.138453,-0.507845 -1.138453,-1.138453 V 31.703054 c 0,-0.630607 0.507845,-1.137161 1.138453,-1.137161 z m 14.1163,0 h 11.374192 c 0.630608,0 1.138453,0.506554 1.138453,1.137161 v 11.374192 c 0,0.630608 -0.507845,1.138453 -1.138453,1.138453 H 31.703054 c -0.630607,0 -1.137161,-0.507845 -1.137161,-1.138453 V 31.703054 c 0,-0.630607 0.506554,-1.137161 1.137161,-1.137161 z M 3.4691608,16.448301 H 14.844645 c 0.629315,0 1.137161,0.507845 1.137161,1.138453 v 11.374192 c 0,0.630607 -0.507846,1.137161 -1.137161,1.137161 H 3.4691608 C 2.8398457,30.098107 2.332,29.591553 2.332,28.960946 V 17.586754 c 0,-0.630608 0.5078457,-1.138453 1.1371608,-1.138453 z m 14.1175932,0 h 11.374192 c 0.630607,0 1.137161,0.507845 1.137161,1.138453 v 11.374192 c 0,0.630607 -0.506554,1.137161 -1.137161,1.137161 H 17.586754 c -0.630608,0 -1.138453,-0.506554 -1.138453,-1.137161 V 17.586754 c 0,-0.630608 0.507845,-1.138453 1.138453,-1.138453 z"
       id="path2"
       style="stroke-width:1.29223;fill:#2a7fff" />
    <path
       d="m 45.819355,2.332 h 4.464648 c 4.44268,0 8.047997,3.6053166 8.047997,8.047997 v 4.464648 c 0,0.630608 -0.507846,1.137161 -1.137161,1.137161 H 45.819355 c -0.629315,0 -1.137161,-0.506553 -1.137161,-1.137161 V 3.4691608 C 44.682194,2.8398457 45.19004,2.332 45.819355,2.332 Z m 0,28.233893 h 11.375484 c 0.629315,0 1.137161,0.506554 1.137161,1.137161 v 11.374192 c 0,0.630608 -0.507846,1.138453 -1.137161,1.138453 H 45.819355 c -0.629315,0 -1.137161,-0.507845 -1.137161,-1.138453 V 31.703054 c 0,-0.630607 0.507846,-1.137161 1.137161,-1.137161 z m 0,-14.117592 h 11.375484 c 0.629315,0 1.137161,0.507845 1.137161,1.138453 v 11.374192 c 0,0.630607 -0.507846,1.137161 -1.137161,1.137161 H 45.819355 c -0.629315,0 -1.137161,-0.506554 -1.137161,-1.137161 V 17.586754 c 0,-0.630608 0.507846,-1.138453 1.137161,-1.138453 z M 31.703054,2.332 h 11.374192 c 0.630608,0 1.138453,0.5078457 1.138453,1.1371608 V 14.844645 c 0,0.630608 -0.507845,1.137161 -1.138453,1.137161 H 31.703054 c -0.630607,0 -1.137161,-0.506553 -1.137161,-1.137161 V 3.4691608 C 30.565893,2.8398457 31.072447,2.332 31.703054,2.332 Z"
       id="path3"
       style="stroke-width:1.29223;fill:#c83771" />
  </g>
</svg>
