<?xml version="1.0" encoding="UTF-8" standalone="no"?>
<svg
   width="62"
   height="62"
   version="1.1"
   id="svg11"
   sodipodi:docname="lvim.svg"
   inkscape:version="1.4 (unknown)"
   xmlns:inkscape="http://www.inkscape.org/namespaces/inkscape"
   xmlns:sodipodi="http://sodipodi.sourceforge.net/DTD/sodipodi-0.dtd"
   xmlns:xlink="http://www.w3.org/1999/xlink"
   xmlns="http://www.w3.org/2000/svg"
   xmlns:svg="http://www.w3.org/2000/svg">
  <defs
     id="defs11">
    <linearGradient
       id="linearGradient11"
       inkscape:collect="always">
      <stop
         style="stop-color:#2e3b52;stop-opacity:1;"
         offset="0"
         id="stop11" />
      <stop
         style="stop-color:#424f70;stop-opacity:1;"
         offset="1"
         id="stop12" />
    </linearGradient>
    <linearGradient
       inkscape:collect="always"
       xlink:href="#linearGradient11"
       id="linearGradient12"
       x1="32"
       y1="61"
       x2="32"
       y2="5"
       gradientUnits="userSpaceOnUse" />
  </defs>
  <sodipodi:namedview
     id="namedview11"
     pagecolor="#ffffff"
     bordercolor="#000000"
     borderopacity="0.25"
     inkscape:showpageshadow="2"
     inkscape:pageopacity="0.0"
     inkscape:pagecheckerboard="0"
     inkscape:deskcolor="#d1d1d1"
     inkscape:zoom="7.0710678"
     inkscape:cx="26.657926"
     inkscape:cy="27.647875"
     inkscape:window-width="1920"
     inkscape:window-height="996"
     inkscape:window-x="0"
     inkscape:window-y="0"
     inkscape:window-maximized="1"
     inkscape:current-layer="svg11" />
  <g
     id="g12"
     transform="matrix(0.98214286,0,0,0.98245614,-0.42857152,-0.92982455)">
    <circle
       style="opacity:0.2"
       cx="32"
       cy="33"
       r="28"
       id="circle1" />
    <circle
       style="fill:url(#linearGradient12)"
       cx="32"
       cy="32"
       r="28"
       id="circle2" />
    <path
       style="opacity:0.2"
       d="M 25.248047,25 22.199219,43 H 25 34.726562 35.640625 L 43.001953,25 H 40.201172 L 35,37.71875 v -7.761719 c -0.469829,0.157088 -0.975524,0.242188 -1.5,0.242188 -0.524476,0 -1.030171,-0.0851 -1.5,-0.242188 V 40 h -6.492188 l 2.539063,-15 z"
       id="path2" />
    <path
       style="opacity:0.2"
       d="M 32,15 A 18,18 0 0 0 14,33 18,18 0 0 0 32,51 18,18 0 0 0 50,33 18,18 0 0 0 32,15 Z m 0,3 A 15,15 0 0 1 47,33 15,15 0 0 1 32,48 15,15 0 0 1 17,33 15,15 0 0 1 32,18 Z"
       id="path3" />
    <path
       style="fill:#ffffff"
       d="m 25.247751,24 h 2.8 L 25,42 h -2.8 z"
       id="path4" />
    <path
       style="fill:#ffffff"
       d="m 34.725899,39 v 3 H 22.200001 L 23.04,39 Z"
       id="path5" />
    <path
       style="fill:#5f5fec;fill-opacity:1"
       d="M 32,14 A 18,18 0 0 0 14,32 18,18 0 0 0 32,50 18,18 0 0 0 50,32 18,18 0 0 0 32,14 Z m 0,3 A 15,15 0 0 1 47,32 15,15 0 0 1 32,47 15,15 0 0 1 17,32 15,15 0 0 1 32,17 Z"
       id="path6" />
    <path
       style="fill:#ffffff"
       d="M 32,28.956641 V 41.8 h 3 V 28.956641 C 34.530171,29.113729 34.024476,29.2 33.5,29.2 32.975524,29.2 32.469829,29.11373 32,28.956641 Z"
       id="path7" />
    <path
       style="fill:#ffffff"
       d="m 40.201059,24 h 2.8 L 35.64,42 h -2.8 z"
       id="path8" />
    <path
       style="opacity:0.2"
       d="m 14.996094,22.003906 c -1.061706,0.02079 -2.009278,0.123345 -2.832032,0.322266 -1.462671,0.353629 -2.690245,1.051874 -3.0605464,2.412109 -0.3703029,1.360234 0.2906429,2.742877 1.3164064,3.994141 0.835691,1.019402 2.194435,2.048482 3.621094,3.09375 0.05184,-0.804762 0.15637,-1.594664 0.310546,-2.367188 -0.955946,-0.755084 -1.917855,-1.475923 -2.435546,-2.107422 -0.803143,-0.9797 -0.938579,-1.615311 -0.859375,-1.90625 0.0792,-0.290939 0.507115,-0.725071 1.652343,-1.001953 1.145226,-0.276882 2.848071,-0.348962 4.916016,-0.179687 4.135892,0.338547 9.738042,1.624417 15.722656,3.783203 5.984616,2.158783 11.22108,4.783657 14.785156,7.222656 1.782041,1.2195 3.148029,2.397251 3.951172,3.376953 0.803141,0.979699 0.940533,1.617265 0.861328,1.908204 -0.07921,0.290939 -0.509069,0.725072 -1.654296,1.001953 -0.849354,0.205348 -2.199135,0.292392 -3.595704,0.257812 -0.412148,0.732269 -0.875734,1.431516 -1.382812,2.095703 2.118497,0.160889 4.101812,0.104952 5.521484,-0.238281 1.462671,-0.353632 2.692197,-1.05383 3.0625,-2.414063 0.370302,-1.360236 -0.294548,-2.73897 -1.320312,-3.990234 -1.025766,-1.251262 -2.520069,-2.515155 -4.410156,-3.808594 -3.780171,-2.58688 -9.136469,-5.258694 -15.257813,-7.466796 -6.121342,-2.208104 -11.847717,-3.533503 -16.234375,-3.892579 -0.548332,-0.04488 -1.072896,-0.07522 -1.578125,-0.08984 -0.378922,-0.01097 -0.745707,-0.01279 -1.099609,-0.0059 z"
       id="path9" />
    <path
       style="fill:#41cff1;fill-opacity:1"
       d="m 14.996094,21.003906 c -1.061706,0.02079 -2.009278,0.123345 -2.832032,0.322266 -1.462671,0.353629 -2.690245,1.051874 -3.0605464,2.412109 -0.3703029,1.360234 0.2906429,2.742877 1.3164064,3.994141 0.835691,1.019402 2.194435,2.048482 3.621094,3.09375 0.05184,-0.804762 0.15637,-1.594664 0.310546,-2.367188 -0.955946,-0.755084 -1.917855,-1.475923 -2.435546,-2.107422 -0.803143,-0.9797 -0.938579,-1.615311 -0.859375,-1.90625 0.0792,-0.290939 0.507115,-0.725071 1.652343,-1.001953 1.145226,-0.276882 2.848071,-0.348962 4.916016,-0.179687 4.135892,0.338547 9.738042,1.624417 15.722656,3.783203 5.984616,2.158783 11.22108,4.783657 14.785156,7.222656 1.782041,1.2195 3.148029,2.397251 3.951172,3.376953 0.803141,0.979699 0.940533,1.617265 0.861328,1.908204 -0.07921,0.290939 -0.509069,0.725072 -1.654296,1.001953 -0.849354,0.205348 -2.199135,0.292392 -3.595704,0.257812 -0.412148,0.732269 -0.875734,1.431516 -1.382812,2.095703 2.118497,0.160889 4.101812,0.104952 5.521484,-0.238281 1.462671,-0.353632 2.692197,-1.05383 3.0625,-2.414063 0.370302,-1.360236 -0.294548,-2.73897 -1.320312,-3.990234 -1.025766,-1.251262 -2.520069,-2.515155 -4.410156,-3.808594 -3.780171,-2.58688 -9.136469,-5.258694 -15.257813,-7.466796 -6.121342,-2.208104 -11.847717,-3.533503 -16.234375,-3.892579 -0.548332,-0.04488 -1.072896,-0.07522 -1.578125,-0.08984 -0.378922,-0.01097 -0.745707,-0.01279 -1.099609,-0.0059 z"
       id="path10" />
    <circle
       style="opacity:0.2"
       cx="33.5"
       cy="26.5"
       r="2.5"
       id="circle10" />
    <circle
       style="fill:#ffffff"
       cx="33.5"
       cy="25.5"
       r="2.5"
       id="circle11" />
    <path
       style="opacity:0.1;fill:#ffffff"
       d="M 32,4 A 28,28 0 0 0 4,32 28,28 0 0 0 4.0351562,32.5 28,28 0 0 1 32,5 28,28 0 0 1 59.982422,32.251953 28,28 0 0 0 60,32 28,28 0 0 0 32,4 Z"
       id="path11" />
  </g>
</svg>
