<?xml version="1.0" encoding="UTF-8" standalone="no"?>
<svg
   width="62"
   height="62"
   version="1"
   id="svg5"
   sodipodi:docname="lynx.svg"
   inkscape:version="1.4 (unknown)"
   xmlns:inkscape="http://www.inkscape.org/namespaces/inkscape"
   xmlns:sodipodi="http://sodipodi.sourceforge.net/DTD/sodipodi-0.dtd"
   xmlns="http://www.w3.org/2000/svg"
   xmlns:svg="http://www.w3.org/2000/svg">
  <defs
     id="defs5" />
  <sodipodi:namedview
     id="namedview5"
     pagecolor="#ffffff"
     bordercolor="#000000"
     borderopacity="0.25"
     inkscape:showpageshadow="2"
     inkscape:pageopacity="0.0"
     inkscape:pagecheckerboard="0"
     inkscape:deskcolor="#d1d1d1"
     inkscape:zoom="8.5405241"
     inkscape:cx="27.925687"
     inkscape:cy="27.340243"
     inkscape:window-width="1920"
     inkscape:window-height="996"
     inkscape:window-x="0"
     inkscape:window-y="0"
     inkscape:window-maximized="1"
     inkscape:current-layer="svg5" />
  <g
     id="g5"
     transform="matrix(0.98189902,0,0,0.98245612,-0.41777874,-0.92982342)">
    <path
       style="opacity:0.2"
       d="m 4.0512391,32.000974 c -0.01174,0.334709 -0.05078,0.662298 -0.05078,0.999967 C 4.0004588,48.51242 16.488039,61 31.999518,61 47.510997,61 59.998577,48.51242 59.998577,33.000941 c 0,-0.337669 -0.03904,-0.665258 -0.05078,-0.999967 -0.527982,15.041495 -12.775571,26.999093 -27.949061,26.999093 -15.17389,0 -27.4210786,-11.957598 -27.9490608,-26.999093 z"
       id="path1" />
    <rect
       style="fill:#2d3d53;fill-opacity:1"
       width="56"
       height="56"
       x="-60"
       y="-59.990002"
       rx="27.999001"
       ry="27.999001"
       transform="matrix(0,-1,-1,0,0,0)"
       id="rect1" />
    <path
       style="fill:#f2f2f2"
       d="m 12.220565,51.780343 17.307818,-22.253252 2.342121,2.342121 2.602913,2.602913 z"
       id="path2" />
    <path
       style="fill:#c83771"
       d="m 51.781035,12.220673 -22.253252,17.307818 4.945034,4.945034 z"
       id="path3" />
    <path
       style="opacity:0.2;fill:#ffffff"
       d="m 51.781035,12.220673 -39.56067,39.55867 c -10.9582322,-10.958231 -10.9582322,-28.603038 0,-39.56067 10.958231,-10.9582321 28.603039,-10.9582321 39.56067,0 z"
       id="path4" />
    <path
       style="opacity:0.1;fill:#ffffff"
       d="m 32.003906,4.0019531 c -15.511679,0 -27.9999998,12.4885209 -27.9999998,27.9999999 -6.73e-5,0.113774 0.011295,0.22382 0.017578,0.335938 C 4.3730102,17.136645 16.71495,5.0019531 32.003906,5.0019531 c 15.288759,0 27.630891,12.1346919 27.982422,27.3359379 0.0064,-0.112118 0.01758,-0.222164 0.01758,-0.335938 0,-15.511479 -12.488521,-27.9999999 -28,-27.9999999 z"
       id="path5" />
  </g>
</svg>
