<?xml version="1.0" encoding="UTF-8" standalone="no"?>
<svg
   width="62"
   height="62"
   version="1.1"
   id="svg29"
   sodipodi:docname="LyricsFinder.svg"
   inkscape:version="1.4 (unknown)"
   xmlns:inkscape="http://www.inkscape.org/namespaces/inkscape"
   xmlns:sodipodi="http://sodipodi.sourceforge.net/DTD/sodipodi-0.dtd"
   xmlns:xlink="http://www.w3.org/1999/xlink"
   xmlns="http://www.w3.org/2000/svg"
   xmlns:svg="http://www.w3.org/2000/svg">
  <defs
     id="defs29">
    <linearGradient
       id="linearGradient1"
       inkscape:collect="always">
      <stop
         style="stop-color:#8d5fd3;stop-opacity:1"
         offset="0"
         id="stop1" />
      <stop
         style="stop-color:#ffdd55;stop-opacity:1"
         offset="1"
         id="stop6" />
    </linearGradient>
    <linearGradient
       id="linearGradient29"
       inkscape:collect="always">
      <stop
         style="stop-color:#2d3d53;stop-opacity:1;"
         offset="0"
         id="stop29" />
      <stop
         style="stop-color:#354864;stop-opacity:1;"
         offset="1"
         id="stop30" />
    </linearGradient>
    <linearGradient
       inkscape:collect="always"
       xlink:href="#linearGradient29"
       id="linearGradient30"
       x1="30.782633"
       y1="60"
       x2="30.193521"
       y2="5"
       gradientUnits="userSpaceOnUse"
       gradientTransform="matrix(0.98214286,0,0,0.98245614,-0.42857152,-0.92982455)" />
    <linearGradient
       id="paint0_linear_8_764"
       x1="8.6153803"
       y1="18.230801"
       x2="8.6153803"
       y2="3"
       gradientUnits="userSpaceOnUse"
       gradientTransform="matrix(1.818183,0,0,1.8299164,-47.032104,0.40362167)">
      <stop
         stop-color="#5558FF"
         id="stop2" />
      <stop
         offset="1"
         stop-color="#00C0FF"
         id="stop3" />
    </linearGradient>
    <linearGradient
       id="paint1_linear_8_764"
       x1="16.5128"
       y1="20.4872"
       x2="16.5128"
       y2="4.8001699"
       gradientUnits="userSpaceOnUse"
       gradientTransform="matrix(1.818183,0,0,1.8299164,-47.032104,0.40362167)">
      <stop
         stop-color="#5558FF"
         id="stop4" />
      <stop
         offset="1"
         stop-color="#00C0FF"
         id="stop5" />
    </linearGradient>
    <linearGradient
       inkscape:collect="always"
       xlink:href="#linearGradient1"
       id="linearGradient6"
       x1="-45.213918"
       y1="19.828921"
       x2="-17.521528"
       y2="19.828921"
       gradientUnits="userSpaceOnUse" />
    <linearGradient
       inkscape:collect="always"
       xlink:href="#linearGradient1"
       id="linearGradient8"
       x1="-28.803795"
       y1="23.540453"
       x2="-5.2139177"
       y2="23.540453"
       gradientUnits="userSpaceOnUse" />
  </defs>
  <sodipodi:namedview
     id="namedview29"
     pagecolor="#ffffff"
     bordercolor="#000000"
     borderopacity="0.25"
     inkscape:showpageshadow="2"
     inkscape:pageopacity="0.0"
     inkscape:pagecheckerboard="0"
     inkscape:deskcolor="#d1d1d1"
     inkscape:zoom="7.0710678"
     inkscape:cx="1.4849242"
     inkscape:cy="25.243712"
     inkscape:window-width="1920"
     inkscape:window-height="996"
     inkscape:window-x="0"
     inkscape:window-y="0"
     inkscape:window-maximized="1"
     inkscape:current-layer="svg29" />
  <rect
     style="opacity:0.2;stroke-width:0.9823"
     width="55"
     height="55.017544"
     x="3.5"
     y="3.9824562"
     ry="13.754386"
     id="rect1" />
  <rect
     style="fill:url(#linearGradient30);stroke-width:0.9823"
     width="55"
     height="55.017544"
     x="3.5"
     y="3"
     ry="13.754386"
     id="rect2" />
  <path
     style="opacity:0.1;fill:#ffffff;stroke-width:0.9823"
     d="M 17.25,3 C 9.6324999,3 3.4999999,9.1344561 3.4999999,16.754386 v 0.982456 c 0,-7.61993 6.1325,-13.7543858 13.7500001,-13.7543858 h 27.5 c 7.6175,0 13.75,6.1344558 13.75,13.7543858 V 16.754386 C 58.5,9.1344561 52.3675,3 44.75,3 Z"
     id="path28" />
  <g
     id="g1"
     transform="translate(56.213918,9.1066305)">
    <path
       opacity="1"
       fill-rule="evenodd"
       clip-rule="evenodd"
       d="m -45.213918,7.4417558 c 0,-0.4106515 0.162098,-0.8044866 0.450594,-1.0948754 0.288544,-0.2903718 0.679832,-0.4535084 1.087869,-0.4535084 h 24.61538 c 0.407996,0 0.799277,0.1631395 1.087812,0.4535084 0.288557,0.2903888 0.450735,0.6842239 0.450735,1.0948754 0,0.4106695 -0.162178,0.8045052 -0.450735,1.0948761 -0.288535,0.2903887 -0.679816,0.4535259 -1.087812,0.4535259 h -24.61538 c -0.408037,0 -0.799325,-0.16314 -1.087869,-0.4535259 -0.288499,-0.2903709 -0.450594,-0.6842066 -0.450594,-1.0948761 z m 0,8.2580862 c 0,-0.410647 0.162098,-0.80449 0.450594,-1.094869 0.288544,-0.290381 0.679832,-0.453523 1.087869,-0.453523 h 20.512829 c 0.407999,0 0.799277,0.163145 1.087818,0.453523 0.288549,0.290379 0.450728,0.684222 0.450728,1.094869 0,0.410657 -0.162179,0.804496 -0.450728,1.094879 -0.288541,0.290383 -0.679819,0.453524 -1.087818,0.453524 h -20.512829 c -0.408037,0 -0.799325,-0.163147 -1.087869,-0.453524 -0.288499,-0.290383 -0.450594,-0.684222 -0.450594,-1.094879 z m 0,8.258104 c 0,-0.410641 0.162098,-0.804428 0.450594,-1.094847 0.288544,-0.290401 0.679832,-0.453629 1.087869,-0.453629 h 12.307692 c 0.40804,0 0.799344,0.163228 1.087857,0.453629 0.288525,0.290419 0.450619,0.684206 0.450619,1.094847 0,0.410634 -0.162101,0.804419 -0.450619,1.094837 -0.288513,0.290401 -0.679817,0.453453 -1.087857,0.453453 h -12.307692 c -0.408037,0 -0.799325,-0.16305 -1.087869,-0.453453 -0.288499,-0.290418 -0.450594,-0.684203 -0.450594,-1.094837 z m 0,8.258048 c 0,-0.410636 0.162098,-0.804433 0.450594,-1.094838 0.288544,-0.29041 0.679832,-0.453454 1.087869,-0.453454 h 10.256425 c 0.408009,0 0.799326,0.163067 1.087849,0.453454 0.288518,0.290405 0.450596,0.684202 0.450596,1.094838 0,0.410629 -0.162099,0.804607 -0.450596,1.094833 -0.288523,0.290418 -0.67984,0.453643 -1.087849,0.453643 h -10.256425 c -0.408037,0 -0.799325,-0.163225 -1.087869,-0.453643 -0.288499,-0.290226 -0.450594,-0.684204 -0.450594,-1.094833 z"
       id="path1"
       style="fill:url(#linearGradient6)" />
    <path
       d="m -10.147167,9.4918669 c 0.5701903,-0.2126366 1.2512792,-0.3922434 1.989641,-0.2580555 0.9067317,0.1651658 1.714916,0.6792283 2.2563698,1.4286536 0.4410877,0.611103 0.5743583,1.3089 0.6318182,1.92 0.055417,0.592517 0.055417,1.33368 0.055417,2.178065 v 0.227099 c 0,0.619361 0.00351,1.279987 -0.2174572,1.889037 -0.1743838,0.481284 -0.4483605,0.91973 -0.8041792,1.286186 -0.4512705,0.464533 -1.043993,0.749457 -1.5999978,1.015711 l -0.1394999,0.06813 -3.6614529,1.769168 c -0.756902,0.365437 -1.419453,0.685484 -1.977456,0.891906 -0.535453,0.200193 -1.16928,0.371659 -1.856372,0.280703 v 8.848563 c 0,3.745106 -2.943629,6.856334 -6.666729,6.856334 -3.723082,0 -6.666729,-3.111228 -6.666729,-6.856334 0,-3.747123 2.943647,-6.858341 6.666729,-6.858341 1.275458,-0.0018 2.523646,0.372936 3.589828,1.077822 v -7.492222 h 0.0057 c -0.0057,-0.348924 -0.0057,-0.724658 -0.0057,-1.125157 v -0.225036 c 0,-0.619367 -0.0035,-1.282073 0.217265,-1.891107 0.174383,-0.481026 0.449275,-0.920781 0.804192,-1.286195 0.451271,-0.464523 1.044184,-0.749422 1.600001,-1.015747 l 0.139488,-0.06809 3.661632,-1.769289 c 0.756919,-0.365418 1.419453,-0.6854169 1.977452,-0.891886 z"
       id="path2"
       style="fill:url(#linearGradient8)" />
  </g>
</svg>
