<?xml version="1.0" encoding="UTF-8" standalone="no"?>
<svg
   width="62"
   height="62"
   version="1.1"
   id="svg6"
   sodipodi:docname="lzdoom.svg"
   inkscape:version="1.4 (unknown)"
   xmlns:inkscape="http://www.inkscape.org/namespaces/inkscape"
   xmlns:sodipodi="http://sodipodi.sourceforge.net/DTD/sodipodi-0.dtd"
   xmlns:xlink="http://www.w3.org/1999/xlink"
   xmlns="http://www.w3.org/2000/svg"
   xmlns:svg="http://www.w3.org/2000/svg">
  <defs
     id="defs6">
    <linearGradient
       id="linearGradient6"
       inkscape:collect="always">
      <stop
         style="stop-color:#8044ba;stop-opacity:1;"
         offset="0"
         id="stop6" />
      <stop
         style="stop-color:#a67cd0;stop-opacity:1;"
         offset="1"
         id="stop7" />
    </linearGradient>
    <linearGradient
       inkscape:collect="always"
       xlink:href="#linearGradient6"
       id="linearGradient7"
       x1="32"
       y1="60"
       x2="32.67519"
       y2="5.008512"
       gradientUnits="userSpaceOnUse" />
  </defs>
  <sodipodi:namedview
     id="namedview6"
     pagecolor="#ffffff"
     bordercolor="#000000"
     borderopacity="0.25"
     inkscape:showpageshadow="2"
     inkscape:pageopacity="0.0"
     inkscape:pagecheckerboard="0"
     inkscape:deskcolor="#d1d1d1"
     inkscape:zoom="7.0710678"
     inkscape:cx="24.678027"
     inkscape:cy="42.497118"
     inkscape:window-width="1920"
     inkscape:window-height="996"
     inkscape:window-x="0"
     inkscape:window-y="0"
     inkscape:window-maximized="1"
     inkscape:current-layer="svg6" />
  <g
     id="g6"
     transform="matrix(0.98214286,0,0,0.98245614,-0.42857152,-0.92982455)">
    <circle
       cx="32"
       cy="33"
       r="28"
       style="opacity:0.2"
       id="circle1" />
    <circle
       cx="32"
       cy="32"
       r="28"
       style="fill:url(#linearGradient7)"
       id="circle2" />
    <path
       d="m 17,23 v 10.5 c 0,4.9 2.7,6.5 2.7,6.5 H 32"
       style="opacity:0.2;fill:none;stroke:#000000;stroke-width:6;stroke-linejoin:round"
       id="path2" />
    <path
       d="m 17,22 v 10.5 c 0,4.9 2.7,6.5 2.7,6.5 H 32"
       style="fill:none;stroke:#2d3d53;stroke-width:6;stroke-linejoin:round;stroke-opacity:1"
       id="path3" />
    <path
       d="M 29,26 H 46 L 32,40 h 17"
       style="opacity:0.2;fill:none;stroke:#000000;stroke-width:6;stroke-linejoin:round"
       id="path4" />
    <path
       d="M 29,25 H 46 L 32,39 h 17"
       style="fill:none;stroke:#f2f2f2;stroke-width:6;stroke-linejoin:round;stroke-opacity:1"
       id="path5" />
    <path
       d="M 32,4 A 28,28 0 0 0 4,32 28,28 0 0 0 4.0214844,32.585938 28,28 0 0 1 32,5 28,28 0 0 1 59.978516,32.414062 28,28 0 0 0 60,32 28,28 0 0 0 32,4 Z"
       style="opacity:0.1;fill:#ffffff"
       id="path6" />
  </g>
</svg>
