<?xml version="1.0" encoding="UTF-8" standalone="no"?>
<svg
   width="62"
   height="62"
   version="1.1"
   id="svg25"
   sodipodi:docname="magictree.svg"
   inkscape:version="1.4 (unknown)"
   xmlns:inkscape="http://www.inkscape.org/namespaces/inkscape"
   xmlns:sodipodi="http://sodipodi.sourceforge.net/DTD/sodipodi-0.dtd"
   xmlns="http://www.w3.org/2000/svg"
   xmlns:svg="http://www.w3.org/2000/svg">
  <defs
     id="defs25" />
  <sodipodi:namedview
     id="namedview25"
     pagecolor="#ffffff"
     bordercolor="#000000"
     borderopacity="0.25"
     inkscape:showpageshadow="2"
     inkscape:pageopacity="0.0"
     inkscape:pagecheckerboard="0"
     inkscape:deskcolor="#d1d1d1"
     inkscape:zoom="10"
     inkscape:cx="34.45"
     inkscape:cy="29.55"
     inkscape:window-width="1920"
     inkscape:window-height="996"
     inkscape:window-x="0"
     inkscape:window-y="0"
     inkscape:window-maximized="1"
     inkscape:current-layer="svg25" />
  <g
     id="g25"
     transform="matrix(0.99999998,0,0,0.98245379,-0.9999993,-0.92968112)">
    <path
       d="m 32.258786,21.006126 a 5.5213578,5.5618986 0 0 0 -5.040969,2.77524 l -7.237971,12.629787 -7.240664,12.629788 a 5.5213578,5.5618986 0 0 0 1.68751,7.386157 c 0,0 6.955485,4.572902 17.573306,4.572902 10.617823,0 17.573307,-4.572902 17.573307,-4.572902 a 5.5213578,5.5618986 0 0 0 1.687514,-7.386157 L 44.020152,36.411153 36.782183,23.781366 a 5.5213578,5.5618986 0 0 0 -4.523397,-2.77524 z"
       style="opacity:0.2"
       id="path1" />
    <path
       d="m 32.258786,20.006127 a 5.5213578,5.5618986 0 0 0 -5.040969,2.77524 l -7.237971,12.629787 -7.240664,12.629788 a 5.5213578,5.5618986 0 0 0 1.68751,7.386157 c 0,0 6.955485,4.572902 17.573306,4.572902 10.617823,0 17.573307,-4.572902 17.573307,-4.572902 a 5.5213578,5.5618986 0 0 0 1.687514,-7.386157 L 44.020152,35.411154 36.782183,22.781367 a 5.5213578,5.5618986 0 0 0 -4.523397,-2.77524 z"
       style="fill:#7137c8"
       id="path2" />
    <path
       d="m 32.219968,16.005206 a 4.6931545,4.7276142 0 0 0 -4.284824,2.358953 L 21.78287,29.099478 15.628305,39.8348 a 4.6931545,4.7276142 0 0 0 1.434383,6.278233 c 0,0 5.912163,3.886966 14.93731,3.886966 9.025151,0 14.937313,-3.886966 14.937313,-3.886966 A 4.6931545,4.7276142 0 0 0 48.371696,39.8348 L 42.21713,29.099478 36.064856,18.364159 a 4.6931545,4.7276142 0 0 0 -3.844888,-2.358953 z"
       style="opacity:0.2"
       id="path3" />
    <path
       d="M 32.219968,15.005207 A 4.6931545,4.7276142 0 0 0 27.935144,17.36416 L 21.78287,28.099479 15.628305,38.834801 a 4.6931545,4.7276142 0 0 0 1.434383,6.278233 c 0,0 5.912163,3.886966 14.93731,3.886966 9.025151,0 14.937313,-3.886966 14.937313,-3.886966 a 4.6931545,4.7276142 0 0 0 1.434385,-6.278233 L 42.21713,28.099479 36.064856,17.36416 a 4.6931545,4.7276142 0 0 0 -3.844888,-2.358953 z"
       style="fill:#8d5fd3"
       id="path4" />
    <path
       d="m 32.181148,11.004305 a 3.8649483,3.8933268 0 0 0 -3.528675,1.942667 l -5.066576,8.840844 -5.068461,8.840848 a 3.8649483,3.8933268 0 0 0 1.181256,5.170306 c 0,0 4.868836,3.201029 12.301305,3.201029 7.432473,0 12.301309,-3.201029 12.301309,-3.201029 a 3.8649483,3.8933268 0 0 0 1.181258,-5.170306 l -5.068463,-8.840848 -5.066576,-8.840844 a 3.8649483,3.8933268 0 0 0 -3.166377,-1.942667 z"
       style="opacity:0.2"
       id="path5" />
    <path
       d="m 32.181148,10.004306 a 3.8649483,3.8933268 0 0 0 -3.528675,1.942667 l -5.066576,8.840844 -5.068461,8.840848 a 3.8649483,3.8933268 0 0 0 1.181256,5.170306 c 0,0 4.868836,3.201029 12.301305,3.201029 7.432473,0 12.301309,-3.201029 12.301309,-3.201029 a 3.8649483,3.8933268 0 0 0 1.181258,-5.170306 l -5.068463,-8.840848 -5.066576,-8.840844 a 3.8649483,3.8933268 0 0 0 -3.166377,-1.942667 z"
       style="fill:#aa87de"
       id="path6" />
    <path
       d="m 31.99987,4.9998625 c -0.991665,0.014677 -1.698889,0.633369 -2.030788,1.6575359 l 0.01238,-0.046187 -1.558131,5.4015176 h -5.254472 c -0.01141,-1.89e-4 -0.0223,-1.89e-4 -0.03376,0 -0.627475,0.02106 -1.193264,0.324506 -1.591893,0.827159 -0.862111,1.024965 -0.679387,2.224876 0.415366,2.989281 l 4.131144,3.127085 -1.603145,5.158447 c -0.0018,0.0056 -0.0034,0.01141 -0.0051,0.01719 -0.244961,0.83346 -0.01467,1.692124 0.601565,2.279516 0.0042,0.0044 0.0096,0.0086 0.01437,0.01292 0.740445,0.681756 1.780815,0.768404 2.617004,0.204105 0.01591,-0.01073 0.03173,-0.02179 0.04706,-0.0333 l 4.238588,-3.170048 4.238568,3.170048 c 0.01532,0.01141 0.03114,0.02265 0.04706,0.0333 0.836189,0.564299 1.876562,0.477651 2.617004,-0.204105 0.0044,-0.0042 0.0096,-0.0085 0.01437,-0.01292 0.616172,-0.587392 0.846525,-1.446056 0.601563,-2.279516 -0.0017,-0.0058 -0.0034,-0.01141 -0.0051,-0.01719 l -1.603239,-5.158447 4.131144,-3.127083 c 1.094754,-0.764407 1.277477,-1.964318 0.415366,-2.989283 -0.398627,-0.502652 -0.964418,-0.806092 -1.591893,-0.827157 -0.01141,-1.9e-4 -0.02231,-1.9e-4 -0.03376,0 h -5.254472 l -1.558131,-5.4015192 0.01238,0.046187 C 33.698758,5.6332315 32.991536,5.0145429 31.99987,4.9998625 Z"
       style="opacity:0.2"
       id="path7" />
    <path
       d="m 31.99987,3.9998635 c -0.991665,0.014677 -1.698889,0.633369 -2.030788,1.6575359 l 0.01238,-0.046187 -1.558131,5.4015176 h -5.254472 c -0.01141,-1.89e-4 -0.0223,-1.89e-4 -0.03376,0 -0.627475,0.02106 -1.193264,0.324506 -1.591893,0.827159 -0.862111,1.024965 -0.679387,2.224876 0.415366,2.989281 l 4.131144,3.127085 -1.603145,5.158447 c -0.0018,0.0056 -0.0034,0.01141 -0.0051,0.01719 -0.244961,0.83346 -0.01467,1.692124 0.601565,2.279516 0.0042,0.0044 0.0096,0.0086 0.01437,0.01292 0.740445,0.681756 1.780815,0.768404 2.617004,0.204105 0.01591,-0.01073 0.03173,-0.02179 0.04706,-0.0333 l 4.238588,-3.170048 4.238568,3.170048 c 0.01532,0.01141 0.03114,0.02265 0.04706,0.0333 0.836189,0.564299 1.876562,0.477651 2.617004,-0.204105 0.0044,-0.0042 0.0096,-0.0085 0.01437,-0.01292 0.616172,-0.587392 0.846525,-1.446056 0.601563,-2.279516 -0.0017,-0.0058 -0.0034,-0.01141 -0.0051,-0.01719 l -1.603239,-5.158447 4.131144,-3.127083 c 1.094754,-0.764407 1.277477,-1.964318 0.415366,-2.989283 -0.398627,-0.502652 -0.964418,-0.806092 -1.591893,-0.827157 -0.01141,-1.9e-4 -0.02231,-1.9e-4 -0.03376,0 h -5.254472 l -1.558131,-5.4015192 0.01238,0.046187 C 33.698758,4.6332325 32.991536,4.0145439 31.99987,3.9998635 Z"
       style="fill:#e5e5e5;fill-opacity:1"
       id="path8" />
    <path
       d="m 28,32.999999 a 3.0000002,3.0000002 0 0 1 -3,3 3.0000002,3.0000002 0 0 1 -3,-3 3.0000002,3.0000002 0 0 1 3,-3.000001 3.0000002,3.0000002 0 0 1 3,3.000001 z"
       style="opacity:0.2"
       id="path9" />
    <path
       d="M 28,32 A 3.0000002,3.0000002 0 0 1 25,35 3.0000002,3.0000002 0 0 1 22,32 3.0000002,3.0000002 0 0 1 25,28.999999 3.0000002,3.0000002 0 0 1 28,32 Z"
       style="fill:#ffffff"
       id="path10" />
    <path
       d="m 44,41.999998 a 3.0000002,3.0000002 0 0 1 -3,3.000001 3.0000002,3.0000002 0 0 1 -3,-3.000001 3.0000002,3.0000002 0 0 1 3,-3 3.0000002,3.0000002 0 0 1 3,3 z"
       style="opacity:0.2"
       id="path11" />
    <path
       d="M 44,40.999999 A 3.0000002,3.0000002 0 0 1 41,44 a 3.0000002,3.0000002 0 0 1 -3,-3.000001 3.0000002,3.0000002 0 0 1 3,-3 3.0000002,3.0000002 0 0 1 3,3 z"
       style="fill:#ffffff"
       id="path12" />
    <path
       d="m 28,54.999999 a 3.0000002,3.0000002 0 0 1 -3,3 3.0000002,3.0000002 0 0 1 -3,-3 3.0000002,3.0000002 0 0 1 3,-3 3.0000002,3.0000002 0 0 1 3,3 z"
       style="opacity:0.2"
       id="path13" />
    <path
       d="m 28,54 a 3.0000002,3.0000002 0 0 1 -3,3 3.0000002,3.0000002 0 0 1 -3,-3 3.0000002,3.0000002 0 0 1 3,-3 3.0000002,3.0000002 0 0 1 3,3 z"
       style="fill:#ffffff"
       id="path14" />
    <path
       d="m 37,31.500018 a 1.5000001,1.5000001 0 0 1 -1.5,1.5 1.5000001,1.5000001 0 0 1 -1.5,-1.5 1.5000001,1.5000001 0 0 1 1.5,-1.500001 1.5000001,1.5000001 0 0 1 1.5,1.500001 z"
       style="opacity:0.2"
       id="path15" />
    <path
       d="m 37,30.500019 a 1.5000001,1.5000001 0 0 1 -1.5,1.5 1.5000001,1.5000001 0 0 1 -1.5,-1.5 1.5000001,1.5000001 0 0 1 1.5,-1.500001 1.5000001,1.5000001 0 0 1 1.5,1.500001 z"
       style="fill:#ffffff"
       id="path16" />
    <path
       d="M 31,45.50001 A 1.4999996,1.4999996 0 0 1 29.499999,47.000009 1.4999996,1.4999996 0 0 1 28,45.50001 1.4999996,1.4999996 0 0 1 29.499999,44.000009 1.4999996,1.4999996 0 0 1 31,45.50001 Z"
       style="opacity:0.2"
       id="path17" />
    <path
       d="M 31,44.500011 A 1.4999996,1.4999996 0 0 1 29.499999,46.00001 1.4999996,1.4999996 0 0 1 28,44.500011 1.4999996,1.4999996 0 0 1 29.499999,43.00001 1.4999996,1.4999996 0 0 1 31,44.500011 Z"
       style="fill:#ffffff"
       id="path18" />
    <path
       d="m 40,54.499999 a 1.5000001,1.5000001 0 0 1 -1.5,1.5 1.5000001,1.5000001 0 0 1 -1.5,-1.5 1.5000001,1.5000001 0 0 1 1.5,-1.5 1.5000001,1.5000001 0 0 1 1.5,1.5 z"
       style="opacity:0.2"
       id="path19" />
    <path
       d="M 40,53.5 A 1.5000001,1.5000001 0 0 1 38.5,55 1.5000001,1.5000001 0 0 1 37,53.5 1.5000001,1.5000001 0 0 1 38.5,52 1.5000001,1.5000001 0 0 1 40,53.5 Z"
       style="fill:#ffffff"
       id="path20" />
    <path
       d="m 22,41.499999 a 1.5000001,1.5000001 0 0 1 -1.5,1.5 1.5000001,1.5000001 0 0 1 -1.5,-1.5 1.5000001,1.5000001 0 0 1 1.5,-1.5 1.5000001,1.5000001 0 0 1 1.5,1.5 z"
       style="opacity:0.2"
       id="path21" />
    <path
       d="M 22,40.5 A 1.5000001,1.5000001 0 0 1 20.5,42 1.5000001,1.5000001 0 0 1 19,40.5 1.5000001,1.5000001 0 0 1 20.5,39 1.5000001,1.5000001 0 0 1 22,40.5 Z"
       style="fill:#ffffff"
       id="path22" />
    <path
       d="m 48.999991,50.499999 a 1.5000001,1.5000001 0 0 1 -1.5,1.5 1.5000001,1.5000001 0 0 1 -1.5,-1.5 1.5000001,1.5000001 0 0 1 1.5,-1.5 1.5000001,1.5000001 0 0 1 1.5,1.5 z"
       style="opacity:0.2"
       id="path23" />
    <path
       d="m 48.999991,49.5 a 1.5000001,1.5000001 0 0 1 -1.5,1.5 1.5000001,1.5000001 0 0 1 -1.5,-1.5 1.5000001,1.5000001 0 0 1 1.5,-1.5 1.5000001,1.5000001 0 0 1 1.5,1.5 z"
       style="fill:#ffffff"
       id="path24" />
    <path
       d="m 32,4 c -0.991665,0.014677 -1.699351,0.6340362 -2.03125,1.6582031 l -1.544922,5.3554689 h -5.255859 c -0.01141,-1.89e-4 -0.02174,-1.89e-4 -0.0332,0 -0.627475,0.02106 -1.193168,0.323519 -1.591797,0.826172 -0.498602,0.592788 -0.635616,1.242253 -0.460938,1.833984 0.08467,-0.282348 0.234453,-0.564716 0.460938,-0.833984 0.398629,-0.502653 0.964322,-0.805112 1.591797,-0.826172 0.01146,-1.89e-4 0.02179,-1.89e-4 0.0332,0 h 5.255859 L 29.96875,6.6582031 C 30.300649,5.6340362 31.008335,5.014677 32,5 c 0.991666,0.01468 1.69909,0.6340358 2.03125,1.6582031 l 1.544922,5.3554689 h 5.255859 c 0.01145,-1.9e-4 0.02179,-1.9e-4 0.0332,0 0.627475,0.02107 1.19317,0.32352 1.591797,0.826172 0.226485,0.269268 0.376266,0.551636 0.460938,0.833984 0.174678,-0.591731 0.03766,-1.241196 -0.460938,-1.833984 -0.398627,-0.502652 -0.964322,-0.805107 -1.591797,-0.826172 -0.01141,-1.9e-4 -0.02175,-1.9e-4 -0.0332,0 H 35.576172 L 34.03125,5.6582031 C 33.69909,4.6340358 32.991666,4.0146804 32,4 Z m -6.162109,14.765625 -1.351563,4.349609 c -0.0018,0.0056 -0.0022,0.0118 -0.0039,0.01758 -0.117933,0.401256 -0.121706,0.80569 -0.0293,1.185547 0.01298,-0.06203 0.01111,-0.123673 0.0293,-0.185547 0.0017,-0.0058 0.0021,-0.01198 0.0039,-0.01758 l 1.603516,-5.158203 z m 12.324218,0 -0.251953,0.191406 1.603516,5.158203 c 0.0017,0.0058 0.0042,0.01178 0.0059,0.01758 0.0176,0.0599 0.01462,0.119641 0.02734,0.179688 0.09097,-0.378244 0.09,-0.780418 -0.02734,-1.179688 -0.0017,-0.0058 -0.0042,-0.0118 -0.0059,-0.01758 z"
       style="opacity:0.2;fill:#ffffff"
       id="path25" />
  </g>
</svg>
