<?xml version="1.0" encoding="UTF-8" standalone="no"?>
<svg
   width="62"
   height="62"
   version="1.1"
   id="svg4"
   sodipodi:docname="mandelbulber2.svg"
   inkscape:version="1.4 (unknown)"
   xmlns:inkscape="http://www.inkscape.org/namespaces/inkscape"
   xmlns:sodipodi="http://sodipodi.sourceforge.net/DTD/sodipodi-0.dtd"
   xmlns="http://www.w3.org/2000/svg"
   xmlns:svg="http://www.w3.org/2000/svg">
  <defs
     id="defs4" />
  <sodipodi:namedview
     id="namedview4"
     pagecolor="#ffffff"
     bordercolor="#000000"
     borderopacity="0.25"
     inkscape:showpageshadow="2"
     inkscape:pageopacity="0.0"
     inkscape:pagecheckerboard="0"
     inkscape:deskcolor="#d1d1d1"
     inkscape:zoom="10"
     inkscape:cx="30.05"
     inkscape:cy="26.95"
     inkscape:window-width="1920"
     inkscape:window-height="996"
     inkscape:window-x="0"
     inkscape:window-y="0"
     inkscape:window-maximized="1"
     inkscape:current-layer="svg4" />
  <g
     id="g4"
     transform="translate(-0.5,-1)">
    <ellipse
       style="opacity:0.2;stroke-width:0.982302"
       cx="31.5"
       cy="32.491226"
       id="circle1"
       rx="27.5"
       ry="27.508774" />
    <ellipse
       style="fill:#65564d;stroke-width:0.982302;fill-opacity:1"
       cx="31.5"
       cy="31.508774"
       id="circle2"
       rx="27.5"
       ry="27.508774" />
    <path
       style="opacity:0.3;fill:#ffcc00;fill-rule:evenodd;stroke-width:0.982302"
       d="M 31.787348,4.0188046 C 31.045662,4.0060722 30.290614,4.0381984 29.534174,4.0725328 15.367225,5.0992206 4.3129238,16.749641 4.026855,30.955364 4.037132,31.214638 4.04334,31.473669 4.061772,31.734422 4.9684242,44.555943 16.123525,55.092779 29.252188,54.047688 40.718681,53.134914 50.135854,43.086429 49.063469,31.291171 48.143609,21.173662 39.201551,12.870115 28.744623,13.979991 19.984262,14.909792 12.795997,22.75829 13.958005,31.887552 c 0.942737,7.406562 7.706838,13.494843 15.509032,12.252683 6.045512,-0.962483 11.044934,-6.680557 9.667965,-13.171439 -0.497362,-2.344488 -1.848533,-4.384892 -3.765133,-5.765017 -1.916607,-1.38012 -4.572449,-2.051369 -7.167729,-1.224996 -1.68805,0.537493 -3.04901,1.624624 -3.963861,3.178015 -0.914854,1.553379 -1.208648,3.950016 0.0082,5.861726 0.96153,1.510839 1.873123,1.832722 3.273683,2.068527 0.700283,0.1179 1.667708,0.157311 2.693604,-0.510411 1.025889,-0.667724 1.571046,-2.045942 1.571044,-3.035633 h -5.500001 c 0,-0.246437 0.293489,-1.163152 0.929198,-1.576919 0.635718,-0.413771 1.078101,-0.32733 1.219239,-0.303564 0.279875,0.04713 -0.0309,-0.355641 0.445802,0.394894 0.01649,0.0015 0.03555,0.0036 0.09937,-0.104762 0.157908,-0.268134 0.666016,-0.65888 0.891598,-0.730707 0.827759,-0.263567 1.528732,-0.09813 2.288086,0.448629 0.759349,0.546805 1.40261,1.521381 1.597899,2.441945 0.656002,3.092312 -1.980313,6.089918 -5.153565,6.595119 -4.48499,0.714036 -8.613755,-3.008015 -9.187282,-7.513874 -0.746051,-5.8613 4.071328,-11.11991 9.909668,-11.739577 7.224058,-0.766748 13.607731,5.161593 14.260248,12.338647 0.780502,8.58579 -6.25477,16.096227 -14.76786,16.773901 C 18.878587,49.355881 10.245287,41.20353 9.5483384,31.347582 8.7496044,20.052244 18.015663,10.292495 29.209221,9.5796589 41.852544,8.7744948 52.734234,19.160403 53.459705,31.699503 54.269594,45.697717 42.766892,57.706189 28.889641,58.442645 l 0.02421,0.445944 c 0.859545,0.08357 1.722567,0.126612 2.58617,0.128943 14.986498,-0.0108 27.205075,-12.022945 27.475827,-27.011778 -0.01,-0.20809 -0.02887,-0.413869 -0.02683,-0.623247 0.05103,-5.375491 -1.465215,-9.206805 -3.20655,-12.814144 C 51.477475,10.57392 43.550277,5.1933207 34.548086,4.1826754 33.641368,4.0921576 32.720949,4.0348294 31.787348,4.0188046 Z m -2.90845,26.0366134 c -0.02421,-0.0022 -0.02337,-0.03702 0.0054,0.0082 -0.0044,-0.0068 -0.0013,-0.0015 -0.0054,-0.0082 z"
       id="path2" />
    <path
       style="opacity:0.2;fill-rule:evenodd;stroke-width:0.982302"
       d="m 30.389328,9.5359088 c -0.39141,0.00355 -0.784616,0.018971 -1.179725,0.044132 C 18.297682,10.274949 9.2211933,19.568275 9.5111247,30.499449 9.7706081,19.99928 18.626262,11.236478 29.209603,10.562497 c 12.643325,-0.8051633 23.525013,9.579595 24.250484,22.118695 0.01702,0.294193 0.02058,0.586481 0.02683,0.878835 0.01206,-0.616253 0.0095,-1.236277 -0.02683,-1.861292 C 52.75729,19.55148 42.522942,9.4249403 30.389328,9.5359088 Z m 0.278144,9.8495042 c -0.443742,-0.0031 -0.891271,0.01928 -1.342771,0.06716 -5.601063,0.59449 -10.248637,5.459905 -9.959543,11.029601 0.267332,-5.148695 4.690777,-9.487929 9.959543,-10.047141 7.224058,-0.766748 13.607735,5.161203 14.260251,12.338262 0.02833,0.311524 0.0246,0.618394 0.03259,0.926809 0.02671,-0.629524 0.0259,-1.265212 -0.03259,-1.909266 -0.611735,-6.728486 -6.261314,-12.359615 -12.91748,-12.405425 z m -0.197579,9.717104 c -0.193981,0.01305 -0.39347,0.05117 -0.600408,0.117051 -0.225582,0.07181 -0.734077,0.462955 -0.891987,0.731088 -0.0639,0.108302 -0.08132,0.107004 -0.09784,0.105534 -0.476724,-0.750543 -0.16708,-0.348164 -0.446953,-0.395284 -0.141143,-0.02379 -0.582369,-0.110589 -1.218086,0.303182 -0.635709,0.413767 -0.93035,1.330863 -0.93035,1.577301 h 0.385566 c 0.14279,-0.226123 0.314486,-0.444952 0.544784,-0.594849 0.635717,-0.413764 1.076943,-0.326941 1.218086,-0.303176 0.279873,0.04711 -0.0298,-0.355259 0.446953,0.395285 0.01649,0.0015 0.03398,0.0028 0.09784,-0.105541 0.15791,-0.268125 0.666405,-0.659262 0.891987,-0.731082 0.827759,-0.263574 1.529112,-0.09783 2.288468,0.449012 0.759347,0.546797 1.402609,1.522149 1.597901,2.442707 0.03281,0.154725 0.05045,0.308497 0.06714,0.462444 0.04953,-0.473668 0.03631,-0.957107 -0.06714,-1.444902 -0.195292,-0.920558 -0.838554,-1.895903 -1.597901,-2.442708 -0.569517,-0.410092 -1.106101,-0.605103 -1.68806,-0.566062 z m -16.608185,1.433385 c -0.02016,0.767635 -0.0048,1.542837 0.09593,2.333338 0.942737,7.406562 7.706833,13.495995 15.509026,12.253835 5.505136,-0.876454 10.125947,-5.699687 9.871301,-11.455593 -0.277726,5.314114 -4.682716,9.647077 -9.871301,10.473134 -7.802193,1.242159 -14.566289,-4.847274 -15.509026,-12.253834 -0.05793,-0.454903 -0.07864,-0.90303 -0.09593,-1.35088 z m 9.604668,0.157346 c -0.08341,1.105389 0.124119,2.276438 0.780724,3.308116 0.961522,1.51084 1.871972,1.832723 3.272529,2.068529 0.700279,0.117899 1.667325,0.157309 2.693217,-0.510412 1.025898,-0.667725 1.571052,-2.045944 1.571048,-3.035635 h -0.164968 c -0.226839,0.781792 -0.692796,1.588922 -1.40608,2.053176 -1.025892,0.667729 -1.992938,0.628311 -2.693217,0.510419 -1.400557,-0.235805 -2.311007,-0.557689 -3.272529,-2.068529 -0.464115,-0.729229 -0.706814,-1.529031 -0.780724,-2.325664 z m -19.4184202,0.75028 c -0.00628,0.165274 -0.017755,0.329079 -0.021097,0.495065 0.010277,0.259274 0.016093,0.5183 0.034525,0.779052 C 4.9680397,45.539168 16.123144,56.075236 29.251807,55.030146 40.271654,54.152924 49.393931,44.836787 49.136361,33.642539 48.857395,44.395229 39.947887,53.196245 29.251807,54.047688 16.123144,55.092779 4.9680397,44.556709 4.0613842,31.735194 c -0.00692,-0.09765 -0.00909,-0.194418 -0.013428,-0.291666 z m 54.8829752,1.450654 c -0.0358,0.715534 -0.09493,1.424315 -0.184151,2.124179 a 27.499992,27.508766 0 0 0 0.184151,-2.124179 z m -0.35104,3.225602 c -0.08622,0.510505 -0.183505,1.017403 -0.297328,1.517821 a 27.499992,27.508766 0 0 0 0.297328,-1.517821 z m -0.665631,2.960801 c -0.106072,0.371464 -0.22037,0.738545 -0.341447,1.103347 a 27.499992,27.508766 0 0 0 0.341447,-1.103347 z m -0.876639,2.571275 c -0.131729,0.332031 -0.266386,0.662721 -0.410507,0.988212 A 27.499992,27.508766 0 0 0 57.037621,41.65186 Z M 55.9212,44.10032 c -0.217226,0.42123 -0.444924,0.83529 -0.682895,1.243424 A 27.499992,27.508766 0 0 0 55.9212,44.10032 Z m -1.315914,2.275765 c -0.295079,0.458415 -0.603595,0.906017 -0.9246,1.345121 a 27.499992,27.508766 0 0 0 0.9246,-1.345121 z m -1.538437,2.152966 c -0.344927,0.437133 -0.702012,0.864839 -1.072302,1.279875 a 27.499992,27.508766 0 0 0 1.072302,-1.279875 z m -1.853025,2.11842 c -0.350776,0.361788 -0.709951,0.715208 -1.079975,1.057292 a 27.499992,27.508766 0 0 0 1.079975,-1.057292 z m -2.240515,2.076201 c -0.27263,0.225139 -0.551223,0.443507 -0.83252,0.658172 a 27.499992,27.508766 0 0 0 0.83252,-0.658172 z m -2.202147,1.636794 c -0.25077,0.168159 -0.503127,0.335034 -0.759632,0.495066 a 27.499992,27.508766 0 0 0 0.759632,-0.495066 z m -2.393973,1.431463 c -0.214815,0.11436 -0.428298,0.232788 -0.646449,0.341557 a 27.499992,27.508766 0 0 0 0.646449,-0.341557 z m -2.551271,1.195455 c -0.20277,0.08242 -0.404868,0.165976 -0.61,0.243692 a 27.499992,27.508766 0 0 0 0.61,-0.243692 z m -2.681713,0.932559 c -0.202363,0.05868 -0.405747,0.114767 -0.609999,0.168865 a 27.499992,27.508766 0 0 0 0.609999,-0.168865 z m -2.808309,0.660094 c -0.1708,0.03048 -0.344139,0.05327 -0.516007,0.08063 a 27.499992,27.508766 0 0 0 0.516007,-0.08063 z m -2.67212,0.341556 c -0.30874,0.02433 -0.620767,0.03778 -0.932271,0.05183 a 27.499992,27.508766 0 0 0 0.932271,-0.05183 z"
       id="path3" />
    <path
       style="opacity:0.2;fill:#ffffff;fill-rule:evenodd;stroke-width:0.982302"
       d="M 31.787729,4.0191882 C 31.046044,4.0064568 30.290235,4.038582 29.533788,4.0729164 15.366845,5.0996037 4.3129239,16.750405 4.0268552,30.956136 c 0.00644,0.162195 0.013866,0.324902 0.021097,0.487392 C 4.5783488,17.463886 15.532375,6.0700641 29.533788,5.0553726 c 0.756447,-0.034338 1.512256,-0.066457 2.253941,-0.053728 0.933608,0.016021 1.853639,0.072582 2.760357,0.1631035 9.002191,1.0106454 16.929772,6.3912409 21.19472,14.3856849 1.741327,3.607346 3.256412,7.438654 3.205389,12.814147 -4.31e-4,0.0451 0.0046,0.0895 0.0059,0.134318 0.006,-0.16462 0.01813,-0.327792 0.02107,-0.493145 -0.01,-0.20809 -0.02887,-0.414257 -0.02683,-0.623633 0.051,-5.375493 -1.464091,-9.2068 -3.205419,-12.814138 C 51.477858,10.573537 43.550277,5.1929371 34.548086,4.1822918 33.641368,4.0917741 32.721337,4.0352131 31.787729,4.0191882 Z m -1.101072,9.8610208 c -0.640131,-0.0024 -1.28771,0.03043 -1.941265,0.09978 -8.32385,0.883472 -15.213074,8.016135 -14.883684,16.555911 0.213065,-8.097556 6.881871,-14.72416 14.883684,-15.573461 10.456928,-1.109875 19.398215,7.194443 20.318075,17.311952 0.04179,0.459455 0.06247,0.91443 0.0729,1.368146 0.02006,-0.774489 -8.44e-4,-1.558103 -0.0729,-2.350606 -0.862371,-9.48516 -8.774796,-17.376924 -18.37681,-17.411722 z m -0.539027,9.747803 c -0.643895,0.03168 -1.296287,0.14456 -1.945107,0.351152 -1.688043,0.537492 -3.050161,1.624241 -3.965015,3.177632 -0.565877,0.960838 -0.890977,2.244677 -0.771132,3.536452 0.07113,-0.942906 0.349989,-1.838918 0.771132,-2.553999 0.914854,-1.553384 2.276972,-2.640134 3.965015,-3.177626 2.595285,-0.826374 5.249969,-0.155894 7.166577,1.224225 1.916598,1.380126 3.268158,3.421682 3.76552,5.766177 0.12308,0.580191 0.178335,1.15046 0.20333,1.715457 0.04588,-0.877656 -0.0083,-1.777857 -0.20333,-2.697914 -0.497362,-2.34449 -1.848922,-4.386052 -3.76552,-5.766171 -1.437451,-1.035095 -3.289794,-1.670528 -5.22147,-1.575385 z m -10.782472,6.854162 c -0.02891,0.556597 -0.02291,1.120618 0.04986,1.692436 0.573528,4.505859 4.701525,8.228292 9.186492,7.514256 3.014476,-0.479923 5.538223,-3.209791 5.221468,-6.132677 -0.264576,2.529103 -2.54878,4.724711 -5.221468,5.150218 -4.484967,0.714035 -8.612964,-3.008398 -9.186492,-7.51425 -0.03033,-0.238212 -0.0376,-0.47403 -0.04986,-0.709983 z m -9.8540333,0.01728 c -0.014959,0.605414 -0.00712,1.214825 0.036447,1.830592 0.6969533,9.855943 9.3302393,18.009065 19.2687933,17.217915 8.204206,-0.653079 15.014868,-7.656097 14.801199,-15.847857 -0.329653,7.762532 -6.92671,14.238566 -14.801199,14.865405 -9.938554,0.791143 -18.57184,-7.361977 -19.2687937,-17.217925 -0.020096,-0.284195 -0.028965,-0.566002 -0.036447,-0.848135 z m 17.1587203,1.04194 c -0.251369,0.398073 -0.385566,0.825292 -0.385566,0.982457 h 5.334647 c 0.09941,-0.342641 0.164969,-0.680882 0.164968,-0.982457 z M 53.486942,33.56003 C 53.22919,46.745797 42.1469,57.738305 28.889261,58.441873 l 0.02491,0.447099 c 0.859553,0.08357 1.722195,0.126229 2.585798,0.12856 0.288205,-2.05e-4 0.573281,-0.01402 0.859376,-0.02304 11.985527,-2.30767 21.39293,-12.995432 21.127579,-25.434478 z"
       id="path4" />
  </g>
</svg>
