<?xml version="1.0" encoding="UTF-8" standalone="no"?>
<svg
   width="62"
   height="62"
   version="1.1"
   id="svg5"
   sodipodi:docname="MediaElch.svg"
   inkscape:version="1.4 (unknown)"
   xmlns:inkscape="http://www.inkscape.org/namespaces/inkscape"
   xmlns:sodipodi="http://sodipodi.sourceforge.net/DTD/sodipodi-0.dtd"
   xmlns:xlink="http://www.w3.org/1999/xlink"
   xmlns="http://www.w3.org/2000/svg"
   xmlns:svg="http://www.w3.org/2000/svg">
  <defs
     id="defs5">
    <linearGradient
       id="linearGradient8"
       inkscape:collect="always">
      <stop
         style="stop-color:#2d3d53;stop-opacity:1;"
         offset="0"
         id="stop8" />
      <stop
         style="stop-color:#464157;stop-opacity:1;"
         offset="1"
         id="stop10" />
    </linearGradient>
    <linearGradient
       id="linearGradient4217">
      <stop
         style="stop-color:#000000;stop-opacity:1;"
         offset="0"
         id="stop2" />
      <stop
         style="stop-color:#000000;stop-opacity:0;"
         offset="1"
         id="stop4" />
    </linearGradient>
    <linearGradient
       id="linearGradient4161">
      <stop
         style="stop-color:#334545;stop-opacity:1;"
         offset="0"
         id="stop7" />
      <stop
         style="stop-color:#4d6868;stop-opacity:1"
         offset="1"
         id="stop9" />
    </linearGradient>
    <linearGradient
       id="a-1-2"
       y1="510.79999"
       y2="527.14001"
       gradientUnits="userSpaceOnUse"
       x2="0">
      <stop
         stop-color="#7cbaf8"
         id="stop2-2-7" />
      <stop
         offset="1"
         stop-color="#f4fcff"
         id="stop4-70-0" />
    </linearGradient>
    <linearGradient
       id="c"
       y1="503.79999"
       x1="400.57001"
       y2="519.79999"
       x2="416.57001"
       gradientUnits="userSpaceOnUse">
      <stop
         stop-color="#292c2f"
         id="stop12" />
      <stop
         offset="1"
         stop-opacity="0"
         id="stop14" />
    </linearGradient>
    <linearGradient
       id="b"
       y1="542.79999"
       x1="408.57001"
       y2="521.79999"
       x2="387.57001"
       gradientUnits="userSpaceOnUse"
       gradientTransform="translate(-384.57,-499.8)">
      <stop
         stop-color="#197cf1"
         id="stop7-8" />
      <stop
         offset="1"
         stop-color="#20bcfa"
         id="stop9-7" />
    </linearGradient>
    <linearGradient
       xlink:href="#linearGradient1389"
       id="linearGradient4503-5-6"
       y1="37"
       y2="4"
       x2="0"
       gradientUnits="userSpaceOnUse"
       gradientTransform="matrix(1.0218446,0,0,0.99999999,21.748946,8.2587777)" />
    <linearGradient
       id="linearGradient1389">
      <stop
         style="stop-color:#ffaaaa;stop-opacity:1"
         id="stop1385"
         offset="0" />
      <stop
         offset="1"
         style="stop-color:#ff5555;stop-opacity:1"
         id="stop1387" />
    </linearGradient>
    <linearGradient
       id="paint543_linear_890_11"
       x1="978.5"
       y1="298"
       x2="978.5"
       y2="304"
       gradientUnits="userSpaceOnUse"
       gradientTransform="matrix(0.75000004,0,0,0.75000004,-717.38333,-173.49123)">
      <stop
         offset="0.189495"
         stop-color="#EFF2F6"
         id="stop1829" />
      <stop
         offset="0.850463"
         stop-color="#B7C6CD"
         id="stop1830" />
    </linearGradient>
    <linearGradient
       inkscape:collect="always"
       xlink:href="#linearGradient8"
       id="linearGradient10"
       x1="31.5"
       y1="59.017544"
       x2="30.677261"
       y2="34.448898"
       gradientUnits="userSpaceOnUse"
       gradientTransform="translate(-0.5,-1)" />
    <linearGradient
       id="linearGradient4144">
      <stop
         style="stop-color:#c83771;stop-opacity:1"
         offset="0"
         id="stop1141" />
      <stop
         style="stop-color:#de87aa;stop-opacity:1"
         offset="1"
         id="stop1143" />
    </linearGradient>
    <linearGradient
       id="c-0"
       gradientUnits="userSpaceOnUse"
       x1="10"
       x2="24"
       y1="10"
       y2="24"
       gradientTransform="translate(59.728813,26.237288)">
      <stop
         offset="0"
         stop-color="#292c2f"
         id="stop12-2" />
      <stop
         offset="1"
         stop-opacity="0"
         id="stop14-3" />
    </linearGradient>
    <linearGradient
       id="d"
       gradientUnits="userSpaceOnUse"
       x1="24"
       x2="24"
       y1="25"
       y2="7"
       gradientTransform="translate(59.728813,26.237288)">
      <stop
         offset="0"
         stop-color="#bb9d71"
         id="stop2-7" />
      <stop
         offset="1"
         stop-color="#f9f2e7"
         id="stop4-5" />
    </linearGradient>
  </defs>
  <sodipodi:namedview
     id="namedview5"
     pagecolor="#ffffff"
     bordercolor="#000000"
     borderopacity="0.25"
     inkscape:showpageshadow="2"
     inkscape:pageopacity="0.0"
     inkscape:pagecheckerboard="0"
     inkscape:deskcolor="#d1d1d1"
     inkscape:zoom="8.2643105"
     inkscape:cx="25.228965"
     inkscape:cy="40.233241"
     inkscape:window-width="1920"
     inkscape:window-height="996"
     inkscape:window-x="0"
     inkscape:window-y="0"
     inkscape:window-maximized="1"
     inkscape:current-layer="svg5" />
  <rect
     style="opacity:0.2;stroke-width:0.9823"
     width="55"
     height="55.017544"
     x="3.5"
     y="3.9824562"
     rx="8.25"
     ry="8.2526312"
     id="rect1" />
  <rect
     style="fill:url(#linearGradient10);stroke-width:0.9823"
     width="55"
     height="55.017544"
     x="3.5"
     y="3"
     rx="8.25"
     ry="8.2526312"
     id="rect2" />
  <path
     style="opacity:0.1;fill:#ffffff;stroke-width:0.9823"
     d="M 11.748466,3 C 7.1779652,3 3.5,6.6791384 3.5,11.251097 v 0.982456 c 0,-4.5719585 3.6779652,-8.2510969 8.248466,-8.2510969 h 38.503068 c 4.5705,0 8.248466,3.6791384 8.248466,8.2510969 V 11.251097 C 58.5,6.6791384 54.822034,3 50.251534,3 Z"
     id="path4" />
  <g
     id="g1"
     transform="matrix(0.78333333,0,0,0.78045786,11.416667,-15.413736)">
    <path
       style="opacity:0.2"
       d="m 3.586244,30.999999 c -0.6807124,0 -1.2164688,0.721963 -1.2164688,1.643348 0,1.149076 1.5885028,5.589062 3.7554278,10.501809 1.927065,4.368946 2.385595,5.622424 2.142771,5.856348 -0.253697,0.244402 -0.786918,-0.605096 -2.54175,-4.045596 -1.687895,-3.30928 -2.134237,-3.845769 -2.8347064,-3.406669 -0.6380142,0.399949 -0.5961916,0.972396 0.2790064,3.763798 0.815994,2.602579 1.021701,3.961895 0.597074,3.961895 -0.431643,0 -1.7727314,-1.367922 -4.4055136,-4.494798 -2.7550454,-3.272085 -3.49363,-3.817732 -4.0818664,-3.013271 -0.4659012,0.637158 -0.3927388,1.037705 0.5384828,2.907249 0.6562108,1.317423 1.358599,2.211224 3.0662824,3.906094 2.4008306,2.382812 4.1413358,3.529656 7.0700268,4.651038 1.017858,0.389734 2.006076,0.859688 2.195782,1.043486 0.207303,0.200874 4.905902,2.15364 6.592924,3.86703 h 2.446888 c -0.0016,-0.04282 0.03804,-0.03724 0.10602,0 h 0.5608 v -2.505478 l -5.365289,-8.640834 c -0.205878,-0.20588 0.02844,-1.714993 0.850969,-5.46853 0.914088,-4.171327 -0.08037,-7.730279 -1.741001,-6.227428 -0.861975,0.780078 -1.20203,2.689754 -1.227628,6.919364 -0.01449,2.392235 -0.113167,3.966139 -0.253897,4.014904 C 9.769016,46.35561 8.970547,44.156249 7.933166,40.218377 7.418513,38.264769 6.671478,35.810484 6.273077,34.763797 5.528163,32.806757 4.23784,30.999999 3.586244,30.999999 Z"
       id="path1" />
    <path
       style="opacity:0.2"
       d="m 46.413756,30.999999 c 0.680712,0 1.216468,0.721963 1.216468,1.643348 0,1.149076 -1.588502,5.589062 -3.755428,10.501809 -1.927064,4.368946 -2.385594,5.622424 -2.14277,5.856348 0.253696,0.244402 0.786918,-0.605096 2.54175,-4.045596 1.687894,-3.30928 2.134236,-3.845769 2.834706,-3.406669 0.638014,0.399949 0.596192,0.972396 -0.279006,3.763798 -0.815994,2.602579 -1.021702,3.961895 -0.597074,3.961895 0.431644,0 1.772732,-1.367922 4.405514,-4.494798 2.755044,-3.272085 3.493628,-3.817732 4.081866,-3.013271 0.465902,0.637158 0.392738,1.037705 -0.538484,2.907249 -0.65621,1.317423 -1.358598,2.211224 -3.066282,3.906094 -2.40083,2.382812 -4.141334,3.529656 -7.070026,4.651038 -1.017858,0.389734 -2.006076,0.859688 -2.195782,1.043486 -0.207302,0.200874 -4.905902,2.15364 -6.592924,3.86703 h -2.446888 c 0.0016,-0.04282 -0.03804,-0.03724 -0.10602,0 h -0.560802 v -2.505478 l 5.365296,-8.640834 c 0.205878,-0.20588 -0.02844,-1.714993 -0.85097,-5.46853 -0.914088,-4.171327 0.08036,-7.730279 1.741,-6.227428 0.861976,0.780078 1.20203,2.689754 1.22763,6.919364 0.0144,2.392235 0.11316,3.966139 0.253896,4.014904 0.351562,0.121852 1.150032,-2.077509 2.187412,-6.015381 0.514656,-1.953608 1.26169,-4.407893 1.66009,-5.45458 0.744914,-1.95704 2.035238,-3.763798 2.686834,-3.763798 z"
       id="path2" />
    <circle
       style="opacity:0.2"
       cx="25"
       cy="83.225761"
       r="5.7140002"
       id="circle2" />
    <path
       style="fill:#f59b3d;fill-opacity:1"
       d="m 46.413756,30 c 0.680712,0 1.216468,0.721962 1.216468,1.643348 0,1.149076 -1.588502,5.589061 -3.755428,10.501808 -1.927064,4.368946 -2.385594,5.622424 -2.14277,5.856348 0.253696,0.244402 0.786918,-0.605096 2.54175,-4.045596 1.687894,-3.30928 2.134236,-3.845768 2.834706,-3.406669 0.638014,0.39995 0.596192,0.972396 -0.279006,3.763798 -0.815994,2.602579 -1.021702,3.961895 -0.597074,3.961895 0.431644,0 1.772732,-1.367921 4.405514,-4.494798 2.755044,-3.272085 3.493628,-3.817731 4.081866,-3.013271 0.465902,0.637159 0.392738,1.037705 -0.538484,2.90725 -0.65621,1.317422 -1.358598,2.211223 -3.066282,3.906093 -2.40083,2.382812 -4.141334,3.529656 -7.070026,4.651038 -1.017858,0.389734 -2.006076,0.859688 -2.195782,1.043486 -0.207302,0.200874 -4.905902,2.15364 -6.592924,3.86703 h -2.446888 c 0.0016,-0.04282 -0.03804,-0.03724 -0.10602,0 h -0.560802 v -2.505478 l 5.365296,-8.640835 c 0.205878,-0.205878 -0.02844,-1.714992 -0.85097,-5.468529 -0.914088,-4.171327 0.08036,-7.730278 1.741,-6.227427 0.861976,0.780077 1.20203,2.689753 1.22763,6.919364 0.0144,2.392235 0.11316,3.966138 0.253896,4.014903 0.351562,0.121852 1.150032,-2.077509 2.187412,-6.015381 0.514656,-1.953607 1.26169,-4.407892 1.66009,-5.454579 C 44.471842,31.806758 45.762166,30 46.413762,30 Z"
       id="path3" />
    <circle
       style="fill:#af5d2d"
       cx="25"
       cy="82.225761"
       r="5.7140002"
       id="circle3" />
    <path
       style="fill:#f59b3d;fill-opacity:1"
       d="m 3.586244,30 c -0.6807124,0 -1.2164688,0.721962 -1.2164688,1.643348 0,1.149076 1.5885028,5.589061 3.7554278,10.501808 1.927065,4.368946 2.385595,5.622424 2.142771,5.856348 -0.253697,0.244402 -0.786918,-0.605096 -2.54175,-4.045596 -1.687895,-3.30928 -2.134237,-3.845768 -2.8347064,-3.406669 -0.6380142,0.39995 -0.5961916,0.972396 0.2790064,3.763798 0.815994,2.602579 1.021701,3.961895 0.597074,3.961895 -0.431643,0 -1.7727314,-1.367921 -4.4055136,-4.494798 -2.7550454,-3.272085 -3.49363,-3.817731 -4.0818664,-3.013271 -0.4659012,0.637159 -0.3927388,1.037705 0.5384828,2.90725 0.6562108,1.317422 1.358599,2.211223 3.0662824,3.906093 2.4008306,2.382812 4.1413358,3.529656 7.0700268,4.651038 1.017858,0.389734 2.006076,0.859688 2.195782,1.043486 0.207303,0.200874 4.905902,2.15364 6.592924,3.86703 h 2.446888 c -0.0016,-0.04282 0.03804,-0.03724 0.10602,0 h 0.5608 v -2.505478 l -5.365289,-8.640835 c -0.205878,-0.205878 0.02844,-1.714992 0.850969,-5.468529 0.914088,-4.171327 -0.08037,-7.730278 -1.741001,-6.227427 -0.861975,0.780077 -1.20203,2.689753 -1.227628,6.919364 -0.01449,2.392235 -0.113167,3.966138 -0.253897,4.014903 C 9.769016,45.35561 8.970547,43.156249 7.933166,39.218377 7.418513,37.26477 6.671478,34.810485 6.273077,33.763798 5.528163,31.806758 4.23784,30 3.586244,30 Z"
       id="path4-3" />
    <path
       style="opacity:0.2;fill:#ffffff"
       d="m 3.585938,30.000307 c -0.6807134,0 -1.2167974,0.721192 -1.2167974,1.642578 0,0.12286 0.027406,0.301432 0.0625,0.496094 0.1550586,-0.66593 0.6047574,-1.138672 1.1542974,-1.138672 0.651595,0 1.942584,1.806632 2.6875,3.763672 0.3984,1.046686 1.145503,3.501471 1.660156,5.455078 1.037381,3.937872 1.835938,6.137477 2.1875,6.015625 0.14073,-0.04876 0.239416,-1.62339 0.253906,-4.015625 0.0256,-4.229611 0.364587,-6.139845 1.226562,-6.919922 1.149589,-1.040366 1.963211,0.367771 2.0625,2.703125 0.123291,-2.918318 -0.755752,-4.885715 -2.0625,-3.703125 -0.861975,0.780077 -1.200964,2.690311 -1.226562,6.919922 -0.01449,2.392235 -0.113176,3.96686 -0.253906,4.015625 C 9.769532,45.356534 8.970975,43.156929 7.933594,39.219057 7.418941,37.26545 6.671838,34.810665 6.273438,33.763979 5.528522,31.806939 4.237533,30.000307 3.585938,30.000307 Z m 42.828124,0 c -0.651595,0 -1.942585,1.806632 -2.6875,3.763672 -0.398398,1.046686 -1.1455,3.501471 -1.660156,5.455078 -1.03738,3.937872 -1.835938,6.137477 -2.1875,6.015625 -0.140736,-0.04876 -0.239506,-1.62339 -0.253906,-4.015625 -0.0256,-4.229611 -0.364587,-6.139845 -1.226562,-6.919922 -1.306756,-1.18259 -2.185793,0.784807 -2.0625,3.703125 0.09929,-2.335354 0.912902,-3.743491 2.0625,-2.703125 0.861975,0.780077 1.200962,2.690311 1.226562,6.919922 0.0144,2.392235 0.11317,3.96686 0.253906,4.015625 0.351562,0.121852 1.15012,-2.077753 2.1875,-6.015625 0.514656,-1.953607 1.261758,-4.408392 1.660156,-5.455078 0.744915,-1.95704 2.035905,-3.763672 2.6875,-3.763672 0.54954,0 0.999239,0.472742 1.154297,1.138672 0.03509,-0.194662 0.0625,-0.373234 0.0625,-0.496094 0,-0.921386 -0.536084,-1.642578 -1.216797,-1.642578 z M 3.392578,40.429994 c -0.166837,-0.04021 -0.326836,0.0094 -0.501953,0.119141 -0.3778181,0.236842 -0.4825152,0.596148 -0.3515625,1.378906 0.071507,-0.160542 0.1874347,-0.27602 0.3515625,-0.378906 0.700469,-0.439099 1.148043,0.09697 2.835937,3.40625 1.754834,3.4405 2.287319,4.291277 2.541016,4.046875 0.09658,-0.09304 0.03683,-0.430835 -0.136719,-0.978516 C 7.826718,47.927444 7.221312,46.88597 5.726562,43.955385 4.460642,41.473425 3.893089,40.550641 3.392578,40.429994 Z m 43.214844,0 c -0.500511,0.120647 -1.068064,1.043431 -2.333984,3.525391 -1.49475,2.930585 -2.100156,3.972057 -2.404297,4.068359 -0.173549,0.547681 -0.233298,0.885477 -0.136719,0.978516 0.253696,0.244402 0.786183,-0.606375 2.541016,-4.046875 1.687894,-3.30928 2.135467,-3.845349 2.835937,-3.40625 0.164128,0.102886 0.280055,0.218364 0.351563,0.378906 0.130952,-0.782758 0.02625,-1.142064 -0.351563,-1.378906 -0.175117,-0.109775 -0.335116,-0.159356 -0.501953,-0.119141 z m -50.8300782,0.0078 c -0.1950261,0.01081 -0.3509878,0.12701 -0.4980469,0.328125 -0.2750364,0.376135 -0.3305359,0.705197 -0.1640625,1.267578 0.043917,-0.08778 0.096428,-0.175083 0.1640625,-0.267578 0.5882364,-0.80446 1.3269858,-0.258413 4.0820312,3.013672 2.6327822,3.126877 3.9746069,4.496094 4.4062499,4.496094 0.220842,0 0.262016,-0.386178 0.144531,-1.105469 -0.03547,0.06249 -0.07996,0.105469 -0.144531,0.105469 -0.431643,0 -1.7734677,-1.369217 -4.4062499,-4.496094 -2.066284,-2.454051 -2.9989061,-3.374211 -3.5839843,-3.341784 z m 58.4453122,0 c -0.585078,-0.03243 -1.517701,0.887733 -3.583984,3.341797 -2.632782,3.126877 -3.974606,4.496094 -4.40625,4.496094 -0.06457,0 -0.109064,-0.04298 -0.144531,-0.105469 -0.117485,0.719291 -0.07631,1.105469 0.144531,1.105469 0.431644,0 1.773468,-1.369217 4.40625,-4.496094 2.755044,-3.272085 3.493793,-3.818132 4.082031,-3.013672 0.06763,0.09249 0.120145,0.179803 0.164063,0.267578 0.166473,-0.562381 0.110974,-0.891443 -0.164063,-1.267578 -0.147059,-0.201115 -0.303021,-0.317316 -0.498047,-0.328125 z m -41.734375,5.550781 c -0.06804,0.559368 -0.07842,0.925484 0.0039,1.007813 l 5.365234,8.640625 v -1 l -5.365234,-8.640625 c -0.0015,-0.0015 -0.0025,-0.0062 -0.0039,-0.0078 z m 25.023438,0 c -0.0014,0.0016 -0.0024,0.0063 -0.0039,0.0078 L 32.142585,54.637 v 1 l 5.365234,-8.640625 c 0.08233,-0.08233 0.07194,-0.448445 0.0039,-1.007813 z"
       id="path5" />
    <path
       style="fill:#b6612f;fill-opacity:1"
       d="M 36.428108,59.369486 C 36.428108,65.681056 25,79.940084 25,79.940084 c 0,0 -11.42811,-14.259028 -11.42811,-20.570598 0,-6.31157 5.116538,-11.42811 11.42811,-11.42811 6.31157,0 11.428108,5.11654 11.428108,11.42811 z"
       id="path6" />
    <g
       transform="matrix(-1.4285137,0,0,1.4285137,59.217238,24.884999)"
       id="g6">
      <ellipse
         id="ellipse911"
         style="fill:#ffffff"
         cx="5.8600001"
         cy="31.771999"
         rx="1.947"
         ry="2.7909999"
         transform="matrix(0.80749798,-0.58987034,0.51619146,0.85647322,0,0)" />
      <ellipse
         id="ellipse913"
         style="fill:#3f3f3f"
         cx="5.586"
         cy="32.599998"
         rx="1.222"
         ry="1.752"
         transform="matrix(0.80749798,-0.58987034,0.51619146,0.85647322,0,0)" />
    </g>
    <ellipse
       style="fill:#ffffff"
       cx="-12.507578"
       cy="60.061954"
       rx="2.7809999"
       ry="3.987"
       transform="matrix(0.80749798,-0.58987034,0.51619146,0.85647322,0,0)"
       id="ellipse6" />
    <ellipse
       id="ellipse909"
       style="fill:#3f3f3f"
       cx="-13.002578"
       cy="61.406956"
       rx="1.7460001"
       ry="2.503"
       transform="matrix(0.80749798,-0.58987034,0.51619146,0.85647322,0,0)" />
    <path
       style="opacity:0.2"
       d="m 25.000002,60.954434 c -1.496148,-0.10642 -2.633866,0.354744 -4.110352,1.75648 C 17.415482,66.712452 13,76.25553 13,79.500872 c 0.14984,4.66053 1.542242,7.665286 4.476562,7.425516 3.023438,0.12228 5.173824,-2.21312 7.52344,-2.26573 2.349612,0.05262 4.499998,2.387998 7.523436,2.26573 2.93432,0.23977 4.326728,-2.764986 4.476562,-7.425516 0,-3.245342 -4.415482,-12.78842 -7.889648,-16.789958 -1.476488,-1.401736 -2.614206,-1.862916 -4.11035,-1.75648 z"
       id="path7" />
    <path
       style="fill:#d17a48;fill-opacity:1"
       d="m 25.000002,59.954434 c -1.496148,-0.10642 -2.633866,0.354744 -4.110352,1.75648 C 17.415482,65.712452 13,75.25553 13,78.500872 c 0.14984,4.66053 1.542242,7.665286 4.476562,7.425516 3.023438,0.12228 5.173824,-2.21312 7.52344,-2.26573 2.349612,0.05262 4.499998,2.387998 7.523436,2.26573 2.93432,0.23977 4.326728,-2.764986 4.476562,-7.425516 0,-3.245342 -4.415482,-12.78842 -7.889648,-16.789958 -1.476488,-1.401736 -2.614206,-1.862916 -4.11035,-1.75648 z"
       id="path8" />
    <path
       style="opacity:0.5"
       d="m 18.82133,81.55303 c -1.27381,-0.646404 -1.895934,-2.085988 -1.814202,-4.198024 0.03664,-0.946696 0.17212,-1.756124 0.301102,-1.798722 0.12896,-0.0426 0.420272,0.445624 0.647336,1.084938 0.514536,1.44871 1.478022,2.566596 2.678786,3.108066 1.357384,0.612094 1.502118,1.420598 0.348408,1.946264 -0.788924,0.35946 -1.229466,0.330408 -2.16143,-0.14252 z"
       id="path9" />
    <path
       style="opacity:0.5"
       d="m 31.113956,81.55303 c 1.27381,-0.646404 1.895934,-2.085988 1.814202,-4.198024 -0.03664,-0.946696 -0.17214,-1.756124 -0.301102,-1.798722 -0.12896,-0.0426 -0.420272,0.445624 -0.647336,1.084938 -0.514536,1.44871 -1.478022,2.566596 -2.678786,3.108066 -1.357384,0.612094 -1.502118,1.420598 -0.348408,1.946264 0.788924,0.35946 1.229466,0.330408 2.16143,-0.14252 z"
       id="path10" />
    <path
       style="opacity:0.1"
       d="m 25,44.853822 c -7.516858,0 -11.686008,3.106272 -13.703125,6.277344 C 9.551505,53.87503 9.33137,56.51939 9.300781,57.217104 9.1126,57.740142 9,58.320896 9,58.93976 c 0,2.209138 1.343146,4 3,4 h 1 1 c 0.554002,0 1,-0.593366 1,-1.332032 V 58.93976 56.271792 C 15,55.533126 14.554002,54.93976 14,54.93976 h -1 -0.335938 c 0.231409,-0.709646 0.533116,-1.471904 1.04297,-2.273438 C 15.261198,50.223046 18.23172,47.713198 25,47.713198 c 6.768278,0 9.738802,2.509848 11.292968,4.953124 0.509856,0.801534 0.81156,1.563792 1.04297,2.273438 H 37 36 c -0.554,0 -1,0.593366 -1,1.332032 v 2.667968 2.667968 c 0,0.738666 0.446,1.332032 1,1.332032 h 1 1 c 1.656854,0 3,-1.790862 3,-4 0,-0.618864 -0.1126,-1.199618 -0.300782,-1.722656 C 40.668638,56.51939 40.448498,53.87503 38.703124,51.131166 36.686008,47.960094 32.516858,44.853822 25,44.853822 Z"
       id="path11" />
    <path
       style="fill:none;stroke:#917c6f;stroke-width:2.85703;stroke-linecap:round;stroke-linejoin:round;stroke-opacity:1"
       d="m 10.714862,56.512458 c 0,0 0,-11.228698 14.285138,-11.228698 14.285136,0 14.285136,11.228698 14.285136,11.228698"
       id="path12" />
    <path
       style="opacity:0.1;fill:#ffffff"
       d="m 25,47.93976 c -6.311572,0 -11.429688,5.118118 -11.429688,11.429688 0,0.104355 0.02057,0.222946 0.0332,0.335937 C 13.949553,53.704679 18.912709,48.93976 25,48.93976 c 6.087289,0 11.050447,4.764919 11.396484,10.765625 0.01263,-0.112991 0.0332,-0.231582 0.0332,-0.335937 C 36.429688,53.057878 31.31157,47.93976 25,47.93976 Z"
       id="path13" />
    <path
       style="fill:#746258;fill-opacity:1"
       d="m 12,53.93976 c -1.656854,0 -3,1.79086 -3,4 0,2.209138 1.343146,4 3,4 H 12.999999 14 c 0.554002,0 1,-0.594668 1,-1.333334 V 57.93976 55.273092 C 15,54.534426 14.554002,53.93976 14,53.93976 h -1.000001 z"
       id="path14" />
    <path
       style="fill:#746258;fill-opacity:1"
       d="m 37.999594,53.93976 c 1.656854,0 3.000002,1.79086 3.000002,4 0,2.209138 -1.343148,4 -3.000002,4 h -0.999998 -1 c -0.554,0 -1,-0.594668 -1,-1.333334 V 57.93976 55.273092 c 0,-0.738666 0.446,-1.333332 1,-1.333332 h 1 z"
       id="path15" />
    <path
       style="opacity:0.1;fill:#ffffff"
       d="m 24.455078,59.943666 c -1.240068,0.03565 -2.272526,0.539106 -3.564453,1.765625 C 17.416457,65.710829 13,75.256918 13,78.50226 c 0.0059,0.183237 0.02376,0.348477 0.03516,0.523438 0.360249,-3.609374 4.533535,-12.490211 7.855469,-16.316407 1.476488,-1.401736 2.613227,-1.860326 4.109375,-1.753906 1.496144,-0.106434 2.632885,0.35217 4.109375,1.753906 3.32193,3.826196 7.495219,12.707033 7.855469,16.316407 C 36.976243,78.850737 36.994109,78.685497 37,78.50226 37,75.256918 32.583539,65.710829 29.109375,61.709291 27.632885,60.307555 26.496144,59.848951 25,59.955385 c -0.187019,-0.0133 -0.367769,-0.01681 -0.544922,-0.01172 z"
       id="path16" />
  </g>
</svg>
