<?xml version="1.0" encoding="UTF-8" standalone="no"?>
<svg
   width="62"
   height="62"
   version="1"
   id="svg10"
   sodipodi:docname="mediaconch.svg"
   inkscape:version="1.4 (unknown)"
   xmlns:inkscape="http://www.inkscape.org/namespaces/inkscape"
   xmlns:sodipodi="http://sodipodi.sourceforge.net/DTD/sodipodi-0.dtd"
   xmlns:xlink="http://www.w3.org/1999/xlink"
   xmlns="http://www.w3.org/2000/svg"
   xmlns:svg="http://www.w3.org/2000/svg">
  <defs
     id="defs10">
    <linearGradient
       id="linearGradient10"
       inkscape:collect="always">
      <stop
         style="stop-color:#cccccc;stop-opacity:1"
         offset="0"
         id="stop10" />
      <stop
         style="stop-color:#ececec;stop-opacity:1"
         offset="1"
         id="stop11" />
    </linearGradient>
    <linearGradient
       inkscape:collect="always"
       xlink:href="#linearGradient10"
       id="linearGradient11"
       x1="30.473671"
       y1="59.017525"
       x2="30.473671"
       y2="4.9824557"
       gradientUnits="userSpaceOnUse" />
  </defs>
  <sodipodi:namedview
     id="namedview10"
     pagecolor="#ffffff"
     bordercolor="#000000"
     borderopacity="0.25"
     inkscape:showpageshadow="2"
     inkscape:pageopacity="0.0"
     inkscape:pagecheckerboard="0"
     inkscape:deskcolor="#d1d1d1"
     inkscape:zoom="8.5405241"
     inkscape:cx="28.159864"
     inkscape:cy="36.121905"
     inkscape:window-width="1920"
     inkscape:window-height="996"
     inkscape:window-x="0"
     inkscape:window-y="0"
     inkscape:window-maximized="1"
     inkscape:current-layer="svg10" />
  <g
     id="g10"
     transform="translate(-0.36654966,-1.0000005)">
    <path
       style="opacity:0.2;stroke-width:0.982459"
       d="M 57.982445,32.491222 A 27.508762,27.508762 0 0 1 30.473671,59.999984 27.508762,27.508762 0 0 1 2.9649115,32.491222 27.508762,27.508762 0 0 1 30.473671,4.9824557 27.508762,27.508762 0 0 1 57.982445,32.491222 Z"
       id="path1" />
    <path
       style="fill:url(#linearGradient11);stroke-width:0.982459"
       d="M 57.982445,31.508762 A 27.508762,27.508762 0 0 1 30.473671,59.017525 27.508762,27.508762 0 0 1 2.9649115,31.508762 27.508762,27.508762 0 0 1 30.473671,4 27.508762,27.508762 0 0 1 57.982445,31.508762 Z"
       id="path2" />
    <path
       style="opacity:0.1;stroke-width:0.982459"
       d="m 61.722617,49.175719 c -0.742014,0.213745 -4.852227,1.379528 -5.303851,1.108794 -4.616576,-2.767505 -8.302025,-1.38425 -12.621246,0.415297 -1.349918,0.562361 -2.704053,1.115271 -4.651416,1.917996 7.703831,-15.112052 2.940942,-29.937451 -14.62807,-33.252383 3.362711,-0.786067 8.062148,-0.861703 11.753564,0.107728 10.067241,2.647326 15.611959,6.63013 21.549334,17.377675 1.743814,3.528684 4.088306,9.112471 3.901685,12.324885"
       id="path3" />
    <path
       style="fill:#c83771;stroke-width:0.982459"
       d="m 61.722617,48.19346 c -0.742014,0.213743 -4.852227,1.379527 -5.303851,1.108793 -4.616576,-2.767505 -8.302025,-1.384249 -12.621246,0.415303 -1.349918,0.562355 -2.704053,1.115265 -4.651416,1.917997 7.703831,-15.112059 2.940942,-29.937458 -14.62807,-33.25239 3.362711,-0.786067 8.062148,-0.861702 11.753564,0.107731 10.067241,2.647325 15.611959,6.630129 21.549334,17.377674 1.743814,3.528685 4.088306,9.112471 3.901685,12.324886"
       id="path4" />
    <path
       style="opacity:0.1;stroke-width:0.982459"
       d="M 5.9633666,35.471717 C 8.5089163,30.542852 17.49772,29.254647 22.555967,31.849714 27.588347,34.431598 30.92767,42.761988 26.344688,50.843297 26.406649,45.17665 25.093801,39.980801 20.770598,36.326205 16.528267,32.852262 11.227649,33.382276 5.9633666,35.471717"
       id="path5" />
    <path
       style="fill:#5555ff;stroke-width:0.982459"
       d="M 5.9633666,34.48946 C 8.5089163,29.560592 17.49772,28.272387 22.555967,30.867454 c 5.03238,2.581883 8.371703,10.912274 3.788721,18.993584 0.06196,-5.666647 -1.250887,-10.862497 -5.57409,-14.517092 -4.242331,-3.473944 -9.542949,-2.94393 -14.8072314,-0.854486"
       id="path6" />
    <path
       style="opacity:0.1;stroke-width:0.982459"
       d="m 9.977679,28.458832 c 3.553077,-4.630763 8.032041,-5.979183 12.984792,-5.586536 6.518892,0.516837 11.47513,3.717554 14.127674,9.87962 2.475383,5.908766 1.199619,13.495393 -4.062674,19.36858 1.98593,-7.669245 1.58332,-14.138134 -3.477677,-19.476814 -5.226959,-5.288174 -11.87774,-6.312123 -19.572115,-4.18485"
       id="path7" />
    <path
       style="fill:#37c871;stroke-width:0.982459"
       d="m 9.977679,27.476572 c 3.553077,-4.630763 8.032041,-5.979183 12.984792,-5.586532 6.518892,0.516833 11.47513,3.71755 14.127674,9.879616 2.475383,5.908767 1.199619,13.495394 -4.062674,19.368581 1.98593,-7.669246 1.58332,-14.138135 -3.477677,-19.476815 -5.226959,-5.288173 -11.87774,-6.312123 -19.572115,-4.18485"
       id="path8" />
    <circle
       style="opacity:0.2;stroke-width:0.982459"
       cx="11.807012"
       cy="49.192989"
       r="10.807012"
       id="circle8" />
    <circle
       style="fill:#2d3d53;stroke-width:0.982459;fill-opacity:1"
       cx="11.807012"
       cy="48.210495"
       r="10.807012"
       id="circle9" />
    <path
       style="fill:#ffffff;stroke-width:0.982459"
       d="m 10.03381,53.637324 c 0,-0.28551 0.04102,-0.526731 0.122975,-0.724324 0.08194,-0.196945 0.195614,-0.356224 0.341661,-0.477808 0.145394,-0.121609 0.317219,-0.209502 0.51482,-0.264356 0.196938,-0.05416 0.407764,-0.08196 0.632466,-0.08196 0.212802,0 0.415042,0.02778 0.606041,0.08196 0.190986,0.05486 0.359511,0.142732 0.505558,0.264356 0.145398,0.121599 0.260392,0.280871 0.345649,0.477808 0.0853,0.197595 0.127504,0.438814 0.127504,0.724324 0,0.273591 -0.04227,0.507556 -0.127504,0.701855 -0.0853,0.19364 -0.20025,0.35555 -0.345649,0.483096 -0.146048,0.12697 -0.314571,0.219414 -0.505558,0.277571 -0.190999,0.05752 -0.393239,0.08655 -0.606041,0.08655 -0.224702,0 -0.435527,-0.02902 -0.632466,-0.08655 -0.197601,-0.05821 -0.369425,-0.15069 -0.51482,-0.277571 -0.146047,-0.127499 -0.25973,-0.289459 -0.341661,-0.483096 -0.08113,-0.19396 -0.122425,-0.427781 -0.122425,-0.701504 m 0.300709,-3.493224 v -0.03216 c 0,-0.309958 0.03174,-0.952844 0.09574,-1.204639 0.06344,-0.252439 0.160598,-0.49168 0.291456,-0.719697 0.130254,-0.22734 0.298708,-0.449389 0.50491,-0.664842 0.206849,-0.215454 0.456004,-0.438831 0.747449,-0.669472 0.255104,-0.200248 0.470558,-0.379348 0.646343,-0.537958 0.176451,-0.15727 0.318533,-0.313923 0.428266,-0.46922 0.109074,-0.15464 0.188337,-0.31657 0.236578,-0.486409 0.04894,-0.170501 0.07346,-0.368123 0.07346,-0.592151 0,-0.346299 -0.117606,-0.632455 -0.350938,-0.856495 -0.233965,-0.224702 -0.590827,-0.337052 -1.070618,-0.337052 -0.418355,0 -0.86972,0.08786 -1.352829,0.263698 -0.48178,0.17645 -0.9820681,0.39188 -1.4981776,0.646986 L 8.158177,42.472004 c 0.2603937,-0.151992 0.544569,-0.296073 0.8512057,-0.432204 0.3073249,-0.13688 0.6258599,-0.258416 0.9563081,-0.364812 0.3310962,-0.10577 0.6668192,-0.18969 1.0065072,-0.250473 0.340371,-0.06076 0.674104,-0.09122 1.002566,-0.09122 0.619241,0 1.17769,0.07472 1.675349,0.22338 0.498309,0.148688 0.920612,0.365456 1.266235,0.650966 0.346974,0.285496 0.611991,0.632467 0.797027,1.038907 0.185703,0.4071 0.278232,0.871032 0.278232,1.393085 0,0.382651 -0.04302,0.724341 -0.127504,1.025031 -0.0846,0.30071 -0.211475,0.580253 -0.377362,0.837982 -0.167863,0.258419 -0.377363,0.507559 -0.629166,0.746813 -0.251793,0.239893 -0.545226,0.493672 -0.878973,0.760666 -0.255103,0.200247 -0.463267,0.375374 -0.624527,0.524079 -0.160598,0.148721 -0.286834,0.290132 -0.377364,0.422957 -0.09122,0.134109 -0.153308,0.272291 -0.187024,0.415042 -0.03314,0.142081 -0.0502,1.061225 -0.0502,0.866925 v -0.09468 h -2.404362 z"
       id="path9" />
    <path
       style="opacity:0.2;fill:#ffffff;stroke-width:0.982459"
       d="M 30.473671,4 A 27.508762,27.508762 0 0 0 2.9649115,31.508762 27.508762,27.508762 0 0 0 2.9821816,31.99232 27.508762,27.508762 0 0 1 30.473671,4.9824557 27.508762,27.508762 0 0 1 57.957493,31.99232 27.508762,27.508762 0 0 0 57.982445,31.508762 27.508762,27.508762 0 0 0 30.473671,4 Z"
       id="path10" />
  </g>
</svg>
