<?xml version="1.0" encoding="UTF-8" standalone="no"?>
<svg
   width="62"
   height="62"
   version="1.1"
   id="svg6"
   sodipodi:docname="metasploit.svg"
   inkscape:version="1.4 (unknown)"
   xmlns:inkscape="http://www.inkscape.org/namespaces/inkscape"
   xmlns:sodipodi="http://sodipodi.sourceforge.net/DTD/sodipodi-0.dtd"
   xmlns="http://www.w3.org/2000/svg"
   xmlns:svg="http://www.w3.org/2000/svg">
  <defs
     id="defs6" />
  <sodipodi:namedview
     id="namedview6"
     pagecolor="#ffffff"
     bordercolor="#000000"
     borderopacity="0.25"
     inkscape:showpageshadow="2"
     inkscape:pageopacity="0.0"
     inkscape:pagecheckerboard="0"
     inkscape:deskcolor="#d1d1d1"
     inkscape:zoom="7.0710678"
     inkscape:cx="30.759145"
     inkscape:cy="39.66869"
     inkscape:window-width="1920"
     inkscape:window-height="996"
     inkscape:window-x="0"
     inkscape:window-y="0"
     inkscape:window-maximized="1"
     inkscape:current-layer="svg6" />
  <g
     id="g6"
     transform="matrix(1,0,0,0.98245614,-1,-0.92982456)">
    <path
       d="m 32,61 c 0,0 17,-8 23,-22 V 8 C 55,8 46.375,5 32,5 17.625,5 9,8 9,8 V 38.6 C 15,53 32,61 32,61 Z"
       style="opacity:0.2"
       id="path1" />
    <path
       d="m 32,60 c 0,0 17,-8 23,-22 V 7 C 55,7 46.375,4 32,4 17.625,4 9,7 9,7 V 37.6 C 15,52 32,60 32,60 Z"
       style="fill:#0d6ca6;fill-opacity:1"
       id="path2" />
    <path
       d="m 32,4 v 56 c 0,0 17,-8 23,-22 V 7 C 55,7 46.375,4 32,4 Z"
       style="opacity:0.2"
       id="path3" />
    <path
       d="m 12,10 v 29 c 0,2 8,10 8,10 V 22 l 8,8 v 11 h 8 V 30 l 8,-8 v 27 c 0,0 8,-8 8,-10 V 10 H 44 L 32,21.8 20,10 Z"
       style="opacity:0.2"
       id="path4" />
    <path
       d="m 12,9 v 29 c 0,2 8,10 8,10 V 21 l 8,8 v 11 h 8 V 29 l 8,-8 v 27 c 0,0 8,-8 8,-10 V 9 H 44 L 32,20.8 20,9 Z"
       style="fill:#f2f2f2;fill-opacity:1"
       id="path5" />
    <path
       d="M 32,4 C 17.625,4 9,7 9,7 V 8 C 9,8 17.625,5 32,5 46.375,5 55,8 55,8 V 7 C 55,7 46.375,4 32,4 Z"
       style="opacity:0.2;fill:#ffffff"
       id="path6" />
  </g>
</svg>
