<?xml version="1.0" encoding="UTF-8" standalone="no"?>
<svg
   width="62"
   height="62"
   version="1.1"
   id="svg8"
   sodipodi:docname="monero.svg"
   inkscape:version="1.4 (unknown)"
   xmlns:inkscape="http://www.inkscape.org/namespaces/inkscape"
   xmlns:sodipodi="http://sodipodi.sourceforge.net/DTD/sodipodi-0.dtd"
   xmlns="http://www.w3.org/2000/svg"
   xmlns:svg="http://www.w3.org/2000/svg">
  <sodipodi:namedview
     id="namedview8"
     pagecolor="#ffffff"
     bordercolor="#000000"
     borderopacity="0.25"
     inkscape:showpageshadow="2"
     inkscape:pageopacity="0.0"
     inkscape:pagecheckerboard="0"
     inkscape:deskcolor="#d1d1d1"
     inkscape:zoom="8.0520833"
     inkscape:cx="27.260026"
     inkscape:cy="22.913325"
     inkscape:window-width="1920"
     inkscape:window-height="996"
     inkscape:window-x="0"
     inkscape:window-y="0"
     inkscape:window-maximized="1"
     inkscape:current-layer="svg8" />
  <defs
     id="defs3">
    <clipPath
       id="clipPath922">
      <circle
         cx="24"
         cy="24"
         r="20"
         id="circle1" />
    </clipPath>
    <clipPath
       id="clipPath934">
      <circle
         cx="24"
         cy="24"
         r="20"
         id="circle2" />
    </clipPath>
    <clipPath
       id="clipPath942">
      <circle
         cx="24"
         cy="23"
         r="20"
         id="circle3" />
    </clipPath>
    <clipPath
       id="clipPath833">
      <path
         d="M 2,31 H 14 V 21 L 24,31 34,21 V 31 H 46 V 2 H 2 Z"
         id="path3" />
    </clipPath>
  </defs>
  <g
     id="g8"
     transform="translate(-0.5000002,-1)">
    <ellipse
       style="opacity:0.2;stroke-width:1.37043"
       cx="31.499994"
       cy="32.682926"
       id="circle4"
       rx="27.499994"
       ry="27.317074" />
    <circle
       style="fill:#ff8533;fill-opacity:1"
       cx="24"
       cy="24"
       r="20"
       clip-path="url(#clipPath833)"
       id="circle5"
       transform="matrix(1.375,0,0,1.3658537,-1.4999996,-1.4634146)" />
    <path
       style="fill:#2d3d53;fill-opacity:1"
       d="M 3,31 H 14 V 21 L 24,31 34,21 V 31 H 45 V 47 H 3 Z"
       clip-path="url(#clipPath934)"
       id="path5"
       transform="matrix(1.375,0,0,1.3658537,-1.4999996,-1.4634146)" />
    <path
       style="opacity:0.2"
       transform="matrix(1.375,0,0,1.3658537,-1.4999996,-0.09756098)"
       d="m 3,30 h 8 V 13 L 24,26 37,13 v 17 h 8 v 5 H 32 V 25 l -8,8 -8,-8 V 35 H 3 Z"
       clip-path="url(#clipPath942)"
       id="path6" />
    <path
       style="fill:#f2f2f2"
       d="m 3,30 h 8 V 13 L 24,26 37,13 v 17 h 8 v 5 H 32 V 25 l -8,8 -8,-8 V 35 H 3 Z"
       clip-path="url(#clipPath922)"
       id="path7"
       transform="matrix(1.375,0,0,1.3658537,-1.4999996,-1.4634146)" />
    <path
       style="opacity:0.2;fill:#ffffff;stroke-width:1.37043"
       d="M 31.499997,4 A 27.499997,27.317073 0 0 0 4,31.317073 27.499997,27.317073 0 0 0 4.0295621,32.112 27.499997,27.317073 0 0 1 31.499997,5.3658537 27.499997,27.317073 0 0 1 58.971115,31.888 27.499997,27.317073 0 0 0 58.999996,31.317073 27.499997,27.317073 0 0 0 31.499997,4 Z"
       id="path8" />
  </g>
</svg>
