<?xml version="1.0" encoding="UTF-8" standalone="no"?>
<svg
   width="62"
   height="62"
   version="1"
   id="svg8"
   sodipodi:docname="movmetaedit.svg"
   inkscape:version="1.4 (unknown)"
   xmlns:inkscape="http://www.inkscape.org/namespaces/inkscape"
   xmlns:sodipodi="http://sodipodi.sourceforge.net/DTD/sodipodi-0.dtd"
   xmlns:xlink="http://www.w3.org/1999/xlink"
   xmlns="http://www.w3.org/2000/svg"
   xmlns:svg="http://www.w3.org/2000/svg">
  <defs
     id="defs8">
    <linearGradient
       id="linearGradient8"
       inkscape:collect="always">
      <stop
         style="stop-color:#cccccc;stop-opacity:1"
         offset="0"
         id="stop8" />
      <stop
         style="stop-color:#ececec;stop-opacity:1"
         offset="1"
         id="stop9" />
    </linearGradient>
    <linearGradient
       inkscape:collect="always"
       xlink:href="#linearGradient8"
       id="linearGradient9"
       x1="17.741936"
       y1="59.01754"
       x2="57.212502"
       y2="10.810193"
       gradientUnits="userSpaceOnUse" />
  </defs>
  <sodipodi:namedview
     id="namedview8"
     pagecolor="#ffffff"
     bordercolor="#000000"
     borderopacity="0.25"
     inkscape:showpageshadow="2"
     inkscape:pageopacity="0.0"
     inkscape:pagecheckerboard="0"
     inkscape:deskcolor="#d1d1d1"
     inkscape:zoom="6.0390625"
     inkscape:cx="15.316947"
     inkscape:cy="35.684347"
     inkscape:window-width="1920"
     inkscape:window-height="996"
     inkscape:window-x="0"
     inkscape:window-y="0"
     inkscape:window-maximized="1"
     inkscape:current-layer="svg8" />
  <g
     id="g8"
     transform="translate(-0.5,-1)">
    <path
       style="opacity:0.2;stroke-width:0.982303"
       d="M 6.750767,4.982456 C 5.2272678,4.982456 4,6.2101152 4,7.7341012 V 32.49123 57.248358 C 4,58.772338 5.2272678,60 6.750767,60 h 1.1778051 3.9285719 3.928567 15.299945 c 0.03861,0 0.08379,-0.011 0.122771,-0.0116 A 27.5,27.50877 0 0 0 31.5,60 27.5,27.50877 0 0 0 59,32.49123 27.5,27.50877 0 0 0 31.5,4.982456 27.5,27.50877 0 0 0 31.258303,4.9978068 c -0.05496,-9.654e-4 -0.118356,-0.015353 -0.172647,-0.015353 H 15.785711 11.857144 7.9285721 Z"
       id="path1" />
    <path
       style="fill:url(#linearGradient9);stroke-width:0.982303"
       d="M 15.589284,4 V 59.01754 H 31.087502 C 39.749999,59.01754 57.2125,46.701442 57.2125,31.50877 57.2125,16.316097 39.749999,4 31.087502,4 Z"
       id="path2" />
    <path
       style="fill:#c83771;stroke-width:0.982303"
       d="M 6.75,4 C 5.2264999,4 4,5.226891 4,6.750877 v 24.757893 24.7579 c 0,1.52398 1.2264999,2.75087 2.75,2.75087 H 7.9285721 V 4 Z"
       id="path3" />
    <rect
       style="fill:#37c871;stroke-width:0.982303"
       width="3.928571"
       height="55.017548"
       x="7.9285712"
       y="4"
       id="rect3" />
    <rect
       style="fill:#388ae1;stroke-width:0.982303;fill-opacity:1"
       width="3.928571"
       height="55.017548"
       x="11.857142"
       y="4"
       id="rect4" />
    <path
       style="opacity:0.1;stroke-width:0.982303"
       d="M 31.5,4.982456 A 27.5,27.50877 0 0 0 28.856657,5.135965 27.5,27.50877 0 0 1 53.498472,32.49123 27.5,27.50877 0 0 1 28.641816,59.84649 27.5,27.50877 0 0 0 31.5,60 27.5,27.50877 0 0 0 59,32.49123 27.5,27.50877 0 0 0 31.5,4.982456 Z M 31.56518,16.77193 A 15.714289,15.7193 0 0 0 28.894982,16.998359 15.714289,15.7193 0 0 1 42.038822,32.49123 15.714289,15.7193 0 0 1 28.998567,47.984102 15.714289,15.7193 0 0 0 31.56519,48.21053 15.714289,15.7193 0 0 0 47.279479,32.49123 15.714289,15.7193 0 0 0 31.56519,16.77193 Z m -3.993786,7.85965 a 7.8571433,7.859649 0 0 0 -7.857144,7.85965 7.8571433,7.859649 0 0 0 7.857144,7.85965 7.8571433,7.859649 0 0 0 7.857144,-7.85965 7.8571433,7.859649 0 0 0 -7.857144,-7.85965 z"
       id="path4" />
    <path
       style="fill:#2d3d53;stroke-width:0.982303;fill-opacity:1"
       d="M 31.5,4 A 27.5,27.50877 0 0 0 28.857427,4.1531254 27.5,27.50877 0 0 1 53.500004,31.50877 27.5,27.50877 0 0 1 28.642575,58.86442 27.5,27.50877 0 0 0 31.5,59.01754 27.5,27.50877 0 0 0 59,31.50877 27.5,27.50877 0 0 0 31.5,4 Z"
       id="path5" />
    <path
       style="fill:#2d3d53;stroke-width:0.982303;fill-opacity:1"
       d="M 31.563598,15.789471 A 15.714289,15.7193 0 0 0 28.893391,16.017182 15.714289,15.7193 0 0 1 42.039783,31.50877 15.714289,15.7193 0 0 1 28.998258,47.000368 15.714289,15.7193 0 0 0 31.563598,47.22807 15.714289,15.7193 0 0 0 47.277876,31.50877 15.714289,15.7193 0 0 0 31.563598,15.789471 Z"
       id="path6" />
    <ellipse
       style="fill:#2d3d53;stroke-width:0.982303;fill-opacity:1"
       cx="27.571436"
       cy="31.508774"
       id="circle6"
       rx="7.857142"
       ry="7.8596478" />
    <path
       style="fill:#ffffff;stroke-width:0.982303"
       d="m 25.428788,36.075778 c 0,-0.244726 0.03515,-0.451488 0.105367,-0.620852 0.0702,-0.1688 0.167626,-0.30533 0.292766,-0.40955 0.12457,-0.1042 0.271808,-0.179576 0.441132,-0.226594 0.168736,-0.04648 0.3494,-0.07022 0.541937,-0.07022 0.182322,0 0.355638,0.02384 0.519292,0.07022 0.163668,0.0471 0.308058,0.12236 0.4332,0.226594 0.1246,0.1042 0.223127,0.240746 0.296171,0.40955 0.07308,0.16938 0.109276,0.376126 0.109276,0.620852 0,0.23451 -0.03618,0.435046 -0.109276,0.60159 -0.07308,0.16599 -0.171595,0.304746 -0.296171,0.41408 -0.12514,0.10882 -0.269546,0.18806 -0.4332,0.237918 -0.163658,0.04926 -0.336952,0.07416 -0.519292,0.07416 -0.192519,0 -0.373185,-0.02492 -0.541937,-0.07416 -0.169326,-0.04988 -0.316556,-0.12915 -0.441132,-0.237918 -0.12515,-0.10929 -0.222561,-0.248108 -0.292766,-0.41408 -0.06957,-0.16624 -0.104897,-0.366674 -0.104897,-0.60129 m 0.257672,-2.6024 v -0.645122 c 0,-0.26567 0.02719,-0.506418 0.08199,-0.722246 0.0543,-0.216382 0.137623,-0.421436 0.249735,-0.616878 0.111594,-0.19486 0.25596,-0.385186 0.432652,-0.56987 0.177254,-0.18466 0.390733,-0.37614 0.640464,-0.573834 0.218594,-0.17165 0.403199,-0.325152 0.553827,-0.461106 0.151192,-0.13481 0.272951,-0.269076 0.366967,-0.40218 0.09343,-0.13256 0.161379,-0.27135 0.20271,-0.41693 0.04197,-0.14613 0.06296,-0.31553 0.06296,-0.507552 0,-0.296832 -0.100767,-0.542108 -0.300712,-0.73415 -0.200454,-0.1926 -0.506254,-0.288898 -0.917371,-0.288898 -0.358478,0 -0.745238,0.07538 -1.159194,0.22603 -0.412827,0.15124 -0.84151,0.335904 -1.283747,0.554566 l -0.795608,-1.725442 c 0.223119,-0.1303 0.466619,-0.253782 0.729369,-0.370468 0.26334,-0.11732 0.536283,-0.221492 0.819429,-0.312684 0.283709,-0.09068 0.571384,-0.16258 0.862455,-0.21469 0.291645,-0.05214 0.57761,-0.07818 0.859062,-0.07818 0.530609,0 1.009132,0.06405 1.435552,0.191487 0.426984,0.12746 0.788842,0.313236 1.085006,0.55796 0.297305,0.24471 0.524387,0.54211 0.682944,0.89049 0.159129,0.348948 0.23841,0.746608 0.23841,1.194082 0,0.32798 -0.03687,0.620854 -0.109255,0.878592 -0.07248,0.257754 -0.181202,0.497358 -0.323347,0.718272 -0.143844,0.2215 -0.323357,0.435046 -0.539108,0.640124 -0.215771,0.205624 -0.467195,0.423151 -0.753174,0.652004 -0.21859,0.17165 -0.396957,0.32174 -0.535135,0.449206 -0.137636,0.12746 -0.245776,0.248686 -0.323347,0.362532 -0.07813,0.11497 -0.131398,0.233402 -0.160269,0.35575 -0.02843,0.12181 -0.04299,0.266244 -0.04299,0.432784 v 0.536362 H 25.68699 Z"
       id="path7" />
    <path
       style="opacity:0.1;fill:#ffffff;stroke-width:0.982303"
       d="M 6.750767,4 C 5.2272678,4 4,5.2276592 4,6.7516442 v 0.982457 C 4,6.2101152 5.2272678,4.982456 6.750767,4.982456 h 1.1778051 3.9285719 3.928567 15.299946 c 0.05426,0 0.11767,0.014383 0.172646,0.015355 A 27.5,27.50877 0 0 1 31.5,4.982456 27.5,27.50877 0 0 1 58.978903,32.076755 27.5,27.50877 0 0 0 59,31.50877 27.5,27.50877 0 0 0 31.5,4 27.5,27.50877 0 0 0 31.258303,4.0153508 C 31.203327,4.0143856 31.13995,4 31.085657,4 H 15.785711 11.857144 7.9285721 Z"
       id="path8" />
  </g>
</svg>
