<?xml version="1.0" encoding="UTF-8" standalone="no"?>
<svg
   width="62"
   height="62"
   version="1.1"
   id="svg18"
   sodipodi:docname="net.danigm.loop.svg"
   inkscape:version="1.4 (unknown)"
   xmlns:inkscape="http://www.inkscape.org/namespaces/inkscape"
   xmlns:sodipodi="http://sodipodi.sourceforge.net/DTD/sodipodi-0.dtd"
   xmlns="http://www.w3.org/2000/svg"
   xmlns:svg="http://www.w3.org/2000/svg">
  <defs
     id="defs18" />
  <sodipodi:namedview
     id="namedview18"
     pagecolor="#ffffff"
     bordercolor="#000000"
     borderopacity="0.25"
     inkscape:showpageshadow="2"
     inkscape:pageopacity="0.0"
     inkscape:pagecheckerboard="0"
     inkscape:deskcolor="#d1d1d1"
     inkscape:zoom="12.078125"
     inkscape:cx="32"
     inkscape:cy="32"
     inkscape:window-width="1920"
     inkscape:window-height="996"
     inkscape:window-x="0"
     inkscape:window-y="0"
     inkscape:window-maximized="1"
     inkscape:current-layer="svg18" />
  <g
     id="g18"
     transform="matrix(0.98214286,0,0,0.98245614,-0.42857152,-0.92982456)">
    <path
       style="opacity:0.2"
       d="M 33.132812,31 C 32.136924,31 32,31.789424 32,32.800782 v 5.42578 c 0,7.205356 3.713056,12.432226 10,14.722656 V 57 H 35.609376 C 33.571838,57 32,58.201952 32,60.140624 V 61 H 46 60 V 60.140624 C 60,58.201952 58.428162,57 56.390624,57 H 50 v -4.050782 c 6.286944,-2.29043 10,-7.5173 10,-14.722656 v -5.42578 C 60,31.789424 59.863076,31 58.867188,31 57.869124,31 58,31.789424 58,32.800782 v 5.42578 C 58,45.418194 53.04748,51 46,51 38.95252,51 34,45.418194 34,38.226562 v -5.42578 C 34,31.789424 34.130876,31 33.132812,31 Z"
       id="path1" />
    <path
       style="fill:#c8c8c8"
       d="M 33.132812,30 C 32.136924,30 32,30.789424 32,31.800782 v 5.42578 c 0,7.205356 3.713056,12.432226 10,14.722656 V 56 H 35.609376 C 33.571838,56 32,57.201952 32,59.140624 V 60 H 46 60 V 59.140624 C 60,57.201952 58.428162,56 56.390624,56 H 50 v -4.050782 c 6.286944,-2.29043 10,-7.5173 10,-14.722656 v -5.42578 C 60,30.789424 59.863076,30 58.867188,30 57.869124,30 58,30.789424 58,31.800782 v 5.42578 C 58,44.418194 53.04748,50 46,50 38.95252,50 34,44.418194 34,37.226562 v -5.42578 C 34,30.789424 34.130876,30 33.132812,30 Z"
       id="path2" />
    <path
       style="opacity:0.2;fill:#ffffff"
       d="M 33.132812,30 C 32.136924,30 32,30.789423 32,31.800781 v 1 C 32,31.789423 32.136924,31 33.132812,31 33.850171,31 33.981287,31.410703 34,32.015625 V 31.800781 C 34,30.789423 34.130876,30 33.132812,30 Z m 25.734376,0 C 57.869124,30 58,30.789423 58,31.800781 v 0.214844 C 58.018713,31.410703 58.149829,31 58.867188,31 59.863076,31 60,31.789423 60,32.800781 v -1 C 60,30.789423 59.863076,30 58.867188,30 Z M 34,37.226562 v 1 C 34,45.418194 38.95252,51 46,51 53.04748,51 58,45.418194 58,38.226562 v -1 C 58,44.418194 53.04748,50 46,50 38.95252,50 34,44.418194 34,37.226562 Z M 35.609375,56 C 33.571837,56 32,57.201953 32,59.140625 V 60 h 0.0078 c 0.07517,-1.854905 1.614419,-3 3.601563,-3 H 42 V 56 Z M 50,56 v 1 h 6.390625 c 1.987144,0 3.526394,1.145095 3.601563,3 H 60 V 59.140625 C 60,57.201953 58.428163,56 56.390625,56 Z"
       id="path3" />
    <path
       style="opacity:0.2"
       d="M 45.998807,17 C 50.984634,17 55,20.451284 55,24.738857 V 40.261143 C 55,44.548716 50.984634,48 45.998807,48 41.012981,48 37,44.548716 37,40.261143 V 24.738857 C 37,20.451284 41.012981,17 45.998807,17 Z m 0,0"
       id="path4" />
    <path
       style="fill:#7137c8"
       d="M 45.998807,16 C 50.984634,16 55,19.451284 55,23.738857 V 39.261143 C 55,43.548716 50.984634,47 45.998807,47 41.012981,47 37,43.548716 37,39.261143 V 23.738857 C 37,19.451284 41.012981,16 45.998807,16 Z m 0,0"
       id="path5" />
    <path
       style="opacity:0.2;fill:#ffffff"
       d="M 45.998047,16 C 41.012221,16 37,19.450708 37,23.738281 v 1 C 37,20.450708 41.012221,17 45.998047,17 50.983874,17 55,20.450708 55,24.738281 v -1 C 55,19.450708 50.983874,16 45.998047,16 Z"
       id="path6" />
    <path
       style="opacity:0.2"
       d="m 19.924,25.000742 c -1.05813,0 -1.924,0.867158 -1.924,1.878516 v 7.947378 c 0,7.205358 5.320122,13.270894 12,15.561324 v 4.612704 H 21.83496 C 19.670079,55.000664 18,56.472212 18,58.339336 V 61 h 17 15 v -2.660664 c 0,-1.867124 -1.73224,-2.823618 -3.83496,-3.338672 H 38 V 50.38796 c 6.710612,0 12,-8.355966 12,-15.561324 V 26.879258 C 50,25.8679 49.134128,25.000742 48.076,25.000742 47.015556,25.000742 46,25.8679 46,26.879258 v 7.947378 c 0,7.19163 -3.512054,12.173434 -11,12.173434 -7.487948,0 -13,-4.981804 -13,-12.173434 V 26.879258 C 22,25.8679 20.984446,25.000742 19.924,25.000742 Z"
       id="path7" />
    <path
       style="fill:#d5d5d5"
       d="m 19.924,24.000742 c -1.05813,0 -1.924,0.867158 -1.924,1.878516 v 7.947378 c 0,7.205358 5.320122,13.270894 12,15.561324 v 4.612704 H 21.83496 C 19.670079,54.000664 18,55.472212 18,57.339336 V 60 h 17 15 v -2.660664 c 0,-1.867124 -1.73224,-2.823618 -3.83496,-3.338672 H 38 V 49.38796 c 6.710612,0 12,-8.355966 12,-15.561324 V 25.879258 C 50,24.8679 49.134128,24.000742 48.076,24.000742 47.015556,24.000742 46,24.8679 46,25.879258 v 7.947378 c 0,7.19163 -3.512054,12.173434 -11,12.173434 -7.487948,0 -13,-4.981804 -13,-12.173434 V 25.879258 C 22,24.8679 20.984446,24.000742 19.924,24.000742 Z"
       id="path8" />
    <path
       style="opacity:0.2"
       d="M 33.998807,11 C 38.984632,11 43,14.673947 43,19.238138 V 35.761864 C 43,40.326052 38.984632,44 33.998807,44 29.012983,44 25,40.326052 25,35.761864 V 19.238138 C 25,14.673947 29.012983,11 33.998807,11 Z m 0,0"
       id="path9" />
    <path
       style="fill:#c83771"
       d="M 33.998807,10 C 38.984632,10 43,13.673947 43,18.238138 V 34.761864 C 43,39.326052 38.984632,43 33.998807,43 29.012983,43 25,39.326052 25,34.761864 V 18.238138 C 25,13.673947 29.012983,10 33.998807,10 Z m 0,0"
       id="path10" />
    <path
       style="opacity:0.2"
       d="M 5.924,21.000742 C 4.86587,21.000742 4,21.8679 4,22.879258 v 9.94808 c 0,7.205358 5.3201226,13.270894 12,15.561324 v 4.612002 H 7.8349608 C 5.6700786,53.000664 4,54.472212 4,56.339336 V 61 h 17 17 v -4.660664 c 0,-1.867124 -1.670728,-3.391684 -3.83496,-3.338672 H 26 v -4.612002 c 6.679874,-2.29043 12,-8.355966 12,-15.561324 v -9.94808 C 38,21.8679 37.134128,21.000742 36.076,21.000742 35.015556,21.000742 34,21.8679 34,22.879258 v 9.94808 c 0,7.19163 -5.512054,12.173434 -13,12.173434 -7.487948,0 -13,-4.981804 -13,-12.173434 v -9.94808 C 8,21.8679 6.984445,21.000742 5.924,21.000742 Z"
       id="path11" />
    <path
       style="opacity:0.2;fill:#ffffff"
       d="M 19.923828,24 C 18.865698,24 18,24.867548 18,25.878906 v 1 C 18,25.867548 18.865698,25 19.923828,25 20.984274,25 22,25.867548 22,26.878906 v -1 C 22,24.867548 20.984274,24 19.923828,24 Z m 28.152344,0 C 47.015728,24 46,24.867548 46,25.878906 v 1 C 46,25.867548 47.015728,25 48.076172,25 49.1343,25 50,25.867548 50,26.878906 v -1 C 50,24.867548 49.1343,24 48.076172,24 Z M 22,33.826172 v 1 C 22,42.017802 27.512052,47 35,47 42.487946,47 46,42.017802 46,34.826172 v -1 C 46,41.017802 42.487946,46 35,46 27.512052,46 22,41.017802 22,33.826172 Z M 21.833984,54 C 19.669103,54 18,55.47272 18,57.339844 v 1 C 18,56.47272 19.669103,55 21.833984,55 H 30 V 54 Z M 38,54 v 1 h 8.166016 C 48.268736,55.515054 50,56.47272 50,58.339844 v -1 C 50,55.47272 48.268736,54.515054 46.166016,54 Z"
       id="path12" />
    <path
       style="fill:#e4e4e4"
       d="M 5.924,20.000742 C 4.86587,20.000742 4,20.8679 4,21.879258 v 9.94808 c 0,7.205358 5.3201226,13.270894 12,15.561324 v 4.612002 H 7.8349608 C 5.6700786,52.000664 4,53.472212 4,55.339336 V 60 h 17 17 v -4.660664 c 0,-1.867124 -1.670728,-3.391684 -3.83496,-3.338672 H 26 v -4.612002 c 6.679874,-2.29043 12,-8.355966 12,-15.561324 v -9.94808 C 38,20.8679 37.134128,20.000742 36.076,20.000742 35.015556,20.000742 34,20.8679 34,21.879258 v 9.94808 c 0,7.19163 -5.512054,12.173434 -13,12.173434 -7.487948,0 -13,-4.981804 -13,-12.173434 v -9.94808 C 8,20.8679 6.984445,20.000742 5.924,20.000742 Z"
       id="path13" />
    <path
       style="opacity:0.2"
       d="M 20.998791,5 C 26.539187,5 31,9.1200924 31,14.237875 V 32.762126 C 31,37.879908 26.539187,42 20.998791,42 15.460814,42 11,37.879908 11,32.762126 V 14.237875 C 11,9.1200924 15.460814,5 20.998791,5 Z m 0,0"
       id="path14" />
    <path
       style="opacity:0.2;fill:#ffffff"
       d="M 33.998047,10 C 29.012223,10 25,13.67409 25,18.238281 v 1 C 25,14.67409 29.012223,11 33.998047,11 38.983872,11 43,14.67409 43,19.238281 v -1 C 43,13.67409 38.983872,10 33.998047,10 Z"
       id="path15" />
    <path
       style="fill:#ffcc00"
       d="M 20.998791,4 C 26.539187,4 31,8.1200924 31,13.237875 V 31.762126 C 31,36.879908 26.539187,41 20.998791,41 15.460814,41 11,36.879908 11,31.762126 V 13.237875 C 11,8.1200924 15.460814,4 20.998791,4 Z m 0,0"
       id="path16" />
    <path
       style="opacity:0.2;fill:#ffffff"
       d="M 5.9238281,20 C 4.8656981,20 4,20.867548 4,21.878906 v 1 C 4,21.867548 4.8656981,21 5.9238281,21 6.9842731,21 8,21.867548 8,22.878906 v -1 C 8,20.867548 6.9842731,20 5.9238281,20 Z M 36.076172,20 C 35.015728,20 34,20.867548 34,21.878906 v 1 C 34,21.867548 35.015728,21 36.076172,21 37.1343,21 38,21.867548 38,22.878906 v -1 C 38,20.867548 37.1343,20 36.076172,20 Z M 8,31.828125 v 1 C 8,40.019755 13.512052,45 21,45 28.487946,45 34,40.019755 34,32.828125 v -1 C 34,39.019755 28.487946,44 21,44 13.512052,44 8,39.019755 8,31.828125 Z M 7.8339844,52 C 5.6691022,52 4,53.47272 4,55.339844 v 1 C 4,54.47272 5.6691022,53 7.8339844,53 H 16 V 52 Z M 26,52 v 1 h 8.166016 C 36.330248,52.946988 38,54.47272 38,56.339844 v -1 C 38,53.47272 36.330248,51.946988 34.166016,52 Z"
       id="path17" />
    <path
       style="opacity:0.2;fill:#ffffff"
       d="M 20.998047,4 C 15.46007,4 11,8.1204987 11,13.238281 v 1 C 11,9.1204987 15.46007,5 20.998047,5 26.538443,5 31,9.1204987 31,14.238281 v -1 C 31,8.1204987 26.538443,4 20.998047,4 Z"
       id="path18" />
  </g>
</svg>
