<?xml version="1.0" encoding="UTF-8" standalone="no"?>
<svg
   width="62"
   height="62"
   version="1.0"
   id="svg7"
   sodipodi:docname="kvirc.svg"
   inkscape:version="1.4 (unknown)"
   xmlns:inkscape="http://www.inkscape.org/namespaces/inkscape"
   xmlns:sodipodi="http://sodipodi.sourceforge.net/DTD/sodipodi-0.dtd"
   xmlns="http://www.w3.org/2000/svg"
   xmlns:svg="http://www.w3.org/2000/svg">
  <defs
     id="defs7" />
  <sodipodi:namedview
     id="namedview7"
     pagecolor="#ffffff"
     bordercolor="#000000"
     borderopacity="0.25"
     inkscape:showpageshadow="2"
     inkscape:pageopacity="0.0"
     inkscape:pagecheckerboard="0"
     inkscape:deskcolor="#d1d1d1"
     inkscape:zoom="7.0710678"
     inkscape:cx="35.567471"
     inkscape:cy="40.65864"
     inkscape:window-width="1920"
     inkscape:window-height="996"
     inkscape:window-x="0"
     inkscape:window-y="0"
     inkscape:window-maximized="1"
     inkscape:current-layer="svg7" />
  <g
     id="g7"
     transform="translate(-0.5,-0.99917283)">
    <path
       style="opacity:0.2;fill-rule:evenodd;stroke-width:0.982294"
       d="m 31.052827,4.9832287 c -0.959296,0.015319 -1.907875,0.081097 -2.840439,0.1924158 A 1.9187963,1.9193529 0 0 0 26.63354,6.4350936 l -1.541379,4.3131134 c -1.531393,0.452937 -2.990264,1.056796 -4.369322,1.804209 L 16.595842,10.58078 a 1.9187963,1.9193529 0 0 0 -2.006041,0.219901 c -1.756154,1.372238 -3.342037,2.953522 -4.7190704,4.705447 a 1.9187963,1.9193529 0 0 0 -0.2273352,2.00912 l 1.9560746,4.135693 c -0.751507,1.376581 -1.358217,2.834912 -1.8161764,4.365588 L 5.4714295,27.543365 A 1.9187963,1.9193529 0 0 0 4.204851,29.117679 C 4.0695102,30.222679 4,31.349102 4,32.491198 c 0,1.11157 0.066121,2.209671 0.1948582,3.288565 a 1.9187963,1.9193529 0 0 0 1.2590845,1.579312 l 4.3093654,1.54182 c 0.4536239,1.531965 1.0590559,2.99015 1.8061869,4.368091 l -1.9710664,4.130696 a 1.9187963,1.9193529 0 0 0 0.2198401,2.006623 c 1.3720483,1.756624 2.9516963,3.342691 4.7040743,4.720433 a 1.9187963,1.9193529 0 0 0 2.006044,0.2274 L 20.662884,52.395 c 1.376213,0.751385 2.832373,1.358913 4.361823,1.816703 l 1.526393,4.315611 a 1.9187963,1.9193529 0 0 0 1.576351,1.264446 c 1.104905,0.135438 2.230641,0.207413 3.372549,0.207413 1.111119,0 2.209222,-0.06617 3.287605,-0.194916 a 1.9187963,1.9193529 0 0 0 1.578855,-1.259448 l 1.538879,-4.310611 c 1.532172,-0.453356 2.990401,-1.059132 4.369327,-1.806714 l 4.129494,1.971637 a 1.9187963,1.9193529 0 0 0 2.006041,-0.219903 c 1.75616,-1.372245 3.342026,-2.953501 4.719064,-4.705444 a 1.9187963,1.9193529 0 0 0 0.227337,-2.006617 L 51.39803,43.331462 c 0.752074,-1.377205 1.360453,-2.834111 1.818673,-4.365595 l 4.311866,-1.52683 A 1.9187963,1.9193529 0 0 0 58.79515,35.862229 C 58.93026,34.758306 59,33.632877 59,32.491198 59,31.379182 58.93412,30.28014 58.805143,29.200137 a 1.9187963,1.9193529 0 0 0 -1.259086,-1.57931 L 53.236694,26.081501 C 52.784075,24.550236 52.179588,23.092108 51.433001,21.71341 l 1.971071,-4.130688 A 1.9187963,1.9193529 0 0 0 53.184227,15.576099 C 51.812082,13.81882 50.231901,12.233319 48.48015,10.855658 A 1.9187963,1.9193529 0 0 0 46.474107,10.63076 l -4.134488,1.956645 C 40.961114,11.834261 39.503055,11.224248 37.970293,10.7657 L 36.443906,6.4525858 A 1.9187963,1.9193529 0 0 0 34.870049,5.188139 C 33.763203,5.0525872 32.638118,4.9832287 31.5,4.9832287 c -0.09413,0 -0.212315,-0.00183 -0.35474,0 0.02361,-3.012e-4 -0.0073,-0.00139 -0.09244,0 z"
       id="path1" />
    <path
       style="fill:#8d5fd3;fill-rule:evenodd;stroke-width:0.982294"
       d="m 31.052827,4.0007853 c -0.959296,0.015319 -1.907875,0.081097 -2.840439,0.1924159 A 1.9187963,1.9193529 0 0 0 26.63354,5.4526505 L 25.092161,9.7657646 C 23.560768,10.218706 22.101897,10.822558 20.722839,11.569978 L 16.595842,9.598338 A 1.9187963,1.9193529 0 0 0 14.589801,9.8182416 C 12.833647,11.190473 11.247764,12.771765 9.8707306,14.523683 A 1.9187963,1.9193529 0 0 0 9.6433954,16.53281 l 1.9560746,4.135686 c -0.751507,1.37658 -1.358217,2.834912 -1.8161764,4.365594 L 5.4714295,26.560921 A 1.9187963,1.9193529 0 0 0 4.204851,28.135233 C 4.0695102,29.24024 4,30.366658 4,31.508758 c 0,1.111571 0.066121,2.209666 0.1948582,3.28856 a 1.9187963,1.9193529 0 0 0 1.2590845,1.579312 l 4.3093654,1.541826 c 0.4536239,1.531959 1.0590559,2.990145 1.8061869,4.368091 l -1.9710664,4.130691 a 1.9187963,1.9193529 0 0 0 0.2198401,2.006622 c 1.3720483,1.756624 2.9516963,3.34269 4.7040743,4.720439 a 1.9187963,1.9193529 0 0 0 2.006044,0.2274 l 4.134497,-1.959146 c 1.376213,0.751388 2.832373,1.358923 4.361823,1.816705 l 1.526393,4.315619 a 1.9187963,1.9193529 0 0 0 1.576351,1.264445 c 1.104905,0.135431 2.230641,0.207405 3.372549,0.207405 1.111119,0 2.209222,-0.06617 3.287605,-0.194915 a 1.9187963,1.9193529 0 0 0 1.578855,-1.259449 l 1.538879,-4.310611 c 1.532172,-0.453349 2.990401,-1.059133 4.369327,-1.806714 l 4.129494,1.971637 a 1.9187963,1.9193529 0 0 0 2.006041,-0.219903 c 1.75616,-1.372236 3.342026,-2.953501 4.719064,-4.705437 A 1.9187963,1.9193529 0 0 0 53.356602,46.48471 L 51.39803,42.349015 c 0.752074,-1.377202 1.360453,-2.834109 1.818673,-4.365587 l 4.311866,-1.526834 A 1.9187963,1.9193529 0 0 0 58.79515,34.879785 C 58.93026,33.775861 59,32.650433 59,31.508758 59,30.396737 58.93412,29.297696 58.805143,28.217699 a 1.9187963,1.9193529 0 0 0 -1.259086,-1.579312 l -4.309363,-1.539325 c -0.452619,-1.531271 -1.057106,-2.989393 -1.803693,-4.368089 l 1.971071,-4.130696 A 1.9187963,1.9193529 0 0 0 53.184227,14.593653 C 51.812082,12.836374 50.231901,11.25088 48.48015,9.8732177 A 1.9187963,1.9193529 0 0 0 46.474107,9.6483164 L 42.339619,11.60496 C 40.961114,10.851815 39.503055,10.241801 37.970293,9.7832571 L 36.443906,5.4701432 A 1.9187963,1.9193529 0 0 0 34.870049,4.2056958 C 33.763203,4.0701446 32.638118,4.0007853 31.5,4.0007853 c -0.09413,0 -0.212315,-0.00183 -0.35474,0 0.02361,-3.003e-4 -0.0073,-0.00139 -0.09244,0 z"
       id="path2" />
    <path
       style="opacity:0.1;fill:#ffffff;fill-rule:evenodd;stroke-width:0.982294"
       d="m 31.053046,3.999986 c -0.95929,0.015318 -1.908364,0.082486 -2.840922,0.1938016 A 1.9187963,1.9193529 0 0 0 26.633406,5.4525412 L 25.09305,9.7660754 C 23.561665,10.219014 22.102348,10.822364 20.723285,11.569777 L 16.595217,9.5991371 A 1.9187963,1.9193529 0 0 0 14.590643,9.817884 c -1.756153,1.372234 -3.343775,2.95305 -4.7208046,4.704979 A 1.9187963,1.9193529 0 0 0 9.5245533,16.197997 1.9187963,1.9193529 0 0 1 9.8698384,15.505299 C 11.246868,13.75338 12.83449,12.172563 14.590643,10.800325 a 1.9187963,1.9193529 0 0 1 2.004574,-0.218744 l 4.128068,1.97064 c 1.379063,-0.74742 2.838379,-1.350763 4.369765,-1.803702 l 1.540356,-4.3135358 a 1.9187963,1.9193529 0 0 1 1.578718,-1.2587538 c 0.932558,-0.1113172 1.881632,-0.1784866 2.840922,-0.1938019 0.08529,-0.00139 0.115671,-3.013e-4 0.0921,0 0.142425,-0.00183 0.260727,0 0.354876,0 1.138118,0 2.263519,0.06976 3.370364,0.2053151 a 1.9187963,1.9193529 0 0 1 1.572957,1.26451 l 1.526922,4.3135354 c 1.532762,0.458548 2.991268,1.067825 4.369772,1.820969 l 4.133824,-1.955286 a 1.9187963,1.9193529 0 0 1 2.006487,0.224503 c 1.751753,1.37766 3.331397,2.963048 4.703543,4.720326 a 1.9187963,1.9193529 0 0 1 0.341443,0.686941 1.9187963,1.9193529 0 0 0 -0.341447,-1.669384 C 51.811727,12.836578 50.232082,11.251188 48.48033,9.8735299 A 1.9187963,1.9193529 0 0 0 46.473843,9.6490265 L 42.340019,11.604313 C 40.961515,10.851168 39.503009,10.24189 37.970247,9.7833444 L 36.443325,5.469811 A 1.9187963,1.9193529 0 0 0 34.870364,4.2053004 C 33.76352,4.0697492 32.638118,3.999986 31.5,3.999986 c -0.09413,0 -0.212451,-0.00183 -0.354876,0 0.02361,-3.013e-4 -0.0069,-0.00139 -0.0921,0 z M 11.358399,21.140911 c -0.637905,1.237794 -1.168497,2.534998 -1.5748822,3.893306 L 5.4712962,26.561611 A 1.9187963,1.9193529 0 0 0 4.2052528,28.13505 C 4.0699119,29.240057 4,30.36626 4,31.508355 c 0,0.16597 0.012411,0.329715 0.01535,0.495059 0.017011,-0.974432 0.073968,-1.939317 0.1899068,-2.885919 a 1.9187963,1.9193529 0 0 1 1.266041,-1.57344 L 9.783518,26.016661 c 0.457955,-1.530682 1.06507,-2.988762 1.816578,-4.365344 z m 40.315817,0.06521 -0.241705,0.506575 c 0.746588,1.378697 1.352453,2.837911 1.805071,4.36918 l 4.308385,1.538905 a 1.9187963,1.9193529 0 0 1 1.258369,1.579198 c 0.109701,0.918743 0.16363,1.853161 0.180317,2.795733 0.0029,-0.162975 0.01532,-0.323733 0.01532,-0.487388 0,-1.112015 -0.0667,-2.210796 -0.195665,-3.290792 A 1.9187963,1.9193529 0 0 0 57.545964,26.638354 L 53.237579,25.099451 C 52.836265,23.741729 52.307504,22.44447 51.674213,21.206139 Z M 11.327708,42.793003 9.5993652,46.417681 a 1.9187963,1.9193529 0 0 0 -0.1227678,1.316315 1.9187963,1.9193529 0 0 1 0.1227678,-0.333878 l 1.9700398,-4.13124 c -0.08481,-0.156402 -0.160563,-0.317417 -0.241697,-0.475875 z m 40.311972,0.06716 c -0.08104,0.157102 -0.157003,0.316947 -0.241696,0.472032 l 1.958533,4.135083 a 1.9187963,1.9193529 0 0 1 0.118928,0.328119 1.9187963,1.9193529 0 0 0 -0.118928,-1.310557 z"
       id="path3" />
    <ellipse
       style="opacity:0.2;stroke-width:0.982294"
       cx="31.500002"
       cy="32.49081"
       id="circle3"
       rx="14.732141"
       ry="14.736627" />
    <ellipse
       style="fill:#ffbe33;stroke-width:0.982294;fill-opacity:1"
       cx="31.500002"
       cy="31.508356"
       id="circle4"
       rx="14.732141"
       ry="14.736627" />
    <path
       style="opacity:0.2;fill:#ffffff;stroke-width:0.982294"
       d="M 31.5,16.771731 A 14.732145,14.736631 0 0 0 16.767856,31.508355 14.732145,14.736631 0 0 0 16.78705,32.084012 14.732145,14.736631 0 0 1 31.500011,17.754175 14.732145,14.736631 0 0 1 46.212972,31.91515 14.732145,14.736631 0 0 0 46.232166,31.508355 14.732145,14.736631 0 0 0 31.500023,16.771731 Z"
       id="path4" />
    <path
       style="opacity:0.1;stroke-width:0.982294"
       d="M 13.141483,7.9297529 27.789518,43.297659 h 7.420964 L 49.858517,7.9297529 H 41.215775 L 31.5,33.775531 21.784223,7.9297529 Z"
       id="path5" />
    <path
       style="fill:#c83771;stroke-width:0.982294"
       d="M 13.141483,6.9473114 27.789518,42.315216 h 7.420964 L 49.858517,6.9473114 H 41.215775 L 31.5,32.793086 21.784223,6.9473114 Z"
       id="path6" />
    <path
       style="opacity:0.2;fill:#ffffff;stroke-width:0.982294"
       d="m 13.142365,6.9473114 0.406673,0.9824415 h 8.235036 L 31.5,33.776416 41.215926,7.9297529 h 8.235036 L 49.857628,6.9473114 H 41.215926 L 31.5,32.793978 21.784074,6.9473114 Z"
       id="path7" />
  </g>
</svg>
