<?xml version="1.0" encoding="UTF-8" standalone="no"?>
<svg
   width="62"
   height="62"
   version="1.1"
   id="svg29"
   sodipodi:docname="org.gaphor.Gaphor.svg"
   inkscape:version="1.4 (unknown)"
   xmlns:inkscape="http://www.inkscape.org/namespaces/inkscape"
   xmlns:sodipodi="http://sodipodi.sourceforge.net/DTD/sodipodi-0.dtd"
   xmlns:xlink="http://www.w3.org/1999/xlink"
   xmlns="http://www.w3.org/2000/svg"
   xmlns:svg="http://www.w3.org/2000/svg">
  <defs
     id="defs29">
    <linearGradient
       id="linearGradient29"
       inkscape:collect="always">
      <stop
         style="stop-color:#2d3d53;stop-opacity:1;"
         offset="0"
         id="stop29" />
      <stop
         style="stop-color:#354864;stop-opacity:1;"
         offset="1"
         id="stop30" />
    </linearGradient>
    <linearGradient
       inkscape:collect="always"
       xlink:href="#linearGradient29"
       id="linearGradient30"
       x1="30.782633"
       y1="60"
       x2="30.193521"
       y2="5"
       gradientUnits="userSpaceOnUse"
       gradientTransform="matrix(0.98214286,0,0,0.98245614,-0.42857152,-0.92982455)" />
  </defs>
  <sodipodi:namedview
     id="namedview29"
     pagecolor="#ffffff"
     bordercolor="#000000"
     borderopacity="0.25"
     inkscape:showpageshadow="2"
     inkscape:pageopacity="0.0"
     inkscape:pagecheckerboard="0"
     inkscape:deskcolor="#d1d1d1"
     inkscape:zoom="7.0710678"
     inkscape:cx="53.527983"
     inkscape:cy="25.385133"
     inkscape:window-width="1920"
     inkscape:window-height="996"
     inkscape:window-x="0"
     inkscape:window-y="0"
     inkscape:window-maximized="1"
     inkscape:current-layer="svg29" />
  <rect
     style="opacity:0.2;stroke-width:0.9823"
     width="55"
     height="55.017544"
     x="3.5"
     y="3.9824562"
     ry="13.754386"
     id="rect1" />
  <rect
     style="fill:url(#linearGradient30);stroke-width:0.9823"
     width="55"
     height="55.017544"
     x="3.5"
     y="3"
     ry="13.754386"
     id="rect2" />
  <path
     style="opacity:0.1;fill:#ffffff;stroke-width:0.9823"
     d="M 17.25,3 C 9.6324999,3 3.4999999,9.1344561 3.4999999,16.754386 v 0.982456 c 0,-7.61993 6.1325,-13.7543858 13.7500001,-13.7543858 h 27.5 c 7.6175,0 13.75,6.1344558 13.75,13.7543858 V 16.754386 C 58.5,9.1344561 52.3675,3 44.75,3 Z"
     id="path28" />
  <g
     id="g1"
     transform="translate(5.6378039,-61.722067)">
    <path
       style="opacity:0.2"
       d="m 34.428601,72.735936 c -0.256952,-0.0061 -0.522336,-0.0031 -0.796874,0.0078 -2.196304,0.08748 -4.968632,0.735264 -8.28125,2.867187 -3.313016,2.131923 -7.165328,5.747175 -9.914064,9.300783 -2.748341,3.553206 -4.622132,7.357474 -5.4687486,11.023436 -0.846617,3.665562 -0.741251,6.644998 -0.06641,9.499998 0.6744496,2.85541 2.6118096,5.42752 4.5624986,6.4375 1.951086,1.00999 3.989588,1.00361 6.48047,0.61719 2.490484,-0.38642 4.969746,-1.30703 6.945312,-2.44141 1.975172,-1.13477 3.447226,-2.48115 4.539062,-4.48828 0.30891,-0.56798 0.583076,-1.19364 0.820312,-1.82812 -0.293208,1.711 -0.580616,3.56076 -0.609374,4.74219 -0.04964,2.03976 1.463356,1.85818 2.296874,1.47265 0.833522,-0.38553 0.905902,-1.44471 1.515626,-3.60937 0.609324,-2.16467 1.13049,-5.19951 0.96875,-7.488284 -0.16174,-2.289176 -1.785642,-4.066466 -3.664062,-4.128906 -1.87842,-0.06206 -4.71478,1.357242 -7.339844,2.539062 -2.624664,1.18182 -5.035054,2.125634 -6.117188,3.257808 -1.082146,1.13178 -0.835594,2.4511 0.03516,2.82422 0.870752,0.37312 2.364368,-0.19862 3.832032,-0.88281 1.468068,-0.68419 2.909652,-1.48235 4.265624,-2.12891 0.908082,-0.433258 1.76819,-0.78927 2.523438,-1.062496 -0.431988,1.227396 -0.63225,3.034346 -1.605468,4.507816 -1.251362,1.89477 -2.936758,3.38043 -5.21875,4.26562 -2.282386,0.88559 -5.468848,1.56118 -7.382814,0.80078 -1.913966,-0.7608 -2.94134,-3.0346 -3.382812,-5.1914 -0.441867,-2.15721 -0.375237,-4.820482 0.335938,-7.289066 0.71196,-2.468586 1.838124,-4.979092 3.703124,-7.859374 1.865002,-2.879884 4.851906,-5.896236 7.722656,-8.277346 2.871152,-2.381511 6.142704,-3.90645 8.707032,-4.03125 2.564328,-0.124792 4.261006,1.758834 5.488282,2.132813 1.226878,0.373971 2.19964,-0.928036 2.01562,-1.800789 -0.184012,-0.872753 -1.364904,-1.924636 -2.628906,-2.660156 -1.105654,-0.643579 -2.482586,-1.086477 -4.28125,-1.128906 z"
       id="path2-3" />
    <path
       style="fill:#c83771"
       d="m 20.335029,102.34051 c -0.87075,-0.37312 -1.119366,-1.69186 -0.03722,-2.823637 1.082134,-1.132178 3.495418,-2.077392 6.120082,-3.259212 2.625064,-1.18182 5.461112,-2.599844 7.339532,-2.53779 1.87842,0.06244 3.501594,1.838842 3.663332,4.128018 0.16174,2.288781 -0.35749,5.323791 -0.966814,7.488461 -0.609724,2.16467 -0.684856,3.22393 -1.518378,3.60946 -0.833518,0.38553 -2.34694,0.56586 -2.297298,-1.4739 0.04966,-2.04016 0.881886,-6.14463 1.155724,-7.910959 0.273834,-1.766324 -0.870084,-1.897678 -1.802888,-1.636652 -0.933206,0.261426 -2.2019,0.759054 -3.55787,1.406012 -1.355972,0.646558 -2.798816,1.442849 -4.266884,2.127039 -1.467664,0.68419 -2.960552,1.25628 -3.831304,0.88316"
       id="path3-6" />
    <path
       style="fill:#c83771"
       d="m 25.129103,79.222312 c -2.87075,2.381109 -5.860478,5.398625 -7.72548,8.278509 -1.865,2.880282 -2.99038,5.388534 -3.70234,7.85712 -0.711175,2.468584 -0.778265,5.132699 -0.336398,7.289899 0.441472,2.15681 1.468922,4.43282 3.382888,5.19362 1.913966,0.7604 5.099948,0.0838 7.382334,-0.80175 2.281992,-0.88519 3.968472,-2.37035 5.219834,-4.26512 1.251758,-1.89518 1.220788,-4.356905 2.055162,-5.404207 0.834376,-1.047704 2.5337,-0.680586 2.68099,0.915648 0.14728,1.595832 -0.564674,4.263849 -1.656506,6.271379 -1.091836,2.00713 -2.564332,3.35378 -4.539504,4.48855 -1.975566,1.13438 -4.45421,2.05729 -6.944694,2.44371 -2.490882,0.38642 -4.531492,0.39328 -6.482578,-0.6167 -1.95069,-1.00999 -3.888877,-3.58428 -4.5633276,-6.43968 -0.674844,-2.85501 -0.779916,-5.834195 0.0667,-9.499755 0.8466176,-3.665962 2.7215466,-7.470034 5.4698876,-11.02324 2.748736,-3.553608 6.601152,-7.16941 9.914168,-9.301333 3.312618,-2.131922 6.085442,-2.780368 8.281746,-2.867844 2.196304,-0.08707 3.816086,0.386822 5.079692,1.12234 1.264002,0.73552 2.444128,1.788407 2.62814,2.66116 0.18402,0.872753 -0.791474,2.174132 -2.018356,1.800153 -1.227276,-0.373979 -2.923398,-2.257691 -5.487726,-2.132899 -2.564328,0.1248 -5.83348,1.648929 -8.70463,4.03044"
       id="path4-7" />
  </g>
  <text
     xml:space="preserve"
     style="font-size:14.1707px;font-family:'Blush Asliring';-inkscape-font-specification:'Blush Asliring';text-align:start;writing-mode:lr-tb;direction:ltr;text-anchor:start;fill:#37c871;stroke:#37c871;stroke-width:0.424455;stroke-linecap:round;stroke-linejoin:round;stroke-opacity:1;paint-order:fill markers stroke"
     x="25.703917"
     y="50.203102"
     id="text1"><tspan
       sodipodi:role="line"
       id="tspan1"
       x="25.703917"
       y="50.203102"
       style="fill:#37c871;stroke:#37c871;stroke-width:0.424455;stroke-opacity:1">MPX</tspan></text>
</svg>
