<?xml version="1.0" encoding="UTF-8" standalone="no"?>
<svg
   width="62"
   height="62"
   version="1.1"
   id="svg9"
   sodipodi:docname="nethack.svg"
   inkscape:version="1.4 (unknown)"
   xmlns:inkscape="http://www.inkscape.org/namespaces/inkscape"
   xmlns:sodipodi="http://sodipodi.sourceforge.net/DTD/sodipodi-0.dtd"
   xmlns:xlink="http://www.w3.org/1999/xlink"
   xmlns="http://www.w3.org/2000/svg"
   xmlns:svg="http://www.w3.org/2000/svg">
  <defs
     id="defs9">
    <linearGradient
       id="linearGradient1"
       inkscape:collect="always">
      <stop
         style="stop-color:#2d3d53;stop-opacity:1;"
         offset="0"
         id="stop1" />
      <stop
         style="stop-color:#415272;stop-opacity:1;"
         offset="1"
         id="stop2" />
    </linearGradient>
    <linearGradient
       inkscape:collect="always"
       xlink:href="#linearGradient1"
       id="linearGradient2"
       x1="31"
       y1="58.017544"
       x2="29.9"
       y2="0"
       gradientUnits="userSpaceOnUse" />
  </defs>
  <sodipodi:namedview
     id="namedview9"
     pagecolor="#ffffff"
     bordercolor="#000000"
     borderopacity="0.25"
     inkscape:showpageshadow="2"
     inkscape:pageopacity="0.0"
     inkscape:pagecheckerboard="0"
     inkscape:deskcolor="#d1d1d1"
     inkscape:zoom="5"
     inkscape:cx="58.9"
     inkscape:cy="61.1"
     inkscape:window-width="1920"
     inkscape:window-height="996"
     inkscape:window-x="0"
     inkscape:window-y="0"
     inkscape:window-maximized="1"
     inkscape:current-layer="svg9" />
  <rect
     style="opacity:0.2;stroke-width:0.9823"
     width="55"
     height="55.017544"
     x="3.5"
     y="3.9824562"
     ry="8.2526312"
     id="rect1" />
  <rect
     style="fill:url(#linearGradient2);fill-opacity:1;stroke-width:0.9823"
     width="55"
     height="55.017544"
     x="3.5"
     y="3"
     ry="8.2526312"
     id="rect2" />
  <path
     style="opacity:0.1;fill:#ffffff;stroke-width:0.9823"
     d="M 11.748466,3 C 7.1779651,3 3.4999999,6.6791384 3.4999999,11.251097 v 0.982456 c 0,-4.5719585 3.6779652,-8.2510968 8.2484661,-8.2510968 h 38.503068 c 4.5705,0 8.248466,3.6791383 8.248466,8.2510968 V 11.251097 C 58.5,6.6791384 54.822034,3 50.251534,3 Z"
     id="path9" />
  <g
     id="g1"
     transform="matrix(0.73386954,0,0,0.73683409,15.588732,-31.017103)">
    <path
       style="opacity:0.2"
       d="m -9.9023372,70.231964 a 2.5895013,2.5416066 1.0699172 0 1 3.7852841,-2.890678 L 40.863412,93.117848 c 1.523868,-1.292379 2.98807,-2.661827 4.607139,-3.838893 1.955938,0.446255 0.544402,2.922857 0.491953,4.280195 -0.147151,0.70422 -0.293804,1.408198 -0.440839,2.112376 l 5.117801,2.808123 a 2.5895013,2.5416066 1.0699172 1 1 -2.525436,4.435541 l -5.145681,-2.82392 c -0.929711,1.29969 -1.287871,3.03517 -0.36989,4.45005 0.943054,1.79967 3.130015,1.97796 4.929076,1.90695 1.627933,1.31407 -1.259972,3.28271 -2.374033,4.07971 -4.988592,3.11861 -12.022296,0.99357 -15.228782,-3.64939 -2.084274,-2.82771 -2.719001,-6.953746 -0.689514,-9.963638 1.759579,-1.292385 1.85473,2.049961 3.345013,2.479792 1.974171,1.408896 4.942043,0.356625 5.74781,-1.849016 L -8.642489,71.776831 a 2.5895013,2.5416066 1.0699172 0 1 -1.2598482,-1.544867 z"
       id="path1" />
    <path
       style="opacity:0.2"
       d="M 51.90235,70.231963 A 2.5416066,2.5895016 88.930089 0 0 48.117066,67.341286 L 1.136596,93.117848 c -1.523869,-1.292379 -2.9880709,-2.661828 -4.6071387,-3.838893 -1.9559391,0.446256 -0.5444022,2.922857 -0.4919544,4.280196 0.1471513,0.704219 0.2938052,1.408197 0.4408396,2.112374 l -5.1178021,2.808124 a 2.5416066,2.5895016 88.930089 1 0 2.5254373,4.435541 l 5.1456813,-2.82392 c 0.929711,1.29969 1.28787,3.03517 0.36989,4.45005 -0.9430535,1.79967 -3.1300159,1.97796 -4.9290767,1.90695 -1.6279338,1.31407 1.2599723,3.28271 2.3740332,4.07971 4.9885925,3.11861 12.0222975,0.99357 15.2287835,-3.64939 2.084275,-2.82771 2.719001,-6.953746 0.689515,-9.963638 -1.75958,-1.292385 -1.854732,2.04996 -3.345014,2.479792 -1.974172,1.408896 -4.942044,0.356625 -5.747811,-1.849016 L 50.642502,71.776831 a 2.5416066,2.5895016 88.930089 0 0 1.259848,-1.544868 z"
       id="path2" />
    <path
       style="fill:#008282;fill-opacity:1"
       d="M 51.90235,69.231963 A 2.5416066,2.5895016 88.930089 0 0 48.117066,66.341286 L 1.136596,92.117848 c -1.523869,-1.292379 -2.9880709,-2.661828 -4.6071387,-3.838893 -1.9559391,0.446256 -0.5444022,2.922857 -0.4919544,4.280196 0.1471513,0.704219 0.2938052,1.408197 0.4408396,2.112374 l -5.1178021,2.808124 a 2.5416066,2.5895016 88.930089 1 0 2.5254373,4.435541 l 5.1456813,-2.823923 c 0.929711,1.299693 1.28787,3.035173 0.36989,4.450053 -0.9430535,1.79967 -3.1300159,1.97796 -4.9290767,1.90695 -1.6279338,1.31407 1.2599723,3.28271 2.3740332,4.07971 4.9885925,3.11861 12.0222975,0.99357 15.2287835,-3.64939 2.084275,-2.82771 2.719001,-6.953746 0.689515,-9.963638 -1.75958,-1.292385 -1.854732,2.04996 -3.345014,2.479792 -1.974172,1.408897 -4.942044,0.356625 -5.747811,-1.849016 L 50.642502,70.776831 a 2.5416066,2.5895016 88.930089 0 0 1.259848,-1.544868 z"
       id="path3" />
    <path
       style="opacity:0.1;fill:#ffffff"
       d="m 49.53125,66.002568 a 2.5416066,2.5895016 88.930089 0 0 -1.414062,0.337891 L 1.136719,92.117803 c -1.523869,-1.292379 -2.9883543,-2.660826 -4.6074221,-3.837891 -1.0118816,0.230865 -1.1166819,1.005149 -0.9804688,1.886719 0.1040242,-0.424794 0.3836177,-0.750545 0.9804688,-0.886719 1.6190678,1.177065 3.0835531,2.545512 4.6074221,3.837891 L 48.117188,67.340459 a 2.5416066,2.5895016 88.930089 0 1 3.830078,1.701172 2.5416066,2.5895016 88.930089 0 0 -2.416016,-3.039063 z m -53.2402344,28.773438 -4.9296875,2.703125 a 2.5416066,2.5895016 88.930089 0 0 -1.3085937,2.740239 2.5416066,2.5895016 88.930089 0 1 1.3085937,-1.740239 l 5.1171875,-2.806641 c -0.062378,-0.298739 -0.1251923,-0.597784 -0.1875,-0.896484 z m 15.6386724,0.851562 c -1.009923,0.146499 -1.298912,2.41834 -2.509766,2.767578 -1.7246,1.230786 -4.208306,0.583486 -5.345703,-1.070312 l -0.402344,0.220703 c 0.805767,2.205641 3.773875,3.258503 5.748047,1.849609 1.490282,-0.429832 1.586123,-3.772854 3.345703,-2.480469 0.751608,1.114697 1.136263,2.383418 1.21875,3.681643 0.08662,-1.640046 -0.274733,-3.281589 -1.21875,-4.681643 -0.329921,-0.242322 -0.602878,-0.320916 -0.835937,-0.287109 z m -12.03711,6.554692 c -0.06297,0.46821 -0.211119,0.92917 -0.490234,1.35937 -0.9430537,1.79967 -3.130627,1.97726 -4.9296878,1.90625 -0.5320818,0.4295 -0.5764209,0.92996 -0.3632812,1.43555 0.078617,-0.15085 0.1917584,-0.2971 0.3632812,-0.43555 1.7990608,0.071 3.9866341,-0.10658 4.9296878,-1.90625 0.477266,-0.73561 0.603844,-1.55674 0.490234,-2.35937 z"
       id="path4" />
    <path
       style="fill:#00b8b8;fill-opacity:1"
       d="m -9.9023372,69.231964 a 2.5895013,2.5416066 1.0699172 0 1 3.7852841,-2.890678 L 40.863412,92.117848 c 1.523868,-1.292379 2.98807,-2.661827 4.607139,-3.838893 1.955938,0.446255 0.544402,2.922857 0.491953,4.280195 -0.147151,0.70422 -0.293804,1.408198 -0.440839,2.112376 l 5.117801,2.808123 a 2.5895013,2.5416066 1.0699172 1 1 -2.525436,4.435541 l -5.145681,-2.823923 c -0.929711,1.299693 -1.287871,3.035173 -0.36989,4.450053 0.943054,1.79967 3.130015,1.97796 4.929076,1.90695 1.627933,1.31407 -1.259972,3.28271 -2.374033,4.07971 -4.988592,3.11861 -12.022296,0.99357 -15.228782,-3.64939 -2.084274,-2.82771 -2.719001,-6.953746 -0.689514,-9.963638 1.759579,-1.292385 1.85473,2.049961 3.345013,2.479792 1.974171,1.408897 4.942043,0.356625 5.74781,-1.849016 L -8.642489,70.776831 a 2.5895013,2.5416066 1.0699172 0 1 -1.2598482,-1.544867 z"
       id="path5" />
    <path
       style="opacity:0.1;fill:#ffffff"
       d="m -7.53125,66.002568 a 2.5895013,2.5416066 1.0699172 0 0 -2.4160156,3.039063 2.5895013,2.5416066 1.0699172 0 1 3.8300781,-1.701172 L 40.863281,93.117803 c 1.523868,-1.292379 2.988353,-2.660825 4.607422,-3.837891 0.595158,0.135788 0.877678,0.459787 0.982422,0.882812 0.135244,-0.879882 0.0279,-1.652303 -0.982422,-1.882812 -1.619069,1.177066 -3.083554,2.545512 -4.607422,3.837891 L -6.1171875,66.340459 A 2.5895013,2.5416066 1.0699172 0 0 -7.53125,66.002568 Z m 53.240234,28.773438 c -0.06231,0.2987 -0.125122,0.597745 -0.1875,0.896484 l 5.117188,2.806641 a 2.5895013,2.5416066 1.0699172 0 1 1.308594,1.740239 2.5895013,2.5416066 1.0699172 0 0 -1.308594,-2.740239 z m -15.638672,0.851562 c -0.233058,-0.03381 -0.506016,0.04479 -0.835937,0.287109 -0.944017,1.400054 -1.305372,3.041597 -1.21875,4.681643 0.08249,-1.298225 0.467141,-2.566946 1.21875,-3.681643 1.759579,-1.292385 1.85542,2.050638 3.345703,2.480469 1.974171,1.408894 4.94228,0.356032 5.748047,-1.849609 l -0.402344,-0.220703 c -1.137397,1.653798 -3.621104,2.301098 -5.345703,1.070312 -1.210855,-0.349237 -1.499843,-2.621079 -2.509766,-2.767578 z m 12.03711,6.554692 c -0.11361,0.80263 0.01297,1.62376 0.490234,2.35937 0.943054,1.79967 3.130627,1.97726 4.929688,1.90625 0.171522,0.13845 0.284664,0.2847 0.363281,0.43555 0.21314,-0.50559 0.1688,-1.00605 -0.363281,-1.43555 -1.799061,0.071 -3.986634,-0.10658 -4.929688,-1.90625 -0.279116,-0.4302 -0.427268,-0.89116 -0.490234,-1.35937 z"
       id="path6" />
    <path
       style="opacity:0.2"
       d="m 0.557593,56.002283 a 1.6207544,1.5760748 0 0 0 -1.557592,1.576582 v 32.060606 c 0,1.075986 0.437444,1.808968 0.984441,2.722249 0.546997,0.91328 1.282385,1.924617 2.159932,3.018985 1.755094,2.188741 4.078853,4.702535 6.487757,7.106235 2.408906,2.40369 4.896592,4.68879 6.994572,6.40438 1.048992,0.85779 1.996571,1.57089 2.825955,2.10297 0.829386,0.53207 1.329937,1.00633 2.547342,1.00633 1.217404,0 1.717954,-0.47426 2.54734,-1.00633 0.829385,-0.53208 1.776965,-1.24518 2.825955,-2.10297 2.097982,-1.71559 4.585668,-4.00069 6.994572,-6.40438 2.408906,-2.4037 4.732666,-4.917494 6.487757,-7.106235 0.877548,-1.094368 1.612938,-2.105705 2.159933,-3.018985 0.546996,-0.913281 0.984442,-1.646263 0.984442,-2.722249 V 57.578865 A 1.6207544,1.5760748 0 0 0 40.150161,56.549313 L 36.57327,60.58753 32.011941,56.428037 A 1.6207544,1.5760748 0 0 0 30.902784,56.002283 H 21 11.097214 A 1.6207544,1.5760748 0 0 0 9.98806,56.428037 L 5.426728,60.58753 1.849838,56.549313 a 1.6207544,1.5760748 0 0 0 -1.292245,-0.54703 z"
       id="path7" />
    <path
       style="fill:#f2f2f2;fill-opacity:1"
       d="m 0.557593,55.002283 a 1.6207544,1.5760748 0 0 0 -1.557592,1.576582 v 32.060606 c 0,1.075986 0.437444,1.808968 0.984441,2.722249 0.546997,0.91328 1.282385,1.924617 2.159932,3.018985 1.755094,2.188741 4.078853,4.702535 6.487757,7.106235 2.408906,2.40369 4.896592,4.68879 6.994572,6.40438 1.048992,0.85779 1.996571,1.57089 2.825955,2.10297 0.829386,0.53207 1.329937,1.00633 2.547342,1.00633 1.217404,0 1.717954,-0.47426 2.54734,-1.00633 0.829385,-0.53208 1.776965,-1.24518 2.825955,-2.10297 2.097982,-1.71559 4.585668,-4.00069 6.994572,-6.40438 2.408906,-2.4037 4.732666,-4.917494 6.487757,-7.106235 0.877548,-1.094368 1.612938,-2.105705 2.159933,-3.018985 0.546996,-0.913281 0.984442,-1.646263 0.984442,-2.722249 V 56.578865 A 1.6207544,1.5760748 0 0 0 40.150161,55.549313 L 36.57327,59.58753 32.011941,55.428037 A 1.6207544,1.5760748 0 0 0 30.902784,55.002283 H 21 11.097214 A 1.6207544,1.5760748 0 0 0 9.98806,55.428037 L 5.426728,59.58753 1.849838,55.549313 a 1.6207544,1.5760748 0 0 0 -1.292245,-0.54703 z"
       id="path8" />
    <path
       style="fill:#007070;fill-opacity:1"
       d="m 4,68.000615 v 20.216407 c 0.0333,0.0371 0.0143,-0.01925 0.188151,0.2625 0.357297,0.579006 0.971018,1.421133 1.773602,2.392578 1.602732,1.93995 3.889039,4.349508 6.261555,6.647265 2.371767,2.297029 4.836533,4.489235 6.787271,6.037505 0.815659,0.64737 1.443769,1.08174 1.989421,1.44375 0.545654,-0.36201 1.173767,-0.79638 1.98942,-1.44375 1.950739,-1.54827 4.415508,-3.740476 6.787272,-6.037505 2.372517,-2.297757 4.658825,-4.707316 6.261556,-6.647265 0.802584,-0.971446 1.416308,-1.81358 1.773601,-2.392578 0.173856,-0.28175 0.154844,-0.225414 0.188151,-0.2625 V 68.000615 Z"
       id="path9-2" />
    <path
       style="opacity:0.504261;fill:#00d4d4;fill-opacity:1"
       d="m 21,68.000615 v 37.000005 c 0.545654,-0.36201 1.173767,-0.79638 1.98942,-1.44375 1.950739,-1.54827 4.415508,-3.740476 6.787272,-6.037505 2.372517,-2.297757 4.658825,-4.707316 6.261556,-6.647265 0.802584,-0.971446 1.416308,-1.81358 1.773601,-2.392578 0.173856,-0.28175 0.154844,-0.225414 0.188151,-0.2625 V 68.000615 Z"
       id="path10" />
    <path
       style="opacity:0.2;fill:#ffffff"
       d="m 41.333984,55.000615 a 1.6207544,1.5760748 0 0 0 -1.183593,0.548828 l -3.576172,4.039063 -4.5625,-4.160157 A 1.6207544,1.5760748 0 0 0 30.902344,55.002568 H 21 11.097656 a 1.6207544,1.5760748 0 0 0 -1.109375,0.425781 l -4.5625,4.160157 -3.576172,-4.039063 A 1.6207544,1.5760748 0 0 0 0.556641,55.002568 1.6207544,1.5760748 0 0 0 -1,56.57874 v 0.949219 a 1.6207544,1.5760748 0 0 1 1.556641,-1.525391 1.6207544,1.5760748 0 0 1 1.292968,0.546875 l 3.576172,4.039063 4.5625,-4.160157 a 1.6207544,1.5760748 0 0 1 1.109375,-0.425781 H 21 30.902344 a 1.6207544,1.5760748 0 0 1 1.109375,0.425781 l 4.5625,4.160157 3.576172,-4.039063 A 1.6207544,1.5760748 0 0 1 43,57.57874 v -1 a 1.6207544,1.5760748 0 0 0 -1.666016,-1.578125 z"
       id="path11" />
  </g>
</svg>
