<?xml version="1.0" encoding="UTF-8" standalone="no"?>
<svg
   width="62"
   height="62"
   version="1.1"
   id="svg9"
   sodipodi:docname="network_local.svg"
   inkscape:version="1.4 (unknown)"
   xmlns:inkscape="http://www.inkscape.org/namespaces/inkscape"
   xmlns:sodipodi="http://sodipodi.sourceforge.net/DTD/sodipodi-0.dtd"
   xmlns:xlink="http://www.w3.org/1999/xlink"
   xmlns="http://www.w3.org/2000/svg"
   xmlns:svg="http://www.w3.org/2000/svg">
  <defs
     id="defs9">
    <linearGradient
       id="linearGradient1"
       inkscape:collect="always">
      <stop
         style="stop-color:#2d3d53;stop-opacity:1;"
         offset="0"
         id="stop1" />
      <stop
         style="stop-color:#415272;stop-opacity:1;"
         offset="1"
         id="stop2" />
    </linearGradient>
    <linearGradient
       inkscape:collect="always"
       xlink:href="#linearGradient1"
       id="linearGradient2"
       x1="31"
       y1="58.017544"
       x2="29.9"
       y2="0"
       gradientUnits="userSpaceOnUse" />
  </defs>
  <sodipodi:namedview
     id="namedview9"
     pagecolor="#ffffff"
     bordercolor="#000000"
     borderopacity="0.25"
     inkscape:showpageshadow="2"
     inkscape:pageopacity="0.0"
     inkscape:pagecheckerboard="0"
     inkscape:deskcolor="#d1d1d1"
     inkscape:zoom="5"
     inkscape:cx="58.9"
     inkscape:cy="29.1"
     inkscape:window-width="1920"
     inkscape:window-height="996"
     inkscape:window-x="0"
     inkscape:window-y="0"
     inkscape:window-maximized="1"
     inkscape:current-layer="svg9" />
  <rect
     style="opacity:0.2;stroke-width:0.9823"
     width="55"
     height="55.017544"
     x="3.5"
     y="3.9824562"
     ry="8.2526312"
     id="rect1" />
  <rect
     style="fill:url(#linearGradient2);fill-opacity:1;stroke-width:0.9823"
     width="55"
     height="55.017544"
     x="3.5"
     y="3"
     ry="8.2526312"
     id="rect2" />
  <path
     style="opacity:0.1;fill:#ffffff;stroke-width:0.9823"
     d="M 11.748466,3 C 7.1779651,3 3.4999999,6.6791384 3.4999999,11.251097 v 0.982456 c 0,-4.5719585 3.6779652,-8.2510968 8.2484661,-8.2510968 h 38.503068 c 4.5705,0 8.248466,3.6791383 8.248466,8.2510968 V 11.251097 C 58.5,6.6791384 54.822034,3 50.251534,3 Z"
     id="path9" />
  <g
     id="g1"
     transform="matrix(0.99764294,0,0,1,-60.734456,-29.8)">
    <rect
       style="opacity:0.2;stroke-width:0.897968"
       width="35.918758"
       height="5.3878136"
       x="73.991875"
       y="74.718239"
       id="rect2-2" />
    <path
       style="fill:#f2f2f2;stroke-width:0.897968;fill-opacity:1"
       d="m 89.25735,67.534499 v 6.285784 H 73.991877 v 5.387813 H 109.91061 V 73.820283 H 94.645165 v -6.285784 z"
       id="path2-7" />
    <path
       style="opacity:0.2;stroke-width:0.897968"
       d="m 80.582657,39.698126 c -1.661076,0 -2.999057,1.337952 -2.999057,2.998994 v 22.736252 c 0,1.661225 1.337981,2.999168 2.999057,2.999168 h 22.736703 c 1.66128,0 2.99926,-1.337943 2.99926,-2.999168 V 42.69712 c 0,-1.661225 -1.33798,-2.99918 -2.99926,-2.99918 H 80.582657 Z m 4.184742,7.183647 h 14.367583 v 14.3673 H 84.767399 Z"
       id="path3-0" />
    <path
       style="fill:#3ec167;stroke-width:0.897968;fill-opacity:1"
       d="m 80.582657,38.800185 c -1.661076,0 -2.999057,1.337954 -2.999057,2.998993 v 22.736246 c 0,1.661219 1.337981,2.999178 2.999057,2.999178 h 22.736703 c 1.66128,0 2.99926,-1.337959 2.99926,-2.999178 V 41.799178 C 106.31862,40.137953 104.98064,38.8 103.31936,38.8 H 80.582657 Z m 4.184742,7.183644 H 99.134982 V 60.351131 H 84.767399 Z"
       id="path6-9" />
    <circle
       style="opacity:0.2;stroke-width:0.897968"
       cx="75.787811"
       cy="77.412186"
       r="5.3878136"
       id="circle6" />
    <circle
       style="fill:#3ec167;stroke-width:0.897968;fill-opacity:1"
       cx="75.787811"
       cy="76.514175"
       r="5.3878136"
       id="circle7" />
    <circle
       style="opacity:0.2;stroke-width:0.897968"
       cx="91.951256"
       cy="77.412186"
       r="5.3878136"
       id="circle8" />
    <circle
       style="fill:#3ec167;stroke-width:0.897968;fill-opacity:1"
       cx="91.951256"
       cy="76.514175"
       r="5.3878136"
       id="circle9" />
    <circle
       style="opacity:0.2;stroke-width:0.897968"
       cx="108.11378"
       cy="77.412186"
       r="5.3878136"
       id="circle10" />
    <circle
       style="fill:#3ec167;stroke-width:0.897968;fill-opacity:1"
       cx="108.11378"
       cy="76.514175"
       r="5.3878136"
       id="circle11" />
  </g>
</svg>
