<?xml version="1.0" encoding="UTF-8" standalone="no"?>
<!-- Created with Inkscape (http://www.inkscape.org/) -->

<svg
   width="62"
   height="62"
   viewBox="0 0 62 62"
   version="1.1"
   id="svg1"
   inkscape:version="1.4 (unknown)"
   sodipodi:docname="network-wireless.svg"
   xmlns:inkscape="http://www.inkscape.org/namespaces/inkscape"
   xmlns:sodipodi="http://sodipodi.sourceforge.net/DTD/sodipodi-0.dtd"
   xmlns:xlink="http://www.w3.org/1999/xlink"
   xmlns="http://www.w3.org/2000/svg"
   xmlns:svg="http://www.w3.org/2000/svg">
  <sodipodi:namedview
     id="namedview1"
     pagecolor="#ffffff"
     bordercolor="#000000"
     borderopacity="0.25"
     inkscape:showpageshadow="2"
     inkscape:pageopacity="0.0"
     inkscape:pagecheckerboard="0"
     inkscape:deskcolor="#d1d1d1"
     inkscape:document-units="px"
     inkscape:zoom="10.74725"
     inkscape:cx="21.819535"
     inkscape:cy="31.77557"
     inkscape:window-width="1920"
     inkscape:window-height="996"
     inkscape:window-x="0"
     inkscape:window-y="0"
     inkscape:window-maximized="1"
     inkscape:current-layer="layer1"
     showgrid="false">
    <inkscape:grid
       id="grid7"
       units="px"
       originx="0"
       originy="0"
       spacingx="1"
       spacingy="1"
       empcolor="#0099e5"
       empopacity="0.30196078"
       color="#0099e5"
       opacity="0.14901961"
       empspacing="5"
       enabled="true"
       visible="false" />
  </sodipodi:namedview>
  <defs
     id="defs1">
    <linearGradient
       id="linearGradient1"
       inkscape:collect="always">
      <stop
         style="stop-color:#bfbfbf;stop-opacity:1;"
         offset="0"
         id="stop3" />
      <stop
         style="stop-color:#f2f2f2;stop-opacity:1;"
         offset="1"
         id="stop4" />
    </linearGradient>
    <linearGradient
       id="linearGradient3"
       inkscape:collect="always">
      <stop
         style="stop-color:#263237;stop-opacity:1;"
         offset="0"
         id="stop1" />
      <stop
         style="stop-color:#f0f2f5;stop-opacity:1;"
         offset="1"
         id="stop2" />
    </linearGradient>
    <linearGradient
       id="linearGradient11"
       inkscape:collect="always">
      <stop
         style="stop-color:#b7c6cd;stop-opacity:1;"
         offset="0"
         id="stop11" />
      <stop
         style="stop-color:#e2e7e9;stop-opacity:1;"
         offset="1"
         id="stop12" />
    </linearGradient>
    <linearGradient
       id="linearGradient8"
       inkscape:collect="always">
      <stop
         style="stop-color:#ffcc00;stop-opacity:1"
         offset="0"
         id="stop8" />
      <stop
         style="stop-color:#ffe680;stop-opacity:1"
         offset="1"
         id="stop9" />
    </linearGradient>
    <radialGradient
       id="paint664_radial_890_11"
       cx="0"
       cy="0"
       r="1"
       gradientUnits="userSpaceOnUse"
       gradientTransform="matrix(-16.000099,-9.999913,9.999913,-16.000099,583,171)">
      <stop
         offset="0.42141"
         stop-color="#B7C6CD"
         id="stop2071" />
      <stop
         offset="1"
         stop-color="#EFF2F6"
         id="stop2072" />
    </radialGradient>
    <linearGradient
       id="paint665_linear_890_11"
       x1="605"
       y1="180"
       x2="601.466"
       y2="162.72301"
       gradientUnits="userSpaceOnUse">
      <stop
         stop-color="#5200FF"
         id="stop2073" />
      <stop
         offset="1"
         stop-color="#0085FF"
         id="stop2074" />
    </linearGradient>
    <linearGradient
       id="paint666_linear_890_11"
       x1="567"
       y1="181"
       x2="562.11798"
       y2="174.183"
       gradientUnits="userSpaceOnUse">
      <stop
         stop-color="#5200FF"
         id="stop2075" />
      <stop
         offset="0.670391"
         stop-color="#0085FF"
         id="stop2076" />
    </linearGradient>
    <linearGradient
       id="paint667_linear_890_11"
       x1="605"
       y1="180"
       x2="597.32001"
       y2="174.24001"
       gradientUnits="userSpaceOnUse">
      <stop
         stop-color="#5200FF"
         id="stop2077" />
      <stop
         offset="1"
         stop-color="#0085FF"
         id="stop2078" />
    </linearGradient>
    <linearGradient
       id="paint668_linear_890_11"
       x1="567"
       y1="180"
       x2="561.23999"
       y2="172.32001"
       gradientUnits="userSpaceOnUse">
      <stop
         stop-color="#5200FF"
         id="stop2079" />
      <stop
         offset="1"
         stop-color="#0085FF"
         id="stop2080" />
    </linearGradient>
    <linearGradient
       id="paint669_linear_890_11"
       x1="607"
       y1="179"
       x2="602.50598"
       y2="171.80901"
       gradientUnits="userSpaceOnUse">
      <stop
         stop-color="#5200FF"
         id="stop2081" />
      <stop
         offset="1"
         stop-color="#0085FF"
         id="stop2082" />
    </linearGradient>
    <linearGradient
       id="paint670_linear_890_11"
       x1="607"
       y1="217"
       x2="568.82599"
       y2="170.01601"
       gradientUnits="userSpaceOnUse">
      <stop
         stop-color="#5200FF"
         id="stop2083" />
      <stop
         offset="1"
         stop-color="#0085FF"
         id="stop2084" />
    </linearGradient>
    <radialGradient
       id="paint671_radial_890_11"
       cx="0"
       cy="0"
       r="1"
       gradientUnits="userSpaceOnUse"
       gradientTransform="matrix(0,20,-16,0,583,187)">
      <stop
         offset="0.869716"
         stop-color="#EFF2F6"
         id="stop2085" />
      <stop
         offset="1"
         stop-color="#B7C6CD"
         id="stop2086" />
    </radialGradient>
    <linearGradient
       id="paint65_linear_890_11"
       x1="83"
       y1="975"
       x2="83"
       y2="1017"
       gradientUnits="userSpaceOnUse"
       gradientTransform="matrix(1.3181819,0,0,1.3333333,-78.409088,-1297)">
      <stop
         stop-color="#EFF2F6"
         id="stop872"
         offset="0"
         style="stop-color:#dae2ec;stop-opacity:1;" />
      <stop
         offset="1"
         stop-color="#B7C6CD"
         id="stop873"
         style="stop-color:#92a8b3;stop-opacity:1;" />
    </linearGradient>
    <linearGradient
       id="paint553_linear_890_11"
       x1="759"
       y1="261"
       x2="795.98602"
       y2="307.71899"
       gradientUnits="userSpaceOnUse"
       gradientTransform="translate(-752,-258)">
      <stop
         stop-color="#EFF2F6"
         id="stop1849" />
      <stop
         offset="1"
         stop-color="#B7C6CD"
         id="stop1850" />
    </linearGradient>
    <linearGradient
       id="paint554_linear_890_11"
       x1="807"
       y1="317"
       x2="795.164"
       y2="285.43799"
       gradientUnits="userSpaceOnUse"
       gradientTransform="translate(-752,-258)">
      <stop
         stop-color="#FF7E07"
         id="stop1851" />
      <stop
         offset="1"
         stop-color="#FFE607"
         id="stop1852" />
    </linearGradient>
    <linearGradient
       id="paint555_linear_890_11"
       x1="792"
       y1="281"
       x2="792"
       y2="275"
       gradientUnits="userSpaceOnUse"
       gradientTransform="translate(-752,-258)">
      <stop
         offset="0.155999"
         stop-color="#71706E"
         id="stop1853" />
      <stop
         offset="0.796276"
         stop-color="#B9AA99"
         id="stop1854" />
    </linearGradient>
    <linearGradient
       id="paint556_linear_890_11"
       x1="791.5"
       y1="287"
       x2="791.5"
       y2="281"
       gradientUnits="userSpaceOnUse"
       gradientTransform="translate(-752,-258)">
      <stop
         offset="0.155999"
         stop-color="#71706E"
         id="stop1855" />
      <stop
         offset="0.796276"
         stop-color="#B9AA99"
         id="stop1856" />
    </linearGradient>
    <linearGradient
       id="paint557_linear_890_11"
       x1="765"
       y1="271"
       x2="786.90002"
       y2="290.91"
       gradientUnits="userSpaceOnUse"
       gradientTransform="translate(-752,-258)">
      <stop
         stop-color="white"
         id="stop1857" />
      <stop
         offset="0.705"
         stop-color="#EAEFEF"
         id="stop1858" />
    </linearGradient>
    <linearGradient
       id="paint558_linear_890_11"
       x1="781"
       y1="289"
       x2="778.59998"
       y2="281.79999"
       gradientUnits="userSpaceOnUse"
       gradientTransform="translate(-752,-258)">
      <stop
         stop-color="#2E2E41"
         id="stop1859" />
      <stop
         offset="1"
         stop-color="#566C80"
         id="stop1860" />
    </linearGradient>
    <linearGradient
       id="paint559_linear_890_11"
       x1="779"
       y1="283"
       x2="771"
       y2="275"
       gradientUnits="userSpaceOnUse"
       gradientTransform="translate(-752,-258)">
      <stop
         stop-color="#2E2E41"
         id="stop1861" />
      <stop
         offset="1"
         stop-color="#566C80"
         id="stop1862" />
    </linearGradient>
    <linearGradient
       id="paint560_linear_890_11"
       x1="801"
       y1="311"
       x2="797.612"
       y2="295.75299"
       gradientUnits="userSpaceOnUse">
      <stop
         stop-color="#2E2E41"
         id="stop1863" />
      <stop
         offset="1"
         stop-color="#566C80"
         id="stop1864" />
    </linearGradient>
    <linearGradient
       inkscape:collect="always"
       xlink:href="#linearGradient8"
       id="linearGradient10"
       x1="46.16053"
       y1="59"
       x2="45.788342"
       y2="41"
       gradientUnits="userSpaceOnUse" />
    <linearGradient
       inkscape:collect="always"
       xlink:href="#linearGradient11"
       id="linearGradient12"
       x1="42.264835"
       y1="49.728024"
       x2="9.624588"
       y2="4.0386257"
       gradientUnits="userSpaceOnUse" />
    <clipPath
       id="a">
      <path
         d="m 46,25.597 -15.998,5.6 C 30.002,52.75 29.381,54.404 46,64 62.482,54.473 61.998,52.757 61.998,31.197 Z"
         color="#000000"
         fill="#f9f9f9"
         overflow="visible"
         stroke-width="1.175"
         style="isolation:auto;mix-blend-mode:normal"
         id="path1" />
    </clipPath>
    <filter
       id="b"
       x="-0.12342858"
       y="-0.096000004"
       width="1.2468572"
       height="1.192"
       color-interpolation-filters="sRGB">
      <feGaussianBlur
         stdDeviation="2.16"
         id="feGaussianBlur1" />
    </filter>
    <linearGradient
       inkscape:collect="always"
       xlink:href="#linearGradient3"
       id="linearGradient17"
       x1="27"
       y1="38.479176"
       x2="27"
       y2="34.479176"
       gradientUnits="userSpaceOnUse"
       gradientTransform="translate(4.7500028,-27.366703)" />
    <linearGradient
       inkscape:collect="always"
       xlink:href="#linearGradient3"
       id="linearGradient12-7"
       x1="22.5"
       y1="54.479176"
       x2="22.5"
       y2="50.479176"
       gradientUnits="userSpaceOnUse"
       gradientTransform="translate(9.250003,-36.130503)" />
    <linearGradient
       inkscape:collect="always"
       xlink:href="#linearGradient3"
       id="linearGradient19"
       x1="18.5"
       y1="30.479174"
       x2="18.5"
       y2="26.479174"
       gradientUnits="userSpaceOnUse"
       gradientTransform="translate(13.250003,-4.894303)" />
    <linearGradient
       inkscape:collect="always"
       xlink:href="#linearGradient1"
       id="linearGradient4"
       x1="46.9786"
       y1="53.017281"
       x2="46.936638"
       y2="45.081406"
       gradientUnits="userSpaceOnUse" />
  </defs>
  <g
     inkscape:label="Layer 1"
     inkscape:groupmode="layer"
     id="layer1">
    <path
       fill-rule="evenodd"
       clip-rule="evenodd"
       d="M 13,3 C 9.686,3 7,5.686 7,9 V 41 H 55 V 9 C 55,5.686 52.314,3 49,3 Z m 18,0.1390588 v 0 0 z"
       id="path540"
       sodipodi:nodetypes="ssccssscscsc"
       style="fill:url(#linearGradient12)" />
    <path
       d="m 7,41 h 48 v 12 c 0,3.314 -2.686,6 -6,6 H 13 C 9.686,59 7,56.314 7,53 Z"
       id="path541"
       style="fill:url(#linearGradient10)" />
    <path
       d="m 15.750003,9.1124706 c 0,-1.105 0.895,-2 2,-2 h 28 c 1.105,0 2,0.895 2,2 0,1.1050004 -0.895,2.0000004 -2,2.0000004 h -28 c -1.105,0 -2,-0.895 -2,-2.0000004 z"
       id="path528"
       style="fill:url(#linearGradient17)" />
    <path
       d="m 46.001,30.018377 c -8.8649,0 -16.001,7.1355 -16.001,15.999 0,8.8635 7.1363,15.999997 16.001,15.999997 8.8632,0 15.999,-7.136597 15.999,-15.999997 0,-8.8635 -7.1357,-16 -15.999,-16 z"
       fill="#f9f9f9"
       stroke-width="0.57144"
       id="path4" />
    <path
       d="m 20.250003,16.348671 c 0,-1.105 0.895,-2 2,-2 h 19 c 1.105,0 2,0.895 2,2 0,1.105 -0.895,2 -2,2 h -19 c -1.105,0 -2,-0.895 -2,-2 z"
       id="path530"
       style="fill:url(#linearGradient12-7)" />
    <path
       d="m 24.250003,23.584871 c 0,-1.105 0.895,-2 2,-2 h 11 c 1.105,0 2,0.895 2,2 0,1.105 -0.895,2 -2,2 h -11 c -1.105,0 -2,-0.895 -2,-2 z"
       id="path527"
       style="fill:url(#linearGradient19)" />
    <g
       id="g1"
       transform="translate(-0.93654,-0.2500465)">
      <path
         style="opacity:0.2"
         d="m 46.975723,39.517516 c -3.792957,0 -7.207358,1.312477 -10.039111,3.347734 l 10.039111,10.652172 9.960505,-10.689983 c -2.820729,-2.012804 -6.196976,-3.30983 -9.960505,-3.30983 z"
         id="path1-3" />
      <path
         style="fill:#263237;fill-opacity:1"
         d="m 46.975723,39.017422 c -3.792957,0 -7.207358,1.312477 -10.039111,3.347733 l 10.039111,10.652174 9.960505,-10.689983 c -2.820729,-2.012804 -6.196976,-3.30983 -9.960505,-3.30983 z"
         id="path2" />
      <path
         style="fill:#87a3ab;fill-opacity:1"
         d="m 46.93642,41.814341 c -3.021415,0 -5.825512,0.965044 -8.077782,2.594845 l 8.119961,8.608096 8.035603,-8.608562 C 52.761933,42.779152 49.957979,41.814295 46.93642,41.814295 Z"
         id="path3" />
      <path
         style="fill:url(#linearGradient4)"
         d="m 46.93642,44.615088 c -2.266073,0 -4.369182,0.72376 -6.058456,1.946145 l 6.09009,6.456189 6.026822,-6.456189 C 51.305794,45.338708 49.20259,44.615181 46.93642,44.615181 Z"
         id="path4-6" />
      <path
         style="opacity:0.1;fill:#ffffff"
         d="m 46.975723,39.017422 c -3.792957,0 -7.207358,1.312523 -10.039111,3.347779 l 0.269611,0.286274 c 2.778837,-1.928314 6.093925,-3.167271 9.76974,-3.167271 3.647104,0 6.925525,1.224113 9.692092,3.130768 l 0.268413,-0.28801 C 54.11478,40.314625 50.739012,39.0176 46.975004,39.0176 Z"
         id="path5" />
      <path
         style="opacity:0.1;fill:#ffffff"
         d="m 46.936899,41.813874 c -3.021415,0 -5.825991,0.965791 -8.078261,2.595639 l 0.270546,0.286274 c 2.205345,-1.516278 4.903802,-2.415084 7.807452,-2.415084 2.904847,0 5.602634,0.89974 7.808411,2.416904 l 0.268892,-0.288477 c -2.251791,-1.630034 -5.055265,-2.595825 -8.076824,-2.595825 z"
         id="path6" />
      <path
         style="opacity:0.1;fill:#ffffff"
         d="m 46.936899,44.614621 c -2.266073,0 -4.369661,0.724133 -6.058935,1.946472 l 0.270545,0.286276 c 1.641583,-1.109376 3.639628,-1.765965 5.788127,-1.765965 2.149506,0 4.147167,0.657522 5.789085,1.767784 l 0.268892,-0.28801 C 51.30601,45.338651 49.203285,44.614659 46.937115,44.614659 Z"
         id="path7" />
    </g>
  </g>
</svg>
