<?xml version="1.0" encoding="UTF-8" standalone="no"?>
<svg
   width="62"
   height="62"
   version="1"
   id="svg7"
   sodipodi:docname="Nim.svg"
   inkscape:version="1.4 (unknown)"
   xmlns:inkscape="http://www.inkscape.org/namespaces/inkscape"
   xmlns:sodipodi="http://sodipodi.sourceforge.net/DTD/sodipodi-0.dtd"
   xmlns:xlink="http://www.w3.org/1999/xlink"
   xmlns="http://www.w3.org/2000/svg"
   xmlns:svg="http://www.w3.org/2000/svg">
  <defs
     id="defs7">
    <linearGradient
       id="linearGradient7"
       inkscape:collect="always">
      <stop
         style="stop-color:#384850;stop-opacity:1;"
         offset="0"
         id="stop8" />
      <stop
         style="stop-color:#384850;stop-opacity:1;"
         offset="0.58519185"
         id="stop10" />
      <stop
         style="stop-color:#eff2f6;stop-opacity:1;"
         offset="0.86599815"
         id="stop11" />
      <stop
         style="stop-color:#eff2f6;stop-opacity:1;"
         offset="1"
         id="stop9" />
    </linearGradient>
    <linearGradient
       id="linearGradient1"
       inkscape:collect="always">
      <stop
         style="stop-color:#303c47;stop-opacity:1;"
         offset="0"
         id="stop5" />
      <stop
         style="stop-color:#363e48;stop-opacity:1;"
         offset="0.25046653"
         id="stop7" />
      <stop
         style="stop-color:#303c47;stop-opacity:1;"
         offset="0.91934216"
         id="stop12" />
      <stop
         style="stop-color:#303c47;stop-opacity:1;"
         offset="1"
         id="stop6" />
    </linearGradient>
    <linearGradient
       id="c-3"
       gradientUnits="userSpaceOnUse"
       x1="24.072048"
       x2="23.959682"
       y1="0.75082099"
       y2="46.056854">
      <stop
         offset="0"
         stop-color="#fff"
         id="stop3" />
      <stop
         offset="1"
         stop-color="#d9d9d9"
         id="stop4" />
    </linearGradient>
    <linearGradient
       id="b-6"
       gradientUnits="userSpaceOnUse"
       x1="29.203026"
       x2="34.121048"
       xlink:href="#a-7"
       y1="24.827356"
       y2="29.224836" />
    <linearGradient
       id="a-7">
      <stop
         offset="0"
         id="stop1" />
      <stop
         offset="1"
         stop-opacity="0"
         id="stop2" />
    </linearGradient>
    <linearGradient
       id="d"
       gradientUnits="userSpaceOnUse"
       x1="15.948756"
       x2="25.031786"
       xlink:href="#a-7"
       y1="23.618279"
       y2="33.69899" />
    <linearGradient
       id="e"
       gradientUnits="userSpaceOnUse"
       x1="21.990562"
       x2="29.320522"
       xlink:href="#a-7"
       y1="33.780373"
       y2="41.931858" />
    <linearGradient
       id="paint154_linear_890_11"
       x1="778"
       y1="812.29199"
       x2="788"
       y2="812.29199"
       gradientUnits="userSpaceOnUse"
       gradientTransform="translate(-751,-696)">
      <stop
         stop-color="#EFF2F6"
         id="stop1050" />
      <stop
         offset="0.600785"
         stop-color="#B7C6CD"
         id="stop1051" />
    </linearGradient>
    <linearGradient
       id="paint155_linear_890_11"
       x1="783"
       y1="813"
       x2="783"
       y2="817"
       gradientUnits="userSpaceOnUse"
       gradientTransform="translate(-751,-696)">
      <stop
         stop-color="#EFF2F6"
         id="stop1052" />
      <stop
         offset="0.734138"
         stop-color="#B7C6CD"
         id="stop1053" />
    </linearGradient>
    <radialGradient
       id="paint156_radial_890_11"
       cx="0"
       cy="0"
       r="1"
       gradientUnits="userSpaceOnUse"
       gradientTransform="matrix(27.999986,27.999976,-27.999986,27.999976,32.302392,33.999998)">
      <stop
         offset="0.60067803"
         stop-color="#B7C6CD"
         id="stop1054"
         style="stop-color:#424b58;stop-opacity:1;" />
      <stop
         offset="0.876735"
         stop-color="#EFF2F6"
         id="stop1055" />
    </radialGradient>
    <linearGradient
       id="paint157_linear_890_11"
       x1="796.84485"
       y1="799.43359"
       x2="768.90088"
       y2="770.81476"
       gradientUnits="userSpaceOnUse"
       gradientTransform="matrix(1.1666666,0,0,1.1666668,-881.19764,-881.8333)">
      <stop
         offset="0.00000057"
         stop-color="#2E2E41"
         id="stop1056"
         style="stop-color:#424b58;stop-opacity:1;" />
      <stop
         offset="0.71113902"
         stop-color="#566C80"
         id="stop1057"
         style="stop-color:#303c47;stop-opacity:1;" />
    </linearGradient>
    <linearGradient
       id="paint158_linear_890_11"
       x1="792"
       y1="794"
       x2="774"
       y2="776"
       gradientUnits="userSpaceOnUse"
       gradientTransform="translate(-751,-696)">
      <stop
         offset="0.304478"
         stop-color="#2E2E41"
         id="stop1058" />
      <stop
         offset="1"
         stop-color="#566C80"
         id="stop1059" />
    </linearGradient>
    <linearGradient
       id="paint159_linear_890_11"
       x1="788"
       y1="790"
       x2="778"
       y2="780"
       gradientUnits="userSpaceOnUse"
       gradientTransform="translate(-751,-696)">
      <stop
         offset="0.391394"
         stop-color="#5200FF"
         id="stop1060" />
      <stop
         offset="1"
         stop-color="#0085FF"
         id="stop1061" />
    </linearGradient>
    <linearGradient
       id="paint160_linear_890_11"
       x1="784"
       y1="798"
       x2="782"
       y2="796"
       gradientUnits="userSpaceOnUse"
       gradientTransform="translate(-751,-696)">
      <stop
         stop-color="#FF7E07"
         id="stop1062" />
      <stop
         offset="1"
         stop-color="#FFE607"
         id="stop1063" />
    </linearGradient>
    <linearGradient
       id="c-3-6"
       gradientUnits="userSpaceOnUse"
       x1="24.072048"
       x2="23.959682"
       y1="0.75082099"
       y2="46.056854"
       gradientTransform="matrix(0.91471346,0,0,0.90068147,9.0468769,9.3836444)">
      <stop
         offset="0"
         stop-color="#fff"
         id="stop3-2" />
      <stop
         offset="1"
         stop-color="#d9d9d9"
         id="stop4-9" />
    </linearGradient>
    <linearGradient
       id="b-6-1"
       gradientUnits="userSpaceOnUse"
       x1="29.203026"
       x2="34.121048"
       xlink:href="#a-7"
       y1="24.827356"
       y2="29.224836"
       gradientTransform="matrix(1.1104534,0,0,1.0934187,4.3491158,4.7861435)" />
    <linearGradient
       id="d-0"
       gradientUnits="userSpaceOnUse"
       x1="15.948756"
       x2="25.031786"
       xlink:href="#a-7"
       y1="23.618279"
       y2="33.69899"
       gradientTransform="matrix(1.1104534,0,0,1.0934187,4.3491158,4.7861435)" />
    <linearGradient
       id="e-9"
       gradientUnits="userSpaceOnUse"
       x1="21.990562"
       x2="29.320522"
       xlink:href="#a-7"
       y1="33.780373"
       y2="41.931858"
       gradientTransform="matrix(1.1104534,0,0,1.0934187,4.3491158,4.7861435)" />
    <linearGradient
       inkscape:collect="always"
       xlink:href="#linearGradient1"
       id="linearGradient6"
       x1="15.60323"
       y1="17.703012"
       x2="48.302387"
       y2="50"
       gradientUnits="userSpaceOnUse"
       gradientTransform="translate(-1.3023872,-3)" />
    <radialGradient
       inkscape:collect="always"
       xlink:href="#linearGradient7"
       id="radialGradient9"
       cx="32.302387"
       cy="34"
       fx="32.302387"
       fy="34"
       r="28"
       gradientUnits="userSpaceOnUse"
       gradientTransform="matrix(0.99999999,1,-1,0.99999999,32.697613,-35.302387)" />
    <radialGradient
       id="radialGradient867"
       cx="6.6805"
       cy="8.2870998"
       r="3.7376001"
       gradientTransform="matrix(4.8485492,0,0,4.8159411,-9.9298686,-9.7737847)"
       gradientUnits="userSpaceOnUse">
      <stop
         stop-color="#c8d7ea"
         stop-opacity=".99608"
         offset="0"
         id="stop1-5" />
      <stop
         stop-color="#91acd0"
         stop-opacity=".99608"
         offset="1"
         id="stop2-4" />
    </radialGradient>
    <linearGradient
       id="linearGradient8945"
       x1="3.8726001"
       x2="4.7592001"
       y1="-3.2832"
       y2="-2.3964"
       gradientTransform="matrix(1.3622,-0.36501,0.36501,1.3622,2.977,21.076)"
       gradientUnits="userSpaceOnUse">
      <stop
         stop-color="#bdc2cf"
         offset="0"
         id="stop3-7" />
      <stop
         stop-color="#eaf0f5"
         offset="1"
         id="stop4-4" />
    </linearGradient>
    <linearGradient
       id="linearGradient26151"
       x1="4.9973001"
       x2="6.1075001"
       y1="-4.6547999"
       y2="-3.5313001"
       gradientTransform="matrix(1.3622,-0.36501,0.36501,1.3622,2.977,21.076)"
       gradientUnits="userSpaceOnUse">
      <stop
         stop-color="#7dbc53"
         offset="0"
         id="stop5-4" />
      <stop
         stop-color="#93d159"
         offset=".11589"
         id="stop6-3" />
      <stop
         stop-color="#699d51"
         offset="1"
         id="stop7-0" />
    </linearGradient>
    <linearGradient
       id="b"
       x1="508.60422"
       x2="508.43216"
       y1="540.62714"
       y2="514.61823"
       gradientUnits="userSpaceOnUse"
       gradientTransform="matrix(1.3495084,0,0,1.3316133,-658.27534,-670.39511)">
      <stop
         stop-color="#ff9300"
         offset="0"
         id="stop3-3"
         style="stop-color:#af83f8;stop-opacity:1" />
      <stop
         stop-color="#ffd702"
         offset="1"
         id="stop4-6"
         style="stop-color:#fea75f;stop-opacity:1" />
    </linearGradient>
  </defs>
  <sodipodi:namedview
     id="namedview7"
     pagecolor="#ffffff"
     bordercolor="#000000"
     borderopacity="0.25"
     inkscape:showpageshadow="2"
     inkscape:pageopacity="0.0"
     inkscape:pagecheckerboard="0"
     inkscape:deskcolor="#d1d1d1"
     inkscape:zoom="5.890625"
     inkscape:cx="40.912467"
     inkscape:cy="33.867374"
     inkscape:window-width="1920"
     inkscape:window-height="996"
     inkscape:window-x="0"
     inkscape:window-y="0"
     inkscape:window-maximized="1"
     inkscape:current-layer="svg7" />
  <path
     d="M 59,31 C 59,46.46415 46.464172,59 30.999998,59 15.535835,59 3.0000001,46.46415 3.0000001,31 3.0000001,15.535835 15.535835,3 30.999998,3 46.464172,3 59,15.535835 59,31 Z"
     id="path154"
     style="fill:url(#radialGradient9)" />
  <path
     d="m 54.333333,31 c 0,12.88701 -10.446332,23.33332 -23.333335,23.33332 C 18.112999,54.33332 7.6666671,43.88701 7.6666671,31 7.6666671,18.113006 18.112999,7.666668 30.999998,7.666668 43.887001,7.666668 54.333333,18.113006 54.333333,31 Z"
     id="path155"
     style="fill:url(#linearGradient6)" />
  <g
     id="g1"
     transform="translate(-22,-47.500504)">
    <path
       style="opacity:0.2"
       d="m 53.158203,65.000429 c 0,0 -1.531234,1.819072 -3.09375,2.998047 -1.607376,-0.05006 -4.760522,0.303282 -6.46875,0.912109 -1.573632,-0.977002 -2.957031,-2.05664 -2.957031,-2.05664 0,0 -1.180782,1.991114 -1.923828,3.160156 -1.101966,0.574359 -2.209235,1.221452 -3.195313,2.076172 C 34.372619,71.643953 33.043393,71.100441 33,71.08246 c 1.518853,3.0023 2.540818,6.509489 5.318359,8.316407 2.238,-3.463869 8.605409,-4.51353 14.935547,-4.398438 6.177426,0.1123 12.317713,1.309797 14.546875,4.359375 2.91687,-1.490972 4.052095,-5.200539 5.199219,-8.162109 -0.12578,0.0406 -1.687423,0.55346 -2.699219,0.93164 -0.604108,-0.644535 -2.026649,-1.636867 -2.835937,-2.115234 -0.76765,-1.377598 -1.884766,-3.238281 -1.884766,-3.238281 0,0 -1.323594,0.965214 -2.857422,2.017578 -2.072176,-0.374857 -4.579506,-0.829566 -6.6875,-0.716797 -1.434992,-1.155899 -2.876953,-3.076172 -2.876953,-3.076172 z m 18.546875,12.912109 c -1.809392,2.62688 -4.754783,4.441179 -6.568359,5.417969 C 63.848021,84.022373 60.875,84.439882 60.875,84.439882 l -7.806641,-3.964844 -7.851562,3.886719 c 0,0 -2.933478,-0.46184 -4.261719,-1.070312 -2.680772,-1.40243 -4.483899,-3.059837 -6.384766,-5.328125 0,0 2.153324,5.108629 3.648438,8.658203 6.335393,8.191156 22.513616,8.760203 29.566406,0.158203 1.668964,-3.686018 3.919922,-8.867188 3.919922,-8.867188 z"
       id="path2" />
    <path
       style="fill:#b28f00;fill-opacity:1"
       d="m 53.158732,64.000017 c 0,0 -1.532724,1.818745 -3.09524,2.99772 -1.607376,-0.05006 -4.760028,0.302665 -6.468256,0.911492 -1.573632,-0.977002 -2.956345,-2.0557 -2.956345,-2.0557 0,0 -1.181556,1.992072 -1.924602,3.161114 -1.101966,0.574359 -2.208368,1.22037 -3.194446,2.07509 C 34.372931,70.643413 33.043393,70.099266 33,70.081285 c 1.518853,3.0023 2.539915,6.509422 5.317456,8.31634 2.238,-3.463868 8.606722,-4.512708 14.93686,-4.397616 6.177426,0.1123 12.31811,1.30923 14.547272,4.358808 2.91687,-1.490972 4.051288,-5.199629 5.198412,-8.161199 -0.12578,0.0406 -1.686612,0.552706 -2.698408,0.930886 -0.604108,-0.644535 -2.02802,-1.635508 -2.837308,-2.113875 -0.76765,-1.377598 -1.884924,-3.238683 -1.884924,-3.238683 0,0 -1.323312,0.964543 -2.85714,2.016907 C 60.650044,67.417996 58.143702,66.962522 56.035708,67.075291 54.600716,65.919392 53.158732,64 53.158732,64 Z"
       id="path3-6" />
    <path
       style="fill:#ffd633;fill-opacity:1"
       d="m 34.570418,76.962499 c 0,0 2.152751,5.108246 3.647865,8.65782 6.335393,8.191156 22.513413,8.7606 29.566203,0.1586 1.668964,-3.686018 3.920602,-8.86616 3.920602,-8.86616 -1.809392,2.62688 -4.754068,4.440232 -6.567644,5.417022 -1.288698,0.691866 -4.262196,1.11007 -4.262196,1.11007 l -7.806564,-3.964522 -7.85142,3.885222 c 0,0 -2.933962,-0.461952 -4.262203,-1.070424 -2.680772,-1.40243 -4.483776,-3.05933 -6.384643,-5.327618 z"
       id="path4-7" />
    <path
       style="opacity:0.2;fill:#ffffff"
       d="m 53.158203,64.000009 c 0,0 -1.531234,1.819072 -3.09375,2.998047 -1.607376,-0.05006 -4.760522,0.303282 -6.46875,0.912109 -1.573632,-0.977002 -2.957031,-2.05664 -2.957031,-2.05664 0,0 -1.180782,1.991114 -1.923828,3.160156 -1.101966,0.574359 -2.209235,1.221452 -3.195313,2.076172 C 34.372619,70.643533 33.043393,70.100021 33,70.08204 c 0.20207,0.399431 0.386387,0.818358 0.576172,1.230469 0.427857,0.174144 1.058726,0.433089 1.943359,0.777344 0.986078,-0.85472 2.093347,-1.501813 3.195313,-2.076172 0.743046,-1.169042 1.923828,-3.160156 1.923828,-3.160156 0,0 1.383399,1.079638 2.957031,2.05664 1.708228,-0.608827 4.861374,-0.962169 6.46875,-0.912109 1.562516,-1.178975 3.09375,-2.998047 3.09375,-2.998047 0,0 1.441961,1.920273 2.876953,3.076172 2.107994,-0.112769 4.615324,0.34194 6.6875,0.716797 1.533828,-1.052364 2.857422,-2.017578 2.857422,-2.017578 0,0 1.117116,1.860683 1.884766,3.238281 0.809288,0.478367 2.231829,1.470699 2.835937,2.115234 0.846337,-0.316336 1.804202,-0.629714 2.257813,-0.779297 C 72.704466,70.963537 72.857218,70.5659 73,70.197275 c -0.12578,0.0406 -1.687423,0.55346 -2.699219,0.93164 -0.604108,-0.644535 -2.026649,-1.636867 -2.835937,-2.115234 -0.76765,-1.377598 -1.884766,-3.238281 -1.884766,-3.238281 0,0 -1.323594,0.965214 -2.857422,2.017578 -2.072176,-0.374857 -4.579506,-0.829566 -6.6875,-0.716797 -1.434992,-1.155899 -2.876953,-3.076172 -2.876953,-3.076172 z m 18.546875,12.912109 c -1.809392,2.62688 -4.754783,4.441179 -6.568359,5.417969 C 63.848021,83.021953 60.875,83.439462 60.875,83.439462 l -7.806641,-3.964844 -7.851562,3.886719 c 0,0 -2.933478,-0.46184 -4.261719,-1.070312 -2.680772,-1.40243 -4.483899,-3.059837 -6.384766,-5.328125 0,0 0.620504,1.474121 0.796876,1.892578 1.627374,1.809163 3.282831,3.229669 5.58789,4.435547 1.328241,0.608472 4.261719,1.070312 4.261719,1.070312 l 7.851562,-3.886719 7.806641,3.964844 c 0,0 2.973021,-0.417509 4.261719,-1.109375 1.520718,-0.819057 3.830206,-2.234707 5.605469,-4.216797 0.452943,-1.035265 0.96289,-2.201172 0.96289,-2.201172 z"
       id="path6-5" />
  </g>
</svg>
