<?xml version="1.0" encoding="UTF-8" standalone="no"?>
<svg
   width="62"
   height="62"
   version="1"
   id="svg4"
   sodipodi:docname="nos-tv.svg"
   inkscape:version="1.4 (unknown)"
   xmlns:inkscape="http://www.inkscape.org/namespaces/inkscape"
   xmlns:sodipodi="http://sodipodi.sourceforge.net/DTD/sodipodi-0.dtd"
   xmlns="http://www.w3.org/2000/svg"
   xmlns:svg="http://www.w3.org/2000/svg">
  <defs
     id="defs4" />
  <sodipodi:namedview
     id="namedview4"
     pagecolor="#ffffff"
     bordercolor="#000000"
     borderopacity="0.25"
     inkscape:showpageshadow="2"
     inkscape:pageopacity="0.0"
     inkscape:pagecheckerboard="0"
     inkscape:deskcolor="#d1d1d1"
     inkscape:zoom="5.875"
     inkscape:cx="27.234043"
     inkscape:cy="58.468085"
     inkscape:window-width="1920"
     inkscape:window-height="996"
     inkscape:window-x="0"
     inkscape:window-y="0"
     inkscape:window-maximized="1"
     inkscape:current-layer="svg4" />
  <g
     id="g4"
     transform="matrix(0.98214286,0,0,0.98245614,-0.42857152,-0.92982455)">
    <rect
       style="opacity:0.2"
       width="56"
       height="56"
       x="4"
       y="5"
       rx="16.799999"
       ry="16.799999"
       id="rect1" />
    <rect
       style="fill:#39397a;fill-opacity:1"
       width="56"
       height="56"
       x="4"
       y="4"
       rx="16.799999"
       ry="16.799999"
       id="rect2" />
    <path
       style="opacity:0.1;fill:#ffffff"
       d="M 20.801,4 C 11.494,4 4,11.494 4,20.801 v 1 C 4,12.494 11.494,5 20.801,5 H 43.199 C 52.506,5 60,12.494 60,21.801 v -1 C 60,11.494 52.506,4 43.199,4 Z"
       id="path4" />
  </g>
  <g
     id="g1"
     transform="translate(-11,-66)">
    <path
       d="M 21.692302,79.333338 C 19,79.333338 19,82 19,82 V 95.333338 C 19,95.333338 19,98 21.692302,98 h 5.384622 c 2.692303,0 2.692303,-2.666662 2.692303,-2.666662 v -2.666676 h -2.692303 v 2.666676 H 21.692302 V 82 h 5.384622 v 2.666662 h 2.692303 V 82 c 0,0 0,-2.666662 -2.692303,-2.666662 z m 16.153849,0 L 40.538467,98 h 2.692306 L 40.538467,79.333338 Z m -4.03846,5.333324 c -0.743458,0 -1.346144,0.596957 -1.346144,1.333338 0,0.736381 0.602686,1.333338 1.346144,1.333338 0.743461,0 1.346158,-0.596957 1.346158,-1.333338 0,-0.736381 -0.602697,-1.333338 -1.346158,-1.333338 z m 0,8 c -0.743458,0 -1.346144,0.596957 -1.346144,1.333338 0,0.736381 0.602686,1.333338 1.346144,1.333338 0.743461,0 1.346158,-0.596957 1.346158,-1.333338 0,-0.736381 -0.602697,-1.333338 -1.346158,-1.333338 z m 12.115385,2.666676 V 98 H 54 v -2.666662 z"
       style="opacity:0.2;stroke-width:1.33978"
       id="path3"
       sodipodi:nodetypes="sccssccccccccccsscccccssssssssssccccc" />
    <path
       d="M 21.692302,78 C 19,78 19,80.666662 19,80.666662 V 94 c 0,0 0,2.666662 2.692302,2.666662 h 5.384622 C 29.769227,96.666662 29.769227,94 29.769227,94 V 91.333338 H 27.076924 V 94 H 21.692302 V 80.666662 h 5.384622 v 2.666676 h 2.692303 v -2.666676 c 0,0 0,-2.666662 -2.692303,-2.666662 z m 16.153849,0 2.692316,18.666662 h 2.692306 L 40.538467,78 Z m -4.03846,5.333338 c -0.743458,0 -1.346144,0.596947 -1.346144,1.333324 0,0.736381 0.602686,1.333338 1.346144,1.333338 0.743461,0 1.346158,-0.596957 1.346158,-1.333338 0,-0.736377 -0.602697,-1.333324 -1.346158,-1.333324 z m 0,8 c -0.743458,0 -1.346144,0.596947 -1.346144,1.333324 0,0.736381 0.602686,1.333338 1.346144,1.333338 0.743461,0 1.346158,-0.596957 1.346158,-1.333338 0,-0.736377 -0.602697,-1.333324 -1.346158,-1.333324 z M 45.923076,94 v 2.666662 H 54 V 94 Z"
       style="fill:#ffffff;stroke-width:1.33978"
       id="path4-5"
       sodipodi:nodetypes="sccssccccccccccsscccccssssssssssccccc" />
  </g>
</svg>
