<?xml version="1.0" encoding="UTF-8" standalone="no"?>
<svg
   width="62"
   height="62"
   version="1.1"
   id="svg9"
   sodipodi:docname="nixnote2.svg"
   inkscape:version="1.4 (unknown)"
   xmlns:inkscape="http://www.inkscape.org/namespaces/inkscape"
   xmlns:sodipodi="http://sodipodi.sourceforge.net/DTD/sodipodi-0.dtd"
   xmlns:xlink="http://www.w3.org/1999/xlink"
   xmlns="http://www.w3.org/2000/svg"
   xmlns:svg="http://www.w3.org/2000/svg">
  <defs
     id="defs9">
    <linearGradient
       id="linearGradient1"
       inkscape:collect="always">
      <stop
         style="stop-color:#ffb500;stop-opacity:1;"
         offset="0"
         id="stop1" />
      <stop
         style="stop-color:#ffc533;stop-opacity:1;"
         offset="1"
         id="stop2" />
    </linearGradient>
    <linearGradient
       inkscape:collect="always"
       xlink:href="#linearGradient1"
       id="linearGradient2"
       x1="31"
       y1="58.017544"
       x2="31"
       y2="3"
       gradientUnits="userSpaceOnUse" />
  </defs>
  <sodipodi:namedview
     id="namedview9"
     pagecolor="#ffffff"
     bordercolor="#000000"
     borderopacity="0.25"
     inkscape:showpageshadow="2"
     inkscape:pageopacity="0.0"
     inkscape:pagecheckerboard="0"
     inkscape:deskcolor="#d1d1d1"
     inkscape:zoom="7.0710678"
     inkscape:cx="26.870058"
     inkscape:cy="22.698128"
     inkscape:window-width="1920"
     inkscape:window-height="996"
     inkscape:window-x="0"
     inkscape:window-y="0"
     inkscape:window-maximized="1"
     inkscape:current-layer="svg9" />
  <g
     id="g3">
    <rect
       style="opacity:0.2;stroke-width:0.9823"
       width="55"
       height="55.017544"
       x="3.5"
       y="3.9824562"
       ry="8.2526312"
       id="rect1" />
    <rect
       style="fill:url(#linearGradient2);fill-opacity:1;stroke-width:0.9823"
       width="55"
       height="55.017544"
       x="3.5"
       y="3"
       ry="8.2526312"
       id="rect2" />
    <path
       style="opacity:0.1;fill:#ffffff;stroke-width:0.9823"
       d="M 11.748466,3 C 7.1779651,3 3.4999999,6.6791384 3.4999999,11.251097 v 0.982456 c 0,-4.5719585 3.6779652,-8.2510968 8.2484661,-8.2510968 h 38.503068 c 4.5705,0 8.248466,3.6791383 8.248466,8.2510968 V 11.251097 C 58.5,6.6791384 54.822034,3 50.251534,3 Z"
       id="path9" />
    <g
       id="g2"
       transform="matrix(0.9000137,0,0,0.9029268,15.700041,-19.505382)">
      <path
         style="opacity:0.2"
         d="m 16.273438,37.004991 c -0.194126,-0.0077 -0.396564,-0.0065 -0.605469,0.0039 -1.671244,0.08354 -5.20447,0.823231 -6.886719,3.453125 0,0 -1.55383,-0.485024 0.257812,-3.232422 0,0 -4.680526,-1.15572 -7.18164,2.638672 H -3 v 24.347656 c 0,0 6.577399,14.016637 27.941406,11.306641 0,0 9.669354,-1.407016 8.404297,-10.144532 0,0 3.016095,-3.318062 3.447266,-7.542968 0.398486,-3.901898 0.35324,-6.478243 -1.353516,-11.535156 -0.119143,-0.352527 -0.625111,-0.324556 -0.703125,0.03906 -0.598257,2.789555 -2.362028,9.163361 -7.404297,12.015625 0,0 2.655519,-4.760124 1.207031,-10.494141 -0.04643,-0.183896 -0.313808,-0.16664 -0.335937,0.02148 -0.212428,1.820006 -0.967013,5.799833 -3.542969,6.591797 0,0 -1.497635,-6.11042 -8.484375,-9.904297 0,0 0.602505,-1.812399 0.775391,-3.105469 0.172371,-1.29361 -0.430663,-1.896143 -0.08594,-2.5 0.345257,-0.603869 1.72461,-1.464844 1.72461,-1.464844 0,0 -0.957531,-0.440122 -2.316406,-0.49414 z m 2.595703,18.86914 c 1.207515,-0.07641 2.202844,0.919277 2.126953,2.126953 -0.06341,0.995342 -0.869435,1.802464 -1.865235,1.865235 -1.207499,0.07641 -2.203433,-0.919279 -2.126953,-2.126953 0.06279,-0.995918 0.869451,-1.802465 1.865235,-1.865235 z m 8.605468,11.003906 c 0.111232,-0.008 0.240286,-0.01177 0.376953,0 0.273337,0.02353 0.573905,0.103154 0.820313,0.316407 0.08188,0.071 0.366754,0.317651 0.324219,0.609375 -0.04043,0.27792 -0.351872,0.435806 -0.46875,0.49414 -0.358697,0.179283 -0.500706,0.03021 -0.96875,0.171875 -0.114151,0.03449 -0.462064,0.143486 -0.763672,0.433594 -0.245596,0.236551 -0.186452,0.327656 -0.41211,0.548828 -0.221905,0.217992 -0.694832,0.533583 -1.029296,0.375 -0.319387,-0.151165 -0.346177,-0.653474 -0.351563,-0.75 -0.03766,-0.687391 0.482839,-1.202991 0.703125,-1.419922 0.226198,-0.222233 0.737881,-0.642862 1.5,-0.75 0.06449,-0.0092 0.1583,-0.02132 0.269531,-0.0293 z"
         id="path2-2" />
      <path
         style="fill:#ffffff"
         d="m 16.273438,36.004991 c -0.194126,-0.0077 -0.396564,-0.0065 -0.605469,0.0039 -1.671244,0.08354 -5.20447,0.823231 -6.886719,3.453125 0,0 -1.55383,-0.485024 0.257812,-3.232422 0,0 -4.680526,-1.15572 -7.18164,2.638672 H -3 v 24.347656 c 0,0 6.577399,14.016637 27.941406,11.306641 0,0 9.669354,-1.407016 8.404297,-10.144532 0,0 3.016095,-3.318062 3.447266,-7.542968 0.398486,-3.901898 0.35324,-6.478243 -1.353516,-11.535156 -0.119143,-0.352527 -0.625111,-0.324556 -0.703125,0.03906 -0.598257,2.789555 -2.362028,9.163361 -7.404297,12.015625 0,0 2.655519,-4.760124 1.207031,-10.494141 -0.04643,-0.183896 -0.313808,-0.16664 -0.335937,0.02148 -0.212428,1.820006 -0.967013,5.799833 -3.542969,6.591797 0,0 -1.497635,-6.11042 -8.484375,-9.904297 0,0 0.602505,-1.812399 0.775391,-3.105469 0.172371,-1.29361 -0.430663,-1.896143 -0.08594,-2.5 0.345257,-0.603869 1.72461,-1.464844 1.72461,-1.464844 0,0 -0.957531,-0.440122 -2.316406,-0.49414 z m 2.595703,18.86914 c 1.207515,-0.07641 2.202844,0.919277 2.126953,2.126953 -0.06341,0.995342 -0.869435,1.802464 -1.865235,1.865235 -1.207499,0.07641 -2.203433,-0.919279 -2.126953,-2.126953 0.06279,-0.995918 0.869451,-1.802465 1.865235,-1.865235 z m 8.605468,11.003906 c 0.111232,-0.008 0.240286,-0.01177 0.376953,0 0.273337,0.02353 0.573905,0.103154 0.820313,0.316407 0.08188,0.071 0.366754,0.317651 0.324219,0.609375 -0.04043,0.27792 -0.351872,0.435806 -0.46875,0.49414 -0.358697,0.179283 -0.500706,0.03021 -0.96875,0.171875 -0.114151,0.03449 -0.462064,0.143486 -0.763672,0.433594 -0.245596,0.236551 -0.186452,0.327656 -0.41211,0.548828 -0.221905,0.217992 -0.694832,0.533583 -1.029296,0.375 -0.319387,-0.151165 -0.346177,-0.653474 -0.351563,-0.75 -0.03766,-0.687391 0.482839,-1.202991 0.703125,-1.419922 0.226198,-0.222233 0.737881,-0.642862 1.5,-0.75 0.06449,-0.0092 0.1583,-0.02132 0.269531,-0.0293 z"
         id="path3" />
    </g>
  </g>
</svg>
