<?xml version="1.0" encoding="UTF-8" standalone="no"?>
<svg
   width="62"
   height="62"
   version="1.1"
   id="svg9"
   sodipodi:docname="node-red-icon.svg"
   inkscape:version="1.4 (unknown)"
   xmlns:inkscape="http://www.inkscape.org/namespaces/inkscape"
   xmlns:sodipodi="http://sodipodi.sourceforge.net/DTD/sodipodi-0.dtd"
   xmlns:xlink="http://www.w3.org/1999/xlink"
   xmlns="http://www.w3.org/2000/svg"
   xmlns:svg="http://www.w3.org/2000/svg">
  <defs
     id="defs9">
    <linearGradient
       id="linearGradient1"
       inkscape:collect="always">
      <stop
         style="stop-color:#c83771;stop-opacity:1"
         offset="0"
         id="stop1" />
      <stop
         style="stop-color:#ff5555;stop-opacity:1"
         offset="1"
         id="stop2" />
    </linearGradient>
    <linearGradient
       inkscape:collect="always"
       xlink:href="#linearGradient1"
       id="linearGradient2"
       x1="31"
       y1="58.017544"
       x2="31"
       y2="3"
       gradientUnits="userSpaceOnUse" />
  </defs>
  <sodipodi:namedview
     id="namedview9"
     pagecolor="#ffffff"
     bordercolor="#000000"
     borderopacity="0.25"
     inkscape:showpageshadow="2"
     inkscape:pageopacity="0.0"
     inkscape:pagecheckerboard="0"
     inkscape:deskcolor="#d1d1d1"
     inkscape:zoom="7.0710678"
     inkscape:cx="26.870058"
     inkscape:cy="34.153258"
     inkscape:window-width="1920"
     inkscape:window-height="996"
     inkscape:window-x="0"
     inkscape:window-y="0"
     inkscape:window-maximized="1"
     inkscape:current-layer="svg9" />
  <rect
     style="opacity:0.2;stroke-width:0.9823"
     width="55"
     height="55.017544"
     x="3.5"
     y="3.9824562"
     ry="8.2526312"
     id="rect1" />
  <rect
     style="fill:url(#linearGradient2);fill-opacity:1;stroke-width:0.9823"
     width="55"
     height="55.017544"
     x="3.5"
     y="3"
     ry="8.2526312"
     id="rect2" />
  <path
     style="opacity:0.1;fill:#ffffff;stroke-width:0.9823"
     d="M 11.748466,3 C 7.1779651,3 3.4999999,6.6791384 3.4999999,11.251097 v 0.982456 c 0,-4.5719585 3.6779652,-8.2510968 8.2484661,-8.2510968 h 38.503068 c 4.5705,0 8.248466,3.6791383 8.248466,8.2510968 V 11.251097 C 58.5,6.6791384 54.822034,3 50.251534,3 Z"
     id="path9" />
  <g
     id="g1"
     transform="matrix(0.98214292,0,0,0.97727275,6.9822706,-60.000221)">
    <path
       d="m 38.454416,72.628131 c -3.041725,0 -5.533032,2.617633 -5.935547,6.033203 -0.948437,0.06355 -2.216522,0.227122 -3.539062,0.667969 -1.29102,0.43034 -2.657781,1.129956 -3.734375,2.326172 -1.076594,1.196215 -1.791016,2.901227 -1.791016,4.972656 0,0.6 -0.285963,0.977298 -1.242188,1.492188 -0.956223,0.514889 -2.454166,0.914673 -3.986328,1.15039 -2.077962,0.319686 -3.722932,0.351274 -4.771484,0.34961 v -0.992188 c 0,-3.878 -2.676,-7 -6.0000004,-7 h -11 v 3 h 11 c 1.662,0 3.0000004,1.338 3.0000004,3 v 3.330078 a 1.50015,1.50015 0 0 0 0,0.330078 v 4.339844 c 0,1.662 -1.3380004,3 -3.0000004,3 h -11 v 2.999999 h 11 c 3.3240004,0 6.0000004,-3.121999 6.0000004,-6.999999 v -1.970703 c 1.265378,0.06082 3.178372,0.241533 5.087891,0.787109 1.607132,0.459181 3.143589,1.174349 4.203125,2.158203 1.059535,0.983855 1.708984,2.16428 1.708984,4.025391 0,2.214289 1.081289,4.060609 2.513672,5.382809 1.432383,1.3222 3.212814,2.22549 4.947266,2.89258 2.207585,0.84907 4.285401,1.2854 5.578124,1.50977 0.333143,3.5049 2.865018,6.21484 5.960938,6.21484 h 8.910156 c 0.0543,-0.32565 0.08984,-0.65846 0.08984,-1 v -2 h -9 c -1.662,0 -3,-1.338 -3,-3 v -1.33203 a 1.50015,1.50015 0 0 0 0,-0.33984 v -6.32813 c 0,-1.661999 1.338,-2.999999 3,-2.999999 h 9 v -3 h -9 c -3.324,0 -6,3.122 -6,6.999999 v 3.72656 c -1.180751,-0.23116 -2.805681,-0.61531 -4.460938,-1.25195 -1.515548,-0.5829 -2.985117,-1.36712 -3.990234,-2.29492 -1.005117,-0.9278 -1.548828,-1.89397 -1.548828,-3.179689 0,-2.638889 -1.100551,-4.770964 -2.666016,-6.224609 -0.876161,-0.813579 -1.880456,-1.423866 -2.923828,-1.910157 0.614819,-0.203188 1.214668,-0.433648 1.769532,-0.732422 1.481275,-0.79761 2.820312,-2.232812 2.820312,-4.132812 0,-1.428571 0.410578,-2.286059 1.021484,-2.964844 0.610906,-0.678784 1.494145,-1.166668 2.453125,-1.486328 0.896696,-0.298898 1.800141,-0.430004 2.525391,-0.49414 v 3.945312 c 0,3.878 2.676,7 6,7 h 14 v -3 h -14 c -1.662,0 -3,-1.338 -3,-3 v -8 c 0,-1.662 1.338,-3 3,-3 h 14 v -3 z"
       style="opacity:0.2"
       id="path2" />
    <path
       d="m 38.454416,71.628131 c -3.041725,0 -5.533032,2.617633 -5.935547,6.033203 -0.948437,0.06355 -2.216522,0.227122 -3.539062,0.667969 -1.29102,0.43034 -2.657781,1.129956 -3.734375,2.326172 -1.076594,1.196215 -1.791016,2.901227 -1.791016,4.972656 0,0.6 -0.285963,0.977298 -1.242188,1.492188 -0.956223,0.514889 -2.454166,0.914673 -3.986328,1.15039 -2.077962,0.319686 -3.722932,0.351274 -4.771484,0.34961 v -0.992188 c 0,-3.878 -2.676,-7 -6.0000004,-7 h -11 v 3 h 11 c 1.662,0 3.0000004,1.338 3.0000004,3 v 3.330078 a 1.50015,1.50015 0 0 0 0,0.330078 v 4.339844 c 0,1.662 -1.3380004,3 -3.0000004,3 h -11 v 2.999999 h 11 c 3.3240004,0 6.0000004,-3.121999 6.0000004,-6.999999 v -1.970703 c 1.265378,0.06082 3.178372,0.241533 5.087891,0.787109 1.607132,0.459181 3.143589,1.174349 4.203125,2.158203 1.059535,0.983855 1.708984,2.16428 1.708984,4.025391 0,2.214289 1.081289,4.060609 2.513672,5.382809 1.432383,1.3222 3.212814,2.22549 4.947266,2.89258 2.207585,0.84907 4.285401,1.2854 5.578124,1.50977 0.333143,3.5049 2.865018,6.21484 5.960938,6.21484 h 8.910156 c 0.0543,-0.32565 0.08984,-0.65846 0.08984,-1 v -2 h -9 c -1.662,0 -3,-1.338 -3,-3 v -1.33203 a 1.50015,1.50015 0 0 0 0,-0.33984 v -6.32813 c 0,-1.661999 1.338,-2.999999 3,-2.999999 h 9 v -3 h -9 c -3.324,0 -6,3.122 -6,6.999999 v 3.72656 c -1.180751,-0.23116 -2.805681,-0.61531 -4.460938,-1.25195 -1.515548,-0.5829 -2.985117,-1.36712 -3.990234,-2.29492 -1.005117,-0.9278 -1.548828,-1.893975 -1.548828,-3.179689 0,-2.638889 -1.100551,-4.770964 -2.666016,-6.224609 -0.876161,-0.813579 -1.880456,-1.423866 -2.923828,-1.910157 0.614819,-0.203188 1.214668,-0.433648 1.769532,-0.732422 1.481275,-0.79761 2.820312,-2.232812 2.820312,-4.132812 0,-1.428571 0.410578,-2.286059 1.021484,-2.964844 0.610906,-0.678784 1.494145,-1.166668 2.453125,-1.486328 0.896696,-0.298898 1.800141,-0.430004 2.525391,-0.49414 v 3.945312 c 0,3.878 2.676,7 6,7 h 14 v -3 h -14 c -1.662,0 -3,-1.338 -3,-3 v -8 c 0,-1.662 1.338,-3 3,-3 h 14 v -3 z"
       style="fill:#ffffff"
       id="path3-7" />
  </g>
</svg>
