<?xml version="1.0" encoding="UTF-8" standalone="no"?>
<svg
   width="62"
   height="62"
   version="1.1"
   id="svg6"
   sodipodi:docname="nozbe.svg"
   inkscape:version="1.4 (unknown)"
   xmlns:inkscape="http://www.inkscape.org/namespaces/inkscape"
   xmlns:sodipodi="http://sodipodi.sourceforge.net/DTD/sodipodi-0.dtd"
   xmlns:xlink="http://www.w3.org/1999/xlink"
   xmlns="http://www.w3.org/2000/svg"
   xmlns:svg="http://www.w3.org/2000/svg">
  <defs
     id="defs6">
    <linearGradient
       id="linearGradient6"
       inkscape:collect="always">
      <stop
         style="stop-color:#b2b2b2;stop-opacity:1;"
         offset="0"
         id="stop6" />
      <stop
         style="stop-color:#f2f2f2;stop-opacity:1;"
         offset="1"
         id="stop7" />
    </linearGradient>
    <linearGradient
       inkscape:collect="always"
       xlink:href="#linearGradient6"
       id="linearGradient7"
       x1="32"
       y1="54"
       x2="32"
       y2="10"
       gradientUnits="userSpaceOnUse" />
  </defs>
  <sodipodi:namedview
     id="namedview6"
     pagecolor="#ffffff"
     bordercolor="#000000"
     borderopacity="0.25"
     inkscape:showpageshadow="2"
     inkscape:pageopacity="0.0"
     inkscape:pagecheckerboard="0"
     inkscape:deskcolor="#d1d1d1"
     inkscape:zoom="8.5405241"
     inkscape:cx="46.133"
     inkscape:cy="38.58077"
     inkscape:window-width="1920"
     inkscape:window-height="996"
     inkscape:window-x="0"
     inkscape:window-y="0"
     inkscape:window-maximized="1"
     inkscape:current-layer="svg6" />
  <g
     id="g6"
     transform="matrix(0.98214285,0,0,0.98245614,-0.42857107,-0.92982455)">
    <path
       style="opacity:0.2"
       d="M 32,5 C 16.537208,5 4.0021,17.533794 4,32.996094 3.9979052,48.449018 16.547078,61.000168 32,61 47.46344,60.999836 60,48.46398 60,33 c 0,-3.513412 -0.646774,-6.87454 -1.828124,-9.972656 -0.09496,-0.24902 -0.420958,-0.308916 -0.597658,-0.10938 l -4.410156,4.09375 A 22,22 0 0 1 54,33 22,22 0 0 1 32,55 22,22 0 0 1 10,33 22,22 0 0 1 32,11 a 22,22 0 0 1 9.90625,2.382812 c 0.03706,-0.0278 0.08416,-0.03579 0.11328,-0.07422 l 2.933592,-4.6679684 c 0.1334,-0.17597 0.07508,-0.4338082 -0.1211,-0.5351562 C 40.98764,6.1194398 36.624628,5 32,5 Z"
       id="path1" />
    <path
       style="fill:url(#linearGradient7)"
       d="M 32,57.2 C 45.917586,57.2 57.2,45.917586 57.2,32 57.2,18.082414 45.917586,6.8000002 32,6.8000002 18.082414,6.8000002 6.7999998,18.082414 6.7999998,32 6.7999998,45.917586 18.082414,57.2 32,57.2 Z"
       id="path2" />
    <path
       style="fill:#2d3c53;fill-opacity:1"
       d="M 32,4 C 16.537208,4 4.0021,16.533794 4,31.996094 3.9979052,47.449018 16.547078,60.000168 32,60 47.46344,59.999836 60,47.46398 60,32 c 0,-3.513412 -0.646774,-6.87454 -1.828124,-9.972656 -0.09496,-0.24902 -0.420958,-0.308916 -0.597658,-0.10938 l -4.410156,4.09375 A 22,22 0 0 1 54,32 22,22 0 0 1 32,54 22,22 0 0 1 10,32 22,22 0 0 1 32,10 a 22,22 0 0 1 9.90625,2.382812 c 0.03706,-0.0278 0.08416,-0.03579 0.11328,-0.07422 l 2.933592,-4.6679684 c 0.1334,-0.17597 0.07508,-0.4338082 -0.1211,-0.5351562 C 40.98764,5.1194398 36.624628,4 32,4 Z"
       id="path5" />
    <path
       style="opacity:0.1;fill:#ffffff"
       d="M 32,4 C 16.537208,4 4.0021,16.533794 4,31.996094 c -2.27e-5,0.167745 0.010749,0.332951 0.013672,0.5 C 4.2834164,17.265335 16.704833,5 32,5 36.573034,5 40.888268,6.098249 44.701172,8.0429688 L 44.953125,7.640625 c 0.1334,-0.17597 0.07509,-0.4338083 -0.121094,-0.5351562 C 40.987649,5.1194412 36.624628,4 32,4 Z m 25.904297,17.804688 c -0.115457,-0.02116 -0.241728,0.01351 -0.330078,0.113281 l -4.410157,4.09375 a 22,22 0 0 1 0.189454,0.824219 l 4.220703,-3.917969 c 0.1767,-0.199536 0.502696,-0.139645 0.597656,0.109375 1.121051,2.93998 1.754028,6.118448 1.816406,9.4375 C 59.990818,32.309606 60,32.155843 60,32 c 0,-3.513412 -0.646775,-6.87454 -1.828125,-9.972656 -0.04748,-0.12451 -0.152121,-0.201497 -0.267578,-0.222656 z M 53.978516,32.4375 A 22,22 0 0 1 32,54 22,22 0 0 1 10.021484,32.585938 22,22 0 0 0 10,33 22,22 0 0 0 32,55 22,22 0 0 0 54,33 22,22 0 0 0 53.978516,32.4375 Z"
       id="path6" />
  </g>
  <path
     d="m 53.807031,12.705263 -2.056823,-1.780907 c -0.847275,-0.733657 -2.138032,-0.644389 -2.881745,0.198628 L 30.137733,32.571488 18.845897,22.791915 c -0.847279,-0.733642 -2.138015,-0.644369 -2.881732,0.198635 l -1.786849,2.043909 c -0.736063,0.842747 -0.644988,2.12973 0.202491,2.869097 l 14.882907,12.890268 c 0.427538,0.368596 0.955047,0.535186 1.477121,0.499651 0.520132,-0.03541 1.027153,-0.272773 1.391226,-0.697814 l 21.85741,-25.020559 c 0.754715,-0.856751 0.663917,-2.13613 -0.181442,-2.869839 z"
     fill="#ffffff"
     fill-opacity="0.69"
     fill-rule="nonzero"
     id="path6-0"
     style="fill:#37c871;fill-opacity:1;stroke-width:1.91156" />
</svg>
