<?xml version="1.0" encoding="UTF-8" standalone="no"?>
<svg
   width="62"
   height="62"
   viewBox="0 0 16.404166 16.404167"
   version="1.1"
   id="svg1443"
   inkscape:version="1.4 (unknown)"
   sodipodi:docname="numptyphysics.svg"
   xmlns:inkscape="http://www.inkscape.org/namespaces/inkscape"
   xmlns:sodipodi="http://sodipodi.sourceforge.net/DTD/sodipodi-0.dtd"
   xmlns:xlink="http://www.w3.org/1999/xlink"
   xmlns="http://www.w3.org/2000/svg"
   xmlns:svg="http://www.w3.org/2000/svg"
   xmlns:rdf="http://www.w3.org/1999/02/22-rdf-syntax-ns#"
   xmlns:cc="http://creativecommons.org/ns#"
   xmlns:dc="http://purl.org/dc/elements/1.1/">
  <defs
     id="defs1437">
    <linearGradient
       gradientTransform="matrix(0.4711726,0,0,0.47114666,-53.953909,-18.000765)"
       gradientUnits="userSpaceOnUse"
       y2="70.679932"
       x2="132.21078"
       y1="42.151531"
       x1="132.21078"
       id="linearGradient1632"
       xlink:href="#linearGradient1630"
       inkscape:collect="always" />
    <linearGradient
       id="linearGradient1630"
       inkscape:collect="always">
      <stop
         id="stop1626"
         offset="0"
         style="stop-color:#fafafc;stop-opacity:1" />
      <stop
         id="stop1628"
         offset="1"
         style="stop-color:#e2e6ea;stop-opacity:1" />
    </linearGradient>
    <filter
       color-interpolation-filters="sRGB"
       height="1.1311001"
       width="1.1106"
       y="-0.065563001"
       x="-0.055319"
       id="c-9">
      <feGaussianBlur
         id="feGaussianBlur1093"
         stdDeviation="1.1062912" />
    </filter>
    <linearGradient
       gradientUnits="userSpaceOnUse"
       gradientTransform="matrix(0.13235,0,0,0.13075,-32.379,1.0873)"
       y2="269.48999"
       y1="235.14999"
       x2="657.65002"
       x1="319.20999"
       id="a-12">
      <stop
         id="stop1076"
         offset="0"
         stop-color="#e54c18" />
      <stop
         id="stop1078"
         offset="1"
         stop-color="#fec350" />
    </linearGradient>
    <linearGradient
       xlink:href="#a-7"
       id="c-36"
       x1="8.6850004"
       x2="8.7620001"
       y1="16.868999"
       y2="4.5339999"
       gradientTransform="matrix(1.0634748,0,0,1.0634748,-0.80999368,1.8113865)"
       gradientUnits="userSpaceOnUse" />
    <linearGradient
       id="a-7">
      <stop
         offset="0"
         style="stop-color:#2369ff;stop-opacity:1;"
         id="stop8" />
      <stop
         offset="1"
         style="stop-color:#7fa8ff;stop-opacity:1"
         id="stop10" />
    </linearGradient>
  </defs>
  <sodipodi:namedview
     id="base"
     pagecolor="#ffffff"
     bordercolor="#666666"
     borderopacity="1.0"
     inkscape:pageopacity="0.0"
     inkscape:pageshadow="2"
     inkscape:zoom="5.6"
     inkscape:cx="19.732143"
     inkscape:cy="51.696429"
     inkscape:document-units="px"
     inkscape:current-layer="layer1"
     inkscape:document-rotation="0"
     showgrid="false"
     units="px"
     inkscape:window-width="1920"
     inkscape:window-height="996"
     inkscape:window-x="0"
     inkscape:window-y="0"
     inkscape:window-maximized="1"
     inkscape:showpageshadow="2"
     inkscape:pagecheckerboard="0"
     inkscape:deskcolor="#d1d1d1">
    <inkscape:grid
       id="grid1"
       units="px"
       originx="0"
       originy="0"
       spacingx="0.26458332"
       spacingy="0.26458334"
       empcolor="#0099e5"
       empopacity="0.30196078"
       color="#0099e5"
       opacity="0.14901961"
       empspacing="5"
       enabled="true"
       visible="false" />
  </sodipodi:namedview>
  <metadata
     id="metadata1440">
    <rdf:RDF>
      <cc:Work
         rdf:about="">
        <dc:format>image/svg+xml</dc:format>
        <dc:type
           rdf:resource="http://purl.org/dc/dcmitype/StillImage" />
      </cc:Work>
    </rdf:RDF>
  </metadata>
  <g
     inkscape:label="Capa 1"
     inkscape:groupmode="layer"
     id="layer1">
    <g
       id="g2">
      <g
         style="opacity:0.295"
         transform="matrix(0.47117252,0,0,0.47114656,-31.72741,-18.000762)"
         id="g1702">
        <rect
           ry="6.6098609"
           rx="6.6098609"
           y="40.709618"
           x="69.839508"
           height="29.810888"
           width="29.810888"
           id="rect1634"
           style="fill:none;fill-opacity:1;stroke:#000000;stroke-width:0.1;stroke-linecap:round;stroke-linejoin:round;stroke-miterlimit:4;stroke-dasharray:none;stroke-opacity:0.02" />
        <rect
           style="fill:none;fill-opacity:1;stroke:#000000;stroke-width:0.2;stroke-linecap:round;stroke-linejoin:round;stroke-miterlimit:4;stroke-dasharray:none;stroke-opacity:0.02"
           id="rect1638"
           width="29.810888"
           height="29.810888"
           x="69.839508"
           y="40.709618"
           rx="6.6098609"
           ry="6.6098609" />
        <rect
           ry="6.6098609"
           rx="6.6098609"
           y="40.709618"
           x="69.839508"
           height="29.810888"
           width="29.810888"
           id="rect1640"
           style="fill:none;fill-opacity:1;stroke:#000000;stroke-width:0.3;stroke-linecap:round;stroke-linejoin:round;stroke-miterlimit:4;stroke-dasharray:none;stroke-opacity:0.02" />
        <rect
           style="fill:none;fill-opacity:1;stroke:#000000;stroke-width:0.4;stroke-linecap:round;stroke-linejoin:round;stroke-miterlimit:4;stroke-dasharray:none;stroke-opacity:0.02"
           id="rect1642"
           width="29.810888"
           height="29.810888"
           x="69.839508"
           y="40.709618"
           rx="6.6098609"
           ry="6.6098609" />
        <rect
           ry="6.6098609"
           rx="6.6098609"
           y="40.709618"
           x="69.839508"
           height="29.810888"
           width="29.810888"
           id="rect1644"
           style="fill:none;fill-opacity:1;stroke:#000000;stroke-width:0.5;stroke-linecap:round;stroke-linejoin:round;stroke-miterlimit:4;stroke-dasharray:none;stroke-opacity:0.02" />
        <rect
           style="fill:none;fill-opacity:1;stroke:#000000;stroke-width:0.6;stroke-linecap:round;stroke-linejoin:round;stroke-miterlimit:4;stroke-dasharray:none;stroke-opacity:0.02"
           id="rect1646"
           width="29.810888"
           height="29.810888"
           x="69.839508"
           y="40.709618"
           rx="6.6098609"
           ry="6.6098609" />
        <rect
           ry="6.6098609"
           rx="6.6098609"
           y="40.709618"
           x="69.839508"
           height="29.810888"
           width="29.810888"
           id="rect1648"
           style="fill:none;fill-opacity:1;stroke:#000000;stroke-width:0.7;stroke-linecap:round;stroke-linejoin:round;stroke-miterlimit:4;stroke-dasharray:none;stroke-opacity:0.02" />
        <rect
           style="fill:none;fill-opacity:1;stroke:#000000;stroke-width:0.8;stroke-linecap:round;stroke-linejoin:round;stroke-miterlimit:4;stroke-dasharray:none;stroke-opacity:0.02"
           id="rect1650"
           width="29.810888"
           height="29.810888"
           x="69.839508"
           y="40.709618"
           rx="6.6098609"
           ry="6.6098609" />
        <rect
           ry="6.6098609"
           rx="6.6098609"
           y="40.709618"
           x="69.839508"
           height="29.810888"
           width="29.810888"
           id="rect1652"
           style="fill:none;fill-opacity:1;stroke:#000000;stroke-width:1;stroke-linecap:round;stroke-linejoin:round;stroke-miterlimit:4;stroke-dasharray:none;stroke-opacity:0.02" />
        <rect
           style="fill:none;fill-opacity:1;stroke:#000000;stroke-width:1.2;stroke-linecap:round;stroke-linejoin:round;stroke-miterlimit:4;stroke-dasharray:none;stroke-opacity:0.02"
           id="rect1654"
           width="29.810888"
           height="29.810888"
           x="69.839508"
           y="40.709618"
           rx="6.6098609"
           ry="6.6098609" />
        <rect
           ry="6.6098609"
           rx="6.6098609"
           y="40.709618"
           x="69.839508"
           height="29.810888"
           width="29.810888"
           id="rect1656"
           style="fill:none;fill-opacity:1;stroke:#000000;stroke-width:1.4;stroke-linecap:round;stroke-linejoin:round;stroke-miterlimit:4;stroke-dasharray:none;stroke-opacity:0.02" />
        <rect
           style="fill:none;fill-opacity:1;stroke:#000000;stroke-width:1.6;stroke-linecap:round;stroke-linejoin:round;stroke-miterlimit:4;stroke-dasharray:none;stroke-opacity:0.02"
           id="rect1658"
           width="29.810888"
           height="29.810888"
           x="69.839508"
           y="40.709618"
           rx="6.6098609"
           ry="6.6098609" />
        <rect
           ry="6.6098609"
           rx="6.6098609"
           y="40.709618"
           x="69.839508"
           height="29.810888"
           width="29.810888"
           id="rect1660"
           style="fill:none;fill-opacity:1;stroke:#000000;stroke-width:1.8;stroke-linecap:round;stroke-linejoin:round;stroke-miterlimit:4;stroke-dasharray:none;stroke-opacity:0.02" />
        <rect
           style="fill:none;fill-opacity:1;stroke:#000000;stroke-width:2;stroke-linecap:round;stroke-linejoin:round;stroke-miterlimit:4;stroke-dasharray:none;stroke-opacity:0.02"
           id="rect1662"
           width="29.810888"
           height="29.810888"
           x="69.839508"
           y="40.709618"
           rx="6.6098609"
           ry="6.6098609" />
        <rect
           ry="6.6098609"
           rx="6.6098609"
           y="40.709618"
           x="69.839508"
           height="29.810888"
           width="29.810888"
           id="rect1664"
           style="fill:none;fill-opacity:1;stroke:#000000;stroke-width:2.2;stroke-linecap:round;stroke-linejoin:round;stroke-miterlimit:4;stroke-dasharray:none;stroke-opacity:0.02" />
        <rect
           style="fill:none;fill-opacity:1;stroke:#000000;stroke-width:2.6;stroke-linecap:round;stroke-linejoin:round;stroke-miterlimit:4;stroke-dasharray:none;stroke-opacity:0.02"
           id="rect1666"
           width="29.810888"
           height="29.810888"
           x="69.839508"
           y="40.709618"
           rx="6.6098609"
           ry="6.6098609" />
        <rect
           ry="6.6098609"
           rx="6.6098609"
           y="40.709618"
           x="69.839508"
           height="29.810888"
           width="29.810888"
           id="rect1668"
           style="fill:none;fill-opacity:1;stroke:#000000;stroke-width:3;stroke-linecap:round;stroke-linejoin:round;stroke-miterlimit:4;stroke-dasharray:none;stroke-opacity:0.02" />
        <rect
           style="fill:none;fill-opacity:1;stroke:#000000;stroke-width:3.4;stroke-linecap:round;stroke-linejoin:round;stroke-miterlimit:4;stroke-dasharray:none;stroke-opacity:0.02"
           id="rect1670"
           width="29.810888"
           height="29.810888"
           x="69.839508"
           y="40.709618"
           rx="6.6098609"
           ry="6.6098609" />
        <rect
           ry="6.6098609"
           rx="6.6098609"
           y="40.709618"
           x="69.839508"
           height="29.810888"
           width="29.810888"
           id="rect1672"
           style="fill:none;fill-opacity:1;stroke:#000000;stroke-width:3.8;stroke-linecap:round;stroke-linejoin:round;stroke-miterlimit:4;stroke-dasharray:none;stroke-opacity:0.02" />
        <rect
           style="fill:none;fill-opacity:1;stroke:#000000;stroke-width:4.2;stroke-linecap:round;stroke-linejoin:round;stroke-miterlimit:4;stroke-dasharray:none;stroke-opacity:0.02"
           id="rect1674"
           width="29.810888"
           height="29.810888"
           x="69.839508"
           y="40.709618"
           rx="6.6098609"
           ry="6.6098609" />
        <rect
           ry="6.6098609"
           rx="6.6098609"
           y="40.709618"
           x="69.839508"
           height="29.810888"
           width="29.810888"
           id="rect1676"
           style="fill:none;fill-opacity:1;stroke:#000000;stroke-width:4.6;stroke-linecap:round;stroke-linejoin:round;stroke-miterlimit:4;stroke-dasharray:none;stroke-opacity:0.02" />
        <rect
           style="fill:none;fill-opacity:1;stroke:#000000;stroke-width:5;stroke-linecap:round;stroke-linejoin:round;stroke-miterlimit:4;stroke-dasharray:none;stroke-opacity:0.02"
           id="rect1678"
           width="29.810888"
           height="29.810888"
           x="69.839508"
           y="40.709618"
           rx="6.6098609"
           ry="6.6098609" />
      </g>
      <rect
         ry="3.1142132"
         rx="3.1143851"
         y="1.1794344"
         x="1.1790471"
         height="14.045296"
         width="14.04607"
         id="rect849"
         style="fill:url(#linearGradient1632);fill-opacity:1;stroke-width:1.29783;stroke-linecap:round;stroke-linejoin:round" />
      <g
         id="g1"
         transform="matrix(1.0925926,0,0,1.0007592,-1.6008861,-1.5197903)">
        <path
           d="M 2.5126069,7.4384006 C 5.1096904,7.2992871 6.2718506,8.589796 7.1271545,9.9479199 7.801266,11.01876 8.3250336,12.121634 9.0611652,12.805866 c 1.5219468,1.414411 5.0097268,2.460666 6.4053558,2.460666 0.358485,0 0.649438,-0.289862 0.649438,-0.647024 0,-0.357159 -0.290953,-0.647036 -0.649438,-0.647036 -1.202103,0 -4.208647,-0.894845 -5.5192042,-2.112898 C 9.2822976,11.241662 8.836462,10.227436 8.2272941,9.2604467 7.158002,7.5616607 5.6909323,5.9722213 2.4431185,6.1462727 2.0849557,6.165365 1.8102465,6.470439 1.8294033,6.826952 1.8485605,7.1834677 2.1547692,7.4574884 2.5126069,7.4384006 Z"
           id="path3-3"
           style="stroke-width:0.324121;fill:#2a7fff" />
        <path
           d="m 9.2767187,5.3982198 c 0.082292,-0.1335339 0.3777815,-0.5656145 0.8159793,-0.8703891 0.353824,-0.2459653 0.789936,-0.4068283 1.284734,-0.3559748 1.16633,0.1356093 2.555578,0.797051 3.163215,2.3866544 0.0048,0.013135 0.009,0.026302 0.01383,0.039784 0.224313,0.7133333 0.35764,1.5716161 0.02917,2.2441261 -0.274638,0.5625005 -0.554846,1.0658469 -1.080196,1.4193946 -0.360076,0.242508 -0.838894,0.422749 -1.53196,0.473251 -0.128475,0.009 -0.474308,-0.03185 -0.879516,-0.156019 C 10.548602,10.412653 9.889571,10.102686 9.5416522,9.7325279 8.980883,9.1364699 8.5965048,8.1986203 8.7801879,7.402609 8.8079651,7.2822251 8.8656054,7.1531844 8.9478968,7.025532 8.9287999,7.0134278 8.9100498,6.9999346 8.8916473,6.9854044 8.5926869,6.7467041 8.5440752,6.3108181 8.7833124,6.0126166 Z M 13.237172,7.0369474 C 12.846882,6.034753 11.955554,5.6320763 11.225696,5.5473212 c -0.179523,-0.018678 -0.323272,0.094097 -0.439239,0.194073 -0.104175,0.090295 -0.200006,0.2086037 -0.260422,0.2892082 0.18924,0.040132 0.360765,0.1591326 0.461811,0.3407531 0.185767,0.3341793 0.06456,0.7555367 -0.270839,0.9406164 0,0 -0.196874,0.1093162 -0.389936,0.2591097 -0.06668,0.052234 -0.16701,0.1542918 -0.202429,0.1909605 -0.05589,0.3615084 0.178128,0.756229 0.430561,1.0246807 0.30347,0.3224169 1.278133,0.5500477 1.347228,0.5656149 0.367363,-0.029752 0.629528,-0.1065543 0.823614,-0.2369699 0.314588,-0.2120623 0.444115,-0.5413996 0.609034,-0.8786925 0.176049,-0.3604715 0.02369,-0.8140025 -0.0979,-1.1997279 z"
           id="path4-6"
           style="stroke-width:0.346577;fill:#c83771" />
      </g>
    </g>
  </g>
</svg>
