<?xml version="1.0" encoding="UTF-8" standalone="no"?>
<svg
   width="62"
   height="62"
   version="1.1"
   id="svg9"
   sodipodi:docname="nutty.svg"
   inkscape:version="1.4 (unknown)"
   xmlns:inkscape="http://www.inkscape.org/namespaces/inkscape"
   xmlns:sodipodi="http://sodipodi.sourceforge.net/DTD/sodipodi-0.dtd"
   xmlns:xlink="http://www.w3.org/1999/xlink"
   xmlns="http://www.w3.org/2000/svg"
   xmlns:svg="http://www.w3.org/2000/svg">
  <defs
     id="defs9">
    <linearGradient
       id="linearGradient1"
       inkscape:collect="always">
      <stop
         style="stop-color:#3771c8;stop-opacity:1"
         offset="0"
         id="stop1" />
      <stop
         style="stop-color:#87aade;stop-opacity:1"
         offset="1"
         id="stop2" />
    </linearGradient>
    <linearGradient
       id="a"
       x2="1"
       gradientTransform="matrix(0,43.3369,-43.3369,0,-367.038,1.7081004)"
       gradientUnits="userSpaceOnUse">
      <stop
         stop-color="#2eae05"
         offset="0"
         id="stop1-3" />
      <stop
         stop-color="#005e34"
         offset="1"
         id="stop2-6" />
    </linearGradient>
    <linearGradient
       id="b"
       x2="1"
       gradientTransform="matrix(2.25576,-119.849,119.849,2.25576,16094.5,545.6944)"
       gradientUnits="userSpaceOnUse">
      <stop
         stop-color="#065dfe"
         offset="0"
         id="stop3" />
      <stop
         stop-color="#00b9ff"
         offset="1"
         id="stop4" />
    </linearGradient>
    <linearGradient
       inkscape:collect="always"
       xlink:href="#linearGradient1"
       id="linearGradient2"
       x1="24"
       y1="45.044567"
       x2="24"
       y2="2.325089"
       gradientUnits="userSpaceOnUse" />
  </defs>
  <sodipodi:namedview
     id="namedview9"
     pagecolor="#ffffff"
     bordercolor="#000000"
     borderopacity="0.25"
     inkscape:showpageshadow="2"
     inkscape:pageopacity="0.0"
     inkscape:pagecheckerboard="0"
     inkscape:deskcolor="#d1d1d1"
     inkscape:zoom="7.0710678"
     inkscape:cx="-8.5559921"
     inkscape:cy="34.4361"
     inkscape:window-width="1920"
     inkscape:window-height="996"
     inkscape:window-x="0"
     inkscape:window-y="0"
     inkscape:window-maximized="1"
     inkscape:current-layer="svg9" />
  <rect
     style="opacity:0.2;stroke-width:0.9823"
     width="55"
     height="55.017544"
     x="3.5"
     y="3.9824562"
     ry="8.2526312"
     id="rect1" />
  <path
     style="opacity:0.115385;fill:#676767;fill-opacity:1;stroke-width:0.9823"
     d="M 11.748466,3 C 7.1779651,3 3.4999999,6.6791384 3.4999999,11.251097 v 0.982456 c 0,-4.5719585 3.6779652,-8.2510968 8.2484661,-8.2510968 h 38.503068 c 4.5705,0 8.248466,3.6791383 8.248466,8.2510968 V 11.251097 C 58.5,6.6791384 54.822034,3 50.251534,3 Z"
     id="path9" />
  <g
     id="g7"
     transform="matrix(1.2691527,0,0,1.2691527,0.5403352,1.0315633)">
    <path
       d="m 45.668,7.9365705 c 0,-3.4380001 -2.79,-6.2280001 -6.228,-6.2280001 H 8.56 c -3.438,0 -6.228,2.79 -6.228,6.2280001 V 38.816569 c 0,3.438 2.79,6.228 6.228,6.228 h 30.88 c 3.438,0 6.228,-2.79 6.228,-6.228 z"
       id="path4"
       style="fill:url(#linearGradient2)" />
    <path
       d="m 16.319,28.212 h 3.072 l 1.536,1.529 v 3.058 l -1.152,1.147 v 1.147 l -2.304,2.293 v 1.53 l -4.993,4.587 0.007,1.423 C 12.403,44.922 12.292,44.924 12.21,44.92 12.105,44.914 12.017,44.902 11.914,44.895 l -0.588,-0.628 v -4.969 l 1.152,-1.147 0.01,-3.427 -3.083,-2.689 v -3.823 l 1.537,-1.529 h 3.84 z m 17.667,-6.881 h 4.609 v 1.53 l 3.84,3.822 h 1.537 l -3.841,3.823 0.052,4.391 -4.817,4.793 -2.917,-3.068 V 32.035 L 31.681,31.27 V 30.124 L 30.529,28.977 H 27.841 L 25.92,27.065 v -3.822 l 2.689,-2.676 h 4.608 z m 8.833,14.526 H 41.283 V 33.46 l 1.536,-1.425 z M 3.711,6.49 5.565,8.334 h 1.92 V 6.041 h 3.841 l 2.304,2.293 v 1.53 h -1.92 l -2.305,2.293 v 1.529 l 1.537,1.529 h 1.536 v -3.058 h 3.457 l 2.304,2.294 -2.304,2.675 1.152,1.147 h -2.305 l -2.304,2.294 h -1.536 l -2.305,2.294 v 4.587 L 4.796,23.625 H 2.492 l -0.16,-0.16 V 9.186 C 2.669,8.22 3.135,7.314 3.711,6.49 Z m 40.79,0.315 c 0.479,0.739 0.873,1.537 1.167,2.381 v 12.91 H 44.74 l 0.928,0.924 v 1.21 l -0.928,0.924 -0.769,0.764 h -0.767 l -4.609,-4.587 h 1.536 l -0.021,-1.167 -1.132,-1.126 1.153,-1.147 h 1.152 l -1.152,-1.147 h -1.153 l -1.152,1.147 1.152,1.147 h -1.92 l -1.536,-1.529 h -1.536 l 1.536,1.529 v 0.764 h -0.768 l -1.536,-1.529 v -0.764 h -1.536 l -1.537,1.529 h -2.304 v -2.294 l 1.152,-1.146 v -1.53 h 1.536 l 1.153,-1.095 3.072,-0.051 0.768,-0.765 v -1.529 h -1.536 v 1.147 H 31.682 V 9.864 L 33.986,7.57 h 4.609 l 1.536,1.529 2.304,-2.294 z M 13.246,24.39 h -2.304 l 1.152,-1.147 h 1.152 z m 6.145,-7.646 h -0.384 l -0.384,-0.382 h -1.152 l 1.152,-1.147 1.152,1.147 z m 11.138,-3.44 H 29.377 V 12.157 L 30.529,11.01 Z M 25.92,11.775 h -2.304 v -1.147 h 1.152 z M 25.536,2.332 v 2.18 L 24,6.041 V 7.57 l -2.304,2.294 v 1.529 H 20.159 L 17.471,8.438 V 6.041 L 15.167,3.747 16.411,2.332 Z m -13.345,0 h 0.287 v 2.18 H 8.637 L 7.31,3.19 C 7.5,3.081 7.694,2.977 7.891,2.878 8.095,2.83 8.305,2.785 8.524,2.744 9.061,2.644 9.635,2.56 10.249,2.492 c 0.607,-0.067 1.254,-0.12 1.942,-0.16 z"
       fill="#ececec"
       fill-rule="nonzero"
       id="path5" />
    <path
       d="m 45.668,25.360388 v 13.508 c 0,1.386 -0.453,2.666 -1.219,3.701 -0.288,0.351 -0.596,0.683 -0.92,0.996 -1.094,0.954 -2.525,1.531 -4.089,1.531 H 24.029 c -0.077,-1.992 -0.019,-7.877 -0.029,-9.323 -0.045,-6.544 3.006,-10.427 10.946,-10.427 0.651,0 10.722,0.014 10.722,0.014 z"
       fill="url(#b)"
       fill-rule="nonzero"
       id="path6"
       style="fill:#ff5555;fill-opacity:1" />
    <path
       d="m 37.064,34.284 v 7.875 h -3.937 v -7.875 z m 0,-5.25 v 3.938 h -3.937 v -3.938 z"
       fill="#ffffff"
       id="path7" />
  </g>
</svg>
