<?xml version="1.0" encoding="UTF-8" standalone="no"?>
<svg
   clip-rule="evenodd"
   fill-rule="evenodd"
   stroke-linejoin="round"
   stroke-miterlimit="2"
   viewBox="0 0 62 62"
   version="1.1"
   id="svg6"
   sodipodi:docname="nvvp.svg"
   width="62"
   height="62"
   inkscape:version="1.4 (unknown)"
   xmlns:inkscape="http://www.inkscape.org/namespaces/inkscape"
   xmlns:sodipodi="http://sodipodi.sourceforge.net/DTD/sodipodi-0.dtd"
   xmlns="http://www.w3.org/2000/svg"
   xmlns:svg="http://www.w3.org/2000/svg">
  <defs
     id="defs6" />
  <sodipodi:namedview
     id="namedview6"
     pagecolor="#ffffff"
     bordercolor="#000000"
     borderopacity="0.25"
     inkscape:showpageshadow="2"
     inkscape:pageopacity="0.0"
     inkscape:pagecheckerboard="0"
     inkscape:deskcolor="#d1d1d1"
     inkscape:zoom="9.4280904"
     inkscape:cx="19.250982"
     inkscape:cy="31.660706"
     inkscape:window-width="1920"
     inkscape:window-height="996"
     inkscape:window-x="0"
     inkscape:window-y="0"
     inkscape:window-maximized="1"
     inkscape:current-layer="svg6" />
  <linearGradient
     id="a"
     x2="1"
     gradientTransform="matrix(0,-33.6872,33.6872,0,923.28,40.4502)"
     gradientUnits="userSpaceOnUse">
    <stop
       stop-color="#006783"
       offset="0"
       id="stop1" />
    <stop
       stop-color="#13bee3"
       offset="1"
       id="stop2" />
  </linearGradient>
  <g
     id="g6"
     transform="matrix(1.2904927,0,0,1.2976179,0.02835587,-0.14412722)">
    <path
       d="m 44.61226,7.0275409 c 0,-0.6764766 -3.711306,-3.5258779 -4.388259,-3.5258779 H 6.6833847 C 6.006432,3.501663 3.38758,7.5011824 3.38758,8.1776589 V 41.233304 c 0,0.676476 3.2231191,3.266939 3.9000717,3.266939 H 43.386368 c 0.676953,0 1.225892,-0.549165 1.225892,-1.225642 z"
       id="path2"
       style="stroke-width:1.08188;fill:#2d3c53;fill-opacity:1" />
    <path
       d="M 2.332,14.542 V 8.56 c 0,-3.075 2.232,-5.632 5.163,-6.137 h 6.741 c 0.601,0 1.085,0.481 1.085,1.079 v 10.789 c 0,0.597 -0.484,1.079 -1.085,1.079 H 3.388 c -0.514,0 -0.943,-0.352 -1.056,-0.828 z"
       id="path3"
       style="fill:#00ccff;fill-opacity:1" />
    <path
       d="m 18.576,2.423 h 10.848 c 0.601,0 1.085,0.481 1.085,1.079 v 10.789 c 0,0.597 -0.484,1.079 -1.085,1.079 H 18.576 c -0.601,0 -1.085,-0.482 -1.085,-1.079 V 3.502 c 0,-0.598 0.484,-1.079 1.085,-1.079 z m 27.092,12.118 c -0.113,0.476 -0.541,0.829 -1.056,0.829 H 33.764 c -0.601,0 -1.085,-0.482 -1.085,-1.079 V 3.502 c 0,-0.598 0.484,-1.079 1.085,-1.079 h 6.741 c 2.931,0.505 5.163,3.062 5.163,6.137 z m -11.904,2.986 h 10.848 c 0.601,0 1.085,0.482 1.085,1.079 v 10.79 c 0,0.597 -0.484,1.078 -1.085,1.078 H 33.764 c -0.601,0 -1.085,-0.481 -1.085,-1.078 v -10.79 c 0,-0.597 0.484,-1.079 1.085,-1.079 z"
       id="path4"
       style="fill:#3bd3e0;fill-opacity:1" />
    <path
       d="m 3.38758,17.527493 c -0.6010124,0 -1.08486,0.481194 -1.08486,1.07891 v 10.7891 c 0,0.597716 0.4838476,1.07891 1.08486,1.07891 h 10.8486 c 0.601012,0 1.08486,-0.481194 1.08486,-1.07891 v -10.7891 c 0,-0.597716 -0.483848,-1.07891 -1.08486,-1.07891 z"
       fill-rule="nonzero"
       id="path5"
       style="stroke-width:1.08188;fill:#b7e267;fill-opacity:1" />
    <path
       d="m 18.576,17.527 h 10.848 c 0.601,0 1.085,0.482 1.085,1.079 v 10.79 c 0,0.597 -0.484,1.078 -1.085,1.078 H 18.576 c -0.601,0 -1.085,-0.481 -1.085,-1.078 v -10.79 c 0,-0.597 0.484,-1.079 1.085,-1.079 z M 7.507,45.579 C 4.57,45.078 2.332,42.519 2.332,39.44 v -5.98 c 0.113,-0.476 0.542,-0.828 1.056,-0.828 h 10.848 c 0.601,0 1.085,0.481 1.085,1.079 V 44.5 c 0,0.598 -0.484,1.079 -1.085,1.079 z"
       id="path6"
       style="fill:#00d455" />
  </g>
</svg>
