<?xml version="1.0" encoding="UTF-8" standalone="no"?>
<svg
   width="62"
   height="62"
   version="1.1"
   id="svg28"
   sodipodi:docname="nz.scuttlebutt.Patchwork.svg"
   inkscape:version="1.4 (unknown)"
   xmlns:inkscape="http://www.inkscape.org/namespaces/inkscape"
   xmlns:sodipodi="http://sodipodi.sourceforge.net/DTD/sodipodi-0.dtd"
   xmlns="http://www.w3.org/2000/svg"
   xmlns:svg="http://www.w3.org/2000/svg">
  <defs
     id="defs28" />
  <sodipodi:namedview
     id="namedview28"
     pagecolor="#ffffff"
     bordercolor="#000000"
     borderopacity="0.25"
     inkscape:showpageshadow="2"
     inkscape:pageopacity="0.0"
     inkscape:pagecheckerboard="0"
     inkscape:deskcolor="#d1d1d1"
     inkscape:zoom="6.0390625"
     inkscape:cx="27.570505"
     inkscape:cy="22.602846"
     inkscape:window-width="1920"
     inkscape:window-height="996"
     inkscape:window-x="0"
     inkscape:window-y="0"
     inkscape:window-maximized="1"
     inkscape:current-layer="svg28" />
  <g
     id="g28"
     transform="matrix(0.98245614,0,0,1.0980392,-0.92982454,-4.686274)">
    <path
       style="opacity:0.2"
       d="m 22.765126,11.209648 c 2.789989,-1.163793 6.264319,-0.887859 9.661717,-2.0289256 3.333255,-1.1195234 7.934961,3.2380736 10.160572,5.4900096 1.717085,1.737396 3.002995,5.212189 3.002995,5.212189 2.686572,7.466527 9.497448,14.246405 9.402152,22.176082 0.100176,2.374933 -0.812213,3.86371 -2.697403,4.888512 C 49.183079,48.616316 44.1941,49.503912 40.667061,51 L 34.328643,50.817989 12,28.75916 c 2.822321,-6.540087 5.387851,-13.329626 10.765126,-17.549512 z"
       id="path1" />
    <path
       style="opacity:0.2"
       d="m 14.689453,26.002377 c -0.559778,0.01535 -1.122928,0.210032 -1.923828,0.585938 -2.992884,1.147626 -6.6381486,1.583463 -7.9335938,4.052734 -1.9926634,3.798249 0.1067493,7.335003 0.9863282,10.289063 0.3732528,1.251062 0.6968975,2.29953 2.0898437,3.039062 l 5.7910159,4.509766 c 0.212362,1.658012 0.310026,2.251274 2.039062,2.882812 l 10.78711,5.230469 c 6.028304,2.512396 10.535942,1.253198 13.375,-0.601563 5.19e-4,1.99e-4 0.0014,-1.98e-4 0.002,0 8.66484,-3.470653 8.582006,-5.88809 9.097656,-8.234375 0,0 -9.165296,4.311283 -10.351562,-0.357421 l -1.390626,-7.150391 c -0.620113,-2.254564 -3.546478,-3.391419 -5.677734,-4.912109 l -0.158203,6.820312 0.15625,-6.818359 -6.921875,-4.759766 -4.347656,-2.447266 -3.712891,-1.632812 c -0.790559,-0.34742 -1.346471,-0.511445 -1.90625,-0.496094 z"
       id="path2" />
    <path
       style="fill:#252fda;fill-opacity:1"
       d="m 22.765126,10.209648 c 2.789989,-1.1637929 6.264319,-0.8878588 9.661717,-2.0289256 3.333255,-1.1195234 7.934961,3.2380736 10.160572,5.4900096 1.717085,1.737396 3.002995,5.212189 3.002995,5.212189 2.686572,7.466527 9.497448,14.246405 9.402152,22.176082 0.100176,2.374933 -0.812213,3.86371 -2.697403,4.888512 C 49.183079,47.616316 44.1941,48.503912 40.667061,50 L 34.328643,49.817989 12,27.75916 c 2.822321,-6.540087 5.387851,-13.329626 10.765126,-17.549512 z"
       id="path3" />
    <path
       style="opacity:0.1;fill:#ffffff"
       d="M 33.728516,8.0019531 C 33.279338,7.9855437 32.844391,8.0417002 32.427734,8.1816406 29.030336,9.3227074 25.555614,9.0451915 22.765625,10.208984 17.38835,14.42887 14.822321,21.219679 12,27.759766 l 0.302734,0.298828 c 2.707595,-6.320195 5.277689,-12.780456 10.462891,-16.84961 2.789989,-1.163793 6.264711,-0.886277 9.662109,-2.0273434 3.333255,-1.1195234 7.934546,3.2363454 10.160157,5.4882814 1.717085,1.737396 3.001953,5.21289 3.001953,5.21289 2.661626,7.3972 9.360872,14.12198 9.392578,21.957032 0.01518,-0.250209 0.02128,-0.508266 0.0098,-0.78125 0.0953,-7.929677 -6.715772,-14.709255 -9.402344,-22.175782 0,0 -1.284868,-3.475494 -3.001953,-5.21289 -1.94741,-1.970444 -5.715131,-5.5531026 -8.859375,-5.6679689 z"
       id="path4" />
    <path
       style="opacity:0.2"
       d="m 34.002285,29.595566 c -0.105445,-3.309639 3.459576,-5.784578 6.408029,-7.2898 1.556154,-0.794435 3.522367,-0.0057 5.226786,-0.389532 1.294776,-0.291627 2.18516,-2.506251 3.714189,-1.734193 3.715723,1.876191 14.31248,12.734293 7.309048,20.929102 C 51.367947,44.3475 44.684705,46.126314 38.022261,39.466061 37.064404,38.50852 37.008774,36.36272 36.21646,34.468683 35.549424,32.87413 34.067564,31.644337 34.002285,29.595566 Z"
       id="path5" />
    <path
       style="fill:#3d59db;fill-opacity:1"
       d="m 34.002285,28.595566 c -0.105445,-3.309639 3.459576,-5.784578 6.408029,-7.2898 1.556154,-0.794435 3.522367,-0.0057 5.226786,-0.389532 1.294776,-0.291627 2.18516,-2.506251 3.714189,-1.734193 3.715723,1.876191 14.31248,12.734293 7.309048,20.929102 C 51.367947,43.3475 44.684705,45.126314 38.022261,38.466061 37.064404,37.50852 37.008774,35.36272 36.21646,33.468683 35.549424,31.87413 34.067564,30.644337 34.002285,28.595566 Z"
       id="path6" />
    <path
       style="opacity:0.1;fill:#ffffff"
       d="m 48.806641,19.023438 c -1.212457,-0.08934 -2.036993,1.637404 -3.169922,1.892578 -1.704419,0.383832 -3.670409,-0.40381 -5.226563,0.390625 -2.948453,1.505222 -6.513648,3.979423 -6.408203,7.289062 0.0035,0.109286 0.02591,0.207695 0.03711,0.3125 0.363709,-2.965904 3.630746,-5.202581 6.371094,-6.601562 1.556154,-0.794435 3.522144,-0.0068 5.226563,-0.390625 1.294776,-0.291627 2.185815,-2.506433 3.714843,-1.734375 2.764227,1.395748 9.331432,7.763664 9.632813,14.30664 0.382609,-6.882272 -6.727697,-13.839752 -9.632813,-15.30664 -0.191128,-0.09651 -0.371713,-0.145441 -0.544922,-0.158203 z"
       id="path7" />
    <path
       style="opacity:0.2"
       d="m 43.017814,33.106739 c 0.479277,-3.588959 5.249029,-5.858444 8.881951,-8.267903 1.476778,-1.380462 2.386189,-0.846073 3.879227,0.09256 4.336953,2.742922 5.754047,6.354545 5.0487,10.597629 -0.193032,2.055324 -0.806896,2.031649 -2.823275,2.362108 L 51.238415,39 c -5.041817,-0.283628 -8.518884,-3.659665 -8.220601,-5.893268 z"
       id="path8" />
    <path
       style="fill:#6591e4;fill-opacity:1"
       d="m 43.017814,32.106739 c 0.479277,-3.588959 5.249029,-5.858444 8.881951,-8.267903 1.476778,-1.380462 2.386189,-0.846073 3.879227,0.09256 4.336953,2.742922 5.754047,6.354545 5.0487,10.597629 -0.193032,2.055324 -0.806896,2.031649 -2.823275,2.362108 L 51.238415,38 c -5.041817,-0.283628 -8.518884,-3.659665 -8.220601,-5.893268 z"
       id="path9" />
    <path
       style="opacity:0.2;fill:#ffffff"
       d="m 53.382812,23.013672 c -0.454916,0.05878 -0.92863,0.306545 -1.482421,0.824219 -3.632922,2.409459 -8.403536,4.680572 -8.882813,8.269531 -0.03327,0.249112 -0.01266,0.513498 0.04492,0.785156 0.638723,-3.463639 5.279059,-5.694367 8.837891,-8.054687 1.476778,-1.380462 2.385868,-0.844883 3.878906,0.09375 3.458164,2.187128 5.05555,4.928111 5.205078,8.099609 0.162345,-3.597549 -1.388555,-6.685835 -5.205078,-9.099609 -0.933149,-0.586646 -1.63829,-1.01594 -2.396485,-0.917969 z"
       id="path10" />
    <path
       style="opacity:0.2"
       d="m 53.819702,28.887457 c 1.50694,-0.932497 5.60217,-4.160839 6.983158,-2.340388 1.126743,1.485303 -2.944043,5.471458 -2.944043,5.471458 -3.29786,2.994555 -6.377901,-1.683825 -4.039115,-3.13107 z"
       id="path11" />
    <path
       style="fill:#96bce8;fill-opacity:1"
       d="m 53.819702,27.887457 c 1.50694,-0.932497 5.60217,-4.160839 6.983158,-2.340388 1.126743,1.485303 -2.944043,5.471458 -2.944043,5.471458 -3.29786,2.994555 -6.377901,-1.683825 -4.039115,-3.13107 z"
       id="path12" />
    <path
       style="fill:#1a2432;fill-opacity:1"
       d="M 11.979647,20.061994 8.879,21.405825 l 5.730513,8.595522 1.484489,-0.830671 z"
       id="path13" />
    <path
       style="opacity:0.2"
       d="m 6.8809769,11.66056 c 1.0414499,-0.802749 2.1394681,-1.047323 3.3953601,0.265899 0.821102,0.858583 -0.34303,4.482267 0.36165,6.516796 0.50422,1.455772 2.741646,2.098343 2.306132,3.764596 -0.629478,2.408347 -2.968983,3.896256 -4.4463043,1.772652 C 5.92506,20.28225 2.9994393,16.49545 6.8809769,11.66056 Z"
       id="path14" />
    <path
       style="fill:#2d3c53;fill-opacity:1"
       d="m 6.8809769,10.66056 c 1.0414499,-0.8027484 2.1394681,-1.0473227 3.3953601,0.265899 0.821102,0.858583 -0.34303,4.482267 0.36165,6.516796 0.50422,1.455772 2.741646,2.098343 2.306132,3.764596 -0.629478,2.408347 -2.968983,3.896256 -4.4463043,1.772652 C 5.92506,19.28225 2.9994393,15.49545 6.8809769,10.66056 Z"
       id="path15" />
    <path
       style="fill:#1b2432;fill-opacity:1"
       d="M 24.427009,19.155306 19.869,20.108 c 0,0 2.091338,3.907823 2.425228,5.664966 0.554683,2.919109 -0.21651,6.727895 -0.21651,6.727895 l 1.609893,0.341914 c 0,0 0.87589,-3.946814 0.224013,-7.377424 -0.329047,-1.73166 0.515385,-6.310045 0.515385,-6.310045 z"
       id="path16" />
    <path
       style="opacity:0.2"
       d="m 20.08484,8.0423429 c 0.795665,-0.1039024 1.628542,-0.030932 2.532562,0.3801544 1.117245,0.4142336 0.811333,0.9293851 0.699663,1.8503657 -0.117489,0.990993 -0.192206,2.392344 0.06374,3.693517 0.198555,1.009386 0.763312,3.082601 1.191214,4.6067 0.446937,1.518085 0.870144,1.715028 -0.53227,2.225791 l -2.413781,0.879105 c -1.322219,0.708442 -1.519172,0.184627 -2.053449,-0.953073 -1.747345,-3.73861 -1.631403,-7.19608 -1.5136,-10.653272 -0.185143,-1.6109723 0.751545,-1.8536062 2.025917,-2.0292881 z"
       id="path17" />
    <path
       style="fill:#2d3c53;fill-opacity:1"
       d="m 20.08484,7.0423434 c 0.795665,-0.1039024 1.628542,-0.030932 2.532562,0.3801544 1.117245,0.4142336 0.811333,0.9293851 0.699663,1.8503655 -0.117489,0.9909927 -0.192206,2.3923437 0.06374,3.6935167 0.198555,1.009386 0.763312,3.082601 1.191214,4.6067 0.446937,1.518085 0.870144,1.715028 -0.53227,2.225791 l -2.413781,0.879105 c -1.322219,0.708442 -1.519172,0.184627 -2.053449,-0.953073 -1.747345,-3.73861 -1.631403,-7.19608 -1.5136,-10.6532712 -0.185143,-1.6109726 0.751545,-1.8536065 2.025917,-2.0292884 z"
       id="path18" />
    <path
       style="fill:#2e895d"
       d="m 14.708924,25.695652 c -0.405126,0.01113 -0.87062,0.159474 -1.642456,0.52174 a 0.70319534,0.69572175 0 0 1 -0.04669,0.02175 c -1.558199,0.597495 -3.2189343,0.991725 -4.6005242,1.527174 -1.38159,0.535449 -2.4322493,1.182908 -2.9635622,2.195652 -0.9087254,1.732138 -0.8863821,3.355747 -0.5218505,4.989132 0.3645315,1.633384 1.098913,3.233855 1.5600586,4.782608 0.372148,1.247359 0.5575995,1.98819 1.7468263,2.619565 a 0.70319534,0.69572175 0 0 1 0.1016241,0.06794 l 5.7897959,4.510871 a 0.70319534,0.69572175 0 0 1 0.263672,0.459239 c 0.105778,0.82586 0.195541,1.293693 0.354309,1.551629 0.158766,0.257939 0.431672,0.473499 1.233215,0.766306 a 0.70319534,0.69572175 0 0 1 0.06591,0.02717 l 10.758362,5.217391 c 5.830711,2.426083 10.031891,1.201402 12.70569,-0.546195 a 0.70319534,0.69572175 0 0 1 0.123596,-0.0625 c 4.279093,-1.713967 6.321588,-3.150745 7.330628,-4.342392 0.656599,-0.775428 0.894211,-1.476545 1.068419,-2.198369 -0.792187,0.340978 -1.73424,0.823112 -3.625488,1.20652 -1.275863,0.258651 -2.615713,0.384465 -3.815002,0.08967 -1.199289,-0.294792 -2.273477,-1.135453 -2.62848,-2.532611 a 0.70319534,0.69572175 0 0 1 -0.0083,-0.03804 L 36.579892,39.42936 c 0,0 0,-0.0028 0,-0.0028 -0.244769,-0.887298 -0.980461,-1.624826 -2.002259,-2.342392 -1.019415,-0.715894 -2.280544,-1.379118 -3.400268,-2.17663 L 24.280694,30.168427 19.990533,27.752667 16.310112,26.1331 C 15.555775,25.801617 15.116143,25.684524 14.70892,25.695655 Z"
       id="path19" />
    <path
       style="fill:#35ca58;fill-opacity:1"
       d="m 4.8321614,29.640428 c 1.2954452,-2.469271 4.9405296,-2.904385 7.9334136,-4.052011 1.6018,-0.751812 2.249455,-0.78473 3.830573,-0.08989 l 3.712568,1.631524 c 0,0 -6.887405,6.04463 -8.017288,10.171105 -0.905778,3.308017 1.40776,10.177578 1.40776,10.177578 L 7.9075395,42.968221 C 6.5145933,42.228689 6.1911464,41.180811 5.8178936,39.929749 4.9383147,36.97569 2.8394979,33.438677 4.8321614,29.640428 Z"
       id="path20" />
    <path
       style="fill:#2c8442;fill-opacity:1"
       d="m 12.291428,37.301155 c 1.129883,-4.126475 8.017288,-10.171104 8.017288,-10.171104 l 4.348391,2.448582 c 0,0 -2.356698,11.079595 -1.639993,16.591865 0.430809,3.313419 3.507599,9.422196 3.507599,9.422196 L 15.737851,50.36216 c -1.729036,-0.631538 -1.826301,-1.225414 -2.038663,-2.883426 0,0 -2.313538,-6.869561 -1.40776,-10.177579 z"
       id="path21" />
    <path
       style="fill:#38aa67;fill-opacity:1"
       d="m 23.017114,46.170498 c -0.716705,-5.51227 1.639993,-16.591865 1.639993,-16.591865 l 6.921697,4.758917 -0.317873,13.796945 c -0.09261,4.020443 5.250804,5.559112 8.640544,6.853892 -2.838932,1.85553 -7.346934,3.117338 -13.376762,0.604307 0,0 -3.07679,-6.108777 -3.507599,-9.422196 z"
       id="path22" />
    <path
       style="fill:#64cb8e;fill-opacity:1"
       d="m 31.579727,34.336709 -0.319084,13.798446 c -0.09261,4.020442 5.251404,5.559772 8.641145,6.85455 8.66484,-3.470653 8.582562,-5.887552 9.098212,-8.233837 0,0 -9.165285,4.311319 -10.351551,-0.357385 l -1.391323,-7.15051 c -0.620113,-2.254564 -3.546143,-3.390574 -5.677399,-4.911264 z"
       id="path23" />
    <path
       style="opacity:0.1;fill:#ffffff"
       d="m 14.689453,25.001953 c -0.559778,0.01535 -1.122928,0.210032 -1.923828,0.585938 -2.992884,1.147626 -6.6381485,1.583463 -7.9335938,4.052734 -0.6900411,1.315299 -0.8832969,2.598645 -0.8125,3.837891 0.065228,-0.925587 0.3064574,-1.873315 0.8125,-2.837891 1.2954453,-2.469271 4.9407098,-2.905108 7.9335938,-4.052734 0.8009,-0.375906 1.36405,-0.570588 1.923828,-0.585938 0.559779,-0.01535 1.115691,0.148674 1.90625,0.496094 l 3.712891,1.632812 4.347656,2.447266 6.898438,4.744141 0.02344,-0.984375 -6.921875,-4.759766 -4.347656,-2.447266 -3.712891,-1.632812 c -0.790559,-0.34742 -1.346471,-0.511445 -1.90625,-0.496094 z m 16.890625,9.333985 -0.02344,0.988281 0.02148,0.01367 -0.15625,6.818359 0.158203,-6.820312 c 2.131256,1.52069 5.057621,2.657545 5.677734,4.912109 l 1.390626,7.150391 c 1.137169,4.475477 9.412217,0.777304 10.111328,0.457031 0.08574,-0.370047 0.160456,-0.736606 0.240234,-1.09961 0,0 -9.165296,4.311283 -10.351562,-0.357421 l -1.390626,-7.150391 c -0.620113,-2.254564 -3.546478,-3.391419 -5.677734,-4.912109 z"
       id="path24" />
    <path
       style="opacity:0.2;fill:#ffffff"
       d="m 59.775391,25.007812 c -1.797585,-0.150607 -4.73069,2.121253 -5.955079,2.878907 -0.742394,0.459395 -0.935212,1.244081 -0.751953,2.005859 0.104666,-0.394372 0.341253,-0.751717 0.751953,-1.005859 1.506941,-0.932497 5.601434,-4.160295 6.982422,-2.339844 0.04671,0.06157 0.07206,0.133421 0.101563,0.203125 0.13396,-0.469681 0.133925,-0.892699 -0.101563,-1.203125 -0.258935,-0.341335 -0.612516,-0.504307 -1.027343,-0.539063 z"
       id="path25" />
    <path
       style="opacity:0.1"
       d="m 20.308594,27.130859 c 0,0 -6.887695,6.043447 -8.017578,10.169922 -0.905778,3.308018 1.408203,10.177735 1.408203,10.177735 0.04947,0.386227 0.09328,0.703615 0.152343,0.988281 a 1.0001,1.0001 0 0 0 0.794922,-1.306641 c 0,0 -0.561469,-1.670664 -1.013672,-3.742187 -0.452201,-2.071524 -0.726005,-4.578731 -0.376953,-5.853516 0.461105,-1.684013 2.382151,-4.235475 4.205079,-6.21875 1.822926,-1.983275 3.507812,-3.464844 3.507812,-3.464844 a 1.0001,1.0001 0 0 0 0.208984,-0.259765 z"
       id="path26" />
    <path
       style="opacity:0.1"
       d="m 24.65625,29.578125 c 0,0 -2.355377,11.079527 -1.638672,16.591797 0.430809,3.313419 3.507813,9.421875 3.507813,9.421875 0.316021,0.131707 0.624001,0.247947 0.93164,0.359375 a 1.0001,1.0001 0 0 0 -0.03906,-0.808594 c 0,0 -0.755236,-1.499457 -1.564453,-3.408203 -0.809217,-1.908746 -1.659413,-4.260573 -1.845704,-5.693359 -0.329238,-2.532212 0.0563,-6.666248 0.550782,-10.089844 0.43838,-3.035168 0.88671,-5.228045 0.996094,-5.75586 z"
       id="path27" />
    <path
       style="opacity:0.1"
       d="m 31.580078,34.335938 -0.320312,13.798828 c -0.09261,4.020442 5.252837,5.56069 8.642578,6.855468 0.327739,-0.131274 0.618658,-0.258406 0.921875,-0.386718 A 1.0001,1.0001 0 0 0 40.257812,54.054688 C 38.52267,53.391914 36.392336,52.688778 34.789062,51.726562 33.185789,50.764348 32.223725,49.72282 32.259766,48.158203 L 32.564453,34.96875 c -0.332638,-0.208697 -0.675664,-0.412542 -0.984375,-0.632812 z"
       id="path28" />
  </g>
</svg>
