<?xml version="1.0" encoding="UTF-8" standalone="no"?>
<svg
   clip-rule="evenodd"
   fill-rule="evenodd"
   stroke-linejoin="round"
   stroke-miterlimit="2"
   viewBox="0 0 62 62"
   version="1.1"
   id="svg3"
   sodipodi:docname="ollydbg.svg"
   width="62"
   height="62"
   inkscape:version="1.4 (unknown)"
   xmlns:inkscape="http://www.inkscape.org/namespaces/inkscape"
   xmlns:sodipodi="http://sodipodi.sourceforge.net/DTD/sodipodi-0.dtd"
   xmlns:xlink="http://www.w3.org/1999/xlink"
   xmlns="http://www.w3.org/2000/svg"
   xmlns:svg="http://www.w3.org/2000/svg">
  <defs
     id="defs3">
    <linearGradient
       id="linearGradient6">
      <stop
         offset="0"
         style="stop-color:#dbdbdb;stop-opacity:0;"
         id="stop5" />
      <stop
         offset="1"
         style="stop-color:#000000;stop-opacity:1;"
         id="stop6" />
    </linearGradient>
    <linearGradient
       id="linearGradient3"
       inkscape:collect="always">
      <stop
         style="stop-color:#334c66;stop-opacity:1;"
         offset="0"
         id="stop3" />
      <stop
         style="stop-color:#2d3c53;stop-opacity:1;"
         offset="1"
         id="stop4" />
    </linearGradient>
    <filter
       id="b-3-36"
       width="1.2393739"
       height="1.1966286"
       x="-0.11968695"
       y="-0.098314282"
       color-interpolation-filters="sRGB">
      <feGaussianBlur
         stdDeviation="1.147"
         id="feGaussianBlur7-6" />
    </filter>
    <filter
       id="b-3-36-6"
       width="1.2393739"
       height="1.1966286"
       x="-0.11968695"
       y="-0.098314282"
       color-interpolation-filters="sRGB">
      <feGaussianBlur
         stdDeviation="1.147"
         id="feGaussianBlur7-6-7" />
    </filter>
    <linearGradient
       inkscape:collect="always"
       xlink:href="#linearGradient3"
       id="linearGradient4"
       x1="31.996025"
       y1="5.0983038"
       x2="32.182014"
       y2="58.017544"
       gradientUnits="userSpaceOnUse" />
    <linearGradient
       id="linearGradient4306">
      <stop
         offset="0"
         style="stop-color:#000000;stop-opacity:0;"
         id="stop12" />
      <stop
         offset="1"
         style="stop-color:#000000;stop-opacity:1;"
         id="stop14" />
    </linearGradient>
    <radialGradient
       xlink:href="#linearGradient4324"
       id="radialGradient4340-3"
       cx="-12"
       cy="12"
       fx="-12"
       fy="12"
       r="4"
       gradientUnits="userSpaceOnUse"
       gradientTransform="matrix(1.235291,0,0,1.235291,-1.3530054,1.3530246)" />
    <linearGradient
       id="linearGradient4324">
      <stop
         style="stop-color:#eff1f1;stop-opacity:1"
         offset="0"
         id="stop7" />
      <stop
         style="stop-color:#ececec;stop-opacity:1;"
         offset="1"
         id="stop9" />
    </linearGradient>
    <linearGradient
       id="linearGradient4167">
      <stop
         style="stop-color:#ffffff;stop-opacity:0"
         offset="0"
         id="stop2-3" />
      <stop
         style="stop-color:#ffffff;stop-opacity:1"
         offset="1"
         id="stop4-6" />
    </linearGradient>
    <radialGradient
       xlink:href="#linearGradient4324"
       id="radialGradient4188-1"
       gradientUnits="userSpaceOnUse"
       cx="-12"
       cy="12"
       fx="-12"
       fy="12"
       r="4"
       gradientTransform="matrix(1.235291,0,0,1.235291,-16.176495,16.176515)" />
    <radialGradient
       xlink:href="#linearGradient4324"
       id="radialGradient4202-2"
       gradientUnits="userSpaceOnUse"
       cx="-12"
       cy="12"
       fx="-12"
       fy="12"
       r="4"
       gradientTransform="matrix(1.235291,0,0,1.235291,-30.999989,31.000009)" />
    <linearGradient
       xlink:href="#linearGradient4816"
       id="linearGradient4503-0-3"
       y1="37"
       y2="4"
       x2="0"
       gradientUnits="userSpaceOnUse"
       gradientTransform="matrix(1.0499998,0,0,1.0499998,9.2502391,54.800003)" />
    <linearGradient
       id="linearGradient4816">
      <stop
         style="stop-color:#da4453"
         id="stop1439" />
      <stop
         offset="1"
         style="stop-color:#ff7336"
         id="stop1441" />
    </linearGradient>
    <linearGradient
       id="linearGradient4279">
      <stop
         id="stop1432" />
      <stop
         offset="1"
         style="stop-opacity:0"
         id="stop1434" />
    </linearGradient>
    <linearGradient
       id="c"
       y1="513.38"
       x1="399.98999"
       y2="537.38"
       x2="424.98999"
       gradientUnits="userSpaceOnUse"
       gradientTransform="translate(-464.04842,-560.44526)">
      <stop
         stop-color="#292c2f"
         id="stop12-3" />
      <stop
         offset="1"
         stop-opacity="0"
         id="stop14-6" />
    </linearGradient>
    <linearGradient
       id="b"
       y1="35"
       x1="42"
       y2="12"
       x2="22"
       gradientUnits="userSpaceOnUse"
       gradientTransform="translate(-75.064419,-59.059262)">
      <stop
         stop-color="#197cf1"
         id="stop7-7" />
      <stop
         offset="1"
         stop-color="#20bcfa"
         id="stop9-5" />
    </linearGradient>
    <linearGradient
       id="a-3"
       y1="35"
       x1="23"
       y2="13"
       x2="5"
       gradientUnits="userSpaceOnUse"
       gradientTransform="translate(-79.064419,-59.059262)">
      <stop
         stop-color="#c61423"
         id="stop2-5" />
      <stop
         offset="1"
         stop-color="#dc2b41"
         id="stop4-62" />
    </linearGradient>
    <linearGradient
       id="paint162_linear_890_11"
       x1="670"
       y1="805"
       x2="665.008"
       y2="808.45599"
       gradientUnits="userSpaceOnUse">
      <stop
         stop-color="#EFF2F6"
         id="stop1066" />
      <stop
         offset="0.615963"
         stop-color="#B7C6CD"
         id="stop1067" />
    </linearGradient>
    <linearGradient
       id="paint163_linear_890_11"
       x1="667.992"
       y1="802.76001"
       x2="673.04303"
       y2="799.547"
       gradientUnits="userSpaceOnUse">
      <stop
         offset="0.297611"
         stop-color="#2E2E41"
         id="stop1068" />
      <stop
         offset="0.95404"
         stop-color="#566C80"
         id="stop1069" />
    </linearGradient>
    <linearGradient
       id="paint164_linear_890_11"
       x1="696.5"
       y1="803.5"
       x2="701.99103"
       y2="806.89801"
       gradientUnits="userSpaceOnUse">
      <stop
         stop-color="#EFF2F6"
         id="stop1070" />
      <stop
         offset="0.674161"
         stop-color="#B7C6CD"
         id="stop1071" />
    </linearGradient>
    <linearGradient
       id="paint165_linear_890_11"
       x1="697.90601"
       y1="802.76001"
       x2="692.85498"
       y2="799.547"
       gradientUnits="userSpaceOnUse">
      <stop
         offset="0.288758"
         stop-color="#2E2E41"
         id="stop1072" />
      <stop
         offset="0.753525"
         stop-color="#566C80"
         id="stop1073" />
    </linearGradient>
    <radialGradient
       id="paint166_radial_890_11"
       cx="0"
       cy="0"
       r="1"
       gradientUnits="userSpaceOnUse"
       gradientTransform="matrix(43.000016,21.500054,-14.388675,28.777288,683,775)">
      <stop
         offset="0.304344"
         stop-color="#B7C6CD"
         id="stop1074" />
      <stop
         offset="0.556956"
         stop-color="#EFF2F6"
         id="stop1075" />
    </radialGradient>
    <linearGradient
       id="paint167_linear_890_11"
       x1="660"
       y1="792"
       x2="662"
       y2="792.00098"
       gradientUnits="userSpaceOnUse">
      <stop
         stop-color="#EFF2F6"
         id="stop1076" />
      <stop
         offset="0.688449"
         stop-color="#B7C6CD"
         id="stop1077" />
    </linearGradient>
    <linearGradient
       id="paint168_linear_890_11"
       x1="704"
       y1="792"
       x2="706"
       y2="792.00098"
       gradientUnits="userSpaceOnUse">
      <stop
         stop-color="#EFF2F6"
         id="stop1078" />
      <stop
         offset="0.761422"
         stop-color="#B7C6CD"
         id="stop1079" />
    </linearGradient>
    <linearGradient
       id="paint169_linear_890_11"
       x1="703"
       y1="786"
       x2="707"
       y2="790"
       gradientUnits="userSpaceOnUse">
      <stop
         stop-color="#EFF2F6"
         id="stop1080" />
      <stop
         offset="0.585029"
         stop-color="#B7C6CD"
         id="stop1081" />
    </linearGradient>
    <linearGradient
       id="paint170_linear_890_11"
       x1="659"
       y1="786"
       x2="663"
       y2="790"
       gradientUnits="userSpaceOnUse">
      <stop
         stop-color="#EFF2F6"
         id="stop1082" />
      <stop
         offset="1"
         stop-color="#B7C6CD"
         id="stop1083" />
    </linearGradient>
  </defs>
  <sodipodi:namedview
     id="namedview3"
     pagecolor="#ffffff"
     bordercolor="#000000"
     borderopacity="0.25"
     inkscape:showpageshadow="2"
     inkscape:pageopacity="0.0"
     inkscape:pagecheckerboard="0"
     inkscape:deskcolor="#d1d1d1"
     inkscape:zoom="11.019081"
     inkscape:cx="24.003817"
     inkscape:cy="27.633883"
     inkscape:window-width="1920"
     inkscape:window-height="996"
     inkscape:window-x="0"
     inkscape:window-y="0"
     inkscape:window-maximized="1"
     inkscape:current-layer="svg3" />
  <linearGradient
     id="a"
     x2="1"
     gradientTransform="matrix(0,-43.53155,43.53155,0,1192.407,51.589413)"
     gradientUnits="userSpaceOnUse">
    <stop
       stop-color="#161616"
       offset="0"
       id="stop1" />
    <stop
       stop-color="#343434"
       offset="1"
       id="stop2" />
  </linearGradient>
  <g
     id="g3"
     transform="translate(3.487626,-1.843205)" />
  <rect
     style="opacity:0.2;stroke-width:0.9823"
     width="55"
     height="55.017544"
     x="3.5"
     y="3.9824562"
     rx="8.25"
     ry="8.2526312"
     id="rect1-3" />
  <rect
     style="fill:url(#linearGradient4);stroke-width:0.9823"
     width="55"
     height="55.017544"
     x="3.5"
     y="3"
     rx="8.25"
     ry="8.2526312"
     id="rect2-5" />
  <path
     style="opacity:0.1;fill:#ffffff;stroke-width:0.9823"
     d="M 11.748466,3 C 7.1779651,3 3.4999999,6.6791384 3.4999999,11.251097 v 0.982456 c 0,-4.5719585 3.6779652,-8.2510968 8.2484661,-8.2510968 h 38.503068 c 4.5705,0 8.248466,3.6791383 8.248466,8.2510968 V 11.251097 C 58.5,6.6791384 54.822034,3 50.251534,3 Z"
     id="path4-6" />
  <g
     id="g1"
     transform="translate(3.0600949,5)">
    <path
       d="m 6.957762,4.8301886 v 2.4905652 l 3.357131,1.6603772 v 4.981129 h 5.875012 V 8.981131 L 11.154197,4.8301886 Z m 20.982143,1.660377 V 17.283014 l -2.517866,3.320758 -4.196426,-4.150946 h -5.035708 l 4.196429,4.150946 -4.196429,9.132068 -11.7499997,2.490576 v 7.471698 h 6.7142917 l 7.553574,-7.471698 h 2.517842 l 2.517869,1.660364 v 2.490576 l -2.517869,2.490576 v 6.641492 L 25.422039,48 v -2.490576 h 2.517866 V 36.377356 L 30.457747,33.88678 39.689905,48 h 6.714271 V 41.358484 L 34.654175,31.396228 v -4.15094 C 42.207747,24.754712 47.24348,24.754712 47.24348,24.754712 l 4.196425,-1.660368 v -2.490572 h -9.232158 c -2.517842,2.490572 -6.714267,2.490572 -6.714267,2.490572 L 32.975613,20.603772 V 6.4905656 Z"
       style="opacity:0.2;stroke-width:0.834716"
       id="path1" />
    <path
       d="m 6.957762,4 v 2.4905656 l 3.357131,1.6603768 v 4.9811256 h 5.875012 V 8.1509424 L 11.154197,4 Z M 27.939905,5.6603772 V 16.452826 l -2.517866,3.320758 -4.196426,-4.15094 h -5.035708 l 4.196429,4.15094 -4.196429,9.132072 -11.7499997,2.490572 v 7.471704 h 6.7142917 l 7.553574,-7.471704 h 2.517842 l 2.517869,1.66037 v 2.490576 l -2.517869,2.490566 v 6.641502 l 4.196426,2.490576 v -2.490576 h 2.517866 v -9.132068 l 2.517842,-2.490576 9.232158,14.11322 h 6.714271 v -6.64152 L 34.654175,30.566046 v -4.15094 C 42.207747,23.92453 47.24348,23.92453 47.24348,23.92453 l 4.196425,-1.66037 V 19.773584 H 42.207747 C 39.689905,22.26416 35.49348,22.26416 35.49348,22.26416 L 32.975613,19.773584 V 5.6603772 Z"
       style="fill:#c83771;stroke-width:0.834716"
       id="path2" />
    <path
       d="m 6.957762,4 v 0.8301886 h 4.196435 L 16.189905,8.981131 V 8.1509424 L 11.154197,4 Z m 20.982143,1.6603772 v 0.8301884 h 5.035708 V 5.6603772 Z m -11.75,9.9622668 0.83928,0.830182 h 4.196428 l 4.196426,4.150946 2.517866,-3.320758 v -0.830188 l -2.517866,3.320758 -4.196426,-4.15094 z m 16.785708,4.15094 v 0.830188 l 2.517867,2.490572 c 0,0 4.196425,0 6.714267,-2.490572 h 9.232158 V 19.773584 H 42.207747 C 39.689905,22.26416 35.49348,22.26416 35.49348,22.26416 Z m -12.851546,0.57076 -3.934162,8.561312 -11.7499997,2.490572 v 0.830188 L 16.189905,29.73584 20.386334,20.603772 Z m 14.530108,10.221702 v 0.830182 l 11.750001,9.962256 v -0.830186 z m -10.910693,4.981128 -2.517869,2.490566 v 0.830192 l 2.517869,-2.490576 z"
       style="opacity:0.2;fill:#ffffff;stroke-width:0.834716"
       id="path3" />
  </g>
</svg>
