<?xml version="1.0" encoding="UTF-8" standalone="no"?>
<svg
   clip-rule="evenodd"
   fill-rule="evenodd"
   stroke-linejoin="round"
   stroke-miterlimit="2"
   viewBox="0 0 62 62"
   version="1.1"
   id="svg3"
   sodipodi:docname="olympus.svg"
   width="62"
   height="62"
   inkscape:version="1.4 (unknown)"
   xmlns:inkscape="http://www.inkscape.org/namespaces/inkscape"
   xmlns:sodipodi="http://sodipodi.sourceforge.net/DTD/sodipodi-0.dtd"
   xmlns:xlink="http://www.w3.org/1999/xlink"
   xmlns="http://www.w3.org/2000/svg"
   xmlns:svg="http://www.w3.org/2000/svg">
  <defs
     id="defs3">
    <linearGradient
       id="linearGradient6">
      <stop
         offset="0"
         style="stop-color:#dbdbdb;stop-opacity:0;"
         id="stop5" />
      <stop
         offset="1"
         style="stop-color:#000000;stop-opacity:1;"
         id="stop6" />
    </linearGradient>
    <linearGradient
       id="linearGradient3"
       inkscape:collect="always">
      <stop
         style="stop-color:#3b2d4a;stop-opacity:1;"
         offset="0"
         id="stop3" />
      <stop
         style="stop-color:#2d3c53;stop-opacity:1;"
         offset="1"
         id="stop4" />
    </linearGradient>
    <filter
       id="b-3-36"
       width="1.2393739"
       height="1.1966286"
       x="-0.11968695"
       y="-0.098314282"
       color-interpolation-filters="sRGB">
      <feGaussianBlur
         stdDeviation="1.147"
         id="feGaussianBlur7-6" />
    </filter>
    <filter
       id="b-3-36-6"
       width="1.2393739"
       height="1.1966286"
       x="-0.11968695"
       y="-0.098314282"
       color-interpolation-filters="sRGB">
      <feGaussianBlur
         stdDeviation="1.147"
         id="feGaussianBlur7-6-7" />
    </filter>
    <linearGradient
       inkscape:collect="always"
       xlink:href="#linearGradient3"
       id="linearGradient4"
       x1="31.996025"
       y1="5.0983038"
       x2="32.182014"
       y2="58.017544"
       gradientUnits="userSpaceOnUse" />
    <linearGradient
       id="linearGradient4306">
      <stop
         offset="0"
         style="stop-color:#000000;stop-opacity:0;"
         id="stop12" />
      <stop
         offset="1"
         style="stop-color:#000000;stop-opacity:1;"
         id="stop14" />
    </linearGradient>
    <radialGradient
       xlink:href="#linearGradient4324"
       id="radialGradient4340-3"
       cx="-12"
       cy="12"
       fx="-12"
       fy="12"
       r="4"
       gradientUnits="userSpaceOnUse"
       gradientTransform="matrix(1.235291,0,0,1.235291,-1.3530054,1.3530246)" />
    <linearGradient
       id="linearGradient4324">
      <stop
         style="stop-color:#eff1f1;stop-opacity:1"
         offset="0"
         id="stop7" />
      <stop
         style="stop-color:#ececec;stop-opacity:1;"
         offset="1"
         id="stop9" />
    </linearGradient>
    <linearGradient
       id="linearGradient4167">
      <stop
         style="stop-color:#ffffff;stop-opacity:0"
         offset="0"
         id="stop2-3" />
      <stop
         style="stop-color:#ffffff;stop-opacity:1"
         offset="1"
         id="stop4-6" />
    </linearGradient>
    <radialGradient
       xlink:href="#linearGradient4324"
       id="radialGradient4188-1"
       gradientUnits="userSpaceOnUse"
       cx="-12"
       cy="12"
       fx="-12"
       fy="12"
       r="4"
       gradientTransform="matrix(1.235291,0,0,1.235291,-16.176495,16.176515)" />
    <radialGradient
       xlink:href="#linearGradient4324"
       id="radialGradient4202-2"
       gradientUnits="userSpaceOnUse"
       cx="-12"
       cy="12"
       fx="-12"
       fy="12"
       r="4"
       gradientTransform="matrix(1.235291,0,0,1.235291,-30.999989,31.000009)" />
    <linearGradient
       xlink:href="#linearGradient4816"
       id="linearGradient4503-0-3"
       y1="37"
       y2="4"
       x2="0"
       gradientUnits="userSpaceOnUse"
       gradientTransform="matrix(1.0499998,0,0,1.0499998,9.2502391,54.800003)" />
    <linearGradient
       id="linearGradient4816">
      <stop
         style="stop-color:#da4453"
         id="stop1439" />
      <stop
         offset="1"
         style="stop-color:#ff7336"
         id="stop1441" />
    </linearGradient>
    <linearGradient
       id="linearGradient4279">
      <stop
         id="stop1432" />
      <stop
         offset="1"
         style="stop-opacity:0"
         id="stop1434" />
    </linearGradient>
    <linearGradient
       id="c"
       y1="513.38"
       x1="399.98999"
       y2="537.38"
       x2="424.98999"
       gradientUnits="userSpaceOnUse"
       gradientTransform="translate(-464.04842,-560.44526)">
      <stop
         stop-color="#292c2f"
         id="stop12-3" />
      <stop
         offset="1"
         stop-opacity="0"
         id="stop14-6" />
    </linearGradient>
    <linearGradient
       id="b"
       y1="35"
       x1="42"
       y2="12"
       x2="22"
       gradientUnits="userSpaceOnUse"
       gradientTransform="translate(-75.064419,-59.059262)">
      <stop
         stop-color="#197cf1"
         id="stop7-7" />
      <stop
         offset="1"
         stop-color="#20bcfa"
         id="stop9-5" />
    </linearGradient>
    <linearGradient
       id="a-3"
       y1="35"
       x1="23"
       y2="13"
       x2="5"
       gradientUnits="userSpaceOnUse"
       gradientTransform="translate(-79.064419,-59.059262)">
      <stop
         stop-color="#c61423"
         id="stop2-5" />
      <stop
         offset="1"
         stop-color="#dc2b41"
         id="stop4-62" />
    </linearGradient>
    <linearGradient
       id="paint162_linear_890_11"
       x1="670"
       y1="805"
       x2="665.008"
       y2="808.45599"
       gradientUnits="userSpaceOnUse">
      <stop
         stop-color="#EFF2F6"
         id="stop1066" />
      <stop
         offset="0.615963"
         stop-color="#B7C6CD"
         id="stop1067" />
    </linearGradient>
    <linearGradient
       id="paint163_linear_890_11"
       x1="667.992"
       y1="802.76001"
       x2="673.04303"
       y2="799.547"
       gradientUnits="userSpaceOnUse">
      <stop
         offset="0.297611"
         stop-color="#2E2E41"
         id="stop1068" />
      <stop
         offset="0.95404"
         stop-color="#566C80"
         id="stop1069" />
    </linearGradient>
    <linearGradient
       id="paint164_linear_890_11"
       x1="696.5"
       y1="803.5"
       x2="701.99103"
       y2="806.89801"
       gradientUnits="userSpaceOnUse">
      <stop
         stop-color="#EFF2F6"
         id="stop1070" />
      <stop
         offset="0.674161"
         stop-color="#B7C6CD"
         id="stop1071" />
    </linearGradient>
    <linearGradient
       id="paint165_linear_890_11"
       x1="697.90601"
       y1="802.76001"
       x2="692.85498"
       y2="799.547"
       gradientUnits="userSpaceOnUse">
      <stop
         offset="0.288758"
         stop-color="#2E2E41"
         id="stop1072" />
      <stop
         offset="0.753525"
         stop-color="#566C80"
         id="stop1073" />
    </linearGradient>
    <radialGradient
       id="paint166_radial_890_11"
       cx="0"
       cy="0"
       r="1"
       gradientUnits="userSpaceOnUse"
       gradientTransform="matrix(43.000016,21.500054,-14.388675,28.777288,683,775)">
      <stop
         offset="0.304344"
         stop-color="#B7C6CD"
         id="stop1074" />
      <stop
         offset="0.556956"
         stop-color="#EFF2F6"
         id="stop1075" />
    </radialGradient>
    <linearGradient
       id="paint167_linear_890_11"
       x1="660"
       y1="792"
       x2="662"
       y2="792.00098"
       gradientUnits="userSpaceOnUse">
      <stop
         stop-color="#EFF2F6"
         id="stop1076" />
      <stop
         offset="0.688449"
         stop-color="#B7C6CD"
         id="stop1077" />
    </linearGradient>
    <linearGradient
       id="paint168_linear_890_11"
       x1="704"
       y1="792"
       x2="706"
       y2="792.00098"
       gradientUnits="userSpaceOnUse">
      <stop
         stop-color="#EFF2F6"
         id="stop1078" />
      <stop
         offset="0.761422"
         stop-color="#B7C6CD"
         id="stop1079" />
    </linearGradient>
    <linearGradient
       id="paint169_linear_890_11"
       x1="703"
       y1="786"
       x2="707"
       y2="790"
       gradientUnits="userSpaceOnUse">
      <stop
         stop-color="#EFF2F6"
         id="stop1080" />
      <stop
         offset="0.585029"
         stop-color="#B7C6CD"
         id="stop1081" />
    </linearGradient>
    <linearGradient
       id="paint170_linear_890_11"
       x1="659"
       y1="786"
       x2="663"
       y2="790"
       gradientUnits="userSpaceOnUse">
      <stop
         stop-color="#EFF2F6"
         id="stop1082" />
      <stop
         offset="1"
         stop-color="#B7C6CD"
         id="stop1083" />
    </linearGradient>
  </defs>
  <sodipodi:namedview
     id="namedview3"
     pagecolor="#ffffff"
     bordercolor="#000000"
     borderopacity="0.25"
     inkscape:showpageshadow="2"
     inkscape:pageopacity="0.0"
     inkscape:pagecheckerboard="0"
     inkscape:deskcolor="#d1d1d1"
     inkscape:zoom="11.019081"
     inkscape:cx="24.003817"
     inkscape:cy="34.894017"
     inkscape:window-width="1920"
     inkscape:window-height="996"
     inkscape:window-x="0"
     inkscape:window-y="0"
     inkscape:window-maximized="1"
     inkscape:current-layer="svg3" />
  <linearGradient
     id="a"
     x2="1"
     gradientTransform="matrix(0,-43.53155,43.53155,0,1192.407,51.589413)"
     gradientUnits="userSpaceOnUse">
    <stop
       stop-color="#161616"
       offset="0"
       id="stop1" />
    <stop
       stop-color="#343434"
       offset="1"
       id="stop2" />
  </linearGradient>
  <g
     id="g3"
     transform="translate(3.487626,-1.843205)" />
  <rect
     style="opacity:0.2;stroke-width:0.9823"
     width="55"
     height="55.017544"
     x="3.5"
     y="3.9824562"
     rx="8.25"
     ry="8.2526312"
     id="rect1-3" />
  <rect
     style="fill:url(#linearGradient4);stroke-width:0.9823"
     width="55"
     height="55.017544"
     x="3.5"
     y="3"
     rx="8.25"
     ry="8.2526312"
     id="rect2-5" />
  <path
     style="opacity:0.1;fill:#ffffff;stroke-width:0.9823"
     d="M 11.748466,3 C 7.1779651,3 3.4999999,6.6791384 3.4999999,11.251097 v 0.982456 c 0,-4.5719585 3.6779652,-8.2510968 8.2484661,-8.2510968 h 38.503068 c 4.5705,0 8.248466,3.6791383 8.248466,8.2510968 V 11.251097 C 58.5,6.6791384 54.822034,3 50.251534,3 Z"
     id="path4-6" />
  <path
     d="m 30.767125,17.009891 c -0.429178,-0.03738 -0.79883,0.859747 -1.713966,2.94198 -0.658995,1.500764 -1.499372,3.573304 -1.869021,4.601964 l -0.670083,1.866253 -1.374764,1.719499 c -0.75592,0.945587 -2.067009,2.701087 -2.908763,3.898652 -0.841752,1.197558 -1.540908,2.192989 -1.556132,2.212372 -0.01381,0.01936 -0.179986,-0.116294 -0.365503,-0.301815 -0.268589,-0.268588 -0.394568,-0.33919 -0.618856,-0.33919 -0.361341,0 -0.419493,0.07202 -1.024498,1.270936 l -0.498407,0.992656 -0.427803,-0.491484 C 17.3323,34.915151 17.293534,34.893 16.98342,34.915151 l -0.325349,0.02357 -3.184269,3.873728 c -1.820568,2.212371 -3.252105,4.021865 -3.342096,4.226767 -0.2201261,0.499791 -0.1786011,0.643775 0.24228,0.81683 0.340586,0.141216 1.232178,0.14814 20.962156,0.152294 14.395646,0.0042 20.622959,-0.02212 20.658962,-0.08168 0.02767,-0.04705 -0.07886,-0.391802 -0.238128,-0.769764 -0.265822,-0.63408 -0.462414,-0.897134 -2.539105,-3.386392 -1.701506,-2.039314 -2.439426,-2.990444 -3.008444,-3.884803 -0.415335,-0.652085 -0.848671,-1.287553 -0.960812,-1.409383 -0.312891,-0.340584 -0.62163,-0.303198 -1.09927,0.134312 l -0.393183,0.361336 -1.115881,-1.14633 -1.115877,-1.142187 -1.587975,-2.745389 c -0.872217,-1.50768 -1.654439,-2.809077 -1.7375,-2.893526 -0.232596,-0.238127 -0.566252,-0.192438 -0.96082,0.128788 -0.189666,0.155065 -0.454107,0.359966 -0.588395,0.454103 l -0.246437,0.168894 -0.670083,-0.945586 -0.674231,-0.942822 -0.80852,-2.701085 c -0.444415,-1.486922 -0.872219,-2.774475 -0.949746,-2.86308 -0.07612,-0.08863 -0.587012,-0.837603 -1.136646,-1.664129 -0.692233,-1.043886 -1.063268,-1.639207 -1.396926,-1.669668 z m 0.267205,11.999137 c 0.43472,0.0016 0.873601,0.01805 1.024507,0.054 0.02212,0.0042 0.03738,0.0078 0.04705,0.01381 0.08168,0.05125 0.121817,0.250588 0.141214,0.679768 l 0.02913,0.603629 0.515015,0.202135 c 0.285197,0.110747 0.553784,0.199359 0.592552,0.199359 0.03738,0 0.221512,-0.150908 0.407028,-0.340574 0.444413,-0.451339 0.679775,-0.461031 1.189257,-0.04018 0.40011,0.330881 0.838981,0.847291 0.910977,1.074345 0.05953,0.188282 -0.06781,0.422259 -0.433338,0.802986 l -0.299048,0.314275 0.18691,0.415334 c 0.101003,0.228437 0.203509,0.470724 0.225661,0.538561 0.03317,0.09968 0.171675,0.132885 0.663163,0.155055 0.443022,0.02082 0.639618,0.05951 0.690843,0.141217 0.04018,0.0623 0.07337,0.546868 0.07337,1.072959 0,0.524719 -0.03317,1.002356 -0.07337,1.066037 -0.05125,0.08032 -0.250586,0.123255 -0.685307,0.142607 l -0.611929,0.03043 -0.117733,0.354427 c -0.06651,0.195211 -0.167526,0.436104 -0.22567,0.541328 -0.101042,0.181366 -0.08996,0.215976 0.304581,0.629927 0.5524,0.578703 0.548249,0.728226 -0.06094,1.453687 -0.369652,0.438878 -0.808522,0.748993 -1.05496,0.748993 -0.121817,0 -0.330887,-0.145364 -0.616088,-0.427793 l -0.433338,-0.427816 -0.292125,0.149524 c -0.163361,0.08308 -0.423642,0.19106 -0.577315,0.240894 l -0.281047,0.08995 -0.02632,0.689465 c -0.01936,0.505329 -0.05675,0.70469 -0.141216,0.758682 -0.0623,0.04019 -0.546868,0.07337 -1.071575,0.07337 -0.526098,0 -1.003739,-0.03317 -1.067423,-0.07337 -0.08442,-0.054 -0.123255,-0.254739 -0.1426,-0.768376 -0.02212,-0.562094 -0.05125,-0.703309 -0.152292,-0.737919 -0.06926,-0.02357 -0.312888,-0.127355 -0.539938,-0.228435 l -0.412558,-0.178578 -0.430566,0.409798 c -0.236745,0.22705 -0.503947,0.434722 -0.595321,0.463794 -0.279662,0.08863 -0.818217,-0.282427 -1.355388,-0.938661 -0.411187,-0.499794 -0.376576,-0.713 0.184134,-1.268167 l 0.454092,-0.451342 -0.137072,-0.271353 c -0.07611,-0.152281 -0.18273,-0.404249 -0.232568,-0.556543 l -0.08717,-0.279661 -0.688084,-0.02632 c -0.506707,-0.01936 -0.708841,-0.05541 -0.762837,-0.139829 -0.03874,-0.06375 -0.06926,-0.5441 -0.06926,-1.068808 0,-0.526094 0.03317,-1.01204 0.07337,-1.075726 0.05259,-0.08442 0.25336,-0.117733 0.766994,-0.13845 0.563477,-0.02082 0.700538,-0.04979 0.735154,-0.15229 0.02357,-0.06927 0.130119,-0.315657 0.2312,-0.544092 l 0.181351,-0.416711 -0.42088,-0.427801 c -0.278278,-0.281049 -0.422259,-0.4901 -0.422259,-0.611932 0,-0.246438 0.30735,-0.682539 0.74761,-1.050809 0.72546,-0.611936 0.874983,-0.617471 1.460612,-0.05956 0.243662,0.231211 0.462405,0.402879 0.487328,0.377959 0.02357,-0.02357 0.240897,-0.126029 0.485945,-0.22567 l 0.445799,-0.181358 0.04294,-0.621631 c 0.02913,-0.425026 0.07611,-0.639622 0.152294,-0.688072 0.07337,-0.04569 0.569016,-0.07061 1.067422,-0.07061 z m -0.03599,4.500889 c -0.822376,0 -1.499373,0.677009 -1.499373,1.49938 0,0.822374 0.676997,1.499372 1.499373,1.499372 0.823754,0 1.500752,-0.676998 1.500752,-1.499372 0,-0.822371 -0.676998,-1.49938 -1.500752,-1.49938 z"
     fill="#ffffff"
     fill-rule="nonzero"
     id="path3-6"
     style="stroke-width:1.38447" />
</svg>
