<?xml version="1.0" encoding="UTF-8" standalone="no"?>
<svg
   width="62"
   height="62"
   version="1"
   id="svg7"
   sodipodi:docname="Onivim2.svg"
   inkscape:version="1.4 (unknown)"
   xmlns:inkscape="http://www.inkscape.org/namespaces/inkscape"
   xmlns:sodipodi="http://sodipodi.sourceforge.net/DTD/sodipodi-0.dtd"
   xmlns:xlink="http://www.w3.org/1999/xlink"
   xmlns="http://www.w3.org/2000/svg"
   xmlns:svg="http://www.w3.org/2000/svg">
  <defs
     id="defs7">
    <linearGradient
       id="linearGradient2"
       inkscape:collect="always">
      <stop
         style="stop-color:#4a417d;stop-opacity:1;"
         offset="0"
         id="stop12" />
      <stop
         style="stop-color:#4d4482;stop-opacity:1;"
         offset="1"
         id="stop13" />
    </linearGradient>
    <linearGradient
       id="linearGradient7"
       inkscape:collect="always">
      <stop
         style="stop-color:#38315e;stop-opacity:1;"
         offset="0"
         id="stop8" />
      <stop
         style="stop-color:#38315e;stop-opacity:1;"
         offset="0.59162253"
         id="stop10" />
      <stop
         style="stop-color:#eff2f6;stop-opacity:1;"
         offset="0.92173076"
         id="stop11" />
      <stop
         style="stop-color:#eff2f6;stop-opacity:1;"
         offset="1"
         id="stop9" />
    </linearGradient>
    <linearGradient
       id="linearGradient1"
       inkscape:collect="always">
      <stop
         style="stop-color:#566c80;stop-opacity:1;"
         offset="0"
         id="stop5" />
      <stop
         style="stop-color:#566c80;stop-opacity:1;"
         offset="0.28848785"
         id="stop7" />
      <stop
         style="stop-color:#495361;stop-opacity:1;"
         offset="1"
         id="stop6" />
    </linearGradient>
    <linearGradient
       id="c-3"
       gradientUnits="userSpaceOnUse"
       x1="24.072048"
       x2="23.959682"
       y1="0.75082099"
       y2="46.056854">
      <stop
         offset="0"
         stop-color="#fff"
         id="stop3" />
      <stop
         offset="1"
         stop-color="#d9d9d9"
         id="stop4" />
    </linearGradient>
    <linearGradient
       id="b-6"
       gradientUnits="userSpaceOnUse"
       x1="29.203026"
       x2="34.121048"
       xlink:href="#a-7"
       y1="24.827356"
       y2="29.224836" />
    <linearGradient
       id="a-7">
      <stop
         offset="0"
         id="stop1" />
      <stop
         offset="1"
         stop-opacity="0"
         id="stop2" />
    </linearGradient>
    <linearGradient
       id="d"
       gradientUnits="userSpaceOnUse"
       x1="15.948756"
       x2="25.031786"
       xlink:href="#a-7"
       y1="23.618279"
       y2="33.69899" />
    <linearGradient
       id="e"
       gradientUnits="userSpaceOnUse"
       x1="21.990562"
       x2="29.320522"
       xlink:href="#a-7"
       y1="33.780373"
       y2="41.931858" />
    <linearGradient
       id="paint154_linear_890_11"
       x1="778"
       y1="812.29199"
       x2="788"
       y2="812.29199"
       gradientUnits="userSpaceOnUse"
       gradientTransform="translate(-751,-696)">
      <stop
         stop-color="#EFF2F6"
         id="stop1050" />
      <stop
         offset="0.600785"
         stop-color="#B7C6CD"
         id="stop1051" />
    </linearGradient>
    <linearGradient
       id="paint155_linear_890_11"
       x1="783"
       y1="813"
       x2="783"
       y2="817"
       gradientUnits="userSpaceOnUse"
       gradientTransform="translate(-751,-696)">
      <stop
         stop-color="#EFF2F6"
         id="stop1052" />
      <stop
         offset="0.734138"
         stop-color="#B7C6CD"
         id="stop1053" />
    </linearGradient>
    <radialGradient
       id="paint156_radial_890_11"
       cx="0"
       cy="0"
       r="1"
       gradientUnits="userSpaceOnUse"
       gradientTransform="matrix(27.999986,27.999976,-27.999986,27.999976,32.302392,33.999998)">
      <stop
         offset="0.60067803"
         stop-color="#B7C6CD"
         id="stop1054"
         style="stop-color:#384850;stop-opacity:1;" />
      <stop
         offset="0.876735"
         stop-color="#EFF2F6"
         id="stop1055" />
    </radialGradient>
    <linearGradient
       id="paint157_linear_890_11"
       x1="796.84485"
       y1="799.43359"
       x2="768.90088"
       y2="770.81476"
       gradientUnits="userSpaceOnUse"
       gradientTransform="matrix(1.1666666,0,0,1.1666668,-881.19764,-881.8333)">
      <stop
         offset="0.00000057"
         stop-color="#2E2E41"
         id="stop1056"
         style="stop-color:#495361;stop-opacity:1;" />
      <stop
         offset="0.711139"
         stop-color="#566C80"
         id="stop1057" />
    </linearGradient>
    <linearGradient
       id="paint158_linear_890_11"
       x1="792"
       y1="794"
       x2="774"
       y2="776"
       gradientUnits="userSpaceOnUse"
       gradientTransform="translate(-751,-696)">
      <stop
         offset="0.304478"
         stop-color="#2E2E41"
         id="stop1058" />
      <stop
         offset="1"
         stop-color="#566C80"
         id="stop1059" />
    </linearGradient>
    <linearGradient
       id="paint159_linear_890_11"
       x1="788"
       y1="790"
       x2="778"
       y2="780"
       gradientUnits="userSpaceOnUse"
       gradientTransform="translate(-751,-696)">
      <stop
         offset="0.391394"
         stop-color="#5200FF"
         id="stop1060" />
      <stop
         offset="1"
         stop-color="#0085FF"
         id="stop1061" />
    </linearGradient>
    <linearGradient
       id="paint160_linear_890_11"
       x1="784"
       y1="798"
       x2="782"
       y2="796"
       gradientUnits="userSpaceOnUse"
       gradientTransform="translate(-751,-696)">
      <stop
         stop-color="#FF7E07"
         id="stop1062" />
      <stop
         offset="1"
         stop-color="#FFE607"
         id="stop1063" />
    </linearGradient>
    <linearGradient
       inkscape:collect="always"
       xlink:href="#linearGradient1"
       id="linearGradient6"
       x1="17.408081"
       y1="16.037786"
       x2="49.155514"
       y2="50.137749"
       gradientUnits="userSpaceOnUse"
       gradientTransform="translate(-1.3023872,-3)" />
    <radialGradient
       inkscape:collect="always"
       xlink:href="#linearGradient7"
       id="radialGradient9"
       cx="32.302387"
       cy="34"
       fx="32.302387"
       fy="34"
       r="28"
       gradientUnits="userSpaceOnUse"
       gradientTransform="matrix(0.99999999,1,-1,0.99999999,32.697613,-35.302387)" />
    <linearGradient
       id="1">
      <stop
         stop-color="#f9f9f9"
         id="stop2-8" />
      <stop
         offset="1"
         stop-color="#afafaf"
         id="stop4-4" />
    </linearGradient>
    <linearGradient
       inkscape:collect="always"
       xlink:href="#linearGradient2"
       id="linearGradient13"
       x1="28.716883"
       y1="54.333549"
       x2="29.208254"
       y2="7.7354412"
       gradientUnits="userSpaceOnUse" />
  </defs>
  <sodipodi:namedview
     id="namedview7"
     pagecolor="#ffffff"
     bordercolor="#000000"
     borderopacity="0.25"
     inkscape:showpageshadow="2"
     inkscape:pageopacity="0.0"
     inkscape:pagecheckerboard="0"
     inkscape:deskcolor="#d1d1d1"
     inkscape:zoom="5.890625"
     inkscape:cx="65.35809"
     inkscape:cy="56.954907"
     inkscape:window-width="1920"
     inkscape:window-height="996"
     inkscape:window-x="0"
     inkscape:window-y="0"
     inkscape:window-maximized="1"
     inkscape:current-layer="svg7" />
  <path
     d="M 59,31 C 59,46.46415 46.464172,59 30.999998,59 15.535835,59 3.0000001,46.46415 3.0000001,31 3.0000001,15.535835 15.535835,3 30.999998,3 46.464172,3 59,15.535835 59,31 Z"
     id="path154"
     style="fill:url(#radialGradient9)" />
  <path
     d="m 54.333333,31 c 0,12.88701 -10.446332,23.33332 -23.333335,23.33332 C 18.112999,54.33332 7.6666671,43.88701 7.6666671,31 7.6666671,18.113006 18.112999,7.666668 30.999998,7.666668 43.887001,7.666668 54.333333,18.113006 54.333333,31 Z"
     id="path155"
     style="fill:url(#linearGradient6)" />
  <circle
     cx="30.999985"
     cy="31.000048"
     r="23.3335"
     fill="#ae1b29"
     style="stroke-width:0.864187;paint-order:stroke fill markers;fill:url(#linearGradient13)"
     id="circle2-7-4" />
  <circle
     cx="31"
     cy="31"
     r="20.740915"
     fill="#ffffff"
     opacity="0.15"
     style="stroke-width:0.864187;paint-order:stroke fill markers"
     id="circle4-5-9" />
  <g
     id="g1"
     transform="translate(-73.384615,-11.759751)">
    <path
       style="opacity:0.2"
       d="m 104.46288,23.761479 c -7.64831,-0.119225 -15.06087,4.614766 -18.216799,11.574219 -3.236814,6.752193 -2.180176,15.258237 2.607422,21.015625 4.860629,6.10906 13.469327,8.869822 20.964847,6.644531 7.88829,-2.144399 13.9957,-9.556915 14.49218,-17.738281 0.10689,-1.168233 0.0835,-2.338494 -0.0332,-3.498047 h -1.49218 c 0.62585,5.987582 -1.76571,12.264386 -6.45899,16.121094 -5.88176,5.129935 -15.25707,5.957693 -21.703123,1.394531 -5.193979,-3.488475 -9.026596,-9.465132 -8.720703,-15.876953 0.36368,-6.28873 3.932129,-12.387754 9.308594,-15.691406 2.792342,-1.612615 6.010402,-2.451272 9.232422,-2.447266 2.03206,-0.01582 4.03875,0.348708 5.94141,1.015625 V 25.94312 c 0,-0.442474 0.26675,-0.824112 0.63672,-1.027344 -2.09802,-0.747757 -4.31225,-1.151011 -6.5586,-1.154297 z m 7.10547,1.996094 c -0.10172,0 -0.1836,0.08382 -0.1836,0.185547 v 2.542968 c 2.5e-4,0.101546 0.0821,0.273438 0.1836,0.273438 h 8.92773 c 1.06717,0 1.88867,0.07541 1.88867,1.142578 v 1.855469 h -10.8164 c -0.10172,0 -0.1836,0.173666 -0.1836,0.275391 v 8.539062 c 0,0.101718 0.0819,0.185547 0.1836,0.185547 l 13.54101,0.002 c 0.10783,-8.04e-4 0.19228,-0.09581 0.18164,-0.203125 -0.10017,-1.029427 -0.96766,-2.802328 -2.00195,-2.798828 h -8.9043 v -2.998094 h 10.81641 c 0.10172,0 0.18359,-0.103354 0.18359,-0.205078 v -4.839844 c 0,-2.185075 -1.77195,-3.957031 -3.95703,-3.957031 z m -7.1836,4.001953 c -7.457292,0 -13.677309,6.237173 -14.162106,13.664062 -0.01316,0.178475 0.131509,0.339436 0.310547,0.335938 h 13.851559 13.85157 c 0.17903,0.0035 0.3237,-0.157463 0.31054,-0.335938 -0.0368,-0.564115 -0.11576,-1.117838 -0.21679,-1.666015 h -6.76172 c -0.65653,0 -1.1836,-0.543387 -1.1836,-1.185547 v -8.539062 c 0,-0.32107 0.0704,-0.478188 0.19532,-0.6875 0.007,-0.01256 0.0209,-0.02931 0.0293,-0.04297 -1.88619,-0.977618 -3.99816,-1.542968 -6.22462,-1.542968 z m -12.892575,17 c -0.116862,0.266907 -0.225806,0.378879 -0.285156,0.560547 -0.05938,0.194111 -0.06002,0.396981 -0.0039,0.591797 0.163425,0.536127 0.337719,1.065065 0.517579,1.572265 0.06026,0.171641 0.165049,0.275391 0.277343,0.275391 h 25.185549 c 0.1123,0 0.21662,-0.103754 0.27734,-0.275391 0.17986,-0.5072 0.35461,-1.036138 0.51758,-1.572265 0.0565,-0.194754 0.0555,-0.39767 -0.004,-0.591797 -0.0593,-0.181668 -0.16875,-0.29364 -0.28516,-0.560547 z m 2.580078,6 c -0.265212,0 -0.493896,0.280906 -0.548828,0.673828 -0.05494,0.392924 0.07761,0.790688 0.320312,0.953125 3.293761,2.206954 6.938813,3.373047 10.541013,3.373047 3.60175,0 7.24726,-1.166093 10.54102,-3.373047 0.24227,-0.162437 0.37629,-0.56064 0.32226,-0.953125 -0.054,-0.392483 -0.28557,-0.673828 -0.55078,-0.673828 z"
       id="path2" />
    <path
       style="fill:#ff728a"
       d="m 104.38475,28.76 c -7.457292,0 -13.677309,6.237173 -14.162106,13.664062 -0.01316,0.178475 0.131509,0.339436 0.310547,0.335938 h 13.851559 13.85157 c 0.17903,0.0035 0.3237,-0.157463 0.31054,-0.335938 -0.0368,-0.564116 -0.11577,-1.117838 -0.21679,-1.666015 h -6.76172 c -0.65653,0 -1.1836,-0.543387 -1.1836,-1.185547 v -8.539062 c 0,-0.321069 0.0704,-0.478188 0.19532,-0.6875 0.007,-0.01256 0.0209,-0.02931 0.0293,-0.04297 C 108.72319,29.325349 106.61121,28.76 104.38475,28.76 Z"
       id="path3" />
    <path
       style="fill:#3af5e9"
       d="m 104.46288,22.761953 c -7.64831,-0.119225 -15.06087,4.614766 -18.216799,11.574219 -3.236814,6.752193 -2.180176,15.258237 2.607422,21.015625 4.860629,6.10906 13.469327,8.869822 20.964847,6.644531 7.88829,-2.144399 13.9957,-9.556915 14.49218,-17.738281 0.10689,-1.168233 0.0835,-2.338494 -0.0332,-3.498047 h -1.49218 c 0.62585,5.987582 -1.76571,12.264386 -6.45899,16.121094 -5.88176,5.129935 -15.25707,5.957693 -21.703123,1.394531 -5.193979,-3.488475 -9.026596,-9.465132 -8.720703,-15.876953 0.36368,-6.28873 3.932129,-12.387754 9.308594,-15.691406 2.792342,-1.612615 6.010402,-2.451272 9.232422,-2.447266 2.03206,-0.01582 4.03875,0.348708 5.9414,1.015625 v -0.332031 c 0,-0.442474 0.26676,-0.824112 0.63672,-1.027344 -2.09802,-0.747757 -4.31224,-1.151011 -6.55859,-1.154297 z"
       id="path4" />
    <path
       style="fill:#ff728a"
       d="m 91.997434,48.76 c -0.112294,0 -0.217291,-0.103366 -0.277549,-0.275007 -0.179859,-0.5072 -0.353784,-1.035999 -0.517209,-1.572126 -0.05611,-0.194816 -0.05438,-0.398327 0.005,-0.592438 0.05935,-0.181668 0.167078,-0.293522 0.28394,-0.560429 h 26.198254 c 0.11641,0.266907 0.2246,0.378761 0.28394,0.560429 0.0595,0.194127 0.061,0.397684 0.004,0.592438 -0.16297,0.536127 -0.33689,1.064926 -0.51675,1.572126 -0.0607,0.171637 -0.16527,0.275007 -0.27757,0.275007 z"
       id="path5" />
    <path
       id="S"
       style="fill:#ff728a"
       d="m 104.38491,56.76 c -3.6022,0 -7.246723,-1.166915 -10.540484,-3.373869 C 93.601727,53.223694 93.467545,52.82638 93.52248,52.433456 93.57741,52.040534 93.806602,51.76 94.071814,51.76 h 20.626196 c 0.26521,0 0.4953,0.280973 0.54933,0.673456 0.054,0.392485 -0.0797,0.790238 -0.32194,0.952675 C 111.63164,55.593085 107.98666,56.76 104.38491,56.76 Z" />
    <path
       style="fill:#3af5e9"
       d="m 111.56893,39.758142 c -0.10172,0 -0.18418,-0.08465 -0.18418,-0.186369 v -8.538657 c 0,-0.101725 0.0825,-0.274231 0.18418,-0.274231 h 10.81619 v -1.856228 c 0,-1.067169 -0.82157,-1.142852 -1.88874,-1.142852 h -8.92745 c -0.10154,0 -0.18393,-0.170916 -0.18418,-0.272462 v -2.544297 c 0,-0.101724 0.0825,-0.184177 0.18418,-0.184177 h 9.8594 c 2.18507,0 3.95642,1.771353 3.95642,3.956428 v 4.839659 c 0,0.101724 -0.0825,0.204088 -0.18417,0.204088 H 114.38475 V 36.7585 h 8.90481 c 1.03429,-0.0035 1.90134,1.768007 2.00152,2.797434 0.0106,0.10731 -0.0732,0.202762 -0.18101,0.203566 z"
       id="path6" />
    <path
       style="opacity:0.2;fill:#ffffff"
       d="m 104.46288,22.761953 c -7.64831,-0.119225 -15.06087,4.614766 -18.216799,11.574219 -1.314527,2.742185 -1.90975,5.773838 -1.845703,8.792969 0.07505,-2.685163 0.676216,-5.353347 1.845703,-7.792969 3.155929,-6.959453 10.568489,-11.693444 18.216799,-11.574219 2.0331,0.003 4.03499,0.349678 5.95312,0.966797 0.0709,-0.348001 0.29791,-0.643547 0.60547,-0.8125 -2.09802,-0.747757 -4.31224,-1.151011 -6.55859,-1.154297 z m 7.10547,1.996094 c -0.10172,0 -0.1836,0.08382 -0.1836,0.185547 v 1 c 0,-0.101724 0.0819,-0.185547 0.1836,-0.185547 h 9.85937 c 2.18508,0 3.95703,1.771956 3.95703,3.957031 v -1 c 0,-2.185075 -1.77195,-3.957031 -3.95703,-3.957031 z M 104.38475,28.76 c -7.457292,0 -13.677309,6.237173 -14.162106,13.664062 -0.0067,0.09021 0.02789,0.175997 0.08594,0.238282 C 91.154273,35.577459 97.185271,29.76 104.38475,29.76 c 2.14046,0 4.17007,0.532389 6,1.441406 v -0.167968 c 0,-0.32107 0.0704,-0.478188 0.19532,-0.6875 0.007,-0.01256 0.0209,-0.02931 0.0293,-0.04297 C 108.72318,29.32535 106.61121,28.76 104.38475,28.76 Z m 7.1836,1.998047 c -0.10172,0 -0.1836,0.173666 -0.1836,0.275391 v 1 c 0,-0.101726 0.0819,-0.275391 0.1836,-0.275391 h 10.8164 v -1 z m 2.8164,6 v 1 h 8.9043 c 0.79731,-0.0027 1.49243,1.04773 1.81641,2.001953 h 0.004 c 0.10783,-8.04e-4 0.19228,-0.09582 0.18164,-0.203125 -0.10018,-1.029427 -0.96767,-2.802328 -2.00196,-2.798828 z m -4,2.814453 v 1 c 0,0.64216 0.52707,1.185547 1.1836,1.185547 h 6.76172 c 0.0545,0.295735 0.10017,0.592853 0.13867,0.892578 0.0522,-0.06123 0.0844,-0.141348 0.0781,-0.226563 -0.0368,-0.564115 -0.11577,-1.117838 -0.2168,-1.666015 h -6.76172 c -0.65653,0 -1.1836,-0.543387 -1.1836,-1.185547 z m 12.40039,1.1875 c 0.0348,0.332628 0.056,0.666052 0.0723,1 h 1.41993 c 0.045,0.447465 0.0611,0.897734 0.0762,1.347656 0.017,-0.784663 0.002,-1.568796 -0.0762,-2.347656 z m 0.0859,2.429688 c -0.15083,5.205651 -2.48404,10.354377 -6.54492,13.691406 -5.88176,5.129935 -15.25707,5.957693 -21.703123,1.394531 -4.840955,-3.251371 -8.495381,-8.664122 -8.722656,-14.576172 -0.173634,6.297011 3.610362,12.14256 8.722656,15.576172 6.446053,4.563162 15.821363,3.735404 21.703123,-1.394531 4.32078,-3.550605 6.68429,-9.152498 6.54492,-14.691406 z M 91.492175,45.76 c -0.116862,0.266907 -0.225806,0.378879 -0.285156,0.560547 -0.05938,0.194111 -0.06002,0.396981 -0.0039,0.591797 0.02622,0.08602 0.05723,0.166364 0.08398,0.251953 0.0604,-0.11552 0.120841,-0.211903 0.205078,-0.404297 h 26.197263 c 0.0839,0.192394 0.14458,0.288777 0.20508,0.404297 0.0267,-0.08559 0.0578,-0.165934 0.084,-0.251953 0.0565,-0.194754 0.0555,-0.39767 -0.004,-0.591797 -0.0593,-0.181668 -0.16875,-0.29364 -0.28516,-0.560547 z m 2.580078,6 c -0.265212,0 -0.493896,0.280906 -0.548828,0.673828 -0.03417,0.244395 0.01123,0.48348 0.103516,0.673828 C 93.730197,52.897812 93.890328,52.76 94.072253,52.76 h 20.624997 c 0.18121,0 0.34143,0.137312 0.44532,0.345703 0.0921,-0.190218 0.13898,-0.428431 0.10546,-0.671875 C 115.194,52.041345 114.96246,51.76 114.69725,51.76 Z"
       id="path8" />
  </g>
</svg>
