<?xml version="1.0" encoding="UTF-8" standalone="no"?>
<svg
   clip-rule="evenodd"
   fill-rule="evenodd"
   stroke-linejoin="round"
   stroke-miterlimit="2"
   viewBox="0 0 62 62"
   version="1.1"
   id="svg5"
   sodipodi:docname="opl3_bank_editor.svg"
   width="62"
   height="62"
   inkscape:version="1.4 (unknown)"
   xmlns:inkscape="http://www.inkscape.org/namespaces/inkscape"
   xmlns:sodipodi="http://sodipodi.sourceforge.net/DTD/sodipodi-0.dtd"
   xmlns:xlink="http://www.w3.org/1999/xlink"
   xmlns="http://www.w3.org/2000/svg"
   xmlns:svg="http://www.w3.org/2000/svg">
  <defs
     id="defs5">
    <linearGradient
       id="linearGradient5"
       inkscape:collect="always">
      <stop
         style="stop-color:#2d3d53;stop-opacity:1;"
         offset="0"
         id="stop5" />
      <stop
         style="stop-color:#374762;stop-opacity:1;"
         offset="1"
         id="stop6" />
    </linearGradient>
    <linearGradient
       inkscape:collect="always"
       xlink:href="#linearGradient5"
       id="linearGradient6"
       x1="30.332001"
       y1="58.332001"
       x2="30.332001"
       y2="2.332"
       gradientUnits="userSpaceOnUse" />
  </defs>
  <sodipodi:namedview
     id="namedview5"
     pagecolor="#ffffff"
     bordercolor="#000000"
     borderopacity="0.25"
     inkscape:showpageshadow="2"
     inkscape:pageopacity="0.0"
     inkscape:pagecheckerboard="0"
     inkscape:deskcolor="#d1d1d1"
     inkscape:zoom="6.6666667"
     inkscape:cx="23.175"
     inkscape:cy="35.925"
     inkscape:window-width="1920"
     inkscape:window-height="996"
     inkscape:window-x="0"
     inkscape:window-y="0"
     inkscape:window-maximized="1"
     inkscape:current-layer="svg5" />
  <linearGradient
     id="a"
     x2="1"
     gradientTransform="matrix(0,-43.53155,43.53155,0,1192.407,51.589413)"
     gradientUnits="userSpaceOnUse">
    <stop
       stop-color="#353535"
       offset="0"
       id="stop1" />
    <stop
       stop-color="#606060"
       offset="1"
       id="stop2" />
  </linearGradient>
  <g
     id="g5"
     transform="translate(0.668,0.668)">
    <path
       d="M 50.284003,58.332 H 10.379997 C 5.9373166,58.332 2.332,54.726683 2.332,50.284003 V 10.379997 C 2.332,5.9373166 5.9373166,2.332 10.379997,2.332 h 39.904006 c 4.44268,0 8.047997,3.6053166 8.047997,8.047997 v 39.904006 c 0,4.44268 -3.605317,8.047997 -8.047997,8.047997 z"
       id="path2"
       style="fill:url(#linearGradient6)" />
    <path
       d="m 5.132,14.932 h -2.8 v -2.8 h 2.8 z m 0.4228,-5.6 H 2.3992 C 2.5308,8.3296 2.8458,7.3846 3.3106,6.532 H 6.532 V 3.3106 C 7.3846,2.8458 8.3296,2.5308 9.332,2.3992 V 5.5548 C 7.596,6.2156 6.2156,7.596 5.5548,9.332 Z m 6.5772,-4.2 v -2.8 h 2.8 v 2.8 z m 5.6,0 v -2.8 h 2.8 v 2.8 z m 5.6,0 v -2.8 h 2.8 v 2.8 z m 5.6,0 v -2.8 h 2.8 v 2.8 z m 5.6,0 v -2.8 h 2.8 v 2.8 z m 5.6,0 v -2.8 h 2.8 v 2.8 z m 5.6,0 v -2.8 h 2.8 v 2.8 z m 5.6,0.4228 V 2.3992 c 1.002399,0.1316 1.947399,0.4466 2.8,0.9114 V 6.532 h 3.221399 C 57.8182,7.3846 58.1332,8.3296 58.2648,9.332 H 55.1092 C 54.448399,7.596 53.068,6.2156 51.332,5.5548 Z m 4.2,6.5772 h 2.8 v 2.8 h -2.8 z m 0,5.6 h 2.8 v 2.8 h -2.8 z m 0,5.6 h 2.8 v 2.8 h -2.8 z m 0,5.6 h 2.8 v 2.8 h -2.8 z m 0,5.6 h 2.8 v 2.8 h -2.8 z m 0,5.6 h 2.8 v 2.8 h -2.8 z m 0,5.6 h 2.8 v 2.8 h -2.8 z m -0.4228,5.6 h 3.1556 c -0.1316,1.002399 -0.4466,1.947399 -0.911401,2.8 H 54.132 v 3.221399 C 53.279399,57.8182 52.334399,58.1332 51.332,58.2648 v -3.1556 c 1.736,-0.660801 3.116399,-2.0412 3.7772,-3.7772 z m -6.5772,4.2 v 2.8 h -2.8 v -2.8 z m -5.6,0 v 2.8 h -2.8 v -2.8 z m -5.6,0 v 2.8 h -2.8 v -2.8 z m -5.6,0 v 2.8 h -2.8 v -2.8 z m -5.6,0 v 2.8 h -2.8 v -2.8 z m -5.6,0 v 2.8 h -2.8 v -2.8 z m -5.6,0 v 2.8 h -2.8 v -2.8 z m -5.6,-0.4228 v 3.1556 C 8.3296,58.1332 7.3846,57.8182 6.532,57.353399 V 54.132 H 3.3106 C 2.8458,53.279399 2.5308,52.334399 2.3992,51.332 h 3.1556 c 0.6608,1.736 2.0412,3.116399 3.7772,3.7772 z m -4.2,-6.5772 h -2.8 v -2.8 h 2.8 z m 0,-5.6 h -2.8 v -2.8 h 2.8 z m 0,-5.6 h -2.8 v -2.8 h 2.8 z m 0,-5.6 h -2.8 v -2.8 h 2.8 z m 0,-5.6 h -2.8 v -2.8 h 2.8 z m 0,-5.6 h -2.8 v -2.8 h 2.8 z"
       fill="#8e8e8e"
       id="path3"
       style="stroke-width:1.4;fill:#acbcd2;fill-opacity:1" />
    <path
       d="M 30.333399,9.332 H 30.332 c -11.5892,0 -20.9986,9.409399 -20.9986,21 0,11.590601 9.4094,21 20.999999,21 11.589202,0 21,-9.409399 21,-21 0,-11.590601 -9.410798,-21 -21,-21 z"
       fill="#d52d2d"
       id="path4"
       style="stroke-width:1.4;fill:#c83771" />
  </g>
  <g
     id="g6"
     transform="matrix(1.2777764,0,0,1.2631539,-0.588871,-59.315542)">
    <g
       transform="translate(-468.99998,-113.99988)"
       style="opacity:0.2;enable-background:new"
       id="g19">
      <path
         transform="matrix(2,0,0,2,269,-837)"
         d="m 110,507 v 0.5 l -1e-5,4.7695 c -0.30389,-0.17609 -0.64878,-0.26905 -1,-0.26953 -1.1046,0 -2,0.89543 -2,2 0,1.10457 0.89543,2 2,2 1.10457,0 2,-0.89543 2,-2 l 1e-5,-5 h 4 l -1e-5,3.2695 c -0.30389,-0.17609 -0.64878,-0.26905 -1,-0.26953 -1.1046,0 -2,0.89543 -2,2 0,1.10457 0.89543,2 2,2 1.10457,0 2,-0.89543 2,-2 l 1e-5,-7 h -0.5 z"
         id="path19" />
    </g>
    <g
       transform="translate(-468.99998,-114.99988)"
       style="fill:#ffffff;enable-background:new"
       id="g20">
      <path
         transform="matrix(2,0,0,2,269,-837)"
         d="m 110,507 v 0.5 l -1e-5,4.7695 c -0.30389,-0.17609 -0.64878,-0.26905 -1,-0.26953 -1.1046,0 -2,0.89543 -2,2 0,1.10457 0.89543,2 2,2 1.10457,0 2,-0.89543 2,-2 l 1e-5,-5 h 4 l -1e-5,3.2695 c -0.30389,-0.17609 -0.64878,-0.26905 -1,-0.26953 -1.1046,0 -2,0.89543 -2,2 0,1.10457 0.89543,2 2,2 1.10457,0 2,-0.89543 2,-2 l 1e-5,-7 h -0.5 z"
         style="fill:#f2f2f2;fill-opacity:1"
         id="path20" />
    </g>
  </g>
</svg>
