<?xml version="1.0" encoding="UTF-8" standalone="no"?>
<svg
   width="62"
   height="62"
   version="1"
   id="svg4"
   sodipodi:docname="org.kde.activeWindowControl.svg"
   inkscape:version="1.4 (unknown)"
   xmlns:inkscape="http://www.inkscape.org/namespaces/inkscape"
   xmlns:sodipodi="http://sodipodi.sourceforge.net/DTD/sodipodi-0.dtd"
   xmlns="http://www.w3.org/2000/svg"
   xmlns:svg="http://www.w3.org/2000/svg">
  <defs
     id="defs4" />
  <sodipodi:namedview
     id="namedview4"
     pagecolor="#ffffff"
     bordercolor="#000000"
     borderopacity="0.25"
     inkscape:showpageshadow="2"
     inkscape:pageopacity="0.0"
     inkscape:pagecheckerboard="0"
     inkscape:deskcolor="#d1d1d1"
     inkscape:zoom="8.0520833"
     inkscape:cx="52.967658"
     inkscape:cy="38.934023"
     inkscape:window-width="1920"
     inkscape:window-height="996"
     inkscape:window-x="0"
     inkscape:window-y="0"
     inkscape:window-maximized="1"
     inkscape:current-layer="svg4" />
  <g
     id="g4"
     transform="matrix(1.375,0,0,1.3658537,-2,-2.4634157)">
    <rect
       fill="#f34235"
       width="40"
       height="40"
       x="4"
       y="4"
       rx="20"
       ry="20"
       id="rect1"
       style="fill:#c83771" />
    <path
       fill="#ffffff"
       opacity="0.2"
       d="M 24,4 C 12.921,4 4.002,12.92 4.002,24 c 0,0.16772 -0.004,0.33329 0,0.5 C 4.2662,13.654 13.089,5 24,5 c 10.911,0 19.734,8.6536 19.998,19.5 0.004,-0.16671 0,-0.33228 0,-0.5 C 43.998,12.92 35.079,4 24,4 Z"
       id="path1" />
    <path
       opacity="0.2"
       d="M 4.0117,24.5 C 4.0076,24.667 4,24.832 4,25 4,36.08 12.92,45 24,45 35.08,45 44,36.08 44,25 44,24.832 43.992,24.667 43.988,24.5 43.724,35.346 34.912,44 24,44 13.088,44 4.276,35.346 4.012,24.5 Z"
       id="path2" />
    <path
       opacity="0.2"
       d="m 14.71,15.905 c -1.1752,1.1752 -0.85984,3.3828 0.70711,4.9497 l 4.2426,4.2426 -4.2426,4.2426 c -1.5669,1.5669 -1.8823,3.7745 -0.70711,4.9497 1.17519,1.1752 3.3828,0.85984 4.9497,-0.70711 l 4.2426,-4.2426 4.2426,4.2426 c 1.5669,1.5669 3.7745,1.8823 4.9497,0.70711 1.1752,-1.17519 0.85984,-3.3828 -0.70711,-4.9497 l -4.2426,-4.2426 4.2426,-4.2426 c 1.5669,-1.5669 1.8823,-3.7745 0.70711,-4.9497 -1.17519,-1.1752 -3.3828,-0.85984 -4.9497,0.70711 l -4.2426,4.2426 -4.2426,-4.2426 C 18.0928,15.04521 15.8852,14.72981 14.71,15.905 Z"
       id="path3" />
    <path
       fill="#ffffff"
       d="m 14.71,14.905 c -1.1752,1.1752 -0.85984,3.3828 0.70711,4.9497 l 4.2426,4.2426 -4.2426,4.2426 c -1.5669,1.5669 -1.8823,3.7745 -0.70711,4.9497 1.17519,1.1752 3.3828,0.85984 4.9497,-0.70711 l 4.2426,-4.2426 4.2426,4.2426 c 1.5669,1.5669 3.7745,1.8823 4.9497,0.70711 1.1752,-1.17519 0.85984,-3.3828 -0.70711,-4.9497 l -4.2426,-4.2426 4.2426,-4.2426 c 1.5669,-1.5669 1.8823,-3.7745 0.70711,-4.9497 -1.17519,-1.1752 -3.3828,-0.85984 -4.9497,0.70711 l -4.2426,4.2426 -4.2426,-4.2426 C 18.0928,14.04521 15.8852,13.72981 14.71,14.905 Z"
       id="path4"
       style="fill:#f2f2f2;fill-opacity:1" />
  </g>
</svg>
