<?xml version="1.0" encoding="UTF-8" standalone="no"?>
<!-- Created with Inkscape (http://www.inkscape.org/) -->

<svg
   version="1.1"
   id="svg11324"
   width="62"
   height="62"
   viewBox="0 0 62 62"
   sodipodi:docname="konquest.svg"
   inkscape:version="1.4 (unknown)"
   xmlns:inkscape="http://www.inkscape.org/namespaces/inkscape"
   xmlns:sodipodi="http://sodipodi.sourceforge.net/DTD/sodipodi-0.dtd"
   xmlns:xlink="http://www.w3.org/1999/xlink"
   xmlns="http://www.w3.org/2000/svg"
   xmlns:svg="http://www.w3.org/2000/svg"
   xmlns:rdf="http://www.w3.org/1999/02/22-rdf-syntax-ns#"
   xmlns:cc="http://creativecommons.org/ns#"
   xmlns:dc="http://purl.org/dc/elements/1.1/">
  <metadata
     id="metadata11330">
    <rdf:RDF>
      <cc:Work
         rdf:about="">
        <dc:format>image/svg+xml</dc:format>
        <dc:type
           rdf:resource="http://purl.org/dc/dcmitype/StillImage" />
      </cc:Work>
    </rdf:RDF>
  </metadata>
  <defs
     id="defs11328">
    <linearGradient
       inkscape:collect="always"
       id="linearGradient2">
      <stop
         style="stop-color:#999999;stop-opacity:1"
         offset="0"
         id="stop1" />
      <stop
         style="stop-color:#f2f2f2;stop-opacity:1"
         offset="1"
         id="stop2" />
    </linearGradient>
    <linearGradient
       inkscape:collect="always"
       id="linearGradient855">
      <stop
         style="stop-color:#ffffff;stop-opacity:1;"
         offset="0"
         id="stop851" />
      <stop
         style="stop-color:#ffffff;stop-opacity:0;"
         offset="1"
         id="stop853" />
    </linearGradient>
    <linearGradient
       inkscape:collect="always"
       id="linearGradient842">
      <stop
         style="stop-color:#535683;stop-opacity:1"
         offset="0"
         id="stop838" />
      <stop
         style="stop-color:#8c8fb6;stop-opacity:1"
         offset="1"
         id="stop840" />
    </linearGradient>
    <linearGradient
       inkscape:collect="always"
       xlink:href="#linearGradient2"
       id="linearGradient827"
       x1="25.090557"
       y1="35"
       x2="24.602209"
       y2="13.17127"
       gradientUnits="userSpaceOnUse"
       gradientTransform="matrix(1.4762118,0,0,1.4762118,-1.4287796,-5.2384423)" />
    <linearGradient
       inkscape:collect="always"
       xlink:href="#linearGradient842"
       id="linearGradient844"
       x1="43.552788"
       y1="35.823086"
       x2="5.6626821"
       y2="12.508169"
       gradientUnits="userSpaceOnUse"
       gradientTransform="matrix(1.4762118,0,0,1.4762118,-1.4287796,-4.4999871)" />
    <linearGradient
       inkscape:collect="always"
       xlink:href="#linearGradient855"
       id="linearGradient857"
       x1="19.734655"
       y1="30.741465"
       x2="26.38689"
       y2="19.581244"
       gradientUnits="userSpaceOnUse"
       gradientTransform="matrix(1.4762118,0,0,1.4762118,-1.4287796,-4.4999871)" />
    <linearGradient
       inkscape:collect="always"
       xlink:href="#linearGradient2"
       id="linearGradient866"
       gradientUnits="userSpaceOnUse"
       x1="24.560232"
       y1="34.985725"
       x2="24.602209"
       y2="13.17127"
       gradientTransform="matrix(1.4762118,0,0,1.4762118,-1.4287808,-5.2384428)" />
  </defs>
  <sodipodi:namedview
     pagecolor="#ffffff"
     bordercolor="#666666"
     borderopacity="1"
     objecttolerance="10"
     gridtolerance="10"
     guidetolerance="10"
     inkscape:pageopacity="0"
     inkscape:pageshadow="2"
     inkscape:window-width="1920"
     inkscape:window-height="996"
     id="namedview11326"
     showgrid="false"
     inkscape:zoom="13.732014"
     inkscape:cx="31.568567"
     inkscape:cy="24.359137"
     inkscape:window-x="0"
     inkscape:window-y="0"
     inkscape:window-maximized="1"
     inkscape:current-layer="svg11324"
     inkscape:showpageshadow="2"
     inkscape:pagecheckerboard="0"
     inkscape:deskcolor="#d1d1d1">
    <inkscape:grid
       type="xygrid"
       id="grid862"
       originx="0"
       originy="0"
       spacingy="1"
       spacingx="1"
       units="px"
       visible="false" />
  </sodipodi:namedview>
  <g
     id="g1"
     transform="matrix(1,0,0,1.0035786,-3.0003036,-0.03960396)">
    <circle
       style="opacity:1;fill:url(#linearGradient827);fill-opacity:1;stroke:none;stroke-width:11.6132;stroke-linecap:round;stroke-linejoin:round;stroke-miterlimit:4;stroke-dasharray:none;stroke-dashoffset:0;stroke-opacity:1;paint-order:normal"
       id="path812"
       cx="34.000301"
       cy="30.190639"
       r="16.238331" />
    <path
       style="opacity:1;fill:url(#linearGradient844);fill-opacity:1;stroke:none;stroke-width:12.8417;stroke-linecap:round;stroke-linejoin:round;stroke-miterlimit:4;stroke-dasharray:none;stroke-dashoffset:0;stroke-opacity:1;paint-order:normal"
       d="M 9.9541975,11.008886 A 35.000516,11.539116 29.453877 0 0 3.5188365,13.727769 35.000516,11.539116 29.453877 0 0 28.357829,40.994438 35.000516,11.539116 29.453877 0 0 64.481771,48.130423 35.000516,11.539116 29.453877 0 0 39.642777,20.863754 35.000516,11.539116 29.453877 0 0 9.9541975,11.008886 Z m 6.6141205,3.889472 A 27.429298,9.0430055 29.453877 0 1 39.835953,22.622522 27.429298,9.0430055 29.453877 0 1 59.303496,43.99011 27.429298,9.0430055 29.453877 0 1 30.993098,38.399535 27.429298,9.0430055 29.453877 0 1 11.525556,17.029062 27.429298,9.0430055 29.453877 0 1 16.568318,14.898358 Z"
       id="path814"
       inkscape:connector-curvature="0" />
    <path
       style="opacity:1;fill:url(#linearGradient857);fill-opacity:1;stroke:none;stroke-width:12.8417;stroke-linecap:round;stroke-linejoin:round;stroke-miterlimit:4;stroke-dasharray:none;stroke-dashoffset:0;stroke-opacity:1;paint-order:normal"
       d="m 10.000329,12.55718 c -3.0042869,0.09027 -4.5783044,0.941709 -5.1321428,1.928877 -0.4677939,0.833747 -0.4833818,2.089829 0.279673,3.915422 0.7610919,1.820898 2.2839427,4.061498 4.4517009,6.441126 4.3369119,4.760788 11.2216279,10.120302 19.5194409,14.802483 8.296205,4.681186 16.439708,7.799023 22.74577,9.044681 3.152309,0.622719 5.849343,0.768102 7.793361,0.475733 1.949456,-0.293188 3.006008,-0.958921 3.474288,-1.793367 0.467794,-0.833747 0.483383,-2.089829 -0.279673,-3.915422 -0.332422,-0.795311 -1.329722,-1.88195 -1.943294,-2.814029 0.357622,1.434409 0.438857,2.864696 -0.256607,4.105715 -0.919857,1.641555 -2.704209,2.482055 -4.716958,2.785196 -2.006828,0.30225 -4.383289,0.133214 -7.058138,-0.395001 C 43.525414,46.081645 36.948628,43.538797 30.231927,39.748884 23.51387,35.958369 17.927238,31.635713 14.247321,27.596087 12.407831,25.576789 11.034539,23.629264 10.25117,21.75467 9.465418,19.874376 9.2546558,17.911989 10.176206,16.270773 c 1.120104,-1.996444 3.504304,-2.835219 6.34598,-2.920707 0.05065,-0.0015 0.116207,0.01549 0.167228,0.01447 -2.514304,-0.534875 -4.828679,-0.863119 -6.689085,-0.807302 z"
       id="path831"
       inkscape:connector-curvature="0" />
    <path
       style="opacity:1;fill:url(#linearGradient866);stroke:none;stroke-width:11.6132;stroke-linecap:round;stroke-linejoin:round;stroke-miterlimit:4;stroke-dasharray:none;stroke-dashoffset:0;stroke-opacity:1;paint-order:normal"
       d="m 34.000302,15.428522 c -1.563345,0.0016 -3.099768,-1.247888 -4.567315,-0.81601 -1.665719,0.490196 -3.242702,1.244645 -4.669593,2.233971 -1.25966,0.873377 -0.113069,1.791409 -1.096575,3.010674 l 23.619389,13.285906 c 0.723025,-1.858979 2.945512,-0.957801 2.952424,-2.952424 0,-1.435063 -0.186157,-2.826646 -0.535636,-4.151921 -1.83454,-6.956801 -8.169575,-10.610196 -15.702694,-10.610196 z"
       id="circle859"
       inkscape:connector-curvature="0"
       sodipodi:nodetypes="csscccsc" />
  </g>
</svg>
