<?xml version="1.0" encoding="UTF-8" standalone="no"?>
<svg
   clip-rule="evenodd"
   fill-rule="evenodd"
   stroke-linejoin="round"
   stroke-miterlimit="2"
   viewBox="0 0 62 62"
   version="1.1"
   id="svg3"
   sodipodi:docname="org.kde.plasma.appmenu.svg"
   width="62"
   height="62"
   inkscape:version="1.4 (unknown)"
   xmlns:inkscape="http://www.inkscape.org/namespaces/inkscape"
   xmlns:sodipodi="http://sodipodi.sourceforge.net/DTD/sodipodi-0.dtd"
   xmlns:xlink="http://www.w3.org/1999/xlink"
   xmlns="http://www.w3.org/2000/svg"
   xmlns:svg="http://www.w3.org/2000/svg">
  <defs
     id="defs3">
    <linearGradient
       id="linearGradient6">
      <stop
         offset="0"
         style="stop-color:#dbdbdb;stop-opacity:0;"
         id="stop5" />
      <stop
         offset="1"
         style="stop-color:#000000;stop-opacity:1;"
         id="stop6" />
    </linearGradient>
    <linearGradient
       id="linearGradient3"
       inkscape:collect="always">
      <stop
         style="stop-color:#dde4ee;stop-opacity:1;"
         offset="0"
         id="stop3" />
      <stop
         style="stop-color:#dde4ee;stop-opacity:1;"
         offset="0.21323954"
         id="stop10" />
      <stop
         style="stop-color:#314761;stop-opacity:1;"
         offset="0.21323954"
         id="stop8" />
      <stop
         style="stop-color:#2d3c53;stop-opacity:1;"
         offset="1"
         id="stop4" />
    </linearGradient>
    <filter
       id="b-3-36"
       width="1.2393739"
       height="1.1966286"
       x="-0.11968695"
       y="-0.098314282"
       color-interpolation-filters="sRGB">
      <feGaussianBlur
         stdDeviation="1.147"
         id="feGaussianBlur7-6" />
    </filter>
    <filter
       id="b-3-36-6"
       width="1.2393739"
       height="1.1966286"
       x="-0.11968695"
       y="-0.098314282"
       color-interpolation-filters="sRGB">
      <feGaussianBlur
         stdDeviation="1.147"
         id="feGaussianBlur7-6-7" />
    </filter>
    <linearGradient
       inkscape:collect="always"
       xlink:href="#linearGradient3"
       id="linearGradient4"
       x1="35"
       y1="3.340745"
       x2="35.005543"
       y2="58.017544"
       gradientUnits="userSpaceOnUse" />
    <linearGradient
       id="linearGradient4306">
      <stop
         offset="0"
         style="stop-color:#000000;stop-opacity:0;"
         id="stop12" />
      <stop
         offset="1"
         style="stop-color:#000000;stop-opacity:1;"
         id="stop14" />
    </linearGradient>
    <radialGradient
       xlink:href="#linearGradient4324"
       id="radialGradient4340-3"
       cx="-12"
       cy="12"
       fx="-12"
       fy="12"
       r="4"
       gradientUnits="userSpaceOnUse"
       gradientTransform="matrix(1.235291,0,0,1.235291,-1.3530054,1.3530246)" />
    <linearGradient
       id="linearGradient4324">
      <stop
         style="stop-color:#eff1f1;stop-opacity:1"
         offset="0"
         id="stop7" />
      <stop
         style="stop-color:#ececec;stop-opacity:1;"
         offset="1"
         id="stop9" />
    </linearGradient>
    <linearGradient
       id="linearGradient4167">
      <stop
         style="stop-color:#ffffff;stop-opacity:0"
         offset="0"
         id="stop2-3" />
      <stop
         style="stop-color:#ffffff;stop-opacity:1"
         offset="1"
         id="stop4-6" />
    </linearGradient>
    <radialGradient
       xlink:href="#linearGradient4324"
       id="radialGradient4188-1"
       gradientUnits="userSpaceOnUse"
       cx="-12"
       cy="12"
       fx="-12"
       fy="12"
       r="4"
       gradientTransform="matrix(1.235291,0,0,1.235291,-16.176495,16.176515)" />
    <radialGradient
       xlink:href="#linearGradient4324"
       id="radialGradient4202-2"
       gradientUnits="userSpaceOnUse"
       cx="-12"
       cy="12"
       fx="-12"
       fy="12"
       r="4"
       gradientTransform="matrix(1.235291,0,0,1.235291,-30.999989,31.000009)" />
    <linearGradient
       xlink:href="#linearGradient4816"
       id="linearGradient4503-0-3"
       y1="37"
       y2="4"
       x2="0"
       gradientUnits="userSpaceOnUse"
       gradientTransform="matrix(1.0499998,0,0,1.0499998,9.2502391,54.800003)" />
    <linearGradient
       id="linearGradient4816">
      <stop
         style="stop-color:#da4453"
         id="stop1439" />
      <stop
         offset="1"
         style="stop-color:#ff7336"
         id="stop1441" />
    </linearGradient>
    <linearGradient
       id="linearGradient4279">
      <stop
         id="stop1432" />
      <stop
         offset="1"
         style="stop-opacity:0"
         id="stop1434" />
    </linearGradient>
    <linearGradient
       id="c"
       y1="513.38"
       x1="399.98999"
       y2="537.38"
       x2="424.98999"
       gradientUnits="userSpaceOnUse"
       gradientTransform="translate(-464.04842,-560.44526)">
      <stop
         stop-color="#292c2f"
         id="stop12-3" />
      <stop
         offset="1"
         stop-opacity="0"
         id="stop14-6" />
    </linearGradient>
    <linearGradient
       id="b"
       y1="35"
       x1="42"
       y2="12"
       x2="22"
       gradientUnits="userSpaceOnUse"
       gradientTransform="translate(-75.064419,-59.059262)">
      <stop
         stop-color="#197cf1"
         id="stop7-7" />
      <stop
         offset="1"
         stop-color="#20bcfa"
         id="stop9-5" />
    </linearGradient>
    <linearGradient
       id="a-3"
       y1="35"
       x1="23"
       y2="13"
       x2="5"
       gradientUnits="userSpaceOnUse"
       gradientTransform="translate(-79.064419,-59.059262)">
      <stop
         stop-color="#c61423"
         id="stop2-5" />
      <stop
         offset="1"
         stop-color="#dc2b41"
         id="stop4-62" />
    </linearGradient>
  </defs>
  <sodipodi:namedview
     id="namedview3"
     pagecolor="#ffffff"
     bordercolor="#000000"
     borderopacity="0.25"
     inkscape:showpageshadow="2"
     inkscape:pageopacity="0.0"
     inkscape:pagecheckerboard="0"
     inkscape:deskcolor="#d1d1d1"
     inkscape:zoom="7.7916669"
     inkscape:cx="20.534759"
     inkscape:cy="30.609625"
     inkscape:window-width="1920"
     inkscape:window-height="996"
     inkscape:window-x="0"
     inkscape:window-y="0"
     inkscape:window-maximized="1"
     inkscape:current-layer="svg3"
     showguides="false"
     showgrid="false">
    <inkscape:grid
       id="grid10"
       units="px"
       originx="0"
       originy="0"
       spacingx="1"
       spacingy="1"
       empcolor="#0099e5"
       empopacity="0.30196078"
       color="#0099e5"
       opacity="0.14901961"
       empspacing="5"
       enabled="true"
       visible="false" />
  </sodipodi:namedview>
  <linearGradient
     id="a"
     x2="1"
     gradientTransform="matrix(0,-43.53155,43.53155,0,1192.407,51.589413)"
     gradientUnits="userSpaceOnUse">
    <stop
       stop-color="#161616"
       offset="0"
       id="stop1" />
    <stop
       stop-color="#343434"
       offset="1"
       id="stop2" />
  </linearGradient>
  <g
     id="g3"
     transform="translate(3.487626,-1.843205)" />
  <rect
     style="opacity:0.2;stroke-width:0.9823"
     width="55"
     height="55.017544"
     x="3.5"
     y="3.9824562"
     rx="8.25"
     ry="8.2526312"
     id="rect1-3" />
  <rect
     style="fill:url(#linearGradient4);stroke-width:0.9823"
     width="55"
     height="55.017544"
     x="3.5"
     y="3"
     rx="8.25"
     ry="8.2526312"
     id="rect2-5" />
  <path
     style="opacity:0.1;fill:#ffffff;stroke-width:0.9823"
     d="M 11.748466,3 C 7.1779651,3 3.4999999,6.6791384 3.4999999,11.251097 v 0.982456 c 0,-4.5719585 3.6779652,-8.2510968 8.2484661,-8.2510968 h 38.503068 c 4.5705,0 8.248466,3.6791383 8.248466,8.2510968 V 11.251097 C 58.5,6.6791384 54.822034,3 50.251534,3 Z"
     id="path4-6" />
  <g
     id="g11"
     transform="matrix(0.96649977,0,0,0.95923256,3.0918929,-39.235486)">
    <path
       d="M 7.2808046,96.72143 V 99.7 H 26.641517 V 96.72143 Z M 16.216517,87.785716 H 7.2808046 v 2.978568 H 16.216517 Z M 13.237949,78.85 H 7.2808046 v 2.97857 h 5.9571444 z m 5.957138,-8.935716 H 7.2808046 v 2.97857 H 19.195087 Z"
       id="path6"
       style="stroke-width:1.4893;fill:#d5f6ff;fill-opacity:1" />
    <path
       d="M 4.302233,66.935716 H 26.641517 V 68.425 H 4.302233 Z"
       id="path7"
       style="stroke-width:1.4893;fill:#00ccff" />
    <g
       transform="matrix(1.4892854,0,0,1.4892854,-6.122767,47.575)"
       fill-rule="nonzero"
       id="g10">
      <path
         d="m 18.572,20 c 0.133,0.003 0.26,0.052 0.359,0.138 l 8.537,6.735 c 0.355,0.307 0.178,0.877 -0.292,0.942 l -3.311,0.464 1.552,2.666 c 0.347,0.595 0.141,1.353 -0.459,1.697 l -0.333,0.191 c -0.6,0.344 -1.364,0.14 -1.71,-0.456 l -1.611,-2.769 -2.361,1.899 C 18.579,31.801 18.029,31.55 18.028,31.09 L 18,20.544 C 17.999,20.238 18.258,19.992 18.572,20 Z"
         id="path8"
         style="fill:#00ccff" />
      <path
         d="m 27,7 v 5 h 3 v -1 h -2 v -1 h 2 V 9 H 28 V 8 h 2 V 7 Z m 4,0 v 5 h 2 V 11 H 32 V 8 h 1 V 7 Z m 2,1 v 3 h 1 V 8 Z m 2,-1 v 5 h 1 V 7 Z m 2,0 v 1 h 1 v 4 h 1 V 8 h 1 V 7 Z"
         id="path9"
         style="fill:#d5f6ff" />
      <path
         d="m 8,7 v 5 h 1 v -2 h 2 V 9 H 9 V 8 h 2 V 7 Z m 4,0 v 5 h 1 V 7 Z m 2,0 v 5 h 3 V 11 H 15 V 7 Z m 4,0 v 5 h 3 v -1 h -2 v -1 h 2 V 9 H 19 V 8 h 2 V 7 Z"
         id="path10"
         style="fill:#00ccff" />
    </g>
  </g>
</svg>
