<?xml version="1.0" encoding="UTF-8" standalone="no"?>
<svg
   width="62"
   height="62"
   version="1"
   id="svg7"
   sodipodi:docname="org.freedesktop.fwupd.svg"
   inkscape:version="1.4 (unknown)"
   xmlns:inkscape="http://www.inkscape.org/namespaces/inkscape"
   xmlns:sodipodi="http://sodipodi.sourceforge.net/DTD/sodipodi-0.dtd"
   xmlns:xlink="http://www.w3.org/1999/xlink"
   xmlns="http://www.w3.org/2000/svg"
   xmlns:svg="http://www.w3.org/2000/svg">
  <defs
     id="defs7">
    <linearGradient
       id="linearGradient7"
       inkscape:collect="always">
      <stop
         style="stop-color:#384850;stop-opacity:1;"
         offset="0"
         id="stop8" />
      <stop
         style="stop-color:#384850;stop-opacity:1;"
         offset="0.58519185"
         id="stop10" />
      <stop
         style="stop-color:#eff2f6;stop-opacity:1;"
         offset="0.86599815"
         id="stop11" />
      <stop
         style="stop-color:#eff2f6;stop-opacity:1;"
         offset="1"
         id="stop9" />
    </linearGradient>
    <linearGradient
       id="linearGradient1"
       inkscape:collect="always">
      <stop
         style="stop-color:#303c47;stop-opacity:1;"
         offset="0"
         id="stop5" />
      <stop
         style="stop-color:#363e48;stop-opacity:1;"
         offset="0.25046653"
         id="stop7" />
      <stop
         style="stop-color:#303c47;stop-opacity:1;"
         offset="0.91934216"
         id="stop12" />
      <stop
         style="stop-color:#303c47;stop-opacity:1;"
         offset="1"
         id="stop6" />
    </linearGradient>
    <linearGradient
       id="c-3"
       gradientUnits="userSpaceOnUse"
       x1="24.072048"
       x2="23.959682"
       y1="0.75082099"
       y2="46.056854">
      <stop
         offset="0"
         stop-color="#fff"
         id="stop3" />
      <stop
         offset="1"
         stop-color="#d9d9d9"
         id="stop4" />
    </linearGradient>
    <linearGradient
       id="b-6"
       gradientUnits="userSpaceOnUse"
       x1="29.203026"
       x2="34.121048"
       xlink:href="#a-7"
       y1="24.827356"
       y2="29.224836" />
    <linearGradient
       id="a-7">
      <stop
         offset="0"
         id="stop1" />
      <stop
         offset="1"
         stop-opacity="0"
         id="stop2" />
    </linearGradient>
    <linearGradient
       id="d"
       gradientUnits="userSpaceOnUse"
       x1="15.948756"
       x2="25.031786"
       xlink:href="#a-7"
       y1="23.618279"
       y2="33.69899" />
    <linearGradient
       id="e"
       gradientUnits="userSpaceOnUse"
       x1="21.990562"
       x2="29.320522"
       xlink:href="#a-7"
       y1="33.780373"
       y2="41.931858" />
    <linearGradient
       id="paint154_linear_890_11"
       x1="778"
       y1="812.29199"
       x2="788"
       y2="812.29199"
       gradientUnits="userSpaceOnUse"
       gradientTransform="translate(-751,-696)">
      <stop
         stop-color="#EFF2F6"
         id="stop1050" />
      <stop
         offset="0.600785"
         stop-color="#B7C6CD"
         id="stop1051" />
    </linearGradient>
    <linearGradient
       id="paint155_linear_890_11"
       x1="783"
       y1="813"
       x2="783"
       y2="817"
       gradientUnits="userSpaceOnUse"
       gradientTransform="translate(-751,-696)">
      <stop
         stop-color="#EFF2F6"
         id="stop1052" />
      <stop
         offset="0.734138"
         stop-color="#B7C6CD"
         id="stop1053" />
    </linearGradient>
    <radialGradient
       id="paint156_radial_890_11"
       cx="0"
       cy="0"
       r="1"
       gradientUnits="userSpaceOnUse"
       gradientTransform="matrix(27.999986,27.999976,-27.999986,27.999976,32.302392,33.999998)">
      <stop
         offset="0.60067803"
         stop-color="#B7C6CD"
         id="stop1054"
         style="stop-color:#424b58;stop-opacity:1;" />
      <stop
         offset="0.876735"
         stop-color="#EFF2F6"
         id="stop1055" />
    </radialGradient>
    <linearGradient
       id="paint157_linear_890_11"
       x1="796.84485"
       y1="799.43359"
       x2="768.90088"
       y2="770.81476"
       gradientUnits="userSpaceOnUse"
       gradientTransform="matrix(1.1666666,0,0,1.1666668,-881.19764,-881.8333)">
      <stop
         offset="0.00000057"
         stop-color="#2E2E41"
         id="stop1056"
         style="stop-color:#424b58;stop-opacity:1;" />
      <stop
         offset="0.71113902"
         stop-color="#566C80"
         id="stop1057"
         style="stop-color:#303c47;stop-opacity:1;" />
    </linearGradient>
    <linearGradient
       id="paint158_linear_890_11"
       x1="792"
       y1="794"
       x2="774"
       y2="776"
       gradientUnits="userSpaceOnUse"
       gradientTransform="translate(-751,-696)">
      <stop
         offset="0.304478"
         stop-color="#2E2E41"
         id="stop1058" />
      <stop
         offset="1"
         stop-color="#566C80"
         id="stop1059" />
    </linearGradient>
    <linearGradient
       id="paint159_linear_890_11"
       x1="788"
       y1="790"
       x2="778"
       y2="780"
       gradientUnits="userSpaceOnUse"
       gradientTransform="translate(-751,-696)">
      <stop
         offset="0.391394"
         stop-color="#5200FF"
         id="stop1060" />
      <stop
         offset="1"
         stop-color="#0085FF"
         id="stop1061" />
    </linearGradient>
    <linearGradient
       id="paint160_linear_890_11"
       x1="784"
       y1="798"
       x2="782"
       y2="796"
       gradientUnits="userSpaceOnUse"
       gradientTransform="translate(-751,-696)">
      <stop
         stop-color="#FF7E07"
         id="stop1062" />
      <stop
         offset="1"
         stop-color="#FFE607"
         id="stop1063" />
    </linearGradient>
    <linearGradient
       id="c-3-6"
       gradientUnits="userSpaceOnUse"
       x1="24.072048"
       x2="23.959682"
       y1="0.75082099"
       y2="46.056854"
       gradientTransform="matrix(0.91471346,0,0,0.90068147,9.0468769,9.3836444)">
      <stop
         offset="0"
         stop-color="#fff"
         id="stop3-2" />
      <stop
         offset="1"
         stop-color="#d9d9d9"
         id="stop4-9" />
    </linearGradient>
    <linearGradient
       id="b-6-1"
       gradientUnits="userSpaceOnUse"
       x1="29.203026"
       x2="34.121048"
       xlink:href="#a-7"
       y1="24.827356"
       y2="29.224836"
       gradientTransform="matrix(1.1104534,0,0,1.0934187,4.3491158,4.7861435)" />
    <linearGradient
       id="d-0"
       gradientUnits="userSpaceOnUse"
       x1="15.948756"
       x2="25.031786"
       xlink:href="#a-7"
       y1="23.618279"
       y2="33.69899"
       gradientTransform="matrix(1.1104534,0,0,1.0934187,4.3491158,4.7861435)" />
    <linearGradient
       id="e-9"
       gradientUnits="userSpaceOnUse"
       x1="21.990562"
       x2="29.320522"
       xlink:href="#a-7"
       y1="33.780373"
       y2="41.931858"
       gradientTransform="matrix(1.1104534,0,0,1.0934187,4.3491158,4.7861435)" />
    <linearGradient
       inkscape:collect="always"
       xlink:href="#linearGradient1"
       id="linearGradient6"
       x1="15.60323"
       y1="17.703012"
       x2="48.302387"
       y2="50"
       gradientUnits="userSpaceOnUse" />
    <radialGradient
       inkscape:collect="always"
       xlink:href="#linearGradient7"
       id="radialGradient9"
       cx="32.302387"
       cy="34"
       fx="32.302387"
       fy="34"
       r="28"
       gradientUnits="userSpaceOnUse"
       gradientTransform="matrix(0.99999999,1,-1,0.99999999,34,-32.302387)" />
    <radialGradient
       id="radialGradient867"
       cx="6.6805"
       cy="8.2870998"
       r="3.7376001"
       gradientTransform="matrix(4.8485492,0,0,4.8159411,-9.9298686,-9.7737847)"
       gradientUnits="userSpaceOnUse">
      <stop
         stop-color="#c8d7ea"
         stop-opacity=".99608"
         offset="0"
         id="stop1-5" />
      <stop
         stop-color="#91acd0"
         stop-opacity=".99608"
         offset="1"
         id="stop2-4" />
    </radialGradient>
    <linearGradient
       id="linearGradient8945"
       x1="3.8726001"
       x2="4.7592001"
       y1="-3.2832"
       y2="-2.3964"
       gradientTransform="matrix(1.3622,-0.36501,0.36501,1.3622,2.977,21.076)"
       gradientUnits="userSpaceOnUse">
      <stop
         stop-color="#bdc2cf"
         offset="0"
         id="stop3-7" />
      <stop
         stop-color="#eaf0f5"
         offset="1"
         id="stop4-4" />
    </linearGradient>
    <linearGradient
       id="linearGradient26151"
       x1="4.9973001"
       x2="6.1075001"
       y1="-4.6547999"
       y2="-3.5313001"
       gradientTransform="matrix(1.3622,-0.36501,0.36501,1.3622,2.977,21.076)"
       gradientUnits="userSpaceOnUse">
      <stop
         stop-color="#7dbc53"
         offset="0"
         id="stop5-4" />
      <stop
         stop-color="#93d159"
         offset=".11589"
         id="stop6-3" />
      <stop
         stop-color="#699d51"
         offset="1"
         id="stop7-0" />
    </linearGradient>
    <linearGradient
       gradientTransform="matrix(0.37621632,0,0,0.37621632,8.6287428,-1.1881642)"
       xlink:href="#f"
       id="g"
       x1="11.62"
       y1="231.745"
       x2="132.13"
       y2="231.745"
       gradientUnits="userSpaceOnUse" />
    <linearGradient
       id="f">
      <stop
         offset="0"
         stop-color="#9a9996"
         id="stop13" />
      <stop
         offset=".154"
         stop-color="#b4b2af"
         stop-opacity=".988"
         id="stop14" />
      <stop
         offset=".35"
         stop-color="#8b8a86"
         stop-opacity=".976"
         id="stop15" />
      <stop
         offset=".733"
         stop-color="#999895"
         stop-opacity=".969"
         id="stop16" />
      <stop
         offset=".896"
         stop-color="#d6d5d4"
         stop-opacity=".949"
         id="stop17" />
      <stop
         offset="1"
         stop-color="#787773"
         stop-opacity=".941"
         id="stop18" />
    </linearGradient>
    <radialGradient
       xlink:href="#e-3"
       id="h"
       cx="-85.992996"
       cy="248.08299"
       fx="-85.992996"
       fy="248.08299"
       r="46"
       gradientUnits="userSpaceOnUse"
       gradientTransform="matrix(0.51423128,0,0,0.51423128,79.889757,-43.888716)" />
    <linearGradient
       id="e-3">
      <stop
         offset="0"
         stop-color="#c0bfbc"
         id="stop9-6" />
      <stop
         offset=".874"
         stop-color="#deddda"
         id="stop10-7" />
      <stop
         offset=".917"
         stop-color="#b1b0ad"
         id="stop11-5" />
      <stop
         offset="1"
         stop-color="#77767b"
         id="stop12-3" />
    </linearGradient>
    <radialGradient
       xlink:href="#d-5"
       id="i"
       cx="43.686001"
       cy="143.70599"
       fx="43.686001"
       fy="143.70599"
       r="60.256001"
       gradientUnits="userSpaceOnUse"
       gradientTransform="matrix(0.33096502,0,0,0.33096502,11.833353,61.105734)" />
    <linearGradient
       id="d-5">
      <stop
         offset="0"
         stop-color="#fff"
         id="stop7-6" />
      <stop
         offset="1"
         stop-color="#fff"
         stop-opacity="0"
         id="stop8-2" />
    </linearGradient>
    <radialGradient
       xlink:href="#d-5"
       id="j"
       gradientUnits="userSpaceOnUse"
       gradientTransform="matrix(0.33096502,0,0,0.33096502,11.833353,61.105734)"
       cx="139.739"
       cy="132.453"
       fx="139.739"
       fy="132.453"
       r="60.256001" />
    <radialGradient
       xlink:href="#a"
       id="k"
       cx="187.53"
       cy="400.202"
       fx="187.53"
       fy="400.202"
       r="125.53"
       gradientTransform="matrix(0.28265913,0,0,0.29497525,-35.116928,-44.950102)"
       gradientUnits="userSpaceOnUse" />
    <linearGradient
       id="a">
      <stop
         offset="0"
         stop-color="#99c1f1"
         id="stop3-27" />
      <stop
         offset="1"
         stop-color="#fff"
         stop-opacity="0"
         id="stop4-0" />
    </linearGradient>
    <radialGradient
       xlink:href="#b"
       id="l"
       cx="312.948"
       cy="468.452"
       fx="312.948"
       fy="468.452"
       r="31.197001"
       gradientTransform="matrix(0.97259427,-0.00837627,0.00446908,0.51874308,-271.94272,-147.23568)"
       gradientUnits="userSpaceOnUse" />
    <linearGradient
       id="b">
      <stop
         offset="0"
         stop-color="#f6f5f4"
         id="stop5-9" />
      <stop
         offset="1"
         stop-color="#f6f5f4"
         stop-opacity="0"
         id="stop6-36" />
    </linearGradient>
    <radialGradient
       xlink:href="#c"
       id="m"
       cx="361.52701"
       cy="468.23401"
       fx="361.52701"
       fy="468.23401"
       r="26.938"
       gradientTransform="matrix(2.8550549,0,0,1.3907947,-997.02277,-555.86562)"
       gradientUnits="userSpaceOnUse" />
    <linearGradient
       id="c">
      <stop
         offset="0"
         stop-color="#deddda"
         id="stop19" />
      <stop
         offset="1"
         stop-color="#deddda"
         stop-opacity="0"
         id="stop20" />
    </linearGradient>
    <filter
       id="n"
       color-interpolation-filters="sRGB"
       x="0"
       y="0"
       width="1"
       height="1">
      <feBlend
         mode="multiply"
         in2="BackgroundImage"
         id="feBlend6" />
    </filter>
  </defs>
  <sodipodi:namedview
     id="namedview7"
     pagecolor="#ffffff"
     bordercolor="#000000"
     borderopacity="0.25"
     inkscape:showpageshadow="2"
     inkscape:pageopacity="0.0"
     inkscape:pagecheckerboard="0"
     inkscape:deskcolor="#d1d1d1"
     inkscape:zoom="8.3306018"
     inkscape:cx="35.231548"
     inkscape:cy="32.590683"
     inkscape:window-width="1920"
     inkscape:window-height="996"
     inkscape:window-x="0"
     inkscape:window-y="0"
     inkscape:window-maximized="1"
     inkscape:current-layer="svg7" />
  <g
     id="g1"
     transform="translate(-1.3023872,-3)">
    <path
       d="m 60.302387,34 c 0,15.46415 -12.535828,28 -28.000002,28 C 16.838222,62 4.3023873,49.46415 4.3023873,34 4.3023873,18.535835 16.838222,6 32.302385,6 47.766559,6 60.302387,18.535835 60.302387,34 Z"
       id="path154"
       style="fill:url(#radialGradient9)" />
    <path
       d="m 55.63572,34 c 0,12.88701 -10.446332,23.33332 -23.333335,23.33332 C 19.415386,57.33332 8.9690543,46.88701 8.9690543,34 c 0,-12.886994 10.4463317,-23.333332 23.3333307,-23.333332 12.887003,0 23.333335,10.446338 23.333335,23.333332 z"
       id="path155"
       style="fill:url(#linearGradient6)" />
  </g>
  <g
     id="g2"
     transform="matrix(1.0674619,0,0,1.0674619,-7.1130206,-59.292247)">
    <rect
       style="stroke-width:0.376216;marker:none"
       width="43.641094"
       height="43.643726"
       x="13.895771"
       y="62.765976"
       rx="21.820547"
       ry="21.439064"
       fill="#d5d3cf"
       enable-background="new"
       id="rect19" />
    <circle
       style="stroke-width:0.130675;marker:none"
       cx="35.704338"
       cy="84.585915"
       r="21.529486"
       fill="#ffffff"
       id="circle20" />
    <path
       style="fill:url(#k);stroke-width:0.130675;marker:none"
       d="m 18.474188,72.054184 c 0,0 3.136199,2.35215 3.789574,4.312274 0.653375,1.960125 -2.0908,4.7043 -1.437425,7.840499 0.653375,3.1362 13.328848,15.288973 13.328848,15.288973 l 4.834975,-5.096324 c 0,0 3.397549,-1.437425 5.880374,1.568099 2.482824,3.005525 2.221474,6.664425 2.221474,6.664425 0,0 -4.399434,3.6589 -11.499398,3.6589 -11.238702,0 -21.300022,-9.803892 -21.300022,-19.339898 0,-10.996169 4.1816,-14.896948 4.1816,-14.896948 z"
       id="path21" />
    <path
       style="stroke-width:0.130675;marker:none"
       d="M 55.847232,77.934558 40.035559,94.007581 c 0,0 3.842367,1.122498 5.279792,3.082622 1.437425,1.960125 2.560707,5.019227 2.560707,5.019227 0,0 6.42934,-5.292076 7.840499,-9.016574 1.790378,-4.725207 2.60579,-15.38332 0.130675,-15.158298 z"
       fill="#2ec27e"
       id="path22" />
    <path
       style="stroke-width:0.130675;marker:none"
       d="m 26.576036,65.259085 v 26.396346 c 0,0 -4.965649,-3.005524 -5.357674,-7.187124 -0.392025,-4.181599 2.482825,-4.312274 1.30675,-7.317799 -1.176075,-3.005524 -3.920249,-5.619024 -3.920249,-5.619024 0,0 2.482824,-3.658899 4.704299,-4.834974 2.221475,-1.176075 3.266874,-1.437425 3.266874,-1.437425 z"
       fill="#ffbe6f"
       id="path23" />
    <path
       d="M 30.18345,95.350658 V 63.690985 l 7.595352,-0.708258 0.557983,32.331603 z"
       style="fill:url(#l);stroke-width:0.130675;marker:none"
       id="path24" />
    <path
       d="m 43.525365,64.50313 1.149156,13.627441 -0.726683,11.265098 11.899394,-11.461111 c 0,0 -2.394227,-6.907218 -6.300364,-9.838258 -3.906136,-2.93104 -6.021503,-3.5933 -6.021503,-3.5933 z"
       style="stroke-width:0.130675;marker:none"
       fill="#26a269"
       id="path25" />
    <path
       style="fill:url(#m);stroke-width:0.130675;marker:none"
       d="M 44.819048,88.816909 43.250948,64.08301 37.778802,62.982727 38.336785,95.31433 Z"
       id="path26" />
    <path
       style="marker:none"
       d="m 26.279404,65.365193 v 26.081419 l 7.969606,7.969867 7.969606,-7.969605 1.729222,-2.051075 -0.422473,-24.892538"
       fill="none"
       stroke="#000000"
       stroke-width="1.30675"
       stroke-linejoin="round"
       id="path27" />
    <path
       style="stroke-width:0.130675;marker:none"
       d="m 23.415009,99.739769 c 2.434736,-3.26021 6.196085,-5.49828 10.222965,-6.082659 3.117382,-0.452396 6.36936,0.07187 9.186712,1.481071 2.817353,1.409068 5.187274,3.696795 6.695002,6.462659 l -4.020869,2.11223 a 2.7013132,2.7013132 0 0 0 1.141838,-1.41286 2.7013132,2.7013132 0 0 0 -0.02365,-1.81638 c -0.186865,-0.497477 -0.51695,-0.927528 -0.869512,-1.324911 -1.376138,-1.551373 -3.164948,-2.719346 -5.110698,-3.436621 -1.945881,-0.717145 -4.044913,-0.989733 -6.11585,-0.879704 -4.129983,0.219272 -8.158693,1.995799 -11.105936,4.897306 z M 17.428788,72.870903 c 0,0 2.744174,1.862118 3.005524,4.475618 0.26135,2.613499 -0.980062,4.377612 -0.392025,7.187124 0.588038,2.809512 6.367792,7.89316 6.367792,7.89316 l -0.130675,-0.980062 c 0,0 -3.884967,-3.711561 -4.473004,-6.325061 -0.588038,-2.6135 2.156137,-4.508287 2.156137,-4.508287 0,0 -0.06534,-2.417487 -1.241412,-4.573624 -1.176075,-2.156137 -3.985587,-5.063656 -3.985587,-5.063656 z"
       id="path28" />
    <path
       style="stroke-width:0.130675;marker:none"
       d="m 30.18345,95.350658 4.06556,4.065821 4.920436,-4.897306 c 0,0 -2.910655,-0.531324 -4.828049,-0.231033 -1.917263,0.300291 -4.158078,1.062649 -4.158078,1.062649 z m 11.877572,-31.398323 1.106163,20.535051 c 0.10062,1.869305 0.03894,3.78304 -0.621882,5.534608 l -0.810969,1.764112 4.442949,-3.789574 a 0.97052308,0.97052308 0 0 1 -0.490684,-0.05933 0.9703924,0.9703924 0 0 1 -0.396991,-0.294411 c -0.115255,-0.144395 -0.186865,-0.319631 -0.231425,-0.498917 -0.04443,-0.179416 -0.06312,-0.363929 -0.08167,-0.547789 -0.232601,-2.303931 -0.47827,-4.66379 0.09017,-6.908656 0.321199,-1.268723 0.893033,-2.457212 1.361633,-3.679284 0.46847,-1.221942 0.839195,-2.519153 0.729166,-3.823289 -0.141129,-1.668719 -1.117401,-3.245966 -2.548162,-4.116262 0.889636,1.357713 1.413773,2.952732 1.502763,4.573624 0.105193,1.919093 -0.405093,3.867196 -1.437425,5.48835 L 43.525365,64.50313 Z"
       id="path29" />
    <path
       style="stroke-width:0.130675;marker:none"
       d="m 47.229348,66.870569 c 0.624887,1.862118 0.761312,3.885882 0.392025,5.815037 -0.470953,2.459825 -1.734841,4.718542 -2.156138,7.187123 -0.421818,2.470803 0.04913,5.084303 1.30675,7.252462 l 0.78405,-0.914725 a 4.7236392,4.7236392 0 0 1 0.196013,-1.82945 c 0.359617,-1.148763 1.141315,-2.11223 1.94,-3.012973 0.798817,-0.900742 1.644153,-1.787503 2.176261,-2.86727 0.524007,-1.063564 0.716753,-2.275444 0.632075,-3.457921 -0.08468,-1.182609 -0.439852,-2.33673 -0.958762,-3.402516 C 50.5907,69.687529 49.0767,68.012799 47.229348,66.8707 Z"
       id="path30" />
    <path
       style="stroke-width:0.130675;marker:none"
       d="m 46.731737,87.02627 a 21.824551,21.824551 0 0 0 -4.628507,6.707416 4.6815618,4.6815618 0 0 0 1.039388,-0.600582 c 0.673369,-0.51486 1.192279,-1.200119 1.710928,-1.870482 0.518518,-0.670363 1.056376,-1.344645 1.754181,-1.825529 0.744063,-0.51303 1.635005,-0.781175 2.37933,-1.293683 0.919298,-0.63312 1.554901,-1.595019 2.380898,-2.345616 0.413064,-0.375429 0.882056,-0.701724 1.411682,-0.877613 0.529625,-0.17615 1.126026,-0.191439 1.636051,0.03528 0.496042,0.220841 0.881141,0.661869 1.070228,1.170848 0.189217,0.50911 0.189086,1.079506 0.03855,1.601292 -0.155503,0.53838 -0.476964,1.037559 -0.939292,1.354576 -0.231033,0.158509 -0.495128,0.270236 -0.771244,0.318063 -0.276116,0.04783 -0.564124,0.0311 -0.83057,-0.05567 a 1.6220685,1.6220685 0 0 1 -0.75883,-0.523223 1.5802525,1.5802525 0 0 1 -0.340931,-0.85566 1.540658,1.540658 0 0 1 0.204899,-0.897345 1.5028929,1.5028929 0 0 1 0.686958,-0.611297 c 0.270236,-0.118131 0.57889,-0.152498 0.865069,-0.0818 0.286439,0.0707 0.547528,0.248805 0.705775,0.49761 0.114733,0.180332 0.174451,0.397252 0.156549,0.610253 -0.01777,0.213 -0.115648,0.42025 -0.276509,0.560987 -0.16073,0.140737 -0.384445,0.210518 -0.595093,0.175105 a 0.66147675,0.66147675 0 0 1 -0.291406,-0.125971 0.6241037,0.6241037 0 0 1 -0.194705,-0.250112 0.61312701,0.61312701 0 0 1 0.02809,-0.52858 0.61312701,0.61312701 0 0 1 0.433841,-0.303166 0.68957187,0.68957187 0 0 0 -0.415808,-0.04613 0.71061054,0.71061054 0 0 0 -0.384707,0.222408 0.75530138,0.75530138 0 0 0 -0.183468,0.405746 0.80600328,0.80600328 0 0 0 0.07083,0.440506 0.86415364,0.86415364 0 0 0 0.289445,0.340539 c 0.156679,0.10846 0.347596,0.164781 0.53812,0.167264 0.190654,0.0022 0.380525,-0.04835 0.548835,-0.137732 0.33688,-0.178632 0.578498,-0.505189 0.714792,-0.861148 0.114602,-0.298984 0.161514,-0.626717 0.111988,-0.943081 -0.04966,-0.316234 -0.198887,-0.619792 -0.435278,-0.835667 -0.275332,-0.251418 -0.658602,-0.372162 -1.030764,-0.351777 -0.372163,0.02052 -0.731127,0.176281 -1.019265,0.412672 -0.288269,0.236522 -0.507542,0.550664 -0.657557,0.891857 -0.150015,0.341192 -0.232601,0.709434 -0.272326,1.080028 -0.05162,0.479708 -0.03162,0.972745 0.115516,1.432198 0.217966,0.681339 0.696498,1.243372 1.03952,1.871266 0.554846,1.015736 0.744716,2.252183 0.395161,3.355603 -0.174843,0.551709 -0.481276,1.063302 -0.897215,1.465781 -0.416069,0.402348 -0.941905,0.6931 -1.507727,0.81502 -0.872909,0.188041 -1.818212,-0.04169 -2.532612,-0.577192 -0.7144,-0.535636 -1.194892,-1.361633 -1.348174,-2.241076 -0.135902,-0.778561 -0.01529,-1.613444 0.406791,-2.281585 0.21104,-0.334005 0.494997,-0.623319 0.830832,-0.831354 0.335834,-0.208035 0.723939,-0.334005 1.118578,-0.352169 0.61182,-0.02796 1.231219,0.212477 1.664145,0.645665 0.433057,0.433318 0.673107,1.052456 0.645796,1.664407 -0.02065,0.464027 -0.197058,0.928315 -0.527273,1.255133 -0.165043,0.163344 -0.366413,0.290883 -0.586992,0.3638 -0.220449,0.07292 -0.459976,0.09056 -0.687481,0.0443 a 1.246378,1.246378 0 0 1 -0.54583,-0.260174 1.1930626,1.1930626 0 0 1 -0.352169,-0.490815 1.1441901,1.1441901 0 0 1 -0.05815,-0.600713 1.0992379,1.0992379 0 0 1 0.263179,-0.542562 1.0846023,1.0846023 0 0 1 0.763926,-0.353868 1.0846023,1.0846023 0 0 1 0.783789,0.30774 1.2108344,1.2108344 0 0 0 -0.53812,-0.575232 1.2108344,1.2108344 0 0 0 -0.778692,-0.117738 c -0.214569,0.03986 -0.416853,0.1393 -0.584509,0.279253 -0.167526,0.139822 -0.300553,0.319761 -0.391764,0.518126 -0.182684,0.396598 -0.194836,0.858665 -0.08624,1.281529 0.09186,0.35805 0.268406,0.694799 0.515643,0.969347 0.247368,0.274679 0.565431,0.486111 0.916554,0.601497 0.508065,0.166872 1.081466,0.124926 1.559868,-0.11421 0.47827,-0.239135 0.855921,-0.672714 1.027366,-1.179341 a 3.4762158,3.4762158 0 0 0 0.03594,-2.102169 3.4762158,3.4762158 0 0 0 -1.190972,-1.732489 c -0.521262,-0.403655 -1.162877,-0.653766 -1.820956,-0.692316 -0.658079,-0.03855 -1.329618,0.13734 -1.875186,0.507542 -0.730734,0.495781 -1.204039,1.314068 -1.403449,2.174432 -0.199541,0.860364 -0.145311,1.762413 0.01751,2.630487 a 10.772453,10.772453 0 0 0 1.446703,3.709079 l -8.145755,-4.125017 z"
       id="path31" />
    <path
       style="marker:none"
       d="m 87.565,350.205 160.16,-161.22 -1.768,-13.082 z"
       filter="url(#n)"
       id="path32"
       transform="matrix(0.13067498,0,0,0.13067498,23.776717,53.468543)" />
    <circle
       r="21.529486"
       cy="84.585915"
       cx="35.704338"
       style="marker:none"
       fill="none"
       stroke="#000000"
       stroke-width="0.752427"
       stroke-linejoin="round"
       id="circle32" />
    <path
       style="stroke-width:0.130675;marker:none"
       d="m 47.716504,67.39928 c 0.87121,1.922882 1.101851,4.129591 0.646841,6.190858 -0.485588,2.200044 -1.711189,4.180423 -2.217554,6.375632 -0.496042,2.149342 -0.265009,4.459676 0.646841,6.46815 a 13.401765,13.401765 0 0 1 1.940262,-4.712401 c 0.574447,-0.871994 1.249122,-1.673816 1.840034,-2.534703 0.591043,-0.860756 1.104465,-1.799133 1.301523,-2.824539 0.191831,-0.996789 0.07422,-2.036831 -0.230641,-3.005002 -0.304734,-0.96804 -0.791237,-1.87009 -1.340072,-2.72392 A 20.063706,20.063706 0 0 0 47.716504,67.39928 Z"
       fill="#57e389"
       id="path33" />
    <path
       d="m 48.398758,68.558628 c 1.285842,1.705047 1.721643,4.020477 1.143406,6.076387 -0.47435,1.686361 -1.561435,3.127967 -2.254143,4.736968 -0.950922,2.20893 -1.12864,4.741934 -0.49552,7.061937 -0.444948,-2.373188 -0.166218,-4.877182 0.789538,-7.094606 0.668795,-1.551373 1.661533,-2.972464 2.0908,-4.606293 0.553539,-2.106089 0.06795,-4.459414 -1.274081,-6.174393 z"
       style="stroke-width:0.130675;marker:none"
       id="path34" />
    <path
       d="m 46.503971,83.226895 c 0.559811,-0.417115 1.143406,-0.72786 1.747647,-0.94478 -0.582549,0.177064 -1.165098,0.395422 -1.747647,0.94478 z m 0.104017,-1.259054 c 0.870557,-0.59052 1.777964,-1.030372 2.717778,-1.337327 -0.905969,0.250504 -1.811808,0.559681 -2.717778,1.337327 z m 0.450437,-1.651601 c 0.870557,-0.590651 1.777964,-1.030503 2.717778,-1.337327 -0.90597,0.250504 -1.811809,0.559681 -2.717778,1.337327 z m 0.610513,-1.425272 c 0.963075,-0.925571 2.761293,-1.672639 3.701238,-1.979595 -0.905969,0.250504 -2.754628,0.617047 -3.701238,1.979595 z m 1.145105,-2.259239 c 0.667488,-0.70068 1.800701,-0.920214 2.452116,-1.152554 -0.627893,0.18974 -1.728176,0.318847 -2.452116,1.152554 z m 0.612212,-1.443698 c 0.667358,-0.700809 1.107602,-0.897214 1.759016,-1.129554 -0.627893,0.18974 -1.173722,0.191831 -1.759016,1.129554 z m 0.34642,-1.466957 c 0.309438,-0.435148 0.634165,-0.735308 1.28558,-0.967648 -0.627893,0.189609 -1.046706,0.376474 -1.28558,0.967648 z"
       style="stroke-width:0.130675;marker:none"
       id="path35" />
  </g>
</svg>
