<?xml version="1.0" encoding="UTF-8" standalone="no"?>
<svg
   width="62"
   height="62"
   version="1"
   id="svg9"
   sodipodi:docname="org.kde.plasma.advancedradio.svg"
   inkscape:version="1.4 (unknown)"
   xmlns:inkscape="http://www.inkscape.org/namespaces/inkscape"
   xmlns:sodipodi="http://sodipodi.sourceforge.net/DTD/sodipodi-0.dtd"
   xmlns:xlink="http://www.w3.org/1999/xlink"
   xmlns="http://www.w3.org/2000/svg"
   xmlns:svg="http://www.w3.org/2000/svg">
  <defs
     id="defs9">
    <linearGradient
       id="linearGradient9"
       inkscape:collect="always">
      <stop
         style="stop-color:#00b2a7;stop-opacity:1;"
         offset="0"
         id="stop9" />
      <stop
         style="stop-color:#00e5d8;stop-opacity:1;"
         offset="1"
         id="stop10" />
    </linearGradient>
    <linearGradient
       inkscape:collect="always"
       xlink:href="#linearGradient9"
       id="linearGradient10"
       x1="40.528728"
       y1="43.685146"
       x2="6.6755581"
       y2="16.753342"
       gradientUnits="userSpaceOnUse" />
  </defs>
  <sodipodi:namedview
     id="namedview9"
     pagecolor="#ffffff"
     bordercolor="#000000"
     borderopacity="0.25"
     inkscape:showpageshadow="2"
     inkscape:pageopacity="0.0"
     inkscape:pagecheckerboard="0"
     inkscape:deskcolor="#d1d1d1"
     inkscape:zoom="8.0520833"
     inkscape:cx="17.945666"
     inkscape:cy="39.430789"
     inkscape:window-width="1920"
     inkscape:window-height="996"
     inkscape:window-x="0"
     inkscape:window-y="0"
     inkscape:window-maximized="1"
     inkscape:current-layer="svg9" />
  <g
     id="g9"
     transform="matrix(1.3684211,0,0,1.3658537,-1.8421064,-2.4634158)">
    <rect
       style="opacity:0.2"
       width="38"
       height="29"
       x="5"
       y="16"
       rx="4.0710001"
       ry="3.9549999"
       id="rect1" />
    <path
       style="fill:#7a92b7;fill-opacity:1"
       d="m 13.968755,4.0002434 a 1.9999941,1.9920389 0 0 0 -1.968549,2.0203763 v 9.9591983 a 1.9999941,1.9920389 0 1 0 3.999589,0 V 6.0206197 a 1.9999941,1.9920389 0 0 0 -2.03104,-2.0203763 z"
       id="path1" />
    <rect
       style="fill:#2d3c53;fill-opacity:1"
       width="6"
       height="3"
       x="11"
       y="13"
       rx="1.2"
       ry="1.5"
       id="rect2" />
    <rect
       style="fill:url(#linearGradient10)"
       width="38"
       height="29"
       x="5"
       y="15"
       rx="4.0710001"
       ry="3.9549999"
       id="rect3" />
    <circle
       style="opacity:0.5"
       cx="17.5"
       cy="29.5"
       r="9.5"
       id="circle3" />
    <circle
       style="opacity:0.2"
       cx="17.5"
       cy="30.5"
       r="5.5"
       id="circle4" />
    <circle
       style="fill:#ffb933;fill-opacity:1"
       cx="17.5"
       cy="29.5"
       r="5.5"
       id="circle5" />
    <path
       style="opacity:0.5"
       d="m 29.348057,28.00015 a 1.3292594,1.5 0 1 0 0,2.9997 h 9.303885 a 1.3292594,1.5 0 1 0 0,-2.9997 z"
       id="path5" />
    <path
       style="opacity:0.5"
       d="m 29.348057,23.00015 a 1.3292594,1.5 0 1 0 0,2.9997 h 9.303885 a 1.3292594,1.5 0 1 0 0,-2.9997 z"
       id="path6" />
    <path
       style="opacity:0.5"
       d="m 29.348057,33.00015 a 1.3292594,1.5 0 1 0 0,2.9997 h 9.303885 a 1.3292594,1.5 0 1 0 0,-2.9997 z"
       id="path7" />
    <path
       style="opacity:0.2;fill:#ffffff"
       d="M 9.0722656,15 C 6.8166941,15 5,16.76426 5,18.955078 v 1 C 5,17.76426 6.8166941,16 9.0722656,16 H 38.927734 C 41.183306,16 43,17.76426 43,19.955078 v -1 C 43,16.76426 41.183306,15 38.927734,15 Z"
       id="path8" />
    <path
       style="opacity:0.2;fill:#ffffff"
       d="M 17.5,24 A 5.5,5.5 0 0 0 12,29.5 5.5,5.5 0 0 0 12.025391,29.986328 5.5,5.5 0 0 1 17.5,25 5.5,5.5 0 0 1 22.974609,30.013672 5.5,5.5 0 0 0 23,29.5 5.5,5.5 0 0 0 17.5,24 Z"
       id="path9" />
  </g>
</svg>
