<?xml version="1.0" encoding="UTF-8" standalone="no"?>
<svg
   width="62"
   height="62"
   version="1.1"
   id="svg20"
   sodipodi:docname="org.gnome.design.Lorem.svg"
   inkscape:version="1.4 (unknown)"
   xmlns:inkscape="http://www.inkscape.org/namespaces/inkscape"
   xmlns:sodipodi="http://sodipodi.sourceforge.net/DTD/sodipodi-0.dtd"
   xmlns:xlink="http://www.w3.org/1999/xlink"
   xmlns="http://www.w3.org/2000/svg"
   xmlns:svg="http://www.w3.org/2000/svg">
  <defs
     id="defs20">
    <linearGradient
       id="linearGradient43"
       inkscape:collect="always">
      <stop
         style="stop-color:#566c80;stop-opacity:1;"
         offset="0"
         id="stop42" />
      <stop
         style="stop-color:#f0f2f5;stop-opacity:1;"
         offset="1"
         id="stop43" />
    </linearGradient>
    <linearGradient
       id="linearGradient41"
       inkscape:collect="always">
      <stop
         style="stop-color:#566c80;stop-opacity:1;"
         offset="0"
         id="stop40" />
      <stop
         style="stop-color:#f0f2f5;stop-opacity:1;"
         offset="1"
         id="stop41" />
    </linearGradient>
    <linearGradient
       id="linearGradient39"
       inkscape:collect="always">
      <stop
         style="stop-color:#566c80;stop-opacity:1;"
         offset="0"
         id="stop38" />
      <stop
         style="stop-color:#f0f2f5;stop-opacity:1;"
         offset="1"
         id="stop39" />
    </linearGradient>
    <linearGradient
       id="linearGradient36"
       x1="298.65201"
       y1="500"
       x2="298.65201"
       y2="494"
       gradientUnits="userSpaceOnUse">
      <stop
         offset="0.340681"
         stop-color="#2E2E41"
         id="stop35"
         style="stop-color:#c83771;stop-opacity:1" />
      <stop
         offset="1"
         stop-color="#566C80"
         id="stop36" />
    </linearGradient>
    <linearGradient
       id="linearGradient34"
       x1="298.65201"
       y1="500"
       x2="298.65201"
       y2="494"
       gradientUnits="userSpaceOnUse">
      <stop
         offset="0.340681"
         stop-color="#2E2E41"
         id="stop33"
         style="stop-color:#c83771;stop-opacity:1" />
      <stop
         offset="1"
         stop-color="#566C80"
         id="stop34" />
    </linearGradient>
    <linearGradient
       id="linearGradient32"
       x1="298.65201"
       y1="500"
       x2="298.65201"
       y2="494"
       gradientUnits="userSpaceOnUse">
      <stop
         offset="0.340681"
         stop-color="#2E2E41"
         id="stop31"
         style="stop-color:#c83771;stop-opacity:1" />
      <stop
         offset="1"
         stop-color="#566C80"
         id="stop32" />
    </linearGradient>
    <linearGradient
       id="linearGradient30"
       x1="298.65201"
       y1="500"
       x2="298.65201"
       y2="494"
       gradientUnits="userSpaceOnUse">
      <stop
         offset="0.340681"
         stop-color="#2E2E41"
         id="stop29"
         style="stop-color:#2a7fff;stop-opacity:1" />
      <stop
         offset="1"
         stop-color="#566C80"
         id="stop30" />
    </linearGradient>
    <linearGradient
       id="linearGradient28"
       x1="298.65201"
       y1="500"
       x2="298.65201"
       y2="494"
       gradientUnits="userSpaceOnUse">
      <stop
         offset="0.340681"
         stop-color="#2E2E41"
         id="stop27"
         style="stop-color:#2a7fff;stop-opacity:1" />
      <stop
         offset="1"
         stop-color="#566C80"
         id="stop28" />
    </linearGradient>
    <linearGradient
       id="linearGradient26"
       x1="298.65201"
       y1="500"
       x2="298.65201"
       y2="494"
       gradientUnits="userSpaceOnUse">
      <stop
         offset="0.340681"
         stop-color="#2E2E41"
         id="stop25"
         style="stop-color:#2a7fff;stop-opacity:1" />
      <stop
         offset="1"
         stop-color="#566C80"
         id="stop26" />
    </linearGradient>
    <linearGradient
       inkscape:collect="always"
       xlink:href="#linearGradient26"
       id="linearGradient1"
       gradientUnits="userSpaceOnUse"
       x1="298.65201"
       y1="500"
       x2="298.65201"
       y2="494"
       gradientTransform="matrix(0.78483032,0,0,0.80966453,-185.61359,-386.1129)" />
    <linearGradient
       id="paint422_linear_890_11"
       x1="298.65201"
       y1="500"
       x2="298.65201"
       y2="494"
       gradientUnits="userSpaceOnUse">
      <stop
         offset="0.340681"
         stop-color="#2E2E41"
         id="stop1586" />
      <stop
         offset="1"
         stop-color="#566C80"
         id="stop1587" />
    </linearGradient>
    <linearGradient
       inkscape:collect="always"
       xlink:href="#linearGradient30"
       id="linearGradient20"
       gradientUnits="userSpaceOnUse"
       gradientTransform="matrix(0.78483032,0,0,0.80966453,-177.76527,-386.1129)"
       x1="298.65201"
       y1="500"
       x2="298.65201"
       y2="494" />
    <linearGradient
       inkscape:collect="always"
       xlink:href="#linearGradient28"
       id="linearGradient21"
       gradientUnits="userSpaceOnUse"
       gradientTransform="matrix(0.78483032,0,0,0.80966453,-177.76527,-386.1129)"
       x1="298.65201"
       y1="500"
       x2="298.65201"
       y2="494" />
    <linearGradient
       inkscape:collect="always"
       xlink:href="#linearGradient32"
       id="linearGradient23"
       gradientUnits="userSpaceOnUse"
       gradientTransform="matrix(0.66946135,0,0,0.69064495,-143.15777,-297.51366)"
       x1="298.65201"
       y1="500"
       x2="298.65201"
       y2="494" />
    <linearGradient
       inkscape:collect="always"
       xlink:href="#linearGradient34"
       id="linearGradient24"
       gradientUnits="userSpaceOnUse"
       gradientTransform="matrix(0.66946135,0,0,0.69064495,-143.15777,-297.51366)"
       x1="298.65201"
       y1="500"
       x2="298.65201"
       y2="494" />
    <linearGradient
       inkscape:collect="always"
       xlink:href="#linearGradient36"
       id="linearGradient25"
       gradientUnits="userSpaceOnUse"
       gradientTransform="matrix(0.66946135,0,0,0.69064495,-149.85244,-297.51366)"
       x1="298.65201"
       y1="500"
       x2="298.65201"
       y2="494" />
    <linearGradient
       id="linearGradient2"
       inkscape:collect="always">
      <stop
         style="stop-color:#566c80;stop-opacity:1;"
         offset="0"
         id="stop11" />
      <stop
         style="stop-color:#f0f2f5;stop-opacity:1;"
         offset="1"
         id="stop12" />
    </linearGradient>
    <linearGradient
       inkscape:collect="always"
       xlink:href="#linearGradient41"
       id="linearGradient17"
       x1="27"
       y1="38.479176"
       x2="27"
       y2="34.479176"
       gradientUnits="userSpaceOnUse"
       gradientTransform="translate(7.249489,2.053422)" />
    <linearGradient
       inkscape:collect="always"
       xlink:href="#linearGradient2"
       id="linearGradient12"
       x1="22.5"
       y1="54.479176"
       x2="22.5"
       y2="50.479176"
       gradientUnits="userSpaceOnUse"
       gradientTransform="translate(16.620342,-28.09951)" />
    <linearGradient
       inkscape:collect="always"
       xlink:href="#linearGradient43"
       id="linearGradient37"
       gradientUnits="userSpaceOnUse"
       gradientTransform="translate(16.620342,-21.023044)"
       x1="22.5"
       y1="54.479176"
       x2="22.5"
       y2="50.479176" />
    <linearGradient
       inkscape:collect="always"
       xlink:href="#linearGradient39"
       id="linearGradient38"
       gradientUnits="userSpaceOnUse"
       gradientTransform="translate(-0.42090614,-6.870112)"
       x1="22.5"
       y1="54.479176"
       x2="22.5"
       y2="50.479176" />
  </defs>
  <sodipodi:namedview
     id="namedview20"
     pagecolor="#ffffff"
     bordercolor="#000000"
     borderopacity="0.25"
     inkscape:showpageshadow="2"
     inkscape:pageopacity="0.0"
     inkscape:pagecheckerboard="0"
     inkscape:deskcolor="#d1d1d1"
     inkscape:zoom="8.5405241"
     inkscape:cx="32.023796"
     inkscape:cy="35.770639"
     inkscape:window-width="1920"
     inkscape:window-height="996"
     inkscape:window-x="0"
     inkscape:window-y="0"
     inkscape:window-maximized="1"
     inkscape:current-layer="svg20" />
  <path
     style="opacity:0.2;stroke-width:0.982303"
     d="m 3.5,45.24561 v 8.5965 C 3.5,56.656117 5.8431402,59 8.6562506,59 H 17.250005 V 53.10526 H 9.3928577 v -7.85965 z m 49.107149,0 v 7.85965 H 44.750005 V 59 h 8.593749 C 56.156864,59 58.5,56.656117 58.5,53.84211 v -8.5965 z"
     id="path1" />
  <path
     style="fill:#e4e4e4;stroke-width:0.982303"
     d="m 9.915265,5.947368 h 42.169479 c 1.916248,0 3.468836,1.8928755 3.468836,4.225486 v 40.671835 c 0,2.332613 -1.552588,4.225491 -3.468836,4.225491 H 9.915265 c -1.9162544,0 -3.4688366,-1.892878 -3.4688366,-4.225491 V 10.172854 c 0,-2.3326105 1.5525822,-4.225486 3.4688366,-4.225486 z m 0,0"
     id="path2" />
  <path
     style="opacity:0.1;stroke-width:0.982303"
     d="M 8.6562506,3.982456 C 5.8431402,3.982456 3.5,6.3263434 3.5,9.14035 v 8.59649 H 9.3928577 V 9.87719 H 17.250005 V 3.982456 Z m 36.0937544,0 V 9.87719 h 7.857144 v 7.85965 H 58.5 V 9.14035 c 0,-2.8140066 -2.343136,-5.157894 -5.156246,-5.157894 z"
     id="path3" />
  <path
     style="fill:#c83771;stroke-width:0.982303"
     d="m 52.607149,44.26316 v 7.85965 h -7.857144 v 5.89473 h 8.593749 c 2.81311,0 5.156246,-2.343883 5.156246,-5.15789 v -8.59649 z"
     id="path4" />
  <path
     style="fill:#c83771;stroke-width:0.982303"
     d="m 3.5,44.26316 v 8.59649 c 0,2.814007 2.3431402,5.15789 5.1562506,5.15789 H 17.250005 V 52.12281 H 9.3928577 v -7.85965 z"
     id="path5" />
  <path
     style="fill:#c83771;stroke-width:0.982303"
     d="m 44.750005,3 v 5.894737 h 7.857144 V 16.75439 H 58.5 V 8.157895 C 58.5,5.3438874 56.156864,3 53.343754,3 Z"
     id="path6" />
  <path
     style="fill:#c83771;stroke-width:0.982303"
     d="M 8.6562506,3 C 5.8431402,3 3.5,5.3438874 3.5,8.157895 V 16.75439 H 9.3928577 V 8.894737 H 17.250005 V 3 Z"
     id="path7" />
  <g
     fill="#3584e4"
     transform="matrix(0.5612245,0,0,0.59649127,-6.6020419,-7.1052631)"
     id="g8" />
  <rect
     style="opacity:0.2;stroke-width:0.982303"
     width="27.500004"
     height="0.98245597"
     x="17.250006"
     y="55.070168"
     id="rect19" />
  <rect
     style="opacity:0.2;fill:#ffffff;stroke-width:0.982303"
     width="27.500004"
     height="0.98245597"
     x="17.250006"
     y="5.9473667"
     id="rect20" />
  <path
     style="opacity:0.2;fill:#ffffff;stroke-width:0.982303"
     d="M 8.6562506,3 C 5.8431402,3 3.5,5.3438874 3.5,8.157895 V 9.14035 C 3.5,6.326341 5.8431402,3.982456 8.6562506,3.982456 H 17.250005 V 3 Z M 44.750005,3 v 0.982456 h 8.593749 C 56.156864,3.982456 58.5,6.326341 58.5,9.14035 V 8.157895 C 58.5,5.3438874 56.156864,3 53.343754,3 Z"
     id="path20" />
  <text
     xml:space="preserve"
     style="font-size:21.3333px;font-family:'Blush Asliring';-inkscape-font-specification:'Blush Asliring';text-align:start;writing-mode:lr-tb;direction:ltr;text-anchor:start;fill:#0066ff;stroke:#0066ff;stroke-width:0.639;stroke-linecap:round;stroke-linejoin:round;paint-order:fill markers stroke;fill-opacity:1;stroke-opacity:1"
     x="11.020685"
     y="30.671568"
     id="text20"><tspan
       sodipodi:role="line"
       id="tspan20"
       x="11.020685"
       y="30.671568">L</tspan></text>
  <path
     d="m 31.784408,13.8613 c -0.867236,0 -1.56966,0.724639 -1.56966,1.61935 v 1.619309 c 0,0.894668 0.702424,1.619341 1.56966,1.619341 h 1.56966 c 0.86724,0 1.56966,-0.724673 1.56966,-1.619341 V 15.48065 c 0,-0.894711 -0.70242,-1.61935 -1.56966,-1.61935 z"
     id="path412"
     style="fill:url(#linearGradient20);stroke-width:0.797161" />
  <path
     d="m 39.632711,13.8613 c -0.867236,0 -1.56966,0.724639 -1.56966,1.61935 v 1.619309 c 0,0.894668 0.702424,1.619341 1.56966,1.619341 h 1.569656 c 0.867228,0 1.569677,-0.724673 1.569677,-1.619341 V 15.48065 c 0,-0.894711 -0.702449,-1.61935 -1.569677,-1.61935 z"
     id="path413"
     style="fill:url(#linearGradient21);stroke-width:0.797161" />
  <path
     d="m 47.481016,13.8613 c -0.867233,0 -1.569648,0.724639 -1.569648,1.61935 v 1.619309 c 0,0.894668 0.702415,1.619341 1.569648,1.619341 h 1.569667 c 0.86724,0 1.569659,-0.724673 1.569659,-1.619341 V 15.48065 c 0,-0.894711 -0.702419,-1.61935 -1.569659,-1.61935 z"
     id="path415"
     style="fill:url(#linearGradient1);stroke-width:0.797161" />
  <path
     d="m 35.588421,43.664902 c -0.739754,0 -1.338932,0.618123 -1.338932,1.381303 v 1.38129 c 0,0.763137 0.599178,1.381293 1.338932,1.381293 h 1.338901 c 0.739757,0 1.338932,-0.618157 1.338932,-1.381293 v -1.38129 c 0,-0.76318 -0.599175,-1.381303 -1.338932,-1.381303 z"
     id="path412-5"
     style="fill:url(#linearGradient23);stroke-width:0.679969" />
  <path
     d="m 42.283021,43.664902 c -0.739755,0 -1.338923,0.618123 -1.338923,1.381303 v 1.38129 c 0,0.763137 0.599168,1.381293 1.338923,1.381293 h 1.338927 c 0.739744,0 1.338932,-0.618157 1.338932,-1.381293 v -1.38129 c 0,-0.76318 -0.599188,-1.381303 -1.338932,-1.381303 z"
     id="path413-3"
     style="fill:url(#linearGradient24);stroke-width:0.679969" />
  <path
     d="m 48.97765,43.664902 c -0.73975,0 -1.338919,0.618123 -1.338919,1.381303 v 1.38129 c 0,0.763137 0.599169,1.381293 1.338919,1.381293 h 1.338909 c 0.739758,0 1.33893,-0.618157 1.33893,-1.381293 v -1.38129 c 0,-0.76318 -0.599172,-1.381303 -1.33893,-1.381303 z"
     id="path415-5"
     style="fill:url(#linearGradient25);stroke-width:0.679969" />
  <path
     d="m 18.249489,38.532596 c 0,-1.105 0.895,-2 2,-2 h 28 c 1.105,0 2,0.895 2,2 0,1.105 -0.895,2 -2,2 h -28 c -1.105,0 -2,-0.895 -2,-2 z"
     id="path528"
     style="fill:url(#linearGradient17)" />
  <path
     d="m 27.620342,24.379664 c 0,-1.105 0.895,-2 2,-2 h 19 c 1.105,0 2,0.895 2,2 0,1.105 -0.895,2 -2,2 h -19 c -1.105,0 -2,-0.895 -2,-2 z"
     id="path530"
     style="fill:url(#linearGradient12)" />
  <path
     d="m 27.620342,31.45613 c 0,-1.105 0.895,-2 2,-2 h 19 c 1.105,0 2,0.895 2,2 0,1.105 -0.895,2 -2,2 h -19 c -1.105,0 -2,-0.895 -2,-2 z"
     id="path530-1"
     style="fill:url(#linearGradient37)" />
  <path
     d="m 10.579094,45.609062 c 0,-1.105 0.895,-2 2,-2 h 19 c 1.105,0 2,0.895 2,2 0,1.105 -0.895,2 -2,2 h -19 c -1.105,0 -2,-0.895 -2,-2 z"
     id="path530-1-9"
     style="fill:url(#linearGradient38)" />
</svg>
