<?xml version="1.0" encoding="UTF-8" standalone="no"?>
<svg
   width="62"
   height="62"
   viewBox="0 0 16.404166 16.404167"
   version="1.1"
   id="svg1443"
   inkscape:version="1.4 (unknown)"
   sodipodi:docname="org.gnome.design.SymbolicPreview.svg"
   xmlns:inkscape="http://www.inkscape.org/namespaces/inkscape"
   xmlns:sodipodi="http://sodipodi.sourceforge.net/DTD/sodipodi-0.dtd"
   xmlns:xlink="http://www.w3.org/1999/xlink"
   xmlns="http://www.w3.org/2000/svg"
   xmlns:svg="http://www.w3.org/2000/svg"
   xmlns:rdf="http://www.w3.org/1999/02/22-rdf-syntax-ns#"
   xmlns:cc="http://creativecommons.org/ns#"
   xmlns:dc="http://purl.org/dc/elements/1.1/">
  <defs
     id="defs1437">
    <linearGradient
       gradientTransform="matrix(0.4711726,0,0,0.47114666,-53.953909,-18.000765)"
       gradientUnits="userSpaceOnUse"
       y2="70.679932"
       x2="132.21078"
       y1="42.151531"
       x1="132.21078"
       id="linearGradient1632"
       xlink:href="#linearGradient1630"
       inkscape:collect="always" />
    <linearGradient
       id="linearGradient1630"
       inkscape:collect="always">
      <stop
         id="stop1626"
         offset="0"
         style="stop-color:#fafafc;stop-opacity:1" />
      <stop
         id="stop1628"
         offset="1"
         style="stop-color:#e2e6ea;stop-opacity:1" />
    </linearGradient>
    <filter
       color-interpolation-filters="sRGB"
       height="1.1311001"
       width="1.1106"
       y="-0.065563001"
       x="-0.055319"
       id="c-9">
      <feGaussianBlur
         id="feGaussianBlur1093"
         stdDeviation="1.1062912" />
    </filter>
    <linearGradient
       gradientUnits="userSpaceOnUse"
       gradientTransform="matrix(0.13235,0,0,0.13075,-32.379,1.0873)"
       y2="269.48999"
       y1="235.14999"
       x2="657.65002"
       x1="319.20999"
       id="a-12">
      <stop
         id="stop1076"
         offset="0"
         stop-color="#e54c18" />
      <stop
         id="stop1078"
         offset="1"
         stop-color="#fec350" />
    </linearGradient>
    <linearGradient
       xlink:href="#a-7"
       id="c-36"
       x1="8.6850004"
       x2="8.7620001"
       y1="16.868999"
       y2="4.5339999"
       gradientTransform="matrix(1.0634748,0,0,1.0634748,-0.80999368,1.8113865)"
       gradientUnits="userSpaceOnUse" />
    <linearGradient
       id="a-7">
      <stop
         offset="0"
         style="stop-color:#2369ff;stop-opacity:1;"
         id="stop8" />
      <stop
         offset="1"
         style="stop-color:#7fa8ff;stop-opacity:1"
         id="stop10" />
    </linearGradient>
  </defs>
  <sodipodi:namedview
     id="base"
     pagecolor="#ffffff"
     bordercolor="#666666"
     borderopacity="1.0"
     inkscape:pageopacity="0.0"
     inkscape:pageshadow="2"
     inkscape:zoom="11.2"
     inkscape:cx="25.133929"
     inkscape:cy="31.5625"
     inkscape:document-units="px"
     inkscape:current-layer="layer1"
     inkscape:document-rotation="0"
     showgrid="false"
     units="px"
     inkscape:window-width="1920"
     inkscape:window-height="996"
     inkscape:window-x="0"
     inkscape:window-y="0"
     inkscape:window-maximized="1"
     inkscape:showpageshadow="2"
     inkscape:pagecheckerboard="0"
     inkscape:deskcolor="#d1d1d1">
    <inkscape:grid
       id="grid1"
       units="px"
       originx="0"
       originy="0"
       spacingx="0.26458332"
       spacingy="0.26458334"
       empcolor="#0099e5"
       empopacity="0.30196078"
       color="#0099e5"
       opacity="0.14901961"
       empspacing="5"
       enabled="true"
       visible="false" />
  </sodipodi:namedview>
  <metadata
     id="metadata1440">
    <rdf:RDF>
      <cc:Work
         rdf:about="">
        <dc:format>image/svg+xml</dc:format>
        <dc:type
           rdf:resource="http://purl.org/dc/dcmitype/StillImage" />
      </cc:Work>
    </rdf:RDF>
  </metadata>
  <g
     inkscape:label="Capa 1"
     inkscape:groupmode="layer"
     id="layer1">
    <g
       style="opacity:0.295"
       transform="matrix(0.47117252,0,0,0.47114656,-31.727411,-18.000764)"
       id="g1702">
      <rect
         ry="6.6098609"
         rx="6.6098609"
         y="40.709618"
         x="69.839508"
         height="29.810888"
         width="29.810888"
         id="rect1634"
         style="fill:none;fill-opacity:1;stroke:#000000;stroke-width:0.1;stroke-linecap:round;stroke-linejoin:round;stroke-miterlimit:4;stroke-dasharray:none;stroke-opacity:0.02" />
      <rect
         style="fill:none;fill-opacity:1;stroke:#000000;stroke-width:0.2;stroke-linecap:round;stroke-linejoin:round;stroke-miterlimit:4;stroke-dasharray:none;stroke-opacity:0.02"
         id="rect1638"
         width="29.810888"
         height="29.810888"
         x="69.839508"
         y="40.709618"
         rx="6.6098609"
         ry="6.6098609" />
      <rect
         ry="6.6098609"
         rx="6.6098609"
         y="40.709618"
         x="69.839508"
         height="29.810888"
         width="29.810888"
         id="rect1640"
         style="fill:none;fill-opacity:1;stroke:#000000;stroke-width:0.3;stroke-linecap:round;stroke-linejoin:round;stroke-miterlimit:4;stroke-dasharray:none;stroke-opacity:0.02" />
      <rect
         style="fill:none;fill-opacity:1;stroke:#000000;stroke-width:0.4;stroke-linecap:round;stroke-linejoin:round;stroke-miterlimit:4;stroke-dasharray:none;stroke-opacity:0.02"
         id="rect1642"
         width="29.810888"
         height="29.810888"
         x="69.839508"
         y="40.709618"
         rx="6.6098609"
         ry="6.6098609" />
      <rect
         ry="6.6098609"
         rx="6.6098609"
         y="40.709618"
         x="69.839508"
         height="29.810888"
         width="29.810888"
         id="rect1644"
         style="fill:none;fill-opacity:1;stroke:#000000;stroke-width:0.5;stroke-linecap:round;stroke-linejoin:round;stroke-miterlimit:4;stroke-dasharray:none;stroke-opacity:0.02" />
      <rect
         style="fill:none;fill-opacity:1;stroke:#000000;stroke-width:0.6;stroke-linecap:round;stroke-linejoin:round;stroke-miterlimit:4;stroke-dasharray:none;stroke-opacity:0.02"
         id="rect1646"
         width="29.810888"
         height="29.810888"
         x="69.839508"
         y="40.709618"
         rx="6.6098609"
         ry="6.6098609" />
      <rect
         ry="6.6098609"
         rx="6.6098609"
         y="40.709618"
         x="69.839508"
         height="29.810888"
         width="29.810888"
         id="rect1648"
         style="fill:none;fill-opacity:1;stroke:#000000;stroke-width:0.7;stroke-linecap:round;stroke-linejoin:round;stroke-miterlimit:4;stroke-dasharray:none;stroke-opacity:0.02" />
      <rect
         style="fill:none;fill-opacity:1;stroke:#000000;stroke-width:0.8;stroke-linecap:round;stroke-linejoin:round;stroke-miterlimit:4;stroke-dasharray:none;stroke-opacity:0.02"
         id="rect1650"
         width="29.810888"
         height="29.810888"
         x="69.839508"
         y="40.709618"
         rx="6.6098609"
         ry="6.6098609" />
      <rect
         ry="6.6098609"
         rx="6.6098609"
         y="40.709618"
         x="69.839508"
         height="29.810888"
         width="29.810888"
         id="rect1652"
         style="fill:none;fill-opacity:1;stroke:#000000;stroke-width:1;stroke-linecap:round;stroke-linejoin:round;stroke-miterlimit:4;stroke-dasharray:none;stroke-opacity:0.02" />
      <rect
         style="fill:none;fill-opacity:1;stroke:#000000;stroke-width:1.2;stroke-linecap:round;stroke-linejoin:round;stroke-miterlimit:4;stroke-dasharray:none;stroke-opacity:0.02"
         id="rect1654"
         width="29.810888"
         height="29.810888"
         x="69.839508"
         y="40.709618"
         rx="6.6098609"
         ry="6.6098609" />
      <rect
         ry="6.6098609"
         rx="6.6098609"
         y="40.709618"
         x="69.839508"
         height="29.810888"
         width="29.810888"
         id="rect1656"
         style="fill:none;fill-opacity:1;stroke:#000000;stroke-width:1.4;stroke-linecap:round;stroke-linejoin:round;stroke-miterlimit:4;stroke-dasharray:none;stroke-opacity:0.02" />
      <rect
         style="fill:none;fill-opacity:1;stroke:#000000;stroke-width:1.6;stroke-linecap:round;stroke-linejoin:round;stroke-miterlimit:4;stroke-dasharray:none;stroke-opacity:0.02"
         id="rect1658"
         width="29.810888"
         height="29.810888"
         x="69.839508"
         y="40.709618"
         rx="6.6098609"
         ry="6.6098609" />
      <rect
         ry="6.6098609"
         rx="6.6098609"
         y="40.709618"
         x="69.839508"
         height="29.810888"
         width="29.810888"
         id="rect1660"
         style="fill:none;fill-opacity:1;stroke:#000000;stroke-width:1.8;stroke-linecap:round;stroke-linejoin:round;stroke-miterlimit:4;stroke-dasharray:none;stroke-opacity:0.02" />
      <rect
         style="fill:none;fill-opacity:1;stroke:#000000;stroke-width:2;stroke-linecap:round;stroke-linejoin:round;stroke-miterlimit:4;stroke-dasharray:none;stroke-opacity:0.02"
         id="rect1662"
         width="29.810888"
         height="29.810888"
         x="69.839508"
         y="40.709618"
         rx="6.6098609"
         ry="6.6098609" />
      <rect
         ry="6.6098609"
         rx="6.6098609"
         y="40.709618"
         x="69.839508"
         height="29.810888"
         width="29.810888"
         id="rect1664"
         style="fill:none;fill-opacity:1;stroke:#000000;stroke-width:2.2;stroke-linecap:round;stroke-linejoin:round;stroke-miterlimit:4;stroke-dasharray:none;stroke-opacity:0.02" />
      <rect
         style="fill:none;fill-opacity:1;stroke:#000000;stroke-width:2.6;stroke-linecap:round;stroke-linejoin:round;stroke-miterlimit:4;stroke-dasharray:none;stroke-opacity:0.02"
         id="rect1666"
         width="29.810888"
         height="29.810888"
         x="69.839508"
         y="40.709618"
         rx="6.6098609"
         ry="6.6098609" />
      <rect
         ry="6.6098609"
         rx="6.6098609"
         y="40.709618"
         x="69.839508"
         height="29.810888"
         width="29.810888"
         id="rect1668"
         style="fill:none;fill-opacity:1;stroke:#000000;stroke-width:3;stroke-linecap:round;stroke-linejoin:round;stroke-miterlimit:4;stroke-dasharray:none;stroke-opacity:0.02" />
      <rect
         style="fill:none;fill-opacity:1;stroke:#000000;stroke-width:3.4;stroke-linecap:round;stroke-linejoin:round;stroke-miterlimit:4;stroke-dasharray:none;stroke-opacity:0.02"
         id="rect1670"
         width="29.810888"
         height="29.810888"
         x="69.839508"
         y="40.709618"
         rx="6.6098609"
         ry="6.6098609" />
      <rect
         ry="6.6098609"
         rx="6.6098609"
         y="40.709618"
         x="69.839508"
         height="29.810888"
         width="29.810888"
         id="rect1672"
         style="fill:none;fill-opacity:1;stroke:#000000;stroke-width:3.8;stroke-linecap:round;stroke-linejoin:round;stroke-miterlimit:4;stroke-dasharray:none;stroke-opacity:0.02" />
      <rect
         style="fill:none;fill-opacity:1;stroke:#000000;stroke-width:4.2;stroke-linecap:round;stroke-linejoin:round;stroke-miterlimit:4;stroke-dasharray:none;stroke-opacity:0.02"
         id="rect1674"
         width="29.810888"
         height="29.810888"
         x="69.839508"
         y="40.709618"
         rx="6.6098609"
         ry="6.6098609" />
      <rect
         ry="6.6098609"
         rx="6.6098609"
         y="40.709618"
         x="69.839508"
         height="29.810888"
         width="29.810888"
         id="rect1676"
         style="fill:none;fill-opacity:1;stroke:#000000;stroke-width:4.6;stroke-linecap:round;stroke-linejoin:round;stroke-miterlimit:4;stroke-dasharray:none;stroke-opacity:0.02" />
      <rect
         style="fill:none;fill-opacity:1;stroke:#000000;stroke-width:5;stroke-linecap:round;stroke-linejoin:round;stroke-miterlimit:4;stroke-dasharray:none;stroke-opacity:0.02"
         id="rect1678"
         width="29.810888"
         height="29.810888"
         x="69.839508"
         y="40.709618"
         rx="6.6098609"
         ry="6.6098609" />
    </g>
    <rect
       ry="3.1142132"
       rx="3.1143851"
       y="1.1794344"
       x="1.1790471"
       height="14.045296"
       width="14.04607"
       id="rect849"
       style="fill:url(#linearGradient1632);fill-opacity:1;stroke-width:1.29783;stroke-linecap:round;stroke-linejoin:round" />
    <g
       id="g1"
       transform="translate(0.59415795,-4.1204936)">
      <path
         style="opacity:0.1;stroke-width:0.264446"
         d="m 10.915249,7.2952228 c -0.9572292,0 -1.7197561,0.789145 -1.7197561,1.71805 0,0.928905 0.7625279,1.7180502 1.7197561,1.7180502 0.957231,0 1.719758,-0.7891442 1.719758,-1.7180502 0,-0.928905 -0.762527,-1.71805 -1.719758,-1.71805 z m -7.4081828,0.0078 c -0.5116496,0 -0.9260228,0.433672 -0.9260228,0.968467 0,0.278624 0.1126106,0.530005 0.2924827,0.706735 H 2.872997 L 4.279601,10.395306 5.7280619,8.9782248 c 0.179897,-0.176731 0.2924953,-0.428111 0.2924953,-0.706735 0,-0.534797 -0.4143733,-0.968468 -0.926023,-0.968468 -0.3367124,0 -0.6319582,0.188277 -0.7937339,0.469779 -0.161776,-0.28151 -0.457022,-0.469787 -0.7937341,-0.469787 z m 7.4081828,1.02319 c 0.370801,0 0.687801,0.284548 0.687801,0.687116 0,0.402568 -0.317,0.687116 -0.687801,0.687116 -0.370799,0 -0.687799,-0.284547 -0.687799,-0.687116 0,-0.402568 0.317001,-0.687116 0.687799,-0.687116 z M 4.7002511,13.367296 C 4.234628,13.357605 3.992729,13.917941 4.3194033,14.249551 l 0.6743641,0.704153 H 3.0306193 c -0.5997051,-0.03255 -0.5997051,1.088778 0,1.056229 h 1.9631481 l -0.6743641,0.704105 c -0.512651,0.499844 0.2727044,1.250355 0.74981,0.716543 L 6.9357282,15.481772 5.0692133,13.532962 C 4.9737159,13.430155 4.8406089,13.370371 4.7002511,13.367249 Z m 5.1566867,0.535858 c -0.365345,0 -0.6614449,0.295806 -0.6614449,0.660788 0,0.364982 0.2960999,0.660788 0.6614449,0.660788 0.3653452,0 0.6614452,-0.295806 0.6614452,-0.660788 0,-0.364982 -0.2961,-0.660788 -0.6614452,-0.660788 z m 2.1166242,0 c -0.365345,0 -0.661444,0.295806 -0.661444,0.660788 0,0.364982 0.296099,0.660788 0.661444,0.660788 0.365345,0 0.661445,-0.295806 0.661445,-0.660788 0,-0.364982 -0.2961,-0.660788 -0.661445,-0.660788 z m -2.1166242,2.114522 c -0.365345,0 -0.6614449,0.295806 -0.6614449,0.660789 0,0.364982 0.2960999,0.660788 0.6614449,0.660788 0.3653452,0 0.6614452,-0.295806 0.6614452,-0.660788 0,-0.364983 -0.2961,-0.660789 -0.6614452,-0.660789 z m 2.1166242,0 c -0.365345,0 -0.661444,0.295806 -0.661444,0.660789 0,0.364982 0.296099,0.660788 0.661444,0.660788 0.365345,0 0.661445,-0.295806 0.661445,-0.660788 0,-0.364983 -0.2961,-0.660789 -0.661445,-0.660789 z"
         id="path2" />
      <path
         style="fill:#2d3d53;stroke-width:0.264446;fill-opacity:1"
         d="m 10.915249,7.0309078 c -0.9572292,0 -1.7197561,0.789145 -1.7197561,1.71805 0,0.928905 0.7625279,1.7180492 1.7197561,1.7180492 0.957231,0 1.719758,-0.7891442 1.719758,-1.7180492 0,-0.928906 -0.762527,-1.71805 -1.719758,-1.71805 z m -7.4081828,0.0078 c -0.5116496,0 -0.9260228,0.433672 -0.9260228,0.968468 0,0.278624 0.1126106,0.530004 0.2924827,0.706735 H 2.872997 L 4.279601,10.130992 5.7280619,8.7139108 c 0.179897,-0.176731 0.2924953,-0.428112 0.2924953,-0.706736 0,-0.534796 -0.4143733,-0.968468 -0.926023,-0.968468 -0.3367124,0 -0.6319582,0.188278 -0.7937339,0.46978 -0.161776,-0.28151 -0.457022,-0.469788 -0.7937341,-0.469787 z m 7.4081828,1.02319 c 0.370801,0 0.687801,0.284549 0.687801,0.687116 0,0.402569 -0.317,0.687117 -0.687801,0.687117 -0.370799,0 -0.687799,-0.284548 -0.687799,-0.687117 0,-0.402567 0.317001,-0.687116 0.687799,-0.687116 z M 4.7002511,13.10299 C 4.234628,13.09329 3.992729,13.653635 4.3194033,13.985245 l 0.6743641,0.704152 H 3.0306193 c -0.5997051,-0.03255 -0.5997051,1.088778 0,1.056229 h 1.9631481 l -0.6743641,0.704105 c -0.512651,0.499844 0.2727044,1.250354 0.74981,0.716543 L 6.9357282,15.217464 5.0692133,13.268655 C 4.9737159,13.165839 4.8406089,13.106056 4.7002511,13.102934 Z m 5.1566867,0.535857 c -0.365345,0 -0.6614449,0.295806 -0.6614449,0.660789 0,0.364982 0.2960999,0.660788 0.6614449,0.660788 0.3653452,0 0.6614452,-0.295806 0.6614452,-0.660788 0,-0.364983 -0.2961,-0.660789 -0.6614452,-0.660789 z m 2.1166242,0 c -0.365345,0 -0.661444,0.295806 -0.661444,0.660789 0,0.364982 0.296099,0.660788 0.661444,0.660788 0.365345,0 0.661445,-0.295806 0.661445,-0.660788 0,-0.364983 -0.2961,-0.660789 -0.661445,-0.660789 z M 9.8569378,15.75337 c -0.365345,0 -0.6614449,0.295806 -0.6614449,0.660788 0,0.364982 0.2960999,0.660788 0.6614449,0.660788 0.3653452,0 0.6614452,-0.295806 0.6614452,-0.660788 0,-0.364982 -0.2961,-0.660788 -0.6614452,-0.660788 z m 2.1166242,0 c -0.365345,0 -0.661444,0.295806 -0.661444,0.660788 0,0.364982 0.296099,0.660788 0.661444,0.660788 0.365345,0 0.661445,-0.295806 0.661445,-0.660788 0,-0.364982 -0.2961,-0.660788 -0.661445,-0.660788 z"
         id="path3-3" />
    </g>
  </g>
</svg>
