<?xml version="1.0" encoding="UTF-8" standalone="no"?>
<svg
   width="62"
   height="62"
   version="1.1"
   id="svg10"
   sodipodi:docname="org.fdroid.Repomaker.svg"
   inkscape:version="1.4 (unknown)"
   xmlns:inkscape="http://www.inkscape.org/namespaces/inkscape"
   xmlns:sodipodi="http://sodipodi.sourceforge.net/DTD/sodipodi-0.dtd"
   xmlns:xlink="http://www.w3.org/1999/xlink"
   xmlns="http://www.w3.org/2000/svg"
   xmlns:svg="http://www.w3.org/2000/svg">
  <defs
     id="defs10">
    <linearGradient
       id="linearGradient17"
       inkscape:collect="always">
      <stop
         style="stop-color:#1460ab;stop-opacity:1;"
         offset="0"
         id="stop17" />
      <stop
         style="stop-color:#165fa6;stop-opacity:1;"
         offset="0.12480942"
         id="stop1" />
      <stop
         style="stop-color:#257bd0;stop-opacity:1;"
         offset="0.48673481"
         id="stop19" />
      <stop
         style="stop-color:#2b80d4;stop-opacity:1;"
         offset="0.81249964"
         id="stop20" />
      <stop
         style="stop-color:#4a9ae8;stop-opacity:1;"
         offset="1"
         id="stop18" />
    </linearGradient>
    <linearGradient
       id="linearGradient12"
       inkscape:collect="always">
      <stop
         style="stop-color:#85b300;stop-opacity:1;"
         offset="0"
         id="stop12" />
      <stop
         style="stop-color:#f7ffe0;stop-opacity:1;"
         offset="1"
         id="stop13" />
    </linearGradient>
    <linearGradient
       id="linearGradient10"
       inkscape:collect="always">
      <stop
         style="stop-color:#85b300;stop-opacity:1;"
         offset="0"
         id="stop10" />
      <stop
         style="stop-color:#aeea00;stop-opacity:1;"
         offset="1"
         id="stop11" />
    </linearGradient>
    <linearGradient
       inkscape:collect="always"
       xlink:href="#linearGradient10"
       id="linearGradient11"
       x1="30.499998"
       y1="20.795244"
       x2="30.499977"
       y2="3.8546014"
       gradientUnits="userSpaceOnUse" />
    <linearGradient
       inkscape:collect="always"
       xlink:href="#linearGradient12"
       id="linearGradient13"
       x1="51.256153"
       y1="3.8546023"
       x2="55.499981"
       y2="7.1368957"
       gradientUnits="userSpaceOnUse" />
    <linearGradient
       inkscape:collect="always"
       xlink:href="#linearGradient12"
       id="linearGradient15"
       x1="9.7438374"
       y1="3.8546014"
       x2="5.4999747"
       y2="6.9368954"
       gradientUnits="userSpaceOnUse" />
    <linearGradient
       inkscape:collect="always"
       xlink:href="#linearGradient17"
       id="linearGradient18"
       x1="30.499998"
       y1="56.558823"
       x2="30.499998"
       y2="26.442118"
       gradientUnits="userSpaceOnUse" />
  </defs>
  <sodipodi:namedview
     id="namedview10"
     pagecolor="#ffffff"
     bordercolor="#000000"
     borderopacity="0.25"
     inkscape:showpageshadow="2"
     inkscape:pageopacity="0.0"
     inkscape:pagecheckerboard="0"
     inkscape:deskcolor="#d1d1d1"
     inkscape:zoom="10"
     inkscape:cx="32.65"
     inkscape:cy="30.15"
     inkscape:window-width="1920"
     inkscape:window-height="996"
     inkscape:window-x="0"
     inkscape:window-y="0"
     inkscape:window-maximized="1"
     inkscape:current-layer="svg10" />
  <g
     id="g10"
     transform="translate(0.50002265,1.500026)">
    <path
       style="fill:none;stroke:url(#linearGradient15);stroke-width:2.82696;stroke-linecap:round"
       d="M 6.9134547,2.9134547 12.574222,8.5603361"
       id="path1" />
    <path
       style="fill:none;stroke:url(#linearGradient13);stroke-width:2.82696;stroke-linecap:round;stroke-opacity:1"
       d="M 54.0865,2.9134547 48.425733,8.5603361"
       id="path2" />
    <rect
       style="opacity:0.2;stroke-width:0.942296"
       width="41.51231"
       height="30.116705"
       x="9.7438431"
       y="27.383268"
       rx="2.8303823"
       ry="2.8234398"
       id="rect2" />
    <rect
       style="opacity:0.2;stroke-width:0.942296"
       width="41.51231"
       height="16.940641"
       x="9.7438431"
       y="4.7957506"
       rx="2.8303823"
       ry="2.8234398"
       id="rect3" />
    <rect
       style="fill:url(#linearGradient11);stroke-width:0.942296"
       width="41.51231"
       height="16.940641"
       x="9.7438431"
       y="3.8546023"
       rx="2.8303823"
       ry="2.8234398"
       id="rect4" />
    <rect
       style="fill:url(#linearGradient18);stroke-width:0.942296"
       width="41.51231"
       height="30.116705"
       x="9.7438431"
       y="26.442118"
       rx="2.8303823"
       ry="2.8234398"
       id="rect5" />
    <path
       style="fill:#0d47a1;stroke-width:0.942296"
       d="M 30.499977,30.206708 A 11.321534,11.293765 0 0 0 19.178443,41.500475 11.321534,11.293765 0 0 0 30.499977,52.794238 11.321534,11.293765 0 0 0 41.821511,41.500475 11.321534,11.293765 0 0 0 30.499977,30.206708 Z m 0,1.882302 a 9.4346105,9.4114703 0 0 1 9.434604,9.411465 9.4346105,9.4114703 0 0 1 -9.434604,9.411482 9.4346105,9.4114703 0 0 1 -9.434605,-9.411482 9.4346105,9.4114703 0 0 1 9.434605,-9.411465 z m 0,1.882298 a 7.5476878,7.5291756 0 0 0 -7.293386,5.646883 h 1.971675 a 5.6607666,5.6468824 0 0 1 5.321711,-3.764601 5.6607666,5.6468824 0 0 1 5.660767,5.646885 5.6607666,5.6468824 0 0 1 -5.660767,5.646882 5.6607666,5.6468824 0 0 1 -5.321711,-3.764584 h -1.971675 a 7.5476878,7.5291756 0 0 0 7.293386,5.646883 7.5476878,7.5291756 0 0 0 7.547694,-7.529181 7.5476878,7.5291756 0 0 0 -7.547694,-7.529167 z"
       id="path5" />
    <path
       style="opacity:0.2;fill:#ffffff;stroke-width:0.942296"
       d="m 12.574222,3.8546013 c -1.568038,0 -2.8303843,1.259255 -2.8303843,2.8234412 v 0.9411466 c 0,-1.5641859 1.2623463,-2.8234412 2.8303843,-2.8234412 h 35.851511 c 1.568037,0 2.830383,1.2592553 2.830383,2.8234412 V 6.6780425 c 0,-1.5641862 -1.262346,-2.8234412 -2.830383,-2.8234412 z"
       id="path6" />
    <path
       style="opacity:0.2;fill:#ffffff;stroke-width:0.942296"
       d="m 12.574222,26.442126 c -1.568038,0 -2.8303843,1.259251 -2.8303843,2.823442 v 0.94114 c 0,-1.564173 1.2623463,-2.823434 2.8303843,-2.823434 h 35.851511 c 1.568037,0 2.830383,1.259261 2.830383,2.823434 v -0.94114 c 0,-1.564191 -1.262346,-2.823442 -2.830383,-2.823442 z"
       id="path7" />
    <ellipse
       style="opacity:0.2;stroke-width:0.942296"
       cx="21.065372"
       cy="11.566562"
       id="circle7"
       rx="3.773844"
       ry="3.7645881" />
    <ellipse
       style="fill:#ffffff;stroke-width:0.942296"
       cx="21.065372"
       cy="12.324918"
       id="circle8"
       rx="3.773844"
       ry="3.7645881" />
    <ellipse
       style="opacity:0.2;stroke-width:0.942296"
       cx="39.934601"
       cy="11.566562"
       id="circle9"
       rx="3.773844"
       ry="3.7645881" />
    <ellipse
       style="fill:#ffffff;stroke-width:0.942296"
       cx="39.934601"
       cy="12.324918"
       id="circle10"
       rx="3.773844"
       ry="3.7645881" />
  </g>
</svg>
