<?xml version="1.0" encoding="UTF-8" standalone="no"?>
<svg
   width="62"
   height="62"
   version="1.1"
   id="svg13"
   sodipodi:docname="org.gnome.design.BannerViewer.svg"
   inkscape:version="1.4 (unknown)"
   xmlns:inkscape="http://www.inkscape.org/namespaces/inkscape"
   xmlns:sodipodi="http://sodipodi.sourceforge.net/DTD/sodipodi-0.dtd"
   xmlns="http://www.w3.org/2000/svg"
   xmlns:svg="http://www.w3.org/2000/svg">
  <defs
     id="defs13" />
  <sodipodi:namedview
     id="namedview13"
     pagecolor="#ffffff"
     bordercolor="#000000"
     borderopacity="0.25"
     inkscape:showpageshadow="2"
     inkscape:pageopacity="0.0"
     inkscape:pagecheckerboard="0"
     inkscape:deskcolor="#d1d1d1"
     inkscape:zoom="7.0710678"
     inkscape:cx="33.021887"
     inkscape:cy="36.415999"
     inkscape:window-width="1920"
     inkscape:window-height="996"
     inkscape:window-x="0"
     inkscape:window-y="0"
     inkscape:window-maximized="1"
     inkscape:current-layer="svg13" />
  <g
     id="g13"
     transform="matrix(0.96551724,0,0,0.97959184,0.10344832,-0.8367348)">
    <path
       style="opacity:0.2;fill-rule:evenodd"
       d="M 3,19 6.8867188,37.050782 3,57 h 14.171875 c 0,0 3.882813,-7.82e-4 3.882813,-3.800782 L 18.539062,19 Z M 29.257812,19 25.410156,22.800782 25,53.199218 C 24.94886,56.998874 28.855468,57 28.855468,57 H 61 L 57.152344,37.050782 61,19 Z"
       id="path1" />
    <path
       style="fill:#782144;fill-rule:evenodd"
       d="M 61,18 H 29.256758 L 25.409092,21.800002 25,52.2 c -0.05114,3.799656 3.855834,3.8 3.855834,3.8 H 61 L 57.152334,36.05 Z"
       id="path2" />
    <path
       style="fill:#782144;fill-rule:evenodd"
       d="m 3,18 h 15.540669 l 2.514603,34.2 c 0,3.8 -3.885166,3.8 -3.885166,3.8 H 3 L 6.8851676,36.05 Z"
       id="path3" />
    <path
       style="opacity:0.1;fill:#ffffff;fill-rule:evenodd"
       d="m 3,18 0.2148438,1 H 18.539062 l 2.472657,33.619141 c 0.02323,-0.130787 0.04297,-0.265226 0.04297,-0.419922 L 18.539062,18 Z M 29.257812,18 25.410156,21.800781 25,52.199219 c -5.19e-4,0.03917 0.0057,0.071 0.01172,0.103515 L 25.410156,22.800781 29.257812,19 H 60.787109 L 61,18 Z M 6.6835938,37.101562 3,56 h 0.1953125 l 3.4882813,-17.898438 0.1015624,0.472657 0.1015626,-0.523438 z m 50.6718752,0 -0.203125,0.949219 0.101562,0.525391 0.101563,-0.47461 L 60.806641,56 H 61 Z"
       id="path4" />
    <path
       style="fill:#c83771"
       d="M 14.817016,8 C 12.700982,8 11,9.689218 11,11.789342 V 38.857142 44 h 7.875 V 41.428572 L 21,40 h 4 l 3.062498,1.428572 V 44 H 53 v -5.142858 -27.0678 C 53,9.689218 51.299014,8 49.182984,8 Z"
       id="path5" />
    <path
       style="opacity:0.2"
       d="m 32.015624,13.50731 c -0.750218,-0.0038 -1.16985,2.774774 -1.777342,3.234375 -0.609324,0.457686 -3.26188,-0.0067 -3.496094,0.738281 -0.234212,0.744937 2.1619,2.02467 2.390624,2.773438 0.228724,0.746852 -1.011914,3.239694 -0.40625,3.703126 0.603832,0.465346 2.503688,-1.523332 3.253906,-1.519532 0.750216,0.0019 2.634694,2.006478 3.242188,1.546876 0.609322,-0.4596 -0.609214,-2.962096 -0.375,-3.707034 0.236044,-0.744936 2.638882,-2.003147 2.410156,-2.749999 -0.230552,-0.748763 -2.884446,-0.310006 -3.48828,-0.773438 -0.605664,-0.46343 -1.00552,-3.244182 -1.753908,-3.246093 z m -7.25,11.996094 c -0.750344,-0.0038 -1.171824,2.774838 -1.781248,3.234376 -0.607598,0.457624 -3.257934,-0.0066 -3.492188,0.73828 -0.234256,0.74675 2.157954,2.026688 2.386718,2.773438 0.230594,0.746752 -1.006282,3.239756 -0.402344,3.703124 0.605768,0.46337 2.50356,-1.52333 3.253906,-1.51953 0.750346,0.0038 2.632762,2.004498 3.242188,1.546874 0.609428,-0.459538 -0.609254,-2.964186 -0.375,-3.710936 0.234254,-0.744834 2.63892,-1.999342 2.410156,-2.746094 -0.228764,-0.746756 -2.882514,-0.308156 -3.48828,-0.773438 -0.603938,-0.46337 -1.00356,-3.242294 -1.753908,-3.246094 z m 14.5,0 c -0.750332,-0.0038 -1.169758,2.774838 -1.777342,3.234376 -0.609416,0.457624 -3.261846,-0.0066 -3.496094,0.73828 -0.23425,0.74675 2.161866,2.026688 2.390624,2.773438 0.22876,0.746752 -1.010178,3.239756 -0.40625,3.703124 0.605752,0.46337 2.507484,-1.52333 3.257814,-1.51953 0.748502,0.0038 2.630696,2.004498 3.23828,1.546874 0.609414,-0.459538 -0.609248,-2.964186 -0.375,-3.710936 0.234252,-0.744834 2.640746,-1.999342 2.410156,-2.746094 -0.22876,-0.746756 -2.884356,-0.308156 -3.48828,-0.773438 -0.605756,-0.46337 -1.003578,-3.242294 -1.753908,-3.246094 z"
       id="path6" />
    <path
       style="fill:#f2f2f2;fill-opacity:1"
       d="m 35.222662,22.985542 c -0.607494,0.459602 -2.490354,-1.545408 -3.24057,-1.547324 -0.750218,-0.0038 -2.651376,1.983946 -3.255208,1.5186 -0.605664,-0.463432 0.633108,-2.956768 0.404384,-3.703621 -0.228724,-0.748768 -2.622098,-2.026075 -2.387886,-2.771013 0.234214,-0.744936 2.88376,-0.283419 3.493084,-0.741105 0.607492,-0.459602 1.030174,-3.236363 1.780392,-3.232533 0.748386,0.0019 1.147282,2.782505 1.752946,3.245936 0.603834,0.463432 3.25704,0.0249 3.487592,0.773663 0.228726,0.746852 -2.173798,2.003096 -2.409842,2.748032 -0.234214,0.744937 0.98443,3.249765 0.375108,3.709365 z m 0,0"
       id="path7" />
    <path
       style="fill:#f2f2f2;fill-opacity:1"
       d="m 27.974138,34.982028 c -0.609426,0.457624 -2.492612,-1.5452 -3.242958,-1.549028 -0.750346,-0.0038 -2.650004,1.983674 -3.255772,1.520306 -0.603938,-0.463368 0.63505,-2.958278 0.404456,-3.70503 -0.228764,-0.74675 -2.620722,-2.023884 -2.386466,-2.770634 0.234254,-0.744836 2.884256,-0.283382 3.491854,-0.741006 0.609426,-0.459538 1.030354,-3.235918 1.780698,-3.232086 0.750348,0.0038 1.149312,2.78212 1.75325,3.24549 0.605766,0.465282 3.25943,0.0268 3.488194,0.773556 0.228764,0.746752 -2.174174,2.002824 -2.408428,2.747658 -0.234254,0.74675 0.9846,3.251236 0.375172,3.710774 z m 0,0"
       id="path8" />
    <path
       style="fill:#f2f2f2;fill-opacity:1"
       d="m 42.473952,34.982028 c -0.607584,0.457624 -2.492562,-1.5452 -3.241064,-1.549028 -0.75033,-0.0038 -2.651778,1.983674 -3.25753,1.520306 -0.603928,-0.463368 0.635034,-2.958278 0.406274,-3.70503 -0.228758,-0.74675 -2.622496,-2.023884 -2.388246,-2.770634 0.234248,-0.744836 2.884196,-0.283382 3.493612,-0.741006 0.607584,-0.459538 1.028502,-3.235918 1.778834,-3.232086 0.75033,0.0038 1.149286,2.78212 1.755042,3.24549 0.603924,0.465282 3.257532,0.0268 3.486292,0.773556 0.23059,0.746752 -2.174128,2.002824 -2.40838,2.747658 -0.234248,0.74675 0.98458,3.251236 0.375166,3.710774 z m 0,0"
       id="path9" />
    <path
       style="fill:#d9d9d9;fill-rule:evenodd;fill-opacity:1"
       d="M 25,39.982 V 52.001516 C 25,49.866162 26.563724,47.934 28.699076,47.934 h 20.569546 c 0,0 3.822288,-0.0188 3.822288,-3.885516 0,-2.142904 -1.679386,-4.066484 -3.822288,-4.066484 H 28.699076 Z"
       id="path10" />
    <path
       style="fill:#d9d9d9;fill-opacity:1"
       d="m 14.73138,39.982 c -2.135353,0 -3.822289,1.931132 -3.822289,4.066484 0,2.135352 1.686936,3.885516 3.822289,3.885516 h 2.369347 c 2.416665,0 3.954545,2.096424 3.954545,4.067516 V 39.982 Z"
       id="path11" />
    <path
       style="opacity:0.1;fill-rule:evenodd"
       d="m 14.730469,39.980469 c -2.135352,0 -3.820313,1.931052 -3.820313,4.066406 0,0.182506 0.01728,0.360449 0.04492,0.535156 0.224174,-1.94107 1.797671,-3.601562 3.775391,-3.601562 h 6.324219 V 41 H 25 v -0.01953 h 3.699219 20.570312 c 1.991447,0 3.562618,1.664422 3.777344,3.61914 0.02553,-0.172479 0.04297,-0.35368 0.04297,-0.552734 0,-2.142906 -1.677411,-4.066406 -3.820313,-4.066406 H 28.699219 25 V 40 h -3.945312 v -0.01953 z"
       id="path12" />
    <path
       style="opacity:0.2;fill:#ffffff"
       d="M 14.816406,8 C 12.700372,8 11,9.6889395 11,11.789062 v 1 C 11,10.688939 12.700372,9 14.816406,9 H 49.183594 C 51.299624,9 53,10.68894 53,12.789062 v -1 C 53,9.6889395 51.299624,8 49.183594,8 Z"
       id="path13" />
  </g>
</svg>
