<?xml version="1.0" encoding="UTF-8" standalone="no"?>
<svg
   width="62"
   height="62"
   version="1.1"
   id="svg16"
   sodipodi:docname="org.gnome.Papers.svg"
   inkscape:version="1.4 (unknown)"
   xmlns:inkscape="http://www.inkscape.org/namespaces/inkscape"
   xmlns:sodipodi="http://sodipodi.sourceforge.net/DTD/sodipodi-0.dtd"
   xmlns="http://www.w3.org/2000/svg"
   xmlns:svg="http://www.w3.org/2000/svg">
  <defs
     id="defs16" />
  <sodipodi:namedview
     id="namedview16"
     pagecolor="#ffffff"
     bordercolor="#000000"
     borderopacity="0.25"
     inkscape:showpageshadow="2"
     inkscape:pageopacity="0.0"
     inkscape:pagecheckerboard="0"
     inkscape:deskcolor="#d1d1d1"
     inkscape:zoom="12.078125"
     inkscape:cx="44.708926"
     inkscape:cy="41.935317"
     inkscape:window-width="1920"
     inkscape:window-height="996"
     inkscape:window-x="0"
     inkscape:window-y="0"
     inkscape:window-maximized="1"
     inkscape:current-layer="svg16" />
  <path
     d="m 7.5235938,14.602247 c -2.1815046,0.583931 -3.4671706,2.808667 -2.8825825,4.988091 l 5.2755604,19.669283 4.4841893,16.719611 c 0.584489,2.179423 2.811345,3.46386 4.992846,2.879935 l 31.502138,-8.432909 c 2.1815,-0.58393 3.467169,-2.808666 2.882581,-4.98809 L 44.018577,9.0492735 C 43.434091,6.8698506 41.207231,5.5854112 39.025826,6.1694417 Z"
     opacity="0.2"
     id="path1"
     style="stroke-width:1.01869" />
  <path
     d="m 9.9167817,38.241438 4.4842893,16.719609 c 0.58448,2.179526 2.81134,3.463863 4.992745,2.879931 l 31.502133,-8.432905 c 2.181503,-0.583928 3.467065,-2.808664 2.882578,-4.988089 L 49.294239,27.70038 Z"
     fill="#7767c0"
     id="path2"
     style="fill:#8d5fd3;stroke-width:1.01869" />
  <path
     d="M 7.5240017,13.584064 C 5.3424966,14.168096 4.0568305,16.39273 4.641419,18.572256 L 9.9168817,38.242558 49.294036,27.701292 44.018577,8.0309884 C 43.433989,5.8515648 41.207231,4.5671246 39.025725,5.151054 Z"
     fill="#248afd"
     id="path3"
     style="fill:#5599ff;stroke-width:1.01869" />
  <path
     d="m 7.5238997,13.584064 c -2.1815052,0.583932 -3.467171,2.808558 -2.8825828,4.988083 l 0.2637783,0.983471 C 4.3205781,17.376194 5.6062239,15.151558 7.787678,14.567527 l 31.50213,-8.4328054 c 2.181406,-0.5839695 4.408266,0.7004196 4.992752,2.8798329 L 44.018801,8.0310595 C 43.434311,5.8516358 41.207458,4.5671965 39.025951,5.151227 Z"
     fill="#ffffff"
     opacity="0.2"
     id="path4"
     style="stroke-width:1.01869" />
  <path
     d="m 21.750208,4.0211742 c -1.738069,0.067006 -3.297181,1.2460542 -3.772105,3.0168807 L 8.2244679,43.401497 c -0.5845372,2.17942 0.7007958,4.405582 2.8822781,4.989613 l 28.225543,7.554925 h 7.028613 c 0.581635,-0.512244 1.025579,-1.195043 1.242147,-2.002565 l 9.751598,-36.363436 c 0.584589,-2.179425 -0.700771,-4.40569 -2.882277,-4.989613 L 22.970238,4.1584255 C 22.561248,4.0489302 22.151144,4.0057591 21.750101,4.0211951 Z"
     opacity="0.2"
     id="path5"
     style="stroke-width:1.01869" />
  <path
     d="m 22.974212,3.1410558 31.502132,8.4327032 c 2.181506,0.583932 3.467174,2.808567 2.882687,4.987883 l -9.75292,36.362424 c -0.584588,2.179324 -2.811447,3.46376 -4.992955,2.879728 L 11.111024,47.371191 C 8.9294177,46.78716 7.6437525,44.562534 8.2283407,42.383208 L 17.981265,6.0207871 c 0.584481,-2.1793224 2.81134,-3.4637618 4.992947,-2.8797313 z"
     fill="#b6b6b6"
     id="path6"
     style="fill:#b2b2b2;fill-opacity:1;stroke-width:1.01869" />
  <path
     d="M 22.970137,3.1408519 C 20.788631,2.5568824 18.561878,3.8413226 17.977392,6.0206853 L 17.71363,7.0041798 c 0.584488,-2.1794236 2.811246,-3.4638631 4.992746,-2.8798324 l 31.502137,8.4328046 c 2.181501,0.583931 3.467171,2.808667 2.882581,4.988092 l 0.263862,-0.983472 c 0.584486,-2.179416 -0.70118,-4.404152 -2.882687,-4.988083 z"
     fill="#ffffff"
     opacity="0.2"
     id="path7"
     style="stroke-width:1.01869" />
  <rect
     x="10.614902"
     y="8.0909624"
     width="40.766266"
     height="48.872852"
     rx="4.0766263"
     ry="4.0727377"
     opacity="0.2"
     id="rect7"
     style="stroke-width:1.01869" />
  <rect
     x="10.614902"
     y="7.0727744"
     width="40.766266"
     height="48.872852"
     rx="4.0766263"
     ry="4.0727377"
     fill="#e4e4e4"
     id="rect8"
     style="fill:#d9d9d9;fill-opacity:1;stroke-width:1.01869" />
  <path
     d="m 14.691529,7.072775 c -2.25845,0 -4.076628,1.8164413 -4.076628,4.072743 V 31.509201 H 51.381169 V 21.327355 H 41.189602 c -2.258451,0 -4.076627,-1.816436 -4.076627,-4.072732 V 7.072775 Z m 32.613013,0 c 0.141153,0 0.280672,0.00602 0.418059,0.019896 -0.137387,-0.01387 -0.276906,-0.019896 -0.418059,-0.019896 z m 0.418059,0.019896 c 0.137381,0.01385 0.273134,0.0366 0.40603,0.06364 C 47.995735,7.12928 47.859982,7.10653 47.722601,7.092671 Z m 0.40603,0.06364 c 0.132898,0.02703 0.262332,0.05988 0.390134,0.099437 -0.127802,-0.03956 -0.257236,-0.072401 -0.390134,-0.099437 z m 3.069396,2.7761785 c 0.03963,0.1276815 0.07247,0.2569915 0.0996,0.3897615 -0.02712,-0.13277 -0.05995,-0.26208 -0.0996,-0.3897615 z m 0.0996,0.3897615 c 0.02703,0.13278 0.04984,0.2685 0.06366,0.405751 -0.01384,-0.137251 -0.03672,-0.272971 -0.06366,-0.405751 z m 0.06366,0.405751 c 0.01388,0.13715 0.02001,0.27654 0.02001,0.417561 0,-0.141021 -0.006,-0.280411 -0.02001,-0.417661 z"
     fill="#e83c44"
     id="path8"
     style="fill:#009999;fill-opacity:1;stroke-width:1.01869" />
  <rect
     x="16.729839"
     y="49.836529"
     width="28.536386"
     height="3.0545533"
     opacity="0.2"
     id="rect9"
     style="opacity:1;fill:#7b94b7;fill-opacity:1;stroke-width:1.01869"
     ry="1.5272766" />
  <rect
     x="16.729839"
     y="44.745613"
     width="28.536386"
     height="3.0545533"
     opacity="0.2"
     id="rect10"
     style="opacity:1;fill:#7b94b7;fill-opacity:1;stroke-width:1.01869"
     ry="1.5272766" />
  <rect
     x="16.729839"
     y="39.654694"
     width="28.536386"
     height="3.0545533"
     opacity="0.2"
     id="rect11"
     style="opacity:1;fill:#7b94b7;fill-opacity:1;stroke-width:1.01869"
     ry="1.5272766" />
  <rect
     x="16.729839"
     y="34.563744"
     width="28.536386"
     height="3.0545533"
     opacity="0.2"
     id="rect12"
     style="opacity:1;fill:#7b94b7;fill-opacity:1;stroke-width:1.01869"
     ry="1.5272766"
     rx="1.433129" />
  <rect
     x="16.729839"
     y="21.327364"
     width="12.229879"
     height="3.0545533"
     fill="#e4e4e4"
     id="rect13"
     style="fill:#2d3d53;fill-opacity:1;stroke-width:1.01869"
     ry="1.5272766"
     rx="1.5730919" />
  <rect
     x="16.729839"
     y="15.21825"
     width="14.268193"
     height="3.0545533"
     fill="#ffffff"
     id="rect14"
     style="fill:#2d3d53;fill-opacity:1;stroke-width:1.01869"
     ry="1.5272766"
     rx="1.7883631" />
  <path
     d="m 37.112975,7.072775 v 10.181848 c 0,2.256296 1.818176,4.072732 4.076627,4.072732 h 10.191567 z"
     fill="#ffffff"
     id="path14"
     style="stroke-width:1.01869" />
  <path
     d="m 37.112975,17.254623 v 1.018183 c 0,2.256296 1.818176,4.072739 4.076627,4.072739 h 10.191567 v -1.01819 H 41.189602 c -2.258451,0 -4.076627,-1.816436 -4.076627,-4.072732 z"
     opacity="0.2"
     id="path15"
     style="stroke-width:1.01869" />
  <path
     d="m 14.691529,7.072775 c -2.25845,0 -4.076628,1.8164413 -4.076628,4.072743 V 12.1637 c 0,-2.2562965 1.818178,-4.0727404 4.076628,-4.0727404 h 32.613013 c 2.258452,0 4.076627,1.8164439 4.076627,4.0727404 v -1.018182 c 0,-2.2563017 -1.818175,-4.072743 -4.076627,-4.072743 z"
     fill="#ffffff"
     opacity="0.2"
     id="path16"
     style="stroke-width:1.01869" />
</svg>
