<?xml version="1.0" encoding="UTF-8" standalone="no"?>
<svg
   width="62"
   height="62"
   version="1"
   id="svg4"
   sodipodi:docname="kollision.svg"
   inkscape:version="1.4 (unknown)"
   xmlns:inkscape="http://www.inkscape.org/namespaces/inkscape"
   xmlns:sodipodi="http://sodipodi.sourceforge.net/DTD/sodipodi-0.dtd"
   xmlns="http://www.w3.org/2000/svg"
   xmlns:svg="http://www.w3.org/2000/svg">
  <defs
     id="defs4" />
  <sodipodi:namedview
     id="namedview4"
     pagecolor="#ffffff"
     bordercolor="#000000"
     borderopacity="0.25"
     inkscape:showpageshadow="2"
     inkscape:pageopacity="0.0"
     inkscape:pagecheckerboard="0"
     inkscape:deskcolor="#d1d1d1"
     inkscape:zoom="7.0710678"
     inkscape:cx="31.890516"
     inkscape:cy="35.284628"
     inkscape:window-width="1920"
     inkscape:window-height="996"
     inkscape:window-x="0"
     inkscape:window-y="0"
     inkscape:window-maximized="1"
     inkscape:current-layer="svg4" />
  <g
     id="g4"
     transform="translate(-2.9996001,-3.5)">
    <path
       style="opacity:0.2;stroke-width:1.07925"
       d="M 31.895754,23.054165 A 15.076693,15.142859 0 0 0 31.846229,24.224493 15.076693,15.142859 0 0 0 46.922914,39.367347 15.076693,15.142859 0 0 0 61.9996,24.224493 15.076693,15.142859 0 0 0 61.950066,23.231551 15.076693,15.142859 0 0 1 46.922907,37.204082 15.076693,15.142859 0 0 1 31.895754,23.054165 Z M 6.0499993,44.686818 A 15.076693,15.142859 0 0 0 5.9996002,45.857147 15.076693,15.142859 0 0 0 21.076293,61 15.076693,15.142859 0 0 0 36.152982,45.857147 15.076693,15.142859 0 0 0 36.103443,44.864203 15.076693,15.142859 0 0 1 21.073708,58.836734 15.076693,15.142859 0 0 1 6.0474147,44.686818 Z"
       id="path1" />
    <path
       style="fill:#8d5fd3;stroke-width:1.07925"
       d="M 46.922907,8 A 15.076693,15.142859 0 0 0 31.846219,23.142859 15.076693,15.142859 0 0 0 46.922907,38.285715 15.076693,15.142859 0 0 0 61.9996,23.142859 15.076693,15.142859 0 0 0 46.922907,8 Z"
       id="path2" />
    <path
       style="fill:#c83771;stroke-width:1.07925"
       d="M 21.077151,29.632653 A 15.076693,15.142859 0 0 0 6.0004612,44.775516 15.076693,15.142859 0 0 0 21.077151,59.918368 15.076693,15.142859 0 0 0 36.153847,44.775516 15.076693,15.142859 0 0 0 21.077151,29.632653 Z"
       id="path3" />
    <path
       style="opacity:0.2;fill:#ffffff;stroke-width:1.07925"
       d="M 46.922481,8 A 15.076693,15.142859 0 0 0 31.845788,23.142859 15.076693,15.142859 0 0 0 31.868928,23.586491 15.076693,15.142859 0 0 1 46.922481,9.0816323 15.076693,15.142859 0 0 1 61.973929,23.734374 15.076693,15.142859 0 0 0 61.999169,23.142859 15.076693,15.142859 0 0 0 46.922481,8 Z M 21.07672,29.632653 A 15.076693,15.142859 0 0 0 6.0000311,44.775516 15.076693,15.142859 0 0 0 6.0231682,45.219149 15.076693,15.142859 0 0 1 21.07672,30.714288 15.076693,15.142859 0 0 1 36.128172,45.367028 15.076693,15.142859 0 0 0 36.153419,44.775516 15.076693,15.142859 0 0 0 21.076726,29.632653 Z"
       id="path4" />
  </g>
</svg>
