<?xml version="1.0" encoding="UTF-8" standalone="no"?>
<svg
   width="62"
   height="62"
   version="1.1"
   id="svg29"
   sodipodi:docname="org.gnome.design.VectorSlicer.svg"
   inkscape:version="1.4 (unknown)"
   xmlns:inkscape="http://www.inkscape.org/namespaces/inkscape"
   xmlns:sodipodi="http://sodipodi.sourceforge.net/DTD/sodipodi-0.dtd"
   xmlns:xlink="http://www.w3.org/1999/xlink"
   xmlns="http://www.w3.org/2000/svg"
   xmlns:svg="http://www.w3.org/2000/svg">
  <defs
     id="defs29">
    <linearGradient
       id="linearGradient29"
       inkscape:collect="always">
      <stop
         style="stop-color:#2d3d53;stop-opacity:1;"
         offset="0"
         id="stop29" />
      <stop
         style="stop-color:#2a7fff;stop-opacity:1"
         offset="1"
         id="stop30" />
    </linearGradient>
    <linearGradient
       inkscape:collect="always"
       xlink:href="#linearGradient29"
       id="linearGradient30"
       x1="30.782633"
       y1="60"
       x2="30.193521"
       y2="5"
       gradientUnits="userSpaceOnUse"
       gradientTransform="matrix(0.98214286,0,0,0.98245614,-0.42857152,-0.92982455)" />
  </defs>
  <sodipodi:namedview
     id="namedview29"
     pagecolor="#ffffff"
     bordercolor="#000000"
     borderopacity="0.25"
     inkscape:showpageshadow="2"
     inkscape:pageopacity="0.0"
     inkscape:pagecheckerboard="0"
     inkscape:deskcolor="#d1d1d1"
     inkscape:zoom="7.0710678"
     inkscape:cx="26.870058"
     inkscape:cy="49.851028"
     inkscape:window-width="1920"
     inkscape:window-height="996"
     inkscape:window-x="0"
     inkscape:window-y="0"
     inkscape:window-maximized="1"
     inkscape:current-layer="svg29" />
  <rect
     style="opacity:0.2;stroke-width:0.9823"
     width="55"
     height="55.017544"
     x="3.5"
     y="3.9824562"
     ry="13.754386"
     id="rect1" />
  <rect
     style="fill:url(#linearGradient30);stroke-width:0.9823"
     width="55"
     height="55.017544"
     x="3.5"
     y="3"
     ry="13.754386"
     id="rect2" />
  <path
     style="opacity:0.1;fill:#ffffff;stroke-width:0.9823"
     d="M 17.25,3 C 9.6324999,3 3.4999999,9.1344561 3.4999999,16.754386 v 0.982456 c 0,-7.61993 6.1325,-13.7543858 13.7500001,-13.7543858 h 27.5 c 7.6175,0 13.75,6.1344558 13.75,13.7543858 V 16.754386 C 58.5,9.1344561 52.3675,3 44.75,3 Z"
     id="path28" />
  <g
     id="g18"
     transform="translate(-0.8,2.3000161)">
    <path
       style="opacity:0.1"
       d="M 16.392578,13 C 14.466133,13 13,14.598981 13,16.492188 V 47.507812 C 13,49.401019 14.466133,51 16.392578,51 h 9.220703 V 48 H 16.392578 C 16.298443,48 16,47.747431 16,47.507812 V 16.492188 C 16,16.252569 16.298443,16 16.392578,16 h 8.765625 v -3 z m 9.800781,0 v 3 h 3.8125 v -3 z m 6.8125,0 v 3 h 6 v -3 z m 9,0 v 3 h 5.580079 0.03125 l 0.0098,0.002 h 0.0039 l 0.742188,-2.908203 -0.0625,-0.01563 -0.171875,-0.0332 -0.173828,-0.02539 -0.177735,-0.01563 L 47.628906,13 Z M 48,16.853516 v 6 h 3 v -6 z m 0,9 v 6 h 3 v -6 z m 0,9 v 6 h 3 v -6 z M 48.363281,42.875 c -0.92384,1.070918 -0.824885,2.479385 -0.638672,3.298828 0.185966,0.818353 0.28681,1.321588 0.267579,1.416016 0,0 0,0.002 0,0.002 l -0.0078,0.03125 -0.0059,0.02344 -0.0078,0.02344 -0.0098,0.02344 -0.0098,0.02344 -0.01172,0.02344 -0.01367,0.02344 -0.01367,0.02344 -0.01563,0.02148 -0.01563,0.02148 -0.01758,0.02148 -0.01758,0.01758 -0.01758,0.01953 -0.01953,0.01563 -0.01758,0.01563 -0.01953,0.01563 -0.01758,0.01172 -0.01758,0.01172 -0.01758,0.0078 -0.01563,0.0098 -0.01563,0.0059 1.183594,2.755859 0.08594,-0.03711 0.150391,-0.07227 0.146484,-0.08203 0.140625,-0.08594 0.134766,-0.09375 0.130859,-0.09961 0.125,-0.103516 0.121094,-0.111328 0.113281,-0.115234 0.109375,-0.121094 0.105469,-0.125 0.09766,-0.128906 0.0918,-0.134766 0.08594,-0.138672 0.08008,-0.144531 0.07422,-0.148437 0.06836,-0.150391 0.06055,-0.15625 0.05273,-0.160156 0.04687,-0.162109 0.0332,-0.144532 0.002,-0.01563 C 51.185841,46.974814 50.776715,46.072677 50.64838,45.507932 50.520045,44.943189 50.500335,44.992136 50.63666,44.834104 Z M 30.298828,48 v 3 h 6 v -3 z m 9,0 v 3 h 6 v -3 z"
       id="path2" />
    <path
       style="fill:none;stroke:#ffffff;stroke-width:3;stroke-dasharray:6, 3;stroke-opacity:1"
       d="m 30.298365,48.499999 h 17.309637 c 1.010288,0 1.891997,-0.925584 1.891997,-1.991997 V 15.491998 c 0,-1.066416 -0.881709,-1.991997 -1.891997,-1.991997 H 26.193059"
       id="path4" />
    <path
       style="fill:none;stroke:#89b6f0;stroke-width:3;stroke-opacity:1"
       d="m 25.613966,48.499999 h -9.221968 c -1.010291,0 -1.891996,-0.925584 -1.891996,-1.991997 V 15.491998 c 0,-1.066413 0.881705,-1.991997 1.891996,-1.991997 h 8.765825"
       id="path5" />
    <path
       style="fill:#e7e6e5"
       d="M 45.446785,4.2194299 20.000019,49.996 33.043694,50 55.241512,10.092712 Z m 0,0"
       id="path6" />
    <path
       style="fill:#6a87ae;fill-opacity:1"
       d="M 44.625758,21.24607 51.015123,9.7541701 C 51.521476,8.8423157 51.22313,7.6817589 50.343244,7.1560079 49.465189,6.6283647 48.349695,6.9399752 47.843483,7.8519136 L 41.454117,19.343815"
       id="path7" />
    <path
       style="fill:#bfbdba"
       d="m 38.387442,24.836477 3.265523,1.9577 -0.471237,0.848847 -3.265521,-1.957703 z m 0,0"
       id="path8" />
    <path
       style="fill:#bfbdba"
       d="m 36.502495,28.228041 3.265525,1.957701 -0.471237,0.846935 -3.265523,-1.957703 z m 0,0"
       id="path9" />
    <path
       style="opacity:0.1"
       d="M 52.699412,3.9177365 C 51.605992,3.2619827 50.352434,2.9465328 49.089664,3.0077111 46.845769,3.1185963 44.81172,4.4052499 43.688854,6.4260416 l -18.849457,33.9080054 2.337772,1.403274 1.789228,1.07253 3.171641,1.900345 1.616191,0.969293 2.510808,1.506513 18.849461,-33.908005 c 1.822355,-3.276855 0.741823,-7.4675613 -2.415086,-9.3602605 z m -2.356184,4.2385004 c 0.329497,0.1969177 0.578001,0.4836897 0.73262,0.8125223 0.05152,0.1108859 0.09204,0.2236833 0.12334,0.3422155 0.11966,0.4703071 0.06812,0.9884103 -0.184059,1.4434233 L 37.22225,35.565972 36.850414,36.233195 c -0.508053,0.913849 -1.623557,1.223564 -2.501602,0.697813 C 33.470766,36.403349 33.17256,35.244787 33.678773,34.33285 L 34.050615,33.665623 47.843483,8.8521384 c 0.252184,-0.4550125 0.658995,-0.7609032 1.109983,-0.8870834 0.11412,-0.032504 0.228253,-0.05162 0.346065,-0.061178 0.351588,-0.024854 0.714221,0.055442 1.043717,0.2523596 z m 0,0"
       id="path10" />
    <path
       style="fill:#bfbdba"
       d="m 34.617552,31.617694 3.265521,1.957701 -0.471235,0.848849 -3.265523,-1.957701 z m 0,0"
       id="path11" />
    <path
       style="fill:#ff9955"
       d="M 52.699412,2.9174821 C 51.605992,2.2617283 50.352434,1.9462784 49.089664,2.0074567 46.845769,2.1183419 44.81172,3.4049955 43.688854,5.4257872 l -18.849457,33.9080048 2.337772,1.403274 1.789228,1.07253 3.171641,1.900345 1.616191,0.969293 2.510808,1.506513 18.849461,-33.908005 C 56.936853,9.0008866 55.856321,4.8101813 52.699412,2.9174821 Z m -2.356184,4.2385004 c 0.329497,0.1969177 0.578001,0.4836897 0.73262,0.8125223 0.05152,0.1108859 0.09204,0.2236833 0.12334,0.3422155 0.11966,0.4703071 0.06812,0.9884099 -0.184059,1.443423 L 37.22225,34.565717 36.850414,35.23294 c -0.508053,0.913849 -1.623557,1.223564 -2.501602,0.697813 -0.878046,-0.527659 -1.176252,-1.686221 -0.670039,-2.598158 L 34.050615,32.665368 47.843483,7.851884 c 0.252184,-0.4550125 0.658995,-0.7609032 1.109983,-0.8870834 0.11412,-0.032504 0.228253,-0.05162 0.346065,-0.061178 0.351588,-0.024854 0.714221,0.055442 1.043717,0.2523596 z m 0,0"
       id="path12" />
    <path
       style="fill:none"
       d="M 34.348752,35.930741 C 33.470694,35.4031 33.1725,34.244518 33.678711,33.332579 L 47.843423,7.8518766 c 0.50635,-0.9118546 1.621714,-1.2235657 2.499759,-0.6959055 0.879818,0.5258744 1.17809,1.6862248 0.671881,2.5981622 L 36.850438,35.232978 c -0.506333,0.913777 -1.623553,1.223566 -2.5016,0.697817 z m 0,0"
       id="path13" />
    <path
       style="fill:#2d3d53;fill-opacity:1"
       d="m 26.724342,35.942225 11.42564,6.851956 -1.884945,3.391566 -11.42564,-6.851955 z m 0,0"
       id="path14" />
    <path
       style="fill:#2d3d53;fill-opacity:1"
       d="m 47.46312,22.000329 c -1.103272,1.911897 -3.549996,2.568074 -5.463639,1.462728 -1.91169,-1.103393 -2.567795,-3.550386 -1.46257,-5.462282 1.103272,-1.913848 3.549998,-2.568071 5.461689,-1.464678 1.913641,1.105345 2.569748,3.550385 1.46452,5.464232 z m 0,0"
       id="path15" />
    <path
       style="fill:#2d3d53;fill-opacity:1"
       d="M 41.332672,9.6642872 29.31614,31.281213 c 0.903819,0.541045 2.052457,0.221771 2.573396,-0.716931 L 42.021118,12.338921 c 0.52278,-0.940615 0.21537,-2.133589 -0.688446,-2.6746338 z m 0,0"
       id="path16" />
    <path
       style="fill:#2d3d53;fill-opacity:1"
       d="M 48.045951,24.993242 40.741784,38.133168 C 39.837968,37.590213 39.53056,36.397239 40.051498,35.458536 l 5.419219,-9.748359 c 0.522777,-0.940616 1.671414,-1.25989 2.575234,-0.716935 z m 0,0"
       id="path17" />
    <path
       style="fill:#bcccdc;fill-opacity:1"
       d="M 20.784271,48.588196 20.000019,49.9972 H 33.04567 l 0.781551,-1.409004 z"
       id="path18" />
  </g>
</svg>
