<?xml version="1.0" encoding="UTF-8" standalone="no"?>
<svg
   width="62"
   height="62"
   viewBox="0 0 62 62"
   fill="none"
   version="1.1"
   id="svg14"
   sodipodi:docname="chat 1.svg"
   inkscape:version="1.4 (unknown)"
   xmlns:inkscape="http://www.inkscape.org/namespaces/inkscape"
   xmlns:sodipodi="http://sodipodi.sourceforge.net/DTD/sodipodi-0.dtd"
   xmlns:xlink="http://www.w3.org/1999/xlink"
   xmlns="http://www.w3.org/2000/svg"
   xmlns:svg="http://www.w3.org/2000/svg">
  <sodipodi:namedview
     id="namedview14"
     pagecolor="#ffffff"
     bordercolor="#000000"
     borderopacity="0.25"
     inkscape:showpageshadow="2"
     inkscape:pageopacity="0.0"
     inkscape:pagecheckerboard="0"
     inkscape:deskcolor="#d1d1d1"
     inkscape:zoom="5"
     inkscape:cx="31.7"
     inkscape:cy="40.7"
     inkscape:window-width="1920"
     inkscape:window-height="996"
     inkscape:window-x="0"
     inkscape:window-y="0"
     inkscape:window-maximized="1"
     inkscape:current-layer="svg14" />
  <path
     d="M 9,6 C 5.68629,6 3,8.68629 3,12 v 32 c 0,3.3137 2.68629,6 6,6 h 24.1852 l -1.0961,3.5014 c -0.5036,1.6088 1.2222,3.0274 2.8046,2.3053 L 47.6175,50 H 53 c 3.3137,0 6,-2.6863 6,-6 V 12 C 59,8.68629 56.3137,6 53,6 Z"
     id="path1"
     style="fill:url(#linearGradient16)" />
  <path
     d="m 32,59 c 0,1.6569 -1.3431,3 -3,3 -1.6569,0 -3,-1.3431 -3,-3 0,-1.6569 1.3431,-3 3,-3 1.6569,0 3,1.3431 3,3 z"
     id="path2"
     style="fill:url(#linearGradient18)" />
  <defs
     id="defs14">
    <linearGradient
       id="linearGradient14"
       inkscape:collect="always">
      <stop
         style="stop-color:#37c871;stop-opacity:1"
         offset="0"
         id="stop15" />
      <stop
         style="stop-color:#21ab21;stop-opacity:1;"
         offset="1"
         id="stop16" />
    </linearGradient>
    <linearGradient
       id="paint0_linear_328_682"
       x1="4"
       y1="4"
       x2="53.968601"
       y2="59.674301"
       gradientUnits="userSpaceOnUse">
      <stop
         offset="0.313692"
         stop-color="#EFF2F6"
         id="stop5" />
      <stop
         offset="0.785658"
         stop-color="#B7C6CD"
         id="stop6" />
    </linearGradient>
    <linearGradient
       id="paint1_linear_328_682"
       x1="27"
       y1="54"
       x2="33"
       y2="60"
       gradientUnits="userSpaceOnUse"
       gradientTransform="translate(-1,2)"
       xlink:href="#linearGradient14">
      <stop
         stop-color="#EFF2F6"
         id="stop7" />
      <stop
         offset="0.58769"
         stop-color="#B7C6CD"
         id="stop8" />
    </linearGradient>
    <linearGradient
       id="paint2_linear_328_682"
       x1="22"
       y1="30"
       x2="14"
       y2="22"
       gradientUnits="userSpaceOnUse"
       gradientTransform="translate(-1,2)">
      <stop
         offset="0.166852"
         stop-color="#5200FF"
         id="stop9" />
      <stop
         offset="0.775314"
         stop-color="#0085FF"
         id="stop10" />
    </linearGradient>
    <linearGradient
       id="paint3_linear_328_682"
       x1="36"
       y1="30"
       x2="28"
       y2="22"
       gradientUnits="userSpaceOnUse"
       gradientTransform="translate(-1,2)">
      <stop
         offset="0.166852"
         stop-color="#5200FF"
         id="stop11" />
      <stop
         offset="0.775314"
         stop-color="#0085FF"
         id="stop12" />
    </linearGradient>
    <linearGradient
       id="paint4_linear_328_682"
       x1="50"
       y1="30"
       x2="42"
       y2="22"
       gradientUnits="userSpaceOnUse"
       gradientTransform="translate(-1,2)">
      <stop
         offset="0.166852"
         stop-color="#5200FF"
         id="stop13" />
      <stop
         offset="0.775314"
         stop-color="#0085FF"
         id="stop14" />
    </linearGradient>
    <linearGradient
       inkscape:collect="always"
       xlink:href="#linearGradient14"
       id="linearGradient16"
       x1="13.8"
       y1="4"
       x2="42.2556"
       y2="50.903351"
       gradientUnits="userSpaceOnUse"
       gradientTransform="translate(-1,2)" />
    <linearGradient
       inkscape:collect="always"
       xlink:href="#linearGradient14"
       id="linearGradient18"
       x1="26"
       y1="59"
       x2="32"
       y2="59"
       gradientUnits="userSpaceOnUse" />
  </defs>
  <g
     id="g16"
     transform="matrix(1.0016218,0,0,1.0013306,-1.0194614,-12.034595)">
    <path
       style="opacity:0.2"
       d="m 45.595073,27.003366 c -0.16837,0.02827 -0.25892,0.213817 -0.177597,0.36393 0.810978,1.520775 1.638349,3.467971 2.32527,5.180823 -0.337816,0.357965 -0.915816,0.544813 -1.544035,0.777355 -2.361097,0.371802 -4.866194,0.455089 -7.341678,0.637604 -0.08946,0.0073 -0.168087,0.06215 -0.205743,0.143631 -0.843258,1.796069 -1.934139,3.353131 -3.011399,4.951388 -0.01701,0.02443 -0.0295,0.05172 -0.03688,0.08056 -0.399949,1.675136 -0.936909,3.252278 -1.462514,4.789806 -1.570042,0.123284 -3.023189,0.192947 -3.854746,0.066 -0.694443,-1.496274 -1.305059,-3.012318 -1.393609,-4.107559 -0.0048,-0.05162 -0.0254,-0.100464 -0.05919,-0.139748 -1.754119,-2.067362 -3.389426,-4.160301 -4.767967,-6.304237 -0.07022,-0.108612 -0.211963,-0.145313 -0.326081,-0.08443 -1.023381,0.546585 -1.986099,1.106546 -3.147266,1.315971 -1.392742,-0.607932 -2.633788,-1.305118 -3.813986,-2.042859 0.700935,-1.648194 1.469032,-3.747628 2.420377,-5.234201 0.131026,-0.208009 -0.08684,-0.459808 -0.311524,-0.360048 -2.085637,0.972538 -4.211295,1.897165 -6.697282,2.537805 -0.152822,0.0378 -0.232579,0.206227 -0.164981,0.348403 0.586364,1.242344 0.985046,3.040054 1.353819,4.354945 0.01828,0.06426 0.06166,0.118468 0.120344,0.150424 1.839517,1.009882 3.659572,2.373468 5.454096,3.459939 0.04234,0.02449 0.09093,0.03597 0.139748,0.033 1.126311,-0.04197 2.217758,-0.04875 3.179292,0.158189 1.159296,2.291126 2.133323,4.06944 3.172498,6.240977 1.247147,3.405786 2.314581,6.949568 3.444234,10.466624 0.03529,0.11158 0.143558,0.183487 0.260088,0.172746 1.785389,-0.158757 3.757032,-0.125664 5.761739,-0.0621 0.109172,0.0031 0.207564,-0.06544 0.24262,-0.168863 0.86767,-2.506524 1.73797,-4.659535 2.607679,-6.704074 0.0027,-0.0073 0.0049,-0.01478 0.0069,-0.02232 0.564538,-1.731178 1.146362,-3.476934 1.771126,-5.252237 l 0.0077,-0.01456 c 0.0013,-0.0038 0.0025,-0.0069 0.0039,-0.01064 0.857815,-1.787415 1.70586,-3.569135 2.72899,-5.266793 2.444358,-0.649431 4.923265,-1.170686 7.415436,-1.654669 0.08968,-0.01669 0.163048,-0.08112 0.191182,-0.167893 0.5937,-1.809929 1.209569,-4.096469 2.024421,-5.756317 0.06556,-0.134666 -0.002,-0.29631 -0.143629,-0.344521 -2.107154,-0.729006 -4.107706,-1.57044 -6.01794,-2.508695 -0.04732,-0.0239 -0.101052,-0.03206 -0.153337,-0.0233 z"
       id="path3" />
    <path
       style="fill:#f2f2f2;fill-opacity:1"
       d="m 45.595073,26.003366 c -0.16837,0.02827 -0.25892,0.213817 -0.177597,0.36393 0.810978,1.520775 1.638349,3.467971 2.32527,5.180823 -0.337816,0.357965 -0.915816,0.544813 -1.544035,0.777355 -2.361097,0.371802 -4.866194,0.455089 -7.341678,0.637604 -0.08946,0.0073 -0.168087,0.06215 -0.205743,0.143631 -0.843258,1.796069 -1.934139,3.353131 -3.011399,4.951388 -0.01701,0.02443 -0.0295,0.05172 -0.03688,0.08056 -0.399949,1.675136 -0.936909,3.252278 -1.462514,4.789806 -1.570042,0.123284 -3.023189,0.192947 -3.854746,0.066 -0.694443,-1.496274 -1.305059,-3.012318 -1.393609,-4.107559 -0.0048,-0.05162 -0.0254,-0.100464 -0.05919,-0.139748 -1.754119,-2.067362 -3.389426,-4.160301 -4.767967,-6.304237 -0.07022,-0.108612 -0.211963,-0.145313 -0.326081,-0.08443 -1.023381,0.546585 -1.986099,1.106546 -3.147266,1.315971 -1.392742,-0.607932 -2.633788,-1.305118 -3.813986,-2.042859 0.700935,-1.648194 1.469032,-3.747628 2.420377,-5.234201 0.131026,-0.208009 -0.08684,-0.459808 -0.311524,-0.360048 -2.085637,0.972538 -4.211295,1.897165 -6.697282,2.537805 -0.152822,0.0378 -0.232579,0.206227 -0.164981,0.348403 0.586364,1.242344 0.985046,3.040054 1.353819,4.354945 0.01828,0.06426 0.06166,0.118468 0.120344,0.150424 1.839517,1.009882 3.659572,2.373468 5.454096,3.459939 0.04234,0.02449 0.09093,0.03597 0.139748,0.033 1.126311,-0.04197 2.217758,-0.04875 3.179292,0.158189 1.159296,2.291126 2.133323,4.06944 3.172498,6.240977 1.247147,3.405786 2.314581,6.949568 3.444234,10.466624 0.03529,0.11158 0.143558,0.183487 0.260088,0.172746 1.785389,-0.158757 3.757032,-0.125664 5.761739,-0.0621 0.109172,0.0031 0.207564,-0.06544 0.24262,-0.168863 0.86767,-2.506524 1.73797,-4.659535 2.607679,-6.704074 0.0027,-0.0073 0.0049,-0.01478 0.0069,-0.02232 0.564538,-1.731178 1.146362,-3.476934 1.771126,-5.252237 l 0.0077,-0.01456 c 0.0013,-0.0038 0.0025,-0.0069 0.0039,-0.01064 0.857815,-1.787415 1.70586,-3.569135 2.72899,-5.266793 2.444358,-0.649431 4.923265,-1.170686 7.415436,-1.654669 0.08968,-0.01669 0.163048,-0.08112 0.191182,-0.167893 0.5937,-1.809929 1.209569,-4.096469 2.024421,-5.756317 0.06556,-0.134666 -0.002,-0.29631 -0.143629,-0.344521 -2.107154,-0.729006 -4.107706,-1.57044 -6.01794,-2.508695 -0.04732,-0.0239 -0.101052,-0.03206 -0.153337,-0.0233 z"
       id="path4" />
  </g>
</svg>
