<?xml version="1.0" encoding="UTF-8" standalone="no"?>
<svg
   width="62"
   height="62"
   version="1"
   id="svg10"
   sodipodi:docname="osmscout-server.svg"
   inkscape:version="1.4 (unknown)"
   xmlns:inkscape="http://www.inkscape.org/namespaces/inkscape"
   xmlns:sodipodi="http://sodipodi.sourceforge.net/DTD/sodipodi-0.dtd"
   xmlns="http://www.w3.org/2000/svg"
   xmlns:svg="http://www.w3.org/2000/svg">
  <defs
     id="defs10" />
  <sodipodi:namedview
     id="namedview10"
     pagecolor="#ffffff"
     bordercolor="#000000"
     borderopacity="0.25"
     inkscape:showpageshadow="2"
     inkscape:pageopacity="0.0"
     inkscape:pagecheckerboard="0"
     inkscape:deskcolor="#d1d1d1"
     inkscape:zoom="12.078125"
     inkscape:cx="31.958603"
     inkscape:cy="32"
     inkscape:window-width="1920"
     inkscape:window-height="996"
     inkscape:window-x="0"
     inkscape:window-y="0"
     inkscape:window-maximized="1"
     inkscape:current-layer="svg10" />
  <g
     id="g10"
     transform="matrix(0.98214286,0,0,0.98245614,-1.0048976,-0.92982455)">
    <path
       style="opacity:0.2"
       d="M 6.8,5 C 5.2488,5 4,6.2488 4,7.8 V 33 A 28,28 0 0 0 32,61 H 57.2 C 58.7512,61 60,59.7512 60,58.2 V 33 7.8 C 60,6.2488 58.7512,5 57.2,5 H 32 Z"
       id="path1" />
    <path
       style="fill:#2d3d53;fill-opacity:1"
       d="M 6.8,4 C 5.2488,4 4,5.2488 4,6.8 V 32 A 28,28 0 0 0 32,60 H 57.2 C 58.7512,60 60,58.7512 60,57.2 V 32 6.8 C 60,5.2488 58.7512,4 57.2,4 H 32 Z"
       id="path2" />
    <path
       style="opacity:0.2"
       d="M 10,11 V 25.335938 33 33.05468 c 0.0016,0.657742 0.04242,1.30383 0.101562,1.945312 0.02147,0.241376 0.04904,0.47976 0.07813,0.71875 0.04652,0.370672 0.10346,0.737008 0.167968,1.101562 0.104,0.6009 0.23555,1.190792 0.386719,1.773438 0.043,0.1648 0.07852,0.33277 0.125,0.496094 0,0 0.0039,-0.004 0.0039,-0.004 0.08237,0.289726 0.164082,0.578684 0.257812,0.86328 0.0022,0.0068 0.0056,0.0128 0.0078,0.0196 0.25809,0.781106 0.562313,1.538606 0.902344,2.277344 0.01844,0.03972 0.03992,0.0776 0.05859,0.11718 0.342248,0.731948 0.722943,1.440466 1.140625,2.125 0.15094,0.247372 0.2928,0.501472 0.453125,0.742186 -0.0018,-8.22e-4 -0.006,8.3e-4 -0.0078,0 0.0093,0.014 0.02195,0.02516 0.03125,0.03906 0.456384,0.682148 0.952421,1.332442 1.480469,1.95703 0.108618,0.12836 0.22834,0.24533 0.339844,0.371094 0.424801,0.479678 0.867026,0.942298 1.332031,1.382812 0.168974,0.15984 0.34159,0.31432 0.515625,0.46875 0.461247,0.409944 0.938447,0.79775 1.433594,1.16797 0.15986,0.11938 0.317242,0.240388 0.480468,0.355468 0.642481,0.453518 1.304592,0.878084 1.996094,1.26172 0.0164,0.0092 0.0304,0.02216 0.04688,0.03124 1.610556,0.88808 3.353468,1.56268 5.183592,2.027344 0.788662,0.20024 1.592964,0.35939 2.414064,0.472656 0.0158,0.0022 0.03114,0.0056 0.04688,0.0078 0.478326,0.06494 0.961278,0.11436 1.44922,0.14844 0.19758,0.0138 0.3947,0.02262 0.59375,0.03124 0.0022,-3.42e-4 0.0017,-0.0036 0.004,-0.004 C 31.349524,54.963336 31.670222,55 32,55 H 49.722656 53.65625 54 V 54.570312 51.300782 50.007812 47.253906 43.828124 33 15.382812 11 H 32 Z"
       id="path3" />
    <path
       style="fill:#deaa87"
       d="m 9.9999686,10 v 22 0.0537 C 10.028963,44.243764 19.800606,54 31.998626,54 h 0.0028 21.998656 V 32 10 h -21.998656 -0.0028 z"
       id="path4" />
    <path
       style="opacity:0.1;fill:#ffffff"
       d="m 40.056641,11 0.05273,0.367188 c 0.0302,0.203039 0.190037,0.435071 0.355469,0.515624 0.16544,0.08055 0.436138,0.215266 0.601562,0.296876 0.19476,0.09608 0.282385,0.301601 0.248047,0.583984 -0.03854,0.316942 0.156824,0.672472 0.714844,1.300781 0.510976,0.57535 0.859345,1.18278 1.042969,1.814453 0.290454,0.999148 0.754228,1.480469 1.423828,1.480469 0.275228,0 0.483425,0.187264 0.716797,0.644531 0.18092,0.354492 0.488695,0.788582 0.683593,0.964844 0.37344,0.337733 0.397457,0.33828 2.539063,-0.08398 0.934404,-0.184234 1.156848,-0.172037 1.976562,0.121093 0.796272,0.284749 0.983661,0.442365 1.351563,1.138672 0.23471,0.444227 0.582771,0.87873 0.773437,0.964844 0.518792,0.234324 0.753377,0.06605 0.953125,-0.675781 0.0992,-0.368405 0.252858,-0.667969 0.34375,-0.667969 C 53.935424,19.765636 54,18.072963 54,15.382812 v -1 c 0,2.690151 -0.06458,4.382824 -0.166016,4.382813 -0.09089,0 -0.24455,0.299564 -0.34375,0.667969 -0.199748,0.741831 -0.434333,0.910105 -0.953125,0.675781 -0.190666,-0.08611 -0.538727,-0.520617 -0.773437,-0.964844 -0.367902,-0.696307 -0.555291,-0.853923 -1.351563,-1.138672 -0.819714,-0.29313 -1.042158,-0.305327 -1.976562,-0.121093 -2.141606,0.422264 -2.165623,0.421717 -2.539063,0.08398 -0.194898,-0.176262 -0.502673,-0.610352 -0.683593,-0.964844 -0.233372,-0.457267 -0.441569,-0.644531 -0.716797,-0.644531 -0.6696,0 -1.133374,-0.481321 -1.423828,-1.480469 -0.183624,-0.631673 -0.531993,-1.239103 -1.042969,-1.814453 -0.55802,-0.628309 -0.753384,-0.983839 -0.714844,-1.300781 0.03434,-0.282383 -0.05329,-0.487904 -0.248047,-0.583984 C 40.966463,11.130382 40.833504,11.063995 40.703125,11 Z m -6.138672,0.02539 c -0.406476,0.01898 -0.712891,0.04499 -0.712891,0.08008 0,0.05806 0.402459,0.570655 0.894531,1.138672 0.874418,1.009383 0.897554,1.023628 1.06836,0.625 0.264968,-0.61838 0.467077,-0.676134 1.058593,-0.310547 0.595003,0.36774 1.103516,0.433174 1.103516,0.146484 0,-0.09295 -0.178861,-0.464724 -0.396484,-0.847656 -0.194783,-0.03827 -0.437812,-0.132438 -0.707032,-0.298828 -0.591516,-0.365587 -0.793625,-0.307833 -1.058593,0.310547 -0.170806,0.398628 -0.193942,0.384383 -1.06836,-0.625 -0.07064,-0.08155 -0.115624,-0.140671 -0.18164,-0.21875 z m -4.53711,2.060547 c -0.196318,-0.02217 -0.150533,0.387894 0.191407,1.113281 0.114896,0.08792 0.248115,0.217424 0.421875,0.439453 0.197123,0.251884 0.537719,0.497573 0.832031,0.638672 0.07663,0.0027 0.143974,0.01487 0.230469,0.0078 0.386998,-0.03158 0.515625,-0.12871 0.515625,-0.386718 0,-0.238135 -0.178302,-0.400679 -0.576172,-0.529297 -0.315882,-0.102107 -0.767445,-0.430815 -1.001953,-0.730469 -0.284064,-0.362975 -0.492122,-0.539115 -0.613282,-0.552734 z m 8.837891,0.818359 c -0.08753,0.04646 -0.108494,0.152483 -0.09961,0.361328 0.02526,0.595049 0.511374,2.336421 0.910156,3.265625 0.18256,0.425389 0.422523,1.018036 0.533203,1.316406 0.11068,0.298369 0.603603,0.975128 1.095703,1.503906 0.765482,0.822536 0.983947,0.960938 1.511719,0.960938 0.75278,0 1.04091,-0.314322 1.0625,-1.160156 0.0034,-0.134654 -0.01985,-0.285194 -0.06836,-0.460938 -0.125724,0.44524 -0.429555,0.621094 -0.99414,0.621094 -0.527772,0 -0.746237,-0.138402 -1.511719,-0.960938 -0.4921,-0.528778 -0.985023,-1.205537 -1.095703,-1.503906 -0.11068,-0.29837 -0.350643,-0.891017 -0.533203,-1.316406 C 38.731098,15.836417 38.385487,14.6885 38.21875,13.904296 Z m -6.267578,3.894531 c -0.04944,-0.005 -0.10483,0.02082 -0.16211,0.07813 -0.09454,0.09453 -0.113521,0.262057 -0.04492,0.373047 0.08315,0.134566 0.180361,0.143903 0.294921,0.0293 0.09452,-0.09453 0.117429,-0.262029 0.04883,-0.373047 -0.04156,-0.06729 -0.0873,-0.102422 -0.136719,-0.107422 z m 6.476562,1.369141 c -0.02829,0.0441 -0.03981,0.07021 -0.07227,0.11914 -0.48389,0.729425 -0.633514,1.182315 -0.392578,1.716797 0.08519,-0.213728 0.212098,-0.444738 0.392578,-0.716797 0.440209,-0.663579 0.472873,-0.868192 0.07227,-1.11914 z m -0.708984,1.380859 c -0.01804,0.01806 -0.02705,0.07957 -0.03125,0.179688 -0.0074,0.181186 0.03079,0.283682 0.08789,0.226562 0.05732,-0.05712 0.06329,-0.206018 0.01367,-0.330078 -0.02746,-0.0686 -0.05231,-0.09417 -0.07031,-0.07617 z m 0.257812,1.490234 c -0.103146,0.446191 -0.384981,0.988907 -0.802734,1.433594 -0.218498,0.23258 -0.353101,0.493445 -0.300781,0.578125 0.05234,0.08467 -0.02857,0.381389 -0.179688,0.658203 -0.350926,0.64288 -0.627042,2.27977 -0.601562,3.572266 0.01928,0.978034 0.0076,1.003381 -0.398438,0.925781 -0.388126,-0.0742 -0.369507,-0.02105 0.279297,0.753907 0.03163,0.03777 0.06182,0.06672 0.0918,0.09766 0.03175,-0.136045 0.03563,-0.357201 0.02734,-0.777344 -0.02548,-1.292496 0.250636,-2.929386 0.601562,-3.572266 0.15112,-0.276814 0.232026,-0.573531 0.179688,-0.658203 -0.05232,-0.08468 0.08228,-0.345545 0.300781,-0.578125 0.64296,-0.684414 1.015211,-1.628437 0.802734,-2.037109 -0.0248,-0.04786 -0.01833,-0.0637 0.01367,-0.05078 0.09586,0.0388 0.428112,0.332668 0.863282,0.77539 0.411918,0.419064 0.673764,0.716459 0.833984,0.958985 -0.15722,-0.240482 -0.411287,-0.534054 -0.810547,-0.94336 -0.451169,-0.462523 -0.74615,-0.814681 -0.900391,-1.136719 z m -2.05664,1.195313 c -0.208576,0 -0.166714,0.419216 0.06641,0.652344 0.26989,0.269804 0.484375,0.263909 0.484375,-0.01563 0,-0.247662 -0.336591,-0.636719 -0.550781,-0.636719 z m -4.203125,3.525391 c -0.541729,-0.03364 -1.457148,0.115377 -1.919922,0.355468 -0.312314,0.16204 -0.522956,0.170997 -0.833984,0.0293 -0.365104,-0.166356 -0.473122,-0.123214 -0.91211,0.357422 -0.274454,0.3005 -0.583687,0.544922 -0.685547,0.544922 -0.101882,0 -0.488745,-0.200035 -0.859375,-0.445313 -0.370636,-0.245285 -0.753535,-0.395784 -0.853515,-0.333984 -0.09998,0.06179 -0.181641,0.460695 -0.181641,0.886719 0,0.932874 -0.203916,1.373027 -0.919922,1.992187 -0.290174,0.250924 -0.387537,0.400459 -0.335937,0.455078 -0.06174,-0.02562 -0.07836,-0.08253 -0.01563,-0.191406 0.06808,-0.118164 -0.06871,-0.04083 -0.302735,0.171875 -0.06041,0.05492 -0.153102,0.09488 -0.232422,0.142578 -0.0086,-0.05518 -0.05111,-0.09961 -0.15039,-0.09961 -0.141792,0 -0.306814,0.07734 -0.365234,0.171875 -0.0328,0.0531 -0.01779,0.09535 0.01953,0.126953 -0.06759,0.01466 -0.142932,0.05012 -0.201172,0.05078 -0.540806,0.0062 -1.279297,0.510167 -1.279297,0.873047 0,0.05839 -0.07948,0.174436 -0.189453,0.3125 0.108771,0.223147 0.189453,0.458993 0.189453,0.615235 0,0.19988 -0.523334,0.786234 -1.169922,1.392578 0.640626,-0.588514 1.169922,-1.151891 1.169922,-1.320313 0,-0.36288 0.738491,-0.866859 1.279297,-0.873047 0.05824,-6.62e-4 0.133584,-0.03612 0.201172,-0.05078 -0.03732,-0.0316 -0.05233,-0.07385 -0.01953,-0.126953 0.05842,-0.09454 0.223442,-0.171875 0.365234,-0.171875 0.09928,0 0.14179,0.04443 0.15039,0.09961 0.07932,-0.0477 0.17201,-0.08766 0.232422,-0.142578 0.234028,-0.2127 0.370815,-0.290039 0.302735,-0.171875 -0.06274,0.10888 -0.04612,0.165787 0.01563,0.191406 -0.0516,-0.05462 0.04576,-0.204154 0.335937,-0.455078 0.36848,-0.318639 0.597457,-0.5927 0.736328,-0.908203 0.130975,-0.297562 0.183594,-0.631197 0.183594,-1.083984 0,-0.426024 0.08166,-0.824927 0.181641,-0.886719 0.09998,-0.0618 0.482879,0.0887 0.853515,0.333984 0.37063,0.245278 0.757493,0.445313 0.859375,0.445313 0.10186,0 0.411093,-0.244422 0.685547,-0.544922 0.438988,-0.480636 0.547006,-0.523778 0.91211,-0.357422 0.311028,0.1417 0.52167,0.132743 0.833984,-0.0293 0.617032,-0.320122 2.040015,-0.479098 2.306641,-0.257812 0.1236,0.10256 0.681273,0.431189 1.238281,0.730469 0.686868,0.369052 1.389735,0.973541 2.185547,1.876953 0.23346,0.330048 0.452404,0.551477 0.664062,0.728515 -0.07474,-0.08138 -0.143428,-0.142464 -0.21875,-0.232421 -0.648804,-0.774959 -0.667423,-0.828103 -0.279297,-0.753907 0.226832,0.04335 0.325363,0.03453 0.369141,-0.134765 -0.172082,-0.157899 -0.347959,-0.342777 -0.535156,-0.607422 -0.795812,-0.903412 -1.498679,-1.507901 -2.185547,-1.876953 -0.557008,-0.29928 -1.114681,-0.627909 -1.238281,-0.730469 -0.06666,-0.05532 -0.206143,-0.08644 -0.386719,-0.09766 z m -10.714844,3.810546 c -0.107961,0.008 -0.261985,0.09629 -0.390625,0.234376 -0.171526,0.184113 -0.441642,0.335937 -0.601562,0.335937 -0.159918,0 -0.701957,0.17037 -1.205078,0.378906 -0.91301,0.37843 -0.915912,0.380345 -0.808594,1.015625 0.02333,0.138109 0.02464,0.267626 0.02344,0.394532 0.102044,-0.126256 0.330605,-0.221751 0.785157,-0.410157 0.503121,-0.208536 1.04516,-0.378906 1.205078,-0.378906 0.15992,0 0.430036,-0.151824 0.601562,-0.335937 0.17152,-0.184121 0.388365,-0.280802 0.480469,-0.214844 0.130019,0.0931 0.27945,0.309353 0.396484,0.542968 0.115753,-0.153791 0.199219,-0.285934 0.199219,-0.357421 0,-0.326896 -0.337153,-1.000407 -0.595703,-1.185547 -0.02303,-0.01649 -0.05386,-0.0222 -0.08984,-0.01953 z m 4.712891,0.453126 c -0.303572,0.169779 -0.557485,0.293954 -0.779297,0.392578 0.22298,-0.0985 0.480239,-0.225332 0.779297,-0.392578 z m -1.03711,0.492187 c -0.0951,0.03442 -0.192364,0.06688 -0.257812,0.08008 0.06898,-0.0142 0.163004,-0.04602 0.257812,-0.08008 z M 10,32.054688 v 1 c 0.005,2.099353 0.313705,4.119559 0.859375,6.037109 0.06323,-0.08922 0.133636,-0.169648 0.183594,-0.267578 0.440434,-0.863342 1.025987,-1.24801 1.683593,-1.103516 0.47852,0.1051 0.529823,0.06042 0.9375,-0.830078 0.56119,-1.225844 1.06715,-1.561179 2.113282,-1.404297 1.490189,0.223472 2.444252,-0.61641 2.21875,-1.951172 -0.01432,-0.08478 -0.01689,-0.134615 -0.02539,-0.199218 -0.205935,0.848035 -1.032536,1.32447 -2.193359,1.15039 -1.046132,-0.156882 -1.552092,0.178453 -2.113282,1.404297 -0.407677,0.890494 -0.45898,0.935178 -0.9375,0.830078 -0.657606,-0.144494 -1.243159,0.240174 -1.683593,1.103516 -0.04996,0.09793 -0.120364,0.178358 -0.183594,0.267578 C 10.313705,36.174247 10.00498,34.154041 10,32.054688 Z"
       id="path5" />
    <path
       style="fill:#598cd9;fill-opacity:1"
       d="m 9.9999686,10 v 14.33545 7.71826 c 0.00498,2.099354 0.3137574,4.119562 0.8594274,6.037112 0.06323,-0.08922 0.13267,-0.16794 0.182628,-0.26587 0.440434,-0.863342 1.026334,-1.248254 1.683941,-1.10376 0.47852,0.1051 0.529637,0.06066 0.937314,-0.829834 0.56119,-1.225844 1.067521,-1.561422 2.113653,-1.40454 1.490189,0.223472 2.443899,-0.617632 2.218397,-1.952394 -0.107318,-0.63528 -0.104608,-0.636706 0.808401,-1.015136 0.503121,-0.208536 1.045964,-0.378664 1.205882,-0.378664 0.15992,0 0.430074,-0.15158 0.6016,-0.335694 0.17152,-0.18412 0.388638,-0.280802 0.480742,-0.214844 0.25855,0.18514 0.596228,0.857434 0.596228,1.18433 0,0.19988 -0.524382,0.787452 -1.17097,1.393796 0.640626,-0.588514 1.17097,-1.152866 1.17097,-1.321288 0,-0.36288 0.737594,-0.866616 1.2784,-0.872804 0.05824,-6.62e-4 0.13384,-0.03638 0.201428,-0.05104 -0.03732,-0.0316 -0.0516,-0.07312 -0.0188,-0.12622 0.05842,-0.09454 0.223462,-0.17188 0.365254,-0.17188 0.09928,0 0.1418,0.0442 0.1504,0.09938 0.07932,-0.0477 0.17056,-0.08742 0.230972,-0.14234 0.234028,-0.2127 0.371564,-0.290044 0.303484,-0.17188 -0.06274,0.10888 -0.04554,0.16506 0.0162,0.19068 -0.0516,-0.05462 0.04554,-0.202932 0.335714,-0.453856 0.716006,-0.61916 0.918514,-1.059804 0.918514,-1.992678 0,-0.426024 0.08264,-0.824436 0.18262,-0.886228 0.09998,-0.0618 0.48342,0.08772 0.854056,0.333006 0.37063,0.245278 0.757546,0.445802 0.859428,0.445802 0.10186,0 0.4104,-0.244666 0.684854,-0.545166 0.438988,-0.480636 0.54804,-0.523534 0.913144,-0.357178 0.311028,0.1417 0.520256,0.1325 0.83257,-0.02954 0.617032,-0.320122 2.0404,-0.479098 2.307026,-0.257812 0.1236,0.10256 0.681102,0.431188 1.23811,0.730468 0.686868,0.369052 1.390358,0.973786 2.18617,1.877198 0.23346,0.330048 0.451712,0.550744 0.66337,0.727782 -0.07474,-0.08138 -0.14222,-0.141 -0.217542,-0.230958 -0.648804,-0.774958 -0.66744,-0.828844 -0.279314,-0.754648 0.40601,0.0776 0.416764,0.05152 0.397484,-0.926514 -0.02548,-1.292496 0.250674,-2.928898 0.6016,-3.571778 0.15112,-0.276814 0.232278,-0.573286 0.17994,-0.657958 -0.05232,-0.08468 0.0823,-0.344812 0.300798,-0.577392 0.64296,-0.684414 1.015504,-1.62966 0.803028,-2.038332 -0.0248,-0.04786 -0.0184,-0.06396 0.0136,-0.05104 0.09586,0.0388 0.426944,0.3334 0.862114,0.776122 0.411918,0.419064 0.675036,0.716216 0.835256,0.958742 -0.15722,-0.240482 -0.411872,-0.53332 -0.811132,-0.942626 -1.221078,-1.251808 -1.304796,-1.70818 -0.521026,-2.889649 0.52806,-0.796007 0.50877,-0.926087 -0.19606,-1.275634 -0.308498,-0.152968 -0.413442,-0.366232 -0.453898,-0.921121 -0.04112,-0.564093 -0.15984,-0.796356 -0.542516,-1.068848 -0.26924,-0.191722 -0.675104,-0.349121 -0.902398,-0.349121 -0.62517,0 -0.886208,-0.310698 -1.431482,-1.702636 -0.449924,-1.148057 -0.56841,-1.303577 -1.20338,-1.584462 -0.444588,-0.196666 -1.00807,-0.692978 -1.533542,-1.348144 L 31.260056,10 Z m 24.8213394,0 c -0.88904,0 -1.616798,0.04667 -1.616798,0.104736 0,0.05806 0.402272,0.570655 0.894344,1.138672 0.874418,1.009383 0.898104,1.02436 1.06891,0.625732 0.264968,-0.61838 0.466654,-0.67711 1.05817,-0.311523 0.595002,0.36774 1.103828,0.434394 1.103828,0.147704 0,-0.101332 -0.20321,-0.526723 -0.448514,-0.945313 L 36.435418,10 Z m 5.23445,0 0.0537,0.36792 c 0.0302,0.20304 0.18908,0.435072 0.354512,0.515625 0.16544,0.08055 0.436176,0.213801 0.6016,0.29541 0.19476,0.09608 0.284108,0.303066 0.24977,0.585449 -0.03854,0.316942 0.15638,0.671496 0.7144,1.299805 0.510976,0.57535 0.85843,1.183756 1.042054,1.815429 0.290454,0.999148 0.753828,1.479737 1.423428,1.479737 0.275228,0 0.483712,0.187264 0.717084,0.644531 0.18092,0.354492 0.489958,0.787848 0.684856,0.96411 0.37344,0.337733 0.39639,0.339004 2.537996,-0.08326 0.934404,-0.184234 1.156972,-0.172282 1.976686,0.120848 0.796272,0.284749 0.98301,0.442365 1.350912,1.138672 0.23471,0.444227 0.582818,0.877996 0.773484,0.96411 0.518792,0.234324 0.753678,0.06776 0.953426,-0.674071 0.0992,-0.368405 0.25288,-0.668701 0.343772,-0.668701 0.10144,1.1e-5 0.16652,-1.692657 0.16652,-4.382807 V 10 Z m -1.743024,2.876221 c -0.16996,0.01762 -0.204852,0.119254 -0.19336,0.389404 0.02526,0.595049 0.511676,2.336421 0.910458,3.265625 0.18256,0.425389 0.421088,1.017548 0.531768,1.315918 0.11068,0.298369 0.603672,0.975128 1.095772,1.503906 0.765482,0.822536 0.984282,0.961426 1.512054,0.961426 0.75278,0 1.041952,-0.314322 1.063542,-1.160156 0.01296,-0.506307 -0.275818,-1.156964 -1.358976,-3.050782 -1.246012,-2.178561 -1.450868,-2.441246 -2.145882,-2.787598 -0.42221,-0.210401 -0.95882,-0.403755 -1.195142,-0.429687 -0.09004,-0.0099 -0.16358,-0.01386 -0.220228,-0.0081 z m -8.932676,0.209473 c 0.12116,0.01362 0.330964,0.190246 0.615028,0.553221 0.234508,0.299654 0.685888,0.628362 1.00177,0.730469 0.39787,0.128618 0.574744,0.290919 0.574744,0.529053 0,0.258008 -0.12866,0.355135 -0.515658,0.386719 -0.70378,0.05743 -1.056378,-0.191006 -1.461028,-1.028564 -0.369488,-0.764764 -0.41677,-1.1937 -0.214856,-1.170898 z m 2.570224,4.713134 c 0.04942,0.005 0.0954,0.04014 0.13696,0.107428 0.0686,0.111018 0.04618,0.278759 -0.04834,0.373291 -0.11456,0.114606 -0.212276,0.105036 -0.295426,-0.02953 -0.0686,-0.11099 -0.04888,-0.27876 0.04566,-0.373291 0.05728,-0.0573 0.1117,-0.08287 0.16114,-0.07788 z m 5.768906,2.75 c 0.018,-0.018 0.04238,0.0066 0.06984,0.0752 0.04962,0.12406 0.04372,0.273204 -0.0136,0.330322 -0.0571,0.05712 -0.09606,-0.0444 -0.08862,-0.225586 0.0042,-0.10012 0.0142,-0.16186 0.03224,-0.17992 z m -1.799424,2.685546 c 0.21419,0 0.55057,0.388814 0.55057,0.636476 0,0.279534 -0.213538,0.286004 -0.483428,0.0162 -0.23312,-0.233128 -0.275716,-0.65259 -0.06714,-0.65259 z m -10.2057,6.789064 c -0.303572,0.16978 -0.557046,0.293464 -0.778858,0.392088 0.22298,-0.0985 0.4798,-0.224842 0.778858,-0.392088 z m 12.51541,0.249756 c -0.16678,0.06292 -0.27522,0.08064 -0.47,0.17992 -0.07666,0.03908 -0.10644,0.03472 -0.18262,0.06982 0.207526,-0.05664 0.425048,-0.1384 0.652628,-0.249756 z m -13.552096,0.241698 c -0.0951,0.03442 -0.19238,0.06736 -0.257828,0.08056 0.06898,-0.0142 0.16302,-0.0465 0.257828,-0.08056 z"
       id="path6" />
    <path
       style="fill:#37c871"
       d="m 48.722546,21.196046 c -0.1055,0.0178 -0.202038,0.0597 -0.26857,0.12624 -0.17528,0.1753 -0.319494,2.044792 -0.17726,2.298828 0.10232,0.18274 0.1582,0.17036 0.918512,-0.21753 0.764242,-0.389896 0.852526,-0.600438 0.314228,-0.741212 -0.361154,-0.09444 -0.375714,-0.209368 -0.1316,-1.141358 0.0601,-0.229442 -0.338804,-0.378388 -0.655314,-0.324948 z m -10.7321,0.18798 c -0.03196,-0.013 -0.03828,0.0032 -0.0136,0.05104 0.212472,0.408672 -0.16008,1.353918 -0.803028,2.03833 -0.218498,0.232582 -0.353136,0.49272 -0.3008,0.577394 0.05232,0.08468 -0.02884,0.381144 -0.17994,0.657958 -0.350924,0.642878 -0.627078,2.279278 -0.6016,3.571776 0.0192,0.978032 0.0084,1.004134 -0.397482,0.926516 -0.388128,-0.0742 -0.36949,-0.02032 0.279314,0.754636 0.38433,0.459052 0.792078,0.835206 0.905084,0.835206 0.113,0 0.510086,-0.15468 0.880912,-0.34375 0.370826,-0.18906 0.772536,-0.34375 0.894342,-0.34375 0.1218,0 0.384492,-0.16154 0.5828,-0.359864 0.234926,-0.234936 0.504484,-0.333406 0.773484,-0.281982 0.347994,0.06654 0.410914,0.0098 0.410914,-0.357176 0,-0.23941 -0.1305,-0.57834 -0.29006,-0.75464 -0.252538,-0.279064 -0.25914,-0.400904 -0.06714,-0.931884 0.12526,-0.34637 0.1722,-0.861468 0.11012,-1.192384 -0.08638,-0.460418 -0.0354,-0.646256 0.241716,-0.883544 0.469206,-0.401722 0.440604,-0.712264 -0.08052,-0.910402 -0.327848,-0.12466 -0.429712,-0.287402 -0.429712,-0.684814 0,-0.406732 -0.228966,-0.754406 -1.052798,-1.59253 C 38.417278,21.71744 38.08621,21.422824 37.990336,21.38404 Z m -8.532502,7.178472 c -0.49301,0 -2.603848,0.82338 -3.74388,1.460938 -1.10053,0.61547 -1.7413,0.779914 -1.514744,0.386718 0.06808,-0.11816 -0.06946,-0.04082 -0.303484,0.17188 -0.234022,0.212694 -0.651762,0.388926 -0.929254,0.392088 -0.540806,0.006 -1.2784,0.509924 -1.2784,0.872804 0,0.354974 -2.296666,2.433762 -3.206739,2.903076 -0.458278,0.236328 -1.307807,0.772114 -1.888054,1.189698 -1.223494,0.880494 -4.207336,2.496092 -5.473479,3.010498 0.529432,1.606848 1.246725,3.122644 2.110968,4.538574 0.292105,0.06914 0.581175,0.14384 0.768114,0.217528 0.454742,0.17924 0.982523,0.324952 1.173656,0.324952 0.191136,0 0.300141,0.07734 0.241713,0.17188 -0.13013,0.210532 -1.310196,0.222734 -1.737655,0.02686 1.944168,2.919262 4.568615,5.334804 7.654278,7.036136 1.57378,-0.6173 3.538764,-0.957854 4.055422,-0.529056 0.13484,0.11192 0.295746,0.484842 0.3572,0.829836 0.06144,0.344994 0.26881,0.800526 0.46194,1.01245 0.15516,0.17024 0.265434,0.457278 0.311544,0.714356 0.802102,0.203588 1.619158,0.364428 2.45474,0.478026 0.291906,-0.1361 0.431756,-0.326756 0.373314,-0.566648 -0.04888,-0.200632 0.02978,-0.606686 0.17726,-0.902344 0.22219,-0.445408 0.368744,-0.53711 0.856742,-0.53711 0.562018,0 0.590856,-0.02768 0.590856,-0.620362 0,-0.608692 0.0112,-0.620864 0.558626,-0.51294 0.307214,0.06056 0.984092,0.15626 1.503998,0.21216 0.51991,0.05588 1.076496,0.218056 1.238114,0.359862 0.18744,0.16446 0.452026,0.217598 0.730514,0.14772 0.318234,-0.07986 0.437768,-0.04058 0.437768,0.14234 0,0.497352 0.34083,0.443542 1.007142,-0.15844 0.756742,-0.683688 0.966382,-1.322266 1.152172,-3.531494 0.13432,-1.59716 0.0291,-1.720188 -1.299886,-1.536134 -0.519908,0.07204 -1.01085,0.07078 -1.090398,-0.0028 -0.07954,-0.07344 -0.1636,-0.54887 -0.18532,-1.055418 -0.02168,-0.50655 -0.10204,-1.483136 -0.17994,-2.169924 -0.14348,-1.264914 -0.07052,-1.614056 0.658002,-3.134034 0.25216,-0.526114 0.989872,-0.653872 1.573824,-0.27124 0.606926,0.397682 1.090288,0.340152 1.318686,-0.16114 0.167,-0.366564 0.13814,-0.513312 -0.17726,-0.939942 -0.474286,-0.641452 -0.466394,-0.831008 0.0564,-1.745538 0.235184,-0.411404 0.428492,-0.80728 0.429712,-0.878174 0.0011,-0.0709 -0.390472,-0.12892 -0.870168,-0.12892 -0.853672,0 -1.71801,0.365436 -3.939938,1.667726 -1.856746,1.088254 -2.181668,1.249538 -2.513826,1.251464 -0.200392,0.0011 -1.128678,0.230346 -2.062626,0.50757 -0.933946,0.277216 -2.561122,0.696904 -3.614966,0.934568 -1.2706,0.286546 -2.20342,0.610746 -2.76897,0.958742 -0.469068,0.288622 -0.923596,0.523674 -1.01251,0.523674 -0.16442,0 -1.85592,1.09646 -2.637367,1.710694 -0.527181,0.414374 -2.321617,0.696372 -2.204968,0.346436 0.07604,-0.22816 1.455458,-1.04605 2.892511,-1.716066 1.272132,-0.593124 1.418362,-0.66903 2.492338,-1.305174 1.235558,-0.731854 3.466864,-1.456766 8.96759,-2.913818 0.489728,-0.12972 1.534044,-0.600442 2.320454,-1.04468 2.817806,-1.591758 2.861922,-1.608642 4.127936,-1.608642 1.357338,0 1.638756,-0.262056 1.004454,-0.937256 -0.208962,-0.222444 -0.364868,-0.586582 -0.346454,-0.80835 0.07698,-0.926914 -0.241684,-1.157704 -1.036686,-0.746582 -0.272902,0.14112 -0.92568,0.257814 -1.450284,0.257814 -0.943024,0 -1.04534,-0.06862 -0.964168,-0.660646 0.0174,-0.12742 -0.10016,-0.378432 -0.2632,-0.558594 -0.241256,-0.266598 -0.50679,-0.323946 -1.428798,-0.298096 -1.363536,0.03824 -2.82656,-0.35263 -2.908624,-0.778806 -0.03156,-0.16392 0.06254,-0.486004 0.21217,-0.714356 0.14962,-0.228354 0.273944,-0.480938 0.273944,-0.56128 0,-0.18684 -1.123014,-0.725098 -1.512056,-0.725098 z m 17.150948,1.552246 c -0.433098,0.0056 -0.773482,0.12932 -0.773482,0.405518 0,0.331014 0.0614,0.37678 1.117254,0.845946 1.118298,0.496914 1.679818,0.321548 1.482512,-0.4646 -0.11994,-0.477918 -1.104452,-0.795946 -1.826284,-0.786864 z m 1.103826,4.80713 c -0.329538,0 -0.50306,0.804958 -0.241712,1.119872 0.236264,0.284678 0.616122,0.334944 0.760056,0.10204 0.15322,-0.247904 -0.260338,-1.221924 -0.518344,-1.221924 z m 6.115364,7.734374 c -0.09452,0 -0.1719,0.07734 -0.1719,0.17188 0,0.09454 0.07736,0.17188 0.1719,0.17188 0.09452,0 0.1719,-0.07734 0.1719,-0.17188 0,-0.09452 -0.07736,-0.17188 -0.1719,-0.17188 z m 0,3.007812 c -0.19226,0.11882 -0.234194,0.995788 -0.0564,1.173584 0.201016,0.20102 0.22829,0.12968 0.22829,-0.582762 0,-0.42133 -0.06808,-0.654976 -0.1719,-0.590822 z m -14.236952,0.0886 c -1.251566,0.0054 -1.46713,0.776076 -0.252456,0.902344 0.35976,0.0374 0.679186,0.08076 0.709028,0.09668 0.15366,0.08182 0.717084,-0.35705 0.717084,-0.558594 0,-0.299662 -0.38172,-0.44373 -1.173656,-0.440432 z m -5.57285,1.922852 c 0.22983,0.04562 0.303486,0.230802 0.303486,0.781494 0,0.775382 0.02312,0.796546 0.714398,0.623046 0.6424,-0.1612 1.046154,0.368554 0.631142,0.827148 -0.1557,0.17204 -0.366482,0.309178 -0.469998,0.306154 -0.197,-0.0056 -1.211482,-0.838886 -1.232742,-1.012452 -0.0066,-0.05512 -0.1125,-0.307346 -0.236344,-0.56128 -0.27127,-0.556234 -0.12472,-1.04643 0.290058,-0.96411 z m 14.586096,0.794922 c -0.19664,-0.08014 -0.29449,0.0102 -0.3572,0.244384 -0.0569,0.212624 -0.18616,0.662766 -0.28737,1.00171 -0.15016,0.502768 -0.11662,0.865282 0.18532,1.965818 0.203542,0.741934 0.358732,1.510028 0.34377,1.705324 -0.015,0.19528 -0.0184,0.412504 -0.008,0.483398 0.0106,0.0709 0.570814,0.12892 1.24354,0.12892 1.190016,0 1.21988,-0.0104 1.10114,-0.386718 -0.06712,-0.212696 -0.15814,-0.618752 -0.201428,-0.902344 -0.447142,-2.929934 -0.416668,-2.830298 -1.066226,-3.46167 -0.460276,-0.44739 -0.756782,-0.698668 -0.953426,-0.778808 z m 5.395592,0.537118 -0.68754,0.351806 c -0.87302,0.445388 -0.89132,0.882046 -0.0725,1.654298 0.33758,0.318388 0.647018,0.580076 0.687542,0.580076 0.04054,0 0.0725,-0.580844 0.0725,-1.291748 z m -17.521578,0.17992 c 0.08894,0 0.16382,0.11604 0.16382,0.257812 0,0.265794 -0.203924,0.34127 -0.397484,0.14772 -0.1373,-0.1373 0.0168,-0.405518 0.233654,-0.405518 z m -4.254164,0.408204 c 0.03116,-0.0138 0.07358,-0.0076 0.12084,0.0215 0.09452,0.05842 0.1719,0.14092 0.1719,0.18262 0,0.04168 -0.07736,0.0752 -0.1719,0.0752 -0.09452,0 -0.1719,-0.0825 -0.1719,-0.18262 0,-0.05004 0.0198,-0.08294 0.05104,-0.09668 z m 1.356284,2.513672 c -0.51227,0 -0.720528,0.327588 -0.5076,0.794922 0.225756,0.495484 0.403394,0.51581 0.6392,0.0752 0.269314,-0.50323 0.213682,-0.87012 -0.1316,-0.87012 z m 1.442228,0.34375 c -0.32314,0 -0.501854,0.288638 -0.378688,0.60962 0.10952,0.285398 0.262556,0.307694 0.604286,0.09132 0.292106,-0.18498 0.12562,-0.70093 -0.225598,-0.70093 z m -3.891596,0.17188 c -0.06826,0 -0.17278,0.266294 -0.233656,0.590822 -0.06536,0.348412 -0.231266,0.62024 -0.405542,0.666014 -0.05082,0.0134 -0.06776,0.02776 -0.06714,0.04028 0.19758,0.0138 0.397176,0.02092 0.596226,0.02954 0.18694,-0.02872 0.348724,-0.07854 0.394802,-0.15308 0.08372,-0.1355 0.03294,-0.16578 -0.16116,-0.09132 -0.263144,0.10098 -0.26872,0.0683 -0.0376,-0.37866 0.236236,-0.456846 0.206426,-0.703608 -0.08594,-0.703608 z m 22.702312,0.515626 c -0.15314,0 -0.521026,0.538952 -0.521026,0.762696 0,0.05348 0.1547,0.09668 0.34377,0.09668 0.252076,4e-6 0.34377,-0.11458 0.34377,-0.429684 0,-0.236328 -0.07534,-0.429686 -0.16652,-0.429686 z"
       id="path7" />
    <path
       style="opacity:0.1;fill:#ffffff"
       d="M 6.8007812,4 C 5.2495812,4 4,5.2495812 4,6.8007812 v 1 C 4,6.2495813 5.2495812,5 6.8007812,5 H 32 57.199219 C 58.750419,5 60,6.2495812 60,7.8007812 v -1 C 60,5.2495813 58.750419,4 57.199219,4 H 32 Z"
       id="path8" />
    <path
       style="opacity:0.1;fill:#ffffff"
       d="m 10,10 v 1 H 32 54 V 10 H 32 Z"
       id="path9" />
    <path
       style="opacity:0.1"
       d="m 49.226562,22.279297 c -0.0089,0.167516 0.03384,0.267046 0.132813,0.320312 0.0079,-0.03054 0.0091,-0.04563 0.01758,-0.07813 0.02656,-0.101379 -0.04442,-0.182753 -0.150391,-0.242187 z m -0.0078,1.111328 c -0.0098,0.005 -0.01343,0.0086 -0.02344,0.01367 -0.760311,0.38789 -0.815648,0.399537 -0.917968,0.216797 -0.01715,-0.03063 -0.01807,-0.141088 -0.02734,-0.212891 -0.04295,0.532322 -0.04541,1.082955 0.02734,1.212891 0.10232,0.18274 0.157657,0.171093 0.917968,-0.216797 0.764243,-0.389896 0.852752,-0.601414 0.314454,-0.742188 -0.184917,-0.04836 -0.276025,-0.105462 -0.291016,-0.271484 z m -8.886719,2.044922 c -0.193788,0.200649 -0.233723,0.394344 -0.158203,0.796875 0.022,0.11725 0.01573,0.270172 0.01172,0.417969 0.04288,-0.107361 0.112634,-0.201835 0.230469,-0.302735 0.469206,-0.401722 0.441046,-0.712018 -0.08008,-0.910156 -0.0015,-5.88e-4 -0.0024,-0.0014 -0.0039,-0.002 z m -0.183593,1.585937 c -0.02322,0.140401 -0.04209,0.286491 -0.08398,0.402344 -0.178455,0.49352 -0.177297,0.637529 0.02539,0.878906 0.09818,-0.338833 0.139813,-0.772715 0.08398,-1.070312 -0.01514,-0.08069 -0.01917,-0.145357 -0.02539,-0.210938 z m -0.339844,2.435547 c -0.20031,0.01701 -0.396071,0.116767 -0.572266,0.292969 -0.198308,0.198324 -0.460231,0.359375 -0.582031,0.359375 -0.121806,0 -0.523705,0.15469 -0.894531,0.34375 -0.370826,0.18907 -0.76786,0.34375 -0.88086,0.34375 -0.103653,0 -0.460375,-0.331652 -0.814453,-0.738281 -0.04217,0.180719 -0.139543,0.192717 -0.371094,0.148437 -0.388128,-0.0742 -0.369507,-0.02105 0.279297,0.753907 0.38433,0.459051 0.793244,0.835937 0.90625,0.835937 0.113,0 0.510034,-0.15468 0.88086,-0.34375 0.370826,-0.18906 0.772725,-0.34375 0.894531,-0.34375 0.1218,0 0.383723,-0.161051 0.582031,-0.359375 0.234926,-0.234936 0.504438,-0.334627 0.773438,-0.283203 0.347994,0.06654 0.410156,0.01151 0.410156,-0.355469 0,-0.193784 -0.09373,-0.435925 -0.210938,-0.621094 -0.05329,4.9e-4 -0.11708,-0.0077 -0.199218,-0.02344 -0.06725,-0.01286 -0.134402,-0.01544 -0.201172,-0.0098 z M 30.625,30.003906 c -0.0991,0.204146 -0.165794,0.427869 -0.140625,0.558594 0.01711,0.08887 0.104734,0.175586 0.228516,0.257812 0.140712,-0.219968 0.257812,-0.456401 0.257812,-0.533203 0,-0.06455 -0.154205,-0.171454 -0.345703,-0.283203 z m 15.8125,1.126953 c -0.345318,0.03402 -0.601562,0.151429 -0.601562,0.388672 0,0.331014 0.06133,0.37849 1.117187,0.847657 1.118298,0.496913 1.679728,0.321304 1.482422,-0.464844 -0.02806,-0.111822 -0.106557,-0.214467 -0.214844,-0.306641 -0.250678,0.101868 -0.679112,0.03297 -1.267578,-0.228515 -0.219074,-0.09735 -0.373839,-0.169109 -0.515625,-0.236329 z m -7.644531,3.886719 c -0.21736,0.04975 -0.514576,0.07617 -0.916016,0.07617 -1.266014,0 -1.309147,0.01762 -4.126953,1.609375 -0.78641,0.444238 -1.830585,0.913249 -2.320312,1.042969 -5.500727,1.457052 -7.733192,2.182208 -8.96875,2.914062 -1.073976,0.636144 -1.220056,0.713517 -2.492188,1.306641 -1.437053,0.670016 -2.816538,1.486684 -2.892578,1.714844 -0.08689,0.260652 0.887189,0.169659 1.607422,-0.06445 0.236637,-0.127876 0.480564,-0.251852 0.740234,-0.38086 0.820411,-0.625108 2.339226,-1.611328 2.496094,-1.611328 0.08891,0 0.542651,-0.234816 1.011719,-0.523438 0.56555,-0.347996 1.498931,-0.672438 2.769531,-0.958984 1.053844,-0.237664 2.681288,-0.658331 3.615234,-0.935547 0.933948,-0.277224 1.862108,-0.504759 2.0625,-0.505859 0.332158,-0.0019 0.656926,-0.163699 2.513672,-1.251953 2.221928,-1.30229 3.085781,-1.667969 3.939453,-1.667969 0.479696,0 0.872194,0.05801 0.871094,0.128906 -1.89e-4,0.011 -0.05752,0.111212 -0.06641,0.136719 0.666773,-0.09948 0.733526,-0.371764 0.246093,-0.890625 -0.03592,-0.03824 -0.05767,-0.0935 -0.08984,-0.138672 z m 8.703125,1.044922 c -0.171113,0.244168 -0.219358,0.744793 -0.02539,0.978516 0.236264,0.284678 0.615832,0.336419 0.759766,0.103515 0.09439,-0.152713 -0.03035,-0.566676 -0.197266,-0.873047 -0.166642,0.03927 -0.376764,-0.03245 -0.53711,-0.208984 z m -9.234375,0.744141 c -0.421963,0.740463 -0.480281,1.014584 -0.228516,1.441406 0.06384,-0.135229 0.132724,-0.274331 0.238281,-0.458985 0.235184,-0.411403 0.430421,-0.808012 0.431641,-0.878906 7.16e-4,-0.04614 -0.19343,-0.08073 -0.441406,-0.103515 z m -2.097657,2.623047 C 35.875121,39.479562 35.62608,39.643193 35.5,39.90625 c -0.671896,1.401834 -0.774631,1.835886 -0.675781,2.882812 0.06598,-0.504038 0.250793,-0.996123 0.675781,-1.882812 0.25216,-0.526114 0.990267,-0.654116 1.574219,-0.271484 0.606926,0.397682 1.089961,0.341135 1.318359,-0.160157 0.152787,-0.335367 0.131255,-0.497609 -0.113281,-0.847656 -0.254542,0.334665 -0.67753,0.353483 -1.205078,0.0078 -0.291976,-0.191316 -0.621215,-0.254953 -0.910157,-0.205078 z m -24.734374,0.376953 c -0.09379,0.04127 -0.229822,0.111734 -0.310547,0.144531 0.529432,1.606848 1.247085,3.121179 2.111328,4.537109 0.292105,0.06914 0.580639,0.145062 0.767578,0.21875 0.0072,0.0028 0.01428,0.005 0.02148,0.0078 -0.114182,-0.161729 -0.233873,-0.319391 -0.34375,-0.484375 0.427459,0.195874 1.608152,0.183188 1.738281,-0.02734 0.05843,-0.09454 -0.05105,-0.171875 -0.242187,-0.171875 -0.191133,0 -0.719086,-0.144979 -1.173828,-0.324219 -0.186939,-0.07369 -0.475473,-0.14961 -0.767578,-0.21875 -0.708618,-1.160961 -1.312299,-2.391261 -1.800781,-3.68164 z m 42.398437,3.849609 c -0.09452,0 -0.171875,0.07733 -0.171875,0.171875 C 53.65625,43.922665 53.733585,44 53.828125,44 53.922645,44 54,43.922665 54,43.828125 54,43.733605 53.922665,43.65625 53.828125,43.65625 Z m -40.152344,1.574219 c 1.944168,2.919262 4.568634,5.333824 7.654297,7.035156 1.57378,-0.6173 3.539983,-0.958095 4.056641,-0.529297 0.13484,0.11192 0.295968,0.485084 0.357422,0.830078 0.06144,0.344994 0.267807,0.801748 0.460937,1.013672 0.15516,0.17024 0.26639,0.455813 0.3125,0.712891 0.802102,0.203588 1.619496,0.364917 2.455078,0.478515 0.291906,-0.1361 0.431489,-0.326514 0.373047,-0.566406 -0.04888,-0.200632 0.0283,-0.606686 0.175781,-0.902344 0.22219,-0.445408 0.369424,-0.537109 0.857422,-0.537109 0.562018,0 0.591797,-0.02841 0.591797,-0.621094 0,-0.608692 0.01117,-0.619642 0.558594,-0.511719 0.307214,0.06056 0.984,0.155038 1.503906,0.210938 0.51991,0.05588 1.076663,0.219522 1.238281,0.361328 0.18744,0.16446 0.451981,0.216362 0.730469,0.146484 0.318234,-0.07986 0.4375,-0.04034 0.4375,0.142579 0,0.497352 0.339547,0.443778 1.005859,-0.158203 0.756743,-0.683688 0.966554,-1.322023 1.152344,-3.53125 0.04672,-0.55555 0.06048,-0.923921 0.0078,-1.171876 -0.005,0.067 -0.0017,0.09882 -0.0078,0.171876 -0.18579,2.209227 -0.395601,2.847562 -1.152344,3.53125 -0.666312,0.601981 -1.005859,0.655555 -1.005859,0.158203 0,-0.18292 -0.119266,-0.222438 -0.4375,-0.142579 -0.278488,0.06988 -0.543029,0.01798 -0.730469,-0.146484 -0.161618,-0.141806 -0.718371,-0.305448 -1.238281,-0.361328 -0.189031,-0.02032 -0.341654,-0.04893 -0.546875,-0.07617 0.0047,0.0099 0.03125,0.02564 0.03125,0.0332 0,0.04168 -0.07733,0.07422 -0.171875,0.07422 -0.08299,0 -0.144364,-0.06711 -0.160156,-0.150391 -0.231062,-0.03358 -0.5222,-0.06537 -0.65625,-0.0918 -0.547426,-0.107923 -0.558594,-0.09697 -0.558594,0.511719 0,0.592682 -0.02978,0.621094 -0.591797,0.621094 -0.487998,0 -0.635232,0.0917 -0.857422,0.537109 -0.14748,0.295658 -0.224661,0.701712 -0.175781,0.902344 0.05844,0.239892 -0.08114,0.430306 -0.373047,0.566406 -0.835582,-0.113598 -1.652976,-0.274927 -2.455078,-0.478515 -0.04611,-0.257078 -0.15734,-0.542651 -0.3125,-0.712891 -0.19313,-0.211924 -0.399497,-0.668678 -0.460937,-1.013672 -0.06145,-0.344994 -0.222582,-0.718158 -0.357422,-0.830078 -0.516658,-0.428798 -2.482861,-0.088 -4.056641,0.529297 -2.677884,-1.476496 -5.005742,-3.491508 -6.845703,-5.90625 -0.312559,-0.0094 -0.62845,-0.04636 -0.808594,-0.128906 z m 25.916016,1.521484 c -1.251566,0.0054 -1.46858,0.776076 -0.253906,0.902344 0.35976,0.0374 0.679142,0.08174 0.708984,0.09766 0.15366,0.08182 0.71875,-0.35705 0.71875,-0.558594 0,-0.299662 -0.381892,-0.444704 -1.173828,-0.441406 z m 14.164062,0.04492 c -0.120265,0.271356 -0.134008,0.891381 0.01563,1.041016 C 53.9725,48.038911 54,47.968301 54,47.255859 c 0,-0.170218 -0.01702,-0.285028 -0.03711,-0.386718 -0.03135,0.09162 -0.08779,0.07237 -0.191407,-0.03125 -0.0075,-0.0075 -0.0089,-0.03112 -0.01563,-0.04102 z M 33.875,47.669922 c -0.302211,0.04628 -0.383846,0.482045 -0.146484,0.96875 0.01635,0.03352 0.01572,0.04121 0.03125,0.07422 0.06783,-0.04307 0.154118,-0.05769 0.257812,-0.03711 0.22983,0.04562 0.304688,0.230558 0.304688,0.78125 0,0.06152 0.0033,0.09027 0.0039,0.142578 0.209227,0.187913 0.444027,0.375705 0.634766,0.496094 0.02965,-0.0072 0.04363,-0.0075 0.07617,-0.01563 0.161766,-0.04059 0.307451,-0.03682 0.429688,-0.002 0.06835,-0.05044 0.139979,-0.104261 0.201172,-0.171875 0.415012,-0.458594 0.01154,-0.987372 -0.63086,-0.826172 -0.691278,0.1735 -0.714843,0.152335 -0.714843,-0.623047 0,-0.550692 -0.07486,-0.73563 -0.304688,-0.78125 -0.05185,-0.01029 -0.0994,-0.01247 -0.142578,-0.0059 z m 2.603516,1.517578 c -0.216854,0 -0.371675,0.26895 -0.234375,0.40625 0.19356,0.19355 0.398437,0.117356 0.398437,-0.148438 0,-0.141772 -0.07512,-0.257812 -0.164062,-0.257812 z m -4.253907,0.408203 c -0.03124,0.01374 -0.05078,0.04762 -0.05078,0.09766 0,0.10012 0.07735,0.181641 0.171875,0.181641 0.09454,0 0.171875,-0.03254 0.171875,-0.07422 0,-0.0417 -0.07735,-0.125174 -0.171875,-0.183593 -0.04726,-0.0291 -0.08993,-0.03529 -0.121094,-0.02148 z M 54,50.302734 c 0,0.710904 -0.03173,1.291016 -0.07227,1.291016 -0.04052,0 -0.34992,-0.26169 -0.6875,-0.580078 -0.148728,-0.14027 -0.238645,-0.258717 -0.332031,-0.378906 -0.417368,0.362994 -0.319508,0.764421 0.332031,1.378906 0.33758,0.318388 0.646976,0.580078 0.6875,0.580078 C 53.96827,52.59375 54,52.013638 54,51.302734 Z M 47.939453,50.8125 c -0.117359,0.456004 -0.077,0.841005 0.205078,1.869141 0.203542,0.741934 0.358712,1.509782 0.34375,1.705078 -0.015,0.19528 -0.01821,0.413481 -0.0078,0.484375 0.0106,0.0709 0.571414,0.128906 1.24414,0.128906 1.190016,0 1.220303,-0.0104 1.101563,-0.386719 C 50.777504,54.459023 50.726194,54.196175 50.6797,53.958984 50.518726,53.992957 50.246415,54 49.724609,54 c -0.672726,0 -1.23354,-0.05801 -1.24414,-0.128906 -0.0104,-0.07089 -0.0072,-0.289095 0.0078,-0.484375 0.01496,-0.195296 -0.140208,-0.963144 -0.34375,-1.705078 -0.100725,-0.367132 -0.160946,-0.633665 -0.205078,-0.869141 z m -14.324219,2.308594 c -0.13388,0.185229 -0.254674,0.221896 -0.380859,0.06445 -0.24232,0.12073 -0.316113,0.380743 -0.162109,0.71875 0.225756,0.495484 0.404819,0.514829 0.640625,0.07422 0.257709,-0.481546 0.208797,-0.827575 -0.09766,-0.857422 z m 1.408204,0.332031 c -0.323141,0 -0.502073,0.288393 -0.378907,0.609375 0.10952,0.285398 0.261786,0.308171 0.603516,0.0918 0.292106,-0.18498 0.126608,-0.701172 -0.224609,-0.701172 z M 31.130859,53.625 c -0.02027,0 -0.04574,0.06201 -0.07031,0.103516 0.01509,0.03577 0.07368,0.02444 0.193359,-0.02148 0.03175,-0.01218 0.03643,-0.0051 0.06055,-0.01172 -0.04042,-0.04261 -0.09672,-0.07031 -0.183594,-0.07031 z m 0.238282,0.203125 c -0.0679,0.056 -0.190704,0.09893 -0.347657,0.123047 -0.0169,-7.32e-4 -0.03387,-0.0012 -0.05078,-0.002 -0.02573,0.08496 -0.05283,0.162026 -0.07227,0.265625 -0.06536,0.348412 -0.231975,0.620241 -0.40625,0.666015 -0.05082,0.0134 -0.06898,0.0285 -0.06836,0.04102 0.19758,0.0138 0.398606,0.02068 0.597656,0.0293 0.18694,-0.02872 0.348454,-0.0778 0.394532,-0.152344 0.08372,-0.1355 0.03199,-0.166257 -0.16211,-0.0918 -0.263144,0.10098 -0.268229,0.06805 -0.03711,-0.378906 0.111818,-0.216241 0.159368,-0.381785 0.152344,-0.5 z m 22.464843,0.3125 c -0.15314,0 -0.521484,0.537975 -0.521484,0.761719 0,0.05348 0.15468,0.09766 0.34375,0.09766 C 53.908326,55.000008 54,54.885421 54,54.570316 54,54.333988 53.92516,54.140629 53.833984,54.140629 Z"
       id="path10" />
  </g>
</svg>
