<?xml version="1.0" encoding="UTF-8" standalone="no"?>
<svg
   width="62"
   height="62"
   version="1.1"
   id="svg29"
   sodipodi:docname="outwiker.svg"
   inkscape:version="1.4 (unknown)"
   xmlns:inkscape="http://www.inkscape.org/namespaces/inkscape"
   xmlns:sodipodi="http://sodipodi.sourceforge.net/DTD/sodipodi-0.dtd"
   xmlns:xlink="http://www.w3.org/1999/xlink"
   xmlns="http://www.w3.org/2000/svg"
   xmlns:svg="http://www.w3.org/2000/svg">
  <defs
     id="defs29">
    <linearGradient
       id="linearGradient29"
       inkscape:collect="always">
      <stop
         style="stop-color:#2d3d53;stop-opacity:1;"
         offset="0"
         id="stop29" />
      <stop
         style="stop-color:#354864;stop-opacity:1;"
         offset="1"
         id="stop30" />
    </linearGradient>
    <linearGradient
       inkscape:collect="always"
       xlink:href="#linearGradient29"
       id="linearGradient30"
       x1="30.782633"
       y1="60"
       x2="30.193521"
       y2="5"
       gradientUnits="userSpaceOnUse"
       gradientTransform="matrix(0.98214286,0,0,0.98245614,-0.42857152,-0.92982455)" />
  </defs>
  <sodipodi:namedview
     id="namedview29"
     pagecolor="#ffffff"
     bordercolor="#000000"
     borderopacity="0.25"
     inkscape:showpageshadow="2"
     inkscape:pageopacity="0.0"
     inkscape:pagecheckerboard="0"
     inkscape:deskcolor="#d1d1d1"
     inkscape:zoom="7.0710678"
     inkscape:cx="53.527983"
     inkscape:cy="36.698842"
     inkscape:window-width="1920"
     inkscape:window-height="996"
     inkscape:window-x="0"
     inkscape:window-y="0"
     inkscape:window-maximized="1"
     inkscape:current-layer="svg29" />
  <rect
     style="opacity:0.2;stroke-width:0.9823"
     width="55"
     height="55.017544"
     x="3.5"
     y="3.9824562"
     ry="13.754386"
     id="rect1" />
  <rect
     style="fill:url(#linearGradient30);stroke-width:0.9823"
     width="55"
     height="55.017544"
     x="3.5"
     y="3"
     ry="13.754386"
     id="rect2" />
  <path
     style="opacity:0.1;fill:#ffffff;stroke-width:0.9823"
     d="M 17.25,3 C 9.6324999,3 3.4999999,9.1344561 3.4999999,16.754386 v 0.982456 c 0,-7.61993 6.1325,-13.7543858 13.7500001,-13.7543858 h 27.5 c 7.6175,0 13.75,6.1344558 13.75,13.7543858 V 16.754386 C 58.5,9.1344561 52.3675,3 44.75,3 Z"
     id="path28" />
  <g
     id="g1"
     transform="matrix(1.0882353,0,0,1.0857143,-2.7352945,-8.7111841)">
    <path
       style="opacity:0.1"
       d="m 22.5,20.997143 c -4.71718,0 -8.5,3.877624 -8.5,8.492188 v 10.015624 c 0,4.614568 3.78282,8.492188 8.5,8.492188 4.717177,0 8.5,-3.87762 8.5,-8.492188 V 29.489331 c 0,-4.614565 -3.782823,-8.492188 -8.5,-8.492188 z m 0.05078,4 c 2.038682,0 2.44922,1.641446 2.44922,3.908203 V 40.08894 c 0,2.266757 -0.410531,3.908203 -2.449219,3.908203 C 20.512091,43.997143 20,42.355697 20,40.08894 V 28.905346 c 0,-2.266757 0.512091,-3.908203 2.55078,-3.908203 z"
       id="path2" />
    <path
       style="fill:#5fd38d"
       d="m 22.5,19.997143 c -4.71718,0 -8.5,3.877624 -8.5,8.492188 v 10.015624 c 0,4.614566 3.78282,8.492188 8.5,8.492188 4.717177,0 8.5,-3.877623 8.5,-8.492188 V 28.489331 c 0,-4.614565 -3.782823,-8.492188 -8.5,-8.492188 z m 0.05078,4 c 2.038682,0 2.44922,1.641446 2.44922,3.908203 V 39.08894 c 0,2.266757 -0.410531,3.908203 -2.449219,3.908203 C 20.512091,42.997143 20,41.355697 20,39.08894 V 27.905346 c 0,-2.266757 0.512091,-3.908203 2.55078,-3.908203 z"
       id="path3" />
    <path
       style="fill:#217844"
       d="M 17.59147,21.579173 C 15.417027,23.132322 14,25.670834 14,28.490151 v 10.013982 c 0,4.588949 3.741936,8.44751 8.422525,8.49024 -4.092171,-0.83831 -5.8355,-3.763635 -5.910154,-7.471633 L 16.268879,27.446568 c -0.03674,-1.825062 0.631706,-4.329839 1.322591,-5.867395 z"
       id="path4" />
    <path
       style="opacity:0.1"
       d="m 46.056953,23.997143 -6.153365,1.451485 c 1.192075,6.898875 1.842351,13.732973 1.811988,20.618455 -3.093969,-4.85399 -5.01561,-11.466182 -5.959512,-16.758239 l -6.14948,1.469666 c 0.718605,4.699383 1.279619,9.711715 0.952202,14.035833 C 29.187593,41.864466 27.692475,38.05164 27.164195,34.720611 L 21,36.091153 c 1.276372,6.947176 4.189139,13.62745 7.597995,18.90599 2.485698,-1.05733 5.006047,-2.16687 7.303885,-3.13759 l 0.402168,-2.18137 c 1.022544,2.37543 2.437243,4.1992 3.224496,5.19547 l 8.373251,-3.40486 c 0.158917,-9.460164 0.410092,-14.010586 -1.844842,-27.47165 z"
       id="path5" />
    <path
       style="fill:#ffb380"
       d="m 46.056953,22.997143 -6.153365,1.451485 c 1.192075,6.898875 1.842351,13.732973 1.811988,20.618455 -3.093969,-4.85399 -5.01561,-11.466182 -5.959512,-16.758239 l -6.14948,1.469666 c 0.718605,4.699383 1.279619,9.711715 0.952202,14.03583 -1.371193,-2.949874 -2.866311,-6.7627 -3.394591,-10.093729 L 21,35.091153 c 1.276372,6.947176 4.189139,13.62745 7.597995,18.90599 2.485698,-1.05733 5.006047,-2.16687 7.303885,-3.13759 l 0.402168,-2.18137 c 1.022544,2.37543 2.437243,4.1992 3.224496,5.19547 l 8.373251,-3.40486 c 0.158917,-9.460164 0.410092,-14.010586 -1.844842,-27.47165 z"
       id="path6" />
    <path
       style="fill:#ff7f2a"
       d="m 21.835424,38.728322 c 1.49738,5.616391 3.955744,10.920491 6.763876,15.268821 1.717691,-0.73065 3.379923,-1.45121 5.045849,-2.16868 -4.256236,-0.0929 -5.62227,1.24391 -11.809725,-13.100141 z"
       id="path7" />
    <path
       style="fill:#ff7f2a"
       d="m 30.668842,33.943441 c 0.984556,5.926233 4.449269,13.889832 8.859702,19.930212 l 6.699798,-2.6651 c -6.318046,0.93355 -9.137925,-1.64853 -15.5595,-17.265112 z"
       id="path8" />
  </g>
</svg>
