<?xml version="1.0" encoding="UTF-8" standalone="no"?>
<svg
   width="62"
   height="62"
   version="1"
   id="svg11"
   sodipodi:docname="pd.svg"
   inkscape:version="1.4 (unknown)"
   xmlns:inkscape="http://www.inkscape.org/namespaces/inkscape"
   xmlns:sodipodi="http://sodipodi.sourceforge.net/DTD/sodipodi-0.dtd"
   xmlns="http://www.w3.org/2000/svg"
   xmlns:svg="http://www.w3.org/2000/svg">
  <defs
     id="defs11" />
  <sodipodi:namedview
     id="namedview11"
     pagecolor="#ffffff"
     bordercolor="#000000"
     borderopacity="0.25"
     inkscape:showpageshadow="2"
     inkscape:pageopacity="0.0"
     inkscape:pagecheckerboard="0"
     inkscape:deskcolor="#d1d1d1"
     inkscape:zoom="5"
     inkscape:cx="24"
     inkscape:cy="51.5"
     inkscape:window-width="1920"
     inkscape:window-height="996"
     inkscape:window-x="0"
     inkscape:window-y="0"
     inkscape:window-maximized="1"
     inkscape:current-layer="svg11" />
  <rect
     style="opacity:0.2;stroke-width:0.99119"
     width="45.000011"
     height="56"
     x="-54"
     y="-59"
     rx="2.8129997"
     ry="2.7999995"
     transform="matrix(0,-1,-1,0,0,0)"
     id="rect1" />
  <rect
     style="fill:#2d3d53;fill-opacity:1;stroke-width:0.99119"
     width="45.000011"
     height="56"
     x="-53.000011"
     y="-59"
     rx="2.8129997"
     ry="2.7999995"
     transform="matrix(0,-1,-1,0,0,0)"
     id="rect2" />
  <path
     style="opacity:0.2;stroke-width:0.99119"
     d="m 16.754386,13.000002 v 5.999997 H 6.9298242 v 25 h 9.8245618 v 5.999999 H 45.24561 v -5.999999 h 9.824561 v -25 H 45.24561 v -5.999997 z"
     id="path2" />
  <rect
     style="fill:#ffffff;stroke-width:0.99119"
     width="28.491228"
     height="36.999996"
     x="16.754383"
     y="12"
     id="rect3" />
  <rect
     style="fill:#ffffff;stroke-width:0.99119"
     width="24.999996"
     height="48.140347"
     x="18.000004"
     y="-55.070168"
     transform="rotate(90)"
     id="rect4" />
  <path
     style="opacity:0.1;fill:#ffffff;stroke-width:0.99119"
     d="M 5.7996159,8 C 4.248416,8 3,9.254375 3,10.812499 v 1.000002 C 3,10.254377 4.248416,9 5.7996159,9 H 56.200379 c 1.551199,0 2.799616,1.254377 2.799616,2.812501 V 10.812499 C 58.999995,9.254375 57.751578,8 56.200379,8 Z"
     id="path11" />
  <text
     xml:space="preserve"
     style="font-size:21.7022px;font-family:'Blush Asliring';-inkscape-font-specification:'Blush Asliring';text-align:start;writing-mode:lr-tb;direction:ltr;text-anchor:start;fill:#2d3d53;fill-opacity:1;stroke:#2d3d53;stroke-width:0.650048;stroke-linecap:round;stroke-linejoin:round;paint-order:fill markers stroke"
     x="17.753233"
     y="36.138824"
     id="text11"
     transform="scale(1.0075755,0.99248149)"><tspan
       sodipodi:role="line"
       id="tspan11"
       x="17.753233"
       y="36.138824"
       style="stroke-width:0.650048">p</tspan></text>
  <text
     xml:space="preserve"
     style="font-size:21.5851px;font-family:'Blush Asliring';-inkscape-font-specification:'Blush Asliring';text-align:start;writing-mode:lr-tb;direction:ltr;text-anchor:start;fill:#2d3d53;fill-opacity:1;stroke:#2d3d53;stroke-width:0.64654;stroke-linecap:round;stroke-linejoin:round;paint-order:fill markers stroke"
     x="31.10956"
     y="33.053085"
     id="text12"
     transform="scale(1.0075755,0.99248149)"><tspan
       sodipodi:role="line"
       id="tspan12"
       x="31.10956"
       y="33.053085"
       style="stroke-width:0.64654">d</tspan></text>
</svg>
