<?xml version="1.0" encoding="UTF-8" standalone="no"?>
<svg
   clip-rule="evenodd"
   fill-rule="evenodd"
   stroke-linejoin="round"
   stroke-miterlimit="2"
   viewBox="0 0 62 62"
   version="1.1"
   id="svg5"
   sodipodi:docname="photocollage.svg"
   width="62"
   height="62"
   inkscape:version="1.4 (unknown)"
   xmlns:inkscape="http://www.inkscape.org/namespaces/inkscape"
   xmlns:sodipodi="http://sodipodi.sourceforge.net/DTD/sodipodi-0.dtd"
   xmlns="http://www.w3.org/2000/svg"
   xmlns:svg="http://www.w3.org/2000/svg">
  <defs
     id="defs5" />
  <sodipodi:namedview
     id="namedview5"
     pagecolor="#ffffff"
     bordercolor="#000000"
     borderopacity="0.25"
     inkscape:showpageshadow="2"
     inkscape:pageopacity="0.0"
     inkscape:pagecheckerboard="0"
     inkscape:deskcolor="#d1d1d1"
     inkscape:zoom="6.6666667"
     inkscape:cx="17.475"
     inkscape:cy="31.425"
     inkscape:window-width="1920"
     inkscape:window-height="996"
     inkscape:window-x="0"
     inkscape:window-y="0"
     inkscape:window-maximized="1"
     inkscape:current-layer="svg5" />
  <g
     transform="matrix(1.4,0,0,1.4,-2.6,-2.6)"
     id="g4">
    <path
       d="M 9.749,4 H 28 V 18 H 4 V 9.749 C 4,6.575 6.575,4 9.749,4 Z"
       fill="#ffc900"
       id="path1"
       style="fill:#ffd633;fill-opacity:1" />
    <path
       d="M 28,4 H 38.251 C 41.425,4 44,6.575 44,9.749 V 18 H 28 Z"
       fill="#57bf00"
       id="path2"
       style="fill:#52b200;fill-opacity:1" />
    <path
       d="M 44,19 V 38.251 C 44,41.425 41.425,44 38.251,44 H 20 V 19 Z"
       fill="#c61d1e"
       id="path3"
       style="fill:#c83771" />
    <path
       d="M 19,44 H 9.749 C 6.575,44 4,41.425 4,38.251 V 19 h 15 z"
       fill="#007cfb"
       id="path4"
       style="fill:#2a7fff" />
  </g>
  <path
     d="M 33.8,19.8 V 3 h 5.6 V 19.8 H 59 v 5.6 H 28.2 V 59 H 22.6 V 25.4 H 3 v -5.6 z"
     fill="#ffffff"
     id="path5"
     style="stroke-width:1.4" />
</svg>
