<?xml version="1.0" encoding="UTF-8" standalone="no"?>
<svg
   width="62"
   height="62"
   version="1.1"
   id="svg29"
   sodipodi:docname="io.github.lainsce.Colorway.svg"
   inkscape:version="1.4 (unknown)"
   xmlns:inkscape="http://www.inkscape.org/namespaces/inkscape"
   xmlns:sodipodi="http://sodipodi.sourceforge.net/DTD/sodipodi-0.dtd"
   xmlns:xlink="http://www.w3.org/1999/xlink"
   xmlns="http://www.w3.org/2000/svg"
   xmlns:svg="http://www.w3.org/2000/svg">
  <defs
     id="defs29">
    <linearGradient
       id="linearGradient29"
       inkscape:collect="always">
      <stop
         style="stop-color:#2d3d53;stop-opacity:1;"
         offset="0"
         id="stop29" />
      <stop
         style="stop-color:#354864;stop-opacity:1;"
         offset="1"
         id="stop30" />
    </linearGradient>
    <linearGradient
       inkscape:collect="always"
       xlink:href="#linearGradient29"
       id="linearGradient30"
       x1="30.782633"
       y1="60"
       x2="30.193521"
       y2="5"
       gradientUnits="userSpaceOnUse"
       gradientTransform="matrix(0.98214286,0,0,0.98245614,-0.42857152,-0.92982455)" />
  </defs>
  <sodipodi:namedview
     id="namedview29"
     pagecolor="#ffffff"
     bordercolor="#000000"
     borderopacity="0.25"
     inkscape:showpageshadow="2"
     inkscape:pageopacity="0.0"
     inkscape:pagecheckerboard="0"
     inkscape:deskcolor="#d1d1d1"
     inkscape:zoom="7.0710678"
     inkscape:cx="25.243712"
     inkscape:cy="25.243712"
     inkscape:window-width="1920"
     inkscape:window-height="996"
     inkscape:window-x="0"
     inkscape:window-y="0"
     inkscape:window-maximized="1"
     inkscape:current-layer="svg29" />
  <rect
     style="opacity:0.2;stroke-width:0.9823"
     width="55"
     height="55.017544"
     x="3.5"
     y="3.9824562"
     ry="13.754386"
     id="rect1" />
  <rect
     style="fill:url(#linearGradient30);stroke-width:0.9823"
     width="55"
     height="55.017544"
     x="3.5"
     y="3"
     ry="13.754386"
     id="rect2" />
  <path
     style="opacity:0.1;fill:#ffffff;stroke-width:0.9823"
     d="M 17.25,3 C 9.6324999,3 3.4999999,9.1344561 3.4999999,16.754386 v 0.982456 c 0,-7.61993 6.1325,-13.7543858 13.7500001,-13.7543858 h 27.5 c 7.6175,0 13.75,6.1344558 13.75,13.7543858 V 16.754386 C 58.5,9.1344561 52.3675,3 44.75,3 Z"
     id="path28" />
  <g
     id="g1"
     transform="translate(6,-62.5)">
    <path
       style="opacity:0.2"
       d="M 43.941406,100.82422 A 12,12 0 0 1 32,112 12,12 0 0 1 20.070312,101 12,12 0 0 0 20,102 12,12 0 0 0 20.0332,102.51563 12,12 0 0 1 20.070312,102 12,12 0 0 0 32,113 a 12,12 0 0 0 11.941406,-11.17578 12,12 0 0 1 0.0293,0.60547 A 12,12 0 0 0 44,102 12,12 0 0 0 43.94141,100.82422 Z"
       id="path2" />
    <path
       style="fill:#37c871"
       d="M 30,100 A 12,12 0 0 1 18,112 12,12 0 0 1 6,100 12,12 0 0 1 18,88 12,12 0 0 1 30,100 Z"
       id="path3" />
    <path
       style="fill:#00ccff"
       d="M 20,100 A 12,12 0 0 0 32,112 12,12 0 0 0 44,100 12,12 0 0 0 32,88 12,12 0 0 0 20,100 Z"
       id="path4" />
    <path
       style="fill:#c83771"
       d="M 38,86 A 12,12 0 0 1 26,98 12,12 0 0 1 14,86 12,12 0 0 1 26,74 12,12 0 0 1 38,86 Z"
       id="path5" />
    <path
       style="fill:#8d5fd3"
       d="M 32,88 A 12,12 0 0 0 20.484376,96.625 12,12 0 0 0 26,98 12,12 0 0 0 37.523438,89.351562 12,12 0 0 0 32,88 Z"
       id="path6" />
    <path
       style="fill:#ffb800;fill-opacity:1"
       d="M 18,88 A 12,12 0 0 0 14.316406,88.597656 12,12 0 0 0 26,98 12,12 0 0 0 29.710938,97.390624 12,12 0 0 0 18,88 Z"
       id="path7" />
    <path
       style="fill:#29e1d5"
       d="M 25.019532,90.273438 A 12,12 0 0 0 20,100 12,12 0 0 0 25,109.71094 12,12 0 0 0 30,100 12,12 0 0 0 25.019532,90.273438 Z"
       id="path8" />
    <path
       style="fill:#f2f2f2;fill-opacity:1"
       d="M 25.019532,90.273438 A 12,12 0 0 0 20.511718,96.640624 12,12 0 0 0 26,98 12,12 0 0 0 29.699218,97.394532 12,12 0 0 0 25.019532,90.273438 Z"
       id="path9" />
    <path
       style="opacity:0.2"
       d="M 29.941406,100.82422 A 12,12 0 0 1 18,112 12,12 0 0 1 6.070312,101 12,12 0 0 0 6,102 12,12 0 0 0 6.033203,102.51563 12,12 0 0 1 6.070312,102 12,12 0 0 0 18,113 a 12,12 0 0 0 11.941406,-11.17578 12,12 0 0 1 0.0293,0.60547 A 12,12 0 0 0 30,102 12,12 0 0 0 29.94141,100.82422 Z"
       id="path11" />
    <path
       style="opacity:0.2"
       d="M 37.941406,86.824219 A 12,12 0 0 1 26,98 12,12 0 0 1 14.070312,87 12,12 0 0 0 14,88 12,12 0 0 0 14.033203,88.515625 12,12 0 0 1 14.070312,88 12,12 0 0 0 26,99 12,12 0 0 0 37.941406,87.824219 12,12 0 0 1 37.970703,88.429688 12,12 0 0 0 38,88 12,12 0 0 0 37.941406,86.824219 Z"
       id="path12" />
    <path
       style="opacity:0.2;fill:#ffffff"
       d="M 26,74 A 12,12 0 0 0 14,86 12,12 0 0 0 14.0332,86.484375 12,12 0 0 1 26,75 12,12 0 0 1 37.978516,86.310547 12,12 0 0 0 38,86 12,12 0 0 0 26,74 Z"
       id="path13" />
  </g>
</svg>
