<?xml version="1.0" encoding="UTF-8" standalone="no"?>
<svg
   width="62"
   height="62"
   version="1.1"
   id="svg7"
   sodipodi:docname="portfolio.svg"
   inkscape:version="1.4 (unknown)"
   xmlns:inkscape="http://www.inkscape.org/namespaces/inkscape"
   xmlns:sodipodi="http://sodipodi.sourceforge.net/DTD/sodipodi-0.dtd"
   xmlns="http://www.w3.org/2000/svg"
   xmlns:svg="http://www.w3.org/2000/svg">
  <defs
     id="defs7" />
  <sodipodi:namedview
     id="namedview7"
     pagecolor="#ffffff"
     bordercolor="#000000"
     borderopacity="0.25"
     inkscape:showpageshadow="2"
     inkscape:pageopacity="0.0"
     inkscape:pagecheckerboard="0"
     inkscape:deskcolor="#d1d1d1"
     inkscape:zoom="4.270262"
     inkscape:cx="23.0665"
     inkscape:cy="48.12351"
     inkscape:window-width="1920"
     inkscape:window-height="996"
     inkscape:window-x="0"
     inkscape:window-y="0"
     inkscape:window-maximized="1"
     inkscape:current-layer="svg7" />
  <g
     id="g7"
     transform="matrix(0.98214286,0,0,0.98245614,-0.42857152,-0.92982455)">
    <path
       style="opacity:0.2"
       d="m 4,55.800781 v 1 C 4,59.127581 5.8724187,61 8.1992188,61 H 55.800781 C 58.127581,61 60,59.127581 60,56.800781 v -1 C 60,58.127581 58.127581,60 55.800781,60 H 8.1992188 C 5.8724187,60 4,58.127581 4,55.800781 Z"
       id="path1" />
    <path
       style="fill:#86b333;fill-opacity:1"
       d="M 8.2,4 C 5.8732,4 4,5.8732 4,8.2 v 30.914 l 6.879687,9.316 10.385157,-13.367946 c 0.524006,-0.700698 1.555152,-0.754486 2.14922,-0.11211 L 27.38711,38.836528 42.896484,15.33575 c 0.527688,-0.805833 1.692584,-0.850529 2.280468,-0.0875 l 5.425,7.45575 L 60,11.487309 V 8.2 C 60,5.8732 58.1268,4 55.8,4 Z"
       id="path2" />
    <path
       style="fill:#e38701;fill-opacity:1"
       d="m 60,14.310737 -8.427344,9.515625 c -0.58284,0.65816 -1.620938,0.622638 -2.157422,-0.07383 L 44.159766,16.916596 28.748828,40.465034 c -0.49814,0.761886 -1.579412,0.853336 -2.198438,0.185938 L 22.500782,36.28144 11.976172,50.338862 c -0.567593,0.759742 -1.710404,0.747304 -2.2613284,-0.02461 L 4,42.32441 V 55.8 C 4,58.1268 5.8732,60 8.2,60 H 18.4816 L 35.13086,49.715872 c 0.400536,-0.252434 0.901516,-0.285352 1.33164,-0.0875 L 47.61875,54.73892 60,37.182 Z"
       id="path3" />
    <path
       style="fill:#009ccc;fill-opacity:1"
       d="M 60,40.315474 49.25664,54.29611 c -0.386586,0.558994 -1.118786,0.759628 -1.736326,0.47578 L 35.986718,50.488 21.912,60 H 55.8 c 2.3268,0 4.2,-1.8732 4.2,-4.2 z"
       id="path4" />
    <path
       style="opacity:0.2"
       d="m 60,11.789062 -9.296876,11.26172 -5.39453,-7.433594 a 1.50015,1.50015 0 0 0 -2.464844,0.05078 L 27.203124,39.144532 23.488282,35.4375 a 1.50015,1.50015 0 0 0 -2.246094,0.140624 L 10.800781,49.023438 4,39.898438 v 5.023438 l 5.5742188,7.476562 a 1.50015,1.50015 0 0 0 2.3906252,0.02344 L 22.570312,38.765624 26.375,42.5625 a 1.50015,1.50015 0 0 0 2.308594,-0.230468 L 44.144532,19.125 l 5.265624,7.257812 a 1.50015,1.50015 0 0 0 2.371094,0.07031 L 60,16.5 Z M 60,37.40625 47.726562,53.679688 36.378906,49.109376 a 1.50015,1.50015 0 0 0 -1.402344,0.152342 L 17.730469,61 H 23.0625 L 36,52.191406 47.667968,56.890624 a 1.50015,1.50015 0 0 0 1.76172,-0.48828 L 60,42.386718 Z"
       id="path5" />
    <path
       style="fill:#ffffff"
       d="m 60,10.789062 -9.296876,11.26172 -5.39453,-7.433594 a 1.50015,1.50015 0 0 0 -2.464844,0.05078 L 27.203124,38.144532 23.488282,34.4375 a 1.50015,1.50015 0 0 0 -2.246094,0.140624 L 10.800781,48.023438 4,38.898438 v 5.023438 l 5.5742188,7.476562 a 1.50015,1.50015 0 0 0 2.3906252,0.02344 L 22.570312,37.765624 26.375,41.5625 a 1.50015,1.50015 0 0 0 2.308594,-0.230468 L 44.144532,18.125 l 5.265624,7.257812 a 1.50015,1.50015 0 0 0 2.371094,0.07031 L 60,15.5 Z M 60,36.40625 47.726562,52.679688 36.378906,48.109376 a 1.50015,1.50015 0 0 0 -1.402344,0.152342 L 17.730469,60 H 23.0625 L 36,51.191406 47.667968,55.890624 a 1.50015,1.50015 0 0 0 1.76172,-0.48828 L 60,41.386718 Z"
       id="path6" />
    <path
       style="opacity:0.2;fill:#ffffff"
       d="M 8.1992188,4 C 5.8724187,4 4,5.8724187 4,8.1992188 v 1 C 4,6.8724188 5.8724187,5 8.1992188,5 H 55.800781 C 58.127581,5 60,6.8724188 60,9.1992188 v -1 C 60,5.8724187 58.127581,4 55.800781,4 Z"
       id="path7" />
  </g>
</svg>
