<?xml version="1.0" encoding="UTF-8" standalone="no"?>
<svg
   width="62"
   height="62"
   version="1.1"
   id="svg29"
   sodipodi:docname="pragha.svg"
   inkscape:version="1.4 (unknown)"
   xmlns:inkscape="http://www.inkscape.org/namespaces/inkscape"
   xmlns:sodipodi="http://sodipodi.sourceforge.net/DTD/sodipodi-0.dtd"
   xmlns:xlink="http://www.w3.org/1999/xlink"
   xmlns="http://www.w3.org/2000/svg"
   xmlns:svg="http://www.w3.org/2000/svg">
  <defs
     id="defs29">
    <linearGradient
       id="linearGradient29"
       inkscape:collect="always">
      <stop
         style="stop-color:#2d3d53;stop-opacity:1;"
         offset="0"
         id="stop29" />
      <stop
         style="stop-color:#354864;stop-opacity:1;"
         offset="1"
         id="stop30" />
    </linearGradient>
    <linearGradient
       inkscape:collect="always"
       xlink:href="#linearGradient29"
       id="linearGradient30"
       x1="30.782633"
       y1="60"
       x2="30.193521"
       y2="5"
       gradientUnits="userSpaceOnUse"
       gradientTransform="matrix(0.98214286,0,0,0.98245614,-0.42857152,-0.92982455)" />
  </defs>
  <sodipodi:namedview
     id="namedview29"
     pagecolor="#ffffff"
     bordercolor="#000000"
     borderopacity="0.25"
     inkscape:showpageshadow="2"
     inkscape:pageopacity="0.0"
     inkscape:pagecheckerboard="0"
     inkscape:deskcolor="#d1d1d1"
     inkscape:zoom="7.0710678"
     inkscape:cx="25.243712"
     inkscape:cy="47.871129"
     inkscape:window-width="1920"
     inkscape:window-height="996"
     inkscape:window-x="0"
     inkscape:window-y="0"
     inkscape:window-maximized="1"
     inkscape:current-layer="svg29" />
  <rect
     style="opacity:0.2;stroke-width:0.9823"
     width="55"
     height="55.017544"
     x="3.5"
     y="3.9824562"
     ry="13.754386"
     id="rect1" />
  <rect
     style="fill:url(#linearGradient30);stroke-width:0.9823"
     width="55"
     height="55.017544"
     x="3.5"
     y="3"
     ry="13.754386"
     id="rect2" />
  <path
     style="opacity:0.1;fill:#ffffff;stroke-width:0.9823"
     d="M 17.25,3 C 9.6324999,3 3.4999999,9.1344561 3.4999999,16.754386 v 0.982456 c 0,-7.61993 6.1325,-13.7543858 13.7500001,-13.7543858 h 27.5 c 7.6175,0 13.75,6.1344558 13.75,13.7543858 V 16.754386 C 58.5,9.1344561 52.3675,3 44.75,3 Z"
     id="path28" />
  <text
     xml:space="preserve"
     style="font-size:21.3333px;font-family:'Blush Asliring';-inkscape-font-specification:'Blush Asliring';text-align:start;writing-mode:lr-tb;direction:ltr;text-anchor:start;fill:#9bb0ca;stroke:#000000;stroke-width:0;stroke-linecap:round;stroke-linejoin:round;paint-order:fill markers stroke"
     x="-29.274221"
     y="35.638184"
     id="text1"><tspan
       sodipodi:role="line"
       id="tspan1"></tspan></text>
  <g
     id="svg4"
     transform="matrix(1.0833905,0,0,1.0810731,-3.6684964,-3.6434999)"
     style="fill:#5386c5;fill-opacity:1">
    <path
       style="opacity:0.2;fill:#5386c5;fill-opacity:1"
       d="m 40.014853,15.000248 c -0.200046,-0.01218 -0.520356,0.115886 -1.105468,0.371094 -0.694542,0.302951 -2.272216,0.550781 -3.507812,0.550781 -4.372706,0.08929 -7.87202,1.587417 -10.707032,4.410157 -3.848057,3.857368 -5.059965,8.708928 -3.304688,13.214844 0.405182,1.0401 0.652096,2.098596 0.546876,2.351562 -0.10518,0.252954 -0.84513,0.953674 -1.640625,1.558594 -1.728414,1.314156 -2.92361,3.433264 -3.222656,5.710936 -0.17963,1.368142 -0.05568,2.020836 0.707031,3.648438 1.638005,3.495156 5.35317,4.992296 9.3125,3.753906 2.292552,-0.717032 4.585462,-3.264892 6.421874,-7.128906 1.586054,-3.33745 1.653236,-3.418472 3.35547,-4.01953 2.86978,-1.013366 4.679148,-2.131538 6.476562,-4.007814 3.186556,-3.326512 4.368612,-7.635956 3.226562,-11.753906 -0.513178,-1.850246 -0.94556,-2.488262 -3.26953,-4.84375 -1.47205,-1.492049 -2.77689,-3.00281 -2.902344,-3.355468 -0.10576,-0.297109 -0.186668,-0.448809 -0.38672,-0.460938 z m -7.734374,4 c 1.362288,0.0056 2.415672,0.416712 2.703126,1.234374 0.09424,0.268134 -0.303028,1.53336 -0.88672,2.808594 -1.501024,3.279554 -1.97969,5.081804 -2.886718,10.867188 -1.124916,7.175066 -2.353834,10.273742 -4.816406,12.13672 -1.55243,1.174376 -3.458246,1.273874 -4.476564,0.23828 -0.881002,-0.89595 -1.136372,-2.018764 -0.726562,-3.195312 0.32462,-0.931994 0.637848,-1.081252 3.003906,-1.429688 1.646122,-0.24237 2.804688,-1.382522 2.804688,-2.875 0,-0.93916 -0.377674,-1.479702 -1.65625,-2.832032 -1.97812,-2.092276 -2.842454,-4.101482 -2.851562,-6.636718 -0.0144,-3.965324 1.926604,-7.337132 5.242188,-9.109374 1.515872,-0.810246 3.184584,-1.212623 4.546874,-1.207032 z m 5.066406,2.003906 c 0.40819,-0.06096 0.926872,0.416882 1.660156,1.414062 2.897236,3.939688 2.600512,9.902704 -0.664062,13.328126 -1.391598,1.460126 -1.718714,1.548346 -2.683594,0.761718 -0.558106,-0.455 -0.664752,-0.867156 -0.660156,-2.53125 0.0066,-2.549396 0.764782,-8.791926 1.355468,-11.164062 0.286238,-1.149462 0.583994,-1.747588 0.992188,-1.808594 z"
       id="path2" />
    <path
       style="fill:#6693cc;fill-opacity:1"
       d="m 40.014853,14.000521 c -0.200046,-0.01218 -0.520356,0.115886 -1.105468,0.371094 -0.694542,0.302951 -2.272216,0.550781 -3.507812,0.550781 -4.372706,0.08929 -7.87202,1.587417 -10.707032,4.410156 -3.848057,3.857369 -5.059965,8.708929 -3.304688,13.214845 0.405182,1.0401 0.652096,2.098596 0.546876,2.351562 -0.10518,0.252954 -0.84513,0.953674 -1.640625,1.558594 -1.728414,1.314156 -2.92361,3.433264 -3.222656,5.710936 -0.17963,1.368142 -0.05568,2.020836 0.707031,3.648438 1.638005,3.495156 5.35317,4.992296 9.3125,3.753906 2.292552,-0.717032 4.585462,-3.264892 6.421874,-7.128906 1.586054,-3.33745 1.653236,-3.418472 3.35547,-4.01953 2.86978,-1.013366 4.679148,-2.131538 6.476562,-4.007814 3.186556,-3.326512 4.368612,-7.635956 3.226562,-11.753906 -0.513178,-1.850246 -0.94556,-2.488262 -3.26953,-4.84375 -1.47205,-1.492049 -2.77689,-3.00281 -2.902344,-3.355468 -0.10576,-0.297109 -0.186668,-0.448809 -0.38672,-0.460938 z m -7.734374,4 c 1.362288,0.0056 2.415672,0.416712 2.703126,1.234375 0.09424,0.268134 -0.303028,1.533359 -0.88672,2.808593 -1.501024,3.279554 -1.97969,5.081804 -2.886718,10.867188 -1.124916,7.175066 -2.353834,10.273742 -4.816406,12.13672 -1.55243,1.174376 -3.458246,1.273874 -4.476564,0.23828 -0.881002,-0.89595 -1.136372,-2.018764 -0.726562,-3.195312 0.32462,-0.931994 0.637848,-1.081252 3.003906,-1.429688 1.646122,-0.24237 2.804688,-1.382522 2.804688,-2.875 0,-0.93916 -0.377674,-1.479702 -1.65625,-2.832032 -1.97812,-2.092276 -2.842454,-4.101482 -2.851562,-6.636718 -0.0144,-3.965324 1.926604,-7.337132 5.242188,-9.109375 1.515872,-0.810245 3.184584,-1.212622 4.546874,-1.207031 z m 5.066406,2.003906 c 0.40819,-0.06096 0.926872,0.416882 1.660156,1.414062 2.897236,3.939688 2.600512,9.902704 -0.664062,13.328126 -1.391598,1.460126 -1.718714,1.548346 -2.683594,0.761718 -0.558106,-0.455 -0.664752,-0.867156 -0.660156,-2.53125 0.0066,-2.549396 0.764782,-8.791926 1.355468,-11.164062 0.286238,-1.149462 0.583994,-1.747588 0.992188,-1.808594 z"
       id="path3" />
  </g>
</svg>
