<?xml version="1.0" encoding="UTF-8" standalone="no"?>
<svg
   width="62"
   height="62"
   version="1.1"
   id="svg29"
   sodipodi:docname="rare.svg"
   inkscape:version="1.4 (unknown)"
   xmlns:inkscape="http://www.inkscape.org/namespaces/inkscape"
   xmlns:sodipodi="http://sodipodi.sourceforge.net/DTD/sodipodi-0.dtd"
   xmlns:xlink="http://www.w3.org/1999/xlink"
   xmlns="http://www.w3.org/2000/svg"
   xmlns:svg="http://www.w3.org/2000/svg">
  <defs
     id="defs29">
    <linearGradient
       id="linearGradient29"
       inkscape:collect="always">
      <stop
         style="stop-color:#2d3d53;stop-opacity:1;"
         offset="0"
         id="stop29" />
      <stop
         style="stop-color:#354864;stop-opacity:1;"
         offset="1"
         id="stop30" />
    </linearGradient>
    <linearGradient
       inkscape:collect="always"
       xlink:href="#linearGradient29"
       id="linearGradient30"
       x1="30.782633"
       y1="60"
       x2="30.193521"
       y2="5"
       gradientUnits="userSpaceOnUse"
       gradientTransform="matrix(0.98214286,0,0,0.98245614,-0.42857152,-0.92982455)" />
  </defs>
  <sodipodi:namedview
     id="namedview29"
     pagecolor="#ffffff"
     bordercolor="#000000"
     borderopacity="0.25"
     inkscape:showpageshadow="2"
     inkscape:pageopacity="0.0"
     inkscape:pagecheckerboard="0"
     inkscape:deskcolor="#d1d1d1"
     inkscape:zoom="7.0710678"
     inkscape:cx="25.243712"
     inkscape:cy="25.243712"
     inkscape:window-width="1920"
     inkscape:window-height="996"
     inkscape:window-x="0"
     inkscape:window-y="0"
     inkscape:window-maximized="1"
     inkscape:current-layer="svg29" />
  <rect
     style="opacity:0.2;stroke-width:0.9823"
     width="55"
     height="55.017544"
     x="3.5"
     y="3.9824562"
     ry="13.754386"
     id="rect1" />
  <rect
     style="fill:url(#linearGradient30);stroke-width:0.9823"
     width="55"
     height="55.017544"
     x="3.5"
     y="3"
     ry="13.754386"
     id="rect2" />
  <path
     style="opacity:0.1;fill:#ffffff;stroke-width:0.9823"
     d="M 17.25,3 C 9.6324999,3 3.4999999,9.1344561 3.4999999,16.754386 v 0.982456 c 0,-7.61993 6.1325,-13.7543858 13.7500001,-13.7543858 h 27.5 c 7.6175,0 13.75,6.1344558 13.75,13.7543858 V 16.754386 C 58.5,9.1344561 52.3675,3 44.75,3 Z"
     id="path28" />
  <g
     id="g1"
     transform="matrix(0.80701521,0,0,0.79999633,8.6557538,5.2016792)">
    <path
       style="opacity:0.2"
       d="m 14.1875,18.248047 c -6.9583264,0 -11.2807573,3.759147 -13.1601556,7.361328 -1.87939844,3.602181 -1.83984384,7.138672 -1.83984384,7.138672 H 5.1875006 c 0,0 0.03956,-2.213514 1.160156,-4.361328 1.120599,-2.147815 2.798183,-4.138672 7.8398434,-4.138672 2.041665,0 3.840922,0.932717 5.851562,2.794922 2.010643,1.862204 4.031806,4.58979 6.085938,7.453125 2.054132,2.863337 4.139687,5.858827 6.636719,8.302737 2.497032,2.4439 5.63033,4.44922 9.425781,4.44922 6.545448,0 10.621161,-3.87781 12.332031,-7.45508 1.71087,-3.57728 1.667969,-7.044924 1.667969,-7.044924 h -6 c 0,0 -0.0429,2.282354 -1.082031,4.455074 -1.039128,2.17272 -2.463428,4.04493 -6.917969,4.04493 -1.704544,0 -3.321255,-0.86969 -5.230469,-2.73829 C 35.047817,36.641171 33.070864,33.886659 31,31 28.929136,28.113341 26.762792,25.090916 24.117188,22.640625 21.471583,20.190334 18.145829,18.248047 14.1875,18.248047 Z m -0.5,9 a 1.5,1.5 0 0 0 -1.5,1.5 v 2.5 H 9.687501 a 1.5,1.5 0 0 0 -1.5000004,1.5 1.5,1.5 0 0 0 1.5000004,1.5 H 12.1875 v 2.500004 a 1.5,1.5 0 0 0 1.5,1.5 1.5,1.5 0 0 0 1.5,-1.5 v -2.500004 h 2.5 a 1.5,1.5 0 0 0 1.5,-1.5 1.5,1.5 0 0 0 -1.5,-1.5 h -2.5 v -2.5 a 1.5,1.5 0 0 0 -1.5,-1.5 z m 29,0 a 1.5,1.5 0 0 0 -1.5,1.5 v 1 a 1.5,1.5 0 0 0 1.5,1.5 1.5,1.5 0 0 0 1.5,-1.5 v -1 a 1.5,1.5 0 0 0 -1.5,-1.5 z m -4,4 a 1.5,1.5 0 0 0 -1.5,1.5 1.5,1.5 0 0 0 1.5,1.5 h 1 a 1.5,1.5 0 0 0 1.5,-1.5 1.5,1.5 0 0 0 -1.5,-1.5 z m 7,0 a 1.5,1.5 0 0 0 -1.5,1.5 1.5,1.5 0 0 0 1.5,1.5 h 1 a 1.5,1.5 0 0 0 1.5,-1.5 1.5,1.5 0 0 0 -1.5,-1.5 z m -3,3 a 1.5,1.5 0 0 0 -1.5,1.500004 v 1 a 1.5,1.5 0 0 0 1.5,1.5 1.5,1.5 0 0 0 1.5,-1.5 v -1 a 1.5,1.5 0 0 0 -1.5,-1.500004 z"
       id="path2-3" />
    <path
       style="fill:none;stroke:#8d5fd3;stroke-width:3;stroke-linecap:round;stroke-linejoin:round;stroke-opacity:1"
       d="M 9.687501,31.748049 H 17.6875"
       id="path3-6" />
    <path
       style="fill:none;stroke:#8d5fd3;stroke-width:3;stroke-linecap:round;stroke-linejoin:round;stroke-opacity:1"
       d="m 38.6875,31.748049 h 1"
       id="path4-7" />
    <path
       style="fill:none;stroke:#8d5fd3;stroke-width:6;stroke-opacity:1"
       d="m 2.1875006,31.948047 c 0,0 0,-11.7 11.9999994,-11.7 12,0 17,23.000004 28,23.000004 11,0 11,-11.700004 11,-11.700004 v 0 0"
       id="path5-5" />
    <path
       style="opacity:0.2"
       d="m 42.1875,23.248047 c -1.704544,0 -3.321255,0.869689 -5.230469,2.738281 -1.909214,1.868593 -3.886167,4.623107 -5.957031,7.509766 -2.070864,2.886657 -4.237208,5.909087 -6.882812,8.359377 -2.645605,2.45029 -5.971359,4.39258 -9.929688,4.39258 -6.9583254,0 -11.2807572,-3.75915 -13.1601556,-7.36133 -1.27829904,-2.45008 -1.66219164,-4.8415 -1.78125004,-6.138674 h -0.058594 c 0,0 -0.039555,3.536494 1.83984384,7.138674 1.8793986,3.60218 6.2018304,7.36133 13.1601558,7.36133 3.958329,0 7.284083,-1.94229 9.929688,-4.39258 2.645604,-2.45029 4.811948,-5.47272 6.882812,-8.359377 2.070864,-2.886659 4.047817,-5.641173 5.957031,-7.509766 1.909214,-1.868592 3.525925,-2.738281 5.230469,-2.738281 4.454541,0 5.878841,1.872201 6.917969,4.044922 1.039127,2.172721 1.082031,3.455078 1.082031,3.455078 h 5.947266 c 0,0 0.05167,0.610922 0,0 H 50.1875 c 0,0 -0.0429,-2.282357 -1.082031,-4.455078 -1.039128,-2.172721 -2.463428,-4.044922 -6.917969,-4.044922 z"
       id="path7-3" />
    <path
       style="fill:none;stroke:#8d5fd3;stroke-width:6;stroke-opacity:1"
       d="m 2.1875006,31.548047 c 0,0 0,11.700004 11.9999994,11.700004 12,0 17,-23.000004 28,-23.000004 11,0 11,11.7 11,11.7 v 0 0"
       id="path8-5" />
    <path
       style="fill:none;stroke:#8d5fd3;stroke-width:3;stroke-linecap:round;stroke-linejoin:round;stroke-opacity:1"
       d="m 45.6875,31.748049 h 1"
       id="path9-6"
       sodipodi:nodetypes="cc" />
    <path
       style="fill:none;stroke:#8d5fd3;stroke-width:3;stroke-linecap:round;stroke-linejoin:round;stroke-opacity:1"
       d="m 42.6875,27.748049 v 1"
       id="path10-2" />
    <path
       style="fill:none;stroke:#8d5fd3;stroke-width:3;stroke-linecap:round;stroke-linejoin:round;stroke-opacity:1"
       d="m 42.6875,34.748051 v 1"
       id="path11-9"
       sodipodi:nodetypes="cc" />
    <path
       style="fill:none;stroke:#8d5fd3;stroke-width:3;stroke-linecap:round;stroke-linejoin:round;stroke-opacity:1"
       d="m 13.6875,27.748049 v 8.000002"
       id="path12-1" />
  </g>
</svg>
