<?xml version="1.0" encoding="UTF-8" standalone="no"?>
<svg
   width="62"
   height="62"
   version="1.1"
   id="svg12"
   sodipodi:docname="rdm.svg"
   inkscape:version="1.4 (unknown)"
   xmlns:inkscape="http://www.inkscape.org/namespaces/inkscape"
   xmlns:sodipodi="http://sodipodi.sourceforge.net/DTD/sodipodi-0.dtd"
   xmlns="http://www.w3.org/2000/svg"
   xmlns:svg="http://www.w3.org/2000/svg">
  <defs
     id="defs12" />
  <sodipodi:namedview
     id="namedview12"
     pagecolor="#ffffff"
     bordercolor="#000000"
     borderopacity="0.25"
     inkscape:showpageshadow="2"
     inkscape:pageopacity="0.0"
     inkscape:pagecheckerboard="0"
     inkscape:deskcolor="#d1d1d1"
     inkscape:zoom="12.078125"
     inkscape:cx="32"
     inkscape:cy="38.623545"
     inkscape:window-width="1920"
     inkscape:window-height="996"
     inkscape:window-x="0"
     inkscape:window-y="0"
     inkscape:window-maximized="1"
     inkscape:current-layer="svg12" />
  <path
     style="opacity:0.2;stroke-width:0.9823"
     d="m 31.001268,25.596499 c -1.824061,-3.36e-4 -3.648213,0.411107 -4.998052,1.230912 l -20.4797,12.43596 c -2.6996822,1.639607 -2.6971756,4.431357 0.00248,6.070967 l 20.477186,12.435961 c 2.69968,1.639602 7.296428,1.6396 9.996105,0 L 56.476514,45.334338 c 2.699677,-1.639604 2.697135,-4.431364 -0.0026,-6.070967 L 35.999317,26.827411 c -1.349839,-0.819805 -3.173989,-1.230578 -4.998049,-1.230912 z"
     id="path1" />
  <path
     style="fill:#a02c5a;stroke-width:0.9823"
     d="m 31.001268,24.614035 c -1.824061,-3.36e-4 -3.648213,0.411107 -4.998052,1.230912 l -20.4797,12.435961 c -2.6996822,1.639606 -2.6971756,4.431357 0.00248,6.070966 l 20.477186,12.435961 c 2.69968,1.639603 7.296428,1.639601 9.996105,0 L 56.476514,44.351874 c 2.699677,-1.639603 2.697135,-4.431364 -0.0026,-6.070966 L 35.999317,25.844947 c -1.349839,-0.819805 -3.173989,-1.230578 -4.998049,-1.230912 z"
     id="path2" />
  <path
     style="opacity:0.2;stroke-width:0.9823"
     d="m 31.001266,14.789481 c -1.824061,-3.35e-4 -3.648213,0.411108 -4.998051,1.230912 L 5.5235126,28.456356 c -2.6996822,1.639606 -2.6971756,4.431354 0.00247,6.070963 L 26.003175,46.96328 c 2.69968,1.639603 7.296426,1.639603 9.996103,0 L 56.476512,34.527319 c 2.699675,-1.639601 2.697136,-4.431363 -0.0026,-6.070963 L 35.999315,16.020393 c -1.349839,-0.819804 -3.173989,-1.230576 -4.998049,-1.230912 z"
     id="path3" />
  <path
     style="fill:#c83771;stroke-width:0.9823"
     d="m 31.001266,13.807018 c -1.824061,-3.35e-4 -3.648213,0.411109 -4.998051,1.230912 L 5.5235126,27.473893 c -2.6996822,1.639605 -2.6971756,4.431354 0.00247,6.070962 L 26.003175,45.980816 c 2.69968,1.639604 7.296426,1.639604 9.996103,0 L 56.476512,33.544855 c 2.699675,-1.6396 2.697136,-4.431363 -0.0026,-6.070962 L 35.999315,15.03793 c -1.349839,-0.819803 -3.173989,-1.230576 -4.998049,-1.230912 z"
     id="path4" />
  <path
     style="opacity:0.2;stroke-width:0.9823"
     d="M 31.001268,3.9824631 C 29.177207,3.9821277 27.353055,4.3935712 26.003216,5.2133752 L 5.523516,17.649336 c -2.6996822,1.639605 -2.6971756,4.431358 0.00248,6.070967 l 20.477186,12.435959 c 2.69968,1.639604 7.296428,1.639602 9.996105,0 L 56.476514,23.720303 c 2.699677,-1.639603 2.697135,-4.431366 -0.0026,-6.070967 L 35.999317,5.2133752 C 34.649478,4.3935712 32.825328,3.9827984 31.001268,3.9824631 Z"
     id="path5" />
  <path
     style="fill:#d35f8d;stroke-width:0.9823"
     d="M 31.001268,3.0000003 C 29.177207,2.9996649 27.353055,3.4111084 26.003216,4.2309124 L 5.523516,16.666874 c -2.6996822,1.639605 -2.6971756,4.431357 0.00248,6.070965 l 20.477186,12.435959 c 2.69968,1.639605 7.296428,1.639603 9.996105,0 L 56.476514,22.737839 c 2.699677,-1.639602 2.697135,-4.431366 -0.0026,-6.070965 L 35.999317,4.2309124 C 34.649478,3.4111084 32.825328,3.0003356 31.001268,3.0000003 Z"
     id="path6" />
  <path
     style="opacity:0.2;fill:#ffffff;stroke-width:0.9823"
     d="m 31.001918,3.0000005 c -1.824061,-3.354e-4 -3.649115,0.410185 -4.998954,1.229989 L 5.5237508,16.666119 C 3.9751669,17.606625 3.3211718,18.927276 3.5498737,20.191064 3.7205162,19.253738 4.37504,18.346225 5.5237508,17.648575 L 26.002964,5.2124456 c 1.349839,-0.819804 3.174893,-1.2303244 4.998954,-1.229989 1.82406,3.353e-4 3.647197,0.410185 4.997036,1.229989 L 56.474331,17.648575 c 1.151101,0.699097 1.805783,1.608841 1.975795,2.548245 0.230384,-1.265564 -0.42482,-2.588749 -1.975795,-3.530701 L 35.998954,4.2299895 C 34.649115,3.4101855 32.825978,3.0003358 31.001918,3.0000005 Z"
     id="path12" />
  <text
     xml:space="preserve"
     style="font-size:13.5528px;font-family:'Blush Asliring';-inkscape-font-specification:'Blush Asliring';text-align:start;writing-mode:lr-tb;direction:ltr;text-anchor:start;fill:#f2f2f2;fill-opacity:1;stroke:#ffffff;stroke-width:0;stroke-linecap:round;stroke-linejoin:round;paint-order:fill markers stroke"
     x="16.67971"
     y="24.855799"
     id="text12"
     transform="scale(1.0029057,0.99710271)"><tspan
       sodipodi:role="line"
       id="tspan12"
       x="16.67971"
       y="24.855799"
       style="stroke-width:0">RDM</tspan></text>
</svg>
