<?xml version="1.0" encoding="UTF-8" standalone="no"?>
<svg
   width="62"
   height="62"
   version="1.1"
   id="svg29"
   sodipodi:docname="recipes.svg"
   inkscape:version="1.4 (unknown)"
   xmlns:inkscape="http://www.inkscape.org/namespaces/inkscape"
   xmlns:sodipodi="http://sodipodi.sourceforge.net/DTD/sodipodi-0.dtd"
   xmlns:xlink="http://www.w3.org/1999/xlink"
   xmlns="http://www.w3.org/2000/svg"
   xmlns:svg="http://www.w3.org/2000/svg">
  <defs
     id="defs29">
    <linearGradient
       id="linearGradient29"
       inkscape:collect="always">
      <stop
         style="stop-color:#2d3d53;stop-opacity:1;"
         offset="0"
         id="stop29" />
      <stop
         style="stop-color:#caa17d;stop-opacity:1;"
         offset="1"
         id="stop30" />
    </linearGradient>
    <linearGradient
       inkscape:collect="always"
       xlink:href="#linearGradient29"
       id="linearGradient30"
       x1="30.782633"
       y1="60"
       x2="30.193521"
       y2="5"
       gradientUnits="userSpaceOnUse"
       gradientTransform="matrix(0.98214286,0,0,0.98245614,-0.42857152,-0.92982455)" />
  </defs>
  <sodipodi:namedview
     id="namedview29"
     pagecolor="#ffffff"
     bordercolor="#000000"
     borderopacity="0.25"
     inkscape:showpageshadow="2"
     inkscape:pageopacity="0.0"
     inkscape:pagecheckerboard="0"
     inkscape:deskcolor="#d1d1d1"
     inkscape:zoom="7.0710678"
     inkscape:cx="20.435386"
     inkscape:cy="48.012551"
     inkscape:window-width="1920"
     inkscape:window-height="996"
     inkscape:window-x="0"
     inkscape:window-y="0"
     inkscape:window-maximized="1"
     inkscape:current-layer="svg29" />
  <rect
     style="opacity:0.2;stroke-width:0.9823"
     width="55"
     height="55.017544"
     x="3.5"
     y="3.9824562"
     ry="13.754386"
     id="rect1" />
  <rect
     style="fill:url(#linearGradient30);stroke-width:0.9823"
     width="55"
     height="55.017544"
     x="3.5"
     y="3"
     ry="13.754386"
     id="rect2" />
  <path
     style="opacity:0.1;fill:#ffffff;stroke-width:0.9823"
     d="M 17.25,3 C 9.6324999,3 3.4999999,9.1344561 3.4999999,16.754386 v 0.982456 c 0,-7.61993 6.1325,-13.7543858 13.7500001,-13.7543858 h 27.5 c 7.6175,0 13.75,6.1344558 13.75,13.7543858 V 16.754386 C 58.5,9.1344561 52.3675,3 44.75,3 Z"
     id="path28" />
  <path
     d="m 19.062891,30.678712 c -0.347242,0.04917 -0.701594,0.07453 -1.063064,0.07453 C 13.859983,30.753239 10.5,27.433523 10.5,23.34329 c 0,-4.090239 3.359983,-7.409957 7.499827,-7.409957 2.235717,0 4.243736,0.968786 5.618464,2.502796 1.667898,-2.661675 4.650752,-4.436128 8.04915,-4.436128 3.082473,0 5.823388,1.460899 7.551063,3.720439 1.299306,-1.062979 2.96577,-1.702747 4.781671,-1.702747 4.139844,0 7.499825,3.319718 7.499825,7.409956 0,4.090234 -3.359981,7.409953 -7.499825,7.409953 -0.361468,0 -0.71583,-0.02529 -1.063065,-0.07453 V 42.239358 H 19.062891 Z m 18.14617,7.525247 v -8.520741 h -1.332035 v 8.520741 z M 25.622046,38.000075 v -8.523548 h -1.329197 v 8.523548 z m 5.950044,0 v -8.523548 h -1.330611 v 8.523548 z M 19.062891,43.30797 H 42.93711 v 4.692029 H 19.062891 Z"
     fill="#ebebeb"
     id="path2"
     style="stroke-width:1.41462;fill:#f2f2f2;fill-opacity:1" />
</svg>
