<?xml version="1.0" encoding="UTF-8" standalone="no"?>
<svg
   width="62"
   height="62"
   version="1.1"
   id="svg6"
   sodipodi:docname="lara-croft-and-the-temple-of-osiris.svg"
   inkscape:version="1.4 (unknown)"
   xmlns:inkscape="http://www.inkscape.org/namespaces/inkscape"
   xmlns:sodipodi="http://sodipodi.sourceforge.net/DTD/sodipodi-0.dtd"
   xmlns:xlink="http://www.w3.org/1999/xlink"
   xmlns="http://www.w3.org/2000/svg"
   xmlns:svg="http://www.w3.org/2000/svg">
  <defs
     id="defs6">
    <linearGradient
       id="linearGradient1"
       inkscape:collect="always">
      <stop
         style="stop-color:#2e3b52;stop-opacity:1;"
         offset="0"
         id="stop1" />
      <stop
         style="stop-color:#405272;stop-opacity:1;"
         offset="1"
         id="stop2" />
    </linearGradient>
    <linearGradient
       inkscape:collect="always"
       xlink:href="#linearGradient1"
       id="linearGradient2"
       x1="31"
       y1="56"
       x2="29.989651"
       y2="6"
       gradientUnits="userSpaceOnUse" />
  </defs>
  <sodipodi:namedview
     id="namedview6"
     pagecolor="#ffffff"
     bordercolor="#000000"
     borderopacity="0.25"
     inkscape:showpageshadow="2"
     inkscape:pageopacity="0.0"
     inkscape:pagecheckerboard="0"
     inkscape:deskcolor="#d1d1d1"
     inkscape:zoom="6.0390625"
     inkscape:cx="12.833118"
     inkscape:cy="56.548512"
     inkscape:window-width="1920"
     inkscape:window-height="996"
     inkscape:window-x="0"
     inkscape:window-y="0"
     inkscape:window-maximized="1"
     inkscape:current-layer="svg6" />
  <rect
     width="52"
     height="56"
     x="5"
     y="3"
     rx="8"
     ry="8"
     id="rect1"
     style="fill:#afb225;fill-opacity:1" />
  <rect
     width="46"
     height="50"
     x="8"
     y="6"
     opacity="0.05"
     rx="5"
     ry="5"
     id="rect2"
     style="opacity:1;fill:url(#linearGradient2);fill-opacity:1" />
  <path
     d="M 12.75,9 A 0.750075,0.66673333 0 0 0 12,9.666016 v 6.667968 A 0.750075,0.66673333 0 0 0 12.75,17 h 4.5 A 0.750075,0.66673333 0 0 0 18,16.333984 V 9.666016 A 0.750075,0.66673333 0 0 0 17.25,9 Z M 13,10 h 4 v 6 h -4 z"
     style="opacity:0.5;fill:#ffffff"
     id="path4" />
  <path
     d="m 22.492192,9 a 0.49998983,0.66507862 0 0 0 -0.492131,0.675413 v 6.650119 a 0.49998983,0.66507862 0 1 0 0.99988,0 V 9.675413 A 0.49998983,0.66507862 0 0 0 22.492002,9.0002 Z"
     style="opacity:0.5;fill:#ffffff;fill-rule:evenodd"
     id="path5" />
  <path
     d="m 28.492192,9 a 0.49998983,0.66507862 0 0 0 -0.492131,0.675413 v 6.650119 a 0.49998983,0.66507862 0 1 0 0.99988,0 V 9.675413 A 0.49998983,0.66507862 0 0 0 28.492002,9.0002 Z"
     style="opacity:0.5;fill:#ffffff;fill-rule:evenodd"
     id="path6" />
  <path
     d="M 32.75,9 A 0.750075,0.66673333 0 0 0 32,9.666016 v 6.667968 A 0.750075,0.66673333 0 0 0 32.75,17 h 4.5 A 0.750075,0.66673333 0 0 0 38,16.333984 V 9.666016 A 0.750075,0.66673333 0 0 0 37.25,9 Z M 33,10 h 4 v 6 h -4 z"
     style="opacity:0.5;fill:#ffffff"
     id="path7" />
  <path
     d="M 42.75,9 A 0.750075,0.66673333 0 0 0 42,9.666016 v 6.667968 A 0.750075,0.66673333 0 0 0 42.75,17 h 4.5 A 0.750075,0.66673333 0 0 0 48,16.333984 V 9.666016 A 0.750075,0.66673333 0 0 0 47.25,9 Z M 43,10 h 4 v 6 h -4 z"
     style="opacity:0.5;fill:#ffffff"
     id="path8" />
  <path
     d="M 47.25,33 A 0.750075,0.66673333 0 0 1 48,33.666016 v 6.667968 A 0.750075,0.66673333 0 0 1 47.25,41 h -4.5 A 0.750075,0.66673333 0 0 1 42,40.333984 V 33.666016 A 0.750075,0.66673333 0 0 1 42.75,33 Z M 47,34 h -4 v 6 h 4 z"
     style="opacity:0.5;fill:#ffffff"
     id="path9" />
  <path
     d="m 37.507808,33 a 0.49998983,0.66507862 0 0 1 0.492131,0.675413 v 6.650119 a 0.49998983,0.66507862 0 1 1 -0.99988,0 V 33.675413 A 0.49998983,0.66507862 0 0 1 37.507998,33.0002 Z"
     style="opacity:0.5;fill:#ffffff;fill-rule:evenodd"
     id="path10" />
  <path
     d="m 31.507808,33 a 0.49998983,0.66507862 0 0 1 0.492131,0.675413 v 6.650119 a 0.49998983,0.66507862 0 1 1 -0.99988,0 V 33.675413 A 0.49998983,0.66507862 0 0 1 31.507998,33.0002 Z"
     style="opacity:0.5;fill:#ffffff;fill-rule:evenodd"
     id="path11" />
  <path
     d="M 27.25,33 A 0.750075,0.66673333 0 0 1 28,33.666016 v 6.667968 A 0.750075,0.66673333 0 0 1 27.25,41 h -4.5 A 0.750075,0.66673333 0 0 1 22,40.333984 V 33.666016 A 0.750075,0.66673333 0 0 1 22.75,33 Z M 27,34 h -4 v 6 h 4 z"
     style="opacity:0.5;fill:#ffffff"
     id="path12" />
  <path
     d="M 17.25,33 A 0.750075,0.66673333 0 0 1 18,33.666016 v 6.667968 A 0.750075,0.66673333 0 0 1 17.25,41 h -4.5 A 0.750075,0.66673333 0 0 1 12,40.333984 V 33.666016 A 0.750075,0.66673333 0 0 1 12.75,33 Z M 17,34 h -4 v 6 h 4 z"
     style="opacity:0.5;fill:#ffffff"
     id="path13" />
  <path
     d="M 25.25,21 A 0.750075,0.66673333 0 0 1 26,21.666016 v 6.667968 A 0.750075,0.66673333 0 0 1 25.25,29 h -4.5 A 0.750075,0.66673333 0 0 1 20,28.333984 V 21.666016 A 0.750075,0.66673333 0 0 1 20.75,21 Z M 25,22 h -4 v 6 h 4 z"
     style="opacity:0.5;fill:#ffffff"
     id="path14" />
  <path
     d="m 14.507808,21 a 0.49998983,0.66507862 0 0 1 0.492131,0.675413 v 6.650119 a 0.49998983,0.66507862 0 1 1 -0.99988,0 V 21.675413 A 0.49998983,0.66507862 0 0 1 14.507998,21.0002 Z"
     style="opacity:0.5;fill:#ffffff;fill-rule:evenodd"
     id="path15" />
  <path
     d="m 32.492192,21 a 0.49998983,0.66507862 0 0 0 -0.492131,0.675413 v 6.650119 a 0.49998983,0.66507862 0 1 0 0.99988,0 V 21.675413 A 0.49998983,0.66507862 0 0 0 32.492002,21.0002 Z"
     style="opacity:0.5;fill:#ffffff;fill-rule:evenodd"
     id="path16" />
  <path
     d="M 42.75,21 A 0.750075,0.66673333 0 0 0 42,21.666016 v 6.667968 A 0.750075,0.66673333 0 0 0 42.75,29 h 4.5 A 0.750075,0.66673333 0 0 0 48,28.333984 V 21.666016 A 0.750075,0.66673333 0 0 0 47.25,21 Z M 43,22 h 4 v 6 h -4 z"
     style="opacity:0.5;fill:#ffffff"
     id="path17" />
  <path
     d="m 36.492192,21 a 0.49998983,0.66507862 0 0 0 -0.492131,0.675413 v 6.650119 a 0.49998983,0.66507862 0 1 0 0.99988,0 V 21.675413 A 0.49998983,0.66507862 0 0 0 36.492002,21.0002 Z"
     style="opacity:0.5;fill:#ffffff;fill-rule:evenodd"
     id="path18" />
  <path
     d="M 34.75,45 A 0.750075,0.66673333 0 0 0 34,45.666016 v 6.667968 A 0.750075,0.66673333 0 0 0 34.75,53 h 4.5 A 0.750075,0.66673333 0 0 0 40,52.333984 V 45.666016 A 0.750075,0.66673333 0 0 0 39.25,45 Z M 35,46 h 4 v 6 h -4 z"
     style="opacity:0.5;fill:#ffffff"
     id="path19" />
  <path
     d="m 45.492192,45 a 0.49998983,0.66507862 0 0 0 -0.492131,0.675413 v 6.650119 a 0.49998983,0.66507862 0 1 0 0.99988,0 V 45.675413 A 0.49998983,0.66507862 0 0 0 45.492002,45.0002 Z"
     style="opacity:0.5;fill:#ffffff;fill-rule:evenodd"
     id="path20" />
  <path
     d="m 27.507808,45 a 0.49998983,0.66507862 0 0 1 0.492131,0.675413 v 6.650119 a 0.49998983,0.66507862 0 1 1 -0.99988,0 V 45.675413 A 0.49998983,0.66507862 0 0 1 27.507998,45.0002 Z"
     style="opacity:0.5;fill:#ffffff;fill-rule:evenodd"
     id="path21" />
  <path
     d="M 17.25,45 A 0.750075,0.66673333 0 0 1 18,45.666016 v 6.667968 A 0.750075,0.66673333 0 0 1 17.25,53 h -4.5 A 0.750075,0.66673333 0 0 1 12,52.333984 V 45.666016 A 0.750075,0.66673333 0 0 1 12.75,45 Z M 17,46 h -4 v 6 h 4 z"
     style="opacity:0.5;fill:#ffffff"
     id="path22" />
  <path
     d="m 23.507808,45 a 0.49998983,0.66507862 0 0 1 0.492131,0.675413 v 6.650119 a 0.49998983,0.66507862 0 1 1 -0.99988,0 V 45.675413 A 0.49998983,0.66507862 0 0 1 23.507998,45.0002 Z"
     style="opacity:0.5;fill:#ffffff;fill-rule:evenodd"
     id="path23" />
  <path
     d="M 61.958,44.848 A 16,16 0 0 1 46,60 16,16 0 0 1 30.042,45.152 16,16 0 0 0 30,46 16,16 0 0 0 46,62 16,16 0 0 0 62,46 16,16 0 0 0 61.95704,44.84766 Z"
     style="opacity:0.2"
     id="path24" />
  <circle
     cx="46"
     cy="44.999996"
     r="16"
     style="fill:#d2d638"
     id="circle24" />
  <path
     d="m 43,37.0002 c -1.662,0 -3,1.338 -3,3 v 10 c 0,1.662 1.338,3 3,3 h 6 c 1.662,0 3,-1.338 3,-3 v -2 h -3 c 0,1.108 -0.892,2 -2,2 h -2 c -1.108,0 -2,-0.892 -2,-2 v -6 c 0,-1.108 0.892,-2 2,-2 h 2 c 1.108,0 2,0.892 2,2 h 3 v -2 c 0,-1.662 -1.338,-3 -3,-3 z"
     style="fill:#ffffff"
     id="path25" />
</svg>
