<?xml version="1.0" encoding="UTF-8" standalone="no"?>
<svg
   width="62"
   height="62"
   version="1.1"
   id="svg9"
   sodipodi:docname="glyphr-studio-desktop.svg"
   inkscape:version="1.4 (unknown)"
   xmlns:inkscape="http://www.inkscape.org/namespaces/inkscape"
   xmlns:sodipodi="http://sodipodi.sourceforge.net/DTD/sodipodi-0.dtd"
   xmlns:xlink="http://www.w3.org/1999/xlink"
   xmlns="http://www.w3.org/2000/svg"
   xmlns:svg="http://www.w3.org/2000/svg">
  <defs
     id="defs9">
    <linearGradient
       id="linearGradient1"
       inkscape:collect="always">
      <stop
         style="stop-color:#2d3d53;stop-opacity:1;"
         offset="0"
         id="stop1" />
      <stop
         style="stop-color:#0190c5;stop-opacity:1;"
         offset="1"
         id="stop2" />
    </linearGradient>
    <linearGradient
       inkscape:collect="always"
       xlink:href="#linearGradient1"
       id="linearGradient2"
       x1="31.799999"
       y1="62"
       x2="30.699999"
       y2="0"
       gradientUnits="userSpaceOnUse" />
  </defs>
  <sodipodi:namedview
     id="namedview9"
     pagecolor="#ffffff"
     bordercolor="#000000"
     borderopacity="0.25"
     inkscape:showpageshadow="2"
     inkscape:pageopacity="0.0"
     inkscape:pagecheckerboard="0"
     inkscape:deskcolor="#d1d1d1"
     inkscape:zoom="5"
     inkscape:cx="64"
     inkscape:cy="48.3"
     inkscape:window-width="1920"
     inkscape:window-height="996"
     inkscape:window-x="0"
     inkscape:window-y="0"
     inkscape:window-maximized="1"
     inkscape:current-layer="svg9" />
  <rect
     style="opacity:0.2;stroke-width:0.9823"
     width="55"
     height="55.017544"
     x="3.5"
     y="3.9824562"
     ry="8.2526312"
     id="rect1" />
  <rect
     style="fill:url(#linearGradient2);fill-opacity:1;stroke-width:0.9823"
     width="55"
     height="55.017544"
     x="3.5"
     y="3"
     ry="8.2526312"
     id="rect2" />
  <path
     style="opacity:0.1;fill:#ffffff;stroke-width:0.9823"
     d="M 11.748466,3 C 7.1779651,3 3.4999999,6.6791384 3.4999999,11.251097 v 0.982456 c 0,-4.5719585 3.6779652,-8.2510968 8.2484661,-8.2510968 h 38.503068 c 4.5705,0 8.248466,3.6791383 8.248466,8.2510968 V 11.251097 C 58.5,6.6791384 54.822034,3 50.251534,3 Z"
     id="path9" />
  <g
     id="g1"
     transform="matrix(0.97777778,0,0,0.97777778,-65.311111,12.715556)">
    <path
       d="m 99,-2.8 c 0,0 10,2.00000002 14,6 5,5 8,16 8,16 V 0.20000002 C 121,-1.462 119.662,-2.8 118,-2.8 Z M 76,0.20000002 V 28.2 c 0,0 9,0 15,-7 C 95.328471,16.150118 102.56043,7.212494 104.02148,5.405078 94.00398,0.20438502 76,0.20000002 76,0.20000002 Z M 110.18945,11.022266 C 108.20983,13.025688 100.11764,21.258832 96,26.2 c -5,6 -5,15 -5,15 h 27 c 0,0 -1.6281,-20.314717 -7.81055,-30.177734 z"
       style="opacity:0.2"
       id="path2" />
    <path
       d="m 99,-3.8 c 0,0 10,2 14,6 5,5 8,16 8,16 V -0.79999998 C 121,-2.462 119.662,-3.8 118,-3.8 Z M 76,-0.79999998 V 27.2 c 0,0 9,0 15,-7 C 95.328471,15.150118 102.56043,6.212494 104.02148,4.405078 94.00398,-0.79561498 76,-0.79999998 76,-0.79999998 Z M 110.18945,10.022266 C 108.20983,12.025688 100.11764,20.258832 96,25.2 c -5,6 -5,15 -5,15 h 27 c 0,0 -1.6281,-20.314717 -7.81055,-30.177734 z"
       style="fill:#ffffff"
       id="path3" />
  </g>
</svg>
