<?xml version="1.0" encoding="UTF-8" standalone="no"?>
<svg
   width="62"
   height="62"
   version="1"
   id="svg5"
   sodipodi:docname="scsi.svg"
   inkscape:version="1.4 (unknown)"
   xmlns:inkscape="http://www.inkscape.org/namespaces/inkscape"
   xmlns:sodipodi="http://sodipodi.sourceforge.net/DTD/sodipodi-0.dtd"
   xmlns:xlink="http://www.w3.org/1999/xlink"
   xmlns="http://www.w3.org/2000/svg"
   xmlns:svg="http://www.w3.org/2000/svg">
  <defs
     id="defs5">
    <linearGradient
       id="linearGradient5"
       inkscape:collect="always">
      <stop
         style="stop-color:#9cafc9;stop-opacity:1;"
         offset="0"
         id="stop5" />
      <stop
         style="stop-color:#ccd6e3;stop-opacity:1;"
         offset="1"
         id="stop6" />
    </linearGradient>
    <linearGradient
       inkscape:collect="always"
       xlink:href="#linearGradient5"
       id="linearGradient6"
       x1="-20.06311"
       y1="66.209152"
       x2="20.574089"
       y2="26.292513"
       gradientUnits="userSpaceOnUse" />
  </defs>
  <sodipodi:namedview
     id="namedview5"
     pagecolor="#ffffff"
     bordercolor="#000000"
     borderopacity="0.25"
     inkscape:showpageshadow="2"
     inkscape:pageopacity="0.0"
     inkscape:pagecheckerboard="0"
     inkscape:deskcolor="#d1d1d1"
     inkscape:zoom="6.0390625"
     inkscape:cx="45.122898"
     inkscape:cy="28.398448"
     inkscape:window-width="1920"
     inkscape:window-height="996"
     inkscape:window-x="0"
     inkscape:window-y="0"
     inkscape:window-maximized="1"
     inkscape:current-layer="svg5" />
  <g
     id="g6"
     transform="matrix(0.94827426,0,0,0.9492547,0.65645262,0.15223583)">
    <rect
       style="opacity:0.2"
       width="49.733002"
       height="49.733002"
       x="-25.57"
       y="21.09"
       rx="14.92"
       ry="14.92"
       transform="rotate(-45)"
       id="rect1" />
    <rect
       style="fill:url(#linearGradient6);fill-opacity:1"
       width="49.733002"
       height="49.733002"
       x="-24.870001"
       y="20.389999"
       rx="14.92"
       ry="14.92"
       transform="rotate(-45)"
       id="rect2" />
    <path
       style="opacity:0.1"
       d="m 31.957033,11.998622 a 3.0003,3.0003 0 0 0 -2.078126,0.878907 l -18,17.999999 a 3.0003,3.0003 0 0 0 0,4.242188 l 18,18 a 3.0003,3.0003 0 0 0 4.246094,0 L 49.246095,37.998622 H 40.761719 L 32.003907,46.756434 18.242188,32.998622 32.000001,19.24081 l 8.753906,8.757812 h 8.484376 L 34.121095,12.877529 a 3.0003,3.0003 0 0 0 -2.164062,-0.878907 z m 2.042968,18 a 3.0003,3.0003 0 1 0 0,6 h 16 a 3.0003,3.0003 0 1 0 0,-6 z"
       id="path2" />
    <path
       style="fill:none;stroke:#2d3d53;stroke-width:6;stroke-linecap:round;stroke-linejoin:round;stroke-opacity:1"
       d="m 34.000001,32.00023 h 16"
       id="path3" />
    <path
       style="fill:#2d3d53;fill-opacity:1"
       d="m 31.957033,11 a 3.0003,3.0003 0 0 0 -2.078126,0.878906 l -18,18 a 3.0003,3.0003 0 0 0 0,4.242188 l 18,18 a 3.0003,3.0003 0 0 0 4.246094,0 L 49.246095,37 H 40.761719 L 32.003907,45.757812 18.242188,32 32.000001,18.242187 40.753907,27 h 8.484376 L 34.121095,11.878906 A 3.0003,3.0003 0 0 0 31.957033,11 Z"
       id="path4" />
    <path
       style="opacity:0.1;fill:#ffffff"
       d="M 32,3 C 28.186066,3 24.371653,4.4603787 21.449219,7.3828125 L 7.3828125,21.449219 C 4.3840021,24.44803 2.9608254,28.38578 3.0410156,32.298828 3.2056235,28.721913 4.6396784,25.192354 7.3828125,22.449219 L 21.449219,8.3828125 C 24.371653,5.4603787 28.186066,4 32,4 35.813934,4 39.628347,5.4603787 42.550781,8.3828125 L 56.617188,22.449219 c 2.743133,2.743135 4.177189,6.272694 4.341796,9.849609 0.08019,-3.913048 -1.342987,-7.850798 -4.341796,-10.849609 L 42.550781,7.3828125 C 39.628347,4.4603787 35.813934,3 32,3 Z"
       id="path5" />
  </g>
</svg>
