<?xml version="1.0" encoding="UTF-8" standalone="no"?>
<svg
   id="svg1067"
   version="1.1"
   viewBox="0 0 62 62"
   sodipodi:docname="smartphone.svg"
   width="62"
   height="62"
   inkscape:version="1.4 (unknown)"
   xmlns:inkscape="http://www.inkscape.org/namespaces/inkscape"
   xmlns:sodipodi="http://sodipodi.sourceforge.net/DTD/sodipodi-0.dtd"
   xmlns:xlink="http://www.w3.org/1999/xlink"
   xmlns="http://www.w3.org/2000/svg"
   xmlns:svg="http://www.w3.org/2000/svg">
  <sodipodi:namedview
     id="namedview1"
     pagecolor="#ffffff"
     bordercolor="#000000"
     borderopacity="0.25"
     inkscape:showpageshadow="2"
     inkscape:pageopacity="0.0"
     inkscape:pagecheckerboard="0"
     inkscape:deskcolor="#d1d1d1"
     inkscape:zoom="6.0390625"
     inkscape:cx="35.518758"
     inkscape:cy="30.385511"
     inkscape:window-width="1920"
     inkscape:window-height="996"
     inkscape:window-x="0"
     inkscape:window-y="0"
     inkscape:window-maximized="1"
     inkscape:current-layer="svg1067" />
  <defs
     id="defs1043">
    <linearGradient
       id="linearGradient1"
       inkscape:collect="always">
      <stop
         style="stop-color:#456084;stop-opacity:1;"
         offset="0"
         id="stop1" />
      <stop
         style="stop-color:#5e7eab;stop-opacity:1;"
         offset="1"
         id="stop2" />
    </linearGradient>
    <linearGradient
       id="linearGradient2554"
       x1="31.756001"
       x2="30.031"
       y1="44.109001"
       y2="25.774"
       gradientTransform="matrix(4.0862992,0,0,4.0000661,-113.09527,-117.74537)"
       gradientUnits="userSpaceOnUse">
      <stop
         id="stop1038"
         stop-color="#242424"
         offset="0"
         style="stop-color:#243042;stop-opacity:1;" />
      <stop
         id="stop1040"
         stop-color="#878787"
         offset="1"
         style="stop-color:#455c7e;stop-opacity:1;" />
    </linearGradient>
    <linearGradient
       inkscape:collect="always"
       xlink:href="#linearGradient1"
       id="linearGradient2"
       x1="32"
       y1="57.316555"
       x2="32"
       y2="5.9866691"
       gradientUnits="userSpaceOnUse" />
  </defs>
  <g
     id="g1"
     transform="matrix(1.074847,0,0,1.0700941,-3.395104,-2.8702038)">
    <path
       id="path1045"
       d="m 21.371142,5.986669 h 21.257716 c 1.823338,0 3.291113,1.4369012 3.291113,3.2216602 V 54.094895 c 0,1.78486 -1.467878,3.221661 -3.291113,3.221661 H 21.371142 c -1.823338,0 -3.291113,-1.436903 -3.291113,-3.221661 V 9.2083292 c 0,-1.784759 1.467878,-3.2216602 3.291113,-3.2216602 z"
       style="fill:url(#linearGradient2554);stroke:url(#linearGradient2);stroke-opacity:1" />
    <path
       id="path1049"
       d="m 25.481693,49.245736 a 1.956417,1.956417 0 0 1 -1.949942,1.956416 1.956417,1.956417 0 0 1 -1.962891,-1.943365 1.956417,1.956417 0 0 1 1.936891,-1.969365 1.956417,1.956417 0 0 1 1.975736,1.930315"
       fill="#aa5cf9"
       style="paint-order:stroke fill markers" />
    <path
       id="path1051"
       d="m 31.267294,49.245736 a 1.956417,1.956417 0 0 1 -1.949943,1.956416 1.956417,1.956417 0 0 1 -1.962891,-1.943365 1.956417,1.956417 0 0 1 1.936893,-1.969365 1.956417,1.956417 0 0 1 1.975838,1.930315"
       fill="#34b9ff"
       style="paint-order:stroke fill markers" />
    <path
       id="path1053"
       d="m 37.042618,49.214906 a 1.956417,1.956417 0 0 1 -1.949941,1.956417 1.956417,1.956417 0 0 1 -1.962893,-1.943468 1.956417,1.956417 0 0 1 1.936893,-1.969365 1.956417,1.956417 0 0 1 1.975736,1.930315"
       fill="#8ace6c" />
    <path
       id="path1055"
       d="m 42.817944,49.389605 a 1.956417,1.956417 0 0 1 -1.949943,1.956417 1.956417,1.956417 0 0 1 -1.96289,-1.943367 1.956417,1.956417 0 0 1 1.936891,-1.969364 1.956417,1.956417 0 0 1 1.975736,1.930315"
       fill="#ffb446"
       style="paint-order:stroke fill markers" />
    <path
       id="path1057"
       d="m 41,8.9996377 a 0.88683089,0.88683089 0 0 1 -0.883873,0.8868204 0.88683089,0.88683089 0 0 1 -0.88976,-0.8809213 0.88683089,0.88683089 0 0 1 0.877952,-0.8926885 0.88683089,0.88683089 0 0 1 0.895597,0.8749826"
       fill="#dadada"
       style="paint-order:stroke fill markers" />
    <path
       id="path1061"
       d="M 22.438596,9.9732091 A 1.0811777,1.0811777 0 0 1 21.361014,11.054387 1.0811777,1.0811777 0 0 1 20.27624,9.980403 1.0811777,1.0811777 0 0 1 21.346627,8.8921343 1.0811777,1.0811777 0 0 1 22.438493,9.9588221"
       style="paint-order:stroke fill markers;fill:#000000;fill-opacity:1" />
    <path
       id="path1194"
       d="m 31.243454,49.666581 a 2.0200726,2.0200726 0 0 1 -2.013388,2.020072 2.0200726,2.0200726 0 0 1 -2.026757,-2.006597 2.0200726,2.0200726 0 0 1 1.999913,-2.033441 2.0200726,2.0200726 0 0 1 2.040126,1.993121"
       fill="none"
       stroke-width="1.37939"
       style="paint-order:stroke fill markers" />
    <path
       id="path1190"
       d="m 27.066536,54.41109 a 0.46243702,0.46243702 0 0 0 -0.461635,0.461635 0.46243702,0.46243702 0 0 0 0.461635,0.463642 h 9.866928 a 0.46243702,0.46243702 0 0 0 0.463641,-0.463642 0.46243702,0.46243702 0 0 0 -0.463641,-0.461635 z"
       fill="#a5a5a5"
       stroke-width="0" />
    <path
       id="path1"
       d="m 43.458515,8.9996377 a 0.88683089,0.88683089 0 0 1 -0.883873,0.8868204 0.88683089,0.88683089 0 0 1 -0.88976,-0.8809213 0.88683089,0.88683089 0 0 1 0.877952,-0.8926885 0.88683089,0.88683089 0 0 1 0.895597,0.8749826"
       fill="#dadada"
       style="paint-order:stroke fill markers" />
  </g>
</svg>
