<?xml version="1.0" encoding="UTF-8" standalone="no"?>
<svg
   width="62"
   height="62"
   version="1.1"
   id="svg9"
   sodipodi:docname="sonobus.svg"
   inkscape:version="1.4 (unknown)"
   xmlns:inkscape="http://www.inkscape.org/namespaces/inkscape"
   xmlns:sodipodi="http://sodipodi.sourceforge.net/DTD/sodipodi-0.dtd"
   xmlns:xlink="http://www.w3.org/1999/xlink"
   xmlns="http://www.w3.org/2000/svg"
   xmlns:svg="http://www.w3.org/2000/svg">
  <defs
     id="defs9">
    <linearGradient
       inkscape:collect="always"
       xlink:href="#bluecircle_grad"
       id="linearGradient27013"
       x1="199.37561"
       y1="85.400658"
       x2="202.03453"
       y2="164.21075"
       gradientUnits="userSpaceOnUse" />
    <linearGradient
       inkscape:collect="always"
       id="bluecircle_grad">
      <stop
         style="stop-color:#49b5ff;stop-opacity:1;"
         offset="0"
         id="stop27007" />
      <stop
         style="stop-color:#3179aa;stop-opacity:1"
         offset="1"
         id="stop27009" />
    </linearGradient>
    <linearGradient
       inkscape:collect="always"
       xlink:href="#purplecircle_grad"
       id="linearGradient27037"
       x1="158.14442"
       y1="50.393822"
       x2="73.584534"
       y2="57.577633"
       gradientUnits="userSpaceOnUse" />
    <linearGradient
       id="purplecircle_grad"
       inkscape:collect="always">
      <stop
         id="stop27039"
         offset="0"
         style="stop-color:#c22ec2;stop-opacity:1" />
      <stop
         id="stop27041"
         offset="1"
         style="stop-color:#673867;stop-opacity:1" />
    </linearGradient>
    <linearGradient
       inkscape:collect="always"
       xlink:href="#linearGradient27049"
       id="linearGradient27021"
       x1="50.7183"
       y1="185.64149"
       x2="54.56778"
       y2="92.935928"
       gradientUnits="userSpaceOnUse" />
    <linearGradient
       id="linearGradient27049"
       inkscape:collect="always">
      <stop
         id="stop27045"
         offset="0"
         style="stop-color:#49b5ff;stop-opacity:1;" />
      <stop
         id="stop27047"
         offset="1"
         style="stop-color:#2e709c;stop-opacity:1" />
    </linearGradient>
    <linearGradient
       inkscape:collect="always"
       xlink:href="#purplecircle_grad"
       id="linearGradient27029"
       x1="113.21239"
       y1="215.27492"
       x2="164.26543"
       y2="199.61705"
       gradientUnits="userSpaceOnUse" />
  </defs>
  <sodipodi:namedview
     id="namedview9"
     pagecolor="#ffffff"
     bordercolor="#000000"
     borderopacity="0.25"
     inkscape:showpageshadow="2"
     inkscape:pageopacity="0.0"
     inkscape:pagecheckerboard="0"
     inkscape:deskcolor="#d1d1d1"
     inkscape:zoom="7.0710678"
     inkscape:cx="24.395184"
     inkscape:cy="42.072854"
     inkscape:window-width="1920"
     inkscape:window-height="996"
     inkscape:window-x="0"
     inkscape:window-y="0"
     inkscape:window-maximized="1"
     inkscape:current-layer="svg9" />
  <g
     id="g31195"
     style="display:inline"
     transform="matrix(0.26167269,0,0,0.26167269,-2.4941048,-2.646917)">
    <path
       id="path26991"
       style="display:inline;fill:url(#linearGradient27013);fill-opacity:1;stroke:#354864;stroke-width:5;stroke-linecap:butt;stroke-linejoin:miter;stroke-miterlimit:4;stroke-dasharray:none;stroke-opacity:1"
       d="m 207.75349,48.831284 -40.00001,40.000005 m 4.3e-4,7.42e-4 c 15.2922,15.292189 24.75,36.416849 24.75,59.751949 0,13.00178 -2.9379,25.31714 -8.18359,36.32032 28.49301,-13.58385 48.18359,-42.65188 48.18359,-76.32032 0,-23.335102 -9.4578,-44.459752 -24.75,-59.751949"
       inkscape:connector-curvature="0" />
    <path
       id="path26993"
       style="display:inline;fill:url(#linearGradient27037);fill-opacity:1;stroke:#354864;stroke-width:5;stroke-linecap:butt;stroke-linejoin:miter;stroke-miterlimit:4;stroke-dasharray:none;stroke-opacity:1"
       d="m 207.75349,48.831284 -40.00001,40.000005 m 40.00043,-39.999258 c -15.29219,-15.292197 -36.41879,-24.751953 -59.7539,-24.751953 -33.66839,-1e-6 -62.734498,19.6926 -76.318369,48.185547 11.003209,-5.245725 23.316535,-8.185547 36.318369,-8.185547 23.3351,0 44.46171,9.459757 59.7539,24.751953"
       inkscape:connector-curvature="0" />
    <path
       id="path26995"
       style="display:inline;fill:url(#linearGradient27021);fill-opacity:1;stroke:#354864;stroke-width:5;stroke-linecap:butt;stroke-linejoin:miter;stroke-miterlimit:4;stroke-dasharray:none;stroke-opacity:1"
       d="m 88.246941,168.33783 -40.000012,40.00001 m 39.999165,-39.99995 c -15.292197,-15.29219 -24.75,-36.41881 -24.75,-59.75391 0,-13.001822 2.939822,-25.315145 8.185547,-36.318355 -28.492943,13.583869 -48.185543,42.649975 -48.185547,76.318355 -2e-6,23.33511 9.457804,44.46171 24.75,59.75391"
       inkscape:connector-curvature="0" />
    <path
       id="path26997"
       style="display:inline;fill:url(#linearGradient27029);fill-opacity:1;stroke:#354864;stroke-width:5;stroke-linecap:butt;stroke-linejoin:miter;stroke-miterlimit:4;stroke-dasharray:none;stroke-opacity:1"
       d="m 88.246941,168.33783 -40.000012,40.00001 m -8.35e-4,5e-5 c 15.292196,15.2922 36.4188,24.75 59.753916,24.75 33.66843,0 62.73646,-19.69058 76.32031,-48.18359 -11.00318,5.24568 -23.31854,8.18359 -36.32031,8.18359 -23.33511,0 -44.46172,-9.4578 -59.753916,-24.75"
       inkscape:connector-curvature="0" />
  </g>
</svg>
