<?xml version="1.0" encoding="UTF-8" standalone="no"?>
<svg
   width="62"
   height="62"
   version="1.1"
   id="svg29"
   sodipodi:docname="sound-juicer.svg"
   inkscape:version="1.4 (unknown)"
   xmlns:inkscape="http://www.inkscape.org/namespaces/inkscape"
   xmlns:sodipodi="http://sodipodi.sourceforge.net/DTD/sodipodi-0.dtd"
   xmlns:xlink="http://www.w3.org/1999/xlink"
   xmlns="http://www.w3.org/2000/svg"
   xmlns:svg="http://www.w3.org/2000/svg">
  <defs
     id="defs29">
    <linearGradient
       id="linearGradient29"
       inkscape:collect="always">
      <stop
         style="stop-color:#2d3d53;stop-opacity:1;"
         offset="0"
         id="stop29" />
      <stop
         style="stop-color:#ff956f;stop-opacity:1;"
         offset="1"
         id="stop30" />
    </linearGradient>
    <linearGradient
       inkscape:collect="always"
       xlink:href="#linearGradient29"
       id="linearGradient30"
       x1="30.782633"
       y1="60"
       x2="30.193521"
       y2="5"
       gradientUnits="userSpaceOnUse"
       gradientTransform="matrix(0.98214286,0,0,0.98245614,-0.42857152,-0.92982455)" />
  </defs>
  <sodipodi:namedview
     id="namedview29"
     pagecolor="#ffffff"
     bordercolor="#000000"
     borderopacity="0.25"
     inkscape:showpageshadow="2"
     inkscape:pageopacity="0.0"
     inkscape:pagecheckerboard="0"
     inkscape:deskcolor="#d1d1d1"
     inkscape:zoom="7.0710678"
     inkscape:cx="20.435386"
     inkscape:cy="50.982399"
     inkscape:window-width="1920"
     inkscape:window-height="996"
     inkscape:window-x="0"
     inkscape:window-y="0"
     inkscape:window-maximized="1"
     inkscape:current-layer="svg29" />
  <rect
     style="opacity:0.2;stroke-width:0.9823"
     width="55"
     height="55.017544"
     x="3.5"
     y="3.9824562"
     ry="13.754386"
     id="rect1" />
  <rect
     style="fill:url(#linearGradient30);stroke-width:0.9823"
     width="55"
     height="55.017544"
     x="3.5"
     y="3"
     ry="13.754386"
     id="rect2" />
  <path
     style="opacity:0.1;fill:#ffffff;stroke-width:0.9823"
     d="M 17.25,3 C 9.6324999,3 3.4999999,9.1344561 3.4999999,16.754386 v 0.982456 c 0,-7.61993 6.1325,-13.7543858 13.7500001,-13.7543858 h 27.5 c 7.6175,0 13.75,6.1344558 13.75,13.7543858 V 16.754386 C 58.5,9.1344561 52.3675,3 44.75,3 Z"
     id="path28" />
  <path
     d="m 22.198105,15.764257 c -1.321553,0.369999 -2.386857,1.845707 -2.386857,3.278557 v 22.722747 c -1.340272,-0.734283 -3.060599,-1.03142 -4.845707,-0.545713 -3.218953,0.875712 -5.2372789,3.708554 -4.547708,6.324256 0.691012,2.615701 3.862457,4.077123 7.082845,3.201413 2.569696,-0.698569 4.340402,-2.67713 4.622564,-4.762836 l 0.07481,-21.474176 16.699397,-4.684263 v 16.944199 c -1.340271,-0.735712 -3.062036,-1.032848 -4.845703,-0.547136 -3.22038,0.877134 -5.238714,3.708547 -4.547706,6.325682 0.689571,2.615697 3.862454,4.077121 7.081412,3.201412 2.569689,-0.699997 4.340402,-2.677131 4.622561,-4.762835 l 0.07483,-27.95415 C 41.282865,11.955713 40.647999,11.151422 39.791433,11 Z"
     fill="#ffffff"
     fill-opacity="0.85"
     fill-rule="nonzero"
     id="path5"
     style="stroke-width:1.43412" />
  <path
     d="m 48.886419,36.488998 -4.44081,7.661285 c -0.93263,1.619988 -1.005409,3.679976 0,5.413297 1.510823,2.607984 4.872088,3.509318 7.508275,2.014657 2.634837,-1.494661 3.545911,-4.819971 2.035089,-7.427954 l -4.440811,-7.661285 c -0.146898,-0.251998 -0.514833,-0.251998 -0.661743,0 z"
     fill="#ffffff"
     fill-opacity="0.85"
     fill-rule="nonzero"
     id="path7"
     style="fill:#ffd0b3;fill-opacity:0.85;stroke-width:1.34047" />
</svg>
