<?xml version="1.0" encoding="UTF-8" standalone="no"?>
<svg
   width="62"
   height="62"
   version="1"
   id="svg3"
   sodipodi:docname="stella.svg"
   inkscape:version="1.4 (unknown)"
   xmlns:inkscape="http://www.inkscape.org/namespaces/inkscape"
   xmlns:sodipodi="http://sodipodi.sourceforge.net/DTD/sodipodi-0.dtd"
   xmlns:xlink="http://www.w3.org/1999/xlink"
   xmlns="http://www.w3.org/2000/svg"
   xmlns:svg="http://www.w3.org/2000/svg">
  <defs
     id="defs3">
    <linearGradient
       id="linearGradient3"
       inkscape:collect="always">
      <stop
         style="stop-color:#ff9955;stop-opacity:1"
         offset="0"
         id="stop3" />
      <stop
         style="stop-color:#ffcc00;stop-opacity:1"
         offset="1"
         id="stop4" />
    </linearGradient>
    <linearGradient
       inkscape:collect="always"
       xlink:href="#linearGradient3"
       id="linearGradient4"
       x1="32.14164"
       y1="59.967762"
       x2="32"
       y2="4.0001936"
       gradientUnits="userSpaceOnUse" />
  </defs>
  <sodipodi:namedview
     id="namedview3"
     pagecolor="#ffffff"
     bordercolor="#000000"
     borderopacity="0.25"
     inkscape:showpageshadow="2"
     inkscape:pageopacity="0.0"
     inkscape:pagecheckerboard="0"
     inkscape:deskcolor="#d1d1d1"
     inkscape:zoom="10"
     inkscape:cx="29.05"
     inkscape:cy="35.15"
     inkscape:window-width="1920"
     inkscape:window-height="996"
     inkscape:window-x="0"
     inkscape:window-y="0"
     inkscape:window-maximized="1"
     inkscape:current-layer="svg3" />
  <g
     id="g3"
     transform="matrix(0.98333664,0,0,0.98245614,-0.4667723,-0.9298245)">
    <path
       style="opacity:0.2"
       d="m 26.00002,5.000187 v 0.03826 54.289632 c -0.07764,1.594371 -0.0124,1.639675 1.477851,1.639675 h 9.327541 c 1.545897,0.169559 1.194568,-0.317857 1.194568,-1.740788 V 5.0384462 5.000187 Z m 11.99996,0.03826 c 0,14.009665 -0.451909,24.799355 2.184692,34.031448 2.489122,8.715699 7.448788,15.819941 15.218749,21.211929 1.151493,0.775048 1.501371,1.214016 2.215961,-0.475506 l 3.904567,-6.862041 C 62.29453,51.590249 62.157045,51.590211 60.908699,50.779908 49.650695,42.348468 46.113297,24.666106 45.912531,6.3802473 45.905331,5.2511571 46.011551,4.8699764 44.671381,5.038447 Z m -11.99996,0 H 19.328619 C 17.988439,4.8699756 18.094695,5.2511563 18.08747,6.3802465 17.886704,24.666106 14.349307,42.348468 3.0912995,50.779908 1.8429547,51.590211 1.7054697,51.590249 2.4760508,52.944277 l 3.9045653,6.862041 c 0.7145908,1.689522 1.0644682,1.250554 2.215961,0.475506 C 16.366538,54.889836 21.326204,47.785594 23.815327,39.069895 26.451928,29.837802 26.00002,19.048112 26.00002,5.038447 Z"
       id="path1" />
    <path
       style="fill:url(#linearGradient4)"
       d="m 26.00002,4.0001938 v 0.03826 54.2896322 c -0.07764,1.594371 -0.0124,1.639675 1.477851,1.639675 h 9.327541 c 1.545897,0.169559 1.194568,-0.317857 1.194568,-1.740788 V 4.038453 4.0001938 Z m 11.99996,0.03826 c 0,14.0096662 -0.451909,24.7993552 2.184692,34.0314482 2.489122,8.715699 7.448788,15.819941 15.218749,21.211929 1.151493,0.775047 1.501371,1.214016 2.215961,-0.475506 l 3.904567,-6.862041 C 62.29453,50.590256 62.157045,50.590218 60.908699,49.779915 49.650695,41.348475 46.113297,23.666112 45.912531,5.3802541 c -0.0072,-1.1290902 0.09902,-1.5102709 -1.24115,-1.3418003 z m -11.99996,0 H 19.328619 C 17.988439,3.8699824 18.094695,4.2511631 18.08747,5.3802533 17.886704,23.666112 14.349307,41.348475 3.0912995,49.779915 1.8429547,50.590218 1.7054697,50.590256 2.4760508,51.944284 l 3.9045653,6.862041 c 0.7145908,1.689522 1.0644682,1.250553 2.215961,0.475506 C 16.366538,53.889843 21.326204,46.785601 23.815327,38.069902 26.451928,28.837809 26.00002,18.048119 26.00002,4.0384538 Z"
       id="path2" />
    <path
       style="opacity:0.2;fill:#ffffff"
       d="M 26,4 V 4.039063 H 19.328125 C 17.987945,3.8705911 18.095116,4.2517692 18.087891,5.3808594 17.887125,23.666718 14.349804,41.347857 3.0917969,49.779297 2.0534439,50.453294 1.8230068,50.609904 2.2050781,51.408203 2.3807095,51.2351 2.6677139,51.05457 3.0917969,50.779297 14.349804,42.347857 17.887125,24.666718 18.087891,6.3808594 18.095116,5.2517692 17.987945,4.8705911 19.328125,5.0390625 H 26 V 5 h 12 v 0.039063 h 6.671875 c 1.34017,-0.1684706 1.233034,0.2127067 1.240234,1.3417969 0.200766,18.2858571 3.73809,35.9669971 14.996094,44.3984371 0.424084,0.275273 0.711087,0.455804 0.886719,0.628906 0.382071,-0.798299 0.151635,-0.954909 -0.886719,-1.628906 C 49.650199,41.347857 46.112875,23.666717 45.912109,5.3808594 45.904909,4.2517692 46.012045,3.8705919 44.671875,4.0390625 H 38 V 4 Z m 12,54.226562 v 1 c 0,0.125563 0.0078,0.205222 0.01172,0.316407 C 38.056291,59.254771 38,58.828721 38,58.226562 Z m -12,0.101563 c -0.02157,0.443026 -0.028,0.758062 0,0.994141 z"
       id="path3" />
  </g>
</svg>
