<?xml version="1.0" encoding="UTF-8" standalone="no"?>
<svg
   width="62"
   height="62"
   version="1.1"
   id="svg29"
   sodipodi:docname="suanPan.svg"
   inkscape:version="1.4 (unknown)"
   xmlns:inkscape="http://www.inkscape.org/namespaces/inkscape"
   xmlns:sodipodi="http://sodipodi.sourceforge.net/DTD/sodipodi-0.dtd"
   xmlns:xlink="http://www.w3.org/1999/xlink"
   xmlns="http://www.w3.org/2000/svg"
   xmlns:svg="http://www.w3.org/2000/svg">
  <defs
     id="defs29">
    <linearGradient
       id="linearGradient29"
       inkscape:collect="always">
      <stop
         style="stop-color:#2d3d53;stop-opacity:1;"
         offset="0"
         id="stop29" />
      <stop
         style="stop-color:#354864;stop-opacity:1;"
         offset="1"
         id="stop30" />
    </linearGradient>
    <linearGradient
       inkscape:collect="always"
       xlink:href="#linearGradient29"
       id="linearGradient30"
       x1="30.782633"
       y1="60"
       x2="30.193521"
       y2="5"
       gradientUnits="userSpaceOnUse"
       gradientTransform="matrix(0.98214286,0,0,0.98245614,-0.42857152,-0.92982455)" />
  </defs>
  <sodipodi:namedview
     id="namedview29"
     pagecolor="#ffffff"
     bordercolor="#000000"
     borderopacity="0.25"
     inkscape:showpageshadow="2"
     inkscape:pageopacity="0.0"
     inkscape:pagecheckerboard="0"
     inkscape:deskcolor="#d1d1d1"
     inkscape:zoom="7.0710678"
     inkscape:cx="25.173001"
     inkscape:cy="36.557421"
     inkscape:window-width="1920"
     inkscape:window-height="996"
     inkscape:window-x="0"
     inkscape:window-y="0"
     inkscape:window-maximized="1"
     inkscape:current-layer="svg29" />
  <g
     id="g2">
    <rect
       style="opacity:0.2;stroke-width:0.9823"
       width="55"
       height="55.017544"
       x="3.5"
       y="3.9824562"
       ry="13.754386"
       id="rect1" />
    <rect
       style="fill:url(#linearGradient30);stroke-width:0.9823"
       width="55"
       height="55.017544"
       x="3.5"
       y="3"
       ry="13.754386"
       id="rect2" />
    <path
       style="opacity:0.1;fill:#ffffff;stroke-width:0.9823"
       d="M 17.25,3 C 9.6324999,3 3.4999999,9.1344561 3.4999999,16.754386 v 0.982456 c 0,-7.61993 6.1325,-13.7543858 13.7500001,-13.7543858 h 27.5 c 7.6175,0 13.75,6.1344558 13.75,13.7543858 V 16.754386 C 58.5,9.1344561 52.3675,3 44.75,3 Z"
       id="path28" />
    <g
       id="g1"
       transform="translate(61.29575,-9.7099142)">
      <path
         style="opacity:0.1"
         d="m -44.876606,61.571105 c -1.379,0.597 -3.456,-0.855 -1.871,-1.94 1.969,-1.389 4.67,-0.911 6.967,-1.307 1.823,-0.061 4.122,-0.083 4.96,-2.006 1.056,-1.269 2.539,-4.393 -0.036,-4.638 -1.051,1.008 -1.773,3.435 -3.778,3.278 -1.056,1.049 -3.097,0.887 -4.527,1.606 -1.684,1.095 -1.528,-1.956 -0.051,-2.24 1.54,-0.333 2.81,-0.809 4.316,-1.464 1.486,-0.421 2.128,-3.602 -0.059,-2.62 -0.859,1.365 -3.887,2.012 -3.383,-0.141 0.635,-1.831 2.633,-2.656 3.521,-4.195 0.863,-1.223 2.06,-2.085 2.581,-3.393 1.099,-2.306 -2.072,-1.447 -3.336,-1.907 -1.315,0.113 -3.981,-1.936 -4.39,-0.112 1.047,1.396 3.03,1.468 4.226,2.643 2.062,0.507 -0.51,2.81 -1.563,1.127 -0.739,-0.571 -3.086,-1.113 -2.642,0.471 0.304,0.985 0.02,1.955 -1.275,1.626 -1.538,-0.416 -1.649,-2.661 -2.106,-4.046 -0.338,-1.834 -1.04,-3.427 -0.968,-5.389 0.54,-1.85 0.283,-4.225 1.71,-5.801 0.85,-1.726 3.948,0.475 2.745,1.844 0.101,1.653 2.809,1.907 4.271,1.999 1.576,-0.244 4.175,2.881 1.294,2.469 -0.968,0.299 -3.335,-0.858 -3.479,0.018 1.393,0.65 2.564,1.071 4.041,1.498 1.29,0.712 3.282,1.109 3.239,-1.046 0.639,-1.555 -0.004,-3.419 -1.172,-4.29 -1.927,-0.477 -3.672,0.718 -5.569,0.164 -1.94,-0.717 -1.277,-4.017 -1.068,-5.434 0.653,-1.71 2.54,-2.087 4.24,-2.265 2.151,-0.271 4.323,-0.201 6.485,-0.272 1.316,-0.932 4.027,1.261 1.9,2.164 -2.821,0.248 -5.742,-0.255 -8.492,0.557 -1.51,0.288 -1.987,3.295 0.203,2.412 1.947,0.239 3.86,-1.267 5.767,-0.324 0.96,1.377 0.162,3.396 0.414,5.03 -0.469,1.742 -0.78,3.751 -1.58,5.339 -0.013,1.492 -1.258,2.826 -1.8,4.318 -1.579,1.711 0.625,3.171 2.261,3.411 2.247,0.216 4.704,0.688 6.854,-0.072 2.063,-0.426 4.123,-1.193 6.099,-1.69 1.217,0.674 1.169,3.15 -0.531,3.285 -2.216,0.783 0.817,2.419 1.885,2.785 1.714,0.657 4.035,0.213 5.339,1.616 -1.368,0.665 -2.713,1.946 -4.535,1.038 -1.977,-0.158 -3.929,-0.77 -5.472,-2.008 -0.211,-1.205 -2.601,-3.281 -2.583,-0.942 0.527,1.612 0.222,3.75 1.735,4.897 3.179,1.152 6.623,0.374 9.895,0.902 1.926,-0.18 2.643,1.59 0.934,2.521 -2.127,0.243 -4.23,-0.516 -6.403,-0.281 -1.991,-0.067 -3.799,-0.063 -5.645,-0.25 -2.145,0.358 -4.277,-0.604 -6.461,-0.084 -3.128,0.249 -6.268,0.171 -9.399,0.347 -1.139,0.518 -2.479,0.656 -3.708,0.792 z m 14.936,-3.943 c 1.114,-0.033 2.766,0.441 2.052,-1.267 -0.585,-1.415 -0.201,-4.118 -2.185,-4.366 -1.267,1.501 -1.395,3.742 -2.322,5.5 0.794,0.272 1.639,0.058 2.455,0.133 z m 15.756,-9.429 c -1.814,0.207 -1.311,-2.58 -2.74,-3.288 -1.633,-0.172 -3.075,0.899 -4.685,0.896 -1.464,0.361 -3.145,0.479 -4.864,0.58 -1.834,0.443 -4.265,-0.465 -4.925,-1.812 1.859,-0.911 4.063,-0.843 6.083,-1.186 2.109,-0.245 4.153,-0.507 6.164,-1.156 1.701,-1.483 -1.829,-0.993 -2.679,-1.011 -2.828,0.036 -5.614,0.583 -8.445,0.592 -1.31,-1.555 1.353,-2.16 2.51,-2.274 2.131,-0.307 4.232,-0.858 6.415,-0.728 1.633,-0.049 3.317,0.239 4.918,-0.109 0.818,-1.774 -2.407,-0.73 -3.41,-0.878 -2.18,-0.144 -4.39,-0.307 -6.567,-0.123 -1.388,0.174 -3.22,1.358 -4.377,0.227 -1.531,-1.131 -0.324,-3.808 1.607,-3.001 1.652,0.302 2.483,-0.355 4.082,-0.253 0.664,-0.142 1.668,0.313 2.07,-0.286 -0.346,-2.337 1.784,-3.458 3.564,-4.391 1.495,-1.659 -2.001,-1.374 -2.945,-1.107 -2.252,-0.308 -1.725,2.259 -2.766,3.38 -0.71,0.788 -1.936,1.547 -1.547,-0.102 -0.058,-2.693 -0.116,-5.386 -0.175,-8.079 0.392,-1.417 2.246,-3.589 3.507,-1.543 1.011,1.179 -1.453,3.704 1.307,3.296 1.651,0.233 3.247,-0.51 4.816,-0.471 2.123,0.312 1.866,2.539 1.365,4.056 -0.124,1.561 -0.823,3.571 -2.832,3.442 -2.121,0.467 -0.748,2.63 0.898,2.404 1.612,-0.23 3.458,-0.172 3.737,1.766 1.139,2.1 -1.041,4.366 -0.24,6.413 -0.089,1.61 1.759,2.875 1.461,4.358 -0.356,0.299 -0.852,0.391 -1.307,0.388 z"
         id="path2-3" />
      <path
         style="fill:#c83771"
         d="m -14.184606,47.199105 c -1.814,0.207 -1.311,-2.58 -2.74,-3.288 -1.633,-0.172 -3.075,0.899 -4.685,0.896 -1.464,0.361 -3.145,0.479 -4.864,0.58 -1.834,0.443 -4.265,-0.465 -4.925,-1.812 1.859,-0.911 4.063,-0.843 6.083,-1.186 2.109,-0.245 4.153,-0.507 6.164,-1.156 1.701,-1.483 -1.829,-0.993 -2.679,-1.011 -2.828,0.036 -5.614,0.583 -8.445,0.592 -1.31,-1.555 1.353,-2.16 2.51,-2.274 2.131,-0.307 4.232,-0.858 6.415,-0.728 1.633,-0.049 3.317,0.239 4.918,-0.109 0.818,-1.774 -2.407,-0.73 -3.41,-0.878 -2.18,-0.144 -4.39,-0.307 -6.567,-0.123 -1.388,0.174 -3.22,1.358 -4.377,0.227 -1.531,-1.131 -0.324,-3.808 1.607,-3.001 1.652,0.302 2.483,-0.355 4.082,-0.253 0.664,-0.142 1.668,0.313 2.07,-0.286 -0.346,-2.337 1.784,-3.458 3.564,-4.391 1.495,-1.659 -2.001,-1.374 -2.945,-1.107 -2.252,-0.308 -1.725,2.259 -2.766,3.38 -0.71,0.788 -1.936,1.547 -1.547,-0.102 -0.058,-2.693 -0.116,-5.386 -0.175,-8.079 0.392,-1.417 2.246,-3.589 3.507,-1.543 1.011,1.179 -1.453,3.704 1.307,3.296 1.651,0.233 3.247,-0.51 4.816,-0.471 2.123,0.312 1.866,2.539 1.365,4.056 -0.124,1.561 -0.823,3.571 -2.832,3.442 -2.121,0.467 -0.748,2.63 0.898,2.404 1.612,-0.23 3.458,-0.172 3.737,1.766 1.139,2.1 -1.041,4.366 -0.24,6.413 -0.089,1.61 1.759,2.875 1.461,4.358 -0.356,0.299 -0.852,0.391 -1.307,0.388 z"
         id="path3-6" />
      <path
         style="fill:#c83771"
         d="m -44.876606,60.571105 c -1.379,0.597 -3.456,-0.855 -1.871,-1.94 1.969,-1.389 4.67,-0.911 6.967,-1.307 1.823,-0.061 4.122,-0.083 4.96,-2.006 1.056,-1.269 2.539,-4.393 -0.036,-4.638 -1.051,1.008 -1.773,3.435 -3.778,3.278 -1.056,1.049 -3.097,0.887 -4.527,1.606 -1.684,1.095 -1.528,-1.956 -0.051,-2.24 1.54,-0.333 2.81,-0.809 4.316,-1.464 1.486,-0.421 2.128,-3.602 -0.059,-2.62 -0.859,1.365 -3.887,2.012 -3.383,-0.141 0.635,-1.831 2.633,-2.656 3.521,-4.195 0.863,-1.223 2.06,-2.085 2.581,-3.393 1.099,-2.306 -2.072,-1.447 -3.336,-1.907 -1.315,0.113 -3.981,-1.936 -4.39,-0.112 1.047,1.396 3.03,1.468 4.226,2.643 2.062,0.507 -0.51,2.81 -1.563,1.127 -0.739,-0.571 -3.086,-1.113 -2.642,0.471 0.304,0.985 0.02,1.955 -1.275,1.626 -1.538,-0.416 -1.649,-2.661 -2.106,-4.046 -0.338,-1.834 -1.04,-3.427 -0.968,-5.389 0.54,-1.85 0.283,-4.225 1.71,-5.801 0.85,-1.726 3.948,0.475 2.745,1.844 0.101,1.653 2.809,1.907 4.271,1.999 1.576,-0.244 4.175,2.881 1.294,2.469 -0.968,0.299 -3.335,-0.858 -3.479,0.018 1.393,0.65 2.564,1.071 4.041,1.498 1.29,0.712 3.282,1.109 3.239,-1.046 0.639,-1.555 -0.004,-3.419 -1.172,-4.29 -1.927,-0.477 -3.672,0.718 -5.569,0.164 -1.94,-0.717 -1.277,-4.017 -1.068,-5.434 0.653,-1.71 2.54,-2.087 4.24,-2.265 2.151,-0.271 4.323,-0.201 6.485,-0.272 1.316,-0.932 4.027,1.261 1.9,2.164 -2.821,0.248 -5.742,-0.255 -8.492,0.557 -1.51,0.288 -1.987,3.295 0.203,2.412 1.947,0.239 3.86,-1.267 5.767,-0.324 0.96,1.377 0.162,3.396 0.414,5.03 -0.469,1.742 -0.78,3.751 -1.58,5.339 -0.013,1.492 -1.258,2.826 -1.8,4.318 -1.579,1.711 0.625,3.171 2.261,3.411 2.247,0.216 4.704,0.688 6.854,-0.072 2.063,-0.426 4.123,-1.193 6.099,-1.69 1.217,0.674 1.169,3.15 -0.531,3.285 -2.216,0.783 0.817,2.419 1.885,2.785 1.714,0.657 4.035,0.213 5.339,1.616 -1.368,0.665 -2.713,1.946 -4.535,1.038 -1.977,-0.158 -3.929,-0.77 -5.472,-2.008 -0.211,-1.205 -2.601,-3.281 -2.583,-0.942 0.527,1.612 0.222,3.75 1.735,4.897 3.179,1.152 6.623,0.374 9.895,0.902 1.926,-0.18 2.643,1.59 0.934,2.521 -2.127,0.243 -4.23,-0.516 -6.403,-0.281 -1.991,-0.067 -3.799,-0.063 -5.645,-0.25 -2.145,0.358 -4.277,-0.604 -6.461,-0.084 -3.128,0.249 -6.268,0.171 -9.399,0.347 -1.139,0.518 -2.479,0.656 -3.708,0.792 z m 14.936,-3.943 c 1.114,-0.033 2.766,0.441 2.052,-1.267 -0.585,-1.415 -0.201,-4.118 -2.185,-4.366 -1.267,1.501 -1.395,3.742 -2.322,5.5 0.794,0.272 1.639,0.058 2.455,0.133 z"
         id="path4-7" />
      <path
         style="opacity:0.2;fill:#ffffff"
         d="m -24.682606,20.714105 c -0.984,0.072 -1.946,1.403 -2.215,2.377 0.007,0.315 0.015,0.63 0.022,0.945 0.422,-1.417 2.24,-3.51 3.486,-1.49 0.093,0.108 0.147,0.23 0.188,0.357 0.095,-0.496 0.126,-0.992 -0.188,-1.357 -0.394,-0.639 -0.846,-0.865 -1.293,-0.832 z m 7.416,3.658 c -1.569,-0.039 -3.165,0.704 -4.816,0.471 -0.759,0.112 -1.116,-0.002 -1.266,-0.244 -0.188,0.82 -0.229,1.465 1.266,1.244 1.651,0.233 3.247,-0.51 4.816,-0.471 1.096,0.161 1.555,0.834 1.676,1.654 0.137,-1.224 -0.155,-2.43 -1.676,-2.654 z m -13.441,0.213 c -0.304,-0.016 -0.599,0.048 -0.846,0.223 -2.162,0.07 -4.334,0.002 -6.484,0.273 -1.701,0.178 -3.587,0.554 -4.24,2.264 -0.109,0.738 -0.339,1.986 -0.262,3.115 0.047,-0.812 0.184,-1.592 0.262,-2.115 0.653,-1.71 2.539,-2.086 4.24,-2.264 2.15,-0.271 4.322,-0.203 6.484,-0.273 0.783,-0.556 2.055,-0.001 2.512,0.728 0.617,-0.793 -0.573,-1.894 -1.666,-1.951 z m 11.318,4.316 c -0.027,0.033 -0.043,0.062 -0.074,0.096 -1.779,0.934 -3.911,2.056 -3.564,4.393 -0.403,0.599 -1.407,0.143 -2.071,0.285 -1.599,-0.102 -2.428,0.556 -4.08,0.254 -1.518,-0.635 -2.582,0.881 -2.228,2.109 0.248,-0.884 1.117,-1.574 2.228,-1.109 1.652,0.302 2.481,-0.356 4.08,-0.254 0.664,-0.142 1.668,0.314 2.071,-0.285 -0.347,-2.337 1.785,-3.459 3.564,-4.393 0.513,-0.569 0.432,-0.905 0.074,-1.096 z m -14.219,0.403 c -1.433,0.014 -2.873,0.816 -4.333,0.636 -0.781,0.315 -1.218,0.132 -1.395,-0.242 -0.288,0.861 0.05,1.784 1.395,1.242 1.946,0.239 3.86,-1.267 5.767,-0.324 0.312,0.448 0.428,0.966 0.465,1.514 0.056,-0.914 0.032,-1.801 -0.465,-2.514 -0.477,-0.235 -0.956,-0.317 -1.434,-0.312 z m -12.015,0.187 c -0.391,0.015 -0.745,0.2 -0.957,0.631 -1.427,1.577 -1.17,3.953 -1.709,5.803 -0.012,0.31 10e-4,0.608 0.023,0.902 0.505,-1.836 0.283,-4.155 1.686,-5.705 0.616,-1.251 2.406,-0.436 2.89,0.627 0.544,-1.007 -0.84,-2.3 -1.933,-2.258 z m 1.994,3.114 c -0.044,0.124 -0.104,0.245 -0.205,0.361 0.101,1.653 2.808,1.908 4.269,2 0.819,-0.127 1.908,0.653 2.368,1.377 0.88,-0.537 -1.083,-2.576 -2.368,-2.377 -0.198,-0.013 -0.423,-0.029 -0.658,-0.051 -0.302,-0.007 -0.606,-0.036 -0.914,-0.119 -1.023,-0.168 -2.062,-0.495 -2.492,-1.191 z m 23.971,0.789 c -0.56,0.792 0.545,2.056 1.824,1.88 1.611,-0.229 3.457,-0.171 3.736,1.766 0.163,0.3 0.252,0.604 0.297,0.91 0.083,-0.644 0.042,-1.284 -0.297,-1.91 -0.279,-1.937 -2.125,-1.995 -3.736,-1.766 -0.792,0.109 -1.517,-0.338 -1.824,-0.88 z m -14.6,2.662 c -0.037,0.287 -0.098,0.574 -0.211,0.849 0.043,2.155 -1.95,1.757 -3.24,1.045 -0.622,-0.18 -1.185,-0.361 -1.738,-0.556 -1.032,-0.184 -2.203,-0.549 -2.303,0.06 1.393,0.649 2.565,1.07 4.041,1.496 1.29,0.712 3.283,1.11 3.24,-1.045 0.245,-0.596 0.3,-1.236 0.211,-1.849 z m 17.598,1.687 c -1.533,0.276 -3.134,0.022 -4.69,0.069 -2.182,-0.13 -4.284,0.421 -6.414,0.728 -1.091,0.107 -3.519,0.652 -2.693,2.018 0.488,-0.647 1.923,-0.942 2.693,-1.018 2.13,-0.307 4.232,-0.858 6.414,-0.728 1.633,-0.049 3.317,0.24 4.918,-0.108 0.256,-0.554 0.117,-0.834 -0.226,-0.961 -0.001,0 -0.002,0 -0.002,0 z m -26.936,2.151 c -0.169,0.117 -0.299,0.302 -0.365,0.597 1.047,1.397 3.029,1.469 4.225,2.643 0.238,0.058 0.409,0.142 0.533,0.24 0.381,-0.428 0.389,-1.013 -0.533,-1.24 -1.069,-1.049 -2.764,-1.22 -3.86,-2.24 z m 24.436,1.341 c -2.009,0.648 -4.048,0.91 -6.155,1.155 -2.019,0.343 -4.225,0.274 -6.084,1.185 0.133,0.271 0.34,0.522 0.596,0.75 1.724,-0.646 3.68,-0.628 5.488,-0.935 2.11,-0.245 4.152,-0.507 6.163,-1.157 0.698,-0.608 0.51,-0.882 -0.008,-0.998 z m -16.983,0.039 c -0.029,0.078 -0.053,0.151 -0.093,0.237 -0.522,1.308 -1.718,2.169 -2.58,3.392 -0.889,1.54 -2.886,2.364 -3.522,4.196 -0.091,0.388 -0.064,0.682 0.041,0.9 0.673,-1.76 2.609,-2.585 3.481,-4.096 0.862,-1.223 2.058,-2.084 2.58,-3.392 0.287,-0.602 0.279,-0.986 0.093,-1.237 z m 21.664,0.62 c -0.072,0.529 -0.058,1.051 0.141,1.56 -0.069,1.257 1.037,2.303 1.387,3.406 0.024,-0.017 0.051,-0.029 0.074,-0.048 0.298,-1.483 -1.55,-2.748 -1.461,-4.358 -0.072,-0.185 -0.112,-0.372 -0.141,-0.56 z m -5.449,4.058 c -1.975,0.497 -4.034,1.266 -6.097,1.692 -2.151,0.76 -4.609,0.286 -6.856,0.07 -1.055,-0.155 -2.339,-0.819 -2.699,-1.729 -0.545,1.404 1.286,2.522 2.699,2.729 2.247,0.216 4.705,0.69 6.856,-0.07 2.063,-0.426 4.122,-1.195 6.097,-1.692 0.408,0.226 0.67,0.655 0.779,1.129 0.194,-0.785 -0.089,-1.747 -0.779,-2.129 z m -17.705,4.465 c -0.187,0.627 -0.651,1.27 -1.264,1.443 -1.505,0.655 -2.775,1.13 -4.316,1.463 -0.942,0.181 -1.343,1.484 -1.076,2.123 0.155,-0.52 0.522,-1.016 1.076,-1.123 1.541,-0.333 2.811,-0.808 4.316,-1.463 0.98,-0.277 1.587,-1.75 1.264,-2.443 z m 16.637,0.107 c -1.027,0.841 1.473,2.173 2.424,2.499 1.415,0.542 3.239,0.337 4.568,1.037 0.258,-0.15 0.513,-0.296 0.77,-0.42 -1.305,-1.404 -3.624,-0.96 -5.338,-1.617 -0.617,-0.212 -1.887,-0.848 -2.424,-1.499 z m -4.738,1.549 c -0.059,0.163 -0.092,0.376 -0.09,0.655 0.527,1.612 0.221,3.749 1.734,4.896 3.179,1.152 6.624,0.375 9.897,0.902 0.889,-0.083 1.515,0.251 1.769,0.725 0.446,-0.886 -0.316,-1.861 -1.769,-1.725 -3.273,-0.527 -6.718,0.25 -9.897,-0.902 -1.408,-1.068 -1.249,-2.989 -1.644,-4.551 z m -7.752,0.58 c -0.191,0.961 -0.813,2.038 -1.334,2.664 -0.838,1.924 -3.137,1.945 -4.959,2.006 -2.297,0.396 -5,-0.082 -6.969,1.307 -0.658,0.45 -0.679,0.963 -0.387,1.367 0.092,-0.124 0.213,-0.248 0.387,-0.367 1.969,-1.389 4.672,-0.911 6.969,-1.307 1.822,-0.061 4.121,-0.082 4.959,-2.006 0.716,-0.861 1.625,-2.573 1.334,-3.664 z m 5.627,3.787 c -0.362,0.366 -1.339,0.166 -2.081,0.188 -0.681,-0.062 -1.383,0.072 -2.058,-0.039 -0.118,0.311 -0.244,0.616 -0.397,0.906 0.794,0.272 1.639,0.058 2.455,0.133 1.095,-0.033 2.705,0.42 2.081,-1.188 z"
         id="path5-5" />
    </g>
  </g>
</svg>
