<?xml version="1.0" encoding="UTF-8" standalone="no"?>
<svg
   width="62"
   height="62"
   version="1"
   id="svg6"
   sodipodi:docname="systach.svg"
   inkscape:version="1.4 (unknown)"
   xmlns:inkscape="http://www.inkscape.org/namespaces/inkscape"
   xmlns:sodipodi="http://sodipodi.sourceforge.net/DTD/sodipodi-0.dtd"
   xmlns:xlink="http://www.w3.org/1999/xlink"
   xmlns="http://www.w3.org/2000/svg"
   xmlns:svg="http://www.w3.org/2000/svg">
  <defs
     id="defs6">
    <linearGradient
       id="linearGradient6"
       inkscape:collect="always">
      <stop
         style="stop-color:#4295ac;stop-opacity:1;"
         offset="0"
         id="stop6" />
      <stop
         style="stop-color:#5f8dd3;stop-opacity:1"
         offset="1"
         id="stop7" />
    </linearGradient>
    <linearGradient
       inkscape:collect="always"
       xlink:href="#linearGradient6"
       id="linearGradient7"
       x1="-58.050835"
       y1="-30.5"
       x2="-3"
       y2="-30.5"
       gradientUnits="userSpaceOnUse" />
  </defs>
  <sodipodi:namedview
     id="namedview6"
     pagecolor="#ffffff"
     bordercolor="#000000"
     borderopacity="0.25"
     inkscape:showpageshadow="2"
     inkscape:pageopacity="0.0"
     inkscape:pagecheckerboard="0"
     inkscape:deskcolor="#d1d1d1"
     inkscape:zoom="6.0390625"
     inkscape:cx="37.67141"
     inkscape:cy="46.613195"
     inkscape:window-width="1920"
     inkscape:window-height="996"
     inkscape:window-x="0"
     inkscape:window-y="0"
     inkscape:window-maximized="1"
     inkscape:current-layer="svg6" />
  <g
     id="g6"
     transform="translate(0.5)">
    <rect
       style="opacity:0.2;stroke-width:0.948713"
       width="55.050835"
       height="55"
       x="-59"
       y="-58"
       rx="27.525417"
       ry="27.5"
       transform="matrix(0,-1,-1,0,0,0)"
       id="rect1" />
    <rect
       style="fill:url(#linearGradient7);stroke-width:0.948713"
       width="55.050835"
       height="55"
       x="-58.050835"
       y="-58"
       rx="27.525417"
       ry="27.5"
       transform="matrix(0,-1,-1,0,0,0)"
       id="rect2" />
    <path
       style="opacity:0.1;stroke-width:0.948713"
       d="m 19.498517,17.711862 6.774987,11.623408 a 4.7413789,4.7457612 0 0 0 -0.514886,2.139303 4.7413789,4.7457612 0 0 0 4.741375,4.745757 4.7413789,4.7457612 0 0 0 4.741385,-4.745757 4.7413789,4.7457612 0 0 0 -4.741385,-4.745769 4.7413789,4.7457612 0 0 0 -0.892707,0.08895 z"
       id="path2" />
    <path
       style="fill:#233143;stroke-width:0.948713;fill-opacity:1"
       d="M 19.499993,16.762711 29.124998,33.277955 33.249996,29.149144 19.499993,16.762375 Z"
       id="path3" />
    <ellipse
       style="fill:#233143;stroke-width:0.948713;fill-opacity:1"
       cx="30.5"
       cy="30.525417"
       id="circle3"
       rx="4.7413821"
       ry="4.7457643" />
    <path
       style="opacity:0.2;stroke-width:0.948713"
       d="m 30.499993,7.7457612 a 2.8448293,2.8474587 0 0 0 -2.844824,2.8474608 2.8448293,2.8474587 0 0 0 2.844824,2.847453 2.8448293,2.8474587 0 0 0 2.844836,-2.847453 2.8448293,2.8474587 0 0 0 -2.844836,-2.8474608 z M 18.17241,11.542374 a 2.8448268,2.8474562 0 0 0 -2.844827,2.847452 2.8448268,2.8474562 0 0 0 2.844827,2.847455 2.8448268,2.8474562 0 0 0 2.844834,-2.847455 2.8448268,2.8474562 0 0 0 -2.844834,-2.847452 z m 24.655179,0 a 2.8448268,2.8474562 0 0 0 -2.844837,2.847452 2.8448268,2.8474562 0 0 0 2.844837,2.847455 2.8448268,2.8474562 0 0 0 2.844823,-2.847455 2.8448268,2.8474562 0 0 0 -2.844823,-2.847452 z M 10.58621,20.084746 A 2.8448268,2.8474562 0 0 0 7.7413789,22.9322 2.8448268,2.8474562 0 0 0 10.58621,25.779653 2.8448268,2.8474562 0 0 0 13.431034,22.9322 2.8448268,2.8474562 0 0 0 10.58621,20.084746 Z m 39.827579,0 A 2.8448268,2.8474562 0 0 0 47.568962,22.9322 2.8448268,2.8474562 0 0 0 50.413789,25.779653 2.8448268,2.8474562 0 0 0 53.258621,22.9322 2.8448268,2.8474562 0 0 0 50.413789,20.084746 Z M 9.6379309,31.474573 A 2.8448268,2.8474562 0 0 0 6.7931027,34.322027 2.8448268,2.8474562 0 0 0 9.6379309,37.169482 2.8448268,2.8474562 0 0 0 12.48276,34.322027 2.8448268,2.8474562 0 0 0 9.6379309,31.474573 Z m 41.7241321,0 a 2.8448268,2.8474562 0 0 0 -2.844826,2.847454 2.8448268,2.8474562 0 0 0 2.844826,2.847455 2.8448268,2.8474562 0 0 0 2.844834,-2.847455 2.8448268,2.8474562 0 0 0 -2.844834,-2.847454 z M 14.379308,41.91524 a 2.8448268,2.8474562 0 0 0 -2.844822,2.847463 2.8448268,2.8474562 0 0 0 2.844822,2.847453 2.8448268,2.8474562 0 0 0 2.844826,-2.847453 2.8448268,2.8474562 0 0 0 -2.844826,-2.847463 z m 32.24138,0 a 2.8448268,2.8474562 0 0 0 -2.844824,2.847463 2.8448268,2.8474562 0 0 0 2.844824,2.847453 2.8448268,2.8474562 0 0 0 2.844824,-2.847453 2.8448268,2.8474562 0 0 0 -2.844824,-2.847463 z"
       id="path4" />
    <path
       style="fill:#f2f2f2;stroke-width:0.948713;fill-opacity:1"
       d="M 30.499993,6.7966085 A 2.8448293,2.8474587 0 0 0 27.655169,9.6440661 2.8448293,2.8474587 0 0 0 30.499993,12.491525 2.8448293,2.8474587 0 0 0 33.344829,9.6440661 2.8448293,2.8474587 0 0 0 30.499993,6.7966085 Z M 18.17241,10.593222 a 2.8448268,2.8474562 0 0 0 -2.844827,2.847453 2.8448268,2.8474562 0 0 0 2.844827,2.847455 2.8448268,2.8474562 0 0 0 2.844834,-2.847455 2.8448268,2.8474562 0 0 0 -2.844834,-2.847453 z m 24.655179,0 a 2.8448268,2.8474562 0 0 0 -2.844837,2.847453 2.8448268,2.8474562 0 0 0 2.844837,2.847455 2.8448268,2.8474562 0 0 0 2.844823,-2.847455 2.8448268,2.8474562 0 0 0 -2.844823,-2.847453 z M 10.58621,19.135583 a 2.8448268,2.8474562 0 0 0 -2.8448311,2.847465 2.8448268,2.8474562 0 0 0 2.8448311,2.847456 2.8448268,2.8474562 0 0 0 2.844824,-2.847456 2.8448268,2.8474562 0 0 0 -2.844824,-2.847465 z m 39.827579,0 a 2.8448268,2.8474562 0 0 0 -2.844827,2.847465 2.8448268,2.8474562 0 0 0 2.844827,2.847456 2.8448268,2.8474562 0 0 0 2.844832,-2.847456 2.8448268,2.8474562 0 0 0 -2.844832,-2.847465 z M 9.6379309,30.52541 A 2.8448268,2.8474562 0 0 0 6.7931027,33.372876 2.8448268,2.8474562 0 0 0 9.6379309,36.22033 2.8448268,2.8474562 0 0 0 12.48276,33.372876 2.8448268,2.8474562 0 0 0 9.6379309,30.52541 Z m 41.7241321,0 a 2.8448268,2.8474562 0 0 0 -2.844826,2.847466 2.8448268,2.8474562 0 0 0 2.844826,2.847454 2.8448268,2.8474562 0 0 0 2.844834,-2.847454 2.8448268,2.8474562 0 0 0 -2.844834,-2.847466 z M 14.379308,40.966085 a 2.8448268,2.8474562 0 0 0 -2.844822,2.847467 2.8448268,2.8474562 0 0 0 2.844822,2.847453 2.8448268,2.8474562 0 0 0 2.844826,-2.847453 2.8448268,2.8474562 0 0 0 -2.844826,-2.847467 z m 32.24138,0 a 2.8448268,2.8474562 0 0 0 -2.844824,2.847467 2.8448268,2.8474562 0 0 0 2.844824,2.847453 2.8448268,2.8474562 0 0 0 2.844824,-2.847453 2.8448268,2.8474562 0 0 0 -2.844824,-2.847467 z"
       id="path5" />
    <path
       style="opacity:0.2;fill:#ffffff;stroke-width:0.948713"
       d="M 30.499993,3 C 15.265,3 3,15.276336 3,30.52541 3,30.63064 3.010886,30.733175 3.016665,30.836854 3.3542959,15.88587 15.478816,3.9491525 30.499993,3.9491525 c 15.021189,0 27.145706,11.9367175 27.483337,26.8877015 0.006,-0.103679 0.01666,-0.206214 0.01666,-0.311444 C 57.999995,15.276336 45.734997,3 30.499993,3 Z"
       id="path6" />
  </g>
</svg>
