<?xml version="1.0" encoding="UTF-8" standalone="no"?>
<svg
   width="62"
   height="62"
   version="1.1"
   id="svg13"
   sodipodi:docname="ubuntustudio-controls.svg"
   inkscape:version="1.4 (unknown)"
   xmlns:inkscape="http://www.inkscape.org/namespaces/inkscape"
   xmlns:sodipodi="http://sodipodi.sourceforge.net/DTD/sodipodi-0.dtd"
   xmlns="http://www.w3.org/2000/svg"
   xmlns:svg="http://www.w3.org/2000/svg">
  <defs
     id="defs13" />
  <sodipodi:namedview
     id="namedview13"
     pagecolor="#ffffff"
     bordercolor="#000000"
     borderopacity="0.25"
     inkscape:showpageshadow="2"
     inkscape:pageopacity="0.0"
     inkscape:pagecheckerboard="0"
     inkscape:deskcolor="#d1d1d1"
     inkscape:zoom="12.078125"
     inkscape:cx="31.958603"
     inkscape:cy="32"
     inkscape:window-width="1920"
     inkscape:window-height="996"
     inkscape:window-x="0"
     inkscape:window-y="0"
     inkscape:window-maximized="1"
     inkscape:current-layer="svg13" />
  <g
     id="g14"
     transform="matrix(0.98214286,0,0,0.98245614,-0.42857152,-0.92982455)">
    <circle
       style="opacity:0.2"
       cx="32"
       cy="33"
       r="28"
       id="circle1" />
    <g
       id="g13">
      <circle
         style="fill:#2d3d53;fill-opacity:1"
         cx="32"
         cy="32"
         r="28"
         id="circle2" />
      <g
         style="opacity:0.2;fill:none;stroke:#000000;stroke-width:4;stroke-linecap:round"
         transform="translate(0,1.0003)"
         id="g7">
        <circle
           cx="32"
           cy="32"
           r="6"
           id="circle3" />
        <path
           d="M 22.015,22.187 A 14,14 0 0 1 37.301,19.043 14,14 0 0 1 46,32 14,14 0 0 1 37.301,44.958 14,14 0 0 1 22.015,41.813"
           id="path3" />
        <path
           d="m 10.852,38.065 a 22,22 0 0 1 0,-12.128"
           id="path4" />
        <path
           d="M 36.949,10.564 A 22,22 0 0 1 48.09,16.996"
           id="path5" />
        <path
           d="M 48.09,47.004 A 22,22 0 0 1 36.949,53.436"
           id="path6" />
        <path
           d="m 18.612,36.093 a 14,14 0 0 1 -0.07,-7.951"
           id="path7" />
      </g>
      <g
         style="fill:none;stroke:#ffffff;stroke-width:4;stroke-linecap:round"
         id="g12">
        <circle
           cx="32"
           cy="32"
           r="6"
           id="circle7" />
        <path
           d="M 22.015,22.187 A 14,14 0 0 1 37.301,19.043 14,14 0 0 1 46,32 14,14 0 0 1 37.301,44.958 14,14 0 0 1 22.015,41.813"
           id="path8" />
        <path
           d="m 10.852,38.065 a 22,22 0 0 1 0,-12.128"
           id="path9" />
        <path
           d="M 36.949,10.564 A 22,22 0 0 1 48.09,16.996"
           id="path10" />
        <path
           d="M 48.09,47.004 A 22,22 0 0 1 36.949,53.436"
           id="path11" />
        <path
           d="m 18.612,36.093 a 14,14 0 0 1 -0.07,-7.952"
           id="path12" />
      </g>
      <path
         style="opacity:0.1;fill:#ffffff"
         d="M 32,4 A 28,28 0 0 0 4,32 28,28 0 0 0 4.0215,32.586 28,28 0 0 1 32,5 28,28 0 0 1 59.979,32.414 28,28 0 0 0 60,32 28,28 0 0 0 32,4 Z"
         id="path13" />
    </g>
  </g>
</svg>
