<?xml version="1.0" encoding="UTF-8" standalone="no"?>
<svg
   width="62"
   height="62"
   version="1"
   id="svg4"
   sodipodi:docname="umlet_logo.svg"
   inkscape:version="1.4 (unknown)"
   xmlns:inkscape="http://www.inkscape.org/namespaces/inkscape"
   xmlns:sodipodi="http://sodipodi.sourceforge.net/DTD/sodipodi-0.dtd"
   xmlns:xlink="http://www.w3.org/1999/xlink"
   xmlns="http://www.w3.org/2000/svg"
   xmlns:svg="http://www.w3.org/2000/svg">
  <defs
     id="defs4">
    <linearGradient
       id="linearGradient5"
       inkscape:collect="always">
      <stop
         style="stop-color:#d5d5ff;stop-opacity:1"
         offset="0"
         id="stop5" />
      <stop
         style="stop-color:#f4d7e3;stop-opacity:1"
         offset="1"
         id="stop6" />
    </linearGradient>
    <linearGradient
       inkscape:collect="always"
       xlink:href="#linearGradient5"
       id="linearGradient6"
       x1="32"
       y1="48"
       x2="32"
       y2="17"
       gradientUnits="userSpaceOnUse" />
  </defs>
  <sodipodi:namedview
     id="namedview4"
     pagecolor="#ffffff"
     bordercolor="#000000"
     borderopacity="0.25"
     inkscape:showpageshadow="2"
     inkscape:pageopacity="0.0"
     inkscape:pagecheckerboard="0"
     inkscape:deskcolor="#d1d1d1"
     inkscape:zoom="10"
     inkscape:cx="36.35"
     inkscape:cy="34.05"
     inkscape:window-width="1920"
     inkscape:window-height="996"
     inkscape:window-x="0"
     inkscape:window-y="0"
     inkscape:window-maximized="1"
     inkscape:current-layer="svg4" />
  <g
     id="g5"
     transform="translate(-1,-1.5)">
    <g
       id="g4">
      <rect
         style="opacity:0.2"
         width="52"
         height="52"
         x="-59"
         y="-58"
         rx="26"
         ry="26"
         transform="matrix(0,-1,-1,0,0,0)"
         id="rect1" />
      <rect
         style="fill:#c83771"
         width="52"
         height="52"
         x="-58"
         y="-58"
         rx="26"
         ry="26"
         transform="matrix(0,-1,-1,0,0,0)"
         id="rect2" />
      <path
         style="opacity:0.1;fill:#ffffff"
         d="M 32,6 C 17.596,6 6,17.596 6,32 6,32.110902 6.011614,32.218872 6.017578,32.328125 6.3726961,18.238147 17.821398,7 32,7 46.178602,7 57.627304,18.238147 57.982422,32.328125 57.988386,32.218872 58,32.110902 58,32 58,17.596 46.404,6 32,6 Z"
         id="path2" />
      <circle
         style="opacity:0.2"
         cx="32"
         cy="33"
         r="16"
         id="circle2" />
      <circle
         style="fill:url(#linearGradient6)"
         cx="32"
         cy="32"
         r="16"
         id="circle3" />
      <rect
         style="opacity:0.2"
         width="60"
         height="12"
         x="2"
         y="27"
         rx="2.8570001"
         ry="3"
         id="rect3" />
      <rect
         style="fill:#5555ff"
         width="60"
         height="12"
         x="2"
         y="26"
         rx="2.8570001"
         ry="3"
         id="rect4" />
    </g>
  </g>
  <text
     xml:space="preserve"
     style="font-size:15.3869px;font-family:'Blush Asliring';-inkscape-font-specification:'Blush Asliring';text-align:start;writing-mode:lr-tb;direction:ltr;text-anchor:start;fill:#ffffff;fill-opacity:1;stroke:#ffffff;stroke-width:0;stroke-linecap:round;stroke-linejoin:round;stroke-dasharray:none;paint-order:fill markers stroke;stroke-opacity:1"
     x="8.588995"
     y="35.640102"
     id="text5"><tspan
       sodipodi:role="line"
       id="tspan5"
       x="8.588995"
       y="35.640102"
       style="stroke-width:0;stroke:#ffffff;stroke-opacity:1">UMLet</tspan></text>
</svg>
