<?xml version="1.0" encoding="UTF-8" standalone="no"?>
<svg
   width="62"
   height="62"
   version="1"
   id="svg5"
   sodipodi:docname="ums.svg"
   inkscape:version="1.4 (unknown)"
   xmlns:inkscape="http://www.inkscape.org/namespaces/inkscape"
   xmlns:sodipodi="http://sodipodi.sourceforge.net/DTD/sodipodi-0.dtd"
   xmlns="http://www.w3.org/2000/svg"
   xmlns:svg="http://www.w3.org/2000/svg">
  <defs
     id="defs5" />
  <sodipodi:namedview
     id="namedview5"
     pagecolor="#ffffff"
     bordercolor="#000000"
     borderopacity="0.25"
     inkscape:showpageshadow="2"
     inkscape:pageopacity="0.0"
     inkscape:pagecheckerboard="0"
     inkscape:deskcolor="#d1d1d1"
     inkscape:zoom="12.078125"
     inkscape:cx="32"
     inkscape:cy="32.745149"
     inkscape:window-width="1920"
     inkscape:window-height="996"
     inkscape:window-x="0"
     inkscape:window-y="0"
     inkscape:window-maximized="1"
     inkscape:current-layer="svg5" />
  <rect
     style="opacity:0.2;stroke-width:0.9823"
     width="55"
     height="55.017544"
     x="3.5"
     y="3.9824562"
     rx="16.5"
     ry="16.505262"
     id="rect1" />
  <rect
     style="fill:#2d3d53;fill-opacity:1;stroke-width:0.9823"
     width="55"
     height="55.017544"
     x="3.5"
     y="3"
     rx="16.5"
     ry="16.505262"
     id="rect2" />
  <path
     style="opacity:0.1;fill:#ffffff;stroke-width:0.9823"
     d="M 20.000767,3 C 10.859768,3 3.4999999,10.362116 3.4999999,19.50603 v 0.982457 c 0,-9.143915 7.3597681,-16.5060308 16.5007671,-16.5060308 H 41.999233 C 51.140232,3.9824562 58.5,11.344572 58.5,20.488487 V 19.50603 C 58.5,10.362116 51.140232,3 41.999233,3 Z"
     id="path4" />
  <g
     id="g1"
     transform="matrix(1.1346437,0,0,1.1388632,-5.3850119,-50.998613)">
    <path
       style="opacity:0.2"
       d="M 24.854476,88.021437 C 14.102136,74.893471 38.298008,56.34258 37.92089,57.457866 l 1.29652,1.465959 c -5.125636,0.0854 -17.284138,20.315058 -11.282892,26.132798 3.758794,3.838064 12.36113,-3.454104 13.087066,-2.129336 -4.440546,5.210006 -12.277754,9.842822 -16.167108,5.09415 z"
       id="path2-5" />
    <path
       style="fill:#2b92d5;fill-opacity:1"
       d="M 24.854476,87.021436 C 14.102136,73.89347 38.298008,55.342578 37.92089,56.457865 l 1.29652,1.465958 c -5.125636,0.0854 -17.284138,20.315059 -11.282892,26.132799 3.758794,3.838064 12.36113,-3.454104 13.087066,-2.129336 -4.440546,5.210006 -12.277754,9.842822 -16.167108,5.09415 z"
       id="path3-6" />
    <path
       style="opacity:0.2"
       d="m 49.770278,72.813593 c -5.992984,15.87578 -34.156464,4.196986 -33.002038,3.965938 l 0.621298,-1.855796 c 2.63678,4.396226 26.235424,4.81097 28.273114,-3.29513 1.444464,-5.174244 -9.171906,-8.978002 -8.387592,-10.269064 6.73227,1.240624 14.663012,5.711436 12.495218,11.454052 z"
       id="path4-2" />
    <path
       style="fill:#2b92d5;fill-opacity:1"
       d="M 49.770278,71.813592 C 43.777294,87.689372 15.613814,76.010578 16.76824,75.77953 l 0.621298,-1.855796 c 2.63678,4.396226 26.235424,4.81097 28.273114,-3.29513 1.444464,-5.174244 -9.171906,-8.978002 -8.387592,-10.269064 6.73227,1.240624 14.663012,5.711436 12.495218,11.454052 z"
       id="path5-9" />
    <path
       style="opacity:0.2"
       d="m 23.913576,57.852341 c 16.74532,-2.747814 20.71293,27.481869 19.935622,26.597631 l -1.917818,0.38984 C 44.420234,80.35818 32.980092,59.713784 24.941158,62.00214 19.7379,63.33832 21.751934,74.434244 20.241684,74.40054 17.949961,67.949912 17.856428,58.846285 23.913576,57.852341 Z"
       id="path6" />
    <path
       style="fill:#2b92d5;fill-opacity:1"
       d="m 23.913576,56.852612 c 16.74532,-2.747814 20.71293,27.48187 19.935622,26.597632 l -1.917818,0.38984 c 2.488854,-4.481632 -8.951288,-25.126029 -16.990222,-22.837672 -5.203258,1.33618 -3.189224,12.432104 -4.699474,12.3984 -2.291723,-6.450628 -2.385256,-15.554256 3.671892,-16.5482 z"
       id="path7" />
    <path
       style="opacity:0.2"
       d="m 38.929432,55.000812 a 2.9993412,2.9993412 0 0 0 -1.429688,0.402344 2.9993412,2.9993412 0 0 0 -1.097656,4.097656 2.9993412,2.9993412 0 0 0 4.097656,1.097656 2.9993412,2.9993412 0 0 0 1.097656,-4.097656 2.9993412,2.9993412 0 0 0 -2.667968,-1.5 z m -21.859376,18 a 2.9993418,2.9993418 0 0 0 -0.210937,0.004 2.9993418,2.9993418 0 0 0 -2.457031,1.496 2.9993418,2.9993418 0 0 0 1.097656,4.097656 2.9993418,2.9993418 0 0 0 4.097656,-1.097656 2.9993418,2.9993418 0 0 0 -1.097656,-4.097656 2.9993418,2.9993418 0 0 0 -1.429688,-0.402344 z m 25.929688,10 a 3,3 0 0 0 -3,3 3,3 0 0 0 3,3 3,3 0 0 0 3,-3 3,3 0 0 0 -3,-3 z"
       id="path8" />
    <path
       style="fill:#ffffff"
       d="m 38.929432,54.000812 a 2.9993412,2.9993412 0 0 0 -1.429688,0.402344 2.9993412,2.9993412 0 0 0 -1.097656,4.097656 2.9993412,2.9993412 0 0 0 4.097656,1.097656 2.9993412,2.9993412 0 0 0 1.097656,-4.097656 2.9993412,2.9993412 0 0 0 -2.667968,-1.5 z m -21.859376,18 a 2.9993418,2.9993418 0 0 0 -0.210937,0.004 2.9993418,2.9993418 0 0 0 -2.457031,1.496 2.9993418,2.9993418 0 0 0 1.097656,4.097656 2.9993418,2.9993418 0 0 0 4.097656,-1.097656 2.9993418,2.9993418 0 0 0 -1.097656,-4.097656 2.9993418,2.9993418 0 0 0 -1.429688,-0.402344 z m 25.929688,10 a 3,3 0 0 0 -3,3 3,3 0 0 0 3,3 3,3 0 0 0 3,-3 3,3 0 0 0 -3,-3 z"
       id="path9" />
  </g>
</svg>
