<?xml version="1.0" encoding="UTF-8" standalone="no"?>
<svg
   width="62"
   height="62"
   version="1"
   id="svg5"
   sodipodi:docname="undertale.svg"
   inkscape:version="1.4 (unknown)"
   xmlns:inkscape="http://www.inkscape.org/namespaces/inkscape"
   xmlns:sodipodi="http://sodipodi.sourceforge.net/DTD/sodipodi-0.dtd"
   xmlns="http://www.w3.org/2000/svg"
   xmlns:svg="http://www.w3.org/2000/svg">
  <defs
     id="defs5" />
  <sodipodi:namedview
     id="namedview5"
     pagecolor="#ffffff"
     bordercolor="#000000"
     borderopacity="0.25"
     inkscape:showpageshadow="2"
     inkscape:pageopacity="0.0"
     inkscape:pagecheckerboard="0"
     inkscape:deskcolor="#d1d1d1"
     inkscape:zoom="12.078125"
     inkscape:cx="32"
     inkscape:cy="32"
     inkscape:window-width="1920"
     inkscape:window-height="996"
     inkscape:window-x="0"
     inkscape:window-y="0"
     inkscape:window-maximized="1"
     inkscape:current-layer="svg5" />
  <g
     id="g5"
     transform="matrix(0.98214286,0,0,0.98245614,-0.42857152,-0.92982455)">
    <rect
       style="opacity:0.2"
       width="56"
       height="56"
       x="4"
       y="5"
       rx="16.799999"
       ry="16.799999"
       id="rect1" />
    <rect
       style="fill:#2d3d53;fill-opacity:1"
       width="56"
       height="56"
       x="4"
       y="4"
       rx="16.799999"
       ry="16.799999"
       id="rect2" />
    <path
       style="opacity:0.2"
       d="m 18,14 v 3 h -2 v 2 H 13 V 22.142578 33 37 h 5 V 38.427734 43 h 4 v 4 h 6 v 5 H 30.642578 32 33.357422 36 v -5 h 6 v -4 h 4 V 38.427734 37 h 5 V 33 22.142578 19 H 48 V 17 H 46 V 14 H 42.857422 40.142578 39 v 3 h -2 v 2 H 36.072266 35 V 22.142578 23 H 33.357422 32 30.642578 29 V 22.142578 19 H 27.927734 27 v -2 h -2 v -3 h -1.142578 -2.714844 z"
       id="path2" />
    <path
       style="fill:#c83771"
       d="m 18,13 v 3 h -2 v 2 H 13 V 21.142578 32 36 h 5 V 37.427734 42 h 4 v 4 h 6 v 5 H 30.642578 32 33.357422 36 v -5 h 6 v -4 h 4 V 37.427734 36 h 5 V 32 21.142578 18 H 48 V 16 H 46 V 13 H 42.857422 40.142578 39 v 3 h -2 v 2 H 36.072266 35 V 21.142578 22 H 33.357422 32 30.642578 29 V 21.142578 18 H 27.927734 27 v -2 h -2 v -3 h -1.142578 -2.714844 z"
       id="path3" />
    <path
       style="opacity:0.1;fill:#ffffff"
       d="M 20.800781,4 C 11.493582,4 4,11.493582 4,20.800781 v 1 C 4,12.493582 11.493582,5 20.800781,5 H 43.199219 C 52.506418,5 60,12.493582 60,21.800781 v -1 C 60,11.493582 52.506418,4 43.199219,4 Z"
       id="path4" />
    <path
       style="opacity:0.2;fill:#ffffff"
       d="m 18,13 v 1 H 21.142578 23.857422 25 v -1 h -1.142578 -2.714844 z m 21,0 v 1 H 40.142578 42.857422 46 v -1 h -3.142578 -2.714844 z m -23,3 v 1 h 2 v -1 z m 9,0 v 1 h 2 v -1 z m 12,0 v 1 h 2 v -1 z m 9,0 v 1 h 2 v -1 z m -33,2 v 1 h 3 v -1 z m 14,0 v 1 H 27.927734 29 v -1 h -1.072266 z m 8,0 v 1 H 36.072266 37 v -1 h -0.927734 z m 13,0 v 1 h 3 V 18 Z M 29,22 V 22.142578 23 H 30.642578 32 33.357422 35 V 22.142578 22 H 33.357422 32 30.642578 Z"
       id="path5" />
  </g>
</svg>
