<?xml version="1.0" encoding="UTF-8" standalone="no"?>
<svg
   width="62"
   height="62"
   version="1.1"
   id="svg5"
   sodipodi:docname="unison-gtk.svg"
   inkscape:version="1.4 (unknown)"
   xmlns:inkscape="http://www.inkscape.org/namespaces/inkscape"
   xmlns:sodipodi="http://sodipodi.sourceforge.net/DTD/sodipodi-0.dtd"
   xmlns:xlink="http://www.w3.org/1999/xlink"
   xmlns="http://www.w3.org/2000/svg"
   xmlns:svg="http://www.w3.org/2000/svg">
  <defs
     id="defs5">
    <linearGradient
       id="linearGradient5"
       x1="16.449198"
       y1="24.807404"
       x2="15.97861"
       y2="-2.1925139"
       gradientUnits="userSpaceOnUse"
       gradientTransform="translate(14,12.385028)">
      <stop
         stop-color="#9EE170"
         id="stop2"
         style="stop-color:#aa87de;stop-opacity:1" />
      <stop
         offset="1"
         stop-color="#E5ECA2"
         id="stop5"
         style="stop-color:#e5eca2;stop-opacity:1" />
    </linearGradient>
    <linearGradient
       id="paint1_linear_54_1200"
       x1="16"
       y1="26"
       x2="16"
       y2="6"
       gradientUnits="userSpaceOnUse"
       gradientTransform="matrix(3.0397983,0,0,3.0420943,35.820936,133.83376)">
      <stop
         stop-color="#5570FF"
         id="stop3" />
      <stop
         offset="1"
         stop-color="#4DD3FF"
         id="stop4" />
    </linearGradient>
    <linearGradient
       id="paint0_linear_114_290"
       x1="16.449198"
       y1="24.807404"
       x2="15.97861"
       y2="-2.1925139"
       gradientUnits="userSpaceOnUse"
       gradientTransform="translate(14,12.385028)">
      <stop
         stop-color="#9EE170"
         id="stop2-3"
         style="stop-color:#c6afe9;stop-opacity:1" />
      <stop
         offset="1"
         stop-color="#E5ECA2"
         id="stop3-6" />
    </linearGradient>
    <linearGradient
       id="paint2_linear_114_290"
       x1="24"
       y1="44"
       x2="24"
       y2="37"
       gradientUnits="userSpaceOnUse"
       gradientTransform="translate(7,6.1925137)"
       xlink:href="#paint0_linear_114_290">
      <stop
         stop-color="#00B59C"
         id="stop6" />
      <stop
         offset="1"
         stop-color="#9CFFAC"
         id="stop7" />
    </linearGradient>
  </defs>
  <sodipodi:namedview
     id="namedview5"
     pagecolor="#ffffff"
     bordercolor="#000000"
     borderopacity="0.25"
     inkscape:showpageshadow="2"
     inkscape:pageopacity="0.0"
     inkscape:pagecheckerboard="0"
     inkscape:deskcolor="#d1d1d1"
     inkscape:zoom="11.6875"
     inkscape:cx="31.957219"
     inkscape:cy="31.957219"
     inkscape:window-width="1920"
     inkscape:window-height="996"
     inkscape:window-x="0"
     inkscape:window-y="0"
     inkscape:window-maximized="1"
     inkscape:current-layer="svg5" />
  <rect
     style="opacity:0.2;stroke-width:0.9823"
     width="55"
     height="55.017544"
     x="4"
     y="4.9824562"
     rx="8.25"
     ry="8.2526312"
     id="rect1" />
  <rect
     style="fill:#233143;stroke-width:0.9823;fill-opacity:1"
     width="55"
     height="55.017544"
     x="4"
     y="4"
     rx="8.25"
     ry="8.2526312"
     id="rect2" />
  <path
     style="opacity:0.1;fill:#ffffff;stroke-width:0.9823"
     d="M 12.248466,4 C 7.6779652,4 4,7.6791384 4,12.251097 v 0.982456 C 4,8.6615945 7.6779652,4.9824561 12.248466,4.9824561 H 50.751534 C 55.322034,4.9824561 59,8.6615945 59,13.233553 V 12.251097 C 59,7.6791384 55.322034,4 50.751534,4 Z"
     id="path4" />
  <g
     id="g1"
     transform="matrix(1.2592592,0,0,1.25,-18.097148,-70.964506)">
    <path
       style="opacity:0.2;stroke-width:0.561952"
       d="m 32.957367,70.005062 c -3.749965,1.316903 -4.821426,1.026243 -4.821426,2.245604 V 88.35458 c 0,5.331718 4.300713,9.624042 9.642851,9.624042 h 3.21428 c 5.342131,0 9.642846,-4.292324 9.642846,-9.624042 V 72.250666 c 0,-1.219361 -0.267896,-0.928701 -4.017853,-2.245604 l -2.732142,2.245604 v 11.29189 6.41603 c 0,2.657603 -1.837196,4.651621 -4.499995,4.651621 -2.662798,0 -4.367015,-1.997334 -4.499993,-4.651621 v -6.41603 -11.29189 z"
       id="path1-7" />
    <path
       style="fill:#8d5fd3;stroke-width:0.561952"
       d="m 32.957367,69.443654 c -3.749965,1.316913 -4.821426,1.026245 -4.821426,2.245612 v 16.103909 c 0,5.331723 4.300713,9.624045 9.642851,9.624045 h 3.21428 c 5.342131,0 9.642846,-4.292322 9.642846,-9.624045 V 71.689266 c 0,-1.219367 -0.267896,-0.928699 -4.017853,-2.245612 l -2.732142,2.245612 v 11.291893 6.416029 c 0,2.6576 -1.837196,4.651613 -4.499995,4.651613 -2.662798,0 -4.367015,-1.997322 -4.499993,-4.651613 V 82.981159 71.689266 Z"
       id="path2-5" />
    <path
       style="opacity:0.2;stroke-width:0.561952"
       d="m 31.550981,66.540275 a 0.84133674,0.56859292 0 0 0 -0.08405,0.0015 0.84133674,0.56859292 0 0 0 -0.684679,0.282966 l -4.78345,5.599241 a 0.84133674,0.56859292 0 0 0 0.728727,0.853021 h 9.566881 a 0.84133674,0.56859292 0 0 0 0.72873,-0.853021 l -4.783453,-5.59929 A 0.84133674,0.56859292 0 0 0 31.550996,66.54035 Z"
       id="path3" />
    <path
       style="fill:#c6afe9;stroke-width:0.561952"
       d="m 31.550981,65.978875 a 0.84133674,0.56859292 0 0 0 -0.08405,0.0015 0.84133674,0.56859292 0 0 0 -0.684679,0.282972 l -4.783443,5.599254 a 0.84133674,0.56859292 0 0 0 0.728728,0.85301 h 9.566874 a 0.84133674,0.56859292 0 0 0 0.72873,-0.85301 L 32.239696,66.26321 a 0.84133674,0.56859292 0 0 0 -0.688692,-0.284327 z"
       id="path4-3" />
    <path
       style="opacity:0.2;stroke-width:0.561952"
       d="m 47.30097,66.540277 a 0.84133674,0.56859319 0 0 0 -0.08407,0.0014 0.84133674,0.56859319 0 0 0 -0.684681,0.282966 l -4.783445,5.599278 a 0.84133674,0.56859319 0 0 0 0.728723,0.853017 h 9.566886 a 0.84133674,0.56859319 0 0 0 0.728736,-0.853032 L 47.989668,66.824562 A 0.84133674,0.56859319 0 0 0 47.300975,66.54023 Z"
       id="path5" />
    <path
       style="fill:#c6afe9;stroke-width:0.561952"
       d="m 47.30097,65.978876 a 0.84133674,0.56859319 0 0 0 -0.08407,0.0014 0.84133674,0.56859319 0 0 0 -0.684681,0.282941 l -4.783442,5.599236 a 0.84133674,0.56859319 0 0 0 0.728723,0.85302 h 9.566886 a 0.84133674,0.56859319 0 0 0 0.728737,-0.853044 L 47.989666,66.263158 A 0.84133674,0.56859319 0 0 0 47.300978,65.97882 Z"
       id="path6" />
    <path
       style="opacity:0.2;fill:#ffffff;stroke-width:0.561952"
       d="m 34.885933,89.397489 v 0.5614 c 0.132976,2.654291 1.837202,4.651318 4.499999,4.651318 2.662798,0 4.499999,-1.993713 4.499999,-4.651318 v -0.5614 c 0,2.657604 -1.837201,4.65131 -4.499999,4.65131 -2.662797,0 -4.367023,-1.997019 -4.499999,-4.65131 z"
       id="path7" />
    <path
       style="opacity:0.2;fill:#c6afe9;stroke-width:0.561952"
       d="m 31.550481,65.978646 a 0.84133674,0.56859292 0 0 0 -0.08349,0.0023 0.84133674,0.56859292 0 0 0 -0.685548,0.282895 l -4.783449,5.598688 a 0.84133674,0.56859292 0 0 0 -0.0011,0.563604 0.84133674,0.56859292 0 0 1 0.0011,-0.0023 l 4.78345,-5.598693 a 0.84133674,0.56859292 0 0 1 0.685548,-0.282893 0.84133674,0.56859292 0 0 1 0.08349,-0.0023 0.84133674,0.56859292 0 0 1 0.689945,0.285088 l 4.783446,5.598681 a 0.84133674,0.56859292 0 0 1 0.0012,0.0023 0.84133674,0.56859292 0 0 0 -0.0012,-0.563593 l -4.783446,-5.59868 a 0.84133674,0.56859292 0 0 0 -0.689945,-0.285088 z"
       id="path8" />
    <path
       style="opacity:0.2;fill:#ffffff;stroke-width:0.561952"
       d="m 47.300483,65.978646 a 0.84133674,0.56859319 0 0 0 -0.08351,0.0023 0.84133674,0.56859319 0 0 0 -0.685545,0.282895 l -4.783447,5.59868 a 0.84133674,0.56859319 0 0 0 -0.0012,0.563603 0.84133674,0.56859319 0 0 1 0.0012,-0.0023 l 4.783447,-5.598686 a 0.84133674,0.56859319 0 0 1 0.685545,-0.282896 0.84133674,0.56859319 0 0 1 0.08351,-0.0022 0.84133674,0.56859319 0 0 1 0.689942,0.28509 l 4.783445,5.598679 a 0.84133674,0.56859319 0 0 1 0.0012,0.0022 0.84133674,0.56859319 0 0 0 -0.0012,-0.563592 L 47.990425,66.263737 A 0.84133674,0.56859319 0 0 0 47.300483,65.97865 Z"
       id="path9" />
  </g>
</svg>
