<?xml version="1.0" encoding="UTF-8" standalone="no"?>
<svg
   width="62"
   height="62"
   version="1.1"
   id="svg4"
   sodipodi:docname="unsplash.svg"
   inkscape:version="1.4 (unknown)"
   xmlns:inkscape="http://www.inkscape.org/namespaces/inkscape"
   xmlns:sodipodi="http://sodipodi.sourceforge.net/DTD/sodipodi-0.dtd"
   xmlns:xlink="http://www.w3.org/1999/xlink"
   xmlns="http://www.w3.org/2000/svg"
   xmlns:svg="http://www.w3.org/2000/svg">
  <defs
     id="defs4">
    <linearGradient
       id="linearGradient4"
       inkscape:collect="always">
      <stop
         style="stop-color:#a0b4bd;stop-opacity:1;"
         offset="0"
         id="stop4" />
      <stop
         style="stop-color:#ced8e3;stop-opacity:1;"
         offset="1"
         id="stop5" />
    </linearGradient>
    <linearGradient
       inkscape:collect="always"
       xlink:href="#linearGradient4"
       id="linearGradient5"
       x1="31.5"
       y1="60"
       x2="31.281414"
       y2="10.719834"
       gradientUnits="userSpaceOnUse" />
  </defs>
  <sodipodi:namedview
     id="namedview4"
     pagecolor="#ffffff"
     bordercolor="#000000"
     borderopacity="0.25"
     inkscape:showpageshadow="2"
     inkscape:pageopacity="0.0"
     inkscape:pagecheckerboard="0"
     inkscape:deskcolor="#d1d1d1"
     inkscape:zoom="7.0710678"
     inkscape:cx="26.657926"
     inkscape:cy="52.820877"
     inkscape:window-width="1920"
     inkscape:window-height="996"
     inkscape:window-x="0"
     inkscape:window-y="0"
     inkscape:window-maximized="1"
     inkscape:current-layer="svg4" />
  <ellipse
     style="opacity:0.2;stroke-width:0.982299"
     cx="31.5"
     cy="32.491226"
     id="circle1"
     rx="27.5"
     ry="27.508774" />
  <ellipse
     style="fill:url(#linearGradient5);stroke-width:0.982299"
     cx="31.5"
     cy="31.508774"
     id="circle2"
     rx="27.5"
     ry="27.508774" />
  <path
     style="opacity:0.2;fill:#ffffff;stroke-width:0.982299"
     d="M 31.499996,4 A 27.499996,27.50877 0 0 0 4,31.50877 27.499996,27.50877 0 0 0 4.0211161,32.084489 27.499996,27.50877 0 0 1 31.499996,4.9824561 27.499996,27.50877 0 0 1 58.979369,31.915507 27.499996,27.50877 0 0 0 58.999994,31.50877 27.499996,27.50877 0 0 0 31.499996,4 Z"
     id="path2" />
  <path
     style="opacity:0.2;stroke-width:0.982299"
     d="m 25.607141,14.807016 h 11.785712 v 7.859649 H 25.607141 Z m -9.821428,15.719298 v 17.68421 H 47.21428 V 30.526314 H 37.392853 V 38.38596 H 25.607141 v -7.859646 z"
     id="path3" />
  <path
     style="fill:#233143;stroke-width:0.982299;fill-opacity:1"
     d="M 25.607141,13.824561 H 37.392853 V 21.68421 H 25.607141 Z M 15.785713,29.543859 V 47.228067 H 47.21428 V 29.543859 h -9.821427 v 7.859648 H 25.607141 v -7.859648 z"
     id="path4" />
</svg>
