<?xml version="1.0" encoding="UTF-8" standalone="no"?>
<svg
   width="62"
   height="62"
   version="1.1"
   id="svg5"
   sodipodi:docname="uplink.svg"
   inkscape:version="1.4 (unknown)"
   xmlns:inkscape="http://www.inkscape.org/namespaces/inkscape"
   xmlns:sodipodi="http://sodipodi.sourceforge.net/DTD/sodipodi-0.dtd"
   xmlns="http://www.w3.org/2000/svg"
   xmlns:svg="http://www.w3.org/2000/svg">
  <defs
     id="defs5" />
  <sodipodi:namedview
     id="namedview5"
     pagecolor="#ffffff"
     bordercolor="#000000"
     borderopacity="0.25"
     inkscape:showpageshadow="2"
     inkscape:pageopacity="0.0"
     inkscape:pagecheckerboard="0"
     inkscape:deskcolor="#d1d1d1"
     inkscape:zoom="12.078125"
     inkscape:cx="32"
     inkscape:cy="32"
     inkscape:window-width="1920"
     inkscape:window-height="996"
     inkscape:window-x="0"
     inkscape:window-y="0"
     inkscape:window-maximized="1"
     inkscape:current-layer="svg5" />
  <g
     id="g5"
     transform="translate(-0.99822434,-1)">
    <path
       style="opacity:0.2;stroke-width:0.999972"
       d="m 27.998659,10 c -2.883332,0 -5.408363,1.863326 -6.46253,4.419922 C 20.48248,13.632724 19.246161,13 17.999218,13 H 9.9996647 C 7.833119,13 5.3735517,14.821102 4.6523073,16.263672 3.9310628,17.706241 3.9999999,19 3.9999999,19 v 29 c 0,0 -0.068937,1.543759 0.7773004,3.236328 C 5.6235377,52.928898 8.3330911,55 10.999609,55 H 46.997598 C 52.247304,55 56.303849,52.553515 58.15713,49.773438 60.010412,46.99336 59.996871,44 59.996871,44 V 20 c 0,0 0.06894,-1.543759 -0.7773,-3.236328 C 58.373333,15.071102 55.66378,13 52.997262,13 H 41.54673 c -1.286394,-1.759449 -3.260942,-3 -5.548518,-3 z"
       id="path1" />
    <path
       style="fill:#e5e5e5;stroke-width:0.999972;fill-opacity:1"
       d="m 27.998659,9 c -2.883332,0 -5.408363,1.863326 -6.46253,4.419922 C 20.48248,12.632724 19.246161,12 17.999218,12 H 9.9996647 C 7.833119,12 5.3735517,13.821102 4.6523073,15.263672 3.9310628,16.706241 3.9999999,18 3.9999999,18 v 29 c 0,0 -0.068937,1.543759 0.7773004,3.236328 C 5.6235377,51.928898 8.3330911,54 10.999609,54 H 46.997598 C 52.247304,54 56.303849,51.553515 58.15713,48.773438 60.010412,45.99336 59.996871,43 59.996871,43 V 19 c 0,0 0.06894,-1.543759 -0.7773,-3.236328 C 58.373333,14.071102 55.66378,12 52.997262,12 H 41.54673 C 40.260336,10.240551 38.285788,9 35.998212,9 Z"
       id="path2" />
    <path
       style="opacity:0.1;stroke-width:0.999972"
       d="m 27.998659,15 c -1.107938,0 -1.999888,0.892 -1.999888,2 v 5 c 0,1.108 0.89195,2 1.999888,2 h 7.999553 C 37.10615,24 37.9981,23.108 37.9981,22 v -5 c 0,-1.108 -0.89195,-2 -1.999888,-2 z M 9.9996647,18 c -0.9999441,0 -0.9999441,1 -0.9999441,1 v 29 c 0,0 0,2 1.9998884,2 h 35.997989 c 7.999553,0 7.999553,-6 7.999553,-6 V 20 c 0,0 0,-2 -1.999889,-2 h -7.999553 v 19 c 0,4 -3.999776,4 -3.999776,4 H 20.99905 c -1.999888,0 -1.999888,-2 -1.999888,-2 V 19 c 0,0 0,-1 -0.999944,-1 z"
       id="path3" />
    <path
       style="fill:#8d5fd3;stroke-width:0.999972"
       d="m 27.998659,14 c -1.107938,0 -1.999888,0.892 -1.999888,2 v 5 c 0,1.108 0.89195,2 1.999888,2 h 7.999553 C 37.10615,23 37.9981,22.108 37.9981,21 v -5 c 0,-1.108 -0.89195,-2 -1.999888,-2 z M 9.9996647,17 c -0.9999441,0 -0.9999441,1 -0.9999441,1 v 29 c 0,0 0,2 1.9998884,2 h 35.997989 c 7.999553,0 7.999553,-6 7.999553,-6 V 19 c 0,0 0,-2 -1.999889,-2 h -7.999553 v 19 c 0,4 -3.999776,4 -3.999776,4 H 20.99905 c -1.999888,0 -1.999888,-2 -1.999888,-2 V 18 c 0,0 0,-1 -0.999944,-1 z"
       id="path4" />
    <path
       style="opacity:0.2;fill:#ffffff;stroke-width:0.999972"
       d="m 27.998659,9 c -2.883332,0 -5.408363,1.863326 -6.46253,4.419922 C 20.48248,12.632724 19.246161,12 17.999218,12 H 9.9996647 C 7.833119,12 5.3735516,13.821102 4.6523073,15.263672 3.9310628,16.706241 3.9999999,18 3.9999999,18 v 0.775391 C 4.0144197,18.3439 4.1113737,17.345599 4.6523073,16.263672 5.373551,14.821102 7.8331187,13 9.9996647,13 h 7.9995533 c 1.246943,0 2.483262,0.632724 3.536911,1.419922 C 22.590296,11.863326 25.115327,10 27.998659,10 h 7.999553 c 2.287576,0 4.262124,1.240551 5.548518,3 h 11.450532 c 2.666518,0 5.376071,2.071102 6.222309,3.763672 C 60.065808,18.456241 59.996871,20 59.996871,20 v -1 c 0,0 0.06894,-1.543759 -0.7773,-3.236328 C 58.373333,14.071102 55.66378,12 52.997262,12 H 41.54673 C 40.260336,10.240551 38.285788,9 35.998212,9 Z"
       id="path5" />
  </g>
</svg>
