<?xml version="1.0" encoding="UTF-8" standalone="no"?>
<svg
   width="62"
   height="62"
   version="1.1"
   id="svg5"
   sodipodi:docname="valyriatear.svg"
   inkscape:version="1.4 (unknown)"
   xmlns:inkscape="http://www.inkscape.org/namespaces/inkscape"
   xmlns:sodipodi="http://sodipodi.sourceforge.net/DTD/sodipodi-0.dtd"
   xmlns="http://www.w3.org/2000/svg"
   xmlns:svg="http://www.w3.org/2000/svg">
  <defs
     id="defs5" />
  <sodipodi:namedview
     id="namedview5"
     pagecolor="#ffffff"
     bordercolor="#000000"
     borderopacity="0.25"
     inkscape:showpageshadow="2"
     inkscape:pageopacity="0.0"
     inkscape:pagecheckerboard="0"
     inkscape:deskcolor="#d1d1d1"
     inkscape:zoom="7.0710678"
     inkscape:cx="23.263813"
     inkscape:cy="30.334881"
     inkscape:window-width="1920"
     inkscape:window-height="996"
     inkscape:window-x="0"
     inkscape:window-y="0"
     inkscape:window-maximized="1"
     inkscape:current-layer="svg5" />
  <g
     id="g5"
     transform="matrix(0.99988369,0,0,1,-0.88798323,-3.0000005)">
    <path
       d="m 26.312945,12.06982 c -2.338567,0 -3.642846,0.707264 -5.731285,1.648603 -2.088448,0.941323 -4.461089,2.247351 -6.789193,3.884343 -4.6562097,3.273973 -9.7945058,7.839736 -9.7945058,14.793532 0,5.111334 2.7101295,8.792539 2.7101295,8.792539 a 4.0576756,4.2796876 0 1 0 6.7515533,-4.747301 c 0,0 -1.347142,-2.737692 -1.347142,-4.045238 0,-1.604726 2.469086,-5.062576 6.180997,-7.672581 1.855956,-1.305003 3.857554,-2.406052 5.477708,-3.136315 0.452049,-0.203751 0.296778,-0.135791 0.709231,-0.267445 -0.229504,2.296128 -1.106337,5.771867 -2.016747,8.652542 -1.478713,4.678844 -3.231089,9.437624 -4.635746,13.343427 -0.702331,1.952903 -1.317053,3.686755 -1.782985,5.161026 -0.465931,1.474272 -0.889508,2.284497 -0.889508,4.245827 a 4.0576756,4.2796876 0 0 0 7.240878,2.65155 C 36.898919,35.999292 57.473492,25.561601 57.473492,25.561601 a 4.0576756,4.2796876 0 1 0 -3.490681,-7.726906 c 0,0 -12.108633,6.052156 -24.8587,17.833728 0.357509,-1.064614 0.696148,-1.905991 1.038087,-2.987958 1.020009,-3.227447 2.119005,-7.106086 2.442688,-10.760834 0.161838,-1.82737 0.229349,-3.620132 -0.528953,-5.660405 -0.758305,-2.040271 -3.357466,-4.189406 -5.762988,-4.189406 z"
       style="opacity:0.2;stroke-width:1.0417"
       id="path1" />
    <path
       d="m 10.083866,37.74537 c 0,0 -2.0286349,-3.209445 -2.0286349,-6.41889 0,-8.558512 15.2147599,-16.047218 18.2577139,-16.047218 4.05727,0 1.951079,8.80392 0,14.977404 -3.042954,9.62833 -7.100223,19.256668 -7.100223,21.396296 C 34.427487,31.32648 55.728154,20.628331 55.728154,20.628331"
       style="fill:none;stroke:#93856c;stroke-width:8.33358;stroke-linecap:round;stroke-linejoin:round;stroke-opacity:1"
       id="path2" />
    <path
       d="m 26.312945,15.279262 c -1.155195,0 -2.621878,0.527323 -4.534714,1.389497 -1.912832,0.862186 -4.146831,2.091869 -6.297883,3.604364 -4.302094,3.024985 -8.4394342,7.17528 -8.4394342,12.123175 0,3.684916 2.1990083,7.012298 2.1990083,7.012298 a 1.014419,1.0699216 0 1 0 1.6878859,-1.186825 c 0,0 -1.8582596,-3.091504 -1.8582596,-5.825473 0,-3.610632 3.4700396,-7.483946 7.5360656,-10.342939 2.033009,-1.4295 4.173254,-2.606891 5.969017,-3.416305 1.795763,-0.809402 3.372034,-1.218168 3.738314,-1.218168 0.666517,0 0.803363,0.149704 1.042054,0.791921 0.238688,0.642215 0.326158,1.810455 0.202069,3.211529 -0.248171,2.802149 -1.242509,6.514079 -2.206932,9.565645 -1.510785,4.780339 -3.280173,9.579617 -4.677346,13.464625 -0.698592,1.942506 -1.303964,3.655776 -1.741383,5.039832 -0.437416,1.384056 -0.733002,2.338832 -0.733002,3.230341 a 1.014419,1.0699216 0 0 0 1.810715,0.662366 C 35.04584,33.296523 56.16399,22.663484 56.163991,22.663484 a 1.014419,1.0699216 0 1 0 -0.871677,-1.93068 c 0,0 -18.776386,9.548563 -33.809264,27.625046 0.342254,-1.001962 0.645845,-1.91836 1.08762,-3.146762 1.39219,-3.871147 3.172917,-8.698114 4.705083,-13.546108 0.986659,-3.121923 2.021669,-6.89887 2.300046,-10.042056 0.139184,-1.571587 0.113713,-2.990061 -0.332822,-4.191501 -0.446532,-1.201436 -1.567915,-2.152161 -2.930032,-2.152161 z"
       style="opacity:0.2;stroke-width:1.0417"
       id="path3" />
    <path
       d="m 10.083866,37.74537 c 0,0 -2.0286349,-3.209445 -2.0286349,-6.41889 0,-8.558512 15.2147599,-16.047218 18.2577139,-16.047218 4.05727,0 1.951079,8.80392 0,14.977404 -3.042954,9.62833 -7.100223,19.256668 -7.100223,21.396296 C 34.427487,31.32648 55.728154,20.628331 55.728154,20.628331"
       style="fill:none;stroke:#d9cfbf;stroke-width:2.0834;stroke-linecap:round;stroke-linejoin:round;stroke-opacity:1"
       id="path4" />
    <path
       d="m 26.312945,11 c -2.338567,0 -3.642846,0.707276 -5.731285,1.648603 -2.088448,0.941325 -4.461089,2.247354 -6.789193,3.884344 -4.6562097,3.273976 -9.7945058,7.839739 -9.7945058,14.793533 0,0.216519 0.0105,0.426078 0.01981,0.637292 C 4.22829,25.255717 9.2348451,20.807417 13.79247,17.602766 c 2.328098,-1.636992 4.700739,-2.94302 6.789187,-3.884343 2.088442,-0.941339 3.392717,-1.648603 5.731285,-1.648603 2.405523,0 5.004683,2.149135 5.762989,4.189406 0.438427,1.179634 0.586447,2.2739 0.614137,3.343173 0.06224,-1.409996 -0.0289,-2.838402 -0.614137,-4.412992 C 31.317628,13.149135 28.718467,11 26.312945,11 Z m 29.452849,5.336533 a 4.0576756,4.2796876 0 0 0 -1.782983,0.428344 c 0,0 -11.769081,5.89308 -24.317864,17.346885 -0.179149,0.499046 -0.354582,1.002017 -0.540836,1.556661 12.750067,-11.781572 24.8587,-17.833728 24.8587,-17.833728 a 4.0576756,4.2796876 0 0 1 5.792705,3.328547 4.0576756,4.2796876 0 0 0 -4.009722,-4.826709 z m -31.285356,4.983424 c -0.09781,0.03122 -0.118772,0.04758 -0.168392,0.06276 -0.347079,2.220767 -1.072318,5.06455 -1.848355,7.520048 -1.478713,4.67884 -3.231089,9.437628 -4.635746,13.343428 -0.702331,1.952908 -1.317053,3.686758 -1.782985,5.161027 -0.465931,1.47427 -0.889508,2.2845 -0.889508,4.245827 a 4.0576756,4.2796876 0 0 0 0.03173,0.50983 c 0.07831,-1.542764 0.442723,-2.372442 0.857813,-3.685841 0.465932,-1.474272 1.080654,-3.208115 1.782985,-5.161022 1.404657,-3.905807 3.157033,-8.664588 4.635746,-13.343431 0.91061,-2.881311 1.787491,-6.356445 2.016747,-8.652542 z m -12.292655,10.6271 c -0.03272,0.155494 -0.07526,0.317301 -0.07526,0.449241 0,1.307546 1.347142,4.045238 1.347142,4.045238 a 4.0576756,4.2796876 0 0 1 0.683474,1.870084 4.0576756,4.2796876 0 0 0 -0.683474,-2.939903 c 0,0 -0.994149,-2.025886 -1.27186,-3.42466 z"
       style="opacity:0.2;fill:#ffffff;stroke-width:1.0417"
       id="path5" />
  </g>
</svg>
