<?xml version="1.0" encoding="UTF-8" standalone="no"?>
<svg
   width="62"
   height="62"
   version="1.1"
   id="svg6"
   sodipodi:docname="davinci-panels.svg"
   inkscape:version="1.4 (unknown)"
   xmlns:inkscape="http://www.inkscape.org/namespaces/inkscape"
   xmlns:sodipodi="http://sodipodi.sourceforge.net/DTD/sodipodi-0.dtd"
   xmlns="http://www.w3.org/2000/svg"
   xmlns:svg="http://www.w3.org/2000/svg">
  <defs
     id="defs6" />
  <sodipodi:namedview
     id="namedview6"
     pagecolor="#ffffff"
     bordercolor="#000000"
     borderopacity="0.25"
     inkscape:showpageshadow="2"
     inkscape:pageopacity="0.0"
     inkscape:pagecheckerboard="0"
     inkscape:deskcolor="#d1d1d1"
     inkscape:zoom="12.078125"
     inkscape:cx="31.958603"
     inkscape:cy="32"
     inkscape:window-width="1920"
     inkscape:window-height="996"
     inkscape:window-x="0"
     inkscape:window-y="0"
     inkscape:window-maximized="1"
     inkscape:current-layer="svg6" />
  <rect
     width="52"
     height="56"
     x="5"
     y="3"
     rx="8"
     ry="8"
     id="rect1"
     style="fill:#2e3b52;fill-opacity:1" />
  <rect
     width="46"
     height="50"
     x="8"
     y="6"
     opacity="0.05"
     rx="5"
     ry="5"
     id="rect2"
     style="opacity:1;fill:#2a596f;fill-opacity:1" />
  <g
     id="g1"
     transform="translate(-1.5,-1)">
    <path
       style="opacity:0.2;stroke-width:1.03078"
       d="M 19.239154,16.0303 C 17.042597,16.0303 16,16.77006 16,19.10473 c 0,1.99363 0.934308,3.07751 2.801903,3.07545 h 0.437251 L 27.585058,46.2697 C 28.299714,48.32 28.464715,49 30.880933,49 H 32.5 34.119057 c 2.416218,0 2.581219,-0.68 3.295875,-2.7303 l 8.345914,-24.08952 h 0.437241 C 48.065682,22.18218 49,21.09836 49,19.10473 49,16.77006 47.957403,16.0303 45.760846,16.0303 h -6.829971 c -2.195536,0 -3.337125,0.79746 -3.337125,3.07443 0,2.278 1.139527,3.07545 2.920502,3.07545 L 32.5,40.75758 26.485748,22.18018 c 1.780965,0 2.920502,-0.79745 2.920502,-3.07545 0,-2.27697 -1.141599,-3.07443 -3.337125,-3.07443 z"
       id="path4" />
    <path
       style="fill:#5fd6ff;stroke-width:1.03078"
       d="M 19.239154,15 C 17.042597,15 16,15.73976 16,18.07442 c 0,1.99364 0.934308,3.07752 2.801903,3.07546 h 0.437251 l 8.345904,24.08951 c 0.714656,2.05031 0.879657,2.73031 3.295875,2.73031 H 32.5 34.119057 c 2.416218,0 2.581219,-0.68 3.295875,-2.73031 l 8.345914,-24.08951 h 0.437241 C 48.065682,21.15188 49,20.06806 49,18.07442 49,15.73976 47.957403,15 45.760846,15 h -6.829971 c -2.195536,0 -3.337125,0.79745 -3.337125,3.07442 0,2.278 1.139527,3.07546 2.920502,3.07546 L 32.5,39.72727 26.485748,21.14988 c 1.780965,0 2.920502,-0.79746 2.920502,-3.07546 C 29.40625,15.79745 28.264651,15 26.069125,15 Z"
       id="path5" />
    <path
       style="opacity:0.2;fill:#ffffff;stroke-width:1.03078"
       d="M 19.239154,15 C 17.042597,15 16,15.73976 16,18.07442 c 0,0.17825 0.01751,0.34 0.03193,0.50382 0.157784,-1.90812 1.191094,-2.54794 3.207185,-2.54794 h 6.829971 c 2.016092,0 3.131906,0.68618 3.303093,2.55928 0.01546,-0.16691 0.03403,-0.32867 0.03403,-0.51516 C 29.40625,15.79745 28.264651,15 26.069125,15 Z m 19.691721,0 c -2.195536,0 -3.337125,0.79745 -3.337125,3.07442 0,0.18649 0.01852,0.34825 0.03403,0.51516 0.171187,-1.8731 1.287001,-2.55928 3.303093,-2.55928 h 6.829971 c 2.016091,0 3.0494,0.63982 3.207185,2.54794 0.01441,-0.16382 0.03193,-0.32557 0.03193,-0.50382 C 49,15.73976 47.957403,15 45.760846,15 Z M 26.807503,22.14412 26.485748,22.18022 32.5,40.75762 38.514252,22.18022 38.192497,22.14412 32.5,39.72727 Z"
       id="path8" />
  </g>
</svg>
