<?xml version="1.0" encoding="UTF-8" standalone="no"?>
<svg
   width="62"
   height="62"
   version="1.1"
   id="svg5"
   sodipodi:docname="zotero.svg"
   inkscape:version="1.4 (unknown)"
   xmlns:inkscape="http://www.inkscape.org/namespaces/inkscape"
   xmlns:sodipodi="http://sodipodi.sourceforge.net/DTD/sodipodi-0.dtd"
   xmlns:xlink="http://www.w3.org/1999/xlink"
   xmlns="http://www.w3.org/2000/svg"
   xmlns:svg="http://www.w3.org/2000/svg">
  <defs
     id="defs5">
    <linearGradient
       id="linearGradient8"
       inkscape:collect="always">
      <stop
         style="stop-color:#2d3d53;stop-opacity:1;"
         offset="0"
         id="stop8" />
      <stop
         style="stop-color:#354864;stop-opacity:1;"
         offset="1"
         id="stop10" />
    </linearGradient>
    <linearGradient
       id="linearGradient4217">
      <stop
         style="stop-color:#000000;stop-opacity:1;"
         offset="0"
         id="stop2" />
      <stop
         style="stop-color:#000000;stop-opacity:0;"
         offset="1"
         id="stop4" />
    </linearGradient>
    <linearGradient
       id="linearGradient4161">
      <stop
         style="stop-color:#334545;stop-opacity:1;"
         offset="0"
         id="stop7" />
      <stop
         style="stop-color:#4d6868;stop-opacity:1"
         offset="1"
         id="stop9" />
    </linearGradient>
    <linearGradient
       id="a-1-2"
       y1="510.79999"
       y2="527.14001"
       gradientUnits="userSpaceOnUse"
       x2="0">
      <stop
         stop-color="#7cbaf8"
         id="stop2-2-7" />
      <stop
         offset="1"
         stop-color="#f4fcff"
         id="stop4-70-0" />
    </linearGradient>
    <linearGradient
       id="c"
       y1="503.79999"
       x1="400.57001"
       y2="519.79999"
       x2="416.57001"
       gradientUnits="userSpaceOnUse">
      <stop
         stop-color="#292c2f"
         id="stop12" />
      <stop
         offset="1"
         stop-opacity="0"
         id="stop14" />
    </linearGradient>
    <linearGradient
       id="b"
       y1="542.79999"
       x1="408.57001"
       y2="521.79999"
       x2="387.57001"
       gradientUnits="userSpaceOnUse"
       gradientTransform="translate(-384.57,-499.8)">
      <stop
         stop-color="#197cf1"
         id="stop7-8" />
      <stop
         offset="1"
         stop-color="#20bcfa"
         id="stop9-7" />
    </linearGradient>
    <linearGradient
       xlink:href="#linearGradient1389"
       id="linearGradient4503-5-6"
       y1="37"
       y2="4"
       x2="0"
       gradientUnits="userSpaceOnUse"
       gradientTransform="matrix(1.0218446,0,0,0.99999999,21.748946,8.2587777)" />
    <linearGradient
       id="linearGradient1389">
      <stop
         style="stop-color:#ffaaaa;stop-opacity:1"
         id="stop1385"
         offset="0" />
      <stop
         offset="1"
         style="stop-color:#ff5555;stop-opacity:1"
         id="stop1387" />
    </linearGradient>
    <linearGradient
       id="paint543_linear_890_11"
       x1="978.5"
       y1="298"
       x2="978.5"
       y2="304"
       gradientUnits="userSpaceOnUse"
       gradientTransform="matrix(0.75000004,0,0,0.75000004,-717.38333,-173.49123)">
      <stop
         offset="0.189495"
         stop-color="#EFF2F6"
         id="stop1829" />
      <stop
         offset="0.850463"
         stop-color="#B7C6CD"
         id="stop1830" />
    </linearGradient>
    <linearGradient
       inkscape:collect="always"
       xlink:href="#linearGradient8"
       id="linearGradient10"
       x1="31.5"
       y1="59.017544"
       x2="31.5"
       y2="4.9824562"
       gradientUnits="userSpaceOnUse" />
    <linearGradient
       id="linearGradient4144">
      <stop
         style="stop-color:#c83771;stop-opacity:1"
         offset="0"
         id="stop1141" />
      <stop
         style="stop-color:#de87aa;stop-opacity:1"
         offset="1"
         id="stop1143" />
    </linearGradient>
    <linearGradient
       id="c-0"
       gradientUnits="userSpaceOnUse"
       x1="10"
       x2="24"
       y1="10"
       y2="24"
       gradientTransform="translate(59.728813,26.237288)">
      <stop
         offset="0"
         stop-color="#292c2f"
         id="stop12-2" />
      <stop
         offset="1"
         stop-opacity="0"
         id="stop14-3" />
    </linearGradient>
    <linearGradient
       id="d"
       gradientUnits="userSpaceOnUse"
       x1="24"
       x2="24"
       y1="25"
       y2="7"
       gradientTransform="translate(59.728813,26.237288)">
      <stop
         offset="0"
         stop-color="#bb9d71"
         id="stop2-7" />
      <stop
         offset="1"
         stop-color="#f9f2e7"
         id="stop4-5" />
    </linearGradient>
    <linearGradient
       id="_lgradient_4"
       x1="0.5714286"
       y1="0.9115513"
       x2="0.41931218"
       y2="0.26851299"
       gradientTransform="matrix(14.32,0,0,18.834666,8,75.532)"
       gradientUnits="userSpaceOnUse">
      <stop
         offset="0%"
         stop-opacity="1"
         style="stop-color:#c6afe9;stop-opacity:1"
         id="stop1" />
      <stop
         offset="97.82608695652173%"
         stop-opacity="1"
         style="stop-color:rgb(255,187,36)"
         id="stop2-3" />
    </linearGradient>
    <linearGradient
       id="_lgradient_5"
       x1="-0.014458464"
       y1="0.009839246"
       x2="1.0164566"
       y2="1.072293"
       gradientTransform="matrix(7.3746665,12.276,-16.145333,9.6986664,29.954666,68.084)"
       gradientUnits="userSpaceOnUse">
      <stop
         offset="0%"
         stop-opacity="1"
         style="stop-color:rgb(249,212,35)"
         id="stop3" />
      <stop
         offset="51.56237565086822%"
         stop-opacity="1"
         style="stop-color:rgb(255,78,80)"
         id="stop4-6" />
      <stop
         offset="99.1304347826087%"
         stop-opacity="1"
         style="stop-color:rgb(138,35,135)"
         id="stop5" />
    </linearGradient>
    <linearGradient
       id="_lgradient_6"
       x1="0.42168996"
       y1="0.24417809"
       x2="0.91260743"
       y2="0.96379721"
       gradientTransform="matrix(-6.7373332,12.636,-16.62,-8.8613331,47.375999,82.886666)"
       gradientUnits="userSpaceOnUse">
      <stop
         offset="0%"
         stop-opacity="1"
         style="stop-color:rgb(255,95,109)"
         id="stop6" />
      <stop
         offset="98.26086956521739%"
         stop-opacity="1"
         style="stop-color:rgb(255,195,113)"
         id="stop7-7" />
    </linearGradient>
    <linearGradient
       id="_lgradient_7"
       x1="0.5714286"
       y1="0.9115513"
       x2="0.41931218"
       y2="0.26851299"
       gradientTransform="matrix(-14.32,0,0,-18.834666,42.893332,106.468)"
       gradientUnits="userSpaceOnUse">
      <stop
         offset="0%"
         stop-opacity="1"
         style="stop-color:rgb(247,242,6)"
         id="stop8-5" />
      <stop
         offset="97.82608695652173%"
         stop-opacity="1"
         style="stop-color:#aa87de;stop-opacity:1"
         id="stop9-3" />
    </linearGradient>
    <linearGradient
       id="_lgradient_8"
       x1="-0.014458464"
       y1="0.009839246"
       x2="1.0164566"
       y2="1.072293"
       gradientTransform="matrix(-7.3746665,-12.276,16.145333,-9.6986664,20.938666,113.916)"
       gradientUnits="userSpaceOnUse">
      <stop
         offset="0%"
         stop-opacity="1"
         style="stop-color:rgb(249,212,35)"
         id="stop10-5" />
      <stop
         offset="51.56237565086822%"
         stop-opacity="1"
         style="stop-color:rgb(255,78,80)"
         id="stop11" />
      <stop
         offset="99.1304347826087%"
         stop-opacity="1"
         style="stop-color:rgb(138,35,135)"
         id="stop12-6" />
    </linearGradient>
    <linearGradient
       id="_lgradient_9"
       x1="0.42168996"
       y1="0.24417809"
       x2="0.91260743"
       y2="0.96379721"
       gradientTransform="matrix(6.7373332,-12.636,16.62,8.8613331,3.5173334,99.113332)"
       gradientUnits="userSpaceOnUse">
      <stop
         offset="0%"
         stop-opacity="1"
         style="stop-color:rgb(255,95,109)"
         id="stop13" />
      <stop
         offset="98.26086956521739%"
         stop-opacity="1"
         style="stop-color:rgb(255,195,113)"
         id="stop14-2" />
    </linearGradient>
  </defs>
  <sodipodi:namedview
     id="namedview5"
     pagecolor="#ffffff"
     bordercolor="#000000"
     borderopacity="0.25"
     inkscape:showpageshadow="2"
     inkscape:pageopacity="0.0"
     inkscape:pagecheckerboard="0"
     inkscape:deskcolor="#d1d1d1"
     inkscape:zoom="8.2643105"
     inkscape:cx="28.375023"
     inkscape:cy="27.64901"
     inkscape:window-width="1920"
     inkscape:window-height="996"
     inkscape:window-x="0"
     inkscape:window-y="0"
     inkscape:window-maximized="1"
     inkscape:current-layer="svg5" />
  <g
     id="g1">
    <rect
       style="opacity:0.2;stroke-width:0.9823"
       width="55"
       height="55.017544"
       x="4"
       y="4.9824562"
       rx="8.25"
       ry="8.2526312"
       id="rect1" />
    <rect
       style="fill:url(#linearGradient10);stroke-width:0.9823"
       width="55"
       height="55.017544"
       x="4"
       y="4"
       rx="8.25"
       ry="8.2526312"
       id="rect2" />
    <path
       style="opacity:0.1;fill:#ffffff;stroke-width:0.9823"
       d="M 12.248466,4 C 7.6779652,4 4,7.6791384 4,12.251097 v 0.982456 C 4,8.6615945 7.6779652,4.9824561 12.248466,4.9824561 H 50.751534 C 55.322034,4.9824561 59,8.6615945 59,13.233553 V 12.251097 C 59,7.6791384 55.322034,4 50.751534,4 Z"
       id="path4" />
  </g>
  <path
     d="M 52.650466,43.500559 C 51.776045,45.015178 32.750851,56 31.000911,56 29.249847,56 10.223528,45.015178 9.349114,43.499441 8.4758091,41.985946 8.4746926,20.015175 9.349114,18.499443 10.223528,16.984825 29.249848,6.0011182 30.999792,6 c 1.751059,0 20.776253,10.985946 21.650674,12.500557 0.874423,1.514618 0.874423,23.484268 0,25.000002 z"
     display="block"
     opacity="1"
     overflow="visible"
     paint-order="fill markers stroke"
     style="isolation:auto;mix-blend-mode:normal;fill:#5a79a5;fill-opacity:0.30000001;stroke-width:1.11533"
     id="path1" />
  <g
     id="g2"
     transform="translate(5.553334,-60)">
    <path
       d="m 17.336,94.234666 c 3.029333,0.585333 4.694666,-0.858667 4.985333,-2.813333 -3.473333,0.724 -5.468,-0.884 -5.998667,-4.84 -0.706666,-3.092 1.210667,-7.101334 4.72,-11.014667 -2.630666,-0.314666 -5.524,1.48 -7.16,4.348 C 10.94,78.998666 9.1546666,79.429333 8,81.193333 c 2.353333,1.124 3.893333,3.770666 4.604,7.926666 0.312,2.069334 1.897333,4.292 4.732,5.114667 z"
       id="path2"
       style="isolation:isolate;fill:url(#_lgradient_4);stroke-width:1.33333" />
    <path
       d="m 18.729333,85.718666 c 1.058667,2.897333 3.153333,3.582667 4.978667,2.824 -2.409334,-2.604 -2.057334,-5.141333 1.06,-7.634667 2.287999,-2.197333 6.711999,-2.618666 11.871999,-1.625333 -1.084,-2.417333 -4.112,-3.973333 -7.413333,-3.898666 -0.730667,-2.994667 -2.018667,-4.302667 -4.125333,-4.384 0.249333,2.596 -1.228,5.278666 -4.425333,8.027999 -1.612,1.333334 -2.701334,3.837334 -1.946667,6.690667 z"
       id="path5"
       style="isolation:isolate;fill:url(#_lgradient_5);stroke-width:1.33333" />
    <path
       d="m 26.48,82.325333 c -1.941334,2.397333 -1.450667,4.546666 0.137333,5.721333 0.994666,-3.404 3.352,-4.408 7.093333,-3.014667 3.06,0.832 5.696,4.409334 7.498666,9.346667 1.516,-2.173333 1.293334,-5.570667 -0.468,-8.364 2.192,-2.165333 2.652,-3.942667 1.638667,-5.792 -2.098667,1.548 -5.158666,1.661333 -9.16,0.332 -1.973333,-0.697333 -4.68,-0.344 -6.739999,1.770667 z"
       id="path7"
       style="isolation:isolate;fill:url(#_lgradient_6);stroke-width:1.33333" />
    <path
       d="m 33.557333,87.765333 c -3.029334,-0.585334 -4.694667,0.858666 -4.985334,2.813333 3.473334,-0.724 5.468,0.884 5.998667,4.84 0.706667,3.092 -1.210667,7.101334 -4.72,11.014664 2.630667,0.31467 5.524,-1.48 7.16,-4.348 2.942667,0.916 4.728,0.48534 5.882666,-1.27866 -2.353333,-1.124004 -3.893333,-3.770671 -4.603999,-7.926671 -0.312,-2.069333 -1.897334,-4.292 -4.732,-5.114666 z"
       id="path9"
       style="isolation:isolate;fill:url(#_lgradient_7);stroke-width:1.33333" />
    <path
       d="m 32.163999,96.281332 c -1.058666,-2.897333 -3.153333,-3.582666 -4.978666,-2.824 2.409333,2.604 2.057333,5.141334 -1.06,7.634668 -2.288,2.19733 -6.712,2.61867 -11.872,1.62533 1.084,2.41734 4.112,3.97334 7.413333,3.89867 0.730667,2.99467 2.018667,4.30267 4.125334,4.384 -0.249334,-2.596 1.227999,-5.27867 4.425333,-8.028 1.612,-1.33333 2.701333,-3.837334 1.946666,-6.690668 z"
       id="path12"
       style="isolation:isolate;fill:url(#_lgradient_8);stroke-width:1.33333" />
    <path
       d="M 24.413333,99.674666 C 26.354666,97.277332 25.864,95.127999 24.276,93.953332 c -0.994667,3.404 -3.352,4.408 -7.093334,3.014667 -3.06,-0.832 -5.695999,-4.409333 -7.4986661,-9.346666 C 8.168,89.794666 8.3906666,93.191999 10.152,95.985332 7.96,98.150666 7.5,99.927999 8.5133333,101.77733 10.612,100.22933 13.672,100.116 17.673333,101.44533 c 1.973333,0.69734 4.68,0.344 6.74,-1.770664 z"
       id="path14"
       style="isolation:isolate;fill:url(#_lgradient_9);stroke-width:1.33333" />
  </g>
</svg>
