<?xml version="1.0" encoding="UTF-8" standalone="no"?>
<svg
   width="62"
   height="62"
   version="1.1"
   id="svg5"
   sodipodi:docname="windows95.svg"
   inkscape:version="1.4 (unknown)"
   xmlns:inkscape="http://www.inkscape.org/namespaces/inkscape"
   xmlns:sodipodi="http://sodipodi.sourceforge.net/DTD/sodipodi-0.dtd"
   xmlns="http://www.w3.org/2000/svg"
   xmlns:svg="http://www.w3.org/2000/svg">
  <defs
     id="defs5">
    <linearGradient
       id="paint1_linear_54_1200"
       x1="16"
       y1="26"
       x2="16"
       y2="6"
       gradientUnits="userSpaceOnUse"
       gradientTransform="matrix(3.0397983,0,0,3.0420943,35.820936,133.83376)">
      <stop
         stop-color="#5570FF"
         id="stop3" />
      <stop
         offset="1"
         stop-color="#4DD3FF"
         id="stop4" />
    </linearGradient>
  </defs>
  <sodipodi:namedview
     id="namedview5"
     pagecolor="#ffffff"
     bordercolor="#000000"
     borderopacity="0.25"
     inkscape:showpageshadow="2"
     inkscape:pageopacity="0.0"
     inkscape:pagecheckerboard="0"
     inkscape:deskcolor="#d1d1d1"
     inkscape:zoom="11.6875"
     inkscape:cx="31.957219"
     inkscape:cy="31.957219"
     inkscape:window-width="1920"
     inkscape:window-height="996"
     inkscape:window-x="0"
     inkscape:window-y="0"
     inkscape:window-maximized="1"
     inkscape:current-layer="svg5" />
  <rect
     style="opacity:0.2;stroke-width:0.9823"
     width="55"
     height="55.017544"
     x="4"
     y="4.9824562"
     rx="8.25"
     ry="8.2526312"
     id="rect1" />
  <rect
     style="fill:#233143;stroke-width:0.9823;fill-opacity:1"
     width="55"
     height="55.017544"
     x="4"
     y="4"
     rx="8.25"
     ry="8.2526312"
     id="rect2" />
  <path
     style="opacity:0.1;fill:#ffffff;stroke-width:0.9823"
     d="M 12.248466,4 C 7.6779652,4 4,7.6791384 4,12.251097 v 0.982456 C 4,8.6615945 7.6779652,4.9824561 12.248466,4.9824561 H 50.751534 C 55.322034,4.9824561 59,8.6615945 59,13.233553 V 12.251097 C 59,7.6791384 55.322034,4 50.751534,4 Z"
     id="path4" />
  <g
     fill-rule="nonzero"
     id="g6"
     transform="matrix(1.0460895,0,0,1.0460895,6.393852,7.3850801)">
    <path
       d="m 8.832,7.749 h 13.001 c 0.6,0 1.084,0.483 1.084,1.083 v 13.001 c 0,0.6 -0.484,1.084 -1.084,1.084 H 8.832 c -0.6,0 -1.083,-0.484 -1.083,-1.084 V 8.832 c 0,-0.6 0.483,-1.083 1.083,-1.083 z"
       fill="#b92b1c"
       id="path3"
       style="fill:#c83771" />
    <path
       d="m 26.167,7.749 h 13.001 c 0.6,0 1.083,0.483 1.083,1.083 v 13.001 c 0,0.6 -0.483,1.084 -1.083,1.084 H 26.167 c -0.6,0 -1.084,-0.484 -1.084,-1.084 V 8.832 c 0,-0.6 0.484,-1.083 1.084,-1.083 z"
       fill="#008f4c"
       id="path4-3"
       style="fill:#37c871" />
    <path
       d="m 8.832,25.083 h 13.001 c 0.6,0 1.084,0.484 1.084,1.084 v 13.001 c 0,0.6 -0.484,1.083 -1.084,1.083 H 8.832 c -0.6,0 -1.083,-0.483 -1.083,-1.083 V 26.167 c 0,-0.6 0.483,-1.084 1.083,-1.084 z"
       fill="#026db9"
       id="path5"
       style="fill:#2a7fff" />
    <path
       d="m 26.167,25.083 h 13.001 c 0.6,0 1.083,0.484 1.083,1.084 v 13.001 c 0,0.6 -0.483,1.083 -1.083,1.083 H 26.167 c -0.6,0 -1.084,-0.483 -1.084,-1.083 V 26.167 c 0,-0.6 0.484,-1.084 1.084,-1.084 z"
       fill="#ff8f1e"
       id="path6"
       style="fill:#ffcc00" />
  </g>
</svg>
