<?xml version="1.0" encoding="UTF-8" standalone="no"?>
<svg
   width="62"
   height="62"
   version="1.1"
   id="svg5"
   sodipodi:docname="wyrmsun.svg"
   inkscape:version="1.4 (unknown)"
   xmlns:inkscape="http://www.inkscape.org/namespaces/inkscape"
   xmlns:sodipodi="http://sodipodi.sourceforge.net/DTD/sodipodi-0.dtd"
   xmlns="http://www.w3.org/2000/svg"
   xmlns:svg="http://www.w3.org/2000/svg">
  <defs
     id="defs5" />
  <sodipodi:namedview
     id="namedview5"
     pagecolor="#ffffff"
     bordercolor="#000000"
     borderopacity="0.25"
     inkscape:showpageshadow="2"
     inkscape:pageopacity="0.0"
     inkscape:pagecheckerboard="0"
     inkscape:deskcolor="#d1d1d1"
     inkscape:zoom="12.078125"
     inkscape:cx="32"
     inkscape:cy="32"
     inkscape:window-width="1920"
     inkscape:window-height="996"
     inkscape:window-x="0"
     inkscape:window-y="0"
     inkscape:window-maximized="1"
     inkscape:current-layer="svg5" />
  <g
     id="g5"
     transform="translate(-1,-1.5)">
    <path
       d="M 38,20 H 26 c 0,0 3,8.6 3,17 0,2.8 -5,6 -8,6 -6,0 -6,-5 -6,-11 0,-10 9,-20 9,-20 L 7,15 C 7,15 4,21 4,32 4,44 9,54 18,54 27,54 32.00001,45.600002 32.00001,45.600002 32.00001,45.600002 35,54 43.199997,54 55,54 60,44 60,35 60,23.8 57,18 57,18 L 43,15 c 0,0 6,8 6,20 0,3 0,8 -8,8 -3,0 -6,-3.2 -6,-6 0,-8.4 3,-17 3,-17 z"
       style="opacity:0.2"
       id="path1" />
    <path
       d="M 38,19 H 26 c 0,0 3,8.6 3,17 0,2.8 -5,6 -8,6 -6,0 -6,-5 -6,-11 0,-10 9,-20 9,-20 L 7,14 C 7,14 4,20 4,31 4,43 9,53 18,53 27,53 32.00001,44.600002 32.00001,44.600002 32.00001,44.600002 35,53 43.199997,53 55,53 60,43 60,34 60,22.8 57,17 57,17 L 43,14 c 0,0 6,8 6,20 0,3 0,8 -8,8 -3,0 -6,-3.2 -6,-6 0,-8.4 3,-17 3,-17 z"
       style="fill:#a4b5c1;fill-opacity:1"
       id="path2" />
    <path
       d="m 24,11 -17,3 2,4 z m 19,3 12,7 2,-4 z m -17,5 6,4 6,-4 z"
       style="opacity:0.2;fill:#ffffff"
       id="path3" />
    <path
       d="M 4,31 C 4,43 9,53 18,53 27,53 32,44.599609 32,44.599609 32,44.599609 34.999222,53 43.199219,53 54.999222,53 60,43 60,34 60,34 55,48 45,48 36,48 32,40 32,40 32,40 27,48 17,48 8,48 4,31 4,31 Z"
       style="opacity:0.506;fill:#33414c;fill-opacity:1"
       id="path4" />
    <path
       d="M 24,11 7,14 c 0,0 -3,6 -3,17 0,0.130374 0.00859,0.256827 0.00977,0.386719 C 4.1201821,20.785096 7,15 7,15 L 23.033203,12.169922 C 23.589279,11.476737 24,11 24,11 Z m 19,3 c 0,0 0.31751,0.444761 0.763672,1.164062 L 57,18 c 0,0 2.868324,5.574566 2.988281,16.320312 C 59.989676,34.213888 60,34.106164 60,34 60,22.8 57,17 57,17 Z m -17,5 c 0,0 0.175106,0.54839 0.318359,1 H 37.681641 C 37.824894,19.54839 38,19 38,19 Z M 15.003906,31.835938 C 15.003371,31.890619 15,31.945317 15,32 c 0,6 0,11 6,11 3,0 8,-3.2 8,-6 0,-0.278784 -0.01119,-0.557035 -0.01758,-0.835938 C 28.795022,38.923691 23.941881,42 21,42 15.285586,42 15.016852,37.451056 15.003906,31.835938 Z m 33.986328,2.863281 C 48.951203,37.716553 48.419766,42 41,42 38.085094,42 35.17864,38.980047 35.015625,36.240234 35.01033,36.493735 35,36.746622 35,37 c 0,2.8 3,6 6,6 8,0 8,-5 8,-8 0,-0.102401 -0.0089,-0.198965 -0.0098,-0.300781 z"
       style="opacity:0.2;fill:#ffffff"
       id="path5" />
  </g>
</svg>
