<?xml version="1.0" encoding="UTF-8" standalone="no"?>
<svg
   width="62"
   height="62"
   version="1"
   id="svg4"
   sodipodi:docname="system-switch-user.svg"
   inkscape:version="1.4 (unknown)"
   xmlns:inkscape="http://www.inkscape.org/namespaces/inkscape"
   xmlns:sodipodi="http://sodipodi.sourceforge.net/DTD/sodipodi-0.dtd"
   xmlns:xlink="http://www.w3.org/1999/xlink"
   xmlns="http://www.w3.org/2000/svg"
   xmlns:svg="http://www.w3.org/2000/svg">
  <defs
     id="defs4">
    <linearGradient
       id="linearGradient4"
       inkscape:collect="always">
      <stop
         style="stop-color:#9c897d;stop-opacity:1;"
         offset="0"
         id="stop4" />
      <stop
         style="stop-color:#65554e;stop-opacity:1;"
         offset="1"
         id="stop5" />
    </linearGradient>
    <linearGradient
       inkscape:collect="always"
       xlink:href="#linearGradient4"
       id="linearGradient5"
       x1="13.780748"
       y1="6.5682039"
       x2="52.509281"
       y2="53.857174"
       gradientUnits="userSpaceOnUse"
       gradientTransform="translate(0.5)" />
    <linearGradient
       xlink:href="#a"
       id="d"
       x1="55.867001"
       x2="68.871002"
       y1="20.605"
       y2="45.125"
       gradientTransform="matrix(0.56571,0,0,0.56571,-87.766479,-17.158)"
       gradientUnits="userSpaceOnUse" />
    <linearGradient
       id="a"
       x1="55.867001"
       x2="68.871002"
       y1="20.605"
       y2="45.125"
       gradientUnits="userSpaceOnUse">
      <stop
         offset="0"
         stop-color="#67554b"
         id="stop1" />
      <stop
         offset=".179"
         stop-color="#77767b"
         id="stop2" />
      <stop
         offset=".801"
         stop-color="#241f31"
         id="stop3" />
      <stop
         offset="1"
         stop-color="#5e5c64"
         id="stop4-7" />
    </linearGradient>
    <clipPath
       id="e">
      <rect
         width="56.001999"
         height="56.001999"
         x="4"
         y="3.9690001"
         fill="url(#b)"
         stroke-width="3.78"
         opacity="0.412"
         rx="13.002"
         ry="13.002"
         id="rect9" />
    </clipPath>
    <linearGradient
       id="b"
       x1="7.9369998"
       x2="7.9369998"
       y1="15.081"
       y2="1.852"
       gradientTransform="scale(3.7796)"
       gradientUnits="userSpaceOnUse">
      <stop
         offset="0"
         stop-color="#363636"
         id="stop5-5" />
      <stop
         offset="1"
         stop-color="#6c6c6c"
         id="stop6-3" />
    </linearGradient>
  </defs>
  <sodipodi:namedview
     id="namedview4"
     pagecolor="#ffffff"
     bordercolor="#000000"
     borderopacity="0.25"
     inkscape:showpageshadow="2"
     inkscape:pageopacity="0.0"
     inkscape:pagecheckerboard="0"
     inkscape:deskcolor="#d1d1d1"
     inkscape:zoom="11.6875"
     inkscape:cx="28.919786"
     inkscape:cy="33.240642"
     inkscape:window-width="1920"
     inkscape:window-height="996"
     inkscape:window-x="0"
     inkscape:window-y="0"
     inkscape:window-maximized="1"
     inkscape:current-layer="svg4" />
  <rect
     style="opacity:0.2;stroke-width:0.948712"
     width="55"
     height="55.050846"
     x="3.5"
     y="3.9491525"
     rx="16.500004"
     ry="16.515257"
     id="rect1" />
  <rect
     style="fill:url(#linearGradient5);stroke-width:0.948712"
     width="55"
     height="55.050846"
     x="3.5"
     y="3"
     rx="16.500004"
     ry="16.515257"
     id="rect2" />
  <path
     style="opacity:0.1;fill:#ffffff;stroke-width:0.948712"
     d="M 19.998518,3 C 10.857511,3 3.5,10.364313 3.5,19.51377 v 0.949151 C 3.5,11.313473 10.857511,3.9491529 19.998518,3.9491529 h 22.002961 c 9.140995,0 16.498516,7.3643211 16.498516,16.5137681 V 19.51377 C 58.499995,10.364313 51.142474,3 42.001479,3 Z"
     id="path4" />
  <g
     id="g1"
     transform="matrix(0.8838323,0,0,0.86632695,76.570817,14.933594)">
    <path
       d="m -54.954479,29.231 h 6.789 a 3.395,3.395 0 0 1 3.394,3.394 v 7.92 a 3.395,3.395 0 0 1 -3.394,3.395 h -6.789 a 3.395,3.395 0 0 1 -3.394,-3.395 v -7.92 a 3.395,3.395 0 0 1 3.394,-3.393"
       style="fill:#2d3c53;fill-opacity:1;stroke-width:0.566"
       id="path12" />
    <path
       d="m -54.954479,28.1 h 6.789 a 3.395,3.395 0 0 1 3.394,3.394 v 7.92 a 3.395,3.395 0 0 1 -3.394,3.395 h -6.789 a 3.395,3.395 0 0 1 -3.394,-3.395 v -7.92 a 3.395,3.395 0 0 1 3.394,-3.394"
       id="path13"
       style="fill:#3c342e;fill-opacity:1" />
    <path
       fill="#9b9b98"
       d="m 37.095,49.222 a 5.094,5.094 0 1 1 -10.187,0 5.094,5.094 0 0 1 10.187,0"
       clip-path="url(#e)"
       style="stroke-width:0.566"
       id="path14"
       transform="translate(-83.561479,-13.768)" />
    <path
       d="m -43.640479,0.946 a 7.921,7.921 0 0 1 -15.84,0 7.921,7.921 0 0 1 15.84,0"
       id="path15"
       style="fill:#2d3c53;fill-opacity:1" />
    <path
       fill="url(#f)"
       stroke="#5e5c64"
       stroke-width="1.131"
       d="m -51.560479,-2.307 c -11.215,0 -20.366,9.15 -20.366,20.366 0,11.216 9.15,20.366 20.366,20.366 11.216,0 20.366,-9.15 20.366,-20.366 0,-11.216 -9.15,-20.366 -20.366,-20.366 z m 0,5.657 c 8.156,0 14.709,6.552 14.709,14.71 0,8.158 -6.552,14.708 -14.709,14.708 -8.157,0 -14.709,-6.552 -14.709,-14.709 0,-8.157 6.552,-14.709 14.709,-14.709 z"
       style="fill:#a6a6a1;fill-opacity:1;stroke:#574942;stroke-opacity:1"
       id="path16" />
    <path
       d="m -51.560479,-4.141 a 1.78,1.78 0 0 0 -1.794,1.794 v 6.789 a 1.78,1.78 0 0 0 1.793,1.792 1.78,1.78 0 0 0 1.794,-1.792 v -6.79 a 1.78,1.78 0 0 0 -1.794,-1.794"
       id="path17"
       style="fill:#736359;fill-opacity:1" />
    <path
       d="m -51.560479,-4.108 c -0.685,0 -1.213,0.528 -1.213,1.213 v 5.787 c 0,0.685 0.528,1.216 1.213,1.216 0.685,0 1.213,-0.53 1.213,-1.216 v -5.787 c 0,-0.685 -0.528,-1.213 -1.213,-1.213"
       id="path18"
       style="fill:#bfbfbf;fill-opacity:1" />
  </g>
</svg>
