<?xml version="1.0" encoding="UTF-8" standalone="no"?>
<svg
   width="62"
   height="62"
   version="1.1"
   id="svg8"
   sodipodi:docname="zandronum.svg"
   inkscape:version="1.4 (unknown)"
   xmlns:inkscape="http://www.inkscape.org/namespaces/inkscape"
   xmlns:sodipodi="http://sodipodi.sourceforge.net/DTD/sodipodi-0.dtd"
   xmlns="http://www.w3.org/2000/svg"
   xmlns:svg="http://www.w3.org/2000/svg">
  <defs
     id="defs8" />
  <sodipodi:namedview
     id="namedview8"
     pagecolor="#ffffff"
     bordercolor="#000000"
     borderopacity="0.25"
     inkscape:showpageshadow="2"
     inkscape:pageopacity="0.0"
     inkscape:pagecheckerboard="0"
     inkscape:deskcolor="#d1d1d1"
     inkscape:zoom="7.0710678"
     inkscape:cx="36.910974"
     inkscape:cy="35.001786"
     inkscape:window-width="1920"
     inkscape:window-height="996"
     inkscape:window-x="0"
     inkscape:window-y="0"
     inkscape:window-maximized="1"
     inkscape:current-layer="svg8" />
  <g
     id="g8"
     transform="translate(-0.499998,-0.9)">
    <path
       style="opacity:0.2;stroke-width:0.981231"
       d="M 7.0070053,22.019626 V 32.49123 c 0,2.324392 -0.1846502,6.325652 1.3421178,8.188154 2.5394679,4.26565 7.9813349,13.496594 10.0698779,17.722204 0.681616,1.263856 2.194403,1.59841 4.103424,1.598412 h 8.977573 8.977582 c 1.909012,-2e-6 3.421808,-0.334556 4.103426,-1.598412 2.088542,-4.22561 7.530407,-13.456554 10.069875,-17.722204 1.526769,-1.862502 1.342114,-5.863762 1.342114,-8.188154 V 22.019626 c 0,-8.784536 -10.885772,-17.03717 -24.492997,-17.03717 -13.607216,0 -24.4929927,8.252634 -24.4929927,17.03717 z"
       id="path1" />
    <path
       style="fill:#5c7489;stroke-width:0.981231;fill-opacity:1"
       d="M 7.0070053,21.037166 V 31.50877 c 0,2.324392 -0.1846502,6.325652 1.3421178,8.188154 2.5394679,4.26565 7.9813349,13.496594 10.0698779,17.722214 0.681616,1.263856 2.194403,1.5984 4.103424,1.598402 h 8.977573 8.977582 c 1.909012,-2e-6 3.421808,-0.334546 4.103426,-1.598402 2.088542,-4.22562 7.530407,-13.456564 10.069875,-17.722214 1.526769,-1.862502 1.342114,-5.863762 1.342114,-8.188154 V 21.037166 C 55.992995,12.25263 45.107223,4 31.499998,4 17.892782,4 7.0070053,12.25263 7.0070053,21.037166 Z"
       id="path2" />
    <path
       style="opacity:1;stroke-width:0.981231;fill:#3e4b5b;fill-opacity:1"
       d="m 10.429364,30.479766 c -1.5871271,0.011 -3.1746708,0.03488 -3.4213887,0.07252 v 1.35082 c 0,2.324392 -0.1869245,5.931308 1.3398435,7.793814 2.5394652,4.265646 7.9815572,13.49659 10.0700982,17.72221 0.681617,1.263864 2.19558,1.598408 4.104602,1.59841 h 8.977479 8.977488 c 1.909014,-2e-6 3.422984,-0.334546 4.104601,-1.598402 2.088542,-4.22562 7.530633,-13.456564 10.0701,-17.722214 1.52676,-1.862502 1.339841,-5.469418 1.339841,-7.79381 v -1.35082 c -0.285437,1.4e-5 -5.968484,-0.03895 -6.218051,-0.02548 -5.533978,-0.04705 -5.302991,1.934192 -7.58022,5.502654 -2.136703,3.698938 -2.145511,9.295138 -3.212964,11.984599 -1.502341,-5.190687 -0.675237,-16.504815 -7.480795,-16.504815 -6.805548,0 -5.978445,11.314128 -7.480796,16.504804 -1.067452,-2.689462 -0.488254,-8.285662 -2.624957,-11.9846 -1.479216,-2.512402 -3.932657,-5.337804 -7.177522,-5.544302 -0.218798,-0.01394 -2.196537,-0.0165 -3.787359,-0.0054 z"
       id="path3" />
    <path
       style="opacity:1;stroke-width:0.981231;fill:#3c3e5d;fill-opacity:1"
       d="m 22.522519,59.01754 h 8.977479 8.977488 l -1.496693,-11.0035 c -1.502341,-5.190682 -0.675237,-15.12983 -7.480795,-15.12983 -6.805548,0 -5.978445,9.939148 -7.480796,15.12983 z"
       id="path4" />
    <path
       style="opacity:0.2;stroke-width:0.981231"
       d="m 12.880003,28.5614 v 2.94737 c 4.056201,-0.636608 5.927621,4.606601 7.60074,7.527689 1.565017,2.732361 3.539099,10.156521 3.5391,10.156521 1.50235,-5.190682 0.674607,-14.73684 7.480155,-14.73684 6.805558,0 5.977815,9.546158 7.480155,14.73684 0,0 1.974082,-7.42416 3.539109,-10.156521 1.67312,-2.921088 3.54453,-8.164297 7.60074,-7.527689 V 28.5614 H 31.499998 Z"
       id="path5" />
    <path
       style="fill:#aa87de;stroke-width:0.981231"
       d="m 12.880003,27.57895 v 2.94737 c 4.056201,-0.636618 5.927621,4.6066 7.60074,7.527679 1.565017,2.732361 3.539099,10.156531 3.5391,10.156531 1.50235,-5.190682 0.674607,-14.73685 7.480155,-14.73685 6.805558,0 5.977815,9.546168 7.480155,14.73685 0,0 1.974082,-7.42417 3.539109,-10.156531 1.67312,-2.921079 3.54453,-8.164297 7.60074,-7.527679 V 27.57895 H 31.499998 Z"
       id="path6" />
    <path
       style="opacity:0.1;fill:#ffffff;stroke-width:0.981231"
       d="M 31.499998,4 C 17.892782,4 7.0076563,12.251098 7.0076563,21.035634 v 0.98246 c 0,-8.784536 10.8851257,-17.035638 24.4923417,-17.035638 13.607225,0 24.492345,8.251102 24.492345,17.035638 v -0.98246 C 55.992343,12.251098 45.107223,4 31.499998,4 Z"
       id="path7" />
    <path
       style="opacity:0.1;fill:#ffffff;stroke-width:0.981231"
       d="M 12.880003,27.57895 V 28.5614 H 31.499998 50.120002 V 27.57895 H 31.499998 Z"
       id="path8" />
  </g>
</svg>
