<?xml version="1.0" encoding="UTF-8" standalone="no"?>
<svg
   width="62"
   height="62"
   version="1.1"
   id="svg10"
   sodipodi:docname="zen-bound-2.svg"
   inkscape:version="1.4 (unknown)"
   xmlns:inkscape="http://www.inkscape.org/namespaces/inkscape"
   xmlns:sodipodi="http://sodipodi.sourceforge.net/DTD/sodipodi-0.dtd"
   xmlns="http://www.w3.org/2000/svg"
   xmlns:svg="http://www.w3.org/2000/svg">
  <defs
     id="defs10" />
  <sodipodi:namedview
     id="namedview10"
     pagecolor="#ffffff"
     bordercolor="#000000"
     borderopacity="0.25"
     inkscape:showpageshadow="2"
     inkscape:pageopacity="0.0"
     inkscape:pagecheckerboard="0"
     inkscape:deskcolor="#d1d1d1"
     inkscape:zoom="7.0710678"
     inkscape:cx="17.889802"
     inkscape:cy="37.971634"
     inkscape:window-width="1920"
     inkscape:window-height="996"
     inkscape:window-x="0"
     inkscape:window-y="0"
     inkscape:window-maximized="1"
     inkscape:current-layer="svg10" />
  <g
     id="g10"
     transform="matrix(1,0,0,1.0019455,-1,-1.5632288)">
    <path
       d="m 7,13.2 -3,6 3,14 11,6 11,-6 v -6 l -11,-2 z m 50,0 -11,12 -11,2 v 6 l 11,6 11.2,-6 2.8,-14 z m -28,31 -8,6 3,5 8,3 8,-3 3,-5 -8,-6 z"
       style="opacity:0.2"
       id="path1" />
    <path
       d="m 7,12 -3,6 3,14 11,6 11,-6 V 26 L 18,24 Z m 50,0 -11,12 -11,2 v 6 L 46,38 57.2,32 60,18 Z m -28,31 -8,6 3,5 8,3 8,-3 3,-5 -8,-6 z"
       style="fill:#469f7c;fill-opacity:1"
       id="path2" />
    <path
       d="M 7,12 4,18 4.1796875,18.839844 7,13.199219 l 11,12 11,2 V 26 L 18,24 Z m 50,0 -11,12 -11,2 v 1.199219 l 11,-2 11,-12 2.828125,5.658203 L 60,18 Z M 29,43 21,49 21.496094,49.826172 29,44.199219 h 6 L 42.503906,49.826172 43,49 35,43 Z"
       style="opacity:0.1;fill:#ffffff"
       id="path3" />
    <path
       d="m 32,8 -5.6,5.6 2.6,5.6 -5,8 v 12 l 8,15 8,-15 v -12 l -5,-8 2.6,-5.6 z"
       style="opacity:0.2"
       id="path4" />
    <path
       d="M 32,6.8000001 26.4,12.4 29,18 24,26 v 12 l 8,15 8,-15 V 26 l -5,-8 2.6,-5.6 z"
       style="fill:#59a6a2;fill-opacity:1"
       id="path5" />
    <path
       d="M 32,6.8007812 26.400391,12.400391 26.78125,13.21875 32,8 l 5.21875,5.21875 0.380859,-0.818359 z M 28.679688,18.511719 24,26 v 1.199219 l 5,-8 z m 6.640624,0 -0.320312,0.6875 5,8 V 26 Z"
       style="opacity:0.2;fill:#ffffff"
       id="path6" />
    <rect
       x="32"
       y="13.2"
       width="14"
       height="3"
       style="opacity:0.2"
       id="rect6" />
    <rect
       x="32"
       y="12"
       width="14"
       height="3"
       style="fill:#69a5af;fill-opacity:1"
       id="rect7" />
    <path
       d="m 40.142578,21.974738 a 3.0003,3.0003 0 0 0 -2.117187,0.767579 l -16,14 a 3.0003,3.0003 0 1 0 3.949218,4.515624 l 16,-14 a 3.0003,3.0003 0 0 0 -1.832031,-5.283203 z"
       style="opacity:0.2"
       id="path7" />
    <path
       d="M 40,24 24,38"
       style="fill:none;stroke:#8e6c25;stroke-width:6;stroke-linecap:round;stroke-linejoin:round;stroke-opacity:1"
       id="path8" />
    <path
       d="m 24.066406,21.972785 a 3.0003,3.0003 0 0 0 -2.041015,5.285156 l 16,14 a 3.0003,3.0003 0 1 0 3.949218,-4.515624 l -16,-14 a 3.0003,3.0003 0 0 0 -1.908203,-0.769532 z"
       style="opacity:0.2"
       id="path9" />
    <path
       d="M 24,24 40,38"
       style="fill:none;stroke:#d0a349;stroke-width:6;stroke-linecap:round;stroke-linejoin:round;stroke-opacity:1"
       id="path10" />
  </g>
</svg>
