<?xml version="1.0" encoding="UTF-8" standalone="no"?>
<svg
   width="62"
   height="62"
   version="1"
   id="svg11"
   sodipodi:docname="zevdocs.svg"
   inkscape:version="1.4 (unknown)"
   xmlns:inkscape="http://www.inkscape.org/namespaces/inkscape"
   xmlns:sodipodi="http://sodipodi.sourceforge.net/DTD/sodipodi-0.dtd"
   xmlns="http://www.w3.org/2000/svg"
   xmlns:svg="http://www.w3.org/2000/svg">
  <defs
     id="defs11" />
  <sodipodi:namedview
     id="namedview11"
     pagecolor="#ffffff"
     bordercolor="#000000"
     borderopacity="0.25"
     inkscape:showpageshadow="2"
     inkscape:pageopacity="0.0"
     inkscape:pagecheckerboard="0"
     inkscape:deskcolor="#d1d1d1"
     inkscape:zoom="7.0710678"
     inkscape:cx="27.365032"
     inkscape:cy="28.354982"
     inkscape:window-width="1920"
     inkscape:window-height="996"
     inkscape:window-x="0"
     inkscape:window-y="0"
     inkscape:window-maximized="1"
     inkscape:current-layer="svg11" />
  <g
     id="g11"
     transform="translate(-1.2367614e-7,-1)">
    <path
       style="opacity:0.2;stroke-width:0.981798"
       d="M 42.283015,19.46076 V 7.8781156 H 19.716979 V 19.46076 L 5.2399877,55.656507 C 4.3732134,57.828249 5.9622993,60 8.2736847,60 H 53.779203 c 2.311398,0 3.756011,-2.316518 3.033694,-4.343493 z"
       id="path1" />
    <path
       style="fill:#7fc23d;stroke-width:0.981798;fill-opacity:1"
       d="M 42.283015,18.478301 V 6.8956596 H 19.716979 V 18.478301 L 5.2399877,54.674057 c -0.8667743,2.171742 0.7223116,4.343483 3.033697,4.343483 H 53.779203 c 2.311398,0 3.756011,-2.316518 3.033694,-4.343483 z"
       id="path2" />
    <path
       style="opacity:0.1;stroke-width:0.981798"
       d="m 43.166037,10.87719 h -24.33208 c -1.672825,0 -3.041502,-1.3263123 -3.041502,-2.9473656 0,-1.621052 1.368677,-2.9473684 3.041502,-2.9473684 h 24.33208 c 1.672826,0 3.041512,1.3263164 3.041512,2.9473684 0,1.6210533 -1.368686,2.9473656 -3.041512,2.9473656 z"
       id="path3" />
    <path
       style="fill:#75aa38;stroke-width:0.981798"
       d="m 43.166037,9.894737 h -24.33208 c -1.672825,0 -3.041502,-1.3263153 -3.041502,-2.9473696 C 15.792455,5.3263164 17.161132,4 18.833957,4 h 24.33208 c 1.672826,0 3.041512,1.3263164 3.041512,2.9473674 0,1.6210543 -1.368686,2.9473696 -3.041512,2.9473696 z"
       id="path4" />
    <path
       style="opacity:0.1;stroke-width:0.981798"
       d="m 30.380053,38.812256 c -6.799251,-1.129304 -11.644194,-8.079575 -11.644194,-8.079575 0,0 6.281063,-5.102323 13.080318,-3.973007 6.799241,1.129302 11.447974,7.784886 11.447974,7.784886 0,0 -6.084842,5.39701 -12.884098,4.267696 z"
       id="path5" />
    <path
       style="fill:#3da844;stroke-width:0.981798;fill-opacity:1"
       d="m 30.380053,37.829806 c -6.799251,-1.129314 -11.644194,-8.079585 -11.644194,-8.079585 0,0 6.281063,-5.102313 13.080318,-3.973007 6.799241,1.129306 11.447974,7.784896 11.447974,7.784896 0,0 -6.084842,5.397 -12.884098,4.267696 z"
       id="path6" />
    <path
       style="opacity:0.1;stroke-width:0.981798"
       d="m 34.198777,55.059904 c -8.468762,-0.477144 -16.44406,-6.975152 -16.44406,-6.975152 0,0 5.460821,-5.878448 13.774821,-5.341291 8.313978,0.537156 16.444047,6.97514 16.444047,6.97514 0,0 -5.306049,5.818435 -13.774808,5.341303 z"
       id="path7" />
    <path
       style="fill:#3a923e;stroke-width:0.981798;fill-opacity:1"
       d="m 34.198777,54.077444 c -8.468762,-0.477144 -16.44406,-6.975142 -16.44406,-6.975142 0,0 5.460821,-5.878448 13.774821,-5.341291 8.313978,0.537146 16.444047,6.97513 16.444047,6.97513 0,0 -5.306049,5.818435 -13.774808,5.341303 z"
       id="path8" />
    <path
       style="opacity:0.1;stroke-width:0.981798"
       d="m 24.69729,37.652685 c -7.126865,3.838775 -6.942127,10.514813 -6.942127,10.514813 0,0 11.648626,0.655207 18.566876,-3.148197 6.918247,-3.803392 6.942112,-10.514811 6.942112,-10.514811 0,0 -11.439997,-0.690578 -18.566861,3.148195 z"
       id="path9" />
    <path
       style="fill:#6fc373;stroke-width:0.981798;fill-opacity:1"
       d="m 24.69729,36.670225 c -7.126865,3.838775 -6.942127,10.514823 -6.942127,10.514823 0,0 11.648626,0.655207 18.566876,-3.148197 6.918247,-3.803402 6.942112,-10.514821 6.942112,-10.514821 0,0 -11.439997,-0.690578 -18.566861,3.148195 z"
       id="path10" />
    <path
       style="opacity:0.2;fill:#ffffff;stroke-width:0.981798"
       d="m 18.83358,4 c -1.672825,0 -3.041125,1.326317 -3.041125,2.947368 0,0.1679093 0.02358,0.3307899 0.05176,0.491228 0.243936,-1.3884879 1.48984,-2.45614 2.989395,-2.45614 h 24.332841 c 1.499545,0 2.745449,1.0676521 2.98938,2.45614 0.02819,-0.1604381 0.05176,-0.3233187 0.05176,-0.491228 C 46.207549,5.326317 44.839239,4 43.166424,4 Z"
       id="path11" />
  </g>
</svg>
